<?xml version="1.0" encoding="utf-8" ?>
<svg xmlns="http://www.w3.org/2000/svg" xmlns:xlink="http://www.w3.org/1999/xlink" width="371" height="371">
	<path fill="#13FAAE" transform="scale(0.362305 0.362305)" d="M139.024 405.094C140.897 405.251 142.992 405.326 144.75 406.053C147.827 407.324 151.278 410.317 152.539 413.445C153.573 416.008 153.195 419.546 151.954 421.985C150.034 425.754 146.968 427.471 143.109 428.693C139.931 428.622 136.823 428.767 133.945 427.138C131.438 425.718 129.309 423.124 128.546 420.34C127.644 417.051 128.065 413.463 129.982 410.588C132.3 407.11 135.069 405.938 139.024 405.094Z"/>
	<path fill="#F7CAA0" transform="scale(0.362305 0.362305)" d="M155.994 531.07C154.334 529.062 151.771 526.306 151.586 523.621C151.448 521.617 152.526 518.984 153.928 517.567C157.746 513.709 163.584 514.428 168.539 514.42L182.488 514.503C186.478 514.765 190.547 514.695 193.312 518.154C194.481 519.617 195.167 522.309 194.866 524.164C194.415 526.941 193.837 528.941 191.433 530.562L189.045 531.979C186.793 530.661 183.011 531.165 180.374 531.131L155.994 531.07Z"/>
	<path fill="#F7CAA0" transform="scale(0.362305 0.362305)" d="M155.994 531.07L180.374 531.131C183.011 531.165 186.793 530.661 189.045 531.979L189.568 534.483C191.826 536.073 193.999 537.637 194.402 540.564C194.731 542.955 194.45 545.743 192.919 547.7C191.566 549.429 189.325 550.372 187.281 550.968C186.512 551.192 185.89 551.474 185.358 552.08C184.52 551.112 183.681 550.841 182.496 550.482L181.75 550.265C177.483 548.973 172.477 549.454 168.036 549.453C163.001 549.451 157.619 549.096 152.651 549.918C150.906 547.988 148.815 545.909 147.903 543.422C147.296 541.767 147.073 539.3 147.867 537.672C149.418 534.495 152.29 532.935 155.537 531.932L155.994 531.07Z"/>
	<path fill="#F19C5D" transform="scale(0.362305 0.362305)" d="M155.994 531.07L180.374 531.131C183.011 531.165 186.793 530.661 189.045 531.979L189.568 534.483C189.212 534.782 188.932 535.209 188.5 535.38C187.276 535.865 183.503 535.488 182.119 535.478L161.349 535.16C158.015 535.019 157.682 534.265 155.537 531.932L155.994 531.07Z"/>
	<path fill="#13FAAE" transform="scale(0.362305 0.362305)" d="M240.33 371.084C244.256 370.565 248.335 370.837 252 372.438C256.604 374.45 260.066 378.394 261.727 383.12C263.249 387.448 262.82 392.751 260.822 396.839C258.323 401.949 253.888 404.835 248.682 406.629C244.237 407.053 240.454 407.102 236.265 405.128C232.058 403.145 228.438 399.091 226.982 394.664C225.489 390.123 225.546 384.969 227.847 380.703C230.757 375.307 234.689 372.884 240.33 371.084Z"/>
	<path fill="#FEFEFE" transform="scale(0.362305 0.362305)" d="M182.557 471.629C178.747 471.807 174.589 472.138 171.581 469.344C169.854 467.74 168.908 464.912 168.934 462.575C168.96 460.129 169.776 458.163 171.632 456.542C172.905 455.43 174.13 454.821 175.81 454.534C179.851 453.844 184.205 454.006 188.306 453.933L212.495 453.972C216.537 454.005 220.813 453.525 224.817 453.994C228.083 454.376 231.945 455.117 233.993 457.972C235.415 459.953 235.926 462.868 235.447 465.25C235.004 467.454 232.622 469.462 230.75 470.468C229.903 470.923 229.065 471.276 228.131 471.514C218.822 470.767 209.568 471.263 200.25 471.307C194.325 471.336 188.444 470.608 182.557 471.629Z"/>
	<path fill="#F7CAA0" transform="scale(0.362305 0.362305)" d="M152.651 549.918C157.619 549.096 163.001 549.451 168.036 549.453C172.477 549.454 177.483 548.973 181.75 550.265L182.496 550.482C183.681 550.841 184.52 551.112 185.358 552.08L185.618 552.69C188.124 556.072 189.667 558.398 189.178 562.89C189.012 564.411 187.975 565.876 186.788 566.801C184.85 568.313 181.885 568.582 179.505 568.722L182.501 572.6C183.795 575.083 184.799 577.935 183.982 580.782C183.36 582.948 182.018 584.479 180.446 586.022L176.498 586.558C170.424 587.204 156.27 588.311 151.697 584.299C149.815 582.648 148.551 580.39 148.48 577.864C148.38 574.284 151.354 571.731 153.67 569.387C151.042 567.811 148.14 566.206 146.65 563.394C145.48 561.186 145.617 558.04 146.479 555.75C147.535 552.949 149.96 551.621 152.541 550.439L152.651 549.918Z"/>
	<path fill="#F19C5D" transform="scale(0.362305 0.362305)" d="M182.501 572.6C177.248 572.018 172.063 572.054 166.785 572.029C163.701 572.015 159.276 572.444 156.5 570.978C155.851 569.945 155.891 569.963 156.072 568.75C158.48 567.54 175.357 568.123 178.755 568.607L179.505 568.722L182.501 572.6Z"/>
	<path fill="#F19C5D" transform="scale(0.362305 0.362305)" d="M152.651 549.918C157.619 549.096 163.001 549.451 168.036 549.453C172.477 549.454 177.483 548.973 181.75 550.265L182.496 550.482C183.681 550.841 184.52 551.112 185.358 552.08L185.618 552.69L185.126 553.38C180.928 554.188 176.628 553.944 172.372 553.899C167.964 553.852 163.25 554.016 158.909 553.185L158.25 553.055C155.653 552.619 154.533 552.242 152.541 550.439L152.651 549.918Z"/>
	<path fill="#F7CAA0" transform="scale(0.362305 0.362305)" d="M719.909 943.279L766.805 972.582L767.021 981.996L688.714 982.064C696.05 966.935 709.291 955.953 719.909 943.279Z"/>
	<path fill="#13FAAE" transform="scale(0.362305 0.362305)" d="M212.505 251.202C221.758 250.38 231.728 253.31 239.455 258.416C247.891 263.99 254.465 274.329 256.298 284.25C258.165 294.347 255.486 305.235 249.627 313.59C242.473 323.791 231.457 329.384 219.408 331.463C215.207 331.737 210.548 331.786 206.447 330.776L205.5 330.537C199.509 329.066 193.795 326.271 188.962 322.42C180.003 315.281 174.998 304.758 173.784 293.509C172.784 284.241 176.721 273.339 182.577 266.25C190.212 257.006 200.726 252.273 212.505 251.202Z"/>
	<path fill="#DAF3F8" transform="scale(0.362305 0.362305)" d="M433.828 401.98C424.591 390.49 416.591 379.418 410.3 365.995C388.523 319.524 387.732 267.298 397.456 217.75C399.901 205.292 402.901 193.047 407.214 181.082L420.299 198.911C428.222 207.869 438.519 216.083 449.313 221.252C450.939 222.031 453.22 223.435 455.011 223.551C456.39 187.685 465.569 153.905 485.146 123.578C490.21 115.734 495.529 108.218 502.281 101.72C504.453 121.558 508.433 141.096 521.454 156.838C517.829 164.939 513.391 172.461 510.033 180.75C498.786 208.509 494.735 242.269 505.604 270.767C507.611 276.03 509.788 281.194 512.465 286.158C514.367 289.684 516.996 293.199 518.408 296.921C514.216 297.041 509.799 297.019 505.66 297.72C491.767 300.076 477.581 308.019 468.039 318.191C451.232 336.109 442.763 359.849 437.619 383.425L435.235 395.425C434.872 397.451 434.706 400.143 433.828 401.98Z"/>
	<path fill="#77F5F7" transform="scale(0.362305 0.362305)" d="M182.557 471.629C188.444 470.608 194.325 471.336 200.25 471.307C209.568 471.263 218.822 470.767 228.131 471.514C226.72 471.723 225.125 471.718 224.055 472.75L223.949 517C224.767 517.746 225.473 517.599 226.544 517.705L242.335 520.241C243.744 526.089 244.203 532.065 245.101 538L249.708 568.641L251.237 581.317C251.391 582.505 251.417 584.587 251.878 585.602C252.744 587.509 255.991 589.992 257.596 591.52L271.85 605.316L285.743 592.055L330.109 636.741L320.639 649.222L295.355 677.026C286.36 686.912 277.351 696.835 267.087 705.435L265.91 706.75L268.453 709.834L265.25 708.412C258.749 717.598 251.16 724.662 241.69 730.736C225.218 741.303 207.723 745.252 188.551 740.944C169.839 736.738 153.042 725.728 142.808 709.281C133.1 693.682 130.485 674.016 134.677 656.231C140.547 631.325 158.816 613.639 179.865 600.643C180.291 595.744 179.629 590.931 180.446 586.022C182.018 584.479 183.36 582.948 183.982 580.782C184.799 577.935 183.795 575.083 182.501 572.6L179.505 568.722C181.885 568.582 184.85 568.313 186.788 566.801C187.975 565.876 189.012 564.411 189.178 562.89C189.667 558.398 188.124 556.072 185.618 552.69L185.358 552.08C185.89 551.474 186.512 551.192 187.281 550.968C189.325 550.372 191.566 549.429 192.919 547.7C194.45 545.743 194.731 542.955 194.402 540.564C193.999 537.637 191.826 536.073 189.568 534.483L189.045 531.979L191.433 530.562C193.837 528.941 194.415 526.941 194.866 524.164C195.167 522.309 194.481 519.617 193.312 518.154C190.547 514.695 186.478 514.765 182.488 514.503L182.557 471.629Z"/>
	<path fill="#FEFEFE" transform="scale(0.362305 0.362305)" d="M224.919 611.75L225.506 611.67C227.368 611.644 229.353 612.911 230.983 613.715C238.321 617.337 244.744 621.687 250.075 627.989C253.35 631.859 260.681 641.668 260.25 646.784C259.77 646.809 259.274 646.986 258.81 646.859C256.674 646.275 252.673 639.347 251.263 637.46C246.58 631.189 241.198 625.51 234.91 620.816C232.286 618.857 229.239 617.285 226.832 615.079C225.797 614.131 225.016 613.168 224.919 611.75Z"/>
	<path fill="#F7CAA0" transform="scale(0.362305 0.362305)" d="M226.544 517.705L242.335 520.241C243.744 526.089 244.203 532.065 245.101 538L249.708 568.641L251.237 581.317C251.391 582.505 251.417 584.587 251.878 585.602C252.744 587.509 255.991 589.992 257.596 591.52L271.85 605.316L253.477 622.723C244.455 613.426 235.628 606.909 224.02 601.3L223.982 542.937L223.99 526.828C223.993 523.923 223.721 520.822 224.25 517.968L226.544 517.705Z"/>
	<path fill="#BA2D8A" transform="scale(0.362305 0.362305)" d="M271.85 605.316L285.743 592.055L330.109 636.741L320.639 649.222L295.355 677.026C286.36 686.912 277.351 696.835 267.087 705.435C266.995 703.541 268.313 701.554 269.088 699.863C270.277 697.27 271.296 694.611 272.161 691.893C273.372 688.091 274.292 684.117 274.722 680.146C277.131 657.931 266.773 639.515 253.477 622.723L271.85 605.316Z"/>
	<path fill="#13FAAE" transform="scale(0.362305 0.362305)" d="M254.355 651.203L255.5 651.046L256.391 651.75C258.842 657.376 259.652 663.262 259.995 669.363C260.788 683.466 256.988 697.732 247.323 708.365C236.35 720.437 220.732 728.577 204.299 729.191C189.53 729.743 175.258 724.234 164.397 714.301C158.532 708.448 153.622 702.484 150.265 694.84C144.178 680.982 145.872 665.646 151.206 651.88C172.77 654.246 194.81 655.784 216.511 654.943C229.22 654.45 241.773 652.962 254.355 651.203Z"/>
	<path fill="#FEFEFE" transform="scale(0.362305 0.362305)" d="M687.729 639.039C705.905 646.082 724.713 654.234 741.307 664.465C776.267 686.02 803.998 718.227 820.508 755.75C840.358 800.865 839.899 854.884 821.965 900.5L809.7 927.508L821.173 934.24L787.308 985.465L781.035 981.722L767.021 981.996L766.805 972.582L719.909 943.279C709.291 955.953 696.05 966.935 688.714 982.064L596.339 982.414L596.069 981.854C595.243 979.315 595.917 974.393 595.917 971.669L595.926 939.325L595.927 818.317L595.901 779.66C595.894 775.382 595.332 770.972 595.538 766.736C595.601 765.435 595.805 764.17 596.326 762.969C597.763 759.653 600.722 756.441 602.798 753.473L623.356 725.144L665.171 669.302L687.729 639.039ZM719.498 740.423C728.701 751.11 733.897 763.601 738.815 776.663C745.21 793.646 750.159 810.821 753.741 828.605L756.304 844.312C756.581 846.259 756.526 849.244 757.649 850.793L758.199 848.75C759.54 839.164 760.36 829.632 759.845 819.945C758.671 797.861 750.504 776.319 737.221 758.708C732.426 752.35 726.496 744.394 719.498 740.423Z"/>
	<path fill="#0B369E" transform="scale(0.362305 0.362305)" d="M629.688 769.504C631.885 769.432 634.027 769.508 636.148 770.153C639.652 771.22 642.219 773.576 643.918 776.771C645.239 779.254 645.686 782.132 644.822 784.828C643.251 789.731 639.91 792.216 635.482 794.46C633.3 794.814 630.706 794.858 628.576 794.193C624.866 793.033 621.964 790.748 620.328 787.19C618.946 784.186 619.243 780.409 620.447 777.391C622.21 772.974 625.598 771.262 629.688 769.504Z"/>
	<path fill="#0B369E" transform="scale(0.362305 0.362305)" d="M628.544 841.486C631.041 841.44 633.851 841.339 636.25 842.094C639.559 843.135 642.314 846.313 643.7 849.378C644.823 851.86 644.932 855.678 643.978 858.25C642.27 862.858 639.126 865.241 634.834 867.304C633.378 867.586 631.656 867.567 630.209 867.244C626.532 866.422 623.001 864.239 620.997 861C619.165 858.037 618.81 854.006 619.719 850.679C621.005 845.968 624.567 843.757 628.544 841.486Z"/>
	<path fill="#0B369E" transform="scale(0.362305 0.362305)" d="M629.518 913.043C631.561 912.957 633.513 912.907 635.5 913.469C639.054 914.474 641.774 917.11 643.394 920.371C644.92 923.443 645.077 927.451 643.883 930.66C642.151 935.317 638.545 937.485 634.278 939.463C631.958 939.579 629.611 939.411 627.411 938.592C624.174 937.387 622.072 934.965 620.639 931.913C619.122 928.683 618.906 924.902 620.211 921.568C621.935 917.162 625.397 914.917 629.518 913.043Z"/>
	<defs>
		<linearGradient id="gradient_0" gradientUnits="userSpaceOnUse" x1="809.72369" y1="955.1424" x2="705.68848" y2="908.39099">
			<stop offset="0" stop-color="#982276"/>
			<stop offset="1" stop-color="#DA3E91"/>
		</linearGradient>
	</defs>
	<path fill="url(#gradient_0)" transform="scale(0.362305 0.362305)" d="M719.909 943.279L696.185 928.228C698.793 922.141 702.574 916.605 705.856 910.864L725.1 877.21L808.871 927.104L809.7 927.508L821.173 934.24L787.308 985.465L781.035 981.722L767.021 981.996L766.805 972.582L719.909 943.279Z"/>
	<path fill="#FEFEFE" transform="scale(0.362305 0.362305)" d="M766.805 972.582C771.402 975.448 776.901 978.275 781.035 981.722L767.021 981.996L766.805 972.582Z"/>
	<path fill="#FEFEFE" transform="scale(0.362305 0.362305)" d="M585.543 597.074C607.866 598.623 630.203 599.61 652.118 593.91C652.878 598.246 652.622 602.808 652.843 607.201C664.186 611.177 677.054 614.591 687.269 621.072C690.092 622.725 694.389 624.563 696.609 626.826L687.729 639.039L665.171 669.302L623.356 725.144L602.798 753.473C600.722 756.441 597.763 759.653 596.326 762.969C595.805 764.17 595.601 765.435 595.538 766.736C595.332 770.972 595.894 775.382 595.901 779.66L595.927 818.317L595.926 939.325L595.917 971.669C595.917 974.393 595.243 979.315 596.069 981.854L596.339 982.414L573.93 982.121L469.238 982.118L471.534 919.692L475.949 881C481.414 838.273 489.557 796.099 501.46 754.683C479.315 763.178 456.72 768.76 432.983 770.329C374.434 774.199 312.644 748.801 269.119 710.427L268.453 709.834L265.91 706.75L267.087 705.435C277.351 696.835 286.36 686.912 295.355 677.026L320.639 649.222C340.462 663.039 360.576 675.398 383.827 682.519C416.495 692.524 449.474 689.094 480.791 676.298C505.515 666.196 528.45 651.76 551.992 639.251L544.13 626.491L547.74 624.113C558.222 616.522 572.937 611.336 585.498 608.471L585.543 597.074Z"/>
	<path fill="#0B369E" transform="scale(0.362305 0.362305)" d="M585.543 597.074C607.866 598.623 630.203 599.61 652.118 593.91C652.878 598.246 652.622 602.808 652.843 607.201C664.186 611.177 677.054 614.591 687.269 621.072C690.092 622.725 694.389 624.563 696.609 626.826L687.729 639.039L665.171 669.302L623.356 725.144L602.798 753.473C600.722 756.441 597.763 759.653 596.326 762.969C595.805 764.17 595.601 765.435 595.538 766.736C595.332 770.972 595.894 775.382 595.901 779.66L595.927 818.317L595.926 939.325L595.917 971.669C595.917 974.393 595.243 979.315 596.069 981.854L596.339 982.414L573.93 982.121L594.59 982.221C595.709 962.607 594.728 942.681 594.711 923.022L594.651 808.282L594.576 775.506C594.562 772.1 593.836 766.92 594.6 763.733C595.174 761.341 599.085 757.059 600.558 754.987L616.552 732.018L551.992 639.251L544.13 626.491L547.74 624.113C558.222 616.522 572.937 611.336 585.498 608.471L585.543 597.074Z"/>
	<path fill="#031D84" transform="scale(0.362305 0.362305)" d="M585.543 597.074C607.866 598.623 630.203 599.61 652.118 593.91C652.878 598.246 652.622 602.808 652.843 607.201C664.186 611.177 677.054 614.591 687.269 621.072C682.174 625.351 677.466 630.742 672 634.462C666.806 637.998 661.492 641.418 655.75 644.007C638.867 651.62 618.004 654.186 599.795 650.946C580.105 647.443 562.98 636.659 547.74 624.113C558.222 616.522 572.937 611.336 585.498 608.471L585.543 597.074Z"/>
	<path fill="#F19C5D" transform="scale(0.362305 0.362305)" d="M585.543 597.074C607.866 598.623 630.203 599.61 652.118 593.91C652.878 598.246 652.622 602.808 652.843 607.201L652.737 621.425C652.761 623.42 653.224 626.107 652.509 627.933C649.067 630.163 645.67 632.292 641.844 633.815C630.03 638.517 614.668 638.717 602.362 636.201C596.003 634.901 590.063 632.277 585.522 627.57L585.498 608.471L585.543 597.074Z"/>
	<path fill="#F7CAA0" transform="scale(0.362305 0.362305)" d="M433.828 401.98C434.706 400.143 434.872 397.451 435.235 395.425L437.619 383.425C442.763 359.849 451.232 336.109 468.039 318.191C477.581 308.019 491.767 300.076 505.66 297.72C509.799 297.019 514.216 297.041 518.408 296.921C522.842 302.328 527.227 307.582 532.496 312.219C549.483 327.169 570.307 335.129 592.657 337.297C604.726 338.467 619.658 337.883 630.849 332.522C635.618 330.238 639.935 327.14 644.766 324.947C656.913 319.433 672.886 318.637 685.775 321.996C696.019 324.665 706.084 329.537 715.505 334.292C724.874 341.469 733.63 347.911 741.37 356.97C744.824 361.012 747.584 365.95 751.131 369.775C759.777 383.702 766.513 400.386 768.522 416.766L769.321 443.996C776.324 437.811 783.03 431.579 792.25 429.005L793.188 428.733C803.098 425.944 813.523 428.969 822.106 433.98C824.64 435.46 827.243 437.106 829.48 439.011C838.27 448.927 842.329 460.436 841.5 473.702C840.716 486.249 833.562 498.301 824.25 506.426C817.482 512.331 809.009 515.603 800.25 517.075L799.553 517.2C788.495 519.029 774.999 515.307 765.837 508.95C761.009 516.671 756.363 524.517 750.694 531.667C727.114 561.413 692.017 584.889 654.839 593.331L652.118 593.91C630.203 599.61 607.866 598.623 585.543 597.074C553.254 592.801 521.27 578.668 496.379 557.612C461.655 528.238 437.865 485.922 433.815 440.333C433.128 432.599 432.977 424.723 433.3 416.972C433.486 412.482 434.38 407.256 433.926 402.831L433.828 401.98Z"/>
	<path fill="#EA7152" transform="scale(0.362305 0.362305)" d="M778.334 476.051C778.659 469.869 781.271 463.483 784.179 458.067C787.164 452.507 792.019 447.985 798.204 446.25C803.669 444.717 808.788 446.744 813.523 449.307L812.872 449.626C811.626 450.188 809.937 449.988 808.594 449.992C805.096 450.004 801.142 449.55 797.837 450.803L797.092 451.078C789.84 453.883 784.713 460.56 781.763 467.523C780.558 470.367 779.882 473.368 778.334 476.051Z"/>
	<path fill="#EA7152" transform="scale(0.362305 0.362305)" d="M561.77 462.131L563.314 462.03C567.75 462 570.102 464.496 573.114 467.31L565.274 465.868C561.476 465.468 557.176 466.143 554.176 468.633C552.14 470.322 550.614 472.466 550.462 475.16C550.215 479.54 552.689 483.505 555.419 486.719L561.019 491.647C558.68 491.167 555.673 490.051 553.625 488.834C550.523 486.991 547.57 483.443 546.787 479.88C546.009 476.339 546.583 472.297 548.591 469.25C551.875 464.266 556.203 463.205 561.77 462.131Z"/>
	<path fill="#B91C1A" transform="scale(0.362305 0.362305)" d="M618.393 493.75L619.434 493.635C620.14 494.124 620.747 494.25 620.922 495.149C621.389 497.541 619.167 501.081 617.988 503.116C611.812 513.769 600.797 521.084 588.931 523.854C575.36 527.022 561.385 523.895 549.618 516.826L547.959 515.546C547.426 514.013 547.622 513.975 548.25 512.448C551.123 511.239 558.958 516.7 562.496 517.845C567.843 519.576 574.575 520.758 580.218 520.407C592.03 519.671 604.61 513.966 611.755 504.262C613.964 501.261 615.198 497.157 617.703 494.464L618.393 493.75Z"/>
	<path fill="#F99C9E" transform="scale(0.362305 0.362305)" d="M481.844 472.646C489.333 472.318 497.678 472.332 504.336 476.314C505.932 477.268 508.316 479.556 508.61 481.5C508.832 482.964 508.459 484.322 507.585 485.5C504.669 489.429 499.721 491.001 495.131 491.903C487.454 492.655 480.63 492.534 473.563 488.802C471.448 487.685 469.673 485.845 469.1 483.47C468.74 481.982 469.152 480.637 469.947 479.39C472.631 475.183 477.3 473.784 481.844 472.646Z"/>
	<path fill="#F99C9E" transform="scale(0.362305 0.362305)" d="M679.12 470.175C684.549 469.103 692.718 470.316 697.688 472.8C701.085 474.498 703.244 476.912 704.475 480.5C704.126 482.367 703.559 483.722 702.35 485.21C698.577 489.853 691.933 491.116 686.31 491.84C679.456 492.719 671.974 491.594 666.164 487.667C664.083 486.261 661.514 483.781 661.146 481.214C660.939 479.775 661.634 478.506 662.501 477.399C666.751 471.97 672.734 471.055 679.12 470.175Z"/>
	<path fill="#FEFEFE" transform="scale(0.362305 0.362305)" d="M493.531 354.689C498.481 353.81 506.402 354.57 510.984 356.766C513.892 358.159 516.876 360.313 517.771 363.58C518.431 365.992 517.826 368.497 516.429 370.518C511.115 378.208 496.757 379.672 488.307 381.101C483.288 381.988 476.265 382.503 471.403 380.759L470.75 380.507C469.965 380.21 469.232 379.917 468.5 379.5C466.543 378.387 463.97 376.084 463.521 373.75C462.983 370.947 464.356 368.664 465.997 366.528C471.928 358.804 484.338 355.916 493.531 354.689Z"/>
	<path fill="#FEFEFE" transform="scale(0.362305 0.362305)" d="M665.117 354.633C676.735 354.634 687.5 355.869 697.339 362.713C700.548 364.945 703.746 368.449 704.322 372.442C704.562 374.111 703.644 376.96 702.639 378.306C700.003 381.834 695.07 382.791 690.998 383.522C679.448 383.629 667.713 381.373 657.531 375.762C654.152 373.899 651.274 370.877 650.321 367.052C649.849 365.158 649.966 363.417 651.009 361.734C653.765 357.285 660.368 355.625 665.117 354.633Z"/>
	<path fill="#F19C5D" transform="scale(0.362305 0.362305)" d="M813.523 449.307C817.181 451.446 819.234 453.643 821.073 457.5L821.455 458.286C823.708 463.064 824.245 468.464 822.647 473.518C820.9 479.041 818.071 483.97 812.842 486.888C804.737 491.41 795.645 491.625 786.923 488.989L777.297 485.65L778.202 476.161L778.334 476.051C779.882 473.368 780.558 470.367 781.763 467.523C784.713 460.56 789.84 453.883 797.092 451.078L797.837 450.803C801.142 449.55 805.096 450.004 808.594 449.992C809.937 449.988 811.626 450.188 812.872 449.626L813.523 449.307Z"/>
	<path fill="#FEFEFE" transform="scale(0.362305 0.362305)" d="M506.039 404.113C513.331 403.603 521.629 405.528 527.438 410.116C534.713 415.861 539.414 423.684 540.397 433.006C541.361 442.143 538.942 450.624 533.15 457.764C527.695 464.488 520.623 467.914 512.126 468.788C505.263 469.414 499.514 467.59 493.666 464.063C486.124 459.515 480.807 450.526 478.866 442.098C477.024 434.101 479.095 424.561 483.554 417.75C488.877 409.618 496.983 406.182 506.039 404.113Z"/>
	<path fill="#050404" transform="scale(0.362305 0.362305)" d="M493.231 427.568C495.587 427.191 498.506 427.173 500.815 427.793C504.348 428.742 507.352 431.23 509.006 434.496C510.781 438 511.093 442.248 509.732 445.958C508.106 450.389 504.793 452.494 500.776 454.437C498.528 454.78 496.189 454.688 493.968 454.201C490.344 453.405 487.638 451.485 485.689 448.315C483.731 445.133 482.998 440.867 484.017 437.25C485.441 432.2 488.892 429.89 493.231 427.568Z"/>
	<path fill="#FEFEFE" transform="scale(0.362305 0.362305)" d="M651.951 403.571C659.494 403.367 666.314 404.049 672.939 408.118C680.34 412.662 685.943 420.341 687.902 428.821C690.049 438.115 688.181 448.205 683.076 456.23C678.344 463.669 671.291 467.283 662.884 469.091C660.599 469.378 658.093 469.586 655.789 469.41C646.799 468.724 638.296 464.233 632.69 457.165C627.392 450.485 624.153 441.525 625.292 432.969L625.428 432C625.975 427.876 627.222 424.144 629.173 420.474C634.246 410.931 641.967 406.685 651.951 403.571Z"/>
	<path fill="#050404" transform="scale(0.362305 0.362305)" d="M641.969 426.692C644.336 427.039 646.97 427.235 649.169 428.209C652.359 429.624 654.836 433.035 655.984 436.25C657.283 439.886 656.674 444.457 654.892 447.812C652.713 451.914 648.729 453.304 644.602 454.579C641.899 454.562 639.428 454.349 637 453.047C633.492 451.166 630.926 447.476 629.937 443.667C628.945 439.843 629.719 435.974 631.832 432.671C634.231 428.921 637.874 427.671 641.969 426.692Z"/>
	<path fill="#FEFEFE" transform="scale(0.362305 0.362305)" d="M521.454 156.838C530.765 141.95 540.727 127.529 552.956 114.853C590.54 75.8963 644.59 55.4402 695.897 42.082C691.614 48.5171 687.033 54.8905 683.294 61.6562C670.715 84.4143 663.197 111.93 662.885 137.922C704.48 121.291 749.337 120.651 792.75 130.161C800.497 131.858 808.055 134.466 815.695 136.576C811.474 139.638 806.822 141.989 802.43 144.793C789.659 152.949 776.115 162.025 765.354 172.778L783.042 176.332C807.71 181.44 832.095 185.182 857.391 183.285C863.219 182.847 869.084 181.677 874.838 180.666C865.425 205.428 849.623 229.72 829.655 247.302C846.491 249.203 862.718 249.243 878.861 243.25C885.631 240.737 891.701 237.206 897.798 233.396L893.106 262.337C888.001 286.201 878.526 311.163 863.714 330.702C858.459 337.634 852.111 344.405 844.868 349.299L840.341 351.944C857.193 353.493 875.51 350.447 892.076 347.295C893.186 347.083 893.411 346.66 894.305 347.5L893.673 350.042C881.203 386.131 860.935 416.811 829.48 439.011C827.243 437.106 824.64 435.46 822.106 433.98C813.523 428.969 803.098 425.944 793.188 428.733L792.25 429.005C783.03 431.579 776.324 437.811 769.321 443.996L768.522 416.766C766.513 400.386 759.777 383.702 751.131 369.775C747.584 365.95 744.824 361.012 741.37 356.97C733.63 347.911 724.874 341.469 715.505 334.292C706.084 329.537 696.019 324.665 685.775 321.996C672.886 318.637 656.913 319.433 644.766 324.947C639.935 327.14 635.618 330.238 630.849 332.522C619.658 337.883 604.726 338.467 592.657 337.297C570.307 335.129 549.483 327.169 532.496 312.219C527.227 307.582 522.842 302.328 518.408 296.921C516.996 293.199 514.367 289.684 512.465 286.158C509.788 281.194 507.611 276.03 505.604 270.767C494.735 242.269 498.786 208.509 510.033 180.75C513.391 172.461 517.829 164.939 521.454 156.838Z"/>
	<path fill="#DAF3F8" transform="scale(0.362305 0.362305)" d="M715.505 334.292C745.305 334.878 775.676 328.537 803.538 318.126L826.448 308.366L813.416 325.74C803.208 338.293 790.929 349.913 776.5 357.461L762.395 364.509C758.844 366.126 754.22 367.467 751.131 369.775C747.584 365.95 744.824 361.012 741.37 356.97C733.63 347.911 724.874 341.469 715.505 334.292Z"/>
	<path fill="#DAF3F8" transform="scale(0.362305 0.362305)" d="M768.522 416.766C776.175 417.606 785.123 416.213 792.624 414.665C819.464 409.126 844.428 396.958 864.868 378.565C869.109 374.748 873.237 370.588 877.087 366.376L885.583 356.221C886.747 354.758 888.933 351.6 890.621 350.75C891.38 350.368 892.807 350.243 893.673 350.042C881.203 386.131 860.935 416.811 829.48 439.011C827.243 437.106 824.64 435.46 822.106 433.98C813.523 428.969 803.098 425.944 793.188 428.733L792.25 429.005C783.03 431.579 776.324 437.811 769.321 443.996L768.522 416.766Z"/>
</svg>
