<?xml version="1.0" encoding="utf-8" ?>
<svg xmlns="http://www.w3.org/2000/svg" xmlns:xlink="http://www.w3.org/1999/xlink" width="371" height="371">
	<path fill="#974932" transform="scale(0.362305 0.362305)" d="M691.876 289.694C691.059 282.641 691.642 274.882 691.596 267.747C690.011 267.023 686.297 267.516 684.473 267.531L663.715 267.835L663.894 229.076L716.908 228.946L716.984 267.219L691.934 267.241L691.876 289.694Z"/>
	<path fill="#974932" transform="scale(0.362305 0.362305)" d="M579.727 229.185L635.476 229.037L635.418 267.517L605.509 267.488L579.841 267.064L579.657 230.204L579.615 229.63L579.727 229.185Z"/>
	<path fill="#974932" transform="scale(0.362305 0.362305)" d="M417.538 267.572C414.168 267.98 410.536 267.729 407.123 267.743L388.246 267.779C387.409 265.965 388.009 260.509 388.005 258.277L387.966 229.036L444.427 229.012L444.327 266.935L443.427 267.404L417.538 267.572Z"/>
	<path fill="#974932" transform="scale(0.362305 0.362305)" d="M306.433 228.971L363.47 229.079L363.427 267.503L332.973 267.49L307.895 266.97L306.656 267.103L306.433 228.971Z"/>
	<path fill="#974932" transform="scale(0.362305 0.362305)" d="M143.391 267.316C135.533 268.032 127.08 267.503 119.152 267.536C116.388 267.548 112.497 268.13 109.955 267.288L109.901 228.858L168.473 228.963L168.464 267.198L143.391 267.316Z"/>
	<path fill="#974932" transform="scale(0.362305 0.362305)" d="M854.506 228.952L914.097 229.045L914.04 267.337L880.038 267.439L854.479 266.986L854.506 228.952Z"/>
	<path fill="#F57706" transform="scale(0.362305 0.362305)" d="M444.438 179.777C437.367 175.46 432.128 170.621 430.013 162.25C429.214 159.087 429.288 155.496 429.178 152.239C428.893 143.805 428.483 134.239 433.044 126.784C436.147 121.712 441.55 118.049 447.338 116.771L449.75 116.401L450.558 116.288C457.971 115.347 466.251 116.019 473.771 116.015L520.926 116.023L556.463 115.982C562.473 115.969 569.254 115.306 575.154 116.28L576.007 116.416C581.956 117.428 587.506 120.774 590.97 125.75C592.849 128.45 594.445 131.81 595.157 135.034C596.025 138.971 595.545 143.72 595.542 147.75C595.539 152.133 595.987 157.054 595.162 161.361C593.776 168.592 589.421 174.952 583.25 178.972C582.081 179.734 580.821 180.452 579.472 180.835C568.254 183.112 558.039 182.002 546.774 182.018C543.927 182.022 540.57 181.704 537.776 182.102L488.4 182.022C473.552 182.015 459.083 182.709 444.438 179.777Z"/>
	<path fill="#F57706" transform="scale(0.362305 0.362305)" d="M168.691 179.518C166.056 178.143 163.623 176.447 161.52 174.34C152.7 165.503 153.44 155.911 153.55 144.249C153.626 136.233 154.581 129.065 160.739 123.223C164.872 119.302 169.882 117.103 175.5 116.416L176.381 116.301C183.161 115.5 190.525 116.027 197.365 116.023L236.804 116.028L279.913 116.006C287.512 116.01 295.585 115.461 303.129 116.387C307.609 116.937 311.771 118.591 315.305 121.421C319.964 125.153 322.948 131.253 323.48 137.158C324.555 149.083 325.479 163.423 317.226 173.079C314.397 176.389 310.735 179.213 306.505 180.416L295.378 181.658L219.734 181.59C202.822 181.556 185.223 183.669 168.691 179.518Z"/>
	<path fill="#F57706" transform="scale(0.362305 0.362305)" d="M716.96 181.204C713.6 179.495 710.745 177.603 708.08 174.934C699.834 166.675 700.903 155.54 700.996 144.777C701.068 136.352 701.747 129.315 708.112 123.025C712.267 118.919 717.262 116.8 723 115.919L723.793 115.793C730.238 114.855 737.534 115.505 744.073 115.525L779.449 115.517L825.429 115.52C832.949 115.526 841.155 114.887 848.606 115.738C852.801 116.217 857.45 117.74 860.842 120.246C866.308 124.286 869.001 130.221 870.098 136.75L870.219 137.43C870.77 140.806 870.535 144.475 870.535 147.9C870.536 156.554 870.934 165.449 865.388 172.75C863.944 174.652 861.959 176.547 860.014 177.91C858.615 178.89 855.036 180.202 854.363 181.452C852.615 180.745 850.725 181.4 848.859 181.597C845.331 181.969 841.71 182.375 838.165 182.464L810.424 182.392C802.91 182.378 795.219 182.725 787.725 182.324L716.96 181.204Z"/>
	<path fill="#DBD9D4" transform="scale(0.362305 0.362305)" d="M444.438 179.777C459.083 182.709 473.552 182.015 488.4 182.022L537.776 182.102C540.57 181.704 543.927 182.022 546.774 182.018C558.039 182.002 568.254 183.112 579.472 180.835L579.548 214.172C579.559 218.932 578.997 224.511 579.727 229.185L579.615 229.63L579.556 230.167L579.35 266.984C569.577 266.998 558.892 266.115 549.24 267.397L526.05 267.598L513.455 268.003L465.893 267.541C460.521 267.506 454.946 268.225 449.631 267.943C447.817 267.847 446.007 267.656 444.327 266.935L444.427 229.012L444.438 179.777Z"/>
	<path fill="#FEFEFE" transform="scale(0.362305 0.362305)" d="M537.776 182.102C540.57 181.704 543.927 182.022 546.774 182.018C558.039 182.002 568.254 183.112 579.472 180.835L579.548 214.172C579.559 218.932 578.997 224.511 579.727 229.185L579.615 229.63L579.556 230.167L579.35 266.984C569.577 266.998 558.892 266.115 549.24 267.397L526.05 267.598C521.973 267.202 517.674 267.568 513.574 267.657L513.496 182.543L527.592 182.594C530.806 182.59 534.162 182.81 537.329 182.197L537.776 182.102Z"/>
	<path fill="#DBD9D4" transform="scale(0.362305 0.362305)" d="M579.615 229.63L579.657 230.204L579.841 267.064L605.509 267.488L605.035 655.484L605.024 766.799L605.011 799.687C605.006 808.403 605.257 817.266 603.891 825.9C600.771 845.608 591.122 864.244 576.922 878.25C559.54 895.395 535.763 905.776 511.219 905.423C486.154 905.063 461.832 894.984 444.481 876.84C431.416 863.177 422.682 846.052 419.718 827.354C418.306 818.441 418.426 809.619 418.375 800.628L418.232 767.694L417.983 654.349L417.538 267.572L443.427 267.404L444.327 266.935C446.007 267.656 447.817 267.847 449.631 267.943C454.946 268.225 460.521 267.506 465.893 267.541L513.455 268.003L526.05 267.598L549.24 267.397C558.892 266.115 569.577 266.998 579.35 266.984L579.556 230.167L579.615 229.63Z"/>
	<path fill="#64CDEA" transform="scale(0.362305 0.362305)" d="M549.24 267.397L579.537 267.393L580.141 328.25L579.971 433.943L580.168 479.75C580.258 485.171 579.81 491.045 580.403 496.389C571.17 493.149 559.473 493.477 549.788 492.969L505.859 491.339C508.116 490.885 510.669 491.059 512.978 491.009L513.455 268.003L526.05 267.598L549.24 267.397Z"/>
	<path fill="#47B8E5" transform="scale(0.362305 0.362305)" d="M443.427 267.404L444.327 266.935C446.007 267.656 447.817 267.847 449.631 267.943C454.946 268.225 460.521 267.506 465.893 267.541L513.455 268.003L512.978 491.009C510.669 491.059 508.116 490.885 505.859 491.339C484.689 491.499 463.315 491.903 442.537 496.365L443.427 267.404Z"/>
	<path fill="#F57706" transform="scale(0.362305 0.362305)" d="M505.859 491.339L549.788 492.969C559.473 493.477 571.17 493.149 580.403 496.389L580.867 498.596L580.806 576.741L580.861 717.818L580.978 786.243C581.006 798.113 582.243 810.402 580.351 822.145C578.2 835.5 571.555 849.357 562.186 859.104C548.779 873.052 531.146 881.134 511.75 881.471C493.071 881.795 475.713 874.32 462.435 861.266C451.103 850.125 444.974 836.295 442.841 820.657C441.486 810.723 442.473 800.527 442.519 790.541L442.556 735.867L442.529 578.931L442.517 527.037L442.468 499.713L442.537 496.365C463.315 491.903 484.689 491.499 505.859 491.339Z"/>
	<path fill="#F9CB03" transform="scale(0.362305 0.362305)" d="M488.791 628.096C493.249 627.923 497.646 628.089 501.688 630.282C506.213 632.738 510.39 637.56 511.777 642.613C513.105 647.453 512.46 653.162 509.996 657.5C506.622 663.441 502.249 666.247 495.838 668.005C491.675 668.594 487.514 668.051 483.697 666.305C478.557 663.954 474.978 659.394 473.191 654.094C471.493 649.057 471.91 643.591 474.305 638.849C477.113 633.287 483.045 629.854 488.791 628.096Z"/>
	<path fill="#E81A10" transform="scale(0.362305 0.362305)" d="M505.859 491.339L549.788 492.969C559.473 493.477 571.17 493.149 580.403 496.389L580.867 498.596C580.242 499.975 580.205 500.108 578.686 500.626C576.085 501.514 573.103 501.805 570.398 502.302C563.309 503.604 556.566 504.194 549.412 504.778L502.335 506.515C481.73 506.37 462.442 505.073 442.468 499.713L442.537 496.365C463.315 491.903 484.689 491.499 505.859 491.339Z"/>
	<path fill="#F9CB03" transform="scale(0.362305 0.362305)" d="M496.882 697.613C504.5 696.771 511.942 697.95 518.037 702.891C524.068 707.78 527.005 714.143 527.812 721.781C528.471 728.011 526.303 735.502 522.334 740.352L521.75 741.052C517.371 746.38 512.443 748.601 505.901 750.429C502.005 750.563 498.41 750.421 494.609 749.414C487.971 747.654 481.811 742.813 478.453 736.844C475.047 730.79 473.634 723.504 475.673 716.727L475.902 716C476.649 713.529 477.522 711.4 478.945 709.227C483.334 702.529 489.234 699.29 496.882 697.613Z"/>
	<path fill="#DBD9D4" transform="scale(0.362305 0.362305)" d="M787.725 182.324C795.219 182.725 802.91 182.378 810.424 182.392L838.165 182.464C841.71 182.375 845.331 181.969 848.859 181.597C850.725 181.4 852.615 180.745 854.363 181.452L854.506 228.952L854.479 266.986L880.038 267.439L879.976 652.695L880.002 764.553L880.005 796.74C880.005 804.842 880.256 813.26 879.049 821.29C875.78 843.034 867.208 863.12 851.47 878.829C834.228 896.039 809.697 906.528 785.252 906.487C761.519 906.447 737.15 896.567 720.412 879.686C706.661 865.819 696.982 849.218 693.642 829.854C692.262 821.847 692.445 813.702 692.42 805.611L692.331 775.14L692.082 669.179L691.876 289.694L691.934 267.241L716.984 267.219L716.908 228.946L716.96 181.204L787.725 182.324Z"/>
	<path fill="#FEFEFE" transform="scale(0.362305 0.362305)" d="M787.725 182.324C795.219 182.725 802.91 182.378 810.424 182.392L838.165 182.464C841.71 182.375 845.331 181.969 848.859 181.597C850.725 181.4 852.615 180.745 854.363 181.452L854.506 228.952L854.479 266.986L788.426 267.919C787.705 266.079 788.075 262.925 788.073 260.917L788.054 244.178L787.725 182.324Z"/>
	<path fill="#64CDEA" transform="scale(0.362305 0.362305)" d="M854.479 266.986C855.474 276.455 855.004 286.071 854.913 295.583L854.583 340.465L855.01 496.267C844.505 494.019 834.058 493.464 823.375 492.864L787.003 491.089L787.308 268.042L788.426 267.919L854.479 266.986Z"/>
	<path fill="#47B8E5" transform="scale(0.362305 0.362305)" d="M716.329 497.61C717.092 491.265 716.559 484.319 716.559 477.901L716.567 440.058L716.872 326.343L716.903 292.5C716.858 284.121 716.563 275.863 717.045 267.484L787.308 268.042L787.003 491.089C770.622 491.387 754.249 491.584 737.953 493.481C730.68 494.327 723.293 495.233 716.329 497.61Z"/>
	<path fill="#07A11F" transform="scale(0.362305 0.362305)" d="M787.003 491.089L823.375 492.864C834.058 493.464 844.505 494.019 855.01 496.267L855.011 500.996L855.008 725.886L855.008 785.767C855.008 799.048 856.021 812.971 853.513 826.065C850.795 840.261 842.86 852.775 832.75 862.871C821.378 874.228 802.82 882.583 786.506 882.32L784.435 882.214C766.696 881.505 749.989 875.292 737.085 862.898C727.685 853.87 720.491 841.617 717.938 828.765C715.163 814.796 716.284 800.401 716.354 786.254L716.451 733.631L716.484 581.941L716.372 499.894L716.329 497.61C723.293 495.233 730.68 494.327 737.953 493.481C754.249 491.584 770.622 491.387 787.003 491.089Z"/>
	<path fill="#97E11B" transform="scale(0.362305 0.362305)" d="M759.666 630.058C763.191 629.647 766.523 629.974 769.75 631.542C774.231 633.718 777.398 638.217 778.754 642.906C780.014 647.263 779.084 651.348 776.899 655.273C774.207 660.106 770.374 662.156 765.25 663.693C760.945 664.217 756.515 663.656 752.717 661.424C748.889 659.175 746.127 655.343 745.063 651.04C743.959 646.575 744.58 641.838 747.025 637.911C749.929 633.244 754.545 631.208 759.666 630.058Z"/>
	<path fill="#97E11B" transform="scale(0.362305 0.362305)" d="M787.003 491.089L823.375 492.864C834.058 493.464 844.505 494.019 855.01 496.267L855.011 500.996C838.995 504.198 822.787 504.572 806.493 504.914C800.389 505.043 794.064 504.604 788.014 505.289C782.342 505.897 775.979 505.136 770.25 505.009C756.184 504.698 741.457 505.15 727.552 503.093C723.726 502.527 719.826 501.656 716.372 499.894L716.329 497.61C723.293 495.233 730.68 494.327 737.953 493.481C754.249 491.584 770.622 491.387 787.003 491.089Z"/>
	<path fill="#97E11B" transform="scale(0.362305 0.362305)" d="M787.535 745.165L786.392 745.737C779.601 749.018 771.912 749.631 764.75 746.988C758.429 744.654 753.394 739.723 750.593 733.639C747.596 727.13 747.717 719.201 750.344 712.587C752.82 706.353 757.996 701.464 764.205 699.002C771.947 695.932 780.015 696.759 787.543 699.858C793.849 704.415 798.584 710.671 799.807 718.516C800.799 724.875 799.891 731.774 795.952 737.003C793.568 740.167 790.641 742.742 787.535 745.165Z"/>
	<path fill="#28B319" transform="scale(0.362305 0.362305)" d="M788.014 505.289C794.064 504.604 800.389 505.043 806.493 504.914C822.787 504.572 838.995 504.198 855.011 500.996L855.008 725.886L855.008 785.767C855.008 799.048 856.021 812.971 853.513 826.065C850.795 840.261 842.86 852.775 832.75 862.871C821.378 874.228 802.82 882.583 786.506 882.32L784.435 882.214L787.5 881.802L788.029 881L788.064 768.818L788.455 753.469C788.515 751.619 788.921 747.969 788.388 746.25C788.252 745.81 787.819 745.526 787.535 745.165C790.641 742.742 793.568 740.167 795.952 737.003C799.891 731.774 800.799 724.875 799.807 718.516C798.584 710.671 793.849 704.415 787.543 699.858C788.899 695.733 788.022 688.961 788.024 684.566L788.028 649.369L788.014 505.289Z"/>
	<path fill="#DBD9D4" transform="scale(0.362305 0.362305)" d="M168.691 179.518C185.223 183.669 202.822 181.556 219.734 181.59L295.378 181.658L306.505 180.416L306.433 228.971L306.656 267.103L307.895 266.97L332.973 267.49L333.023 658.886L332.998 770.06L332.974 802.529C332.955 810.707 333.232 819.01 331.925 827.109C329.002 845.222 319.702 863.645 306.945 876.813C289.193 895.137 263.652 905.653 238.203 906.002C213.677 906.338 189.631 896.125 172.25 878.949C158.401 865.263 148.983 846.969 145.809 827.778C144.027 817.007 144.006 806.218 143.995 795.337L143.979 763.066L143.934 655.027L143.391 267.316L168.464 267.198L168.473 228.963L168.691 179.518Z"/>
	<path fill="#FEFEFE" transform="scale(0.362305 0.362305)" d="M295.378 181.658L306.505 180.416L306.433 228.971L306.656 267.103C298.753 269.166 288.268 268.02 280.101 268.027L239.993 267.997L239.75 182.124L294.5 182.096L295.378 181.658Z"/>
	<path fill="#64CDEA" transform="scale(0.362305 0.362305)" d="M306.656 267.103L307.895 266.97L308.372 423.659L308.52 477.958L308.535 491.918C308.536 493.922 308.855 496.48 308.091 498.35C300.511 495.842 292.647 494.744 284.75 493.835C277.059 492.951 269.239 492.14 261.492 492.046C254.737 491.965 246.921 492.784 240.325 491.593C239.375 483.575 239.983 474.868 239.974 466.765L239.947 419.153L239.993 267.997L280.101 268.027C288.268 268.02 298.753 269.166 306.656 267.103Z"/>
	<path fill="#47B8E5" transform="scale(0.362305 0.362305)" d="M168.353 497.292C169.44 488.041 168.752 478.589 168.786 469.289L168.993 420.697L168.849 267.475L239.993 267.997L239.947 419.153L239.974 466.765C239.983 474.868 239.375 483.575 240.325 491.593L221 491.976C203.064 492.489 185.967 493.49 168.353 497.292Z"/>
	<path fill="#E81A10" transform="scale(0.362305 0.362305)" d="M240.325 491.593C246.921 492.784 254.737 491.965 261.492 492.046C269.239 492.14 277.059 492.951 284.75 493.835C292.647 494.744 300.511 495.842 308.091 498.35C308.336 498.733 308.677 499.07 308.826 499.5C309.4 501.154 308.868 505.728 308.88 507.703L308.964 538.893L309.004 702.123L309.001 762.327C308.999 772.551 309.515 783.086 308.893 793.27C309.165 803.146 309.597 813.746 307.993 823.5C305.84 836.59 299.609 849.098 290.495 858.737C277.331 872.659 259.983 881.031 240.698 881.456C221.924 881.869 203.522 875.231 189.93 862.145C179.702 852.297 172.181 839.256 169.435 825.267C166.869 812.195 168.02 798.256 168.131 784.987L168.402 732.698L168.494 583.745L168.396 501.773C168.231 500.273 168.315 498.798 168.353 497.292C185.967 493.49 203.064 492.489 221 491.976L240.325 491.593Z"/>
	<path fill="#F57706" transform="scale(0.362305 0.362305)" d="M215.667 628.209C219.249 628.126 222.47 628.397 225.743 629.94C230.735 632.295 234.51 636.59 236.198 641.866C237.728 646.647 235.738 653.329 233.24 657.419C230.493 661.917 225.589 664.349 220.625 665.537C217.759 665.528 214.688 665.715 211.931 664.827L211.25 664.589C209.819 664.098 208.511 663.573 207.229 662.754C202.68 659.849 199.639 655.332 198.665 650.011C197.745 644.984 198.973 639.57 202.041 635.488C205.135 631.37 210.684 628.92 215.667 628.209Z"/>
	<path fill="#F05754" transform="scale(0.362305 0.362305)" d="M240.325 491.593C246.921 492.784 254.737 491.965 261.492 492.046C269.239 492.14 277.059 492.951 284.75 493.835C292.647 494.744 300.511 495.842 308.091 498.35C308.336 498.733 308.677 499.07 308.826 499.5C309.4 501.154 308.868 505.728 308.88 507.703L308.964 538.893L309.004 702.123L309.001 762.327C308.999 772.551 309.515 783.086 308.893 793.27C308.267 790.785 308.525 787.936 308.516 785.371L308.492 771.716L308.5 719.449L308.392 500.637C292.89 506.474 274.635 505.976 258.25 506.518C240.133 507.118 221.794 507.576 203.692 506.4C191.855 505.631 180.012 504.148 168.396 501.773C168.231 500.273 168.315 498.798 168.353 497.292C185.967 493.49 203.064 492.489 221 491.976L240.325 491.593Z"/>
	<path fill="#F57706" transform="scale(0.362305 0.362305)" d="M219.555 695.567C226.525 694.809 232.144 696.054 238.423 699.062C244.935 702.183 249.483 708.874 251.75 715.573C254.216 722.862 253.572 730.919 249.97 737.748C246.23 744.841 237.732 750.199 230.163 752.434C225.415 752.933 220.731 752.857 216.159 751.3C209.228 748.94 202.815 742.851 199.662 736.303L199.343 735.622L197.637 731.292C195.702 724.476 196.593 716.058 200.078 709.851C204.51 701.96 211.042 697.954 219.555 695.567Z"/>
</svg>
