<svg width="140" height="140" viewBox="0 0 140 140" fill="none" xmlns="http://www.w3.org/2000/svg">
<path d="M100.569 68.5782L102.207 69.8412L101.103 70.7013C100.686 70.0896 100.436 69.2876 100.569 68.5782Z" fill="#313665"/>
<path d="M50.201 95.1329L51.0704 99.2983L49.5322 99.867L50.201 95.1329Z" fill="#434185"/>
<path d="M63.9753 94.4123L65.8035 93.5793L69.0405 95.3816L66.6151 96.6344C65.6669 95.981 64.8244 95.1606 63.9753 94.4123Z" fill="#0FA766"/>
<path d="M52.5111 111.198C51.9985 111.408 51.5332 111.703 51.0629 111.976L48.6718 105.006L48.615 104.857L50.0122 104.348L52.5111 111.198Z" fill="#4B1B8C"/>
<path d="M50.0125 104.348L51.9766 103.67L53.4639 108.646L53.9456 110.064C54.017 110.247 54.1766 110.519 54.1586 110.707L52.5113 111.198L50.0125 104.348Z" fill="#434185"/>
<path d="M37.0554 68.9135L38.8273 67.6888L43.7408 71.2364L43.7966 74.4567L37.0554 68.9135Z" fill="#5F4D72"/>
<path d="M49.2333 100.004L47.5163 100.626L44.3386 79.9299L45.2856 80.6318L45.6407 84.2123C46.0636 88.2271 46.6939 92.0914 47.8378 96.0021C48.2301 97.3427 48.611 98.7269 49.2333 100.004Z" fill="#434185"/>
<path d="M68.1593 134.053L67.2797 133.854C62.8247 132.532 59.736 128.517 57.7305 125.036C59.0166 124.657 59.9924 124.218 61.0993 123.538L62.7081 125.628L62.7813 125.749C62.6841 126.433 63.6901 127.691 64.0685 128.287C65.2862 130.203 66.4592 132.164 68.0153 133.901L68.1593 134.053Z" fill="#434185"/>
<path d="M49.3753 39.787L50.9613 40.3657L49.069 52.0198L48.6596 55.967C48.6291 56.3039 48.6703 57.0036 48.5306 57.2946C48.4985 57.3615 48.2479 57.5151 48.174 57.5687L46.4797 58.7091L46.1467 58.9211C46.1394 57.949 46.3348 56.925 46.4363 55.951C46.8886 51.6045 47.8047 47.3115 48.6921 43.0203L49.1266 40.8864C49.2076 40.5031 49.2057 40.154 49.3753 39.787Z" fill="#9A5AB1"/>
<path d="M132.261 75.7191C131.989 76.1252 131.689 76.5111 131.301 76.8415C130.146 77.8236 128.79 78.3561 127.154 78.3219C125.637 78.2903 124.383 77.7239 123.357 76.7791C122.319 75.8237 121.922 74.6102 121.976 73.3209C122.037 71.8708 122.672 70.7198 123.897 69.7389C125.084 68.7885 126.536 68.6046 128.091 68.6552C126.794 69.1499 125.93 69.5905 125.386 70.7852C125.053 71.5163 125.014 72.3885 125.268 73.1408L125.305 73.2537C125.613 74.1763 126.41 75.2056 127.413 75.6596C128.896 76.3319 130.631 76.2023 132.174 75.7455L132.261 75.7191Z" fill="#434185"/>
<path d="M46.0972 45.6836L47.3196 38.9899L49.3752 39.787C49.2056 40.154 49.2075 40.5031 49.1265 40.8865L48.692 43.0203C47.8046 47.3115 46.8885 51.6046 46.4362 55.951C46.3347 56.925 46.1393 57.9491 46.1466 58.9211L44.4081 60.1517C44.2463 59.8868 44.4116 59.0105 44.4343 58.6694C44.7148 54.4469 45.4095 50.2287 46.0551 46.0398L46.0972 45.6836Z" fill="#434185"/>
<path d="M45.1886 23.9883C44.705 24.7449 43.9657 25.4043 43.1042 25.8478C41.8372 26.5 40.2948 26.573 38.8949 26.2327C37.6178 25.9224 36.4145 25.078 35.7682 24.0745C35.0741 22.9967 34.7527 21.5414 35.1736 20.3388L35.2181 20.2178C35.5422 19.2779 36.1933 18.417 37.0938 17.8098C38.4513 16.8945 40.0437 16.6858 41.7035 16.8703C40.3578 17.4223 39.3049 18.0089 38.754 19.2685L38.6728 19.4719L38.6285 19.568C38.2668 20.3796 38.3866 21.4789 38.7974 22.2581C39.2593 23.1344 40.0334 23.7403 41.0836 24.0617L41.8099 24.2222L41.9474 24.2494C42.9521 24.4319 44.2418 24.3174 45.1886 23.9883Z" fill="#5F4D72"/>
<path d="M41.7033 16.8702C43.4356 17.3959 44.6653 18.0829 45.4855 19.5503C46.1201 20.686 46.1951 21.9501 45.6997 23.1373C45.5697 23.449 45.4175 23.7226 45.1884 23.9882C44.2416 24.3173 42.9519 24.4318 41.9472 24.2493L41.8097 24.2221L41.0834 24.0617C40.0332 23.7402 39.2591 23.1343 38.7972 22.258C38.3864 21.4788 38.2666 20.3795 38.6283 19.5679L38.6726 19.4718L38.7538 19.2684C39.3047 18.0088 40.3576 17.4222 41.7033 16.8702Z" fill="#9A5AB1"/>
<path d="M42.0275 18.0283C42.346 17.9862 42.673 17.9614 42.99 18.0313C43.3882 18.1189 43.7735 18.4088 43.9635 18.7177C44.1716 19.056 44.2222 19.4935 44.073 19.8577C43.889 20.3064 43.5297 20.4746 43.0538 20.6624C42.736 20.6845 42.4215 20.7045 42.1083 20.638C41.6899 20.5493 41.301 20.2599 41.0927 19.9376C40.9164 19.6648 40.8924 19.2597 40.9943 18.9637C41.1588 18.4853 41.5448 18.2557 42.0275 18.0283Z" fill="#FBFAFA"/>
<path d="M128.091 68.6553C129.548 68.7636 130.713 69.2192 131.664 70.2065C132.659 71.2399 133.065 72.6072 132.917 73.9339C132.848 74.5541 132.627 75.1799 132.261 75.7192L132.174 75.7456C130.631 76.2024 128.897 76.3319 127.413 75.6597C126.411 75.2056 125.614 74.1764 125.305 73.2538L125.268 73.1409C125.014 72.3886 125.053 71.5164 125.386 70.7852C125.93 69.5906 126.794 69.15 128.091 68.6553Z" fill="#9A5AB1"/>
<path d="M129.41 70.0039C129.74 69.9992 130.04 70.0047 130.349 70.119C130.78 70.279 131.137 70.631 131.277 71.0182C131.407 71.3793 131.357 71.7518 131.149 72.0827C130.91 72.4649 130.492 72.6267 130.034 72.7503C129.751 72.7526 129.42 72.7732 129.147 72.703C128.731 72.5959 128.351 72.2821 128.173 71.9448C128.032 71.68 127.957 71.2995 128.08 71.0222C128.341 70.4358 128.778 70.2246 129.41 70.0039Z" fill="#FBFAFA"/>
<path d="M95.2415 75.2819L91.6914 77.8414L91.7528 61.7792L95.2834 64.3837L95.2415 75.2819Z" fill="#9A5AB1"/>
<path d="M45.2856 80.6317L48.6458 83.0462L50.2012 95.1329L49.5324 99.867L49.2334 100.004C48.6111 98.7269 48.2301 97.3427 47.8379 96.002C46.694 92.0914 46.0637 88.227 45.6408 84.2123L45.2856 80.6317Z" fill="#9A5AB1"/>
<path d="M118.464 34.1308C118.176 34.4546 117.836 34.7609 117.483 35.0327C116.207 36.0167 114.197 36.611 112.489 36.5301C110.46 36.434 108.64 35.8288 107.269 34.4978C105.692 32.9657 105.153 31.2029 105.323 29.1882C105.458 27.5883 106.605 26.1908 107.982 25.1885C109.68 23.9522 111.576 23.6959 113.739 23.8554C113.505 23.8958 113.448 23.9313 113.261 24.0398C112.95 24.2209 112.541 24.3243 112.21 24.4952C110.786 25.2309 109.659 26.2542 109.127 27.6379C108.65 28.8804 108.798 30.1138 109.481 31.2714C110.248 32.5716 111.581 33.5736 113.2 34.0013C114.811 34.427 116.833 34.5142 118.464 34.1308Z" fill="#EB4352"/>
<path d="M21.8774 70.19C21.2566 71.4887 20.1671 72.6361 18.7655 73.3596C16.9802 74.2809 14.6424 74.5418 12.634 74.0977C10.6978 73.6696 8.91956 72.5447 7.92269 71.0407C7.04184 69.712 6.52907 67.7061 7.02006 66.204L7.39629 65.18C8.06541 63.7891 9.30342 62.3505 10.9571 61.765C10.5405 62.4018 10.2051 62.9661 9.98688 63.679L9.94294 63.8188C9.48573 65.3333 9.78388 67.1286 10.7286 68.4638C11.683 69.8125 13.1832 70.8145 14.97 71.2024L15.2994 71.2535L15.4515 71.275C16.4985 71.4151 17.7285 71.4291 18.7641 71.217C19.8372 70.9973 20.867 70.5605 21.8774 70.19Z" fill="#B01E3F"/>
<path d="M94.7659 80.6893C95.0124 82.1547 94.626 83.9505 94.4503 85.4293L92.8896 96.1151L92.2128 99.3555C92.0995 99.8869 92.0351 100.549 91.8047 101.043L88.6995 100.008L91.3554 83.0525L94.7659 80.6893Z" fill="#FD95AF"/>
<path d="M92.5424 39.0511C92.6658 39.3524 92.6826 39.7842 92.7472 40.1068L93.2242 42.5449C94.2322 48.0795 95.1664 53.7578 95.1549 59.3722L93.1999 58.0081C92.897 57.7908 91.6394 57.0126 91.5822 56.7603C91.4859 56.3355 91.5088 55.8249 91.4629 55.3855L91.0812 52.0533L89.1096 40.3703L92.5424 39.0511Z" fill="#9A5AB1"/>
<path d="M45.4127 63.1007C45.646 62.8799 46.0054 62.6759 46.2786 62.4826L48.3268 61.1289C47.9802 65.07 47.9673 69.0199 48.036 72.97L48.1478 76.5173C48.1629 76.819 48.3096 77.5176 48.1849 77.7567L45.0032 75.3505L43.7964 74.4567L43.7407 71.2364L38.8271 67.6889L43.9141 64.1143C44.1997 63.7757 45.007 63.3732 45.4127 63.1007Z" fill="#9A5AB1"/>
<path d="M43.9141 64.1143C44.1998 63.7757 45.0071 63.3732 45.4127 63.1007L45.0032 75.3504L43.7965 74.4567L43.7407 71.2364L43.9141 64.1143Z" fill="#434185"/>
<path d="M38.8271 67.6888L43.9141 64.1143L43.7407 71.2364L38.8271 67.6888Z" fill="#20232A"/>
<path d="M54.0588 41.6161C54.6011 41.9338 55.2541 42.1709 55.8446 42.4186L58.9979 43.7479C61.4391 44.8149 63.7889 46.0349 66.2827 47.0109L61.3337 49.6229C60.0482 50.2119 58.9525 51.1655 57.6526 51.7057L57.244 51.6292C56.907 51.7552 56.5126 51.715 56.1511 51.7189L54.1572 51.7974C53.4032 51.8463 52.7083 51.9487 51.978 52.1146L54.0588 41.6161Z" fill="#434185"/>
<path d="M50.016 35.9792C49.4379 35.8343 48.8221 35.5282 48.2676 35.3102C49.8858 28.9515 51.9907 22.7513 55.4089 16.9285C57.0466 14.1387 58.9468 11.4385 61.5254 9.21618C63.5399 7.48008 65.9819 6.08382 68.8491 5.73865C69.4505 5.66625 70.0878 5.6898 70.6952 5.69216C68.6833 6.53406 66.7856 7.95859 65.2129 9.30962C63.6799 10.6266 62.2619 11.9837 60.9876 13.4964C57.4379 17.7099 54.8856 22.7657 52.9213 27.6725L50.016 35.9792Z" fill="#434185"/>
<path d="M118.464 34.1309C116.833 34.5142 114.811 34.427 113.2 34.0013C111.581 33.5737 110.248 32.5716 109.481 31.2715C108.797 30.1139 108.65 28.8805 109.127 27.638C109.659 26.2543 110.786 25.231 112.21 24.4953C112.541 24.3244 112.95 24.2209 113.261 24.0398C113.448 23.9313 113.505 23.8958 113.739 23.8555C115.584 24.0902 117.427 24.8762 118.568 26.1864C119.748 27.542 120.215 29.0903 120.035 30.7661C119.902 31.9971 119.305 33.1439 118.464 34.1309Z" fill="#F58F31"/>
<path d="M115.862 26.3543C116.226 26.31 116.625 26.2882 116.981 26.3796C117.465 26.5036 117.871 26.8215 118.101 27.2061C118.349 27.6186 118.334 28.0415 118.144 28.4671C117.941 28.9224 117.553 29.1361 117.062 29.3351C116.679 29.3949 116.388 29.4006 116.009 29.3227C115.533 29.2249 115.164 28.9915 114.918 28.6262C114.664 28.249 114.582 27.8416 114.722 27.417C114.907 26.8562 115.302 26.6219 115.862 26.3543Z" fill="#FBFAFA"/>
<path d="M90.0386 83.8667C89.8225 86.5463 88.5366 89.4203 87.3904 91.8959C86.9904 92.76 86.5092 93.6135 86.1748 94.4978C85.7063 95.7359 85.4944 97.2176 85.2425 98.5043L77.9786 95.2734L74.0845 93.4514L90.0386 83.8667Z" fill="#313665"/>
<path d="M63.6909 114.778C63.8696 114.676 64.8779 114.903 65.1426 114.947C66.7965 115.221 68.455 115.192 70.1125 114.945C74.9959 114.217 78.4927 110.947 81.0038 107.467C81.7875 106.381 82.4067 105.185 83.2463 104.136L83.3792 104.17C83.0162 105.353 82.5069 106.505 82.063 107.668C80.4756 111.826 78.1052 117.86 73.4982 120.181C72.954 120.455 72.4211 120.652 71.8157 120.806L71.6514 120.848C70.0749 121.234 68.321 120.981 66.9116 120.293L64.4042 118.741C64.3882 117.954 64.3934 117.181 64.2219 116.406L64.1899 116.25C64.0833 115.743 63.8845 115.264 63.6909 114.778Z" fill="#434185"/>
<path d="M104.584 31.6426C104.638 31.6599 104.705 31.6602 104.747 31.6944C104.835 31.7665 104.995 32.2657 105.049 32.3885C105.288 32.9253 105.559 33.4264 105.873 33.9337C105.812 34.0741 104.053 34.5299 103.758 34.6173C98.0088 36.3187 92.3982 38.3638 86.9183 40.6265C82.475 42.461 78.0846 44.4289 73.886 46.6551L72.8789 46.1154L70.9338 45.1383C71.5498 44.7149 72.2991 44.3809 72.9828 44.0415L76.2134 42.4571C82.4518 39.4881 88.8773 36.8154 95.4705 34.4894C98.4366 33.4431 101.495 32.3879 104.584 31.6426Z" fill="#FD95AF"/>
<path d="M44.5017 60.4748L66.8211 47.2938L69.6953 48.6956C68.1012 49.7262 66.2825 50.5703 64.6011 51.4983L55.2988 56.8395L51.1462 59.3317L49.1182 60.6524C48.9135 60.7828 48.5625 61.0565 48.3267 61.1289L46.2784 62.4826C46.0052 62.6759 45.6458 62.8799 45.4125 63.1007C45.0068 63.3732 44.1995 63.7757 43.9139 64.1143L38.827 67.6888L37.0551 68.9135C36.5135 68.4126 35.43 67.6285 35.1006 67.0175L36.9407 65.6424L44.5017 60.4748Z" fill="#FD95AF"/>
<path d="M56.4799 64.5759L56.4977 64.668C56.6831 65.682 56.6632 66.6918 56.9028 67.7132C57.7977 71.525 60.5061 75.0379 64.1017 77.3437C67.4724 79.5053 71.8483 80.4477 75.9921 80.4095C77.0148 80.4001 78.0166 80.2424 79.0318 80.211C77.915 81.087 76.5013 81.7461 75.0993 82.2101C71.4388 83.4216 67.5093 83.5171 63.8996 82.1089C60.2543 80.6869 57.3434 78.0421 55.9494 74.7962C54.5051 71.4333 54.762 67.8204 56.4799 64.5759Z" fill="#E86023"/>
<path d="M10.957 61.765C12.4726 60.8999 14.3607 60.5685 16.1509 60.8779C18.2 61.2322 20.1037 62.2341 21.2525 63.7613C22.3654 65.2405 22.8477 67.1035 22.4114 68.8437C22.2955 69.3055 22.0758 69.7506 21.8774 70.19C20.8669 70.5604 19.8371 70.9973 18.764 71.217C17.7284 71.429 16.4984 71.4151 15.4514 71.275L15.2993 71.2535L14.9699 71.2024C13.1831 70.8145 11.6829 69.8124 10.7286 68.4638C9.78379 67.1286 9.48564 65.3333 9.94286 63.8188L9.9868 63.679C10.2051 62.9661 10.5404 62.4018 10.957 61.765Z" fill="#EB4352"/>
<path d="M19.8274 64.9935C20.0709 65.0149 20.3008 65.0432 20.5251 65.1336C20.9728 65.3142 21.281 65.6536 21.4115 66.0625C21.5245 66.416 21.4468 66.895 21.2436 67.2125C20.9583 67.6581 20.4978 67.789 19.9609 67.9206C19.6791 67.8842 19.3459 67.8454 19.0919 67.7298C18.7027 67.5527 18.3893 67.2238 18.2806 66.8542C18.1633 66.4557 18.3111 65.9977 18.5676 65.6619C18.8952 65.2332 19.268 65.1002 19.8274 64.9935Z" fill="#FBFAFA"/>
<path d="M16.4731 62.234C16.8776 62.2154 17.239 62.2335 17.6117 62.3857C18.1679 62.6124 18.6132 63.0517 18.8067 63.5556C18.9836 64.0156 18.8634 64.5233 18.5883 64.9354C18.2798 65.3976 17.7806 65.606 17.2145 65.7589C16.894 65.7684 16.5653 65.7412 16.2524 65.6795C15.7823 65.5867 15.3189 65.2504 15.0685 64.9007C14.8085 64.5376 14.7225 64.0568 14.8514 63.6433L14.8792 63.5613L14.9743 63.3173C15.2972 62.7064 15.7923 62.4658 16.4731 62.234Z" fill="#FBFAFA"/>
<path d="M35.1007 67.0174C35.0337 66.8131 34.579 66.4901 34.4001 66.3238L32.4213 64.4643L25.549 57.3215C22.9648 54.3941 20.3655 51.3546 19.3183 47.7168C18.8742 46.1742 18.7772 44.3304 19.7839 42.9305C20.7226 41.6253 22.2704 40.8535 23.9889 40.5383C26.0776 40.1551 28.2833 40.3145 30.3701 40.6284C33.4013 41.0845 36.2713 41.8774 39.1386 42.8203C41.4823 43.5909 43.9939 44.4879 46.0973 45.6836L46.0552 46.0398L45.891 45.9939C45.0815 45.7618 44.3007 45.4215 43.4893 45.1798C38.7598 43.7705 33.209 42.224 28.1796 43.0748C26.7547 43.3159 25.1414 44.0496 24.3315 45.1088C23.3419 46.4032 23.394 48.0224 23.7512 49.487C24.0454 50.6939 24.6785 51.9066 25.3032 53.0077C26.8853 55.7965 29.0773 58.3443 31.4088 60.6934C33.1343 62.432 34.9692 64.1108 36.9408 65.6424L35.1007 67.0174Z" fill="#5F4D72"/>
<path d="M62.7815 125.749C64.3538 127.669 66.6611 130.401 69.5362 130.806C69.9878 130.87 70.4216 130.802 70.8625 130.717L70.997 130.691C71.7321 130.543 72.4179 130.179 73.0293 129.807C75.0326 128.587 76.7295 126.719 77.9842 124.921C81.0575 120.516 83.4411 115.68 85.2806 110.795L87.5945 103.889L90.9334 105.091C89.2874 110.966 86.8834 116.756 83.9184 122.228C82.4171 124.998 80.7635 127.694 78.5475 130.092C77.4291 131.303 76.1891 132.432 74.6466 133.242C72.8019 134.211 70.7639 134.639 68.6354 134.19C68.4682 134.154 68.3153 134.118 68.1595 134.053L68.0155 133.901C66.4594 132.164 65.2864 130.203 64.0687 128.287C63.6903 127.691 62.6843 126.433 62.7815 125.749Z" fill="#9A5AB1"/>
<path d="M89.0754 105.346C89.1092 106.732 88.5225 108.212 88.1187 109.551C86.8207 113.854 85.2552 118.087 82.8616 122.039L80.6886 125.24L80.6764 125.216C80.6474 124.966 80.8464 124.7 80.9655 124.473L81.6256 123.168L82.8412 120.509L87.206 110.267C87.861 108.639 88.3088 106.936 89.0754 105.346Z" fill="#DDF0EE"/>
<path d="M103.012 74.7785L105.22 73.0853C107.653 75.4369 109.854 77.9894 111.988 80.5472C114.201 83.2012 116.243 85.8235 118.022 88.7225C119.306 90.8135 120.711 93.2506 120.557 95.681C120.482 96.8541 119.835 97.9213 118.822 98.693C116.447 100.501 112.688 100.843 109.657 100.657C106.06 100.437 102.853 99.6449 99.4971 98.5393C100.003 98.3395 101.137 98.4546 101.711 98.4496C105.329 98.4184 110.238 98.4644 113.238 96.4635C114.179 95.836 114.865 94.9556 115.026 93.9251C115.382 91.6386 114.111 89.3357 112.944 87.3532C111.042 84.1208 108.609 81.0588 106.086 78.1677L103.012 74.7785Z" fill="#434185"/>
<path d="M56.48 64.5759C57.6169 62.404 59.4739 60.7079 61.7231 59.3674L61.7236 59.4775C61.718 60.4392 61.414 61.3824 61.3801 62.3442C61.2544 65.9041 62.6675 69.1191 65.531 71.6665C68.3633 74.1861 72.4492 75.3464 76.4461 75.4097C78.2025 75.4375 79.982 75.1296 81.6593 74.7024C82.3322 74.5311 83.0106 74.2633 83.7062 74.1817C82.8261 76.4622 81.2705 78.7307 79.0318 80.211C78.0166 80.2424 77.0148 80.4 75.9922 80.4095C71.8483 80.4476 67.4724 79.5052 64.1018 77.3437C60.5061 75.0378 57.7977 71.525 56.9029 67.7131C56.6632 66.6917 56.6832 65.6819 56.4978 64.6679L56.48 64.5759Z" fill="#F58F31"/>
<path d="M55.2058 110.935C56.0516 110.853 56.9839 110.882 57.8131 111.052C59.7537 111.449 61.6058 112.582 62.653 114.052C63.7426 115.582 64.216 117.571 63.6972 119.332C63.4279 120.246 63.0775 121.018 62.4783 121.812C61.3067 123.364 59.0695 124.35 57.0207 124.713C55.0112 124.893 53.1985 124.556 51.5356 123.545C49.8589 122.524 48.6544 120.898 48.3149 119.151C47.9392 117.218 48.2065 115.319 49.5602 113.695C50.9078 112.077 52.9646 111.237 55.2058 110.935Z" fill="url(#paint0_linear_2001_1276)"/>
<path d="M56.5285 112.097C57.125 112.051 57.8647 112.024 58.4338 112.189L58.5607 112.228C59.0648 112.375 59.5443 112.537 59.9841 112.802C61.3027 113.6 62.0761 114.729 62.4044 116.074C62.6092 116.913 62.5716 117.84 62.2718 118.661C61.8834 119.726 60.8924 120.667 59.7559 121.18C58.3873 121.797 57.1204 121.71 55.7008 121.321V121.274C55.829 121.294 55.9427 121.317 56.0669 121.353L56.2853 121.411L56.819 121.532L56.9399 121.516C57.1972 121.635 57.6368 121.62 57.9201 121.571L58.016 121.549L58.1975 121.51L58.3098 121.392L58.538 121.392L58.465 121.205C58.6335 121.033 58.6302 120.83 58.7835 120.685L58.8494 120.634L58.8725 120.382C58.9462 120.117 58.9275 119.881 58.9861 119.617C59.0419 119.366 59.0561 119.144 59.0608 118.89C58.6119 119.252 57.9942 119.414 57.4253 119.568C56.9361 119.701 56.0231 119.732 55.5207 119.619L55.3831 119.579C55.1 119.508 54.8378 119.473 54.5845 119.335C53.8825 118.952 53.388 118.445 53.0792 117.779C53.0296 117.672 52.9092 117.462 52.9094 117.348C52.9099 117.169 52.8918 117.161 52.7965 116.995C52.8193 116.855 52.8471 116.729 52.8311 116.587C52.8023 116.333 52.7556 115.777 52.8413 115.543L52.8872 115.424L52.9317 115.189C52.9722 115.085 53.0334 115.004 53.0683 114.894L53.112 114.746C53.3316 114.037 54.5816 112.87 55.3128 112.514L55.4285 112.461C55.7862 112.291 56.1379 112.195 56.5285 112.097Z" fill="#05C3F3"/>
<path d="M59.2549 114.057C59.5084 114.082 59.7531 114.114 59.9928 114.193C60.5361 114.373 61.1194 114.83 61.3209 115.308C61.4564 115.63 61.4061 116.027 61.2392 116.333C60.9445 116.874 60.4352 117.192 59.7933 117.37C59.3813 117.356 58.9747 117.306 58.601 117.145C58.1236 116.941 57.7767 116.595 57.6072 116.16C57.4761 115.822 57.4818 115.356 57.6766 115.041C58.024 114.48 58.5647 114.215 59.2549 114.057Z" fill="#FBFAFA"/>
<path d="M70.6953 5.69214C74.6708 6.02758 77.4991 8.20528 79.9448 10.7754C81.6805 12.5993 83.0222 14.5926 84.2675 16.6876C87.1404 21.5213 89.024 26.6542 90.508 31.9214L91.1361 34.1159C91.2439 34.4765 91.4617 34.9352 91.4491 35.3043L88.1108 36.692C87.0999 32.8002 85.8986 28.9827 84.387 25.2124C82.9396 21.6022 81.1454 17.9141 78.6082 14.7687C77.291 13.1359 75.8289 11.6227 73.8646 10.5399C72.3352 9.69686 70.4046 9.25322 68.6117 9.60421C65.1947 10.273 62.6533 13.1468 60.9113 15.585C59.3012 17.8385 58.0497 20.2617 56.9238 22.7197C55.4234 25.9956 54.1923 29.3484 53.1878 32.7633C52.7943 34.1012 52.357 35.4549 52.1201 36.8205L50.0161 35.9792L52.9214 27.6725C54.8857 22.7657 57.438 17.7099 60.9877 13.4963C62.262 11.9837 63.68 10.6265 65.2131 9.3096C66.7857 7.95857 68.6834 6.53404 70.6953 5.69214Z" fill="url(#paint1_linear_2001_1276)"/>
<path d="M123.895 46.9159C125.409 43.9967 127.004 40.3104 126.041 37.0961C125.742 36.0992 125.19 35.1777 124.282 34.4942C123.18 33.6649 121.584 33.0879 120.175 32.7924C120.599 31.7906 120.723 30.8832 120.828 29.8295C124.078 30.3746 127.145 31.2319 129.103 33.7233C130.846 35.9417 130.919 38.6929 130.339 41.2494C129.532 44.8091 127.697 48.1685 125.511 51.2347C125.176 51.7052 124.824 52.3493 124.398 52.7411C124.019 53.3718 123.458 53.977 122.986 54.5609L119.041 59.15C109.822 69.4533 98.1438 77.9871 85.9792 85.5774L73.3852 93.1476L70.6492 91.5675L79.2337 86.6269C84.8919 83.2025 90.5087 79.656 95.7987 75.8146C100.666 72.2798 105.285 68.4808 109.608 64.4536C112.429 61.8253 114.999 59.1434 117.439 56.2425L120.065 53.0206C121.495 51.0713 122.733 48.9923 123.895 46.9159Z" fill="url(#paint2_linear_2001_1276)"/>
<path d="M124.642 49.8228C125.854 47.7767 126.925 45.6868 127.799 43.5149C128.511 41.7425 129.088 40.1182 129.242 38.2383C129.43 38.5491 129.398 39.0188 129.417 39.3685C129.506 40.9796 129.323 42.49 128.768 44.0298C127.896 46.452 126.197 48.6641 124.61 50.7762C124.13 51.4146 123.535 52.0547 123.137 52.7307C122.912 52.8414 122.56 53.4343 122.337 53.6406C122.556 53.0778 122.96 52.5445 123.297 52.0295L124.642 49.8228Z" fill="#A2E9F4"/>
<path d="M9.18081 100.347L9.17554 100.302C9.25271 98.6129 10.0555 96.7704 10.7724 95.2156C12.9368 90.5217 16.0954 86.3323 19.5951 82.3173C23.429 77.9188 27.6068 73.8368 32.0166 69.8657L34.0621 71.7155C29.7589 75.6568 25.4972 79.6317 21.8749 84.0713C19.5474 86.9238 17.5458 89.9712 15.7531 93.0966C14.3604 95.7374 12.1674 99.0505 13.0421 102.046L13.0786 102.177C13.4668 103.527 14.5005 104.634 15.8629 105.343C19.9937 107.494 25.7499 106.767 30.2261 106.013L35.6197 104.98C38.4947 104.326 41.1817 103.417 43.941 102.479L57.7112 97.2592L63.975 94.4123C64.8241 95.1606 65.6666 95.981 66.6148 96.6344L53.8986 102.179C44.6112 105.872 34.8075 109.162 24.5354 109.884C21.98 110.063 18.9917 110.148 16.5028 109.535C13.7857 108.866 11.5196 107.745 10.129 105.543C9.19969 104.071 8.82945 101.987 9.18081 100.347Z" fill="#34BCC1"/>
<path d="M42.7404 103.568H43.0318L42.8156 103.721C41.4009 104.638 39.7002 105.271 38.0928 105.889C33.4682 107.665 28.6571 108.935 23.6075 109.371C21.3144 109.57 18.9647 109.604 16.6837 109.294L16.2979 109.227C17.1097 109.067 18.0403 109.091 18.877 109.023C20.3345 108.906 21.8117 108.72 23.2436 108.453L30.9591 106.751L35.6686 105.424L42.7404 103.568Z" fill="url(#paint3_linear_2001_1276)"/>
<path d="M61.723 59.3675C65.0993 57.4925 68.8384 56.6233 72.8342 57.3533C76.636 58.0477 80.1977 60.2648 82.266 63.0901C84.2963 65.8633 85.0282 69.5037 84.186 72.6987L83.7061 74.1817C83.0105 74.2634 82.3321 74.5311 81.6592 74.7024C79.9819 75.1296 78.2025 75.4376 76.446 75.4098C72.4491 75.3465 68.3632 74.1861 65.5309 71.6665C62.6674 69.1191 61.2544 65.9042 61.38 62.3442C61.414 61.3825 61.7179 60.4393 61.7236 59.4776L61.723 59.3675Z" fill="#F9CB40"/>
<path d="M72.2418 60.8005C72.681 60.5054 73.097 60.2517 73.6599 60.1653C74.4534 60.0436 75.3535 60.2736 75.9997 60.673C76.604 61.0464 76.9772 61.6248 77.0959 62.2532C77.2423 63.0277 76.8433 63.6507 76.3514 64.2649C76.0584 64.3635 75.7902 64.6272 75.5002 64.7591C74.8714 65.045 73.927 64.9706 73.2704 64.7842C72.5779 64.5874 72.0197 64.1386 71.7046 63.569C71.4078 63.0318 71.3199 62.3469 71.5677 61.7797L71.616 61.6768C71.7704 61.3409 71.9888 61.0846 72.2418 60.8005Z" fill="#FBFAFA"/>
<path d="M76.3512 64.2648C76.9116 64.0728 77.3719 63.8253 77.9924 63.7994C78.7657 63.767 79.538 63.9887 80.0954 64.4643C80.6665 64.9516 80.995 65.613 80.9955 66.3051C80.9962 67.1335 80.5826 67.6838 79.9229 68.2433C79.5768 68.4492 79.1408 68.6893 78.7172 68.7369C77.9824 68.8195 77.2121 68.7512 76.6044 68.3567C75.9175 67.911 75.5073 67.2098 75.4152 66.4779C75.3019 65.578 75.6997 64.9257 76.3512 64.2648Z" fill="#FBFAFA"/>
<path d="M63.6912 114.778C62.7511 113.057 61.4808 111.984 59.5383 111.122C59.0863 110.922 58.8361 110.28 58.6068 109.896C57.1677 107.482 56.0979 104.939 55.1221 102.364L69.9813 95.8224L83.9787 102.499C83.8147 103.056 83.6571 103.647 83.3795 104.17L83.2466 104.136C82.4069 105.185 81.7878 106.381 81.0041 107.467C78.493 110.947 74.9961 114.217 70.1127 114.945C68.4553 115.192 66.7967 115.221 65.1429 114.947C64.8782 114.903 63.8699 114.676 63.6912 114.778Z" fill="#313665"/>
<path d="M69.3634 21.2694C70.6096 21.3113 71.6718 21.5083 72.7727 22.0245C74.6454 22.9023 76.153 24.3171 77.3856 25.798C80.4808 29.5169 82.3454 34.0047 83.8146 38.3678L70.5901 44.5545C70.3285 44.6576 70.3069 44.6346 70.0454 44.5557L55.4021 37.8821C56.2167 35.506 57.2582 33.1451 58.461 30.8965C59.6743 28.6285 61.0972 26.3748 63.0114 24.4855C64.6567 22.8617 66.788 21.4161 69.3634 21.2694Z" fill="#434185"/>
<path d="M74.2026 97.1265C67.9462 94.0719 61.9547 90.5479 56.1418 86.9078L46.1049 80.2673L35.425 71.7718L27.8533 65.2323C23.1083 60.7222 18.7652 55.8539 14.8807 50.7698C11.8008 46.739 8.30063 41.4596 9.53264 36.4324C10.0538 34.3063 11.489 32.6481 13.5824 31.4848C14.5239 30.9616 15.5455 30.6603 16.6208 30.415C18.744 29.9307 20.9538 29.9465 23.1291 30.0907C25.9687 30.279 28.7294 30.7127 31.5094 31.2286C45.9459 34.252 59.5293 39.9236 72.2953 46.3909C78.2496 49.4075 84.1513 52.6444 89.6492 56.2575L101.923 65.1784L104.913 67.6491L102.805 69.3747C101.182 67.9075 99.3648 66.5699 97.6096 65.2228C87.3382 57.34 75.6986 50.7927 63.6336 45.1637C58.2219 42.639 52.6694 40.234 46.9429 38.2856C42.5665 36.7965 38.0966 35.4574 33.5298 34.4756C33.0205 34.3662 28.5918 33.6102 28.4494 33.5038C24.331 33.0219 18.7765 31.9469 15.1645 34.3162C13.7656 35.2338 12.9485 36.4167 12.7099 37.9243C12.1723 41.32 14.1853 44.7832 16.1205 47.6153C18.1624 50.6032 20.5583 53.369 23.0078 56.1122C26.2763 59.7725 29.7417 63.1915 33.4024 66.5589C36.6454 69.5421 40.034 72.4793 43.5797 75.1953L50.5704 80.1781L59.7409 86.1614L70.7498 92.4743L73.4501 93.8643C73.8868 94.0764 74.6001 94.3205 74.9383 94.6203C75.8884 94.9631 76.8052 95.5079 77.7074 95.9424L82.5202 98.1134C86.8914 99.9379 91.3346 101.523 95.8894 102.971C98.9851 103.956 102.151 104.907 105.337 105.654C107.47 106.154 109.634 106.512 111.82 106.785C115.692 107.268 120.549 107.673 124.065 105.883C125.434 105.186 126.436 104.139 126.814 102.794C127.322 100.988 126.734 98.9353 126.083 97.2088C125.065 94.5072 123.572 92.0093 121.901 89.5722C118.984 85.3179 115.515 81.4784 111.79 77.7375L108.883 74.9487C107.996 74.1461 106.816 73.2918 106.147 72.355L108.371 70.4646L109.701 71.7412L112.898 74.6768C113.515 75.2542 114.202 75.8462 114.733 76.4827C115.257 76.8758 115.685 77.3835 116.128 77.8432L118.551 80.4276C122.693 84.9751 126.872 89.9086 129.332 95.3259C130.092 96.9996 130.778 98.9256 130.919 100.726C131.096 102.987 130.486 105.135 128.712 106.864C126.583 108.94 123.1 109.796 119.985 109.951C115.685 110.164 111.447 109.646 107.25 108.879C95.5068 106.733 84.4894 102.4 74.2026 97.1265Z" fill="url(#paint4_linear_2001_1276)"/>
<path d="M114.733 76.4827C114.532 76.4687 114.199 76.1882 114.078 76.0461C113.814 75.7344 113.408 75.4757 113.187 75.1564C113.096 75.0263 113.157 75.0884 113.013 74.9696C112.684 74.6979 112.239 74.3907 112.006 74.0554C111.916 73.9259 111.971 73.98 111.81 73.8599C111.639 73.7324 111.502 73.602 111.355 73.4549L111.4 73.8082C111.628 73.9789 111.695 74.0782 111.854 74.2794C111.966 74.4216 112.172 74.483 112.266 74.6454C112.417 74.9044 112.778 75.1142 112.95 75.359C113.053 75.5063 112.993 75.5066 113.168 75.6408C113.271 75.7199 113.319 75.7563 113.4 75.8601C113.507 75.9983 113.45 75.9421 113.555 76.042C113.696 76.1753 113.787 76.2422 113.829 76.4291C113.32 76.1003 109.764 72.3339 109.621 71.9517C109.587 71.863 109.653 71.8169 109.701 71.7411L112.898 74.6767C113.515 75.2541 114.202 75.8462 114.733 76.4827Z" fill="#34BCC1"/>
<path d="M121.855 85.6649C122.987 86.1261 126.992 92.4031 127.697 93.7235C129.358 96.8333 130.95 100.554 129.532 103.929L129.349 104.232L129.266 104.196C129.782 101.839 128.833 99.4036 128.027 97.1682C127.054 94.4731 125.912 91.8877 124.369 89.3947L122.794 87.0645C122.481 86.6241 122.042 86.1544 121.855 85.6649Z" fill="#DDF0EE"/>
<defs>
<linearGradient id="paint0_linear_2001_1276" x1="49.7681" y1="121.816" x2="60.7517" y2="112.107" gradientUnits="userSpaceOnUse">
<stop stop-color="#076DB6"/>
<stop offset="1" stop-color="#0397D1"/>
</linearGradient>
<linearGradient id="paint1_linear_2001_1276" x1="55.4289" y1="40.6784" x2="81.589" y2="12.4296" gradientUnits="userSpaceOnUse">
<stop stop-color="#7236AE"/>
<stop offset="1" stop-color="#A662AE"/>
</linearGradient>
<linearGradient id="paint2_linear_2001_1276" x1="108.542" y1="75.7957" x2="92.7681" y2="43.6533" gradientUnits="userSpaceOnUse">
<stop stop-color="#009E5D"/>
<stop offset="1" stop-color="#3ECEBD"/>
</linearGradient>
<linearGradient id="paint3_linear_2001_1276" x1="30.3817" y1="108.138" x2="29.8089" y2="106.007" gradientUnits="userSpaceOnUse">
<stop stop-color="#B9D9DB"/>
<stop offset="1" stop-color="#E7F0EC"/>
</linearGradient>
<linearGradient id="paint4_linear_2001_1276" x1="46.6695" y1="86.0181" x2="88.2879" y2="47.63" gradientUnits="userSpaceOnUse">
<stop stop-color="#01A763"/>
<stop offset="1" stop-color="#32CDDC"/>
</linearGradient>
</defs>
</svg>
