<?xml version="1.0" encoding="utf-8" ?>
<svg xmlns="http://www.w3.org/2000/svg" xmlns:xlink="http://www.w3.org/1999/xlink" width="300" height="300">
	<path fill="#F24B90" transform="scale(0.292969 0.292969)" d="M780.471 506.926L780.524 505.837C782.851 504.173 788.2 504.016 791.145 503.505C819.038 542.103 852.924 577.199 890.402 606.596C898.327 612.812 906.263 619.308 915.009 624.342L907.425 633.424L878.126 611.684C850.476 589.55 825.199 564.861 802.532 537.648C794.694 528.237 785.913 517.896 780.471 506.926Z"/>
	<path fill="#0ABBBF" transform="scale(0.292969 0.292969)" d="M231.802 502.188L243.979 504.12C235.073 519.144 222.766 532.798 211.193 545.842C187.938 572.053 163.574 597.535 136.288 619.621C130.274 624.489 124.132 629.973 117.117 633.329C115.958 630.06 113.622 627.494 111.316 624.993L152.621 589.339C181.246 562.837 208.238 533.262 231.802 502.188Z"/>
	<path fill="#90B4F0" transform="scale(0.292969 0.292969)" d="M816.957 837.65C825.445 837.42 833.396 839.564 840.253 844.673C847.416 850.009 851.713 858.201 852.901 866.961C854.148 876.154 851.524 885.614 845.772 892.918C839.877 900.405 831.624 903.782 822.404 905.059C815.068 904.792 806.974 903.699 800.806 899.484C792.889 894.075 787.963 885.847 786.25 876.458C784.694 867.927 786.766 859.053 791.751 851.99C797.864 843.331 806.829 839.438 816.957 837.65Z"/>
	<path fill="#90B4F0" transform="scale(0.292969 0.292969)" d="M745.225 837.595C752.27 837.009 759.244 838.614 765.235 842.422C772.695 847.165 779.142 855.738 781.043 864.439C782.96 873.213 781.005 882.466 776.086 889.914C770.059 899.041 761.444 902.889 751.124 905.066C742.975 905.523 735.126 903.878 728.25 899.302C720.66 894.25 715.479 885.89 713.861 876.961C712.288 868.284 714.44 859.426 719.471 852.25C725.856 843.142 734.648 839.482 745.225 837.595Z"/>
	<path fill="#3EBC8E" transform="scale(0.292969 0.292969)" d="M196.964 837.616C201.578 837.18 206.608 836.986 211.12 838.17L212 838.414C220.922 840.803 227.884 846.07 232.618 854.051C237.285 861.919 239.196 870.905 236.805 879.859L236.558 880.75C235.554 884.457 234.149 887.754 232.073 891C226.947 899.01 218.782 904.397 209.549 906.41C201.102 907.465 192.537 906.467 185.083 902.08C176.83 897.222 171.862 889.907 169.43 880.735C166.969 871.452 168.58 861.486 173.456 853.27C178.791 844.279 187.17 840.098 196.964 837.616Z"/>
	<path fill="#3EBC8E" transform="scale(0.292969 0.292969)" d="M271.304 837.123C274.207 836.704 277.749 836.822 280.647 837.283L281.5 837.426C286.353 838.163 290.957 839.55 295.159 842.179C302.814 846.969 308.595 855.501 310.543 864.3C312.591 873.553 310.77 882.844 305.691 890.825C300.382 899.168 291.979 904.437 282.42 906.506C272.877 907.989 263.725 905.954 255.702 900.501C248.029 895.286 242.981 887.141 241.349 878.016C239.74 869.014 241.986 858.89 247.339 851.461C253.141 843.406 261.626 838.705 271.304 837.123Z"/>
	<path fill="#0ABBBF" transform="scale(0.292969 0.292969)" d="M245.727 504.488C247.951 503.15 253.956 504.017 256.75 504.073C257.011 505.606 256.983 507.182 257.026 508.734L254.59 527.142C253.82 532.96 253.385 538.914 251.912 544.604C250.571 547.722 251.083 551.525 251.116 554.875C250.325 559.599 250.395 564.651 249.864 569.441L245.022 633.71L241.355 707.273L241.115 778.838L243.124 829.437C243.463 835.443 244.474 841.659 244.523 847.634C244.535 849.129 244.163 850.236 243.585 851.596L238.79 863.753C237.065 858.791 234.732 853.912 233.541 848.79C231.827 841.421 231.648 833.555 231.306 826.023L230.024 794.39L230.019 699.346L238.154 570.714L242.171 531.355L245.727 504.488Z"/>
	<path fill="#FABA61" transform="scale(0.292969 0.292969)" d="M510.313 122.7C512.668 122.605 515.215 122.794 517.547 123.142C527.363 124.606 536.571 129.929 542.502 137.94C548.451 145.973 551.308 155.798 549.763 165.748C548.69 172.654 546.419 179.072 542.105 184.668C534.82 194.115 525.123 197.95 513.62 199.469C510.253 199.64 506.654 199.603 503.374 198.785L502.5 198.555C497.68 197.322 493.079 195.296 489.105 192.267C480.573 185.765 474.707 175.858 473.538 165.152C472.386 154.61 475.679 144.222 482.365 136.045C489.376 127.469 499.574 123.705 510.313 122.7Z"/>
	<path fill="#FE5D57" transform="scale(0.292969 0.292969)" d="M915.009 624.342C923.21 617.173 932.698 612.267 943.936 613.069C955.268 613.877 964.773 618.482 972.118 627.168C978.714 634.967 982.101 645.648 981.23 655.804C980.274 666.947 974.424 677.74 965.75 684.78C957.946 691.114 946.792 693.927 936.892 692.825C926.425 691.661 916.567 685.74 910.047 677.535C903.774 669.64 900.85 658.102 902.166 648.147C902.898 642.607 904.562 638.22 907.425 633.424L915.009 624.342Z"/>
	<path fill="#3EBC8E" transform="scale(0.292969 0.292969)" d="M117.117 633.329C118.032 636.054 119.484 638.568 120.385 641.295C122.441 647.516 122.498 654.106 121.2 660.496C119.013 671.259 111.962 681.168 102.772 687.134C94.3758 692.586 82.6046 694.391 72.8906 692.05C62.5401 689.555 53.0648 682.844 47.4963 673.75C41.8807 664.579 40.2667 653.328 42.7594 642.895C45.2214 632.591 52.1154 623.368 61.2985 618.059C69.8556 613.111 81.6318 611.58 91.1602 614.188L92 614.428C99.4219 616.479 105.501 619.975 111.316 624.993C113.622 627.494 115.958 630.06 117.117 633.329Z"/>
	<path fill="#17519D" transform="scale(0.292969 0.292969)" d="M328.121 555.758L328.152 555.698L352.656 553.03C349.704 554.921 344.091 566.657 342.056 570.345C326.069 599.318 311.088 628.537 300.316 659.916C297.143 669.158 293.943 678.49 291.847 688.048C288.125 705.025 287.586 726.019 297.318 741.217C302.741 749.686 311.01 756.242 320.959 758.384C330.845 760.512 341.763 759.82 351.616 757.744C366.198 754.672 380.026 748.732 393.559 742.648C418.584 731.397 443.048 718.198 466.008 703.152L496.006 683.009C500.384 686.426 506.499 690.085 509.952 694.305L431.608 744.983C418.389 752.199 404.555 758.901 390.645 764.686C367.256 774.414 340.467 783.386 315.219 775.839C299.936 771.271 287.889 762.261 280.307 748.121C272.684 733.907 271.183 718.383 272.312 702.554C274.235 675.617 283.415 650.098 294.102 625.519L312.432 586.818L320.565 572L326.836 561.697C327.892 559.944 329.244 558.091 329.845 556.134L328.121 555.758Z"/>
	<path fill="#1291E2" transform="scale(0.292969 0.292969)" d="M270.016 313.311L269.441 303.602C269.079 283.979 271.46 262.033 285.838 247.277C296.001 236.846 309.956 232.682 324.253 232.496C337.562 232.323 350.745 234.139 363.5 237.996C383.879 244.158 403.169 253.727 421.5 264.452C444.28 277.78 465.836 292.976 486.441 309.45C494.636 316.002 502.957 322.423 510.476 329.76C520.716 318.875 533.83 309.52 545.731 300.496L583.257 274.01C613.765 253.697 649.172 233.739 686.61 232.129C702.438 231.448 718.036 235.137 729.913 246.101C748.74 263.481 750.102 288.116 751.088 312.007L734.428 316.504C734.26 296.804 734.78 274.152 719.497 259.241C710.159 250.13 699.241 248.723 686.75 248.978C676.327 249.192 665.77 252.08 655.94 255.338C618.273 267.822 583.493 291.643 552.486 315.979L533.447 331.876C530.157 334.724 526.63 338.433 522.954 340.681C518.209 343.66 514.476 347.77 510.509 351.682C506.329 348.256 502.567 343.251 497.986 340.493L497.41 340.159C489.782 335.242 482.532 328.993 475.223 323.546L446.01 301.712L425.181 286.154C418.791 281.823 411.87 277.969 405.139 274.188C380.425 260.303 353.958 249.761 325.239 250.025C316.257 250.107 305.829 251.634 299.286 258.409C284.836 273.37 286.418 298.056 286.666 317.309L270.948 313.782L270.016 313.311Z"/>
	<path fill="#F24B90" transform="scale(0.292969 0.292969)" d="M704.744 481.881L717.63 491.419C726.907 497.029 737.305 501.971 748.056 503.919C753.549 504.915 758.701 506.038 764.317 506.461C768.313 506.303 772.503 505.732 776.479 505.964C779.612 521.887 780.548 538.462 781.997 554.619L785.196 588.905L788.426 653.274L793.343 752.084L792.897 819.582L792.529 834.904C792.421 839.005 793.069 843.962 790.733 847.486L783.323 859.247C781.926 856.697 780.645 854.333 779.888 851.5L779.73 850.923C779.143 848.549 779.465 845.679 779.534 843.221L780.491 824.423L780.929 746.564L777.719 674.491L770.561 556.402C759.881 557.3 749.229 558.257 738.5 558.307C722.105 558.384 705.319 556.951 689.01 555.195C681.993 553.552 673.841 553.046 666.62 552.378L663.359 551.65C657.202 550.049 649.277 548.894 642.953 548.611C634.016 547.397 625.329 545.29 616.54 543.345C593.362 538.216 570.026 532.519 548.72 521.791C550.889 518.13 552.329 514.793 553.348 510.665L553.825 510.796C562.003 513.152 569.613 517.785 577.777 520.332C604.593 528.695 631.3 534.387 659.021 538.774L683.285 542.542C681.857 540.923 680.281 538.675 679.828 536.551C677.708 531.71 673.963 527.263 671.325 522.626L694.93 493.749C698.172 489.865 701.969 486.102 704.744 481.881ZM704.744 481.881C701.969 486.102 698.172 489.865 694.93 493.749L671.325 522.626C673.963 527.263 677.708 531.71 679.828 536.551C680.281 538.675 681.857 540.923 683.285 542.542C692.542 543.931 702.018 544.213 711.358 544.678C726.087 545.41 740.746 545.947 755.474 544.945C759.83 544.648 764.678 544.645 768.924 543.664L764.317 506.461C758.701 506.038 753.549 504.915 748.056 503.919C737.305 501.971 726.907 497.029 717.63 491.419L704.744 481.881Z"/>
	<path fill="#1291E2" transform="scale(0.292969 0.292969)" d="M704.744 481.881L717.63 491.419L679.828 536.551C677.708 531.71 673.963 527.263 671.325 522.626L694.93 493.749C698.172 489.865 701.969 486.102 704.744 481.881Z"/>
	<path fill="#1291E2" transform="scale(0.292969 0.292969)" d="M382.404 555.393L412.835 586.388L465.311 635.969C468.71 638.876 501.35 665.464 501.564 666.171C502.331 667.938 503.021 668.507 504.518 669.659L505.26 670.244L505.752 670.625C505.69 672.253 505.729 672.182 506.774 673.448L507.981 673.437C508.808 674.421 508.879 675.412 509.742 676.376C509.703 677.738 509.364 678.933 510.153 680.069C512.028 682.769 512.929 685.946 514.68 688.639C516.08 690.793 517.214 691.199 518.061 693.827C518.259 694.44 519.048 694.911 519.254 695.533C519.445 696.108 519.382 696.745 519.55 697.327L520.281 698.838C521.682 698.771 521.626 698.903 522.717 699.819L522.638 700.884C523.331 701.246 524.677 701.786 525.259 702.256C525.952 702.816 526.387 704.453 527.202 705.234C526.119 705.248 526.238 705.463 525.398 704.665C523.385 702.752 519.272 699.387 516.619 699.133C514.94 698.66 511.492 695.448 509.952 694.305C506.499 690.085 500.384 686.426 496.006 683.009C461.919 656.614 429.657 627.059 399.221 596.554C387.388 584.694 375.37 572.981 364.566 560.161L382.404 555.393Z"/>
	<path fill="#0ABBBF" transform="scale(0.292969 0.292969)" d="M170.705 455.328L170.682 455.311C159.586 435.316 156.062 410.321 160.698 387.965C165.792 363.398 181.741 340.777 202.658 327.051C222.002 314.358 247.207 308.679 270.016 313.311L270.948 313.782L286.666 317.309C311.288 326.183 330.839 342.319 342.043 366.297C353.428 390.663 354.35 417.329 345.122 442.5C341.03 453.662 334.92 463.98 326.908 472.777C323.992 475.979 320.471 478.785 317.739 482.112C313.07 485.641 308.402 489.224 303.039 491.654C298.28 493.926 293.664 496.504 288.75 498.44C283.183 500.633 277.512 501.882 271.641 502.921C270.088 503.196 258.006 504.095 258 504.101C257.757 504.335 257.645 504.681 257.533 505C257.14 506.121 257.304 507.554 257.026 508.734C256.983 507.182 257.011 505.606 256.75 504.073C253.956 504.017 247.951 503.15 245.727 504.488C245.102 504.064 244.718 504.164 243.979 504.12L231.802 502.188L220.331 498.869C200.21 491.633 179.847 474.883 170.705 455.328Z"/>
	<path fill="#061634" transform="scale(0.292969 0.292969)" d="M208.459 385.582C213.307 385.301 217.942 385.231 222.453 387.255C228.382 389.916 232.19 394.45 234.413 400.5C235.437 403.289 236.398 408.468 234.961 411.25C234.218 412.69 233.326 413.595 231.75 414.101C229.337 414.876 227.656 414.101 225.54 412.933C223.697 410.673 224.562 407.072 223.625 404.361C222.496 401.093 219.572 399.077 216.68 397.524L216.062 397.198C213.849 396.585 211.719 396.563 209.493 397.222C203.751 398.923 202.266 403.304 201.21 408.591C200.959 409.852 200.764 411.749 200.032 412.789C198.608 414.809 197.043 414.997 194.75 415.319C192.84 414.512 191.681 413.559 190.946 411.55C189.338 407.16 191.015 401.279 192.974 397.264C196.476 390.086 201.317 388.013 208.459 385.582Z"/>
	<path fill="#061634" transform="scale(0.292969 0.292969)" d="M289.952 385.583C294.532 385.476 298.173 385.257 302.5 386.946C307.747 388.994 312.744 393.826 314.889 399.05C316.169 402.166 317.542 407.403 315.956 410.598C315.175 412.172 313.801 413.43 312.151 414.015C310.72 414.523 309.41 414.742 308 414.025C303.863 411.921 305.212 407.498 303.953 403.799C302.877 400.64 300.609 399.256 297.785 397.864L297.056 397.508C294.445 397.037 291.294 397.225 288.844 398.301C282.819 400.945 283.618 405.837 281.468 411C280.897 412.371 279.946 413.532 278.5 414.021C276.567 414.674 275.32 414.385 273.5 413.484C272.027 412.756 271.125 411.353 270.75 409.787C269.702 405.406 271.843 399.798 274.093 396.115C277.759 390.114 283.276 387.205 289.952 385.583Z"/>
	<path fill="#061634" transform="scale(0.292969 0.292969)" d="M232.702 426.75C237.192 427.739 238.035 432.543 240.528 436C242.445 438.659 245.467 440.89 248.57 441.951L249.25 442.169L250.328 442.501C255.027 443.604 262.478 440.854 265.287 436.823C267.325 433.897 268.343 429.046 271.514 427.149C273.17 426.159 274.444 426.157 276.25 426.641C277.163 427.46 278.338 428.386 278.814 429.549C280.253 433.063 278.184 436.874 276.722 440.077C273.883 445.647 269.325 450.04 263.419 452.266C256.246 454.97 247.473 454.855 240.483 451.675C234.682 449.036 229.717 442.875 227.765 436.834C227.075 434.7 226.477 431.777 227.756 429.759C228.897 427.958 230.73 427.241 232.702 426.75Z"/>
	<path fill="#069FA2" transform="scale(0.292969 0.292969)" d="M270.948 313.782L286.666 317.309C311.288 326.183 330.839 342.319 342.043 366.297C353.428 390.663 354.35 417.329 345.122 442.5C341.03 453.662 334.92 463.98 326.908 472.777C323.992 475.979 320.471 478.785 317.739 482.112C313.07 485.641 308.402 489.224 303.039 491.654C298.28 493.926 293.664 496.504 288.75 498.44C283.183 500.633 277.512 501.882 271.641 502.921C270.088 503.196 258.006 504.095 258 504.101C257.757 504.335 257.645 504.681 257.533 505C257.14 506.121 257.304 507.554 257.026 508.734C256.983 507.182 257.011 505.606 256.75 504.073C253.956 504.017 247.951 503.15 245.727 504.488C245.102 504.064 244.718 504.164 243.979 504.12L231.802 502.188L220.331 498.869C200.21 491.633 179.847 474.883 170.705 455.328C174.767 457.106 179.209 462.5 182.747 465.383C186.76 468.652 191.052 471.712 195.506 474.35C215.391 486.13 239.928 489.538 262.25 483.495C282.885 477.909 303.288 463.348 313.907 444.551C326.235 422.728 328.522 398.059 321.802 374.042C315.861 352.809 302.276 337.073 285.184 323.816C280.57 320.238 276.041 316.669 270.948 313.782Z"/>
	<path fill="#F24B90" transform="scale(0.292969 0.292969)" d="M751.088 312.007C769.138 308.863 793.65 311.621 809.323 321.265C831.738 331.221 849.726 353.062 858.36 375.674C867.848 400.527 865.857 427.114 854.995 451.16C845.424 472.347 825.4 491.608 803.518 499.702C799.52 501.18 795.012 501.881 791.145 503.505C788.2 504.016 782.851 504.173 780.524 505.837L780.471 506.926L779.734 505.947L776.479 505.964C772.503 505.732 768.313 506.303 764.317 506.461C758.701 506.038 753.549 504.915 748.056 503.919C737.305 501.971 726.907 497.029 717.63 491.419L704.744 481.881L696.993 473.174C695.638 472.276 694.326 470.165 693.271 468.873C687.11 461.328 681.758 453.196 678.145 444.113C668.406 419.633 668.97 391.469 679.592 367.346C690.117 343.441 710.266 325.74 734.428 316.504L751.088 312.007Z"/>
	<path fill="#061634" transform="scale(0.292969 0.292969)" d="M720.734 384.696L726.153 385.016C731.146 385.88 736.114 389.933 738.869 394.072C741.456 397.958 744.134 404.388 742.949 409.084C742.551 410.658 741.635 411.841 740.15 412.534C738.494 413.307 736.909 413.002 735.25 412.47C731.656 409.182 732.628 404.52 730.586 400.503C729.3 397.971 726.996 396.45 724.367 395.603L723.815 395.435C722.003 395.277 719.828 395.155 718.114 395.851C712.189 398.258 713.438 404.434 711.366 409.25C710.697 410.804 709.198 412.159 707.618 412.75C706.339 413.229 704.903 413.096 703.75 412.364C702.234 411.401 701.307 409.467 701.08 407.746C700.43 402.822 702.766 396.64 705.707 392.713C709.448 387.718 714.676 385.423 720.734 384.696Z"/>
	<path fill="#061634" transform="scale(0.292969 0.292969)" d="M808.86 384.609C811.854 384.441 814.755 384.354 817.662 385.197L818.5 385.455C822.438 386.644 826.128 388.68 828.919 391.748C832.615 395.812 835.246 401.958 834.764 407.516C834.592 409.495 834.326 410.618 832.728 411.846C831.588 412.721 830.294 412.602 828.955 412.349C822.498 411.129 823.983 403.137 820.757 398.848C819.533 397.222 817.662 396.186 815.951 395.143C797.799 393.742 805.904 406.739 796.25 412.467C795.188 412.488 794.335 412.544 793.336 412.129C791.808 411.493 790.741 410.602 790.16 408.993C788.854 405.38 790.765 400.188 792.479 397C796.248 389.992 801.471 386.793 808.86 384.609Z"/>
	<path fill="#061634" transform="scale(0.292969 0.292969)" d="M745.579 423.25C746.186 423.287 747.154 423.28 747.75 423.509C750.582 424.595 751.434 428.972 752.554 431.5C754.194 435.203 757.232 437.984 761.067 439.305C764.918 440.631 770.057 440.505 773.662 438.544C778.54 435.892 779.714 432.342 781.248 427.411C781.866 425.428 782.24 424.331 784.212 423.397C785.739 422.673 787.244 422.583 788.83 423.176C790.636 423.852 792.369 425.206 793.076 427.046C794.389 430.464 792.021 435.319 790.528 438.385C787.413 443.273 783.429 447.334 778.048 449.69C770.777 452.874 762.464 453.087 755.085 450.112C748.704 447.539 743.242 441.964 740.75 435.533C739.856 433.226 738.755 429.359 739.962 427C741.095 424.784 743.303 423.776 745.579 423.25Z"/>
	<path fill="#DE2089" transform="scale(0.292969 0.292969)" d="M809.323 321.265C831.738 331.221 849.726 353.062 858.36 375.674C867.848 400.527 865.857 427.114 854.995 451.16C845.424 472.347 825.4 491.608 803.518 499.702C799.52 501.18 795.012 501.881 791.145 503.505C788.2 504.016 782.851 504.173 780.524 505.837L780.471 506.926L779.734 505.947L776.479 505.964C772.503 505.732 768.313 506.303 764.317 506.461C758.701 506.038 753.549 504.915 748.056 503.919C737.305 501.971 726.907 497.029 717.63 491.419L704.744 481.881L696.993 473.174C700.894 473.885 705.329 478.086 708.937 480.082C724.311 488.59 743.743 492.709 761.256 490.732C770.702 489.665 780.453 487.303 789.189 483.507C809.612 474.633 826.33 457.244 834.331 436.409C842.649 414.745 844.226 388.99 837.321 366.71C833.988 355.955 828.704 345.929 822.555 336.531C820.945 334.07 819.136 331.614 817.139 329.453C815.284 327.444 810.409 324.39 809.575 322.085L809.323 321.265Z"/>
	<defs>
		<linearGradient id="gradient_0" gradientUnits="userSpaceOnUse" x1="730.95465" y1="629.56628" x2="544.01752" y2="739.38385">
			<stop offset="0" stop-color="#125CAB"/>
			<stop offset="1" stop-color="#0D98E5"/>
		</linearGradient>
	</defs>
	<path fill="url(#gradient_0)" transform="scale(0.292969 0.292969)" d="M642.953 548.611C649.277 548.894 657.202 550.049 663.359 551.65L548.744 659.857L529.4 678.174C527.668 679.794 524.421 681.886 523.336 683.842L574.197 717.563L598.474 731.044C617.233 741.119 636.522 749.985 657.141 755.525C668.317 758.528 681.133 761.013 692.668 758.844C704.11 756.693 713.403 750.731 719.853 741.037C729.522 726.506 728.743 706.908 725.337 690.531C717.772 654.156 701.081 619.597 684.281 586.7L673.382 565.762C671.064 561.409 668.328 557.001 666.62 552.378C673.841 553.046 681.993 553.552 689.01 555.195L689.214 556.014C690.223 559.744 693.301 563.931 695.189 567.391L706.019 588.076L723.486 626.644C739.434 664.048 756.49 712.291 735.867 751.235C729.922 762.462 718.918 771.04 706.861 774.685C679.577 782.934 648.441 772.098 623.195 761.87C610.635 756.781 598.391 751.421 586.479 744.945C566.629 734.153 547.299 721.834 529.057 708.506C525.047 705.577 520.155 702.587 516.619 699.133C519.272 699.387 523.385 702.752 525.398 704.665C526.238 705.463 526.119 705.248 527.202 705.234C526.387 704.453 525.952 702.816 525.259 702.256C524.677 701.786 523.331 701.246 522.638 700.884L522.717 699.819C521.626 698.903 521.682 698.771 520.281 698.838L519.55 697.327C519.382 696.745 519.445 696.108 519.254 695.533C519.048 694.911 518.259 694.44 518.061 693.827C517.214 691.199 516.08 690.793 514.68 688.639C512.929 685.946 512.028 682.769 510.153 680.069C509.364 678.933 509.703 677.738 509.742 676.376C508.879 675.412 508.808 674.421 507.981 673.437L506.774 673.448C505.729 672.182 505.69 672.253 505.752 670.625L505.26 670.244L504.518 669.659C503.021 668.507 502.331 667.938 501.564 666.171C504.601 668.084 507.499 670.631 510.274 672.925L542.69 642.827L603.148 586.397C607.704 582.188 642.208 551.641 642.953 548.611Z"/>
	<path fill="#16DECD" transform="scale(0.292969 0.292969)" d="M474.128 511.519L478.73 522.346L377.363 549.215L382.404 555.393L364.566 560.161L358.47 552.231C356.573 552.555 354.583 553.034 352.656 553.03L328.152 555.698L328.121 555.758C322.626 556.642 316.861 556.676 311.295 556.973C291.075 558.053 271.202 557.567 251.116 554.875C251.083 551.525 250.571 547.722 251.912 544.604C255.528 544.274 259.149 544.928 262.75 545.236L283 546.406C301.114 546.551 319.056 544.59 337.064 542.99C341.84 542.864 346.846 541.979 351.596 541.385C354.659 541.002 358.003 540.933 360.904 539.842C372.415 537.164 384.379 535.852 396 533.591L428.347 525.958C443.69 521.992 459.435 517.481 474.128 511.519Z"/>
	<path fill="#17519D" transform="scale(0.292969 0.292969)" d="M358.47 552.231L377.363 549.215L382.404 555.393L364.566 560.161L358.47 552.231Z"/>
	<path fill="#1291E2" transform="scale(0.292969 0.292969)" d="M303.039 491.654C308.402 489.224 313.07 485.641 317.739 482.112L349.741 520.119C347.812 524.018 345.811 527.627 343.379 531.236C342.657 532.308 342.195 533.442 341 533.969L338.566 532.122L303.039 491.654Z"/>
	<path fill="#FE5D57" transform="scale(0.292969 0.292969)" d="M474.128 511.519C472.923 505.195 472.692 499.655 474.163 493.34C476.665 482.602 483.37 473.5 492.839 467.825C501.285 462.764 513.025 460.518 522.618 463.154C531.471 465.587 538.304 469.435 544.347 476.456C552.827 486.309 554.289 498.092 553.348 510.665C552.329 514.793 550.889 518.13 548.72 521.791C541.75 532.436 532.743 539.066 520.219 541.594C510.18 543.621 499.561 540.938 491.132 535.255C486.21 531.937 481.913 527.341 478.73 522.346L474.128 511.519Z"/>
	<path fill="#17519D" transform="scale(0.292969 0.292969)" d="M497.41 340.159L497.986 340.493C502.567 343.251 506.329 348.256 510.509 351.682C514.476 347.77 518.209 343.66 522.954 340.681C532.453 348.091 540.82 357.485 549.32 366.036C583.347 400.267 614.614 436.936 642.134 476.609L661.945 507.375C664.757 511.98 667.6 518.874 671.325 522.626C673.963 527.263 677.708 531.71 679.828 536.551C680.281 538.675 681.857 540.923 683.285 542.542L659.021 538.774C655.068 530.524 650.173 522.797 645.451 514.976C620.743 474.047 590.069 437.345 558.273 401.811C542.961 384.699 527.653 367.593 510.842 351.92L510.389 351.804L473.496 388.494C441.612 422.281 412.793 458.503 386.632 496.883L371.625 520.099C367.581 526.319 363.205 532.336 359.913 539L360.614 539.563L360.904 539.842C358.003 540.933 354.659 541.002 351.596 541.385C346.846 541.979 341.84 542.864 337.064 542.99C337.694 540.281 338.972 538.094 340.409 535.75C340.371 534.111 339.518 533.426 338.566 532.122L341 533.969C342.195 533.442 342.657 532.308 343.379 531.236C345.811 527.627 347.812 524.018 349.741 520.119C362.76 496.598 378.615 475.433 394.761 454.023C411.282 432.115 427.914 410.542 446.381 390.203C460.185 375 474.931 360.716 490.274 347.082C492.438 345.158 496.113 342.671 497.41 340.159Z"/>
</svg>
