<?xml version="1.0" encoding="utf-8" ?>
<svg xmlns="http://www.w3.org/2000/svg" xmlns:xlink="http://www.w3.org/1999/xlink" width="300" height="300">
	<path fill="#A51B13" transform="scale(0.292969 0.292969)" d="M957.156 476.614L970.724 480.594L960.381 482.651C958.624 480.99 956.657 479.732 954.549 478.569C955.586 478.082 956.309 477.37 957.156 476.614Z"/>
	<path fill="#C52A1C" transform="scale(0.292969 0.292969)" d="M936.891 470.909L957.156 476.614C956.309 477.37 955.586 478.082 954.549 478.569L941.446 478.233L938.405 473.883C937.528 472.821 937.066 472.363 936.891 470.909Z"/>
	<path fill="#74441F" transform="scale(0.292969 0.292969)" d="M941.446 478.233L954.549 478.569C956.657 479.732 958.624 480.99 960.381 482.651L932.577 488.436C933.443 484.925 938.048 481.292 940.569 478.766L941.446 478.233Z"/>
	<path fill="#172229" transform="scale(0.292969 0.292969)" d="M438.137 684.798L447.495 683.739L421.83 743.552C420.008 740.643 421.57 735.808 419.575 732.346L438.75 685.28L438.137 684.798Z"/>
	<path fill="#172229" transform="scale(0.292969 0.292969)" d="M274.724 676.802L282.129 678.283L292.786 716.859L296.48 729.224C297.262 731.719 298.304 734.4 298.575 737.002C298.419 742.133 300.51 750.559 298.057 755.239C296.663 751.889 295.796 748.172 294.744 744.69L289.152 725.846L274.724 676.802Z"/>
	<path fill="#490603" transform="scale(0.292969 0.292969)" d="M89.0289 515.727C83.3031 515.28 77.8325 513.927 73.0889 510.569C65.057 504.882 59.7053 494.703 58.4119 485.083C56.9038 473.864 59.0256 462.327 66.0849 453.254C71.6337 446.122 79.1061 442.708 87.9275 441.582C86.9626 445.145 84.9738 451.208 86.5185 454.75L85.4728 457.487C85.2672 459.683 84.9625 461.914 85.0346 464.121L85.0379 474.771C85.0037 478.542 84.7039 482.556 85.4391 486.263C85.5692 493.726 86.0728 501.414 87.4837 508.75C87.9221 511.029 88.1706 513.573 89.0289 515.727Z"/>
	<path fill="#C52A1C" transform="scale(0.292969 0.292969)" d="M796.009 664.676C798.032 660.928 800.942 657.502 803.379 654L819.116 631.529L840.501 600.903C843.319 596.87 846.163 591.414 849.652 588.063C862.727 621.977 873.438 657.087 881.705 692.467C883.235 699.014 886.134 707.283 885.402 714C884.568 715.305 884.246 715.827 882.75 716.442C877.995 715.767 873.145 712.763 868.888 710.655C849.675 701.143 831.446 690.152 813.93 677.793C807.945 673.57 801.64 669.349 796.009 664.676Z"/>
	<path fill="#A51B13" transform="scale(0.292969 0.292969)" d="M733.482 608.273C753.91 602.323 773.133 591.261 792.003 581.605L837.39 558.188L849.652 588.063C846.163 591.414 843.319 596.87 840.501 600.903L819.116 631.529L803.379 654C800.942 657.502 798.032 660.928 796.009 664.676C794.299 664.279 790.239 660.443 788.608 659.207C768.17 643.724 749.727 627.212 731.749 608.967L733.482 608.273Z"/>
	<path fill="#275044" transform="scale(0.292969 0.292969)" d="M299.564 681.775C338.823 686.697 378.811 689.592 418.354 686.553L418.862 718.221C418.919 722.157 418.215 728.78 419.575 732.346C421.57 735.808 420.008 740.643 421.83 743.552L421.575 744.269C420.091 748.551 420.366 753.062 420.5 757.533L306.611 757.87C305.49 757.874 299.448 758.206 298.906 757.556C298.317 756.85 298.244 756.108 298.057 755.239C300.51 750.559 298.419 742.133 298.575 737.002L299.165 737.746L299.75 737.58C300.645 730.613 299.938 723.004 299.837 715.973L299.564 681.775Z"/>
	<path fill="#C52A1C" transform="scale(0.292969 0.292969)" d="M729.551 351.655C775.815 311.401 827.527 272.703 886.966 254.753L865.11 340.35L842.991 406.307C840.816 404.634 838.162 403.397 835.775 402.035L822.022 394.233L760.207 365.565L740.806 356.589C737.116 354.876 733.45 352.842 729.551 351.655Z"/>
	<path fill="#A51B13" transform="scale(0.292969 0.292969)" d="M822.022 394.233C822.792 393.821 823.535 393.414 824.358 393.116C840.849 387.158 851.067 367.25 858.218 352.36C860.023 348.604 861.481 342.505 865.11 340.35L842.991 406.307C840.816 404.634 838.162 403.397 835.775 402.035L822.022 394.233Z"/>
	<path fill="#DCA437" transform="scale(0.292969 0.292969)" d="M85.0379 474.771L312.75 482.141L371.841 484.108C376.785 484.2 382.298 485.213 387.169 484.644L387.976 484.957C393.949 484.023 400.962 484.639 407.048 484.547L446 483.993L544.25 482.948L593.323 482.073L761.935 480.072L847.547 479.053L931.458 477.903L940.569 478.766C938.048 481.292 933.443 484.925 932.577 488.436L932.252 488.391C927.949 491.529 924.911 496.452 920.978 500.096C912.107 508.318 902.401 515.799 892.735 523.055C881.014 531.853 868.755 539.818 856.168 547.314C850.049 550.958 843.219 554.145 837.39 558.188L792.003 581.605C773.133 591.261 753.91 602.323 733.482 608.273L731.749 608.967C714.433 617.231 695.986 623.931 677.919 630.337L610.832 651.804L561.693 663.784L522.805 672.324L471.131 680.693L447.495 683.739L438.137 684.798L418.354 686.553C378.811 689.592 338.823 686.697 299.564 681.775L282.129 678.283L274.724 676.802C251.239 670.424 228.714 662.767 206.941 651.762C162.181 629.138 121.793 591.771 100.077 546.185C95.3854 536.336 92.4163 526.046 89.0289 515.727C88.1706 513.573 87.9221 511.029 87.4837 508.75C86.0728 501.414 85.5692 493.726 85.4391 486.263C84.7039 482.556 85.0037 478.542 85.0379 474.771Z"/>
	<path fill="#BA7F1F" transform="scale(0.292969 0.292969)" d="M733.482 608.273C735.599 605.093 738.868 603.353 741.942 601.245L752.32 593.82L783.409 571.319L703.402 601.708C635.066 625.265 565.419 642.46 493.702 651.739C461.519 655.904 428.737 658.638 396.268 658.468L361.387 656.954L334.75 654.498C334.185 655.051 333.724 655.437 333.061 655.891C332.981 654.911 333.053 655.46 332.802 654.25L277.884 643.753C226.953 629.851 176.558 606.534 138.25 569.377L128.536 558.972C116.74 546.347 105.957 533.037 97.3765 518L97.75 517.255C101.708 523.248 105.48 529.566 109.75 535.324C119.138 547.984 130.19 560.44 142.135 570.751C174.526 598.711 211.353 618.508 251.702 632.469C270.942 639.126 290.074 644.349 310.205 647.478L326.698 650.006C329.8 650.453 333.122 651.174 336.25 650.93L338.089 648.534L338.568 648.75C338.063 649.625 337.357 650.359 337.504 651.377L354.587 652.821C378.122 654.769 401.189 655.014 424.758 654.078C550.3 649.09 673.63 614.713 788.851 565.825L817.41 553.579L844.13 540.311C855.045 534.931 866.164 529.642 876.671 523.494C889.658 515.894 902.196 506.894 914.529 498.268C907.33 500.993 900.656 504.565 893.632 507.67L858.374 522.702L837.5 531.468C746.355 565.826 650.992 590.349 554.208 601.776C508.787 607.139 463.31 609.703 417.581 608.529L376.699 606.642L365.982 605.624C365.326 605.59 363.574 605.334 363 605.519C362.433 605.702 362 606.168 361.5 606.493C359.835 605.131 329.673 602.896 324.674 602.204C302.061 599.074 279.768 594.303 257.75 588.303C202.14 573.15 151.318 549.402 108.735 509.925C100.951 502.708 93.869 494.144 86.7614 486.25C86.9243 486.125 87.0472 485.842 87.25 485.875C88.1104 486.012 94.3917 493.518 95.5657 494.761C112.854 513.067 132.237 528.509 153.516 541.891C177.334 556.871 203.885 568.127 230.565 576.851C273.29 590.821 317.419 598.991 362.25 602.007C363.33 601.3 363.527 600.262 363.935 599.102L364.131 598.534C364.956 599.556 363.5 600.872 364.062 602.353C427.099 607.102 490.402 605.913 553.234 598.678C582.609 595.295 612.101 590.909 641.053 584.853L692.72 572.414C744.651 559.617 795.98 545.145 845.839 525.574L886.419 507.893L908.993 497.981C912.924 496.205 917.985 494.723 920.735 491.25L920.472 490.211L920.623 490.074C923.278 488.897 929.538 487.531 932.252 488.391C927.949 491.529 924.911 496.452 920.978 500.096C912.107 508.318 902.401 515.799 892.735 523.055C881.014 531.853 868.755 539.818 856.168 547.314C850.049 550.958 843.219 554.145 837.39 558.188L792.003 581.605C773.133 591.261 753.91 602.323 733.482 608.273Z"/>
	<path fill="#8B5219" transform="scale(0.292969 0.292969)" d="M85.0379 474.771L312.75 482.141L371.841 484.108C376.785 484.2 382.298 485.213 387.169 484.644C387.213 490.835 386.42 496.62 385.781 502.759L381.874 537.645C359.109 537.081 336.24 534.805 313.595 532.445C283.552 529.314 253.424 525.698 223.75 519.954L203.715 515.411L143.214 500.592L104.993 487.718C98.6937 485.328 92.1966 482.045 85.739 480.25C85.3719 482.238 85.4458 484.248 85.4391 486.263C84.7039 482.556 85.0037 478.542 85.0379 474.771Z"/>
	<path fill="#8B5219" transform="scale(0.292969 0.292969)" d="M387.976 484.957C393.949 484.023 400.962 484.639 407.048 484.547L446 483.993L544.25 482.948L593.323 482.073L761.935 480.072L847.547 479.053L931.458 477.903L940.569 478.766C938.048 481.292 933.443 484.925 932.577 488.436L932.252 488.391C929.538 487.531 923.278 488.897 920.623 490.074L920.472 490.211C822.297 511.046 722.292 526.123 622.232 533.835L556.343 538.153L495.985 538.134L382.669 537.926L387.976 484.957Z"/>
	<path fill="#F1E6C9" transform="scale(0.292969 0.292969)" d="M87.9275 441.582C90.1839 438.18 91.3645 431.398 92.6633 427.451C94.8859 420.698 97.1741 413.912 100.201 407.472C126.306 351.934 180.921 309.058 237.931 288.547C295.698 267.763 357.682 264.525 418.376 269.737C482.482 275.241 544.491 289.614 606.097 307.719L694.075 337.015L729.551 351.655C733.45 352.842 737.116 354.876 740.806 356.589L760.207 365.565L822.022 394.233L835.775 402.035C838.162 403.397 840.816 404.634 842.991 406.307C847.505 409.909 853.178 412.689 858.157 415.693L883.785 431.651C896.603 439.801 909.381 448.697 921.302 458.119L935.486 470.151L936.891 470.909C937.066 472.363 937.528 472.821 938.405 473.883L941.446 478.233L940.569 478.766L931.458 477.903L847.547 479.053L761.935 480.072L593.323 482.073L544.25 482.948L446 483.993L407.048 484.547C400.962 484.639 393.949 484.023 387.976 484.957L387.169 484.644C382.298 485.213 376.785 484.2 371.841 484.108L312.75 482.141L85.0379 474.771L85.0346 464.121C84.9625 461.914 85.2672 459.683 85.4728 457.487L86.5185 454.75C84.9738 451.208 86.9626 445.145 87.9275 441.582Z"/>
	<path fill="#D2C097" transform="scale(0.292969 0.292969)" d="M323.943 305.25C326.675 304.856 329.944 311.691 332.271 312.55C333.134 312.869 337.403 312.022 338.533 311.932L361.75 310.569C385.272 309.977 409.307 310.702 432.75 312.649C490.796 317.471 548.306 328.837 604.844 342.579L676.535 362.503L721.589 377.993L797.904 404.158L853.513 426.25C875.92 435.5 898.408 443.927 918.25 458.181C920.622 459.885 923.182 461.255 925.092 463.51C892.04 444.064 857.277 430.135 821.633 416.329L653.237 358.982L587.764 341.466L540 332.372L501.148 325.01C446.383 316.235 391.131 312.345 335.754 316.19L339.21 320.25L338.75 320.69L334.567 316.275L328.38 316.567C311.422 317.922 294.601 321.242 278.103 325.349C229.364 337.481 181.727 359.587 143.5 392.542C124.521 408.904 108.565 427.893 92.3753 446.899L91.9754 446.5L109.693 423.267C155.289 368.284 223.812 331.456 293.445 317.625C305.943 315.143 318.496 313.734 331.166 312.52L323.943 305.25Z"/>
	<path fill="#DE6125" transform="scale(0.292969 0.292969)" d="M85.4728 457.487L86.0289 457.4C89.25 456.837 91.9362 455.328 94.9095 454.049L111.238 447.062L150.784 432.124C189.406 418.552 230.146 409.273 270.377 401.958C310.079 394.74 350.941 391.283 391.216 389.257L422.027 387.555C543.374 384.484 663.476 401.151 781.377 428.981L877.063 453.79L914.907 464.592C921.676 466.519 928.562 468.916 935.486 470.151L936.891 470.909C937.066 472.363 937.528 472.821 938.405 473.883L941.446 478.233L940.569 478.766L931.458 477.903L847.547 479.053L761.935 480.072L593.323 482.073L544.25 482.948L446 483.993L407.048 484.547C400.962 484.639 393.949 484.023 387.976 484.957L387.169 484.644C382.298 485.213 376.785 484.2 371.841 484.108L312.75 482.141L85.0379 474.771L85.0346 464.121C84.9625 461.914 85.2672 459.683 85.4728 457.487Z"/>
	<path fill="#F1E6C9" transform="scale(0.292969 0.292969)" d="M85.0346 464.121C92.6488 463.64 100.286 462.013 107.829 460.866L151.319 454.237L274.28 439.93C342.162 434.923 410.454 431.628 478.532 433.276L519 435.801L599.75 440.809L680.25 445.826L720.95 448.343L757.199 453.052L819.159 461.155L911.78 474.581C917.64 475.492 926.348 475.123 931.458 477.903L847.547 479.053L761.935 480.072L593.323 482.073L544.25 482.948L446 483.993L407.048 484.547C400.962 484.639 393.949 484.023 387.976 484.957L387.169 484.644C382.298 485.213 376.785 484.2 371.841 484.108L312.75 482.141L85.0379 474.771L85.0346 464.121Z"/>
</svg>
