<?xml version="1.0" encoding="utf-8" ?>
<svg xmlns="http://www.w3.org/2000/svg" xmlns:xlink="http://www.w3.org/1999/xlink" width="300" height="300">
	<path fill="#FDFDFC" transform="scale(0.292969 0.292969)" d="M922.526 452.782C923.843 454.821 924.709 457.357 925.745 459.566C928.508 465.463 932.579 469.076 937.467 473.228C929.653 478.147 926.391 483.525 922.417 491.657C917.819 484.426 915.604 478.523 908.005 473.602L907.416 473.23C914.801 467.539 919.004 461.286 922.526 452.782Z"/>
	<path fill="#FDFDFC" transform="scale(0.292969 0.292969)" d="M404.231 98.75C406.695 100.205 408.688 105.812 410.269 108.335C413.653 113.735 418.271 117.786 422.922 122.052C415.066 127.678 410.04 135.71 405.25 143.906L404.265 144.453C402.645 142.486 401.576 140.001 400.369 137.764C396.634 130.845 392.851 127.236 386.669 122.471C394.283 115.164 399.249 108.03 404.231 98.75Z"/>
	<path fill="#FDFDFC" transform="scale(0.292969 0.292969)" d="M262 347.356C265.193 352.75 267.578 358.89 271.603 363.75C274.192 366.877 277.472 369.377 280.656 371.861C278.204 374.041 275.412 376.114 273.222 378.543C268.822 383.422 265.765 389.404 262.892 395.25L261.815 395.278C259.585 392.143 258.084 388.554 256.094 385.264C252.869 379.932 248.565 375.812 244.16 371.477C252.018 363.901 256.945 356.944 262 347.356Z"/>
	<path fill="#69D5DF" transform="scale(0.292969 0.292969)" d="M920.354 670.521C923.458 675.619 925.375 682.516 927.22 688.197C927.708 689.699 928.216 692.468 929.025 693.724C929.881 695.053 934.753 696.718 936.25 697.49C939.661 699.248 942.922 701.351 946.149 703.422C942.058 705.212 938.121 707.909 934.229 710.111C933.24 710.67 930.941 711.559 930.195 712.296C928.944 713.528 928.035 716.647 927.388 718.284L921.101 734.25L920.621 734.679C919.241 733.861 918.613 731.916 918.038 730.454L912.887 716.622C912.541 715.738 912.009 713.619 911.431 712.935C910.599 711.949 907.968 710.678 906.817 709.973L895.433 703.019C900.113 699.725 905.468 697.637 910.265 694.592C910.77 694.272 911.88 693.649 912.209 693.175C913.654 691.088 914.462 687.145 915.264 684.713L920.354 670.521Z"/>
	<path fill="#12B4CC" transform="scale(0.292969 0.292969)" d="M133.764 824.988L140.817 841.659C141.501 843.265 142.367 846.097 143.672 847.247C145.14 848.54 147.488 849.542 149.196 850.523C152.972 852.693 156.591 854.86 160.04 857.528C155.48 860.945 150.692 862.666 145.79 865.373C143.402 866.692 142.562 869.667 141.576 872.057L135.25 886.912C134.922 886.971 134.555 887.084 134.25 886.949C134.235 886.943 133.619 885.759 133.584 885.69C130.774 880.186 129.534 874.029 126.778 868.531C125.66 866.302 123.463 865.654 121.316 864.461L109.196 857.43C112.455 854.782 115.775 852.886 119.442 850.873C121.202 849.906 123.521 848.963 125.083 847.713C126.218 846.805 127.13 843.136 127.641 841.731L133.764 824.988Z"/>
	<path fill="#69D5DF" transform="scale(0.292969 0.292969)" d="M699.546 155.743L707.928 160.605C703.628 164.307 698.438 166.225 693.893 169.445C690.736 171.681 684.087 188.359 682.687 192.499L682.516 193.024C679.163 188.224 676.931 181.391 674.49 176C673.72 174.3 672.732 171.528 671.298 170.327C669.725 169.01 667.517 168.098 665.742 167.056L655.381 160.551C658.663 158.704 661.992 156.866 665.429 155.326C666.797 154.714 671.501 153.23 672.333 152.318C673.349 151.206 674.41 147.555 675.039 146.06L681.736 130.638L691.177 150.629C693.664 152.759 696.683 154.189 699.546 155.743Z"/>
	<path fill="#12B4CC" transform="scale(0.292969 0.292969)" d="M691.177 150.629C693.664 152.759 696.683 154.189 699.546 155.743C696.711 157.561 694.406 157.654 691.134 157.794L691.177 150.629Z"/>
	<path fill="#FDFDFC" transform="scale(0.292969 0.292969)" d="M748.504 306.134C751.467 311.532 753.786 317.219 757.178 322.391C760.899 328.064 765.473 332.394 770.768 336.579C760.38 345.55 753.613 355.72 748.957 368.689L748.761 369.25C746.983 368.67 745.079 362.731 744.168 360.689C739.767 350.832 733.84 343.8 726.026 336.473C736.701 328.075 742.607 318.164 748.504 306.134Z"/>
	<path fill="#12B4CC" transform="scale(0.292969 0.292969)" d="M104.23 415.75C106.984 415.567 112.959 440.916 115.497 444.578C115.989 445.288 135.503 455.824 137.651 457.155L124.034 464.606C121.454 466.03 118.095 467.377 116.076 469.545C113.907 471.872 112.797 476.403 111.678 479.347L104.736 496.554L98.084 479.971L94.9759 471.546C94.6933 470.834 94.2762 469.302 93.8251 468.73C92.8142 467.448 88.602 465.775 87.102 465.003L71.5864 456.425C77.5728 452.301 84.3952 449.458 90.75 445.965C91.4987 445.554 92.7883 444.905 93.3325 444.286C94.8592 442.552 95.8677 438.269 96.6689 436.089L104.23 415.75Z"/>
	<path fill="#1183AF" transform="scale(0.292969 0.292969)" d="M834.701 186.206L844.815 220.093L847.708 229.888C847.956 230.66 848.335 232.499 848.77 233.045C850.162 234.797 854.045 236.452 856.076 237.594L879.478 250.595L860.271 262.333C857.199 264.116 852.117 265.859 849.643 268.238C847.253 270.537 844.61 283.049 843.427 286.785C840.743 295.261 838.146 303.754 834.629 311.931L824.274 279.133C823.461 276.636 822.255 270.596 820.613 268.688C818.432 266.153 812.132 263.661 809.158 261.983L789.705 250.439C794.133 247.936 818.258 236.088 820.234 232.767L820.58 231.937C822.803 226.715 824.129 220.96 825.789 215.528L834.701 186.206Z"/>
	<path fill="#69D5DF" transform="scale(0.292969 0.292969)" d="M855.264 786.174C857.849 791.328 859.284 797.629 861.127 803.124L872.786 837.475L918.059 855.826L876.75 874.583C875.907 874.978 874.389 875.61 873.777 876.253C871.217 878.947 869.429 886.562 868.069 890.239L855.75 923.467C855.311 924.376 855.444 924.402 854.5 924.935C851.707 920.073 850.242 913.989 848.413 908.695L837.702 878.813C837.268 877.719 836.554 875.183 835.825 874.344C835.109 873.519 830.042 871.769 828.841 871.211L794.096 855.394L832.856 840.402C833.829 840.012 837.289 838.754 837.867 838.004C838.396 837.317 838.857 834.974 839.151 834.065L843.207 821.18C846.907 809.518 850.442 797.42 855.264 786.174Z"/>
	<path fill="#FDFDFC" transform="scale(0.292969 0.292969)" d="M854.727 847.75C855.674 849.712 855.655 852.783 855.922 854.965L861.114 850.602L856.956 855.947C859.206 855.991 863.794 855.571 865.691 856.5C864.433 857.388 858.79 857.034 856.972 857.097L860.546 861.946C859.148 860.676 857.498 858.686 855.688 858.179L855.428 860.375C855.394 863.632 856.235 870.586 854.75 873.24L853.881 856.795L843.902 856.838C846.679 855.593 850.514 855.363 853.543 854.963L854.727 847.75Z"/>
	<path fill="#69D5DF" transform="scale(0.292969 0.292969)" d="M215.724 120.25C217.523 122.704 218.557 126.327 219.628 129.146L226.685 148.35L243.656 191.712C245.809 192.996 248.794 193.69 251.192 194.422L262.856 198.013L307.943 212.322L240.273 238.242L216.51 307.25L215.868 308.952L215.1 308.946C210.363 301.556 208.184 290.875 205.26 282.543L190.484 241.5C190.261 240.879 189.502 238.188 189.159 237.929C188.459 237.401 186.352 236.918 185.451 236.593L176.591 233.339C159.566 226.706 141.977 220.484 125.453 212.711C130.102 211.211 189.319 191.256 189.519 190.993C190.972 189.088 192.166 183.799 193.065 181.336L205.999 145.932L212.156 128.863C213.159 126.087 213.935 122.616 215.724 120.25Z"/>
	<path fill="#FDFDFC" transform="scale(0.292969 0.292969)" d="M215.201 197.5C216.734 201.756 216.412 206.339 216.022 210.753L224.282 204.56C222.435 207.418 219.624 209.967 217.292 212.461C221.079 213.16 225.172 213.341 228.781 214.67C224.992 215.051 221.187 214.671 217.4 214.41C218.752 215.837 220.631 217.411 221.357 219.25L220.75 219.347L216.139 215.066L215.983 225.75L215.188 226.317L214.342 214.389C212.247 216.443 210.148 219.191 207.62 220.673L212.25 214.284L202.75 213.83L202.75 213.347C206.501 212.978 210.196 212.728 213.857 211.78L206.368 204.556C209.509 205.641 212.051 208.33 214.429 210.555L215.201 197.5Z"/>
	<path fill="#69D5DF" transform="scale(0.292969 0.292969)" d="M675.933 566.957L725.377 626.479L725.283 626.997C726.749 628.526 728.077 629.955 729.339 631.657L731.781 634.652L732.281 635.128L672.722 847.539L662.313 886L649.167 935.386C647.902 939.413 647.021 943.827 645.126 947.591L620.279 884.709C619.39 882.388 619.181 880.903 619.568 878.419L633.432 801.25L656.807 670.072L670.657 594.094C672.382 585.111 672.864 575.581 675.933 566.957Z"/>
	<path fill="#FDFDFC" transform="scale(0.292969 0.292969)" d="M725.283 626.997C726.749 628.526 728.077 629.955 729.339 631.657L731.781 634.652L732.281 635.128L672.722 847.539C672.678 846.633 672.646 845.833 672.822 844.935L725.283 626.997Z"/>
	<path fill="#69D5DF" transform="scale(0.292969 0.292969)" d="M140.514 635.766L192.355 642.912L212.832 645.773C216.468 646.255 220.193 647.075 223.862 647.02C224.529 643.569 223.657 640.243 223.795 636.843C224.605 640.209 225.669 643.568 227.645 646.446C234.207 655.901 239.033 666.938 244.169 677.24L268.722 727.448L331.182 858.329C332.617 860.052 333.429 862.472 334.374 864.497L339.575 875.5L350.996 899.457L373.603 946.256C374.017 947.193 374.12 947.856 374.044 948.873L339.378 930.525L322.835 922.113C320.057 920.722 316.835 919.702 314.535 917.554C312.728 915.867 311.547 913.257 310.345 911.121L304.069 900.513L266.259 838.919L172.715 687.525L140.514 635.766Z"/>
	<path fill="#FDFDFC" transform="scale(0.292969 0.292969)" d="M223.862 647.02C224.529 643.569 223.657 640.243 223.795 636.843C224.605 640.209 225.669 643.568 227.645 646.446C234.207 655.901 239.033 666.938 244.169 677.24L268.722 727.448L331.182 858.329L330.795 858.306C324.879 850.97 320.872 840.385 316.657 831.908L300.025 799.532L247.394 696.081L230.613 662.323C228.22 657.32 225.339 652.384 223.862 647.02Z"/>
	<path fill="#D0EFF2" transform="scale(0.292969 0.292969)" d="M832.819 431.962L835.75 429.464L836.41 429.529C836.793 430.797 837.064 431.933 837.227 433.256L848.653 490.638L864.291 570.517L873.03 614.25C874.319 620.779 876.17 627.525 876.972 634.11C877.063 634.854 877.031 635.426 876.633 636.083C876.396 636.475 876.25 636.599 875.954 636.91L800.5 657.509L797.77 657.082C791.047 654.118 783.543 652.179 776.569 649.774L734.278 635.237C733.473 634.973 733.095 634.929 732.281 635.128L731.781 634.652L729.339 631.657C728.077 629.955 726.749 628.526 725.283 626.997L725.377 626.479L675.933 566.957L676.085 566.799C679.446 562.541 684.189 559.246 688.282 555.687L714.484 533.035L773.383 481.845L832.819 431.962Z"/>
	<path fill="#A1E6ED" transform="scale(0.292969 0.292969)" d="M832.819 431.962L835.75 429.464L836.41 429.529C836.793 430.797 837.064 431.933 837.227 433.256C834.374 442.795 833.659 452.969 832.046 462.773L822.265 521.311L814.708 566.089C813.181 574.693 810.448 584.288 810.412 593.005L810.73 593.564C812.921 597.471 813.828 600.321 812.656 604.75L812.523 605.287C811.774 608.013 808.939 610.897 806.977 612.857L800.5 657.509L797.77 657.082C791.047 654.118 783.543 652.179 776.569 649.774L734.278 635.237C733.473 634.973 733.095 634.929 732.281 635.128L731.781 634.652C736.018 627.948 739.426 620.234 743.059 613.165L761.933 576.869L817.741 469.23L825.708 452.768L828.902 444.823C829.641 442.69 830.06 440.406 831.731 438.806L832.301 439.856L832.355 439.817C833.038 437.054 832.994 434.772 832.819 431.962Z"/>
	<path fill="#FDFDFC" transform="scale(0.292969 0.292969)" d="M779.186 562.25C780.926 561.874 782.55 562.104 784.25 562.63C786.915 563.454 788.845 566.152 789.931 568.563C790.799 570.494 790.919 573.887 790.103 575.859C788.74 579.151 785.917 580.595 782.869 581.984C781.591 582.031 780.254 582.104 779.01 581.763C776.402 581.048 774.081 579.323 772.875 576.879C771.659 574.413 771.293 571.249 772.202 568.637C773.312 565.449 776.254 563.537 779.186 562.25Z"/>
	<path fill="#FDFDFC" transform="scale(0.292969 0.292969)" d="M832.819 431.962L835.75 429.464L836.41 429.529C836.793 430.797 837.064 431.933 837.227 433.256C834.374 442.795 833.659 452.969 832.046 462.773L822.265 521.311L814.708 566.089C813.181 574.693 810.448 584.288 810.412 593.005L810.73 593.564C812.921 597.471 813.828 600.321 812.656 604.75L812.523 605.287C811.774 608.013 808.939 610.897 806.977 612.857L800.5 657.509L797.77 657.082L803.775 613.221C801.861 612.924 799.898 613.185 798 612.879C795.429 612.464 793.297 610.727 791.87 608.609C789.798 605.533 788.742 601.772 789.598 598.078C790.386 594.672 792.265 591.769 795.356 590.054C799.042 588.009 802.399 588.335 806.298 589.493L807.134 589.745L832.301 439.856L832.355 439.817C833.038 437.054 832.994 434.772 832.819 431.962Z"/>
	<path fill="#69D5DF" transform="scale(0.292969 0.292969)" d="M837.227 433.256L848.653 490.638L864.291 570.517L873.03 614.25C874.319 620.779 876.17 627.525 876.972 634.11C877.063 634.854 877.031 635.426 876.633 636.083C876.396 636.475 876.25 636.599 875.954 636.91L800.5 657.509L806.977 612.857C808.939 610.897 811.774 608.013 812.523 605.287L812.656 604.75C813.828 600.321 812.921 597.471 810.73 593.564L810.412 593.005C810.448 584.288 813.181 574.693 814.708 566.089L822.265 521.311L832.046 462.773C833.659 452.969 834.374 442.795 837.227 433.256Z"/>
	<path fill="#1183AF" transform="scale(0.292969 0.292969)" d="M732.281 635.128C733.095 634.929 733.473 634.973 734.278 635.237L776.569 649.774C783.543 652.179 791.047 654.118 797.77 657.082L800.5 657.509L875.954 636.91L863.25 658.583L837.571 702.151L740.717 863.269L721.743 894.973L714.98 907C713.767 909.201 712.519 912.054 710.72 913.823C706.902 917.576 700.059 920.288 695.315 922.871L663.409 940.101C658.434 942.814 653.258 945.282 648.484 948.334C647.634 949.101 647.402 949.555 646.25 949.767L645.126 947.591C647.021 943.827 647.902 939.413 649.167 935.386L662.313 886L672.722 847.539L732.281 635.128Z"/>
	<path fill="#12B4CC" transform="scale(0.292969 0.292969)" d="M732.281 635.128C733.095 634.929 733.473 634.973 734.278 635.237L776.569 649.774C783.543 652.179 791.047 654.118 797.77 657.082L800.5 657.509C796.831 666.927 791.227 676.028 786.522 685L761.698 732.192L679.048 889.5L664.715 917.023C659.084 927.316 653.081 937.527 648.484 948.334C647.634 949.101 647.402 949.555 646.25 949.767L645.126 947.591C647.021 943.827 647.902 939.413 649.167 935.386L662.313 886L672.722 847.539L732.281 635.128Z"/>
	<path fill="#A1E6ED" transform="scale(0.292969 0.292969)" d="M186.085 420.968C186.515 418.422 186.869 414.12 188.741 412.31L189.918 413.055C194.079 415.813 197.789 419.455 201.516 422.765L220.911 440.26L273.58 487.379L318.244 526.722L337.605 543.503C341.054 546.506 344.998 549.459 347.958 552.946C346.347 556.151 343.95 558.952 341.859 561.861L330.973 576.984L307.836 608.663C304.772 612.679 301.999 616.936 298.476 620.574L298.102 620.574L297.241 621.076L227.645 646.446C225.669 643.568 224.605 640.209 223.795 636.843C223.657 640.243 224.529 643.569 223.862 647.02C220.193 647.075 216.468 646.255 212.832 645.773L192.355 642.912L140.514 635.766C139.773 634.323 140.026 633.292 140.283 631.762L146.06 605.102L157.059 555.327L186.085 420.968Z"/>
	<path fill="#FDFDFC" transform="scale(0.292969 0.292969)" d="M229.265 561.655C230.704 561.796 232.055 561.986 233.392 562.57C236.079 563.743 238.019 566.004 238.955 568.77C239.814 571.311 239.517 573.737 238.325 576.099C236.516 579.682 232.694 580.854 229.156 582.082C227.792 581.737 226.418 581.379 225.132 580.797C222.794 579.74 220.44 577.487 219.662 574.981C218.721 571.943 218.922 569.262 220.583 566.5C222.56 563.21 225.752 562.417 229.265 561.655Z"/>
	<path fill="#FDFDFC" transform="scale(0.292969 0.292969)" d="M191.306 418.536L215.152 463.293L264.255 556.039L288.305 601.417L294.779 613.625C295.956 615.853 297.406 618.143 298.102 620.574L297.241 621.076C289.753 610.109 284.337 597.604 278.556 585.677C276.555 589.568 274.677 592.537 270.607 594.563C267.427 596.146 263.655 596.383 260.348 595.05C256.971 593.689 254.8 591.151 253.525 587.799L253.3 587.179C252.944 586.215 252.613 585.28 252.497 584.25C252.048 580.231 253.284 576.525 255.879 573.419C258.896 569.808 262.638 569.197 267.016 568.697L204.058 446.404L197.708 433.698C195.465 429.395 191.259 423.482 191.306 418.536Z"/>
	<path fill="#69D5DF" transform="scale(0.292969 0.292969)" d="M189.918 413.055C194.079 415.813 197.789 419.455 201.516 422.765L220.911 440.26L273.58 487.379L318.244 526.722L337.605 543.503C341.054 546.506 344.998 549.459 347.958 552.946C346.347 556.151 343.95 558.952 341.859 561.861L330.973 576.984L307.836 608.663C304.772 612.679 301.999 616.936 298.476 620.574L298.102 620.574C297.406 618.143 295.956 615.853 294.779 613.625L288.305 601.417L264.255 556.039L215.152 463.293L191.306 418.536L191.339 418.333C190.517 416.471 190.021 415.098 189.918 413.055Z"/>
	<path fill="#D0EFF2" transform="scale(0.292969 0.292969)" d="M186.085 420.968C187.433 422.018 187.773 421.958 187.963 423.75C188.334 427.255 188.433 430.666 189.125 434.143L192.122 453.15L195.125 472.148L203.44 521.25L204.125 524.818L207.62 545.385L211.125 565.796L214.624 586.215L217.629 603.322C218.752 607.971 219.537 613.473 219.437 618.25C220.561 619.44 220.687 619.353 220.627 621L220.377 624.25C221.246 624.733 220.762 624.603 221.843 624.573C222.058 626.114 222.049 626.788 221.599 628.248C221.343 629.079 221.401 629.89 221.413 630.75L221.85 630.997L222.5 630.066C223.143 630.931 222.989 630.458 223.039 631.383C223.139 633.216 223.356 634.804 223.882 636.561L223.795 636.843C223.657 640.243 224.529 643.569 223.862 647.02C220.193 647.075 216.468 646.255 212.832 645.773L192.355 642.912L140.514 635.766C139.773 634.323 140.026 633.292 140.283 631.762L146.06 605.102L157.059 555.327L186.085 420.968Z"/>
	<path fill="#1183AF" transform="scale(0.292969 0.292969)" d="M347.958 552.946C349.26 555.798 349.751 558.743 350.282 561.806L366.56 665.25L387.669 796.042L397.022 854.891L399.418 869.971C399.845 872.69 400.566 875.7 400.456 878.455C400.306 882.22 398.314 886.445 397.047 890.002L390.516 909L378.51 946.267C378.095 947.366 377.696 948.488 377.014 949.448C376.811 949.751 376.519 949.984 376.262 950.242L374.044 948.873C374.12 947.856 374.017 947.193 373.603 946.256L350.996 899.457L339.575 875.5L334.374 864.497C333.429 862.472 332.617 860.052 331.182 858.329L268.722 727.448L244.169 677.24C239.033 666.938 234.207 655.901 227.645 646.446L297.241 621.076L298.102 620.574L298.476 620.574C301.999 616.936 304.772 612.679 307.836 608.663L330.973 576.984L341.859 561.861C343.95 558.952 346.347 556.151 347.958 552.946Z"/>
	<path fill="#12B4CC" transform="scale(0.292969 0.292969)" d="M298.102 620.574L298.476 620.574L377.014 949.448C376.811 949.751 376.519 949.984 376.262 950.242L374.044 948.873C374.12 947.856 374.017 947.193 373.603 946.256L350.996 899.457L339.575 875.5L334.374 864.497C333.429 862.472 332.617 860.052 331.182 858.329L268.722 727.448L244.169 677.24C239.033 666.938 234.207 655.901 227.645 646.446L297.241 621.076L298.102 620.574Z"/>
	<path fill="#69D5DF" transform="scale(0.292969 0.292969)" d="M345.888 376.092C358.589 382.625 370.502 391.12 382.653 398.639L425.661 426.332C434.528 432.166 443.939 437.913 452.069 444.753L452.257 445.434L457.75 444.105C461.106 443.318 464.564 442.898 467.976 442.382L500.305 834.484C500.931 838.13 500.912 841.907 501.148 845.598L502.486 863L509.207 932.183C510.048 939.94 510.029 948.278 511.712 955.862L511.285 956.913L493.189 939.409L449.481 897.873L439.663 888.698C437.879 887.072 435.612 885.385 434.507 883.212C432.959 880.167 432.833 875.849 432.328 872.5L429.304 852.561L420.837 799.495L370.255 506.25L352.721 410.588C350.51 399.387 349.495 386.863 345.888 376.092Z"/>
	<path fill="#FDFDFC" transform="scale(0.292969 0.292969)" d="M452.257 445.434L457.75 444.105C461.106 443.318 464.564 442.898 467.976 442.382L500.305 834.484L499.743 835.75L452.257 445.434Z"/>
	<path fill="#A1E6ED" transform="scale(0.292969 0.292969)" d="M510.986 67.4952L511.963 67.2744C512.724 68.5784 513.514 69.8566 514.102 71.2507L555.952 147.891L631.033 285.75L669.77 357.149L676.379 369.021C676.893 369.94 678.276 371.781 678.466 372.75C678.544 373.145 678.433 373.554 678.417 373.955L580.053 441.665L579.897 442.079L578.653 441.793C575.274 442.375 571.289 442.018 567.842 442.018L546.287 442.017L468.056 442.08L467.976 442.382C464.564 442.898 461.106 443.318 457.75 444.105L452.257 445.434L452.069 444.753C443.939 437.913 434.528 432.166 425.661 426.332L382.653 398.639C370.502 391.12 358.589 382.625 345.888 376.092L345.215 374.814C345.275 373.691 345.552 372.92 346.032 371.924L359.962 346L391.644 287.444L476.145 131.585L498.829 89.3913C502.565 82.3697 506.125 73.763 510.986 67.4952Z"/>
	<path fill="#FDFDFC" transform="scale(0.292969 0.292969)" d="M496.15 311.075C499.165 310.96 502.326 310.765 505.25 311.662C509.46 312.954 512.8 316.725 514.75 320.535C516.766 324.475 516.774 328.624 515.305 332.742C513.473 337.879 509.233 340.53 504.566 342.726C501.498 343.579 498.667 343.84 495.614 342.725C491.014 341.045 487.521 337.783 485.553 333.325C483.511 328.698 483.854 324.259 485.792 319.685C487.77 315.017 491.653 312.816 496.15 311.075Z"/>
	<path fill="#FDFDFC" transform="scale(0.292969 0.292969)" d="M510.986 67.4952L511.963 67.2744C512.724 68.5784 513.514 69.8566 514.102 71.2507C514.017 76.3935 515.193 81.584 516.149 86.6167L519.863 106L534.767 185.309L553.766 289.815C556.828 306.875 559.032 324.362 562.948 341.228C568.331 346.372 572.325 350.352 573.569 358L573.714 358.848C574.511 363.989 572.862 368.713 570.718 373.307C570.278 374.25 569.106 376.144 569.042 377.09C568.979 378.04 569.523 379.735 569.707 380.702L571.502 389.75L576.383 417.024C577.895 425.087 580.224 433.42 580.053 441.665L579.897 442.079L578.653 441.793C575.082 433.988 574.205 424.684 572.47 416.341C569.919 404.08 566.957 392.167 565.231 379.725C559.942 383.068 555.106 385.138 548.659 384.6C543.189 384.144 537.513 380.212 534.075 376.065C529.422 370.454 527.753 364.68 528.469 357.5C529.02 351.974 532.764 346.664 537.068 343.32C543.626 338.224 549.445 338.279 557.338 339.192L512.438 76.555C512.169 73.3691 511.392 70.588 510.986 67.4952Z"/>
	<path fill="#69D5DF" transform="scale(0.292969 0.292969)" d="M514.102 71.2507L555.952 147.891L631.033 285.75L669.77 357.149L676.379 369.021C676.893 369.94 678.276 371.781 678.466 372.75C678.544 373.145 678.433 373.554 678.417 373.955L580.053 441.665C580.224 433.42 577.895 425.087 576.383 417.024L571.502 389.75L569.707 380.702C569.523 379.735 568.979 378.04 569.042 377.09C569.106 376.144 570.278 374.25 570.718 373.307C572.862 368.713 574.511 363.989 573.714 358.848L573.569 358C572.325 350.352 568.331 346.372 562.948 341.228C559.032 324.362 556.828 306.875 553.766 289.815L534.767 185.309L519.863 106L516.149 86.6167C515.193 81.584 514.017 76.3935 514.102 71.2507Z"/>
	<path fill="#D0EFF2" transform="scale(0.292969 0.292969)" d="M345.888 376.092L345.215 374.814C345.275 373.691 345.552 372.92 346.032 371.924L359.962 346L391.644 287.444L476.145 131.585L498.829 89.3913C502.565 82.3697 506.125 73.763 510.986 67.4952C511.392 70.588 512.169 73.3691 512.438 76.555L511.75 75.3668C510.952 76.2462 511.16 76.4022 511.125 77.5235C510.968 82.6265 511.211 87.8109 510.832 92.8946C510.47 97.7503 509.506 102.691 508.836 107.519L504.821 137.128L496.871 204.25L474.565 381.936L469.961 416.619C468.906 424.191 467.11 432.57 467.554 440.236C467.625 441.459 467.52 440.965 468.056 442.08L467.976 442.382C464.564 442.898 461.106 443.318 457.75 444.105L452.257 445.434L452.069 444.753C443.939 437.913 434.528 432.166 425.661 426.332L382.653 398.639C370.502 391.12 358.589 382.625 345.888 376.092Z"/>
	<path fill="#1183AF" transform="scale(0.292969 0.292969)" d="M580.053 441.665L678.417 373.955L668.616 429.042L648.862 542.034L613.623 746.746L597.377 843.5L592.642 872.485C592.075 875.977 592.001 881.073 590.263 884.193C588.884 886.669 585.833 889.062 583.737 890.944L571.356 902.199L540.215 932.332L513.25 957.915L512.126 957.879L511.285 956.913L511.712 955.862C510.029 948.278 510.048 939.94 509.207 932.183L502.486 863L501.148 845.598C500.912 841.907 500.931 838.13 500.305 834.484L467.976 442.382L468.056 442.08L546.287 442.017L567.842 442.018C571.289 442.018 575.274 442.375 578.653 441.793L579.897 442.079L580.053 441.665Z"/>
	<path fill="#12B4CC" transform="scale(0.292969 0.292969)" d="M578.653 441.793L579.897 442.079L559.218 601.398L551.713 653.814L538.858 751.271L530.102 813.628L516.993 918.609L513.76 947.361C513.378 950.175 513.302 953.451 511.712 955.862C510.029 948.278 510.048 939.94 509.207 932.183L502.486 863L501.148 845.598C500.912 841.907 500.931 838.13 500.305 834.484L467.976 442.382L468.056 442.08L546.287 442.017L567.842 442.018C571.289 442.018 575.274 442.375 578.653 441.793Z"/>
</svg>
