<?xml version="1.0" encoding="utf-8" ?>
<svg xmlns="http://www.w3.org/2000/svg" xmlns:xlink="http://www.w3.org/1999/xlink" width="371" height="371">
	<path fill="#FBC114" transform="scale(0.362305 0.362305)" d="M156.937 483.4C157.718 478.619 158.908 473.652 161.448 469.467C164.293 464.779 170.754 462.284 175.847 460.985C169.672 468.088 166.363 473.74 165.836 483.24L156.937 483.4Z"/>
	<path fill="#FBC114" transform="scale(0.362305 0.362305)" d="M145.449 436.524C148.982 436.784 152.122 438.583 154.458 441.198C156.458 443.436 157.374 446.155 157.053 449.152C156.746 452.018 154.794 454.872 152.476 456.524C150.429 457.984 147.896 458.849 145.37 458.327C142.29 457.69 139.472 455.814 137.75 453.165C135.414 449.571 136.178 446.222 137.122 442.31C137.438 441.715 137.732 441.17 138.158 440.644C140.107 438.242 142.345 436.745 145.449 436.524Z"/>
	<path fill="#FEF7C4" transform="scale(0.362305 0.362305)" d="M137.122 442.31C137.438 441.715 137.732 441.17 138.158 440.644C140.107 438.242 142.345 436.745 145.449 436.524C144.723 438.916 143.963 442.181 141.812 443.678C141.161 444.132 140.108 444.042 139.383 443.75C138.593 443.431 137.815 442.806 137.122 442.31Z"/>
	<path fill="#CDDACE" transform="scale(0.362305 0.362305)" d="M108.429 532.085C110.398 532.248 112.296 532.399 114.122 533.215C117.199 534.592 119.447 537.28 120.466 540.478C121.434 543.52 121.135 547.334 119.487 550.099C117.346 553.692 113.902 554.997 110.109 556.01C107.785 556.129 105.948 555.886 103.905 554.702C101.001 553.018 98.4094 549.747 97.6684 546.445C96.9691 543.33 97.7926 539.84 99.6203 537.25C101.877 534.052 104.738 532.856 108.429 532.085Z"/>
	<path fill="#FBC114" transform="scale(0.362305 0.362305)" d="M852.973 649.821C858.535 655.917 862.701 661.82 865.091 669.8C869.643 684.995 866.121 696.712 858.885 710.071C851.168 700.713 844.588 692.823 849.076 680.166C850.493 676.171 852.507 672.416 853.846 668.385C854.968 665.007 855.785 661.348 855.177 657.791L855.03 657C854.577 654.464 853.87 652.221 852.973 649.821Z"/>
	<path fill="#FBE050" transform="scale(0.362305 0.362305)" d="M856.104 680.75C857.103 680.866 857.502 681.006 858.334 681.628C859.651 682.613 860.352 683.874 860.544 685.5C859.825 686.689 858.85 687.326 857.75 688.124L856 688.473C855.375 688.002 854.622 687.495 854.123 686.891C853.344 685.948 853.081 684.401 853.494 683.25C853.989 681.867 854.905 681.391 856.104 680.75Z"/>
	<path fill="#449EAF" transform="scale(0.362305 0.362305)" d="M834.073 468.696C835.55 467.931 837.011 467.398 838.588 466.873C841.116 469.333 842.902 472.77 844.75 475.775L856.011 495.572L892.655 560.088L903.507 578.958C905.213 581.977 907.425 585.242 908.557 588.509L905.073 590.448C896.422 579.515 890.513 566.694 883.553 554.673L840.912 480.448L836.25 472.279C835.567 470.985 835.333 469.564 834.073 468.696Z"/>
	<path fill="#FBC114" transform="scale(0.362305 0.362305)" d="M170.25 345.578C172.425 345.51 174.838 345.282 176.984 345.646C182.077 346.511 186.408 349.19 189.247 353.535C192.089 357.884 193.538 363.444 192.231 368.603L192.05 369.25C191.639 370.762 191.217 372.214 190.472 373.603C187.454 379.229 182.74 381.858 176.783 383.478C172.904 383.912 169.352 383.551 165.75 381.975C160.889 379.847 157.152 375.379 155.362 370.456C153.631 365.696 154.461 359.862 156.788 355.432C159.799 349.7 164.373 347.435 170.25 345.578Z"/>
	<path fill="#FEFEFE" transform="scale(0.362305 0.362305)" d="M165.618 351.25C166.703 351.182 167.742 351.23 168.75 351.703C170.013 352.297 171.444 353.79 171.803 355.161C172.338 357.202 172.177 359.298 171.131 361.135C170.036 363.058 167.781 364.011 165.75 364.508C164.842 364.406 163.842 364.235 163 363.872C161.374 363.171 160.125 361.664 159.575 360.011C159.048 358.425 158.937 357.203 159.79 355.683C161.116 353.321 163.048 351.951 165.618 351.25Z"/>
	<path fill="#69E1EF" transform="scale(0.362305 0.362305)" d="M165.836 483.24C171.091 483.02 194.298 481.096 197.425 484.097C199.671 486.253 198.991 491.736 198.84 494.583C198.784 495.646 198.606 496.591 198.357 497.622L197.424 498.088L196.423 498.219L186.061 498.429L186.09 506.539L135.886 506.489L135.577 498.405L123.96 498.531L124.29 483.507L156.937 483.4L165.836 483.24Z"/>
	<path fill="#31C9E0" transform="scale(0.362305 0.362305)" d="M135.577 498.405C146.528 497.204 158.53 498.105 169.589 498.088C178.703 498.073 188.386 497.261 197.424 498.088L196.423 498.219L186.061 498.429L186.09 506.539L135.886 506.489L135.577 498.405Z"/>
	<path fill="#FEFEFE" transform="scale(0.362305 0.362305)" d="M843.002 769.054C842.967 760.267 843.838 750.664 842.662 742L842.577 741.342C841.768 735.573 838.987 728.986 837.02 723.491L879.175 723.395C877.078 732.193 874.752 740.892 874.594 750L875.134 768.935L853.172 769.979C850.005 770.017 846.004 770.184 843.002 769.054Z"/>
	<path fill="#E0A17D" transform="scale(0.362305 0.362305)" d="M341.74 399.399C345.619 401.419 348.723 405.286 351.673 408.448C355.786 412.856 360.037 417.231 363.688 422.035C368.098 428.769 370.928 434.682 373.164 442.42L375.811 457.088L378.775 472.752C374.08 472.609 369.017 472.921 364.443 471.774L363.5 471.529C358.047 470.152 353.163 467.978 348.684 464.542C338.538 456.76 332.392 444.855 330.829 432.267C329.183 419.002 333.899 409.613 341.74 399.399Z"/>
	<path fill="#DC8559" transform="scale(0.362305 0.362305)" d="M375.811 457.088C375.264 457.994 375.664 457.636 374.5 458.026C369.618 456.802 364.405 454.881 360.753 451.271C356.828 447.393 354.963 442.68 354.984 437.205C355.01 430.116 359.034 426.617 363.688 422.035C368.098 428.769 370.928 434.682 373.164 442.42L375.811 457.088Z"/>
	<path fill="#FBC114" transform="scale(0.362305 0.362305)" d="M909.206 588.308C916.32 584.773 923.181 583.612 930.901 586.172C937.109 588.231 943.024 593.028 945.919 598.936C949.364 605.966 949.634 614.027 946.947 621.337C944.511 627.961 939.678 632.855 933.274 635.72C926.538 638.733 918.768 638.843 911.906 636.162C905.034 633.477 900.034 628.323 897.238 621.502C894.43 614.651 895.065 606.985 897.945 600.282C899.171 597.428 901.686 593.487 904.217 591.692L905.073 590.448L908.557 588.509L909.206 588.308Z"/>
	<path fill="#FEFEFE" transform="scale(0.362305 0.362305)" d="M909.206 588.308C910.787 589.49 911.709 591.137 912.767 592.768C911.067 593.089 907.285 594.226 905.866 593.271C905.139 592.782 904.746 592.369 904.217 591.692L905.073 590.448L908.557 588.509L909.206 588.308Z"/>
	<path fill="#FEFEFE" transform="scale(0.362305 0.362305)" d="M913.467 593.461C914.56 593.436 915.858 593.343 916.896 593.734C919.348 594.656 921.48 597.557 922.213 600C922.887 602.25 922.567 604.926 921.499 607C920.07 609.776 917.188 611.032 914.362 611.93C911.749 611.665 909.796 610.73 907.476 609.608C905.933 606.699 904.017 603.436 905.151 600.023C906.288 596.602 910.496 594.904 913.467 593.461Z"/>
	<path fill="#CDDACE" transform="scale(0.362305 0.362305)" d="M875.134 768.935C889.434 767.404 904.164 768.464 918.525 768.476C925.147 768.482 932.105 768.05 938.689 768.645C940.412 768.8 942.044 768.844 943.425 770.015C945.157 771.482 945.925 773.781 946.006 776C946.072 777.824 945.106 779.704 943.85 780.977C940.533 784.34 932.341 782.898 931.75 783.475C931.36 783.855 931.384 784.632 931.367 785.099L931.327 787.787C930.914 786.236 931.207 784.648 930.426 783.25L926.37 783.042C925.287 783.426 923.625 783.197 922.445 783.207L911.57 783.224L891.765 783.194C886.932 783.281 879.497 784.459 875.014 782.68L874.611 782.192C871.896 781.284 867.97 781.745 865.071 781.743C857.768 781.739 850.213 781.423 842.957 782.22C834.143 783.839 824.355 783.025 815.395 783.079C807.111 783.129 798.801 783.677 790.522 783.038L785.999 783.084C781.09 783.356 773.431 784.242 769.096 781.369C767.524 780.328 766.17 778.537 765.934 776.634C765.724 774.931 766.246 773.3 767.366 772.006C768.527 770.663 770.063 769.834 771.809 769.547C776.848 768.719 783.044 769.379 788.188 769.387L825.638 769.339C831.061 769.307 836.867 769.697 842.251 769.138L843.002 769.054C846.004 770.184 850.005 770.017 853.172 769.979L875.134 768.935Z"/>
	<path fill="#E0A17D" transform="scale(0.362305 0.362305)" d="M655.082 419.432C656.368 414.757 657.241 409.674 659.043 405.193C667.685 402.371 677.978 401.998 686.245 406.25C693.229 409.842 696.069 414.618 698.762 421.659C698.401 426.748 698.679 431.619 697.72 436.67C695.41 448.828 688.663 462.32 678.338 469.555C672.72 473.493 666.162 475.483 659.318 474.229L656.75 473.675L655.921 473.499C653.288 472.922 650.611 471.965 648.141 470.886L650.35 461.537L655.359 431.923C654.652 427.744 655.701 423.613 655.082 419.432Z"/>
	<path fill="#DC8559" transform="scale(0.362305 0.362305)" d="M655.359 431.923C658.637 428.392 663.43 426.078 668.288 425.782C671.391 425.593 674.513 427.166 676.768 429.203C680.79 432.837 682.498 438.409 682.373 443.74C682.362 444.204 682.305 444.366 682.207 444.771C669.308 447.781 660.242 452.832 650.35 461.537L655.359 431.923Z"/>
	<path fill="#FEFEFE" transform="scale(0.362305 0.362305)" d="M235.74 697.242L236.518 696.599C242.885 701.055 248.337 709.297 253.432 715.168C256.276 718.444 262.322 723.844 263.481 727.805L216.328 769.866L188.048 737.76C189.735 735.684 192.202 734.066 194.25 732.349L205.673 722.735C210.136 720.218 214.828 715.261 218.732 711.928C224.325 707.151 230.662 702.541 235.74 697.242Z"/>
	<path fill="#FBC114" transform="scale(0.362305 0.362305)" d="M834.073 468.696C829.78 470.297 825.313 470.87 820.75 470.444C812.283 469.653 804.376 465.139 799.041 458.565C793.528 451.773 790.669 443.51 791.682 434.75C792.595 426.847 797.142 418.167 803.439 413.25C811.07 407.292 820.771 405.342 830.25 406.49C833.73 406.911 836.991 408.104 840.032 409.826C847.347 413.965 853.253 421.519 855.476 429.627L855.687 430.417C856.587 433.626 856.703 436.677 856.504 440C855.981 448.723 850.708 457.384 844.226 463.024C842.486 464.539 840.577 465.723 838.588 466.873C837.011 467.398 835.55 467.931 834.073 468.696Z"/>
	<path fill="#FEF7C4" transform="scale(0.362305 0.362305)" d="M810.184 439.256C811.586 441.648 812.026 442.965 811.977 445.723L811.979 446.401L811.968 446.808C810.155 446.55 808.878 446.45 807.446 445.25C806.845 444.008 806.293 443.375 806.86 441.974C807.434 440.554 808.909 439.896 810.184 439.256Z"/>
	<path fill="#FBE050" transform="scale(0.362305 0.362305)" d="M810.184 439.256C811.819 438.501 812.263 437.891 814 438.531C815.28 439.911 816.271 440.963 816.918 442.75C816.496 444.604 816.134 445.148 814.75 446.452L811.968 446.808L811.979 446.401L811.977 445.723C812.026 442.965 811.586 441.648 810.184 439.256Z"/>
	<path fill="#FEFEFE" transform="scale(0.362305 0.362305)" d="M810.908 415.086C812.154 415.179 813.468 415.246 814.665 415.621C817.634 416.552 820.303 418.573 821.757 421.338C823.085 423.861 823.601 426.726 822.602 429.485C821.221 433.299 817.801 435.431 814.25 436.903C812.395 437.025 810.75 436.723 808.979 436.151C806.184 435.249 804.412 433.586 803.14 430.962C801.747 428.09 801.508 424.986 802.732 422C804.17 418.49 807.558 416.464 810.908 415.086Z"/>
	<path fill="#F2C29A" transform="scale(0.362305 0.362305)" d="M105.035 681.757C120.282 695.909 140.947 706.209 162.228 705.455C184.011 704.683 204.698 697.375 220.519 681.953C224.581 684.604 227.463 688.972 230.333 692.79C230.865 693.498 233.02 696.659 233.769 696.963C234.384 697.213 235.083 697.149 235.74 697.242C230.662 702.541 224.325 707.151 218.732 711.928C214.828 715.261 210.136 720.218 205.673 722.735C199.399 721.737 192.312 723.74 186.089 724.647C178.932 725.691 171.46 726.222 164.242 726.711C158.78 727.082 153.013 727.628 147.587 726.634C141.21 725.465 135.085 721.595 129.243 718.837L106.439 708.339C100.404 705.572 93.6832 703.281 87.9345 700.011C86.4579 699.171 84.6783 697.921 83.8056 696.425C83.1014 695.217 83.1984 693.251 83.6909 691.97C84.8845 688.867 88.6807 686.271 91.5949 685.021C95.8988 683.174 100.449 682.509 105.035 681.757Z"/>
	<path fill="#19D1B2" transform="scale(0.362305 0.362305)" d="M107.899 680.693C103.623 676.42 99.4067 671.922 95.9364 666.962C83.9818 649.873 80.8318 629.382 84.5106 609.02C96.3791 614.228 107.693 620.245 120.235 623.796C133.252 627.48 147.232 628.392 160.712 628.416C182.06 628.453 203.621 626.167 223.663 618.344C229.358 616.121 235.504 612.79 241.377 611.311L241.644 609.749C246.84 626.832 243.958 645.161 235.652 660.755C233.436 664.917 230.878 668.961 227.973 672.677C225.559 675.766 222.695 678.703 220.519 681.953C204.698 697.375 184.011 704.683 162.228 705.455C140.947 706.209 120.282 695.909 105.035 681.757L107.899 680.693Z"/>
	<path fill="#69E1EF" transform="scale(0.362305 0.362305)" d="M115.216 646.25C116.036 646.104 116.916 645.959 117.75 646.051C120.096 646.31 122.411 647.924 123.675 649.887C125.038 652.004 125.346 654.626 124.68 657.046C123.915 659.821 121.229 661.182 118.913 662.472C117.53 662.53 115.921 662.698 114.576 662.336C112.385 661.747 110.465 659.745 109.522 657.75C108.736 656.087 108.519 652.862 109.293 651.191C110.539 648.501 112.579 647.33 115.216 646.25Z"/>
	<path fill="#CDDACE" transform="scale(0.362305 0.362305)" d="M195.843 628.048C198.249 628.063 200.47 628.163 202.75 629.011C206.257 630.315 208.829 632.986 210.295 636.405C211.618 639.487 211.174 643.217 209.896 646.235C208.125 650.418 204.299 652.247 200.378 653.958C198.139 653.992 195.721 654.182 193.62 653.287C189.881 651.694 186.958 648.962 185.54 645.127C184.347 641.901 184.82 637.563 186.361 634.547C188.256 630.834 192.141 629.326 195.843 628.048Z"/>
	<path fill="#006183" transform="scale(0.362305 0.362305)" d="M241.644 609.749C246.84 626.832 243.958 645.161 235.652 660.755C233.436 664.917 230.878 668.961 227.973 672.677C225.559 675.766 222.695 678.703 220.519 681.953C204.698 697.375 184.011 704.683 162.228 705.455C140.947 706.209 120.282 695.909 105.035 681.757L107.899 680.693L108.624 681.361C124.827 695.164 152.122 701.528 172.75 698.469C194.256 695.279 214.387 683.465 227.299 665.948C238.427 650.852 244.136 629.933 241.377 611.311L241.644 609.749Z"/>
	<path fill="#69E1EF" transform="scale(0.362305 0.362305)" d="M135.886 506.489L186.09 506.539L186.115 552.277C205.51 557.628 222.072 567.674 232.279 585.565C236.569 593.084 239.454 601.4 241.644 609.749L241.377 611.311C235.504 612.79 229.358 616.121 223.663 618.344C203.621 626.167 182.06 628.453 160.712 628.416C147.232 628.392 133.252 627.48 120.235 623.796C107.693 620.245 96.3791 614.228 84.5106 609.02L87.9974 598.25C96.6509 575.574 114.461 561.196 136.104 551.785L135.886 506.489Z"/>
	<path fill="#CDDACE" transform="scale(0.362305 0.362305)" d="M120.491 581.25C121.454 581.048 122.516 581.104 123.5 581.072C125.758 582.143 127.111 583.027 128.313 585.279C129.334 587.192 129.572 589.482 128.852 591.549C127.929 594.198 125.64 595.289 123.25 596.368C122.055 596.473 120.747 596.617 119.574 596.303C117.38 595.717 115.284 593.532 114.394 591.486C113.587 589.628 114.032 587.664 114.783 585.873C115.701 583.681 118.367 582.045 120.491 581.25Z"/>
	<path fill="#CDDACE" transform="scale(0.362305 0.362305)" d="M134.765 607.984C136.298 608.135 138.17 608.218 139.5 609.044C141.147 610.066 143.089 612.289 143.449 614.25C143.842 616.393 143.484 618.652 142.28 620.478C140.863 622.626 138.645 623.498 136.25 624.065C134.971 624.064 133.701 623.961 132.461 623.622C130.598 623.112 128.718 621.785 127.878 620.01C126.883 617.908 127.182 615.351 128.038 613.25C129.215 610.363 132.031 608.989 134.765 607.984Z"/>
	<path fill="#CDDACE" transform="scale(0.362305 0.362305)" d="M170.701 577.581C174.857 577.477 178.344 577.329 182.25 579.036C187.047 581.131 190.735 585.178 192.659 590.012C194.407 594.406 194.382 599.664 192.359 603.942C189.537 609.911 184.294 613.049 178.326 615.198C176.059 615.762 172.264 615.766 170.015 615.177L169.5 615.03L168.967 614.893C164.371 613.638 160.333 610.247 158.064 606.112C155.969 602.296 154.474 596.876 155.798 592.544L155.979 592L156.808 589.632C159.618 582.866 164.162 580.144 170.701 577.581Z"/>
	<path fill="#026D73" transform="scale(0.362305 0.362305)" d="M646.175 956.059L646.75 957.421L793.75 958.102C793.969 957.26 793.984 957.709 793.522 956.771C796.618 958.347 799.539 959.015 802.986 959.242C811.24 959.785 820.011 959.008 828.335 959.005L887.928 959.006L907.931 959C911.905 958.997 916.787 959.478 920.557 958.17L924.073 956.713L924.029 957.819C929.433 957.857 956.25 956.735 959.239 959.49C961.091 961.197 961.959 963.766 961.861 966.25C961.775 968.421 960.896 970.39 959.239 971.798C957.468 973.304 955.387 974.251 953.067 974.489C943.284 975.493 932.712 974.654 922.835 974.619L865.892 974.584L669.94 974.6L238.82 974.493L109.311 974.547L71.1038 974.594C65.7715 974.605 59.7835 975.237 54.527 974.597C52.1878 974.312 50.021 973.098 48.5434 971.25C47.121 969.472 46.6169 967.023 46.9728 964.795C47.3606 962.368 48.7794 960.498 50.75 959.079C52.2478 958 54.2486 957.759 56.0441 957.632C64.0812 957.064 72.4921 957.544 80.5618 957.54L128.968 957.546L310.425 957.627L361.501 957.534C369.752 957.527 378.243 957.97 386.463 957.464C390.947 958.144 395.191 957.725 399.679 957.574L414.051 957.422L476.093 957.498C486.195 957.52 497.059 956.743 507.077 957.709L510.392 958.012L645.5 957.36L646.175 956.059Z"/>
	<path fill="#CDDACE" transform="scale(0.362305 0.362305)" d="M341.74 399.399C338.679 397.692 335.786 394.401 333.39 391.861C317.133 374.633 314.106 353.013 307.15 331.363C302.154 315.812 293.606 299.801 281.669 288.527C283.804 288.579 286.441 289.51 288.531 290.036C300.104 292.946 311.011 297.596 321.787 302.652C321.772 299.262 321.212 295.875 321.113 292.485C320.983 288.078 321.37 283.53 321.699 279.132C323.353 257.001 328.625 235.515 320.956 213.75C319.346 209.179 317.075 204.784 314.605 200.622C313.275 198.38 311.506 196.176 310.501 193.78C315.706 195.207 320.815 196.831 325.668 199.225C336.241 204.439 345.245 212.064 354.362 219.405C358.827 209.991 363.367 200.623 369.183 191.947C373.996 184.767 379.766 178.209 385.67 171.919C384.168 179.026 380.89 185.605 379.233 192.794C377.501 200.313 376.069 209.019 376.052 216.75C376.011 236.083 382.962 255.933 393.51 271.972C397.063 277.374 401.72 282.662 406.154 287.372L416.501 297.52C417.287 298.283 419.109 299.678 419.539 300.615C417.864 304.393 417.8 309.079 416.676 313.132C412.463 328.332 405.837 341.871 395.108 353.553C388.908 360.304 381.459 364.012 373.384 368.029C372.099 368.668 371.253 368.449 371.643 369.945L381.384 419.1C382.002 423.197 384.124 432.842 381.644 436.25C379.611 439.043 375.696 440.076 373.164 442.42C370.928 434.682 368.098 428.769 363.688 422.035C360.037 417.231 355.786 412.856 351.673 408.448C348.723 405.286 345.619 401.419 341.74 399.399Z"/>
	<path fill="#FEFEFE" transform="scale(0.362305 0.362305)" d="M842.957 782.22C850.213 781.423 857.768 781.739 865.071 781.743C867.97 781.745 871.896 781.284 874.611 782.192L875.014 782.68C879.497 784.459 886.932 783.281 891.765 783.194L911.57 783.224L922.445 783.207C923.625 783.197 925.287 783.426 926.37 783.042L930.426 783.25C931.207 784.648 930.914 786.236 931.327 787.787L931.141 886.809L931.335 923.466C931.401 929.987 931.956 936.922 931.293 943.393C930.85 947.72 929.46 951.299 926.448 954.505C925.693 955.308 924.964 956.058 924.073 956.713L920.557 958.17C916.787 959.478 911.905 958.997 907.931 959L887.928 959.006L828.335 959.005C820.011 959.008 811.24 959.785 802.986 959.242C799.539 959.015 796.618 958.347 793.522 956.771L792.243 955.703C789.1 952.657 787.234 949.872 786.515 945.46C785.552 939.546 786.038 932.967 786.054 926.972L786.104 896.21L785.999 783.084L790.522 783.038C798.801 783.677 807.111 783.129 815.395 783.079C824.355 783.025 834.143 783.839 842.957 782.22ZM790.522 783.038L790.495 933.254L807.333 903.594L825.617 868.566C828.231 863.876 831.137 857.394 835.407 854.019C836.311 853.769 837.647 852.393 838.425 851.78C840.161 850.438 841.687 849.305 842.937 847.464L842.957 782.22C834.143 783.839 824.355 783.025 815.395 783.079C807.111 783.129 798.801 783.677 790.522 783.038ZM875.014 782.68L874.998 803.245C874.995 806.531 875.299 810.085 874.948 813.332L875.035 830.994C875.192 836.037 875.605 840.494 877.346 845.281L926.476 936.884L926.37 783.042C925.287 783.426 923.625 783.197 922.445 783.207L911.57 783.224L891.765 783.194C886.932 783.281 879.497 784.459 875.014 782.68Z"/>
	<path fill="#DC8559" transform="scale(0.362305 0.362305)" d="M816.77 896.005L848.51 895.888C846.401 903.797 845.835 912.83 844.604 920.962L841.828 939.687C841.044 944.506 839.851 949.613 840.034 954.501L814.278 954.701C809.879 954.727 803.099 955.527 799 953.877C794.406 952.026 792.466 948.442 790.558 944.177L816.77 896.005Z"/>
	<path fill="#CC5919" transform="scale(0.362305 0.362305)" d="M848.51 895.888L900.756 895.991L914.726 922.018C918.255 928.481 923.031 935.232 925.346 942.208C925.803 943.584 925.865 945.082 925.457 946.478C924.62 949.342 922.459 951.8 919.77 953.048C915.806 954.89 911.003 954.486 906.734 954.493L888.883 954.508L840.034 954.501C839.851 949.613 841.044 944.506 841.828 939.687L844.604 920.962C845.835 912.83 846.401 903.797 848.51 895.888Z"/>
	<path fill="#69E1EF" transform="scale(0.362305 0.362305)" d="M842.957 782.22C850.213 781.423 857.768 781.739 865.071 781.743C867.97 781.745 871.896 781.284 874.611 782.192L875.014 782.68L874.998 803.245C874.995 806.531 875.299 810.085 874.948 813.332L875.035 830.994C875.192 836.037 875.605 840.494 877.346 845.281C876.871 847.636 877.005 849.124 877.77 851.396C879.461 856.417 882.562 861.232 885.021 865.913L900.756 895.991L848.51 895.888L816.77 896.005C820.829 885.904 827.007 875.962 832.087 866.309C833.761 863.128 836.229 859.502 837.038 856.01L835.407 854.019C836.311 853.769 837.647 852.393 838.425 851.78C840.161 850.438 841.687 849.305 842.937 847.464L842.957 782.22Z"/>
	<path fill="#19D1B2" transform="scale(0.362305 0.362305)" d="M838.425 851.78C840.161 850.438 841.687 849.305 842.937 847.464L845.307 849.529C845.208 851.017 845.317 853.019 844.635 854.323L853.061 853.723C855.806 853.565 858.503 853.391 861.25 853.623C861.927 854.812 861.874 854.952 861.75 856.33C859.764 858.052 856.058 857.538 853.592 857.463C848.081 857.494 842.159 858.35 837.038 856.01L835.407 854.019C836.311 853.769 837.647 852.393 838.425 851.78Z"/>
	<path fill="#CDDACE" transform="scale(0.362305 0.362305)" d="M838.425 851.78C840.161 850.438 841.687 849.305 842.937 847.464L845.307 849.529C845.208 851.017 845.317 853.019 844.635 854.323C842.175 853.964 840.288 853.501 838.425 851.78Z"/>
	<path fill="#A9F1F8" transform="scale(0.362305 0.362305)" d="M845.307 849.529C846.456 847.338 846.347 844.069 846.388 841.613C846.472 836.632 846.18 831.478 846.837 826.538L853.032 827.821L853.061 853.723L844.635 854.323C845.317 853.019 845.208 851.017 845.307 849.529Z"/>
	<path fill="#19D1B2" transform="scale(0.362305 0.362305)" d="M871.931 819.474C871.375 822.523 871.549 825.709 871.54 828.801C867.286 828.959 856.732 830.469 853.412 828L853.406 826.5C855.485 825.033 863.182 825.966 866.038 825.985C866.054 823.894 866.164 821.43 865.396 819.458C865.079 818.645 864.586 818.413 863.75 818.155C862.522 817.777 859.451 817.922 858.411 818.464L858.004 820C857.855 820.59 857.768 821.489 857.436 822C856.541 823.375 856.005 823.297 854.5 823.543L853.649 822.89L853.515 818.25C853.582 816.101 853.945 815.901 855.436 814.5C855.383 813.767 855.249 813.394 854.9 812.74C854.135 811.305 853.424 810.182 853.461 808.507C853.494 806.997 853.945 806.095 855.127 805.142C857.874 802.928 864.446 803.802 867.748 804.005C867.814 801.186 867.468 797.943 868.973 795.478C870.14 794.935 870.451 795.056 871.75 795.218C872.41 797.132 872.087 799.619 872.055 801.638L871.931 819.474Z"/>
	<path fill="#69E1EF" transform="scale(0.362305 0.362305)" d="M860.432 807.75L862.5 807.581C863.296 808.111 864.282 808.75 864.663 809.675C865.249 811.093 865.17 813.667 864.5 814.983L862.25 815.193C860.89 815.138 859.416 815.279 858.25 814.492C857.785 813.078 857.363 811.728 857.877 810.25C858.395 808.763 859.157 808.494 860.432 807.75Z"/>
	<path fill="#FEFEFE" transform="scale(0.362305 0.362305)" d="M842.957 782.22C850.213 781.423 857.768 781.739 865.071 781.743C867.97 781.745 871.896 781.284 874.611 782.192L875.014 782.68L874.998 803.245C874.995 806.531 875.299 810.085 874.948 813.332L875.035 830.994L872.047 829L872.074 823.466L871.931 819.474L872.055 801.638L872.496 801.599L872.913 784.091L847.48 784.128L846.837 826.538C846.18 831.478 846.472 836.632 846.388 841.613C846.347 844.069 846.456 847.338 845.307 849.529L842.937 847.464L842.957 782.22Z"/>
	<path fill="#A9F1F8" transform="scale(0.362305 0.362305)" d="M872.055 801.638L872.496 801.599C872.49 806.097 872.071 811.101 872.75 815.532L874.436 816.111L874.948 813.332L875.035 830.994L872.047 829L872.074 823.466L871.931 819.474L872.055 801.638Z"/>
	<path fill="#A9F1F8" transform="scale(0.362305 0.362305)" d="M837.038 856.01C842.159 858.35 848.081 857.494 853.592 857.463L850.104 883.147C849.558 887.085 848.227 891.97 848.51 895.888L816.77 896.005C820.829 885.904 827.007 875.962 832.087 866.309C833.761 863.128 836.229 859.502 837.038 856.01Z"/>
	<path fill="#393D6B" transform="scale(0.362305 0.362305)" d="M591.343 623.13L614.442 632.293C624.295 636.021 637.46 639.003 645.381 646.105C648.628 649.015 651.329 652.324 653.502 656.101C660.888 668.937 667.105 682.666 673.744 695.905L707.568 763.009L726.581 800.195C732.71 811.657 739.352 823.043 744.479 835C747.637 842.365 747.803 850.862 744.74 858.315C741.364 866.529 732.999 871.809 725.039 874.9L635.208 901.242L646.175 956.059L645.5 957.36L510.392 958.012L510.514 921.529L507 920.652L505 920.465C501.556 919.812 497.965 918.722 495.951 915.619C495.085 914.286 494.663 912.726 495.146 911.173C495.969 908.527 498.027 907.439 500.327 906.238C501.227 905.768 500.869 906.125 501.364 905.25C500.427 905.09 499.552 904.878 498.682 904.491C496.344 903.45 494.457 901.489 493.596 899.07C493.064 897.577 493.081 895.601 493.874 894.2C495.506 891.315 498.243 890.616 501.211 889.902L500.699 889.082L499.557 888.946L500.491 888.367C501.182 887.635 499.925 878.852 500.058 876.938L499.855 874.075L500.15 873.418C498.446 872.27 496.848 870.939 496.219 868.906C495.541 866.718 496.053 865.054 497.14 863.135C500.381 860.577 503.581 860.796 507.546 860.498L510.75 860.278C511.746 857.734 511.044 852.254 511.037 849.412L510.959 822.385L510.939 717.776L510.984 690.143C510.988 686.034 511.667 680.368 510.526 676.486L511.601 675.411L512.494 675.787C514.54 675.189 516.471 674.389 518.32 673.319C522.469 670.917 526.456 667.919 530.453 665.25L555.098 648.629L576 634.453C581.234 630.9 586.667 627.388 591.343 623.13ZM663.904 826.108C663.521 825.171 662.922 824.261 662.43 823.372L624.963 766.764L629.035 837.644L663.904 826.108Z"/>
	<path fill="#002B53" transform="scale(0.362305 0.362305)" d="M662.43 823.372L671.666 816.812C674.057 815.139 676.457 813.208 679.25 812.288C680.444 812.899 680.554 813.313 681.25 814.486C681.191 814.838 681.272 815.246 681.073 815.542C680.074 817.023 676.846 818.947 675.356 820.121L666.25 827.998C665.099 827.666 664.66 826.983 663.904 826.108C663.521 825.171 662.922 824.261 662.43 823.372Z"/>
	<path fill="#FEFEFE" transform="scale(0.362305 0.362305)" d="M529.476 931.75C530.661 931.351 531.761 931.163 533 931.439C534.863 931.853 536.435 932.927 537.348 934.639C538.221 936.273 538.117 937.836 537.516 939.535C536.817 941.509 535.775 942.422 533.913 943.25C532.857 943.464 531.57 943.6 530.5 943.49C529.144 943.35 527.991 942.271 527.187 941.253C526.014 939.768 525.112 937.787 525.631 935.859C526.162 933.893 527.86 932.772 529.476 931.75Z"/>
	<path fill="#FEFEFE" transform="scale(0.362305 0.362305)" d="M529.869 775.25C530.821 775.276 531.718 775.276 532.615 775.655C534.49 776.446 535.495 778.03 536.397 779.75C536.563 781.759 536.634 783.504 535.467 785.25C534.275 787.034 532.748 787.532 530.75 788.007C529.964 788.039 529.246 788.071 528.497 787.773C526.694 787.055 525.259 785.547 524.537 783.759C523.815 781.971 523.857 780.498 524.75 778.774C525.866 776.621 527.636 775.83 529.869 775.25Z"/>
	<path fill="#FEFEFE" transform="scale(0.362305 0.362305)" d="M528.505 720.75C529.164 720.602 529.816 720.426 530.5 720.507C532.544 720.748 534.488 722.169 535.57 723.879C536.398 725.185 536.699 726.838 536.314 728.339C535.747 730.553 534.101 732.236 532.25 733.446L529.255 733.461C527.614 733.302 526.162 732.053 525.277 730.738C524.262 729.232 523.819 727.518 524.191 725.721C524.722 723.149 526.374 722.027 528.505 720.75Z"/>
	<path fill="#FEFEFE" transform="scale(0.362305 0.362305)" d="M574.082 855.667C579.484 853.296 585.386 852.25 591.064 850.697L615.711 843.708L631.131 914.198L588.028 924.86L585.373 910.686L574.082 855.667Z"/>
	<path fill="#F2C29A" transform="scale(0.362305 0.362305)" d="M507.546 860.498C510.745 861.894 537.928 860.962 543.438 860.954C535.011 853.158 525.448 847.998 522.154 836.122C523.083 834.223 524.013 832.055 525.66 830.663C526.978 829.549 529.41 828.651 531.125 829.149C533.738 829.909 536.044 832.265 538.046 834.007C542.035 837.48 545.979 841.166 550.248 844.289C554.587 847.463 559.183 849.883 564.008 852.216C567.143 853.732 570.022 855.341 573.55 855.63L574.082 855.667L585.373 910.686C564.844 917.05 543.783 921.235 522.281 921.934C518.362 922.062 514.436 921.566 510.514 921.529L507 920.652L505 920.465C501.556 919.812 497.965 918.722 495.951 915.619C495.085 914.286 494.663 912.726 495.146 911.173C495.969 908.527 498.027 907.439 500.327 906.238C501.227 905.768 500.869 906.125 501.364 905.25C500.427 905.09 499.552 904.878 498.682 904.491C496.344 903.45 494.457 901.489 493.596 899.07C493.064 897.577 493.081 895.601 493.874 894.2C495.506 891.315 498.243 890.616 501.211 889.902L500.699 889.082L499.557 888.946L500.491 888.367C501.182 887.635 499.925 878.852 500.058 876.938L499.855 874.075L500.15 873.418C498.446 872.27 496.848 870.939 496.219 868.906C495.541 866.718 496.053 865.054 497.14 863.135C500.381 860.577 503.581 860.796 507.546 860.498Z"/>
	<path fill="#E0A17D" transform="scale(0.362305 0.362305)" d="M500.699 889.082C507.059 889.029 515.728 887.909 521.774 889.605C518.019 890.797 514.504 891.098 510.637 891.657C507.971 892.042 505.377 892.641 502.68 892.317C502.194 891.532 501.608 890.731 501.211 889.902L500.699 889.082Z"/>
	<path fill="#E0A17D" transform="scale(0.362305 0.362305)" d="M500.15 873.418C505.208 872.732 510.301 872.479 515.402 872.509C517.4 872.52 519.696 872.342 521.641 872.768C515.221 874.965 508.619 876.162 501.851 876.59C500.763 876.659 501.202 876.602 500.058 876.938L499.855 874.075L500.15 873.418Z"/>
	<path fill="#E0A17D" transform="scale(0.362305 0.362305)" d="M503.311 905.408L527.25 906.198L527 906.857L524.357 907.768C517.715 909.514 511.092 910.788 504.23 911.163L503.311 905.408Z"/>
	<path fill="#F2C29A" transform="scale(0.362305 0.362305)" d="M519.454 322.814L572.921 293.913L591.956 309.417L592.863 309.81C600.8 318.027 609.219 326.436 615.886 335.719C634.494 361.628 644.026 396.489 643.562 428.306L641.031 455.183C644.033 449.214 646.946 443.197 649.143 436.876C651.179 431.02 652.578 425.147 655.082 419.432C655.701 423.613 654.652 427.744 655.359 431.923L650.35 461.537L648.141 470.886C643.595 484.667 638.929 498.07 631.778 510.778C619.535 532.538 599.813 549.231 577.667 560.376C567.617 565.434 556.954 569.569 546.001 572.208C529.753 576.598 512.548 579.171 495.779 576.596C489.79 575.676 483.522 573.262 477.447 573.47L477.194 573.485C475.384 571.838 473.039 571.424 470.756 570.731L461.172 567.518C450.741 563.675 440.63 558.527 431.377 552.376C417.182 542.939 403.538 530.18 394.59 515.556C386.677 502.622 381.773 487.547 378.775 472.752L375.811 457.088L373.164 442.42C375.696 440.076 379.611 439.043 381.644 436.25C384.124 432.842 382.002 423.197 381.384 419.1L371.643 369.945C371.253 368.449 372.099 368.668 373.384 368.029C381.459 364.012 388.908 360.304 395.108 353.553C405.837 341.871 412.463 328.332 416.676 313.132C417.8 309.079 417.864 304.393 419.539 300.615C433.65 313.043 451.04 323.477 469.422 328.052C474.602 329.342 480.087 329.778 485.398 330.172C488.821 330.99 491.227 330.759 494.674 330.126C503.035 328.959 510.111 326.516 518.006 323.668L519.454 322.814Z"/>
	<path fill="#002B53" transform="scale(0.362305 0.362305)" d="M537.65 494.75L538.339 494.781C530.207 503.827 520.287 508.929 508.563 511.686C496.474 514.529 483.414 510.59 472.822 504.782L471.25 503.842C471.736 503.237 479.199 506.49 480.705 507.007C487.864 509.465 496.724 510.496 504.25 509.612C516.534 508.168 528.073 502.412 537.65 494.75Z"/>
	<path fill="#020202" transform="scale(0.362305 0.362305)" d="M539.624 417.033C539.549 412.358 544.134 406.239 547.322 402.977C553.714 396.436 563.068 392.545 572.25 392.521C582.117 392.495 591.705 396.06 598.625 403.196C604.005 408.746 607.644 416.76 607.42 424.611C607.257 430.297 606.114 437.05 602.332 441.485C604.575 433.395 605.296 426.13 602.485 418.109C599.437 409.414 593.527 403.15 585.266 399.187C577.56 395.49 568.496 395.163 560.437 398.051C551.29 401.328 543.824 408.332 539.624 417.033Z"/>
	<path fill="#020202" transform="scale(0.362305 0.362305)" d="M404.767 412.001C404.891 406.685 408.491 401.521 412.219 397.935C418.163 392.217 426.917 388.52 435.25 388.762C444.949 389.043 454.473 392.174 461.19 399.501C466.255 405.026 470.766 412.997 470.35 420.772C470.312 421.471 470.26 421.568 470.102 422.155C467.791 414.258 464.205 407.053 457.645 401.805C450.297 395.926 440.043 392.993 430.719 394.184C419.195 395.657 411.628 403.322 404.767 412.001Z"/>
	<path fill="#DC8559" transform="scale(0.362305 0.362305)" d="M494.013 454.118C497.306 453.863 500.532 453.966 503.64 455.158C507.637 456.691 510.133 459.647 511.726 463.549C513.004 466.68 513.191 469.824 511.775 472.937C509.628 477.657 505.434 480.255 500.766 481.971C496.893 482.127 492.314 481.735 488.931 479.708C485.681 477.761 482.597 474.692 481.742 470.884C480.945 467.336 481.719 463.679 483.654 460.64C486.217 456.613 489.471 455.079 494.013 454.118Z"/>
	<path fill="#FEFEFE" transform="scale(0.362305 0.362305)" d="M547.778 354.201C555.977 354.025 564.096 353.865 572.246 354.979C586.108 356.873 604.127 361.88 612.758 373.819C614.533 376.274 616.284 379.846 615.706 382.97C615.411 384.562 614.761 385.325 613.5 386.269C610.965 385.726 608.873 384.638 606.59 383.469C596.316 378.343 585.718 373.888 574.561 371.066L557.641 367.453C551.372 366.403 543.558 367.229 537.902 363.914C536.793 363.264 535.432 362.035 535.168 360.736C534.939 359.609 535.065 358.339 535.823 357.404C538.128 354.559 544.394 354.419 547.778 354.201Z"/>
	<path fill="#FEFEFE" transform="scale(0.362305 0.362305)" d="M539.624 417.033C543.824 408.332 551.29 401.328 560.437 398.051C568.496 395.163 577.56 395.49 585.266 399.187C593.527 403.15 599.437 409.414 602.485 418.109C605.296 426.13 604.575 433.395 602.332 441.485C601.804 441.975 602.001 441.713 601.642 442.413C598.556 448.439 593.824 452.893 587.855 456.056C579.722 460.366 568.727 461.202 559.964 458.304C551.267 455.428 543.504 449.042 539.572 440.716C537.765 436.891 536.139 431.485 536.585 427.258C536.952 423.789 538.347 420.828 539.445 417.595L539.624 417.033Z"/>
	<path fill="#18955F" transform="scale(0.362305 0.362305)" d="M541.884 427.702C542.738 422.313 544.378 417.701 548.969 414.353C551.288 412.661 553.385 412.319 556.167 412.768L555.742 413.018C554.66 413.646 553.86 414.092 552.59 414.25L552.75 414.916L555.358 415.886C552.91 416.25 550.481 416.356 548.592 418.115L548.185 418.487C546.959 419.677 546.475 421.134 546.48 422.822C546.483 424.009 546.493 424.863 547.02 425.935C545.537 426.381 545.172 426.889 544.25 428.053L541.884 427.702Z"/>
	<path fill="#115A26" transform="scale(0.362305 0.362305)" d="M556.167 412.768C561.427 415.528 566.472 418.742 568.383 424.75C569.776 429.129 569.218 434.264 567.037 438.299C565.19 441.715 562.254 444 558.5 445.015C555.308 445.878 551.409 444.964 548.663 443.245C545.279 441.127 543.13 437.961 542.212 434.092C541.735 432.081 541.868 429.763 541.884 427.702L544.25 428.053C545.172 426.889 545.537 426.381 547.02 425.935C546.493 424.863 546.483 424.009 546.48 422.822C546.475 421.134 546.959 419.677 548.185 418.487L548.592 418.115C550.481 416.356 552.91 416.25 555.358 415.886L552.75 414.916L552.59 414.25C553.86 414.092 554.66 413.646 555.742 413.018L556.167 412.768Z"/>
	<path fill="#19D1B2" transform="scale(0.362305 0.362305)" d="M555.358 415.886C557.162 416.953 559.562 418.561 560.374 420.596C561.071 422.342 560.575 424.596 559.585 426.112C558.679 427.499 556.99 429.229 555.25 429.425C552.708 429.712 550.83 429.54 548.888 427.761L547.02 425.935C546.493 424.863 546.483 424.009 546.48 422.822C546.475 421.134 546.959 419.677 548.185 418.487L548.592 418.115C550.481 416.356 552.91 416.25 555.358 415.886Z"/>
	<path fill="#FEFEFE" transform="scale(0.362305 0.362305)" d="M404.767 412.001C411.628 403.322 419.195 395.657 430.719 394.184C440.043 392.993 450.297 395.926 457.645 401.805C464.205 407.053 467.791 414.258 470.102 422.155C469.844 430.207 469.008 438.446 464.286 445.235C458.761 453.178 450.228 458.101 440.77 459.672C431.881 461.149 422.299 458.024 415.195 452.656C408.277 447.428 402.681 439.642 401.457 430.929L401.368 430.25C400.418 423.438 402.946 418.365 404.767 412.001Z"/>
	<path fill="#115A26" transform="scale(0.362305 0.362305)" d="M416.237 412.526C417.614 412.481 419.34 412.277 420.673 412.639C424.14 413.58 427.642 416.864 429.242 419.993C431.302 424.023 432.194 428.919 430.81 433.302L430.575 434L430.352 434.69C428.686 439.554 424.932 442.168 420.521 444.271L420.215 444.29C418.453 444.463 417.098 444.49 415.362 444.006C411.746 442.999 409.236 441.308 407.398 437.966C405.022 433.645 405.083 428.891 406.39 424.261C408.021 418.484 411.151 415.305 416.237 412.526Z"/>
	<path fill="#19D1B2" transform="scale(0.362305 0.362305)" d="M414.319 415.75C415.388 415.553 416.246 415.421 417.324 415.64C419.698 416.125 422.469 417.137 423.743 419.341C424.519 420.683 424.681 422 424.242 423.485C423.537 425.873 421.845 427.069 419.782 428.25C418.282 428.639 416.196 428.864 414.672 428.548C413.09 428.219 411.426 426.507 410.675 425.15C409.848 423.657 409.55 421.312 410.197 419.695C410.937 417.846 412.667 416.679 414.319 415.75Z"/>
	<path fill="#E0A17D" transform="scale(0.362305 0.362305)" d="M519.454 322.814L572.921 293.913L591.956 309.417C583.326 315.333 573.003 320.063 563.75 325.003C540.676 337.323 518.562 351.109 492.021 354.23C483.798 355.196 475.159 353.81 466.997 352.793C467.918 355.092 469.103 358.051 468.005 360.473C467.119 362.428 465.072 363.754 463.069 364.276C457.941 365.61 452.051 365.716 446.777 366.08C436.643 366.778 426.515 367.864 417.019 371.713C416.521 374.733 409.614 380.512 407.315 382.923C404.194 386.195 401.252 389.489 398.71 393.25C395.52 397.971 392.763 403.018 389.25 407.517C387.666 409.546 385.907 411.371 384.102 413.202C383.567 413.745 382.432 414.614 382.068 415.25C381.513 416.222 381.49 417.978 381.384 419.1L371.643 369.945C371.253 368.449 372.099 368.668 373.384 368.029C381.459 364.012 388.908 360.304 395.108 353.553C405.837 341.871 412.463 328.332 416.676 313.132C417.8 309.079 417.864 304.393 419.539 300.615C433.65 313.043 451.04 323.477 469.422 328.052C474.602 329.342 480.087 329.778 485.398 330.172C488.821 330.99 491.227 330.759 494.674 330.126C503.035 328.959 510.111 326.516 518.006 323.668L519.454 322.814Z"/>
	<path fill="#CDDACE" transform="scale(0.362305 0.362305)" d="M417.019 371.713C409.499 373.72 401.71 377.027 395.132 381.197C391.08 383.766 387.252 386.775 383 389.008L382.091 388.5C381.926 386.627 381.956 384.814 382.522 383C386.227 371.131 398.714 363.033 409.386 358.016C421.935 352.117 435.936 350.304 449.66 350.488C455.444 350.565 461.512 350.838 466.997 352.793C467.918 355.092 469.103 358.051 468.005 360.473C467.119 362.428 465.072 363.754 463.069 364.276C457.941 365.61 452.051 365.716 446.777 366.08C436.643 366.778 426.515 367.864 417.019 371.713Z"/>
	<path fill="#393D6B" transform="scale(0.362305 0.362305)" d="M477.447 573.47C483.522 573.262 489.79 575.676 495.779 576.596C512.548 579.171 529.753 576.598 546.001 572.208L545.955 575.137L597.656 580.126L575.843 617.16L591.343 623.13C586.667 627.388 581.234 630.9 576 634.453L555.098 648.629L530.453 665.25C526.456 667.919 522.469 670.917 518.32 673.319C516.471 674.389 514.54 675.189 512.494 675.787L511.601 675.411L510.526 676.486C511.667 680.368 510.988 686.034 510.984 690.143L510.939 717.776L510.959 822.385L511.037 849.412C511.044 852.254 511.746 857.734 510.75 860.278L507.546 860.498C503.581 860.796 500.381 860.577 497.14 863.135C496.053 865.054 495.541 866.718 496.219 868.906C496.848 870.939 498.446 872.27 500.15 873.418L499.855 874.075L500.058 876.938C499.925 878.852 501.182 887.635 500.491 888.367L499.557 888.946L500.699 889.082L501.211 889.902C498.243 890.616 495.506 891.315 493.874 894.2C493.081 895.601 493.064 897.577 493.596 899.07C494.457 901.489 496.344 903.45 498.682 904.491C499.552 904.878 500.427 905.09 501.364 905.25C500.869 906.125 501.227 905.768 500.327 906.238C498.027 907.439 495.969 908.527 495.146 911.173C494.663 912.726 495.085 914.286 495.951 915.619C497.965 918.722 501.556 919.812 505 920.465L507 920.652L510.514 921.529L510.392 958.012L507.077 957.709C497.059 956.743 486.195 957.52 476.093 957.498L414.051 957.422L399.679 957.574C395.191 957.725 390.947 958.144 386.463 957.464L403.762 762.184L386.123 792.449L362.419 832.479L352.54 849.548C349.524 854.898 346.53 860.572 342.1 864.919C336.335 870.575 328.758 873.662 320.668 873.431C315.339 873.279 309.681 871.203 305.5 867.952C301.774 865.055 298.646 861.283 295.523 857.764L281.338 841.75L216.328 769.866L263.481 727.805C264.558 731.14 267.608 733.861 269.941 736.392L280.75 748.205L310.476 781.808L329.739 743.246L356.928 688.705C362.254 677.919 366.493 666.594 372.837 656.333C375.579 651.898 378.703 648.002 382.852 644.794C390.733 638.698 401.056 635.732 410.267 632.244L435.303 622.435L447.131 617.732L425.82 580.059C433.69 580.046 441.772 578.797 449.609 578.076C458.615 577.247 467.906 577.034 476.73 575.013L477.194 573.485L477.447 573.47Z"/>
	<path fill="#FED6A5" transform="scale(0.362305 0.362305)" d="M499.557 888.946L499.036 888.797C496.033 887.894 494.114 886.798 492.584 884C492.372 882.168 492.226 880.556 493.09 878.862C494.556 875.986 497.023 875.104 499.855 874.075L500.058 876.938C499.925 878.852 501.182 887.635 500.491 888.367L499.557 888.946Z"/>
	<path fill="#002B53" transform="scale(0.362305 0.362305)" d="M507 920.652L510.514 921.529L510.392 958.012L507.077 957.709C507.78 945.725 508.832 932.539 507 920.652Z"/>
	<path fill="#002B53" transform="scale(0.362305 0.362305)" d="M477.194 573.485L477.447 573.47C477.555 577.081 479.19 585.53 477.481 588.421L467.697 591.964L508.39 674.364C509.092 675.283 509.488 675.912 510.526 676.486C511.667 680.368 510.988 686.034 510.984 690.143L510.939 717.776L510.959 822.385L511.037 849.412C511.044 852.254 511.746 857.734 510.75 860.278L507.546 860.498C506.828 854.45 507.391 848.356 507.436 842.278L507.51 811.758L507.891 702.426L507.927 683.226C507.903 681.344 507.29 678.944 507.72 677.153L507.9 676.5L507.051 675.483C504.638 674.563 502.239 672.281 500.134 670.762L483.875 659.02L457.983 640.3L440.034 627.316C438.167 625.82 436.716 624.384 435.303 622.435L447.131 617.732L425.82 580.059C433.69 580.046 441.772 578.797 449.609 578.076C458.615 577.247 467.906 577.034 476.73 575.013L477.194 573.485Z"/>
	<path fill="#CDDACE" transform="scale(0.362305 0.362305)" d="M477.447 573.47C483.522 573.262 489.79 575.676 495.779 576.596C512.548 579.171 529.753 576.598 546.001 572.208L545.955 575.137L597.656 580.126L575.843 617.16L591.343 623.13C586.667 627.388 581.234 630.9 576 634.453L555.098 648.629L530.453 665.25C526.456 667.919 522.469 670.917 518.32 673.319C516.471 674.389 514.54 675.189 512.494 675.787L511.601 675.411L510.526 676.486C509.488 675.912 509.092 675.283 508.39 674.364L467.697 591.964L477.481 588.421C479.19 585.53 477.555 577.081 477.447 573.47Z"/>
	<path fill="#DC8559" transform="scale(0.362305 0.362305)" d="M477.447 573.47C483.522 573.262 489.79 575.676 495.779 576.596C512.548 579.171 529.753 576.598 546.001 572.208L545.955 575.137C545.425 578.803 544.548 585.18 546.144 588.506C545.079 589.991 544.074 591.142 542.49 592.093C537.925 594.834 532.684 595.863 527.5 596.666C514.552 598.672 500.188 597.959 487.48 594.796C483.036 593.689 479.877 592.426 477.481 588.421C479.19 585.53 477.555 577.081 477.447 573.47Z"/>
	<path fill="#002B53" transform="scale(0.362305 0.362305)" d="M545.955 575.137L597.656 580.126L575.843 617.16L591.343 623.13C586.667 627.388 581.234 630.9 576 634.453L555.098 648.629L530.453 665.25C526.456 667.919 522.469 670.917 518.32 673.319C516.471 674.389 514.54 675.189 512.494 675.787L511.601 675.411L552.998 591.747L546.144 588.506C544.548 585.18 545.425 578.803 545.955 575.137Z"/>
	<path fill="#FEFEFE" transform="scale(0.362305 0.362305)" d="M385.67 171.919C394.602 160.932 405.931 151.681 417.228 143.204L435.116 129.854C440.117 126.038 444.994 122.371 448.65 117.173C453.962 109.619 456.326 98.4151 455.374 89.25C455.184 87.4203 454.51 85.5586 454.537 83.7329C457.102 88.0949 459.884 92.4228 462.054 96.9987C466.803 107.014 469.603 117.21 471.86 128.009C479.497 122.742 487.302 117.919 495.824 114.191C518.447 104.295 543.023 101.527 567.453 100.356C571.106 100.181 574.844 99.9397 578.5 100.052C582.351 100.171 585.894 100.571 589.75 100.178C605.851 98.5357 621.82 94.791 632.661 81.7118C641.236 71.3669 645.666 58.2622 646.078 44.965C651.333 56.8659 655.376 68.3489 657.231 81.2778C658.309 88.7947 658.212 97.5041 656.75 104.961C654.087 118.545 647.916 131.058 636.055 138.973C631.216 142.201 626.12 142.912 620.457 143.362L644.489 151.629C662.051 157.804 681.121 165.582 699.988 165.589C706.023 165.592 711.216 165.175 716.793 162.725C733.348 155.45 742.116 141.606 749.864 126.045C749.49 134.466 749.962 142.982 749.376 151.377C747.172 182.99 736.718 215.178 712.739 236.923C710.149 239.272 707.354 241.64 704.418 243.538C711.65 243.444 718.807 243.208 725.916 241.705C742.491 238.2 758.114 228.962 769.779 216.75L780.899 203.104L779.212 237.076C776.602 265.839 768.887 293.988 751.836 317.694C745.729 326.185 738.513 333.673 730.744 340.642C720.962 349.417 711.554 358.338 703.214 368.526C718.606 359.623 738.686 354.423 756.25 359.212C758.53 359.833 760.692 360.804 762.842 361.771C759.658 361.674 756.488 361.117 753.302 361.238C745.229 361.544 738.778 366.233 733.092 371.601C724.723 379.504 719.679 389.134 713.682 398.796L698.762 421.659C696.069 414.618 693.229 409.842 686.245 406.25C677.978 401.998 667.685 402.371 659.043 405.193C657.241 409.674 656.368 414.757 655.082 419.432C652.578 425.147 651.179 431.02 649.143 436.876C646.946 443.197 644.033 449.214 641.031 455.183L643.562 428.306C644.026 396.489 634.494 361.628 615.886 335.719C609.219 326.436 600.8 318.027 592.863 309.81L591.956 309.417L572.921 293.913L519.454 322.814L518.006 323.668C510.111 326.516 503.035 328.959 494.674 330.126C491.227 330.759 488.821 330.99 485.398 330.172C480.087 329.778 474.602 329.342 469.422 328.052C451.04 323.477 433.65 313.043 419.539 300.615C419.109 299.678 417.287 298.283 416.501 297.52L406.154 287.372C401.72 282.662 397.063 277.374 393.51 271.972C382.962 255.933 376.011 236.083 376.052 216.75C376.069 209.019 377.501 200.313 379.233 192.794C380.89 185.605 384.168 179.026 385.67 171.919Z"/>
	<path fill="#CDDACE" transform="scale(0.362305 0.362305)" d="M485.398 330.172L485.573 329.443L475.071 321.533C468.869 316.604 463.76 310.322 459.104 303.973C443.294 282.411 433.573 258.04 430.782 231.401C428.832 212.794 429.474 190.08 437.008 172.75L437.376 172.589C435.748 180.787 432.943 188.408 432.223 196.863C429.418 229.85 443.596 265.875 461.636 292.893C468.822 303.654 477.188 315.574 486.799 324.237C489.292 326.484 492.057 328.068 494.674 330.126C491.227 330.759 488.821 330.99 485.398 330.172Z"/>
	<path fill="#CDDACE" transform="scale(0.362305 0.362305)" d="M518.006 323.668C519.194 305.91 518.436 287.891 521.614 270.307C524.895 252.145 531.67 234.384 544.249 220.551C549.429 214.856 555.281 210.44 561.598 206.1C577.902 194.898 599.235 189.565 618.918 191.088C623.468 191.44 627.675 192.597 632.128 193.376C633.205 193.564 634.136 193.802 635.168 194.175C633.835 194.493 631.385 193.948 629.858 193.939C624.563 193.908 619.269 193.93 614.015 194.678C587.601 198.441 560.485 212.446 544.324 234.005C528.423 255.216 524.252 281.499 520.913 307.079L519.629 317.5C519.424 319.043 518.935 320.687 519.261 322.23L519.454 322.814L518.006 323.668Z"/>
	<path fill="#CDDACE" transform="scale(0.362305 0.362305)" d="M572.921 293.913C584.167 288.553 595.474 283.635 607.645 280.747C622.828 277.145 640.311 277.929 655.035 283.178C662.921 285.989 670.803 289.848 677.106 295.397C665.79 291.458 656.124 288.441 644.039 288.042C640.283 287.917 635.815 287.904 632.19 289.013L631.762 289.244C647.262 292.093 664.802 296.943 675.496 309.265C667.542 304.528 659.651 301.66 650.48 300.318C635.602 298.142 621.609 300.769 607.399 305.055C602.572 306.51 597.516 307.877 592.863 309.81L591.956 309.417L572.921 293.913Z"/>
</svg>
