<svg width="140" height="140" viewBox="0 0 140 140" fill="none" xmlns="http://www.w3.org/2000/svg">
<path d="M28.7656 55.4679L28.8204 55.4777L31.2997 57.1654C31.7003 57.4291 32.1104 57.7559 32.5382 57.9672L31.9164 58.4851L28.1282 55.937V55.8833C28.3579 55.7898 28.6073 55.6556 28.7656 55.4679Z" fill="#E47A73"/>
<path d="M20.5729 50.2415L26.868 54.1713L28.7658 55.468C28.6075 55.6557 28.3581 55.79 28.1284 55.8834L26.1959 54.5608C25.4084 54.1526 24.6512 53.5534 23.914 53.0594L20.291 50.676L20.5729 50.2415Z" fill="#E75352"/>
<path d="M88.9878 56.9952C91.9385 55.2662 95.6006 54.9006 98.9663 55.4352L98.2966 56.1666C96.6391 55.9668 95.065 55.9509 93.406 56.1714L91.1995 56.5389C90.5991 56.6657 89.5681 57.0839 88.9878 56.9952Z" fill="#FBFBFA"/>
<path d="M59.5587 48.7833L59.5287 49.026C57.0143 49.8958 54.5601 51.0649 52.295 52.4311L48.6453 54.7246C48.4899 54.66 48.3594 54.6163 48.2324 54.5051C48.5959 54.0734 49.1856 53.6985 49.645 53.3609C52.474 51.2814 56.0723 49.54 59.5587 48.7833Z" fill="#FBFBFA"/>
<path d="M54.8198 30.575C54.9652 30.2425 55.1621 29.6858 55.4408 29.4456L60.8702 33.2264L60.6369 34.2109L54.8198 30.575Z" fill="#167EA1"/>
<path d="M80.1162 48.6896L80.2451 48.5566C83.7754 49.4074 87.2587 50.993 90.1387 53.1362C90.7242 53.5719 91.4565 54.1119 91.9027 54.6845C91.7857 54.8237 91.6099 54.8469 91.4378 54.8937C91.0333 54.51 90.5007 54.193 90.0388 53.8713C87.547 52.1371 84.8935 50.7744 82.0754 49.6018C81.5338 49.3764 80.4574 49.1091 80.1162 48.6896Z" fill="#FBFBFA"/>
<path d="M84.7045 28.9847L85.2215 30.0335L79.4356 33.98L79.2307 33.1663C79.6181 32.4929 80.3757 31.9816 80.9947 31.5165L84.7045 28.9847Z" fill="#095161"/>
<path d="M81.8594 78.7086C85.0947 77.4834 88.5199 76.2051 92.0368 76.0953C92.559 76.0795 93.1169 76.0645 93.6347 76.1376C95.1916 76.3586 96.3492 77.2137 97.46 78.2258L97.3683 78.2194C97.0324 78.157 96.6293 77.7918 96.3336 77.6147C95.9537 77.3872 95.5313 77.1893 95.1044 77.058C94.2232 76.7868 93.3158 76.8342 92.4033 76.8765C90.5283 76.9626 88.6644 77.2431 86.8304 77.6218C86.3216 77.7266 81.9689 78.8176 81.919 78.7947C81.8869 78.7796 81.8795 78.7373 81.8594 78.7086Z" fill="#FBFBFA"/>
<path d="M28.6377 67.6942L28.884 66.0905C29.7413 62.5337 32.2916 59.3578 35.4801 57.4249L35.9736 58.3713C34.3008 59.4811 32.6662 60.7228 31.437 62.2963C30.5258 63.4626 29.8509 64.8096 29.3158 66.17C29.066 66.8052 28.9016 67.4645 28.6949 68.1128L28.6377 67.6942Z" fill="#FBFBFA"/>
<path d="M40.227 56.6992L39.74 55.698C40.6829 55.4584 41.6236 55.2298 42.596 55.1331C45.6524 54.8293 48.6455 55.4777 51.3809 56.7865L51.2973 56.7914C50.4572 56.8596 49.4031 56.498 48.5462 56.374C45.8198 55.9792 42.9009 56.0358 40.227 56.6992Z" fill="#FBFBFA"/>
<path d="M64.9216 126.758C62.9258 125.274 61.2337 123.103 59.8465 121.095C59.0505 119.943 58.2759 118.775 57.6384 117.533L58.4399 117.175L62.3873 122.932L65.3929 126.055L64.9216 126.758Z" fill="#167EA1"/>
<path d="M26.8679 54.1711C27.476 53.7761 28.194 53.4675 28.8473 53.1422L32.6317 51.3367L33.3356 53.0216L30.985 54.2514C30.3108 54.6452 29.554 55.2101 28.8206 55.4777L28.7658 55.4679L26.8679 54.1711Z" fill="#B6353D"/>
<path d="M105.614 52.8729C105.85 52.3662 106.075 51.7435 106.405 51.2948L106.481 51.3429L112.564 54.4695L112.468 54.5802C111.972 54.9582 111.455 55.2919 110.907 55.5973L105.614 52.8729Z" fill="#B6353D"/>
<path d="M81.9138 116.129L82.7533 116.663L78.3388 123.331C77.5566 124.286 76.7841 125.164 75.8753 126.012C75.6279 126.242 75.3039 126.601 75.0074 126.753L75.0014 126.756C74.845 126.534 74.7035 126.316 74.5813 126.075C74.8145 125.723 75.2838 125.35 75.5832 125.032C76.2969 124.273 76.9793 123.505 77.6192 122.687C79.1962 120.582 80.704 118.456 81.9138 116.129Z" fill="#167EA1"/>
<path d="M92.3887 46.762L102.455 49.7262C102.388 50.2061 102.001 50.932 101.764 51.3676L95.5003 49.3276C94.6473 49.0833 93.7609 48.7913 92.887 48.6381L92.3887 46.762Z" fill="#6C3149"/>
<path d="M98.9663 55.4352L99.7596 55.5255C97.9114 59.9312 94.9421 63.8993 92.4234 67.9604L92.2439 65.4176C92.7564 64.8255 93.1654 64.0592 93.5997 63.4065L96.975 58.2064C97.3952 57.5469 97.9889 56.8707 98.2965 56.1665L98.9663 55.4352Z" fill="#095161"/>
<path d="M58.4831 44.3909L60.079 44.6352L59.8607 45.7609L48.3862 47.9596L48.9373 45.9125C49.4582 45.897 49.9911 45.7557 50.5041 45.666L53.4068 45.1755L57.0604 44.6122C57.5168 44.5406 58.0475 44.5259 58.4831 44.3909Z" fill="#6C3149"/>
<path d="M79.8599 44.4064L87.6341 45.7817L90.2257 46.3014C90.5356 46.368 90.9602 46.5251 91.2664 46.5329C91.3245 46.5344 91.3782 46.5007 91.4333 46.4848L91.9749 48.4472C90.9364 48.0931 89.7408 47.8918 88.6606 47.6667L80.0655 46.2299C80.0774 45.6366 79.9321 44.998 79.8599 44.4064Z" fill="#6C3149"/>
<path d="M48.7578 94.2235L49.8418 94.0671L49.9543 94.2372L49.9741 94.3756C50.2166 96.0069 50.6969 97.6905 51.1216 99.2859C51.8999 102.21 52.754 105.092 53.8476 107.924L56.37 113.682L55.5633 114.086C54.6291 112.329 53.8669 110.485 53.1288 108.644C52.0779 106.025 51.1097 103.323 50.344 100.611L49.5523 97.4824L48.7578 94.2235Z" fill="#167EA1"/>
<path d="M36.5486 49.4354C37.9001 48.7781 39.4635 48.3658 40.9109 47.9415L47.6354 46.1445L47.0635 48.2273C44.9194 48.7981 42.7624 49.3644 40.6692 50.0941L37.4644 51.3493L36.5486 49.4354Z" fill="url(#paint0_linear_17_1277)"/>
<path d="M83.179 113.888C83.3488 113.621 83.4538 113.274 83.5827 112.984L84.4386 111.097C86.894 105.471 88.5992 99.6295 89.7985 93.6432L91.0165 93.8885L90.1643 97.3361L88.4606 103.131L86.2921 109.238C85.6127 110.972 84.8916 112.728 83.95 114.346C83.6602 114.222 83.4293 114.075 83.179 113.888Z" fill="url(#paint1_linear_17_1277)"/>
<path d="M122.025 77.1914C121.169 76.459 120.57 75.652 120.302 74.5695L120.272 74.4476C119.977 73.2783 120.128 72.0157 120.649 70.9239C121.073 70.0351 121.835 69.2102 122.801 68.8601C122.019 70.0294 121.696 71.2503 122.016 72.6355C122.31 73.9017 122.946 74.8801 124.092 75.5867C124.865 76.0638 125.789 76.2366 126.69 76.1097L126.822 76.0917C128.152 75.9009 129.233 75.0135 130.048 74.0401L130.078 74.0071C129.911 75.2732 129.08 76.487 128.041 77.2553C127.081 77.9647 126.097 78.1204 124.913 78.167C123.844 78.0587 122.936 77.7352 122.025 77.1914Z" fill="#1E7FBB"/>
<path d="M16.2606 68.8214C17.3593 69.1464 18.4396 70.1521 18.9698 71.1162C19.1033 71.3594 19.1972 71.6019 19.2792 71.8651L19.3171 71.9842C19.7034 73.236 19.5298 74.6678 18.8673 75.8012C18.4047 76.5932 17.7104 77.2058 16.9282 77.7001C16.1592 78.0358 15.4241 78.18 14.5926 78.2646C13.6546 78.2553 12.7488 78.0444 11.9317 77.5917C10.7399 76.9318 9.93995 75.6944 9.60107 74.4397C9.93704 74.6341 10.1923 74.9505 10.4841 75.2008C10.881 75.5416 11.3419 75.8479 11.8327 76.0444C12.7276 76.4031 13.8313 76.4024 14.7252 76.0337C15.7997 75.5903 16.7698 74.7697 17.1864 73.6965C17.6516 72.4993 17.4852 71.0065 16.9041 69.8766C16.723 69.5244 16.458 69.2325 16.2869 68.8774L16.2606 68.8214Z" fill="#1E7FBB"/>
<path d="M10.4999 46.18C10.5041 46.9438 11.5608 48.1463 12.109 48.6646C13.1343 49.6341 14.3167 50.1109 15.7625 50.0935C17.3472 50.0745 18.6391 49.4057 19.7145 48.3071C20.3837 47.6234 20.7057 46.7834 21.0024 45.9089C21.1302 46.3489 21.2098 46.7776 21.2779 47.2299C21.3094 47.4394 21.2857 47.6512 21.4108 47.8338C21.3342 48.677 21.0074 49.5095 20.5728 50.2414L20.291 50.6759L20.2565 50.7095L19.4767 51.4154C18.2464 52.3979 16.649 52.8478 15.0606 52.6868C13.791 52.5581 12.508 51.8371 11.7042 50.8876C10.5669 49.5439 10.3046 47.856 10.4999 46.18Z" fill="#9A242C"/>
<path d="M48.5124 75.8184C49.3107 75.6706 50.2313 75.7366 51.0369 75.799L55.7585 76.3478C57.0644 76.4783 58.3992 76.4941 59.7102 76.4418C63.3106 76.299 66.9316 75.8578 70.4934 75.3464L76.4544 74.3779C78.6602 73.9891 81.0343 73.4863 83.2803 73.5264C84.2361 73.5429 85.1643 73.7029 86.0754 73.9726L86.0165 74.0723C84.9348 74.1017 83.8606 74.0845 82.7827 74.185C79.9616 74.4482 77.142 75.0522 74.3567 75.553L65.1528 76.8313C61.8813 77.1433 58.5547 77.2208 55.2712 77.0565C52.8055 76.9324 50.3801 76.6627 47.9062 76.6598C46.8834 76.7567 45.9637 76.9676 45.0465 77.4245C44.5857 77.6541 44.1424 77.9367 43.7113 78.2136C43.4333 78.3922 43.1741 78.629 42.8325 78.6641C44.2873 77.0981 46.2954 75.9583 48.5124 75.8184Z" fill="url(#paint2_linear_17_1277)"/>
<path d="M74.8549 13.1072C75.5567 13.6333 76.1437 14.308 76.7307 14.9493C80.4085 18.9663 83.1394 23.864 85.5322 28.671C85.6886 29.0123 85.8465 29.4639 86.0738 29.7626L92.3886 46.7619L92.887 48.638L94.0461 54.0996C93.8092 54.1349 93.5127 54.1924 93.2878 54.1004L93.1447 53.5713L91.9752 48.4472L91.4336 46.4847L85.2215 30.0334L84.7046 28.9846C81.8663 23.4494 78.7942 18.1676 74.4802 13.5585L74.8549 13.1072Z" fill="#41D5E1"/>
<path d="M26.196 54.5607L28.1285 55.8833V55.9371C23.7517 58.6006 19.7137 62.3873 17.2066 66.7846C16.8744 67.3673 16.3666 68.1183 16.2075 68.7697C15.3984 68.4477 14.6799 68.4039 13.8191 68.4527C14.1738 67.4106 14.6898 66.438 15.2414 65.4807C17.0436 62.3535 19.707 59.4601 22.5656 57.1895L24.6707 55.6231C25.1581 55.2871 25.6895 54.9802 26.1436 54.6048L26.196 54.5607Z" fill="#6C3149"/>
<path d="M71.028 123.914C72.2617 124.074 73.5534 124.745 74.308 125.704L74.5814 126.075C74.7036 126.316 74.8451 126.534 75.0015 126.755L75.0075 126.753C75.6102 127.894 75.8016 129.255 75.5044 130.509C75.1803 131.873 74.3028 133.076 73.0721 133.822C71.8542 134.56 70.2384 134.913 68.8223 134.588L68.7336 134.566L67.8437 134.299C66.5198 133.793 65.2959 132.758 64.7523 131.474C64.1029 129.938 64.2483 128.253 64.9216 126.758L65.3928 126.055C65.8365 125.464 66.4913 124.859 67.1745 124.536C66.931 125.033 66.4707 125.415 66.2077 125.918C65.6765 126.933 65.3811 127.887 65.653 129.027C65.8843 129.996 66.5129 131.005 67.4192 131.524L67.5126 131.577C67.8851 131.791 68.2405 131.912 68.6479 132.047C69.4636 132.318 70.6325 132.109 71.3856 131.765C72.3995 131.302 73.3433 130.457 73.7061 129.416L73.7374 129.325C73.9974 128.583 74.0078 127.71 73.7657 126.961L73.7284 126.85C73.4096 125.872 72.7243 124.931 71.8139 124.388C71.5838 124.25 71.3089 124.21 71.1204 124.015L71.028 123.914Z" fill="#1E7FBB"/>
<path d="M66.5383 105.177C66.4369 104.984 66.1353 104.771 65.9678 104.619L64.6286 103.376L61.5036 100.264C59.2132 97.8369 56.9301 95.2408 55.021 92.5227L57.3121 91.6461L62.478 97.4308L69.3651 103.787L67.1679 105.692L66.5383 105.177Z" fill="#41D5E1"/>
<path d="M88.8701 60.3107C89.218 60.5285 89.4027 60.826 89.6292 61.1492C90.5425 62.4525 91.0975 63.9666 91.4342 65.4955C91.5839 66.1758 91.6152 66.917 91.5429 67.6085C91.2703 68.1432 91.0759 68.708 90.7801 69.2317C89.8959 70.7948 88.3181 72.2962 86.5429 72.8901C86.2323 72.9942 85.862 72.9841 85.576 73.1305C84.0838 72.8708 82.7154 72.9683 81.2158 73.0006L77.5112 73.4906C77.2587 73.3937 77.0717 73.1584 76.8847 72.9741L75.739 71.8421L76.3268 71.2338C76.3514 70.9189 76.6612 70.4734 76.8534 70.2187C77.845 70.3966 78.838 70.6097 79.8436 70.7029C81.8855 70.893 84.1159 70.6707 86.0185 69.911C87.7505 69.2202 89.1033 68.0219 89.8125 66.3321C90.4091 64.9107 90.3116 63.5281 89.732 62.1166C89.4787 61.4993 89.1375 60.9221 88.8701 60.3107Z" fill="#095161"/>
<path d="M76.3268 71.2339C77.3131 71.7848 78.4573 72.2977 79.5561 72.5911C80.0656 72.7267 80.748 72.7855 81.2158 73.0007L77.5112 73.4907C77.2587 73.3938 77.0717 73.1585 76.8847 72.9742L75.739 71.8422L76.3268 71.2339Z" fill="#369AA8"/>
<path d="M13.8191 68.4527C14.6799 68.4039 15.3984 68.4477 16.2074 68.7698L16.2608 68.8214L16.287 68.8774C16.4582 69.2325 16.7232 69.5244 16.9043 69.8766C17.4854 71.0065 17.6518 72.4993 17.1866 73.6965C16.77 74.7697 15.7999 75.5903 14.7254 76.0337C13.8315 76.4024 12.7278 76.4031 11.8329 76.0444C11.342 75.8479 10.8811 75.5416 10.4843 75.2008C10.1925 74.9505 9.93723 74.6341 9.60127 74.4397L9.57124 74.3041L9.47537 73.9383C9.23803 72.7382 9.64589 71.3573 10.3742 70.3766C11.2306 69.2231 12.3934 68.6873 13.8191 68.4527Z" fill="#3CB2E3"/>
<path d="M12.3539 70.2303C12.6719 70.1987 13.013 70.1672 13.3101 70.297C13.6721 70.4556 13.9509 70.802 14.0861 71.1557C14.2371 71.551 14.2476 71.9864 14.0362 72.363C13.8263 72.7374 13.4536 72.8745 13.0567 73.0014C12.7952 73.0079 12.5016 73.0294 12.2461 72.9699C11.8922 72.8867 11.6011 72.642 11.4223 72.3422C11.2256 72.0122 11.1837 71.5768 11.2976 71.2152C11.4567 70.7109 11.8944 70.4541 12.3539 70.2303Z" fill="#B6DBE1"/>
<path d="M123.391 68.5625C124.441 68.2029 125.331 68.2062 126.423 68.3322C127.891 68.8767 129.066 69.6034 129.727 71.0409C130.152 71.9656 130.304 73.0144 130.078 74.0072L130.047 74.0402C129.233 75.0136 128.152 75.901 126.822 76.0918L126.69 76.1097C125.789 76.2367 124.865 76.0638 124.092 75.5868C122.946 74.8802 122.31 73.9017 122.016 72.6356C121.696 71.2504 122.018 70.0295 122.801 68.8602L123.391 68.5625Z" fill="#3CB2E3"/>
<path d="M126.728 70.0753C126.895 70.0854 127.049 70.1011 127.209 70.1492C127.591 70.2625 127.96 70.5581 128.121 70.9161C128.221 71.137 128.22 71.5279 128.125 71.7546C127.945 72.1858 127.551 72.3938 127.132 72.5674C126.899 72.5803 126.652 72.5753 126.43 72.4957C126.117 72.3838 125.804 72.0559 125.696 71.7539C125.587 71.4476 125.606 71.0308 125.767 70.7446C125.988 70.3493 126.299 70.2066 126.728 70.0753Z" fill="#FBFBFA"/>
<path d="M112.564 54.4694L114.853 52.8911C115.502 52.4271 118.099 50.3386 118.721 50.3214C118.889 50.4678 119.073 50.5888 119.124 50.8108C118.396 51.5065 117.382 52.0204 116.537 52.5834C115.45 53.3081 114.399 54.1085 113.263 54.7614C116.838 56.8877 120.437 59.6125 123.046 62.8058C124.437 64.5085 125.53 66.3462 126.424 68.3321C125.332 68.2061 124.441 68.2028 123.392 68.5624C123.124 67.7213 122.658 66.8549 122.215 66.0862C119.791 61.884 115.582 58.585 111.464 55.9886L107.95 58.2639L107.437 57.9066L110.907 55.5971C111.455 55.2917 111.972 54.958 112.469 54.58L112.564 54.4694Z" fill="url(#paint3_linear_17_1277)"/>
<path d="M65.2392 13.115C65.4049 13.3296 65.5508 13.5185 65.6513 13.7692C63.1104 16.4699 60.9616 19.5079 59.0725 22.6587L56.7361 27.0307L55.8989 28.6559C55.7762 28.8921 55.6351 29.2662 55.4406 29.4456C55.1619 29.6858 54.965 30.2425 54.8197 30.575C54.6979 31.3802 54.1483 32.267 53.8213 33.0237L52.0507 37.2427L48.9371 45.9125L48.3861 47.9596L47.2191 52.167C47.0749 52.7502 46.8604 53.3873 46.8272 53.9852C46.5393 54.141 45.8304 53.8969 45.4937 53.8286L47.0632 48.2273L47.6351 46.1446C47.6568 45.9188 47.7735 45.6443 47.837 45.4225L48.4552 43.458L52.3499 33.2088L53.7846 30.0157L54.273 29.0215C54.5371 28.626 54.7244 28.1579 54.9486 27.7383L56.4657 24.9087C58.356 21.4026 60.4259 18.0668 63.16 15.0999C63.7546 14.4547 64.4538 13.5334 65.2392 13.115Z" fill="#095161"/>
<path d="M67.1744 124.536L67.1785 124.527C67.7591 124.215 68.3148 123.969 68.9756 123.866L69.1022 123.847C69.7712 123.74 70.3649 123.798 71.0279 123.914L71.1203 124.015C71.3087 124.21 71.5836 124.25 71.8138 124.387C72.7241 124.93 73.4095 125.872 73.7283 126.85L73.7656 126.961C74.0077 127.71 73.9972 128.582 73.7373 129.325L73.706 129.416C73.3432 130.457 72.3993 131.302 71.3855 131.765C70.6323 132.109 69.4635 132.318 68.6478 132.047C68.2403 131.912 67.885 131.791 67.5125 131.577L67.419 131.524C66.5127 131.005 65.8841 129.996 65.6529 129.027C65.381 127.887 65.6764 126.933 66.2076 125.918C66.4706 125.415 66.9309 125.033 67.1744 124.536Z" fill="#3CB2E3"/>
<path d="M69.2195 125.322C69.5041 125.304 69.7961 125.33 70.0605 125.44C70.4285 125.592 70.7593 125.946 70.8956 126.304C71.0252 126.644 71.052 127.129 70.871 127.456C70.611 127.926 70.1842 128.121 69.6791 128.258C69.3998 128.253 69.0921 128.239 68.8276 128.145C68.4276 128.002 68.0961 127.699 67.9403 127.316C67.7926 126.953 67.8144 126.549 67.9935 126.2C68.2615 125.679 68.6697 125.489 69.2195 125.322Z" fill="#B6DBE1"/>
<path d="M22.4139 97.6216C23.5368 99.3999 23.7875 101.929 23.2696 103.931C22.7035 106.119 21.0852 108.124 19.0641 109.253C17.0828 110.36 14.7147 110.62 12.5076 110.045C10.6255 109.555 8.85794 108.514 7.71289 106.974L10.8463 107.428C13.6632 107.589 16.8334 106.568 18.9258 104.751C21.1055 102.858 22.2723 100.433 22.4139 97.6216Z" fill="#9A242C"/>
<path d="M117.073 98.3698L117.115 98.4408C117.644 99.3332 117.924 100.395 118.426 101.322C119.98 104.205 122.836 106.614 126.116 107.487C128.06 108.004 130.263 108.124 132.127 107.28C132.245 107.228 132.356 107.202 132.482 107.176C131.18 108.926 129.23 110.093 127.062 110.549C125.135 110.954 123.148 110.633 121.406 109.776C119.146 108.665 117.483 106.803 116.717 104.478C116.075 102.528 116.081 100.211 117.073 98.3698Z" fill="#9A242C"/>
<path d="M10.4998 46.1799C11.0039 44.4656 11.7211 43.1909 13.3956 42.2968C13.8209 42.0697 14.2535 41.9136 14.7252 41.8007L14.8668 41.7656C16.1656 41.4523 17.718 41.7547 18.843 42.4303C20.0441 43.1517 20.985 44.2962 21.3057 45.6371C21.4727 46.3347 21.4858 47.1239 21.4106 47.8337C21.2855 47.6511 21.3093 47.4393 21.2778 47.2298C21.2097 46.7776 21.1301 46.3488 21.0023 45.9089C20.7055 46.7833 20.3836 47.6233 19.7144 48.307C18.639 49.4057 17.347 50.0744 15.7624 50.0935C14.3165 50.1108 13.1342 49.6341 12.1088 48.6646C11.5606 48.1462 10.5039 46.9437 10.4998 46.1799Z" fill="#F16862"/>
<path d="M14.9759 42.8229C15.3982 42.8051 15.8751 42.8027 16.2787 42.9419C16.551 43.0359 16.6825 43.1752 16.7993 43.422C16.7764 43.5354 16.7559 43.6408 16.6893 43.7401C16.5077 44.0113 16.1803 44.0783 15.8802 44.1637C15.4789 44.1774 14.9186 44.2471 14.5421 44.1121C14.3059 44.0273 14.1888 43.8639 14.0819 43.656C14.0828 43.516 14.0621 43.4362 14.1339 43.31C14.3065 43.006 14.6549 42.9151 14.9759 42.8229Z" fill="#FDC1BB"/>
<path d="M16.9281 77.7001C18.0645 78.9138 19.1134 80.1427 20.3582 81.2624C23.8864 84.436 28.3892 86.71 32.7503 88.6146C33.2702 88.3671 33.7193 87.9575 34.225 87.6748L35.0339 88.5966C34.6959 88.8305 34.3856 89.0428 33.9989 89.1978L35.9479 89.7781L37.7336 91.9746C37.3509 91.9775 36.9944 91.885 36.624 91.8025L35.0241 91.4209L32.4302 90.644C31.0464 91.3764 29.7127 92.3541 28.414 93.2236L22.3244 97.3978L21.7962 96.532L30.91 90.126C24.6769 87.5601 18.6153 83.5759 14.5925 78.2646C15.424 78.18 16.1591 78.0358 16.9281 77.7001Z" fill="#6C3149"/>
<path d="M122.024 77.1914C122.935 77.7352 123.844 78.0587 124.913 78.167C121.824 83.2057 116.613 86.9567 111.132 89.3261C110.304 89.6834 109.468 89.9215 108.631 90.2379C109.515 90.8232 110.479 91.2988 111.39 91.8455C113.575 93.1568 115.76 94.5972 117.707 96.222L117.065 97.2034L107.383 90.6604C106.275 90.9789 105.035 91.4717 103.888 91.5693C103.799 91.3928 103.603 91.1934 103.477 91.0341C103.77 90.7522 104.079 90.471 104.351 90.1697C104.663 89.8233 104.847 89.3699 105.321 89.2164C110.736 87.3742 116.121 84.5493 119.834 80.2351C120.654 79.2818 121.334 78.2323 122.024 77.1914Z" fill="#E47A73"/>
<path d="M19.9202 94.8333C20.6149 95.3497 21.2431 95.8734 21.7964 96.5319L22.3246 97.3978L22.4138 97.6216C22.2722 100.433 21.1053 102.858 18.9256 104.751C16.8333 106.568 13.6631 107.589 10.8461 107.428L7.71277 106.974C7.02347 106.294 6.50038 105.338 6.18311 104.445L6.88328 104.563C7.55127 104.617 8.286 104.462 8.94155 104.347C11.6768 103.867 14.3275 102.919 16.4511 101.136C18.5142 99.4042 19.748 97.4968 19.9202 94.8333Z" fill="#B6353D"/>
<path d="M117.073 98.3698C117.509 97.3347 118.266 96.4494 119.057 95.6525C119.629 96.8203 120.37 97.8928 121.229 98.882C123.653 101.673 127.28 103.25 131.008 103.561C132.078 103.651 133.296 103.652 134.335 103.38C134.036 104.66 133.522 106.255 132.482 107.176C132.356 107.202 132.245 107.228 132.127 107.28C130.263 108.124 128.06 108.004 126.116 107.487C122.836 106.614 119.98 104.205 118.426 101.322C117.924 100.395 117.644 99.3332 117.115 98.4408L117.073 98.3698Z" fill="#B6353D"/>
<path d="M65.2392 13.1149C64.5787 11.791 64.2683 10.3198 64.7945 8.8946C65.2944 7.54088 66.2954 6.37777 67.6558 5.75805C68.989 5.15074 70.4774 5.15583 71.8511 5.63883C73.2322 6.12462 74.3541 7.12776 74.9665 8.41533C75.5296 9.59911 75.6823 11.0947 75.1795 12.324C75.0953 12.5288 74.8361 12.9125 74.8547 13.1072L74.48 13.5585C73.3388 14.8523 72.272 15.5981 70.4469 15.7353C70.0022 15.7688 69.5768 15.7303 69.135 15.6924C67.8573 15.583 66.542 14.829 65.7454 13.8887L65.6514 13.7691C65.5509 13.5184 65.405 13.3296 65.2392 13.1149Z" fill="#1E7FBB"/>
<path d="M68.9369 5.95284C69.3891 5.91668 69.8964 5.89925 70.3419 5.98096C71.2738 6.15169 72.1313 6.5232 72.7198 7.27147L72.7816 7.35153C73.0468 7.69155 73.2211 8.05425 73.3284 8.46845C73.5981 9.50997 73.4394 10.587 72.8539 11.4999C72.3436 12.2956 71.5204 12.8754 70.5803 13.0929C69.9933 13.2291 69.1507 13.2812 68.5779 13.0814L68.4729 13.0421C67.8324 12.8193 67.2161 12.4969 66.7917 11.9659C66.117 11.1219 65.836 10.0336 65.9996 8.9825C66.146 8.04212 66.7262 7.12054 67.5452 6.57729L67.6243 6.52665C68.0324 6.26216 68.4654 6.08418 68.9369 5.95284Z" fill="#3CB2E3"/>
<path d="M69.2359 7.3894C69.4906 7.41193 69.7238 7.44034 69.9503 7.563C70.2773 7.73976 70.5023 8.05848 70.585 8.40811C70.6662 8.75079 70.6267 9.12805 70.4159 9.41972C70.1313 9.81269 69.7849 9.91412 69.3156 9.9903C69.0496 9.96814 68.7748 9.9398 68.5326 9.82323C68.2377 9.68084 67.9274 9.37984 67.8523 9.06105C67.7627 8.68092 67.8583 8.29865 68.0934 7.98932C68.374 7.61996 68.7867 7.4709 69.2359 7.3894Z" fill="#FBFBFA"/>
<path d="M120.247 42.7354C121.54 41.8319 123.023 41.3631 124.63 41.5941C126.067 41.8007 127.298 42.5004 128.157 43.6348C129.014 44.7675 129.353 45.8713 129.388 47.2612C129.359 47.7803 129.286 48.2614 129.12 48.7586L128.643 49.7095C127.825 51.0267 126.587 52.0473 125.022 52.4195L124.902 52.4473C124.09 52.6403 123.091 52.6749 122.279 52.4698L122.146 52.4345C121.492 52.2641 120.924 52.0128 120.362 51.6488C119.224 50.9107 118.306 49.6943 118.047 48.3875L118.029 48.3C117.96 47.9564 117.906 47.6189 117.905 47.2681C117.902 45.6579 118.635 44.2004 119.802 43.0835L120.247 42.7354Z" fill="#9A242C"/>
<path d="M119.802 43.0836L120.247 42.7355C119.987 43.4345 120.163 44.1273 120.483 44.7875C121.307 46.4877 122.796 47.6656 124.621 48.2739C125.705 48.6357 127.211 48.8299 128.284 48.3426C128.783 48.116 129.089 47.6866 129.388 47.2612C129.359 47.7804 129.286 48.2615 129.12 48.7586C128.898 48.7079 128.478 48.635 128.267 48.7218C128.021 48.8239 127.744 49.1279 127.522 49.2874C126.743 49.8467 125.607 50.3212 124.631 50.3478C123.171 50.3876 121.982 49.8638 120.931 48.898C119.636 47.7071 118.997 45.9552 119.454 44.2672C119.559 43.8799 119.827 43.5551 119.807 43.1469L119.802 43.0836Z" fill="#B6353D"/>
<path d="M120.247 42.7354C121.54 41.8319 123.023 41.3631 124.629 41.5941C126.067 41.8007 127.298 42.5004 128.157 43.6348C129.014 44.7675 129.353 45.8713 129.388 47.2612C129.089 47.6865 128.782 48.1159 128.283 48.3425C127.211 48.8299 125.705 48.6356 124.62 48.2738C122.796 47.6655 121.307 46.4876 120.483 44.7874C120.163 44.1272 119.987 43.4344 120.247 42.7354Z" fill="#F16862"/>
<path d="M124.37 42.6116C124.829 42.5933 125.395 42.5295 125.806 42.7684C126.002 42.8824 126.105 43.0292 126.159 43.2428C126.046 43.4358 125.871 43.4981 125.674 43.593C125.191 43.6126 124.48 43.6844 124.076 43.3948C123.89 43.2615 123.896 43.2359 123.867 43.0276C123.998 42.8115 124.148 42.7339 124.37 42.6116Z" fill="#FDC1BB"/>
<path d="M119.058 95.6524C120.58 94.2565 122.265 93.4129 124.354 93.1309C126.637 92.8232 129.2 93.5664 131.012 94.9143C132.849 96.2801 134.108 98.4415 134.398 100.656C134.515 101.549 134.482 102.491 134.336 103.38C133.296 103.652 132.078 103.651 131.008 103.561C127.28 103.25 123.653 101.673 121.229 98.882C120.37 97.8927 119.63 96.8203 119.058 95.6524Z" fill="#F16862"/>
<path d="M126.599 94.4143L126.766 94.4078C128.325 94.4164 129.642 94.9796 130.728 96.0513C132.432 97.732 133.284 99.9917 133.241 102.317C133.134 102.495 133.147 102.51 132.948 102.573C132.723 102.458 132.659 102.269 132.531 102.061C131.58 100.11 130.46 98.2285 128.707 96.8418C127.658 96.0126 126.487 95.4042 125.316 94.7579C125.683 94.5441 126.179 94.4695 126.599 94.4143Z" fill="#FDC1BB"/>
<path d="M6.18285 104.445C5.73715 103.319 5.65796 101.938 5.8188 100.754C6.1421 98.3756 7.52315 96.3046 9.49561 94.8699C11.2736 93.5765 13.7053 92.9603 15.9134 93.2824C17.4555 93.5069 18.6495 93.9539 19.9199 94.8333C19.7477 97.4969 18.5139 99.4043 16.4508 101.136C14.3272 102.919 11.6766 103.867 8.94129 104.348C8.28575 104.462 7.55101 104.617 6.88302 104.563L6.18285 104.445Z" fill="#F16862"/>
<path d="M12.5858 94.6195L12.6578 94.6145C12.9838 94.5952 13.3707 94.598 13.6053 94.8563C13.7781 95.0464 13.7722 95.3089 13.669 95.5277C13.4111 96.075 12.7612 96.4151 12.281 96.768C10.6653 97.9574 9.14208 99.4574 8.39244 101.31C8.07659 102.089 7.92484 102.89 7.77198 103.71L7.7185 103.931L7.61093 103.98C7.26982 103.631 7.08358 103.292 6.96938 102.823C6.57218 101.196 7.30982 99.047 8.19854 97.664C9.1987 96.108 10.7368 95.0313 12.5858 94.6195Z" fill="#FDC1BB"/>
<path d="M43.052 61.4571L43.1157 61.4914C43.7096 61.8287 44.1915 62.3943 44.6432 62.8897C45.5537 63.8883 46.3848 64.9073 47.1568 66.0092C48.0258 64.1625 48.7114 62.2737 50.0479 60.6694C50.46 60.1747 50.9619 59.7489 51.4137 59.2885L51.4518 59.3831C50.2115 60.9614 49.5754 62.6623 49.8493 64.6638C49.909 65.0996 50.0115 65.5009 50.1631 65.9154L50.2076 66.0392C50.8655 67.8248 52.3876 69.4089 54.1589 70.2281C57.1041 71.5896 60.3773 71.426 63.404 70.4174C63.6058 70.6936 63.8197 70.9777 63.971 71.2833L64.3101 71.6513L64.4168 71.7187C64.8494 71.997 65.2095 72.3866 65.6326 72.6843C67.4579 73.9712 69.4428 74.5078 71.6895 74.0774C72.9447 73.8378 74.1709 73.1455 75.0931 72.3019C75.1632 72.2374 75.6489 71.8041 75.739 71.8421L76.8847 72.9741C77.0717 73.1584 77.2587 73.3937 77.5112 73.4906L69.6439 74.8005L65.2469 75.3184C62.5589 75.624 59.7534 75.9145 57.0484 75.7875C56.1414 75.7445 55.2184 75.6096 54.3191 75.4913C53.6726 75.4052 52.8091 75.3657 52.1959 75.1677C52.0341 75.1154 52.0362 75.0817 51.9909 74.9339C51.8821 74.5795 52.0635 74.2703 52.1757 73.9353C52.3089 73.5372 52.4402 73.1118 52.4249 72.69C52.4073 72.1993 52.2003 71.7324 52.0135 71.2833C51.9494 71.7625 51.7266 74.0967 51.4347 74.3715L45.0861 64.8962L45.0115 64.807C44.4094 63.6657 43.5946 62.6369 43.052 61.4571Z" fill="#095161"/>
<path d="M63.971 71.2833L64.3101 71.6513C63.3431 72.4949 59.8934 75.3098 58.6461 75.2187C56.6249 75.0709 54.3487 73.6118 53.0564 72.1843C55.0055 72.7295 57.0747 73.2883 59.1264 73.0387L59.2728 73.02C60.9625 72.8156 62.5004 72.0724 63.971 71.2833Z" fill="#369AA8"/>
<path d="M103.477 91.0342C103.603 91.1934 103.8 91.3929 103.888 91.5693L103.915 91.6274C104.261 92.3577 104.726 93.0492 105.102 93.7687L107.322 98.3354C109.734 103.544 114.175 114.936 112.144 120.315C111.571 121.834 110.535 123.032 108.998 123.712C104.697 125.618 98.9888 124.227 94.7784 122.68L92.2932 121.677L82.7535 116.663L81.914 116.129C79.0817 114.449 76.4126 112.461 73.7859 110.502C72.6253 109.637 71.3738 108.813 70.3279 107.82C70.9603 107.262 71.5935 106.619 72.2975 106.149C72.4532 106.417 72.7191 106.578 72.9657 106.764L74.2217 107.7L78.964 111.159L83.1789 113.888C83.4292 114.075 83.6601 114.222 83.9499 114.346L93.252 119.332L93.2743 119.347C94.1094 119.766 95.0592 120.098 95.9427 120.415C98.5671 121.354 101.385 122.097 104.203 122.094C105.097 122.093 106.02 122.043 106.872 121.763C108.232 121.316 109.422 120.431 110.053 119.164C110.756 117.752 110.797 116.117 110.682 114.583C110.433 111.276 109.396 108.012 108.364 104.863L104.624 94.7931L103.188 91.3426L103.477 91.0342Z" fill="url(#paint4_linear_17_1277)"/>
<path d="M88.9879 56.9954C89.5682 57.084 90.5992 56.6658 91.1997 56.5391L93.4062 56.1715C95.0652 55.951 96.6392 55.967 98.2967 56.1667C97.9891 56.8708 97.3953 57.5471 96.9752 58.2066L93.5999 63.4066C93.1656 64.0594 92.7566 64.8256 92.2441 65.4177C92.0638 64.5007 91.7554 63.5773 91.3568 62.727C90.5888 61.089 89.1518 59.3804 87.3617 58.7203C87.9815 59.2054 88.4017 59.69 88.8702 60.3108C89.1377 60.9222 89.4788 61.4995 89.7321 62.1168C90.3117 63.5282 90.4093 64.9108 89.8126 66.3323C89.1034 68.0221 87.7506 69.2203 86.0186 69.9111C84.116 70.6708 81.8857 70.8932 79.8438 70.7031C78.8381 70.6098 77.8451 70.3968 76.8536 70.2189C77.2707 69.287 77.6089 68.3739 77.6931 67.3551C77.8883 64.9942 77.2134 63.2285 75.6304 61.4488C78.4656 59.1923 82.5591 57.8578 86.1743 57.3805L87.767 57.2003C88.0635 57.179 88.5 57.2256 88.7644 57.0935L88.8427 57.0405L88.9879 56.9954Z" fill="#369AA8"/>
<path d="M85.532 28.671C87.0159 27.5375 88.7151 26.6315 90.3696 25.7534C93.739 23.9653 97.317 22.2477 101.055 21.3009C103.776 20.6117 107.485 19.9479 110.032 21.4406C111.082 22.0565 112.013 23.359 112.278 24.5124C112.8 25.968 112.941 27.672 112.815 29.2029C112.466 33.4659 110.967 37.543 109.487 41.542C107.716 46.3258 105.717 51.0719 103.414 55.6422C100.87 60.6866 98.0977 65.5839 94.922 70.2862C93.7971 71.9512 92.6901 73.6234 91.4073 75.1822L88.3166 75.7187C88.2354 75.5731 88.2845 75.5444 88.3278 75.3909L98.015 60.3358C100.945 55.0859 103.551 49.6488 105.794 44.095C107.222 40.5634 108.496 36.9915 109.278 33.2716C109.702 31.2513 110.018 29.181 109.833 27.1143C109.771 26.4206 109.59 25.7701 109.382 25.1055C108.86 24.027 108.391 23.3035 107.173 22.8721L106.651 22.7192L106.528 22.6839C105.765 22.4748 104.903 22.5075 104.118 22.5542C101.376 22.7174 98.7085 23.6281 96.1794 24.6082C94.0199 25.4452 91.8513 26.3875 89.8281 27.4997C88.5758 28.188 87.217 28.917 86.0736 29.7627C85.8463 29.4639 85.6884 29.0123 85.532 28.671Z" fill="url(#paint5_linear_17_1277)"/>
<path d="M30.7849 43.7212C30.5881 43.5157 30.4117 42.7639 30.3009 42.452L27.9028 34.8495C27.6729 33.9712 27.4731 33.0788 27.3473 32.1809C26.9341 29.2335 26.6289 25.095 28.6759 22.6189C29.6747 21.4108 31.1835 20.8278 32.7462 20.6743C34.868 20.466 37.0092 21.0042 39.0174 21.6084C43.1489 22.8515 47.0986 24.7319 50.8167 26.8549C51.9902 27.5249 53.2209 28.1821 54.273 29.0215L53.7845 30.0157C49.2237 27.1962 38.7262 21.7921 33.2701 22.8898C32.2441 23.0962 31.3702 23.6434 30.8027 24.4967C30.2339 25.3519 30.0174 26.3568 29.9178 27.3534C29.6671 29.8586 30.2207 32.5667 30.8238 34.9997C31.7995 38.9354 33.1527 42.7451 34.795 46.4671C35.257 47.514 35.7194 48.6477 36.2776 49.6502L37.1799 51.5166C37.6225 52.4768 38.0475 53.6422 38.6477 54.5203L43.3216 63.0973C43.7757 63.865 44.1948 64.7863 44.7349 65.4936L50.8054 74.9992C49.9172 74.9612 49.0295 74.9942 48.1501 75.1269C47.904 75.1376 47.6556 75.1879 47.4123 75.2259L44.3139 70.6721C40.1945 64.4003 36.6736 57.8133 33.6765 50.9798C32.6433 48.6238 31.5541 46.1683 30.7849 43.7212Z" fill="url(#paint6_linear_17_1277)"/>
<path d="M30.7849 43.7213C31.0442 44.0076 31.1141 44.2933 31.2574 44.6357C31.3094 44.7602 31.3359 44.886 31.3964 45.007L31.9945 46.5511L32.6688 48.2152L33.0321 47.4931L32.9716 47.3744L32.6225 46.5193L32.5644 46.4242C32.4703 46.2622 32.5384 46.3936 32.492 46.184C32.4624 46.0504 32.4056 45.9278 32.3803 45.7894H32.4306C34.568 51.1721 37.1353 56.3816 39.8862 61.4958L45.7072 71.65L47.9901 75.0581L48.1501 75.127C47.904 75.1377 47.6556 75.1879 47.4124 75.226L44.3139 70.6722C40.1945 64.4004 36.6737 57.8134 33.6766 50.9798C32.6433 48.6239 31.5541 46.1684 30.7849 43.7213Z" fill="url(#paint7_linear_17_1277)"/>
<path d="M35.0243 91.4209L36.6243 91.8025C34.8835 95.154 33.5136 98.6618 32.3916 102.245C31.4027 105.404 30.6088 108.502 30.1567 111.777C29.8348 114.109 29.5632 116.654 30.2632 118.944C30.8072 120.218 31.498 121.212 32.8616 121.771C36.2454 123.156 42.1657 120.984 45.3352 119.695C45.4375 119.654 45.4005 119.671 45.4947 119.61C47.3718 118.895 49.2335 117.909 50.9953 116.964C55.4149 114.591 59.5902 111.933 63.6227 108.994C64.8782 108.079 66.1821 107.178 67.3496 106.162L69.974 104.069C71.9831 102.482 73.8529 100.733 75.6817 98.9574C78.114 96.5966 80.4136 94.1877 82.5948 91.6088L85.3347 92.4309L82.4212 95.6942C81.9437 96.1985 81.4766 96.7487 80.9418 97.197C79.9428 98.3455 78.7531 99.4014 77.6573 100.47C76.6248 101.477 75.5163 102.736 74.3297 103.564C73.6726 104.307 72.804 104.962 72.0494 105.619L69.9315 107.39C66.0261 110.452 62.133 113.556 57.8864 116.18L52.2244 119.438C51.5554 119.806 50.7008 120.12 50.098 120.556L43.4915 123.301C39.7848 124.517 34.9377 125.763 31.2182 123.978C29.5601 123.182 28.4874 121.762 27.912 120.1C27.7252 119.466 27.6065 118.86 27.5211 118.206C27.2292 115.973 27.6727 113.509 28.1266 111.32C28.8663 107.751 29.9772 104.27 31.2459 100.846L34.2299 93.588C34.4583 93.1024 34.6412 92.5644 34.8901 92.0945C35.0351 91.8205 35.0418 91.7265 35.0243 91.4209Z" fill="url(#paint8_linear_17_1277)"/>
<path d="M74.3293 103.563C74.4813 103.071 75.3857 102.421 75.773 102.03C75.6874 101.899 75.7224 101.974 75.6792 101.802C75.7306 101.755 75.8461 101.665 75.8796 101.599C75.9578 101.447 75.9265 101.388 76.0688 101.266C76.6424 100.771 77.0298 99.9314 77.7434 99.5828C78.0526 99.4314 78.2865 99.2292 78.5658 99.0254L78.6329 99.0893C78.5673 99.2019 78.5345 99.2442 78.5293 99.3762L79.4732 98.4767C79.5626 98.402 79.6415 98.3425 79.7168 98.2528C79.9998 97.9135 80.5176 97.3432 80.9415 97.1969C79.9425 98.3454 78.7528 99.4013 77.657 100.47C76.6245 101.477 75.516 102.736 74.3293 103.563Z" fill="#41D5E1"/>
<path d="M59.5588 48.7833C60.0641 48.9731 60.4705 49.8434 60.9061 50.2276C61.258 50.5382 61.783 50.7398 62.098 51.0633L62.1679 51.1494C62.4987 51.5505 62.8961 51.8495 63.167 52.3052C63.6531 53.1231 63.7885 54.0369 64.4261 54.8045C65.2901 55.8446 66.6934 56.495 67.3692 57.6458C67.6267 58.0843 67.6339 58.6477 67.6155 59.1377L65.5503 60.3644C62.0868 58.0251 57.702 56.0262 53.3664 56.7636C53.1354 56.8028 52.8977 56.8272 52.6803 56.9134C56.0239 57.2408 59.3345 58.2171 62.2139 59.9023C62.9842 60.3531 63.6854 60.8825 64.3984 61.4111C62.8164 63.1725 62.1871 65.0663 62.3407 67.3816C62.4035 68.3256 62.7986 69.6649 63.4042 70.4174C60.3775 71.426 57.1043 71.5896 54.1591 70.228C52.3878 69.4088 50.8657 67.8248 50.2078 66.0391L50.1633 65.9154C50.0117 65.5008 49.9092 65.0996 49.8495 64.6638C49.5756 62.6623 50.2117 60.9614 51.452 59.3831L51.4139 59.2884C50.9621 59.7489 50.4602 60.1747 50.0481 60.6694C48.7116 62.2737 48.0259 64.1625 47.157 66.0092C46.385 64.9072 45.5539 63.8882 44.6434 62.8897C44.1917 62.3943 43.7098 61.8286 43.1159 61.4913L43.0522 61.4571C41.9488 59.981 41.1271 58.2955 40.2273 56.699C42.9013 56.0356 45.8202 55.979 48.5466 56.3738C49.4034 56.4979 50.4575 56.8594 51.2977 56.7913L51.3812 56.7863L51.6001 56.8236L51.6447 56.7648C50.9856 55.7546 49.7871 55.1078 48.6454 54.7246L52.2951 52.4311C54.5602 51.0649 57.0144 49.8958 59.5288 49.026L59.5588 48.7833Z" fill="#369AA8"/>
<path d="M59.5585 48.7833C60.0638 48.9731 60.4701 49.8434 60.9057 50.2276C61.2576 50.5382 61.7826 50.7398 62.0977 51.0633L61.9191 51.094L61.053 54.9005C60.8609 55.7432 60.704 56.576 60.3769 57.3819C60.2653 57.3064 60.2876 57.3333 60.2095 57.2413C59.9332 56.9159 59.7808 56.5752 59.6987 56.1627C59.4074 54.6987 59.5874 53.0204 59.5686 51.5281C59.5582 50.6926 59.4543 49.8617 59.5284 49.026L59.5585 48.7833Z" fill="#095161"/>
<path d="M79.6724 49.4805L80.1164 48.6896C80.4576 49.1091 81.534 49.3764 82.0756 49.6018C84.8937 50.7744 87.5472 52.1371 90.039 53.8713C90.5009 54.193 91.0335 54.51 91.438 54.8937C90.445 55.1887 89.5056 55.9969 88.903 56.7973L88.8426 57.0404L88.7644 57.0934C88.5 57.2256 88.0634 57.1789 87.7669 57.2002L86.1743 57.3804C82.5591 57.8577 78.4656 59.1922 75.6303 61.4487C77.2133 63.2284 77.8883 64.9941 77.6931 67.3551C77.6089 68.3738 77.2707 69.287 76.8535 70.2188C76.6613 70.4735 76.3515 70.9189 76.3269 71.2338L75.7391 71.8422C75.649 71.8041 75.1633 72.2374 75.0932 72.302C74.171 73.1456 72.9448 73.8378 71.6896 74.0774C69.4429 74.5078 67.458 73.9713 65.6327 72.6843C65.2097 72.3866 64.8495 71.9971 64.4169 71.7188L64.3102 71.6514L63.9711 71.2833C63.8198 70.9778 63.6059 70.6937 63.4041 70.4175C62.7985 69.665 62.4034 68.3257 62.3407 67.3817C62.187 65.0664 62.8163 63.1725 64.3983 61.4112C63.6854 60.8826 62.9841 60.3532 62.2138 59.9024C59.3344 58.2171 56.0238 57.2408 52.6802 56.9134C52.8976 56.8273 53.1353 56.8029 53.3663 56.7636C57.7019 56.0263 62.0867 58.0252 65.5502 60.3645L67.6154 59.1378C67.6338 58.6478 67.6266 58.0844 67.3691 57.6459C66.6933 56.4951 65.29 55.8447 64.426 54.8046C63.7885 54.037 63.653 53.1232 63.1669 52.3053C62.896 51.8496 62.4986 51.5506 62.1678 51.1495L62.098 51.0634C62.7004 51.104 63.4017 51.3711 63.8907 51.7044C64.0802 52.1777 64.2695 52.6515 64.5325 53.0925C64.9403 54.0668 66.0701 55.0343 67.0541 55.4579C67.3307 55.5769 67.6266 55.6719 67.9282 55.71C68.4543 55.7764 69.057 55.6971 69.5904 55.6926C70.4411 55.6855 71.8215 55.8672 72.5932 55.5536L72.6819 55.5147L72.7869 55.4713C74.241 54.8541 74.9994 53.7737 75.5536 52.3961L75.786 51.5133C76.1898 51.479 76.5608 51.4716 76.9653 51.5054C77.3832 51.4206 77.7236 51.235 78.0782 51.0187C78.2302 50.7767 78.6101 50.5425 78.8276 50.3394L79.6724 49.4805Z" fill="url(#paint9_linear_17_1277)"/>
<path d="M67.3843 60.7263C67.3801 60.4251 67.4299 60.316 67.6492 60.101C68.2809 59.4815 69.3141 59.3518 70.1812 59.3625C70.839 59.3706 71.4089 59.5415 72.0227 59.7455C72.2209 59.8113 72.4689 59.8665 72.6254 60.0021L72.682 60.0646L72.533 60.7028C70.7459 59.9561 69.1666 60.0712 67.3843 60.7263Z" fill="#20232A"/>
<path d="M67.3839 60.7264C69.1663 60.0713 70.7455 59.9563 72.5327 60.703C72.9848 60.9283 74.3414 61.5994 74.5082 62.091L74.5172 62.1376C73.7432 62.6706 72.7748 63.3701 71.8622 63.6347L71.7385 63.6023C70.9213 63.3918 70.0587 63.3448 69.2259 63.5028C69.0031 63.5452 68.463 63.7373 68.2679 63.7073C68.118 63.6844 67.8736 63.5451 67.7312 63.4822C67.2438 63.2668 66.7674 63.0239 66.3036 62.765C66.0306 62.6127 65.6901 62.3791 65.384 62.3179L65.3455 62.2098C65.8558 61.5677 66.6556 61.1052 67.3839 60.7264Z" fill="#FBFBFA"/>
<path d="M64.644 70.2998L68.2471 69.7611C68.7335 70.3443 69.2729 71.0861 69.8681 71.5631L71.4809 69.8852C72.8486 69.9311 74.1038 70.0918 75.444 70.3644L75.5639 70.4684C75.2846 71.1097 74.407 71.85 73.7992 72.2338C72.3629 73.1391 70.5832 73.5875 68.8825 73.2403C67.1637 72.8888 65.5567 71.8565 64.5991 70.4354L64.644 70.2998Z" fill="#FBFBFA"/>
<path d="M74.5173 62.1375L74.6454 62.2463C75.3285 62.5696 75.9885 63.8346 76.2292 64.5144C76.843 66.2512 76.7804 68.3407 75.8597 69.9798C75.7919 70.1003 75.7233 70.2101 75.6019 70.2847L75.444 70.3643C74.1038 70.0917 72.8486 69.931 71.4809 69.8851L69.8681 71.563C69.2729 71.086 68.7335 70.3442 68.2471 69.761L64.644 70.2998L64.5593 70.2539L64.4481 70.1922C64.0371 69.8787 63.7188 68.7445 63.6042 68.2608C63.2016 66.5604 63.4688 64.8597 64.4384 63.384C64.6029 63.1336 64.9523 62.5358 65.2398 62.4722L65.3841 62.3177C65.6902 62.3789 66.0307 62.6126 66.3037 62.7648C66.7675 63.0237 67.2439 63.2667 67.7313 63.4821C67.8737 63.545 68.1181 63.6843 68.268 63.7072C68.4631 63.7371 69.0032 63.545 69.226 63.5026C70.0588 63.3446 70.9214 63.3917 71.7386 63.6021L71.8623 63.6346C72.7749 63.3699 73.7433 62.6704 74.5173 62.1375Z" fill="#20232A"/>
<path d="M64.5593 70.254L64.4481 70.1923C64.0371 69.8788 63.7188 68.7447 63.6042 68.261C63.2016 66.5605 63.4688 64.8599 64.4384 63.3841C64.6029 63.1337 64.9523 62.5359 65.2398 62.4723C65.8887 63.9317 66.4912 65.3482 66.8791 66.8952L65.4716 69.0653C65.201 69.4735 64.9349 69.9269 64.5593 70.254Z" fill="#FBFBFA"/>
<path d="M74.6453 62.2463C75.3284 62.5696 75.9884 63.8346 76.229 64.5145C76.8428 66.2513 76.7803 68.3407 75.8595 69.9799C75.7917 70.1004 75.7232 70.2102 75.6018 70.2848C74.6684 69.2295 73.9011 68.0057 73.2366 66.7799C73.5502 65.2332 74.0784 63.7218 74.6453 62.2463Z" fill="#FBFBFA"/>
<path d="M79.6721 49.4805L80.1161 48.6896C80.4573 49.1091 81.5337 49.3764 82.0753 49.6018C84.8934 50.7744 87.5469 52.1371 90.0387 53.8713C90.5006 54.193 91.0332 54.51 91.4377 54.8937C90.4447 55.1887 89.5054 55.9969 88.9027 56.7973C87.1081 56.7028 85.292 56.648 83.5041 56.8642C81.2559 57.1362 78.77 57.9452 76.7914 58.9959C76.0055 59.4137 75.2852 59.9425 74.5253 60.4031C74.0277 60.0968 72.9192 59.4544 72.7106 58.9169C72.1929 57.5844 73.7625 56.3982 74.6095 55.5754C75.0438 55.1534 75.4282 54.7442 75.7604 54.2419C76.3221 53.3938 76.5084 52.3973 76.965 51.5054C77.3829 51.4206 77.7233 51.235 78.0779 51.0187C78.2299 50.7767 78.6098 50.5425 78.8274 50.3394L79.6721 49.4805Z" fill="#369AA8"/>
<path d="M78.0781 51.0186C78.2301 50.7766 78.61 50.5424 78.8275 50.3394L79.6723 49.4805C80.12 51.7307 81.2814 55.4437 80.1967 57.5807C79.7647 56.885 79.5717 56.1391 79.3535 55.3616L78.5988 52.5736C78.4573 52.0614 78.3254 51.493 78.0781 51.0186Z" fill="#095161"/>
<path d="M103.368 57.2734L103.56 56.9963C104.361 57.2308 105.142 57.7201 105.818 58.1862C107.436 59.3008 108.824 60.6122 109.763 62.3183C109.923 62.6095 110.108 62.9415 110.208 63.2576C110.539 63.6816 110.678 64.1265 110.839 64.6275C111.237 65.8701 111.502 67.348 111.326 68.6428L111.135 69.5567C111.007 72.1219 109.105 74.558 107.21 76.2166L105.762 77.3887C106.042 75.2323 106.244 73.1678 105.609 71.0459C105.458 71.9856 105.536 72.9763 105.442 73.9289C105.219 76.1749 104.708 78.5056 104.039 80.6677C104.772 79.7416 105.302 78.5537 105.736 77.4676L105.858 77.4619C106.131 77.4375 106.401 77.2775 106.651 77.1742C107.058 77.0056 107.467 76.8629 107.85 76.6462C108.092 76.5099 108.487 76.1319 108.741 76.0989C108.663 77.832 108.505 79.6311 107.804 81.2495L106.189 84.0507C104.72 86.3728 102.929 88.3276 100.869 90.1705L101.936 90.8319C100.931 91.5664 99.7827 92.5901 98.5424 92.9136C97.4346 93.2034 96.0714 93.1252 94.9294 93.0485C91.3321 92.8053 87.9664 91.9108 84.5419 90.8885C79.5635 89.4029 74.5835 87.5399 70.064 85.0249C70.2316 84.8147 70.6502 84.6275 70.8849 84.4711C72.6593 83.2961 74.5023 82.1985 76.4012 81.2158C76.8981 80.959 77.4136 80.6197 77.9648 80.4905C79.2104 79.8607 80.5177 79.119 81.8594 78.7086C81.8795 78.7373 81.8869 78.7796 81.919 78.7947C81.9689 78.8177 86.3216 77.7266 86.8304 77.6218C88.6644 77.2431 90.5283 76.9626 92.4033 76.8765C93.3158 76.8342 94.2232 76.7868 95.1044 77.058C95.5313 77.1893 95.9537 77.3873 96.3336 77.6147C96.6293 77.7919 97.0324 78.157 97.3683 78.2194L97.4599 78.2259C98.1974 78.7918 99.1405 80.0164 99.4504 80.8858L99.5517 80.832L99.5629 80.7631C99.659 80.0723 99.0988 79.068 98.6504 78.5293L98.5684 78.4325C97.3504 76.9648 95.7764 75.8543 93.8686 75.3937C93.3911 75.2783 92.8406 75.3062 92.3936 75.1735C93.7717 73.4225 94.9264 71.5344 96.1272 69.67L101.829 59.9974L103.028 57.7625C103.12 57.5684 103.221 57.4339 103.368 57.2734Z" fill="#095161"/>
<path d="M103.368 57.2734L103.56 56.9963C104.361 57.2308 105.142 57.7201 105.818 58.1862C107.436 59.3008 108.824 60.6122 109.763 62.3183C109.923 62.6095 110.108 62.9415 110.208 63.2576C110.539 63.6816 110.678 64.1265 110.839 64.6275C111.237 65.8701 111.502 67.348 111.326 68.6428L111.135 69.5567C110.205 71.2489 108.93 72.3378 107.183 73.2259L107.1 73.2015L105.105 68.9247C105.125 71.0473 105.611 73.3873 104.361 75.317C103.744 76.2696 102.652 76.9339 101.524 77.1735C100.747 77.3392 99.9288 77.3901 99.1399 77.2682L99.0155 77.2474C97.3707 76.997 95.8212 75.8141 94.4482 74.9691L99.8029 66.6015C101.15 64.2716 102.384 61.685 103.057 59.0924C103.155 58.7138 103.367 58.2698 103.238 57.8831L103.215 57.8276L103.368 57.2734Z" fill="#369AA8"/>
<path d="M103.368 57.2734L103.56 56.9963C104.361 57.2308 105.142 57.7201 105.818 58.1862C107.436 59.3008 108.824 60.6122 109.763 62.3183C109.923 62.6095 110.109 62.9415 110.208 63.2576C110.376 64.1861 110.591 65.0244 110.612 65.9769C110.485 65.8664 110.357 65.22 110.289 65.0162C110.128 64.5373 109.922 64.072 109.697 63.6182C108.462 61.1323 105.947 58.744 103.216 57.8276L103.368 57.2734Z" fill="#FBFBFA"/>
<path d="M81.8596 78.7087C81.8797 78.7374 81.8871 78.7797 81.9192 78.7947C81.9691 78.8177 86.3218 77.7266 86.8306 77.6219C88.6646 77.2431 90.5285 76.9626 92.4035 76.8765C93.316 76.8342 94.2234 76.7869 95.1046 77.058C95.5315 77.1893 95.9539 77.3873 96.3338 77.6147C96.6295 77.7919 97.0325 78.157 97.3685 78.2194L97.4601 78.2259C98.1976 78.7919 99.1407 80.0164 99.4506 80.8858C99.502 81.2323 99.5445 81.6799 99.4484 82.0207C99.2689 82.6555 98.775 83.1498 98.2006 83.4798C97.11 84.1067 95.6529 84.3392 94.4104 84.5027C90.1932 85.0579 85.9389 84.7775 81.8097 83.8119C83.0008 84.3607 84.2747 84.7466 85.5321 85.1297C88.5693 86.0551 91.9096 86.8728 95.1046 86.9955C96.7078 87.0572 98.2513 86.9223 99.8291 86.654C98.5835 87.3363 97.2061 87.9625 95.8138 88.3047C90.6082 89.5866 85.1693 88.154 80.2565 86.4804C78.0827 85.7401 75.9812 84.9726 73.9893 83.8384C74.7886 83.0243 75.69 82.2703 76.5898 81.5616C77.0271 81.218 77.5143 80.9325 77.9114 80.5444L77.965 80.4906C79.2106 79.8607 80.5179 79.119 81.8596 78.7087Z" fill="#369AA8"/>
<path d="M35.9735 58.3712L38.3446 62.7446L40.1812 65.9274L40.8373 67.0347C40.9015 67.1489 41.0243 67.3125 41.0464 67.4337C41.7786 68.0969 42.341 69.1298 42.8698 69.9641L44.9547 73.0703L45.8796 74.3615C46.1152 74.6671 46.5855 75.086 46.6979 75.4346C44.3514 76.1549 42.4588 77.6218 41.1009 79.5781C40.8282 79.9712 40.6866 80.4755 40.269 80.7416C39.1221 81.4733 38.5559 82.4195 38.3038 83.71C38.2282 84.0967 38.1582 84.5206 38.1613 84.9137C38.6599 83.8004 38.9678 82.7028 39.893 81.8248C40.2868 81.4511 40.7673 81.1742 41.2366 80.8994C41.6878 80.0788 42.1971 79.3621 42.8322 78.6642C43.1738 78.629 43.433 78.3923 43.711 78.2137C44.1421 77.9368 44.5854 77.6541 45.0462 77.4246C45.9634 76.9676 46.8831 76.7567 47.9059 76.6599C50.3798 76.6627 52.8052 76.9325 55.2709 77.0566C58.5544 77.2208 61.881 77.1434 65.1525 76.8313L74.3564 75.553C77.1417 75.0523 79.9613 74.4483 82.7824 74.185C83.8603 74.0846 84.9345 74.1018 86.0162 74.0724L86.0751 73.9727C86.5153 74.0989 86.9153 74.3012 87.3049 74.5344C87.5672 74.7603 88.0261 75.2783 88.3278 75.3909C88.2845 75.5444 88.2354 75.5731 88.3166 75.7187L88.3188 75.7223C87.3333 76.0896 86.2911 76.2955 85.2839 76.6011C83.286 77.2079 81.2731 77.9525 79.3914 78.8449C75.9409 80.4826 72.7205 82.4116 69.398 84.2652C62.9754 87.8484 56.125 91.235 48.7636 92.5449C45.9574 93.0442 42.0986 93.6231 39.6074 91.8699C38.573 91.1418 37.8515 90.0213 37.0974 89.0421L34.4874 85.4367C33.4603 83.9812 32.4285 82.5249 31.7472 80.8815C31.0647 79.2359 30.7757 77.4877 30.5095 75.7445C31.4538 76.6046 32.4863 77.3457 33.5925 78.0006C33.1713 77.3098 32.542 76.7768 32.0171 76.1613C30.2361 74.0724 28.5707 71.632 28.5804 68.8329C28.5672 68.4412 28.5821 68.0826 28.6376 67.6942L28.6949 68.1128C28.9016 67.4644 29.0659 66.8051 29.3158 66.17C29.8509 64.8095 30.5258 63.4625 31.4369 62.2963C32.6661 60.7228 34.3008 59.481 35.9735 58.3712Z" fill="#095161"/>
<path d="M33.916 69.8953C34.239 69.2712 34.5442 68.6328 34.9549 68.0569C34.7232 68.8286 34.4855 69.678 34.4609 70.4835C34.4005 70.6442 34.3918 70.7848 34.381 70.9541L34.3574 71.2195L34.2803 71.3386C34.1392 71.6528 34.1872 72.4297 34.1823 72.8099C34.1319 76.685 35.801 80.2087 37.5376 83.6168C36.9006 83.0365 36.4376 82.2022 35.9937 81.4813C35.3364 80.4131 34.6547 79.2611 34.2171 78.0918C33.6312 76.5265 33.4117 74.5488 33.5226 72.8996C33.5606 72.335 33.6485 71.7812 33.7638 71.2274C33.85 70.8128 34.0346 70.381 33.934 69.9635L33.916 69.8953Z" fill="#20232A"/>
<path d="M35.9735 58.3712L38.3446 62.7446L40.1812 65.9274L40.8373 67.0347C40.9015 67.1489 41.0243 67.3125 41.0464 67.4337L41.0763 67.5149C41.654 69.028 42.6464 70.5079 43.5269 71.8759C43.6946 72.1363 44.3016 72.7804 44.2991 73.0208C43.0351 74.7948 41.6456 76.9683 39.2408 77.3679C38.3652 77.5128 37.538 77.4798 36.7925 76.964C35.3225 75.9483 34.7674 74.2166 34.5184 72.571C34.415 71.8881 34.439 71.1721 34.4606 70.4835C34.4851 69.6779 34.7228 68.8285 34.9545 68.0568C34.5438 68.6327 34.2386 69.2712 33.9156 69.8952C33.6328 70.3701 33.4052 70.9046 33.2243 71.4232C33.091 71.8063 32.9608 72.5911 32.6719 72.8701C32.4793 73.0559 32.0799 73.0889 31.8217 73.0796C31.3152 73.0616 30.8238 72.8106 30.4435 72.5021C29.6602 71.8673 29.2153 70.9268 28.9707 69.9864C28.866 69.5839 28.8721 69.1377 28.5804 68.8329C28.5672 68.4412 28.5821 68.0826 28.6376 67.6942L28.6949 68.1128C28.9016 67.4644 29.0659 66.8051 29.3158 66.17C29.8509 64.8095 30.5258 63.4625 31.4369 62.2963C32.6661 60.7228 34.3008 59.481 35.9735 58.3712Z" fill="#369AA8"/>
<path d="M86.0751 73.9727C86.5154 74.0989 86.9154 74.3012 87.305 74.5343C85.8427 74.8894 84.4154 75.4375 83.0171 75.9762L76.6054 78.6806L69.5098 81.8736C66.5364 83.2329 63.5855 84.6433 60.5152 85.7932C57.9869 86.7408 55.3725 87.499 52.7256 88.0679C50.0918 88.6339 47.3775 89.0105 44.6808 88.6676C43.0938 88.4653 41.596 87.9416 40.1418 87.3125L40.1152 87.2731L45.8218 86.626C49.6819 86.0328 53.449 85.0521 57.0824 83.6612C57.6137 83.4582 58.7045 83.1834 59.0953 82.8219C57.2999 83.3183 55.534 83.7817 53.6873 84.0766C49.4086 84.7595 44.7585 84.6289 40.6407 83.2746C40.5743 82.5335 41.0293 81.6153 41.2367 80.8994C41.6878 80.0787 42.1972 79.3621 42.8323 78.6641C43.1738 78.629 43.4331 78.3923 43.7111 78.2136C44.1422 77.9367 44.5854 77.6541 45.0462 77.4246C45.9634 76.9676 46.8832 76.7567 47.906 76.6599C50.3799 76.6627 52.8052 76.9324 55.2709 77.0565C58.5544 77.2208 61.881 77.1433 65.1525 76.8313L74.3564 75.553C77.1418 75.0523 79.9614 74.4483 82.7825 74.185C83.8604 74.0846 84.9346 74.1018 86.0162 74.0724L86.0751 73.9727Z" fill="#369AA8"/>
<path d="M59.6798 42.7169C59.8722 43.3277 60.1167 43.9629 60.2396 44.5882L59.01 44.3059C59.0168 43.5477 59.152 43.2987 59.6798 42.7169Z" fill="#BB2E3E"/>
<path d="M78.3346 46.0502C78.626 46.6612 78.6943 47.0685 78.6775 47.7352L78.3839 49.2348C78.0231 48.7419 78.1621 48.3573 78.031 47.8076C77.9413 47.4323 77.7587 47.0744 77.5884 46.7277C77.7968 46.4656 78.0758 46.2634 78.3346 46.0502Z" fill="#F45962"/>
<path d="M56.8889 38.9536L57.0575 39.0355L57.2583 39.0874C57.0034 39.6184 57.2785 40.0085 57.4795 40.5339C57.6668 41.0235 58.133 42.6712 58.5783 42.9017C58.4839 43.0963 58.5133 43.1386 58.3013 43.2297C58.1052 43.3138 58.1815 43.2746 58.0203 43.373L57.3341 41.781C57.3676 41.6538 57.2028 41.2161 57.17 41.0505C57.0322 40.3553 56.9306 39.6602 56.8889 38.9536Z" fill="#BB2E3E"/>
<path d="M58.5783 42.9017C58.133 42.6712 57.6667 41.0234 57.4795 40.5339C57.2785 40.0085 57.0034 39.6184 57.2583 39.0874C57.5666 39.5161 58.3212 40.3048 58.4809 40.761C58.6454 41.2309 58.5758 42.3869 58.5783 42.9017Z" fill="#20232A"/>
<path d="M61.9735 50.289C61.2694 48.7567 61.0252 47.2338 61.0604 45.5692L61.7781 46.2951C61.7884 46.6205 61.9636 46.8933 62.1092 47.1796L62.1007 47.2691C62.0838 48.0591 62.0289 48.8702 62.1122 49.6567L61.9735 50.289Z" fill="#E54E5A"/>
<path d="M80.441 41.639C80.6909 41.8715 81.0181 42.1289 81.203 42.414C81.3878 42.6995 81.4338 42.9489 81.7374 43.1529C81.5951 43.5592 81.4416 43.743 81.0965 44.0111C80.6147 44.2335 80.18 44.4343 79.6533 44.5454L80.441 41.639Z" fill="url(#paint10_linear_17_1277)"/>
<path d="M56.8889 38.9537C56.9496 38.5868 57.0161 38.1295 57.3516 37.8913C57.5717 37.7349 57.9097 37.7002 58.1616 37.773C58.5351 37.8811 58.9361 38.2501 59.1521 38.5575C59.2304 39.2368 59.2393 39.9905 59.4004 40.6513L59.2323 40.6631C58.8501 40.0354 57.8563 39.4391 57.8563 38.7097L58.1821 38.7454C57.9834 38.5745 57.8171 38.4637 57.5762 38.3539L57.3549 38.566C57.2521 38.7207 57.1435 38.8714 57.0575 39.0356L56.8889 38.9537Z" fill="#F45962"/>
<path d="M57.0576 39.0355C57.1436 38.8714 57.2521 38.7206 57.355 38.5659C57.9888 39.8116 59.0755 40.794 59.4968 42.1442L59.6799 42.7169C59.1521 43.2987 59.0169 43.5478 59.0101 44.3059C58.5878 44.0255 58.3071 43.7839 58.0204 43.373C58.1816 43.2746 58.1053 43.3138 58.3014 43.2297C58.5134 43.1386 58.484 43.0963 58.5784 42.9017C58.5759 42.3869 58.6455 41.2309 58.481 40.761C58.3213 40.3048 57.5667 39.5161 57.2584 39.0874L57.0576 39.0355Z" fill="#D2333F"/>
<path d="M80.7166 40.5342L80.9821 38.2239C81.2376 37.9614 81.4482 37.7443 81.7788 37.5734C82.1519 37.5947 82.3222 37.5842 82.5654 37.8822C83.0091 38.4246 82.739 39.3875 82.646 40.0288C82.3077 41.0705 82.181 42.1345 81.7373 43.1529C81.4337 42.9489 81.3877 42.6995 81.2028 42.414C81.018 42.1289 80.6908 41.8714 80.4409 41.639L80.7166 40.5342Z" fill="#BB2E3E"/>
<path d="M81.5481 40.1214L82.2585 39.0152L82.3952 38.8126C82.4647 39.2521 82.4501 40.115 82.2294 40.5087C82.1498 40.7229 81.9952 40.9241 81.8731 41.1192C81.8697 41.5881 81.8428 42.0038 81.7274 42.4603L81.5829 42.4593C81.463 42.177 81.4305 41.8913 81.342 41.6024C81.1436 40.9617 81.2568 40.7168 81.5481 40.1214Z" fill="#20232A"/>
<path d="M79.3767 34.2715L79.5414 34.1652C79.8529 34.4526 79.9918 35.1092 80.1879 35.4983L79.9335 33.4963C79.5985 31.0203 77.8696 29.636 75.9446 28.2087C76.1664 27.7489 76.218 27.2784 76.4253 26.8434C78.1721 28.0598 79.4797 29.5848 80.2988 31.5189C80.6529 32.6844 80.8288 33.791 80.8927 35.0064L80.7515 37.4881L80.4837 40.2307L80.161 41.8132C79.9403 43.1604 79.1929 44.144 78.3682 45.2119L77.8584 44.7878C77.6253 44.1429 77.5749 43.7111 77.7676 43.0498C77.9133 42.839 78.0758 42.6262 78.0982 42.3667C78.1385 41.9116 77.9391 41.826 77.6343 41.5077C77.8281 41.3093 78.0623 41.2654 78.3245 41.1907L78.45 41.1632C78.8657 40.8506 79.2288 39.5274 79.4865 38.9976C79.8977 37.6437 79.7363 35.6304 79.3767 34.2715Z" fill="url(#paint11_linear_17_1277)"/>
<path d="M79.4865 38.9977C79.8607 38.8746 79.9134 38.7876 80.1644 38.5077L80.1106 38.239C79.891 38.2302 80.0008 38.2056 79.7901 38.3408C79.8562 37.9845 79.891 37.6431 79.9044 37.2814C80.2002 37.1235 80.291 36.8091 80.5521 36.8617L80.6305 36.9381L80.4915 37.019L80.5196 37.1399C80.5621 37.3959 80.6036 37.9433 80.5464 38.2059C80.4658 38.5744 80.0624 38.5564 80.4344 39.0152C80.4221 39.2341 80.3705 39.3772 80.3235 39.5816L80.2663 40.2571L80.0422 40.0413L79.8192 40.256L79.9313 40.4178C79.9302 40.6734 79.9705 40.7377 79.8192 40.9573C79.8226 41.2321 79.7565 41.3732 79.9627 41.5787C80.1274 41.7437 80.0736 41.6707 80.161 41.8132C79.9403 43.1604 79.1929 44.1441 78.3682 45.2119L77.8584 44.7878C77.6253 44.143 77.5749 43.7112 77.7676 43.0498C77.9133 42.839 78.0758 42.6262 78.0982 42.3667C78.1385 41.9116 77.9391 41.826 77.6343 41.5077C77.8281 41.3093 78.0623 41.2654 78.3245 41.1907L78.45 41.1632C78.8657 40.8506 79.2287 39.5275 79.4865 38.9977Z" fill="#F45962"/>
<path d="M65.1897 26.4812C65.1692 26.123 65.2417 25.7061 65.3623 25.368C65.6342 24.6052 66.3044 23.8941 67.0523 23.5364C68.7261 22.7356 71.087 22.8034 72.8272 23.3845C73.3303 24.3141 73.3952 25.3533 73.0972 26.3609C72.8025 27.3545 72.0204 28.2628 71.0781 28.7513C70.1805 29.2169 69.0544 29.3629 68.0706 29.0573C66.9118 28.6974 65.714 27.8603 65.2498 26.7409C65.2008 26.6226 65.2031 26.5921 65.1897 26.4812Z" fill="#214C85"/>
<path d="M69.2295 40.911C70.1494 40.7978 70.6301 40.7528 71.3853 41.324L71.5635 41.4625L72.535 41.8284C73.3552 41.8912 74.9205 41.8822 75.595 41.4124C75.9424 41.7583 76.2281 42.1374 76.7581 42.1846C77.1167 41.9801 77.4327 41.8699 77.6343 41.5077C77.9391 41.826 78.1386 41.9116 78.0982 42.3667C78.0758 42.6262 77.9133 42.8389 77.7677 43.0498C77.575 43.7111 77.6254 44.1429 77.8584 44.7877L78.3683 45.2119L78.0456 45.473L77.8741 45.62C77.5682 45.8746 77.2007 45.9683 76.8444 46.1365L76.8847 46.3156C77.0808 46.4129 77.492 46.5469 77.5884 46.7277C77.7587 47.0743 77.9414 47.4322 78.031 47.8076C78.1621 48.3573 78.0232 48.7419 78.384 49.2348C78.0456 50.4626 77.6859 51.7374 76.7839 52.7035C76.5833 52.4059 76.6539 52.0447 76.6584 51.7045C76.6674 50.984 76.7223 49.8319 76.2528 49.2906C75.6197 48.515 75.1121 47.5658 74.4017 46.8711C73.5232 46.5388 72.145 46.8398 71.4727 46.115C70.7892 46.2418 70.1662 46.2841 69.4704 46.2756L68.2435 45.9633C67.8659 45.7181 67.6182 45.571 67.4345 45.1611C67.3157 44.8834 67.3773 44.8248 67.4658 44.532C67.6093 44.3078 67.7572 44.1301 67.9376 43.9351L68.3129 43.4557L68.053 43.0863L67.1398 43.0287C66.5457 42.9764 66.1054 42.9747 65.7134 42.524L66.2602 42.2126C66.0384 42.1013 66.0171 42.0829 65.8925 41.8744L66.8068 41.8578C67.6518 41.7183 68.4496 41.2522 69.2295 40.911Z" fill="url(#paint12_linear_17_1277)"/>
<path d="M76.7581 42.1847C77.1166 41.9801 77.4326 41.87 77.6343 41.5078C77.9391 41.8261 78.1385 41.9116 78.0982 42.3667C78.0758 42.6262 77.9133 42.839 77.7676 43.0499C77.5749 43.7112 77.6253 44.143 77.8584 44.7878L78.3682 45.212L78.0455 45.4731C77.966 45.2856 77.8819 45.0907 77.7475 44.9321C77.167 44.2453 74.1451 42.0247 73.326 41.9568C73.0481 41.9337 72.8072 41.8923 72.5349 41.8284C73.3551 41.8912 74.9205 41.8823 75.595 41.4125C75.9423 41.7584 76.2281 42.1375 76.7581 42.1847Z" fill="#BB2E3E"/>
<path d="M68.3129 43.4557C68.9796 42.9978 69.4917 42.659 70.35 42.8087C71.0884 42.9374 71.866 43.5141 72.2615 44.1157C72.5036 44.4821 72.7713 44.9521 72.6548 45.3912L72.601 45.4846C72.3052 45.8613 71.9164 45.9531 71.4727 46.115C70.7892 46.2418 70.1662 46.2841 69.4704 46.2755L68.2434 45.9633C67.8658 45.7181 67.6182 45.571 67.4344 45.161C67.3156 44.8834 67.3773 44.8248 67.4658 44.532C67.6092 44.3078 67.7571 44.1301 67.9375 43.9351L68.3129 43.4557Z" fill="#20232A"/>
<path d="M67.9373 43.9352L68.0381 43.911C68.2129 43.852 68.3149 43.7628 68.4606 43.6582C69.0589 43.2318 69.5878 43.0412 70.3374 43.1373C71.0063 43.2231 71.2719 43.6081 71.6708 44.089L72.0204 44.5076L68.4919 44.5359C68.1255 44.5264 67.832 44.6046 67.4656 44.5321C67.609 44.3078 67.7569 44.1301 67.9373 43.9352Z" fill="#BB2E3E"/>
<path d="M68.2432 45.9634L69.4701 46.2756C70.1659 46.2842 70.7889 46.2419 71.4724 46.1151C72.1447 46.8398 73.523 46.5389 74.4014 46.8711C75.1118 47.5659 75.6194 48.5151 76.2525 49.2907C76.722 49.832 76.6671 50.9841 76.6581 51.7046C76.6536 52.0448 76.583 52.406 76.7836 52.7035L76.2144 53.1643L75.9802 53.44C74.8731 54.2285 73.4658 55.5426 72.0775 55.8028C71.4265 55.9248 70.6623 55.8635 69.9934 55.8637C69.3244 55.8638 68.5233 55.9355 67.8779 55.8187C66.8518 55.6333 65.9733 54.9308 65.184 54.3162C65.0587 54.2187 64.7518 53.9138 64.6092 53.8726L64.1871 53.498C63.9342 53.3199 63.7141 53.1121 63.4849 52.9069C63.7184 52.6062 63.6351 52.321 63.637 51.9503C63.6408 51.1661 63.5123 49.7303 63.8331 49.0425L63.9175 48.9615C64.7923 48.3256 64.7254 47.296 65.8354 46.8765C66.5182 46.8884 67.082 46.7731 67.7367 46.6109L68.2432 45.9634Z" fill="#E54E5A"/>
<path d="M63.4849 52.9069C63.7184 52.6062 63.6351 52.321 63.637 51.9503C63.6408 51.1661 63.5123 49.7302 63.8331 49.0425L63.9537 49.285L64.1967 49.3585C64.0172 50.7823 64.1913 52.0895 64.1871 53.498C63.9342 53.3198 63.7141 53.112 63.4849 52.9069Z" fill="#BB2E3E"/>
<path d="M69.4748 51.1219C70.2043 51.0941 70.9012 51.0544 71.6027 51.2939C72.0352 51.4419 72.7176 51.7083 72.9249 52.1249L72.759 52.2779L70.8295 51.6691L70.6839 51.6366C69.1846 51.5648 68.1448 51.998 66.7681 52.4656C67.2361 51.982 67.7414 51.6393 68.388 51.4017L69.4748 51.1219Z" fill="#20232A"/>
<path d="M68.2433 45.9634L69.4703 46.2756C70.1661 46.2842 70.7891 46.2419 71.4726 46.1151C72.1449 46.8398 73.5231 46.5389 74.4016 46.8711C75.112 47.5659 75.6195 48.5151 76.2526 49.2907L75.7103 49.4867C75.1915 49.2685 74.629 49.1534 74.0822 49.0154C71.8155 48.4525 69.3033 48.2309 66.9825 48.6856L65.2099 49.1134C64.8666 49.1747 64.5153 49.2152 64.1969 49.3586L63.9538 49.2851L63.8333 49.0425L63.9176 48.9615C64.7924 48.3256 64.7255 47.296 65.8356 46.8765C66.5183 46.8884 67.0821 46.7731 67.7368 46.6109L68.2433 45.9634Z" fill="#BB2E3E"/>
<path d="M68.2435 45.9634L69.4705 46.2756C69.0312 46.5898 68.2738 46.6263 67.7371 46.6109L68.2435 45.9634Z" fill="#D2333F"/>
<path d="M74.4016 46.8711C75.112 47.5659 75.6195 48.5151 76.2526 49.2906L75.7103 49.4867C75.1915 49.2684 74.629 49.1534 74.0822 49.0154C71.8155 48.4525 69.3033 48.2309 66.9825 48.6855L65.2099 49.1134C64.8666 49.1746 64.5153 49.2151 64.1969 49.3585L63.9538 49.285L63.8333 49.0425L63.9176 48.9614C64.7924 48.3256 64.7255 47.296 65.8356 46.8765C65.6848 47.4664 65.3291 48.0202 65.0428 48.5594L65.269 48.6287C68.4887 47.4039 71.3157 47.4274 74.5114 48.6684L74.8307 48.6951C74.88 48.0526 74.1192 47.5639 74.4016 46.8711Z" fill="#20232A"/>
<path d="M74.8666 25.9956C75.4246 26.2469 75.9288 26.4864 76.4252 26.8434C76.2179 27.2784 76.1664 27.7489 75.9445 28.2087C77.8695 29.636 79.5985 31.0203 79.9335 33.4963L80.1878 35.4983C79.9918 35.1091 79.8528 34.4526 79.5413 34.1652L79.3766 34.2715C79.7363 35.6304 79.8976 37.6437 79.4864 38.9976C79.2287 39.5274 78.8657 40.8506 78.4499 41.1632L78.3245 41.1907C78.0623 41.2654 77.8281 41.3093 77.6342 41.5077C77.4325 41.8699 77.1165 41.9801 76.758 42.1847C76.228 42.1374 75.9423 41.7584 75.5949 41.4124C74.9204 41.8822 73.355 41.8912 72.5348 41.8284L71.5634 41.4625L71.3852 41.3241C70.63 40.7528 70.1493 40.7978 69.2294 40.911C68.4495 41.2522 67.6517 41.7183 66.8066 41.8578L65.8924 41.8745C66.017 42.0829 66.0383 42.1014 66.2601 42.2126L65.7133 42.524C66.1053 42.9747 66.5456 42.9764 67.1396 43.0288L68.0529 43.0863L68.3128 43.4557L67.9374 43.9351C67.757 44.1301 67.6091 44.3078 67.4657 44.532C67.3772 44.8249 67.3156 44.8835 67.4343 45.1611C67.6181 45.571 67.8657 45.7182 68.2433 45.9633L67.7369 46.6108C67.0822 46.773 66.5183 46.8883 65.8356 46.8765C64.7255 47.296 64.7924 48.3256 63.9177 48.9614L63.8333 49.0424C63.5125 49.7302 63.641 51.166 63.6372 51.9502C63.6353 52.321 63.7185 52.6062 63.485 52.9069C63.2186 52.634 63.003 52.3549 62.7839 52.0457C62.3857 51.5286 62.1794 50.8942 61.9735 50.289L62.1122 49.6567C62.0288 48.8702 62.0837 48.0592 62.1007 47.2691L62.1092 47.1797C62.1335 46.9025 62.0957 46.6958 62.2823 46.4751L63.0106 46.4544L63.1419 46.2983C62.5857 45.9825 62.1162 45.8251 61.6583 45.3558L61.5634 45.2556L60.7415 44.406C60.06 43.2106 59.8169 41.9634 59.462 40.6633L59.4437 40.3117C59.357 39.8305 59.35 39.4614 59.3708 38.9673L59.3389 38.0487C59.33 36.8359 59.2176 35.4104 59.4599 34.2224C59.4616 33.4151 59.5959 32.6408 59.7629 31.8527C60.4775 29.8791 61.5111 28.3772 63.2653 27.1172L64.8998 26.2173L65.0653 26.4549L65.0662 26.659C65.0898 27.8318 66.0014 29.0717 66.8679 29.8549C67.7548 30.6564 68.9537 31.1734 70.1852 31.1122C71.5847 31.0427 72.676 30.3833 73.5646 29.3669C74.3803 28.4339 74.9921 27.2369 74.8666 25.9956Z" fill="#F45962"/>
<path d="M62.1006 47.2692L62.383 47.5423C62.7482 47.8334 62.8294 48.4337 62.8761 48.8732C62.9517 49.5863 63.1328 51.4449 62.7838 52.0458C62.3856 51.5286 62.1793 50.8943 61.9734 50.2891L62.1121 49.6568C62.0287 48.8703 62.0836 48.0592 62.1006 47.2692Z" fill="#F1737C"/>
<path d="M66.3356 41.6717L67.0105 41.6295L66.8066 41.8578L65.8924 41.8745C66.017 42.0829 66.0383 42.1014 66.2601 42.2126L65.7133 42.524C64.0255 43.1645 63.1418 44.5454 61.8735 45.6847C61.9614 44.384 63.0445 43.1763 63.0312 41.9533L63.0283 41.826C63.5543 41.9284 63.9312 41.9212 64.4529 41.8144L66.3356 41.6717Z" fill="#64182F"/>
<path d="M59.7629 31.8527C60.4775 29.8791 61.5111 28.3771 63.2653 27.1172L63.325 27.3117C63.4427 27.6487 63.7714 27.8477 64.0522 28.0549L63.9093 28.1522C61.8153 29.5884 60.7535 31.4457 60.3324 33.8626C60.3854 34.4911 60.3233 35.1183 60.2796 35.7457C60.319 36.9226 60.2931 38.1318 60.5582 39.2848L61.5261 43.627C61.7636 44.0007 61.7703 44.5206 61.6633 44.9407L61.6152 45.0803L61.5634 45.2556L60.7415 44.406C60.06 43.2105 59.8169 41.9633 59.462 40.6632L59.4437 40.3117C59.357 39.8305 59.35 39.4613 59.3708 38.9673L59.3389 38.0486C59.33 36.8358 59.2176 35.4104 59.4599 34.2224C59.4616 33.4151 59.5959 32.6408 59.7629 31.8527Z" fill="url(#paint13_linear_17_1277)"/>
<path d="M59.9438 39.1507C59.9848 38.6086 59.868 38.0357 59.957 37.505C60.0221 37.1171 59.8787 36.5503 59.9863 36.2097C60.0299 36.0718 60.1978 35.8752 60.2796 35.7457C60.3189 36.9226 60.293 38.1318 60.5581 39.2848L61.526 43.627C61.3715 43.6127 61.4617 43.6282 61.2597 43.5605L60.9266 42.598L59.9438 39.1507Z" fill="#EF9BA0"/>
<path d="M77.7687 34.5337L78.0231 34.5612L78.4735 34.1753C78.8299 34.135 79.0428 34.1044 79.3767 34.2715C79.7364 35.6304 79.8977 37.6437 79.4865 38.9976C79.2288 39.5274 78.8657 40.8506 78.45 41.1632L78.3245 41.1907C78.0623 41.2653 77.8281 41.3093 77.6343 41.5077C77.4326 41.8699 77.1166 41.9801 76.7581 42.1846C76.2281 42.1374 75.9423 41.7583 75.595 41.4124C74.9205 41.8822 73.3551 41.8912 72.5349 41.8284L71.5634 41.4625L71.3853 41.324C70.6301 40.7528 70.1494 40.7978 69.2294 40.911C68.4496 41.2522 67.6518 41.7183 66.8067 41.8578L67.0105 41.6295L66.3357 41.6717L64.453 41.8143C63.9313 41.9212 63.5544 41.9284 63.0284 41.826L61.6482 40.8268L62.0398 40.8997C62.4793 40.9801 62.8552 41.0627 63.262 41.2424C63.4596 41.3297 63.6181 41.409 63.8329 41.4538L63.963 41.4725C63.1258 40.8007 62.5498 40.1786 62.0655 39.2428C61.7435 38.6349 61.4831 37.8322 61.3402 37.1612C61.2018 36.5112 61.1502 35.5368 61.5502 34.9691C61.7489 34.6871 61.77 34.6528 62.1143 34.589C62.4894 34.7374 62.7465 34.9972 63.0412 35.2591C63.565 35.9268 64.0856 36.6885 64.706 37.2726C65.4759 37.9975 66.4619 38.5201 67.4367 38.945C67.561 38.9656 67.8277 39.0463 67.9409 39.0285C67.9599 39.0255 68.2636 38.9051 68.277 38.9043C68.602 38.8854 69.3045 39.6431 69.5365 39.8556C69.9835 39.5257 70.6312 39.5016 71.122 39.1102L71.3057 38.9467C71.5085 38.9782 71.6945 39.0002 71.9007 38.9848C73.5848 38.8583 74.87 37.5355 75.9188 36.398L75.9121 36.3911C76.2247 35.9125 76.7581 35.1339 77.2903 34.8825L77.7687 34.5337Z" fill="#20232A"/>
<path d="M77.7685 34.5337L78.0229 34.5612L78.4733 34.1753C78.8296 34.135 79.0425 34.1044 79.3764 34.2715C79.7361 35.6304 79.8975 37.6437 79.4862 38.9976C79.2285 39.5274 78.8655 40.8506 78.4498 41.1632L78.3243 41.1907C78.0722 41.1209 78.024 41.0805 77.7584 41.1375L77.4088 40.8633C76.8351 40.9404 76.694 41.3729 76.0811 41.3695C76.8385 40.8088 77.7483 40.1529 78.2156 39.3297C78.7949 38.3108 79.0974 36.547 78.6851 35.431C78.5148 34.9711 78.2111 34.7386 77.7685 34.5337Z" fill="#D2333F"/>
<path d="M62.4899 37.9272C64.344 37.5894 65.3942 38.6405 67.049 39.1951C67.5509 39.4477 68.3667 39.8145 68.574 40.3639C68.6188 40.4845 68.621 40.5661 68.6333 40.6876C68.2781 41.095 67.5509 41.5016 67.0105 41.6296L66.3357 41.6718L65.0727 41.3514C64.0045 40.978 63.0045 39.9049 62.5394 38.939C62.4564 38.5707 62.4454 38.3008 62.4899 37.9272Z" fill="#FFFE91"/>
<path d="M76.1103 37.8173C76.6369 37.8089 77.3551 38.0216 77.8269 37.8821C77.93 38.4356 77.6745 39.1703 77.326 39.6173C76.8588 40.2188 75.9713 40.8406 75.2542 41.1196C75.1086 41.2588 74.6906 41.3398 74.4934 41.3772C73.4838 41.5689 72.5886 41.5749 71.7078 41.0069C71.533 40.7929 71.3818 40.6178 71.3549 40.3371C71.3291 40.0526 71.5207 39.9356 71.6989 39.7222C72.2995 39.427 72.9852 39.2738 73.6116 39.026C74.2659 38.7671 74.8688 38.4081 75.4738 38.0577L76.1103 37.8173Z" fill="#FFFE91"/>
<defs>
<linearGradient id="paint0_linear_17_1277" x1="46.7075" y1="45.4407" x2="37.9991" y2="51.7897" gradientUnits="userSpaceOnUse">
<stop stop-color="#733248"/>
<stop offset="1" stop-color="#964351"/>
</linearGradient>
<linearGradient id="paint1_linear_17_1277" x1="83.0739" y1="99.2636" x2="90.5936" y2="108.673" gradientUnits="userSpaceOnUse">
<stop stop-color="#037385"/>
<stop offset="1" stop-color="#1596BD"/>
</linearGradient>
<linearGradient id="paint2_linear_17_1277" x1="63.8038" y1="72.9848" x2="64.6825" y2="77.8612" gradientUnits="userSpaceOnUse">
<stop stop-color="#D2F1E8"/>
<stop offset="1" stop-color="#75DFED"/>
</linearGradient>
<linearGradient id="paint3_linear_17_1277" x1="119.084" y1="50.343" x2="116.362" y2="67.366" gradientUnits="userSpaceOnUse">
<stop stop-color="#DC6363"/>
<stop offset="1" stop-color="#F0887E"/>
</linearGradient>
<linearGradient id="paint4_linear_17_1277" x1="110.93" y1="106.765" x2="71.7326" y2="113.98" gradientUnits="userSpaceOnUse">
<stop stop-color="#47ABC2"/>
<stop offset="1" stop-color="#0BD7DC"/>
</linearGradient>
<linearGradient id="paint5_linear_17_1277" x1="82.3496" y1="31.5013" x2="108.206" y2="59.6197" gradientUnits="userSpaceOnUse">
<stop stop-color="#106075"/>
<stop offset="1" stop-color="#18E5ED"/>
</linearGradient>
<linearGradient id="paint6_linear_17_1277" x1="53.2742" y1="28.4547" x2="30.9279" y2="64.2219" gradientUnits="userSpaceOnUse">
<stop stop-color="#4EB0C7"/>
<stop offset="1" stop-color="#0DD9E2"/>
</linearGradient>
<linearGradient id="paint7_linear_17_1277" x1="42.0677" y1="60.6885" x2="38.1805" y2="62.2309" gradientUnits="userSpaceOnUse">
<stop stop-color="#047294"/>
<stop offset="1" stop-color="#0B95AB"/>
</linearGradient>
<linearGradient id="paint8_linear_17_1277" x1="36.4431" y1="89.8556" x2="64.3857" y2="115.385" gradientUnits="userSpaceOnUse">
<stop stop-color="#072F44"/>
<stop offset="1" stop-color="#14E1E8"/>
</linearGradient>
<linearGradient id="paint9_linear_17_1277" x1="69.6179" y1="74.1061" x2="71.4667" y2="51.1424" gradientUnits="userSpaceOnUse">
<stop stop-color="#073548"/>
<stop offset="1" stop-color="#115467"/>
</linearGradient>
<linearGradient id="paint10_linear_17_1277" x1="80.2629" y1="42.521" x2="80.7106" y2="43.9704" gradientUnits="userSpaceOnUse">
<stop stop-color="#BF2E4E"/>
<stop offset="1" stop-color="#DF3F55"/>
</linearGradient>
<linearGradient id="paint11_linear_17_1277" x1="76.6001" y1="33.782" x2="79.9652" y2="30.4333" gradientUnits="userSpaceOnUse">
<stop stop-color="#FC7F88"/>
<stop offset="1" stop-color="#FFAFBF"/>
</linearGradient>
<linearGradient id="paint12_linear_17_1277" x1="65.5224" y1="44.2674" x2="78.4201" y2="48.3505" gradientUnits="userSpaceOnUse">
<stop stop-color="#CD3A4E"/>
<stop offset="1" stop-color="#FF656B"/>
</linearGradient>
<linearGradient id="paint13_linear_17_1277" x1="66.4846" y1="39.7671" x2="58.2625" y2="32.0334" gradientUnits="userSpaceOnUse">
<stop stop-color="#FB5C60"/>
<stop offset="1" stop-color="#FFBBC4"/>
</linearGradient>
</defs>
</svg>
