<?xml version="1.0" encoding="utf-8" ?>
<svg xmlns="http://www.w3.org/2000/svg" xmlns:xlink="http://www.w3.org/1999/xlink" width="300" height="300">
	<path fill="#064880" transform="scale(0.292969 0.292969)" d="M265.896 778.876C262.076 779.455 258.378 780.891 254.612 781.787C247.908 783.382 241.048 784.457 234.192 785.142C199.686 788.591 162.326 775.69 134.759 755.42C102.936 732.021 79.658 694.344 73.9243 655.165C67.4988 611.259 78.992 566.549 105.808 531.131C120.583 511.616 140.335 495.152 162.417 484.609C169.431 481.26 176.874 478.776 184.184 476.153C171.15 433.784 176.751 387.887 197.471 348.952C217.809 310.734 251.94 282.061 293.466 269.418C305.75 265.678 318.129 263.644 330.971 263.34C335.594 252.671 340.599 242.288 346.951 232.522C367.564 200.832 397.429 177.557 432.496 163.743C474.94 147.024 524.493 149.866 565.968 168.206C580.833 174.78 594.743 184.155 607.06 194.734C611.592 198.626 615.858 202.838 619.922 207.214C621.448 208.857 629.697 218.771 630.826 219.142C631.123 219.239 632.496 218.844 632.913 218.774C635.683 218.313 638.449 217.808 641.25 217.575C649.584 216.882 657.589 217.218 665.875 218.193C718.264 224.357 763.882 263.054 782.482 311.821C785.879 320.728 788.629 330.121 789.644 339.631C789.948 342.481 790.268 356.424 791.299 357.734C791.65 358.181 793.547 359.019 794.112 359.334L804.512 364.935C823.822 376.224 839.413 392.62 849.496 412.591C856.126 425.722 860.345 439.996 861.735 454.641L862.467 467.658C862.473 468.188 862.291 471.931 862.471 472.179C862.881 472.74 865.735 473.852 866.598 474.302L877.188 480.417C885.083 485.386 892.558 490.988 899.553 497.158C949.169 540.923 964.831 614.025 937.458 674.155C922.602 706.79 895.867 733.356 862.036 745.753C850.757 749.886 837.948 752.251 825.941 751.817C819.683 751.59 813.439 751.065 807.258 750.037C806.122 749.848 799.979 748.325 799.261 748.61C798.887 748.759 798.069 749.857 797.728 750.21L792.623 755.344C790.358 757.43 787.834 759.343 785.345 761.15C760.818 778.955 728.663 787.259 699.346 777.239C687 796.27 668.178 810.71 645.811 815.473C636.27 817.506 626.785 817.528 617.253 815.452L609.128 813.323C608.568 813.151 606.982 812.43 606.565 812.489C606.378 812.516 602.143 817.752 601.647 818.311C595.547 825.192 588.824 831.618 581.33 836.961C557.669 853.827 529.897 859.051 501.5 855.14C488.138 853.299 474.978 849.512 463.607 842.069L452.928 834.389C432.571 843.217 411.196 844.75 390.293 836.488C378.27 831.736 367.361 823.737 359.411 813.522C356.775 810.135 354.397 806.36 352.514 802.5C352.085 801.62 350.463 797.208 349.75 796.855C349.582 796.772 346.277 797.625 345.662 797.739C336.743 799.398 327.72 799.734 318.711 798.714C309.974 797.725 301.828 795.417 293.761 791.959L277.366 784.284C273.289 783.199 269.339 781.3 265.896 778.876Z"/>
	<path fill="#0E83B8" transform="scale(0.292969 0.292969)" d="M265.896 778.876C267.465 778.328 268.667 777.791 270.357 778.148C272.312 779.613 276.557 782.098 277.366 784.284C273.289 783.199 269.339 781.3 265.896 778.876Z"/>
	<path fill="#C8C6BA" transform="scale(0.292969 0.292969)" d="M359.091 776.04C360.059 775.941 360.914 775.874 361.882 775.988C367.543 791.374 379.132 804.007 394 811.048C401.945 814.81 409.781 816.281 418.349 817.669C425.569 818.838 433.064 817.795 440.267 817.127C443.535 816.823 446.521 816.956 449.743 816.121L451.07 816.752C433.2 822.536 413.364 827.174 395.316 819.29C376.04 810.871 366.47 794.838 359.091 776.04Z"/>
	<path fill="#85A9A8" transform="scale(0.292969 0.292969)" d="M361.882 775.988L362.934 775.25C366.682 778.973 370.624 783.522 374.895 786.595C379.141 789.648 383.074 792.628 387.753 795.053C396.712 799.695 406.603 802.089 416.5 803.472C422.116 804.257 428.096 805.038 433.801 804.32L441.109 802.902C443.637 805.404 446.128 808.015 448.804 810.357C450.687 812.006 453.072 813.656 454.551 815.675L451.07 816.752L449.743 816.121C446.521 816.956 443.535 816.823 440.267 817.127C433.064 817.795 425.569 818.838 418.349 817.669C409.781 816.281 401.945 814.81 394 811.048C379.132 804.007 367.543 791.374 361.882 775.988Z"/>
	<path fill="#C8C6BA" transform="scale(0.292969 0.292969)" d="M925.316 597.34L925.57 596.125C926.162 597.188 926.103 597.247 926.093 598.398C926.084 599.334 926.109 599.759 926.398 600.653C926.953 602.371 926.535 604.691 926.5 606.5C926.415 610.885 926.817 615.424 926.144 619.754L925.527 624.716L925.921 625.109C926.841 624.226 927.135 623.579 927.753 622.503L928.363 621.675C929.805 619.727 930.103 617.292 931.318 615.235C931.782 616.457 932.56 617.726 932.334 619.017C931.979 621.044 931.845 623.234 932.241 625.259L933 625.25C932.93 623.964 932.85 623.456 933.25 622.255C934.084 619.753 933.558 614.063 933.296 611.391C933.118 609.581 933.572 607.781 933.38 605.915L933.942 605.676C936.201 638.267 925.597 671.447 904.13 696.212C886.457 716.6 860.774 731.898 833.5 734.048C826.902 734.568 820.439 733.507 813.903 732.827C819.228 731.367 825.912 731.995 831.536 731.258C850.484 728.774 867.258 719.496 881.831 707.449C888.353 702.058 894.698 695.897 899.943 689.25C916.186 668.667 923.071 643.359 925.476 617.72C926.24 611.047 925.823 604.023 925.316 597.34Z"/>
	<defs>
		<linearGradient id="gradient_0" gradientUnits="userSpaceOnUse" x1="767.41193" y1="805.52191" x2="239.00592" y2="322.29236">
			<stop offset="0" stop-color="#C7C7BD"/>
			<stop offset="1" stop-color="#FFFFFE"/>
		</linearGradient>
	</defs>
	<path fill="url(#gradient_0)" transform="scale(0.292969 0.292969)" d="M131.902 730.395C110.612 710.835 98.1693 684.115 92.1778 656.242C84.4204 620.154 93.6676 580.593 113.495 549.891C135.28 516.154 168.83 496.751 207.579 488.44C203.725 478.778 199.999 469.041 197.75 458.86C194.028 442.007 194.469 424.596 196.464 407.562C203.41 348.244 248.682 297.655 306.867 284.317C315.908 282.244 325.671 280.489 334.974 280.839C336.126 280.882 342.917 281.511 343.31 280.968C344.18 279.769 344.862 276.951 345.405 275.5L351.235 260.579C360.763 238.939 376.193 219.836 394.734 205.184C399.452 201.456 404.187 197.575 409.293 194.395C440.176 175.159 477.719 167.283 513.771 171.652C548.527 175.863 581.718 192.076 606.105 217.232C612.218 223.537 617.057 230.64 622.691 237.3L623.213 237.862C623.797 238.464 626.734 237.586 627.637 237.424C639.87 235.228 652.511 234.749 664.9 235.86C677.91 237.025 691.242 241.527 702.831 247.407C738.409 265.456 763.273 298.424 771.359 337.473C772.951 345.161 773.481 352.851 773.42 360.681C773.408 362.2 772.93 368.711 773.443 369.664C773.561 369.883 773.814 370.004 774.032 370.124C775.63 371.007 778.051 371.494 779.813 372.155C784.471 373.902 789.196 375.8 793.597 378.127C803.721 383.48 812.931 391.22 820.225 400.026C830.931 412.952 839.225 428.121 842.732 444.621C845.6 458.114 845.248 472.314 843.954 485.975C847.129 487.177 850.6 487.58 853.821 488.778C865.844 493.249 877.753 501.021 887.34 509.512C915.646 534.581 931.709 567.99 933.942 605.676L933.38 605.915C933.572 607.781 933.118 609.581 933.296 611.391C933.558 614.063 934.084 619.753 933.25 622.255C932.85 623.456 932.93 623.964 933 625.25L932.241 625.259C931.845 623.234 931.979 621.044 932.334 619.017C932.56 617.726 931.782 616.457 931.318 615.235C930.103 617.292 929.805 619.727 928.363 621.675L927.753 622.503C927.135 623.579 926.841 624.226 925.921 625.109L925.527 624.716L926.144 619.754C926.817 615.424 926.415 610.885 926.5 606.5C926.535 604.691 926.953 602.371 926.398 600.653C926.109 599.759 926.084 599.334 926.093 598.398C926.103 597.247 926.162 597.188 925.57 596.125L925.316 597.34C925.247 597.296 925.043 595.458 925.024 595.314C924.09 588.261 922.608 581.455 920.907 574.555C917.958 561.563 910.713 548.719 903.379 537.748C897.461 528.895 891.821 521.137 884.216 513.621C872.704 501.476 857.972 495.996 842.919 489.639C840.402 499.323 837.956 510.71 833.192 519.546L822.186 528.897C819.666 530.843 816.654 532.168 814.537 534.608C823.643 537.674 830.368 540.578 834.931 549.5C836.771 553.097 837.195 556.594 838.276 560.374C839.761 565.564 838.73 572.127 837.409 577.25C837.021 578.752 836.688 580.122 836.104 581.571C831.357 593.364 822.364 601.843 810.822 606.941L808 607.942L807.391 608.179L804.088 609.121C802.816 609.491 801.436 609.569 800.126 609.763C796.225 610.341 790.056 610.355 786.25 609.407C778.023 607.359 771.887 604.041 767.096 596.775C765.052 593.677 764.09 589.414 761.732 586.629C758.189 589.298 755.119 591.78 751.056 593.603C750.003 594.076 748.874 594.818 747.692 594.802L747.228 594.734L746.812 593.667L747.997 573.652C748.131 567.172 748.374 560.433 747.84 553.977C747.019 544.048 744.993 534.225 742.855 524.51L737.236 507.04L729.856 489.66C719.482 470.204 706.407 452.065 689.095 438.22C665.458 419.318 634.658 405.91 604.215 404.488C593.819 404.002 583.184 405.048 572.864 406.184C568.895 405.902 564.423 407.216 560.538 408.011C557.334 408.666 554.079 409.915 550.95 410.883C545.122 412.686 532.992 415.229 529.118 419.795C528.252 420.711 527.723 421.178 526.544 421.687L513.382 428.605L498.422 438.789C492.88 443.005 487.28 448.791 483.175 454.422L471.589 469.38C470.149 467.994 467.882 466.375 467.301 464.47C450.009 446.78 421.968 437.17 397.469 436.872C360.8 436.428 326.869 453.541 301.061 478.758C296.085 483.62 291.348 489.653 287.429 495.424L287.131 496.009C286.714 496.777 286.237 497.306 285.726 498L282.226 503L281.721 503.734L279.717 507.001C279.188 507.817 278.874 508.605 278.466 509.479L273.216 520.75L270.958 525.99C270.591 526.877 270.234 527.574 269.961 528.497L269.451 529.997L269.212 530.731C268.825 531.857 268.306 532.847 267.97 533.997L266.208 539.247L263.955 546.997L262.821 551.794C262.681 552.522 262.458 553.098 262.162 553.773L261.624 557.372L260.604 563.396C259.829 568.087 259.699 572.972 259.369 577.716C257.407 605.941 263.394 636.027 276.736 661.123C281.432 669.955 287.712 677.532 292.605 686.151C303.386 701.167 317.594 713.325 332.959 723.443C330.395 724.039 328.08 725.231 325.632 726.17C320.992 727.948 316.527 729.419 311.579 730.08C299.386 731.71 288.415 729.75 278.374 722.16L277.438 723.035C281.75 732.907 289.01 742.555 299.264 746.82L299.414 746.863C304.025 747.18 308.516 748.194 313.158 748.456C321.42 748.922 332.982 747.007 340.591 743.745C344.911 741.892 348.763 738.996 353.124 737.329L354.008 737.001L355.75 736.4C359.518 740.9 362.028 746.889 365.494 751.75C376.646 767.39 395.052 777.159 414.119 778.817L422.007 779.396C425.098 784.712 428.049 789.618 432.056 794.314L441.109 802.902L433.801 804.32C428.096 805.038 422.116 804.257 416.5 803.472C406.603 802.089 396.712 799.695 387.753 795.053C383.074 792.628 379.141 789.648 374.895 786.595C370.624 783.522 366.682 778.973 362.934 775.25L361.882 775.988C360.914 775.874 360.059 775.941 359.091 776.04C357.728 775.988 355.955 776.767 354.621 777.189L346.006 779.75C323.454 785.558 301.921 778.338 283.154 765.791C280.787 764.209 278.516 762.432 276.428 760.494C275.2 759.355 273.852 757.629 272.372 756.864L271.94 756.689C257.018 763.307 242.005 767.296 225.63 767.508C191.127 767.955 156.666 754.488 131.902 730.395Z"/>
	<path fill="#FCFCFA" transform="scale(0.292969 0.292969)" d="M139.652 624.234C142.456 624.016 145.316 624.175 147.912 625.367C152.677 627.555 156.322 632.194 158.083 637.064C159.216 640.199 159.762 645.287 158.225 648.362C156.185 652.443 152.075 654.205 147.958 655.383C144.488 655.924 142.471 656.06 139.25 654.323C134.163 651.579 130.399 646.617 128.865 641.069C127.884 637.524 128.475 633.16 130.47 630.083C132.765 626.543 135.675 625.079 139.652 624.234Z"/>
	<path fill="#A5AAA2" transform="scale(0.292969 0.292969)" d="M692.166 250.737C721.133 262.918 745.703 288.282 757.523 317.279C764.228 333.727 767.501 351.219 767.519 368.966C759.972 368.141 752.334 367.552 744.772 368.568C738.795 369.37 732.902 371.225 727.041 372.625L728.335 368.01C736.913 333.676 726.996 297.505 707.454 268.776C705.313 265.629 702.933 262.522 700.32 259.75C697.997 257.287 693.913 254.202 692.39 251.287L692.166 250.737Z"/>
	<path fill="#919F94" transform="scale(0.292969 0.292969)" d="M814.299 403.004C830.532 421.339 839.185 447.808 837.768 472.22C836.706 490.498 830.422 506.797 820.214 521.907C818.099 525.037 816.065 528.548 813.259 531.108C810.149 533.946 805.771 534.62 801.866 535.824C795.237 537.867 789.247 541.424 784.787 546.803C781.123 551.223 778.199 556.078 777.007 561.75C776.807 562.702 776.514 566.601 776.059 567.163C775.833 567.444 773.491 568.105 773.047 568.265C764.738 571.255 756.533 571.858 747.997 573.652C748.131 567.172 748.374 560.433 747.84 553.977C747.019 544.048 744.993 534.225 742.855 524.51L755.331 520.75C772.736 516.137 789.427 500.368 800.057 486.449C812.014 470.793 819.045 452.144 819.082 432.383C819.088 429.288 819.3 425.979 818.862 422.913C818.29 418.914 817.613 415.115 816.542 411.211C815.813 408.555 814.577 406.292 814.334 403.503L814.299 403.004Z"/>
	<path fill="#C8C6BA" transform="scale(0.292969 0.292969)" d="M729.856 489.66L732.969 489.115C741.052 487.609 747.226 485.184 751.88 478.039C761.008 464.027 759.105 444.012 755.535 428.497C759.246 429.737 762.116 430.859 766.102 429.802C769.969 428.778 773.496 426.318 775.375 422.717L775.661 422.143C776.701 420.133 777.618 418.014 777.925 415.75C778.736 409.77 777.115 403.746 773.43 398.971C768.128 392.1 759.669 390.904 751.645 389.83C754.624 384.934 756.742 380.275 758.799 374.944C760.665 374.618 763.614 375.607 765.501 375.987C775.564 378.017 785.351 380.456 793.994 386.255C800.904 389.885 810.068 396.507 814.299 403.004L814.334 403.503C814.577 406.292 815.813 408.555 816.542 411.211C817.613 415.115 818.29 418.914 818.862 422.913C819.3 425.979 819.088 429.288 819.082 432.383C819.045 452.144 812.014 470.793 800.057 486.449C789.427 500.368 772.736 516.137 755.331 520.75L742.855 524.51L737.236 507.04L729.856 489.66Z"/>
	<path fill="#A5AAA2" transform="scale(0.292969 0.292969)" d="M793.994 386.255C800.904 389.885 810.068 396.507 814.299 403.004L814.334 403.503C814.577 406.292 815.813 408.555 816.542 411.211C817.613 415.115 818.29 418.914 818.862 422.913C819.3 425.979 819.088 429.288 819.082 432.383C819.045 452.144 812.014 470.793 800.057 486.449C789.427 500.368 772.736 516.137 755.331 520.75L742.855 524.51L737.236 507.04C742.006 503.984 746.853 501.952 751.436 498.391C755.715 495.066 759.493 491.033 762.645 486.635L764.86 483.389C773.064 469.911 774.623 454.176 771.102 438.97C774.506 442.065 777.68 445.105 781.744 447.349C786.943 450.219 795.691 452.923 801.594 450.985C804.331 450.086 806.294 448.189 807.605 445.679C809.606 441.848 809.986 437.463 810.028 433.219C810.138 421.901 807.051 409.997 801.717 399.999C799.605 396.042 795.328 391.302 794.217 387.162L793.994 386.255Z"/>
	<path fill="#FCFCFA" transform="scale(0.292969 0.292969)" d="M461.685 456.88C457.03 452.624 452.008 447.028 448.257 441.944C438.054 428.116 435.099 409.981 437.727 393.253C441.311 370.435 454.428 349.857 473.098 336.374L473.848 335.84C486.033 327.074 499.593 321.759 514.25 318.873C524.414 316.871 535.391 317.25 545.541 319.221C562.294 322.473 579.88 330.889 592.033 342.949C597.629 348.503 602.086 354.856 606.504 361.347L605.859 361.338C604.485 361.142 603.586 360.234 602.5 359.452L593.911 353.137C573.588 338.506 550.793 335.822 526.533 338.16C530.709 339.643 535.038 340.999 538.936 343.14C547.738 347.976 553.933 355.593 559.281 363.908C543.015 359.41 525.509 360.339 510.669 368.758C501.517 373.95 494.054 382.438 491.418 392.75L490.276 398.724C489.422 403.74 489.736 409.507 489.909 414.592C483.215 410.759 475.159 406.718 471.542 399.5L471.162 398.753C470.379 397.177 469.886 395.705 469.49 394L468.27 389.273C459.42 404.127 452.833 424.66 456.641 441.974C457.229 444.646 457.891 447.268 458.903 449.818C459.847 452.198 461.467 454.285 461.685 456.88Z"/>
	<path fill="#E8E5DA" transform="scale(0.292969 0.292969)" d="M515.113 307.286C520.067 303.552 525.492 300.692 530.684 297.322C541.168 290.516 550.402 282.423 558.317 272.745C570.033 258.419 578.348 239.858 579.811 221.262C580.268 215.459 579.696 209.757 579.126 203.992C596.011 215.163 609.726 228.669 622.45 244.291L640.75 241.883C650.144 240.674 659.138 242.019 668.353 243.774C674.808 245.004 681.478 246.481 687.501 249.149L687.552 249.643C688.03 253.877 690.794 257.2 692.553 261C697.449 271.582 697.621 284.848 690.212 294.397C678.983 308.87 662.17 309.974 645.72 313.202C634.058 315.491 622.492 318.165 612.038 324.06C606.498 327.184 601.51 331.713 597.013 336.167C590.685 330.68 583.991 325.32 576.75 321.068C557.847 309.968 536.788 306.182 515.113 307.286Z"/>
	<path fill="#C8C6BA" transform="scale(0.292969 0.292969)" d="M687.501 249.149C689.125 249.464 690.512 249.776 692.01 250.489L692.166 250.737L692.39 251.287C693.913 254.202 697.997 257.287 700.32 259.75C702.933 262.522 705.313 265.629 707.454 268.776C726.996 297.505 736.913 333.676 728.335 368.01L727.041 372.625C726.538 373.52 726.499 373.611 726.4 374.545C726.277 375.711 726.394 375.244 726.103 376.086C726.419 377.155 726.728 377.64 726.487 378.75C723.009 377.742 719.143 370.775 716.841 367.944C708.33 357.484 691.779 348.108 678.182 347.126C658.148 345.68 637.419 348.521 620.348 359.713C617.471 361.599 614.848 364.177 612.218 366.402C610.195 365.008 608.422 363.862 606.969 361.83L606.504 361.347C602.086 354.856 597.629 348.503 592.033 342.949C579.88 330.889 562.294 322.473 545.541 319.221C535.391 317.25 524.414 316.871 514.25 318.873C499.593 321.759 486.033 327.074 473.848 335.84L473.098 336.374C454.428 349.857 441.311 370.435 437.727 393.253C435.099 409.981 438.054 428.116 448.257 441.944C452.008 447.028 457.03 452.624 461.685 456.88C463.409 459.43 466.34 461.526 467.301 464.47C450.009 446.78 421.968 437.17 397.469 436.872C360.8 436.428 326.869 453.541 301.061 478.758C296.085 483.62 291.348 489.653 287.429 495.424C288.414 491.599 288.783 487.812 290.015 484C296.309 464.529 309.234 445.99 325.455 433.507C344.443 418.894 370.124 409.556 394.328 412.824C409.235 414.836 421.603 418.962 435.056 425.65C435.37 424.017 433.529 419.655 433.133 417.75C428.109 393.611 434.16 368.723 447.616 348.359C463.17 324.821 488.199 312.674 515.113 307.286C536.788 306.182 557.847 309.968 576.75 321.068C583.991 325.32 590.685 330.68 597.013 336.167C601.51 331.713 606.498 327.184 612.038 324.06C622.492 318.165 634.058 315.491 645.72 313.202C662.17 309.974 678.983 308.87 690.212 294.397C697.621 284.848 697.449 271.582 692.553 261C690.794 257.2 688.03 253.877 687.552 249.643L687.501 249.149Z"/>
	<path fill="#A5AAA2" transform="scale(0.292969 0.292969)" d="M608.709 358.486C608.883 352.206 615.378 344.902 619.75 340.737C632.795 328.309 650.803 323.812 668.444 324.574C681.979 325.159 695.011 331.627 705.37 339.944C712.552 345.71 718.542 353.463 722.651 361.675C723.974 364.321 725.418 367.303 725.825 370.25C726.015 371.629 726.076 373.122 725.875 374.5C720.757 363.046 714.024 352.538 703.772 345.036C689.544 334.626 671.138 329.058 653.532 331.852C635.785 334.669 619.317 343.854 608.709 358.486Z"/>
	<path fill="#FCFCFA" transform="scale(0.292969 0.292969)" d="M608.709 358.486C619.317 343.854 635.785 334.669 653.532 331.852C671.138 329.058 689.544 334.626 703.772 345.036C714.024 352.538 720.757 363.046 725.875 374.5L726.103 376.086C726.419 377.155 726.728 377.64 726.487 378.75C723.009 377.742 719.143 370.775 716.841 367.944C708.33 357.484 691.779 348.108 678.182 347.126C658.148 345.68 637.419 348.521 620.348 359.713C617.471 361.599 614.848 364.177 612.218 366.402C610.195 365.008 608.422 363.862 606.969 361.83L608.709 358.486Z"/>
	<path fill="#C8C6BA" transform="scale(0.292969 0.292969)" d="M130.158 725.101L113.75 704.123C100.716 683.973 94.464 661.065 94.4299 637.104C94.423 632.263 94.2269 627.29 95.2495 622.536C97.4063 630.19 99.4519 637.859 103.048 645C106.104 651.066 110.342 655.621 115.085 660.358C125.494 670.756 138.504 679.922 152.622 684.481C163.503 687.994 175.687 691.023 187.208 689.29C199.422 687.453 210.616 678.311 216.019 667.427C220.977 657.439 223.443 646.877 230.58 637.964C238.497 628.078 249.317 622.012 260.402 616.337L259.479 609L258.571 600.871C257.865 592.335 257.946 584.432 258.804 575.901C259.15 572.46 259.067 568.711 259.71 565.334C259.948 564.085 260.023 562.858 260.169 561.598C260.379 559.794 260.941 554.708 262.162 553.773L261.624 557.372L260.604 563.396C259.829 568.087 259.699 572.972 259.369 577.716C257.407 605.941 263.394 636.027 276.736 661.123C281.432 669.955 287.712 677.532 292.605 686.151C303.386 701.167 317.594 713.325 332.959 723.443C330.395 724.039 328.08 725.231 325.632 726.17C320.992 727.948 316.527 729.419 311.579 730.08C299.386 731.71 288.415 729.75 278.374 722.16L277.438 723.035C281.75 732.907 289.01 742.555 299.264 746.82L299.414 746.863C304.025 747.18 308.516 748.194 313.158 748.456C321.42 748.922 332.982 747.007 340.591 743.745C344.911 741.892 348.763 738.996 353.124 737.329L354.008 737.001L355.75 736.4C359.518 740.9 362.028 746.889 365.494 751.75C376.646 767.39 395.052 777.159 414.119 778.817L422.007 779.396C425.098 784.712 428.049 789.618 432.056 794.314L441.109 802.902L433.801 804.32C428.096 805.038 422.116 804.257 416.5 803.472C406.603 802.089 396.712 799.695 387.753 795.053C383.074 792.628 379.141 789.648 374.895 786.595C370.624 783.522 366.682 778.973 362.934 775.25L361.882 775.988C360.914 775.874 360.059 775.941 359.091 776.04C357.728 775.988 355.955 776.767 354.621 777.189L346.006 779.75C323.454 785.558 301.921 778.338 283.154 765.791C280.787 764.209 278.516 762.432 276.428 760.494C275.2 759.355 273.852 757.629 272.372 756.864L271.94 756.689C257.018 763.307 242.005 767.296 225.63 767.508C191.127 767.955 156.666 754.488 131.902 730.395L132.459 729C131.79 727.545 131.101 726.395 130.158 725.101Z"/>
	<path fill="#919F94" transform="scale(0.292969 0.292969)" d="M277.438 723.035C275.741 723.577 274.039 725.082 272.52 726.057C269.464 728.016 266.305 729.984 263.048 731.585C239.355 743.238 210.057 743.807 185.313 735.253C161.916 727.165 142.156 712.88 127.75 692.642C120.597 682.592 114.934 671.308 109.59 660.219C109.136 659.277 108.904 659.311 109.25 658.313C113.351 665.426 118.674 672.126 124.357 678.04C147.555 702.183 179.926 716.626 213.5 717.136C243.202 717.587 271.256 706.782 292.605 686.151C303.386 701.167 317.594 713.325 332.959 723.443C330.395 724.039 328.08 725.231 325.632 726.17C320.992 727.948 316.527 729.419 311.579 730.08C299.386 731.71 288.415 729.75 278.374 722.16L277.438 723.035Z"/>
	<path fill="#919F94" transform="scale(0.292969 0.292969)" d="M138.199 729.832C145.37 734.383 153.548 737.848 161.496 740.809C186.361 750.073 213.229 753.614 239.391 747.737C249.682 745.425 258.506 742.565 267.71 737.287C277.954 750.179 290.11 758.709 306.715 760.724C317.849 762.076 328.619 760.571 339.022 756.555L338.876 756.321C328.677 755.243 319.1 754.349 309.227 751.375C306.068 750.424 301.877 749.062 299.414 746.863C304.025 747.18 308.516 748.194 313.158 748.456C321.42 748.922 332.982 747.007 340.591 743.745C344.911 741.892 348.763 738.996 353.124 737.329L354.008 737.001L355.75 736.4C359.518 740.9 362.028 746.889 365.494 751.75C376.646 767.39 395.052 777.159 414.119 778.817L422.007 779.396C425.098 784.712 428.049 789.618 432.056 794.314L441.109 802.902L433.801 804.32C428.096 805.038 422.116 804.257 416.5 803.472C406.603 802.089 396.712 799.695 387.753 795.053C383.074 792.628 379.141 789.648 374.895 786.595C370.624 783.522 366.682 778.973 362.934 775.25L361.882 775.988C360.914 775.874 360.059 775.941 359.091 776.04C357.728 775.988 355.955 776.767 354.621 777.189L346.006 779.75C323.454 785.558 301.921 778.338 283.154 765.791C280.787 764.209 278.516 762.432 276.428 760.494C275.2 759.355 273.852 757.629 272.372 756.864L271.94 756.689L268.844 752.506L252.972 758.351C222.824 767.748 190.112 762.374 162.469 748.037C155.94 744.65 150.354 740.285 144.549 735.817C142.512 734.249 138.994 732.342 138.199 729.832Z"/>
	<path fill="#85A9A8" transform="scale(0.292969 0.292969)" d="M354.008 737.001L355.75 736.4C359.518 740.9 362.028 746.889 365.494 751.75C376.646 767.39 395.052 777.159 414.119 778.817L422.007 779.396C425.098 784.712 428.049 789.618 432.056 794.314C428.828 794.658 425.356 794.226 422.123 793.993C408.371 793.003 395.922 789.188 384.53 781.399C370.673 771.925 357.1 753.718 354.008 737.001Z"/>
	<path fill="#5D8C8B" transform="scale(0.292969 0.292969)" d="M572.864 406.184C583.184 405.048 593.819 404.002 604.215 404.488C634.658 405.91 665.458 419.318 689.095 438.22C706.407 452.065 719.482 470.204 729.856 489.66L737.236 507.04L742.855 524.51C744.993 534.225 747.019 544.048 747.84 553.977C748.374 560.433 748.131 567.172 747.997 573.652L746.812 593.667L747.228 594.734L747.692 594.802C748.874 594.818 750.003 594.076 751.056 593.603C755.119 591.78 758.189 589.298 761.732 586.629C764.09 589.414 765.052 593.677 767.096 596.775C771.887 604.041 778.023 607.359 786.25 609.407C790.056 610.355 796.225 610.341 800.126 609.763C801.436 609.569 802.816 609.491 804.088 609.121L807.391 608.179L808 607.942L810.822 606.941C822.364 601.843 831.357 593.364 836.104 581.571C836.688 580.122 837.021 578.752 837.409 577.25C838.73 572.127 839.761 565.564 838.276 560.374C837.195 556.594 836.771 553.097 834.931 549.5C830.368 540.578 823.643 537.674 814.537 534.608C816.654 532.168 819.666 530.843 822.186 528.897L833.192 519.546C837.956 510.71 840.402 499.323 842.919 489.639C857.972 495.996 872.704 501.476 884.216 513.621C891.821 521.137 897.461 528.895 903.379 537.748C910.713 548.719 917.958 561.563 920.907 574.555C922.608 581.455 924.09 588.261 925.024 595.314C925.043 595.458 925.247 597.296 925.316 597.34C925.823 604.023 926.24 611.047 925.476 617.72C923.071 643.359 916.186 668.667 899.943 689.25C894.698 695.897 888.353 702.058 881.831 707.449C867.258 719.496 850.484 728.774 831.536 731.258C825.912 731.995 819.228 731.367 813.903 732.827C813.31 732.965 812.145 732.594 811.5 732.505C808.971 732.157 806.694 731.817 804.24 731.054C801.462 730.19 797.005 727.61 794.358 728.56C779.943 747.9 760.567 759.862 736.593 763.346C720.713 765.654 706.971 762.031 692.056 757.311C681.792 774.922 666.76 792.473 646.281 797.813C631.354 801.705 617.508 799.079 603.919 792.269L599.105 789.88C587.655 812.46 570.962 827.842 546.734 835.801C523.14 843.551 497.651 840.383 475.769 829.162C471.405 826.924 467.176 824.412 463.266 821.445C461.014 819.736 458.927 817.503 456.5 816.08C455.655 815.585 455.481 815.492 454.551 815.675C453.072 813.656 450.687 812.006 448.804 810.357C446.128 808.015 443.637 805.404 441.109 802.902L432.056 794.314C428.049 789.618 425.098 784.712 422.007 779.396L414.119 778.817C395.052 777.159 376.646 767.39 365.494 751.75C362.028 746.889 359.518 740.9 355.75 736.4L354.008 737.001L353.124 737.329C348.763 738.996 344.911 741.892 340.591 743.745C332.982 747.007 321.42 748.922 313.158 748.456C308.516 748.194 304.025 747.18 299.414 746.863L299.264 746.82C289.01 742.555 281.75 732.907 277.438 723.035L278.374 722.16C288.415 729.75 299.386 731.71 311.579 730.08C316.527 729.419 320.992 727.948 325.632 726.17C328.08 725.231 330.395 724.039 332.959 723.443C317.594 713.325 303.386 701.167 292.605 686.151C287.712 677.532 281.432 669.955 276.736 661.123C263.394 636.027 257.407 605.941 259.369 577.716C259.699 572.972 259.829 568.087 260.604 563.396L261.624 557.372L262.162 553.773C262.458 553.098 262.681 552.522 262.821 551.794L263.955 546.997L266.208 539.247L267.97 533.997C268.306 532.847 268.825 531.857 269.212 530.731L269.451 529.997L269.961 528.497C270.234 527.574 270.591 526.877 270.958 525.99L273.216 520.75L278.466 509.479C278.874 508.605 279.188 507.817 279.717 507.001L281.721 503.734L282.226 503L285.726 498C286.237 497.306 286.714 496.777 287.131 496.009L287.429 495.424C291.348 489.653 296.085 483.62 301.061 478.758C326.869 453.541 360.8 436.428 397.469 436.872C421.968 437.17 450.009 446.78 467.301 464.47C467.882 466.375 470.149 467.994 471.589 469.38L483.175 454.422C487.28 448.791 492.88 443.005 498.422 438.789L513.382 428.605L526.544 421.687C527.723 421.178 528.252 420.711 529.118 419.795C532.992 415.229 545.122 412.686 550.95 410.883C554.079 409.915 557.334 408.666 560.538 408.011C564.423 407.216 568.895 405.902 572.864 406.184Z"/>
	<path fill="#3F686E" transform="scale(0.292969 0.292969)" d="M597.188 765.002C603.809 762.626 610.849 761.554 617.462 759.097C637.196 751.767 656.964 740.451 673.615 727.6C680.851 722.016 687.736 715.503 694.57 709.418C682.683 727.112 670.765 742.337 652.654 754.104C640.391 762.073 625.632 767.206 611.5 770.66C605.423 772.145 599.974 773.558 593.664 773.505L597.188 765.002Z"/>
	<path fill="#85A9A8" transform="scale(0.292969 0.292969)" d="M920.575 609.97C920.035 640.771 906.159 670.923 884.041 692.201C866.164 709.4 840.748 718.094 816.139 717.477C800.079 717.074 783.041 711.509 770.582 701.234L770.062 699.676C771.735 698.835 773.103 697.096 774.402 695.763C776.069 696.086 778.399 698.218 779.905 699.145C795.831 708.956 814.305 711.849 832.484 707.639C870.076 698.935 898.576 670.481 912.527 635.091C914.42 630.29 916.101 625.352 917.502 620.387C918.261 617.698 918.443 612.912 920.037 610.665L920.575 609.97Z"/>
	<path fill="#85A9A8" transform="scale(0.292969 0.292969)" d="M603.919 792.269C608.41 790.949 615.296 792.623 619.994 792.883C633.538 793.633 651.869 790.529 662.867 781.915C672.81 774.128 680.731 764.565 686.062 753.072C682.859 754.228 678.599 758.676 675.79 760.826C664.301 769.621 648.992 776.973 634.25 776.912C635.877 776.275 637.568 776.257 639.25 775.873C657.603 771.675 672.764 758.327 682.862 742.959C685.627 738.749 687.746 734.133 690.443 729.866C700.427 735.479 710.437 740.297 722.078 740.908C743.399 742.026 761.24 731.678 776.5 717.929L781.815 722.716C768.478 737.689 750.354 747.263 730.5 749.634C723.628 750.455 715.721 750.483 708.977 748.773L689.791 742.205C691.474 744.275 693.584 746.848 695.759 748.389C702.106 752.888 710.541 754.851 718.122 756.017C738.106 759.089 759.95 751.388 775.974 739.895C781.306 736.071 785.776 731.069 790.334 726.376L794.358 728.56C779.943 747.9 760.567 759.862 736.593 763.346C720.713 765.654 706.971 762.031 692.056 757.311C681.792 774.922 666.76 792.473 646.281 797.813C631.354 801.705 617.508 799.079 603.919 792.269Z"/>
	<path fill="#85A9A8" transform="scale(0.292969 0.292969)" d="M565.285 732.283C572.692 738.549 582.076 743.255 591.462 745.701C594.61 746.521 599.046 746.929 601.915 748.286L597.188 765.002L593.664 773.505C590.568 778.06 587.852 782.871 584.499 787.25C569.809 806.439 549.916 819.703 526.065 824.261C503.697 828.537 476.129 821.038 457.595 808.374C456.548 807.658 449.374 802.782 449.288 802.393C447.758 798.117 442.946 793.587 440.03 790.096C442.897 789.771 446.591 792.14 449.317 793.09C451.926 793.999 454.554 794.579 457.25 795.144C474.106 798.675 492.881 795.671 508.75 789.493C534.763 779.367 554.298 757.496 565.285 732.283Z"/>
	<path fill="#C8C6BA" transform="scale(0.292969 0.292969)" d="M572.864 406.184C581.69 406.822 590.667 405.249 599.564 405.955C637.215 408.941 671.97 425.65 696.771 454.317C724.151 485.965 738.674 533.398 735.669 574.889C732.935 612.638 714.489 649.644 685.793 674.289C669.063 688.656 649.442 698.911 628.721 706.256L602.76 714.108C601.684 709.418 600.904 704.646 599.487 700.042C593.288 679.906 582.882 664.019 568.076 649.22C572.34 642.233 577.311 636.101 584.068 631.345C595.231 623.488 605.762 618.028 619.575 616.378C624.169 615.829 628.873 615.868 633.5 615.426C632.621 610.71 630.984 606.102 630.267 601.372C629.554 596.668 629.628 590.53 630.328 585.823C632.062 574.157 635.882 563.794 642.525 554L644.414 551.473C649.575 545.51 656.784 539.702 664.442 537.441C668.69 536.187 673.333 535.891 677.729 535.514C680.443 515.137 679.93 496.707 673.576 477C671.628 470.957 669.292 464.978 665.867 459.597C663.108 454.286 659.222 449.453 655.252 445.001C643.922 432.296 632.11 424.487 616.4 418.185C602.962 412.795 586.468 409.786 572 410.037C567.892 410.109 563.799 410.945 559.756 411.601C549.563 413.254 538.631 415.708 529.118 419.795C532.992 415.229 545.122 412.686 550.95 410.883C554.079 409.915 557.334 408.666 560.538 408.011C564.423 407.216 568.895 405.902 572.864 406.184Z"/>
	<path fill="#A5AAA2" transform="scale(0.292969 0.292969)" d="M833.192 519.546C837.956 510.71 840.402 499.323 842.919 489.639C857.972 495.996 872.704 501.476 884.216 513.621C891.821 521.137 897.461 528.895 903.379 537.748C910.713 548.719 917.958 561.563 920.907 574.555L917.74 573.25C917.64 575.704 918.384 578.101 918.837 580.5C919.567 584.364 920.158 588.255 920.407 592.181C920.505 593.718 920.303 599.965 920.947 600.919C920.881 603.504 921.318 607.591 920.575 609.97L920.037 610.665C918.443 612.912 918.261 617.698 917.502 620.387C916.101 625.352 914.42 630.29 912.527 635.091C898.576 670.481 870.076 698.935 832.484 707.639C814.305 711.849 795.831 708.956 779.905 699.145C778.399 698.218 776.069 696.086 774.402 695.763C773.103 697.096 771.735 698.835 770.062 699.676L769.48 699.107C767.702 701.315 766.531 703.851 764.654 706.017C755.946 716.067 743.084 722.252 729.953 723.804C721.992 724.745 711.971 721.913 705.763 716.888C702.406 714.171 699.424 711.05 696.652 707.75C696.872 707.069 696.96 706.552 697.449 706.015C701.169 700.492 705.972 695.547 709.889 690.109C715.889 681.781 720.776 672.667 725.72 663.68C731.255 650.211 737.043 636.828 740.711 622.684L744.309 607.021C744.936 603.622 745.262 599.812 746.301 596.529C746.616 595.533 746.707 594.705 746.812 593.667L747.228 594.734L747.692 594.802C748.874 594.818 750.003 594.076 751.056 593.603C755.119 591.78 758.189 589.298 761.732 586.629C764.09 589.414 765.052 593.677 767.096 596.775C771.887 604.041 778.023 607.359 786.25 609.407C790.056 610.355 796.225 610.341 800.126 609.763C801.436 609.569 802.816 609.491 804.088 609.121L807.391 608.179L808 607.942L810.822 606.941C822.364 601.843 831.357 593.364 836.104 581.571C836.688 580.122 837.021 578.752 837.409 577.25C838.73 572.127 839.761 565.564 838.276 560.374C837.195 556.594 836.771 553.097 834.931 549.5C830.368 540.578 823.643 537.674 814.537 534.608C816.654 532.168 819.666 530.843 822.186 528.897L833.192 519.546Z"/>
	<path fill="#919F94" transform="scale(0.292969 0.292969)" d="M884.216 513.621C891.821 521.137 897.461 528.895 903.379 537.748C910.713 548.719 917.958 561.563 920.907 574.555L917.74 573.25C917.64 575.704 918.384 578.101 918.837 580.5C919.567 584.364 920.158 588.255 920.407 592.181C920.505 593.718 920.303 599.965 920.947 600.919C920.881 603.504 921.318 607.591 920.575 609.97L920.037 610.665C918.443 612.912 918.261 617.698 917.502 620.387C916.101 625.352 914.42 630.29 912.527 635.091C898.576 670.481 870.076 698.935 832.484 707.639C814.305 711.849 795.831 708.956 779.905 699.145C778.399 698.218 776.069 696.086 774.402 695.763C773.103 697.096 771.735 698.835 770.062 699.676L769.48 699.107C767.702 701.315 766.531 703.851 764.654 706.017C755.946 716.067 743.084 722.252 729.953 723.804C721.992 724.745 711.971 721.913 705.763 716.888C702.406 714.171 699.424 711.05 696.652 707.75C696.872 707.069 696.96 706.552 697.449 706.015C698.016 707.205 700.74 707.938 702 708.567C705.833 710.479 709.497 712.745 713.513 714.276C724.409 718.431 737.017 717.347 747.54 712.539C756.829 708.295 767.123 699.954 770.732 690.057L771.006 689.295C781.308 694.325 793.026 696.5 804.453 695.353C832.232 692.562 858.876 679.453 876.574 657.442L884.645 646.781C905.515 615.996 909.013 574.057 896.17 539.558C894.131 534.081 891.413 528.951 888.693 523.791C887.29 521.13 884.755 517.166 884.298 514.246L884.216 513.621Z"/>
	<path fill="#C8C6BA" transform="scale(0.292969 0.292969)" d="M833.192 519.546C839.377 520.438 846.905 527.889 850.481 532.6L851.478 534C859.787 545.747 864.374 561.304 862.112 575.694C860.217 587.751 854.649 599.602 844.538 606.9C837.169 612.218 826.971 614.603 817.959 613.075L815.602 612.63C813.947 628.635 808.727 641.263 796.03 651.639C781.65 663.39 761.155 669.397 742.657 667.348C736.977 666.719 731.274 665.858 725.933 663.759L725.72 663.68C731.255 650.211 737.043 636.828 740.711 622.684L744.309 607.021C744.936 603.622 745.262 599.812 746.301 596.529C746.616 595.533 746.707 594.705 746.812 593.667L747.228 594.734L747.692 594.802C748.874 594.818 750.003 594.076 751.056 593.603C755.119 591.78 758.189 589.298 761.732 586.629C764.09 589.414 765.052 593.677 767.096 596.775C771.887 604.041 778.023 607.359 786.25 609.407C790.056 610.355 796.225 610.341 800.126 609.763C801.436 609.569 802.816 609.491 804.088 609.121L807.391 608.179L808 607.942L810.822 606.941C822.364 601.843 831.357 593.364 836.104 581.571C836.688 580.122 837.021 578.752 837.409 577.25C838.73 572.127 839.761 565.564 838.276 560.374C837.195 556.594 836.771 553.097 834.931 549.5C830.368 540.578 823.643 537.674 814.537 534.608C816.654 532.168 819.666 530.843 822.186 528.897L833.192 519.546Z"/>
	<path fill="#E8E5DA" transform="scale(0.292969 0.292969)" d="M665.867 459.597C669.292 464.978 671.628 470.957 673.576 477C679.93 496.707 680.443 515.137 677.729 535.514C673.333 535.891 668.69 536.187 664.442 537.441C656.784 539.702 649.575 545.51 644.414 551.473L642.525 554C635.882 563.794 632.062 574.157 630.328 585.823C629.628 590.53 629.554 596.668 630.267 601.372C630.984 606.102 632.621 610.71 633.5 615.426C628.873 615.868 624.169 615.829 619.575 616.378C605.762 618.028 595.231 623.488 584.068 631.345C577.311 636.101 572.34 642.233 568.076 649.22C582.882 664.019 593.288 679.906 599.487 700.042C600.904 704.646 601.684 709.418 602.76 714.108C604.494 722.83 604.758 732.729 603.341 741.513C602.976 743.772 602.761 746.148 601.915 748.286C599.046 746.929 594.61 746.521 591.462 745.701C582.076 743.255 572.692 738.549 565.285 732.283C554.298 757.496 534.763 779.367 508.75 789.493C492.881 795.671 474.106 798.675 457.25 795.144C454.554 794.579 451.926 793.999 449.317 793.09C446.591 792.14 442.897 789.771 440.03 790.096C442.946 793.587 447.758 798.117 449.288 802.393C445.194 799.714 441.952 796.348 438.522 792.9C425.398 779.704 416.281 765.12 411.669 746.984C404.16 746.567 396.623 746.296 389.182 745.143C374.931 742.935 361.418 738.306 348.5 732.013C344.218 729.928 339.47 727.885 335.79 724.814C335.464 722.94 332.186 721.218 330.75 719.9L317.224 706.283C304.492 692.198 294.099 677.533 286.345 660.159L286.067 660.012C283.407 655.259 281.945 650.292 280.323 645.128C278.25 638.524 276.422 632.144 275.1 625.335C279.715 629.697 283.329 634.992 287.25 639.959C290.517 644.097 294.604 648.306 298.713 651.614L305.396 657.122C317.757 666.438 333.622 673.055 349.06 674.766C352.668 675.167 356.414 674.98 360.044 674.99C363.739 674.999 367.643 675.243 371.297 674.646C373.584 674.272 376.025 673.938 378.241 673.267C389.132 669.969 399.332 665.336 408.288 658.113C409.04 657.507 411.429 655.748 411.801 654.955C412.586 653.281 412.348 648.415 412.568 646.382C413.691 635.973 417.91 625.71 424.013 617.234L424.564 616.5C427.382 612.649 430.689 609.275 434.399 606.272C444.469 598.122 458.213 592.237 471.232 591.942C475.793 591.838 480.552 592.575 485.088 593.058C487.079 587.768 489.422 582.694 492.342 577.85C501.285 563.019 516.597 552.092 533.455 548.001L542.434 545.832L543.314 545.644L544.25 545.461C548.751 544.549 554.677 544.692 559.284 545.112C568.173 545.923 576.876 548.666 585.162 551.938L590.803 542.414C599.941 527.433 616.506 516.52 633.536 512.493L647.139 509.576C645.974 505.332 645.808 500.796 644.933 496.483C642.796 485.963 638.864 476.56 634.056 467.006L645.847 462.823L648.378 462.012L654.132 460.59L655 460.44C658.219 459.826 662.4 460.797 665.268 459.819L665.867 459.597Z"/>
	<path fill="#C8C6BA" transform="scale(0.292969 0.292969)" d="M286.345 660.159L286.9 660.483C289.111 661.836 291.138 664.604 292.974 666.52C296.311 670.006 299.605 673.222 303.445 676.151C327.997 694.878 354.43 704.623 384.899 708.661C392.94 709.726 402.58 709.535 410.529 708.089C409.352 721.308 409.751 733.849 411.669 746.984C404.16 746.567 396.623 746.296 389.182 745.143C374.931 742.935 361.418 738.306 348.5 732.013C344.218 729.928 339.47 727.885 335.79 724.814C335.464 722.94 332.186 721.218 330.75 719.9L317.224 706.283C304.492 692.198 294.099 677.533 286.345 660.159Z"/>
	<path fill="#C8C6BA" transform="scale(0.292969 0.292969)" d="M547.691 642.993L547.374 642.572L534.364 628.542C547.186 633.657 557.24 640.786 568.076 649.22C582.882 664.019 593.288 679.906 599.487 700.042C600.904 704.646 601.684 709.418 602.76 714.108C604.494 722.83 604.758 732.729 603.341 741.513C602.976 743.772 602.761 746.148 601.915 748.286C599.046 746.929 594.61 746.521 591.462 745.701C582.076 743.255 572.692 738.549 565.285 732.283C554.298 757.496 534.763 779.367 508.75 789.493C492.881 795.671 474.106 798.675 457.25 795.144C454.554 794.579 451.926 793.999 449.317 793.09C446.591 792.14 442.897 789.771 440.03 790.096C437.022 787.586 434.965 783.949 433.064 780.571C429.7 774.594 426.831 768.338 424.087 762.056C427.767 762.42 431.768 764.408 435.417 765.305C445.659 767.822 457.987 768.971 468.494 767.662L471.5 767.307C497.686 763.992 521.642 750.008 537.538 729.012C550.471 711.93 558.293 689.363 555.214 667.821C553.9 658.621 551.119 651.509 547.691 642.993Z"/>
	<path fill="#A5AAA2" transform="scale(0.292969 0.292969)" d="M547.691 642.993L547.374 642.572L534.364 628.542C547.186 633.657 557.24 640.786 568.076 649.22C582.882 664.019 593.288 679.906 599.487 700.042C600.904 704.646 601.684 709.418 602.76 714.108C604.494 722.83 604.758 732.729 603.341 741.513C602.976 743.772 602.761 746.148 601.915 748.286C599.046 746.929 594.61 746.521 591.462 745.701C582.076 743.255 572.692 738.549 565.285 732.283C569.548 715.855 572.381 701.312 568.856 684.39C566.324 672.237 561.313 659.914 553.939 649.868C552.073 647.327 550.357 644.756 547.691 642.993Z"/>
	<path fill="#FCFCFA" transform="scale(0.292969 0.292969)" d="M410.529 708.089C414.66 682.533 425.83 655.793 447.47 640.179C460.971 630.438 477.917 623.526 494.639 622.454C502.515 621.949 510.425 622.744 518.192 624.024L521.673 624.85L523.286 625.25L522.912 625.755L522.196 625.635L507.651 624.002C521.288 631.697 533.289 638.298 537.771 654.612C542.099 670.364 537.926 686.284 529.881 700.086C517.837 720.747 497.683 735.319 474.675 741.258C471.813 741.997 467.901 742.435 465.297 743.762C462.815 745.028 461.01 747.629 458.228 748.314C452.942 749.616 450.444 746.266 445.915 745.325L435.021 743.575C428.936 742.331 423.176 740.494 417.376 738.294C417.219 740.343 417.984 742.818 418.419 744.84C419.647 750.551 421.23 756.934 424.087 762.056C426.831 768.338 429.7 774.594 433.064 780.571C434.965 783.949 437.022 787.586 440.03 790.096C442.946 793.587 447.758 798.117 449.288 802.393C445.194 799.714 441.952 796.348 438.522 792.9C425.398 779.704 416.281 765.12 411.669 746.984C409.751 733.849 409.352 721.308 410.529 708.089Z"/>
	<path fill="#FCFCFA" transform="scale(0.292969 0.292969)" d="M529.118 419.795C538.631 415.708 549.563 413.254 559.756 411.601C563.799 410.945 567.892 410.109 572 410.037C586.468 409.786 602.962 412.795 616.4 418.185C632.11 424.487 643.922 432.296 655.252 445.001C659.222 449.453 663.108 454.286 665.867 459.597L665.268 459.819C662.4 460.797 658.219 459.826 655 460.44L654.132 460.59L648.378 462.012L645.847 462.823L634.056 467.006C638.864 476.56 642.796 485.963 644.933 496.483C645.808 500.796 645.974 505.332 647.139 509.576L633.536 512.493C616.506 516.52 599.941 527.433 590.803 542.414L585.162 551.938C576.876 548.666 568.173 545.923 559.284 545.112C554.677 544.692 548.751 544.549 544.25 545.461L543.314 545.644L542.434 545.832L533.455 548.001C516.597 552.092 501.285 563.019 492.342 577.85C489.422 582.694 487.079 587.768 485.088 593.058C480.552 592.575 475.793 591.838 471.232 591.942C458.213 592.237 444.469 598.122 434.399 606.272C430.689 609.275 427.382 612.649 424.564 616.5L424.013 617.234C417.91 625.71 413.691 635.973 412.568 646.382C412.348 648.415 412.586 653.281 411.801 654.955C411.429 655.748 409.04 657.507 408.288 658.113C399.332 665.336 389.132 669.969 378.241 673.267C376.025 673.938 373.584 674.272 371.297 674.646C367.643 675.243 363.739 674.999 360.044 674.99C356.414 674.98 352.668 675.167 349.06 674.766C333.622 673.055 317.757 666.438 305.396 657.122L298.713 651.614C294.604 648.306 290.517 644.097 287.25 639.959C283.329 634.992 279.715 629.697 275.1 625.335C276.422 632.144 278.25 638.524 280.323 645.128C281.945 650.292 283.407 655.259 286.067 660.012L286.345 660.159C294.099 677.533 304.492 692.198 317.224 706.283L330.75 719.9C332.186 721.218 335.464 722.94 335.79 724.814L332.959 723.443C317.594 713.325 303.386 701.167 292.605 686.151C287.712 677.532 281.432 669.955 276.736 661.123C263.394 636.027 257.407 605.941 259.369 577.716C259.699 572.972 259.829 568.087 260.604 563.396L261.624 557.372L262.162 553.773C262.458 553.098 262.681 552.522 262.821 551.794L263.955 546.997L266.208 539.247L267.97 533.997C268.306 532.847 268.825 531.857 269.212 530.731L269.451 529.997L269.961 528.497C270.234 527.574 270.591 526.877 270.958 525.99L273.216 520.75L278.466 509.479C278.874 508.605 279.188 507.817 279.717 507.001L281.721 503.734L282.226 503L285.726 498C286.237 497.306 286.714 496.777 287.131 496.009L287.429 495.424C291.348 489.653 296.085 483.62 301.061 478.758C326.869 453.541 360.8 436.428 397.469 436.872C421.968 437.17 450.009 446.78 467.301 464.47C467.882 466.375 470.149 467.994 471.589 469.38L483.175 454.422C487.28 448.791 492.88 443.005 498.422 438.789L513.382 428.605L526.544 421.687C527.723 421.178 528.252 420.711 529.118 419.795Z"/>
</svg>
