<?xml version="1.0" encoding="utf-8" ?>
<svg xmlns="http://www.w3.org/2000/svg" xmlns:xlink="http://www.w3.org/1999/xlink" width="300" height="300">
	<path fill="#56D6F7" transform="scale(0.292969 0.292969)" d="M543.45 56.0665L582.621 56.1339C589.114 56.1448 596.476 55.3306 602.848 56.6155C607.021 57.457 611.146 59.5272 614.168 62.5545C620.884 69.2817 620.77 77.7439 620.871 86.5323L620.897 101.25C620.75 108.327 618.874 114.67 613.618 119.693C606.055 126.922 598.068 124.438 588.728 125.454L553.095 125.392C553.216 124.02 555.656 122.832 556.716 121.98C560.828 118.673 564.409 114.321 565.951 109.194L566.151 108.5C567.807 102.939 567.034 95.8611 567.036 90.0449C567.037 86.088 567.425 81.5952 566.821 77.699C566.422 75.1211 565.567 72.3534 564.382 70.0293C560.11 61.6474 551.807 58.7782 543.45 56.0665Z"/>
	<path fill="#99E1F0" transform="scale(0.292969 0.292969)" d="M435.017 125.117C428.31 123.942 420.787 125.852 414.525 122.896C409.693 120.614 405.251 116.341 403.586 111.175L403.379 110.5C402.336 107.2 402.493 103.771 402.402 100.346L401.958 87.2543C401.869 77.9504 402.371 68.6079 409.369 61.6356C412.123 58.8911 415.936 57.1264 419.731 56.4305C423.963 55.6543 428.717 56.0329 433.027 56.0245L456.461 56.0171L543.45 56.0665C551.807 58.7782 560.11 61.6474 564.382 70.0293C565.567 72.3534 566.422 75.1211 566.821 77.699C567.425 81.5952 567.037 86.088 567.036 90.0449C567.034 95.8611 567.807 102.939 566.151 108.5L565.951 109.194C564.409 114.321 560.828 118.673 556.716 121.98C555.656 122.832 553.216 124.02 553.095 125.392L435.017 125.117Z"/>
	<path fill="#99E1F0" transform="scale(0.292969 0.292969)" d="M435.017 125.117L553.095 125.392L588.728 125.454L588.694 151.045L586.115 151.129L558.016 151.347L557.982 295.65L557.981 341.665C557.984 349.23 557.519 357.145 558.053 364.662C558.137 365.853 558.394 367.134 558.848 368.24C560.57 372.438 563.627 376.621 565.97 380.523L579.812 403.684L624.971 480.854L636.755 500.492C639.255 504.508 641.878 508.254 644.049 512.484C635.925 509.48 627.419 506.35 619.032 504.224C591.006 497.117 561.899 493.965 533.088 492.75C507.467 491.669 481.725 491.902 456.173 494.321C440.085 495.844 424.176 498.683 408.326 501.748L407.287 502.787C400.861 503.642 394.443 504.704 388.563 507.599C386.281 508.479 384.122 509.223 381.711 509.711L369.167 530.191L328.273 596.85L259.461 709.94L227.043 764.076C219.557 776.464 210.738 788.531 205.493 802.094C199.857 816.668 198.351 833.966 201.599 849.25C207.777 878.324 227.149 902.16 251.835 917.882C263.811 925.51 277.033 930.637 291.091 932.671C297.272 933.565 304.165 933.017 310.442 933.019L347.237 933.009L414.633 933.013L449.859 932.93C447.892 934.84 443.717 935.251 441.088 935.791C430.098 938.047 419.101 938.939 407.95 939.975L345.5 944.945L300.569 945.89L220.03 937.84C215.986 934.829 212.312 930.944 208.75 927.381C178.48 897.094 163.813 850.9 172.572 808.75C174.487 799.536 177.566 790.351 181.644 781.871C185.655 773.533 190.747 765.904 195.518 758L217.229 721.891L287.31 606.576L390.154 436.133L421.419 384.296L429.75 370.64C431.222 368.218 433.037 365.654 433.974 362.974C435.298 359.19 435.09 355.279 435.076 351.333L435.079 337.258L435.108 297.185L435.027 150.955L435.017 125.117Z"/>
	<path fill="#FEFEFE" transform="scale(0.292969 0.292969)" d="M462.563 151.099L471.463 151.182L482.989 151.387C482.769 157.772 484.835 171.761 480.725 176.529C478.746 178.825 475.062 180.518 472 180.48C469.528 180.449 467.419 178.967 465.838 177.193C460.582 171.3 462.307 158.512 462.563 151.099Z"/>
	<path fill="#FEFEFE" transform="scale(0.292969 0.292969)" d="M470.114 194.067C471.754 193.983 473.493 193.817 475.106 194.198C477.674 194.806 479.984 196.941 481.335 199.126C481.889 200.022 482.373 200.79 482.453 201.86C483.137 211.06 482.502 220.746 482.561 230L482.838 248.525C482.936 252.599 483.517 257.442 482.325 261.375C481.297 264.766 478.721 266.212 475.714 267.71L474.377 267.818C471.358 267.917 468.44 267.167 466.25 264.991C464.409 263.161 463.806 261.064 463.371 258.568C462.281 252.309 462.941 245.051 462.95 238.679L463.104 200.477C465.166 197.495 467.042 195.946 470.114 194.067Z"/>
	<path fill="#A7B6B7" transform="scale(0.292969 0.292969)" d="M435.017 125.117L553.095 125.392L588.728 125.454L588.694 151.045L586.115 151.129L471.463 151.182L462.563 151.099L435.027 150.955L435.017 125.117Z"/>
	<path fill="#FEFEFE" transform="scale(0.292969 0.292969)" d="M381.711 509.711C381.864 506.879 400.023 477.822 402.766 473.173L463.25 370.668C464.073 369.311 464.601 368.306 464.802 366.696C465.522 360.939 464.685 354.406 464.656 348.555L464.54 306.148C464.533 301.297 463.599 293.907 465.244 289.356C466.229 286.629 468.481 284.453 471.179 283.428C473.32 282.615 476.445 283.002 478.476 283.986C480.648 285.039 482.8 287.104 483.474 289.469C484.936 294.593 484.026 302.029 484.018 307.391L483.638 353.39C483.582 359.383 484.147 365.6 483.669 371.554C483.451 374.263 482.848 376.102 481.568 378.5L408.326 501.748L407.287 502.787C400.861 503.642 394.443 504.704 388.563 507.599C386.281 508.479 384.122 509.223 381.711 509.711Z"/>
	<path fill="#56D6F7" transform="scale(0.292969 0.292969)" d="M588.694 151.045L588.464 325.84L588.462 355.31C588.462 357.078 587.935 361.584 588.463 362.99C589.097 364.675 590.77 366.736 591.74 368.303L599.996 381.602L633.118 435.998L775.798 671.088L821.876 746.371C828.568 757.418 836.198 768.474 841.998 779.979C846.879 789.661 850.188 800.073 852.262 810.701C860.753 854.231 845.224 898.529 813.75 929.341C794.255 948.426 768.666 959.65 742.04 964.382C722.401 967.872 701.467 966.339 681.562 966.308L590.985 966.191L400.685 965.988L292.5 966.137C266.803 965.784 239.363 954.609 220.03 937.84L300.569 945.89L345.5 944.945L407.95 939.975C419.101 938.939 430.098 938.047 441.088 935.791C443.717 935.251 447.892 934.84 449.859 932.93C452.571 931.432 459.088 932.338 462.25 932.427C471.546 932.689 482.125 933.814 491.288 932.399C493.02 930.743 495.675 930.513 497.951 930.067L511.387 927.34L533.538 921.714C562.39 913.828 589.979 903.383 616.5 889.552C645.466 874.447 673.134 855.615 693.277 829.458C701.232 819.128 708.609 808.476 713.926 796.515C720.075 782.679 723.026 767.097 723.077 752.01C723.092 747.754 723.495 742.942 722.896 738.751L721.635 727.229C717.628 701.658 710.372 677.453 701.896 653.048L665.364 560.106L655.275 536.265L654.85 535.136C654.049 533.351 654.047 532.318 654.11 530.33L654.14 529.597L652.75 528.114C640.9 534.52 626.627 537.712 613.5 540.53C588.761 545.84 563.994 548.068 538.765 549.181L486.698 549.913L445.5 546.602C424.124 544.235 402.552 540.623 381.906 534.466L369.167 530.191L381.711 509.711C384.122 509.223 386.281 508.479 388.563 507.599C394.443 504.704 400.861 503.642 407.287 502.787L408.326 501.748C424.176 498.683 440.085 495.844 456.173 494.321C481.725 491.902 507.467 491.669 533.088 492.75C561.899 493.965 591.006 497.117 619.032 504.224C627.419 506.35 635.925 509.48 644.049 512.484C641.878 508.254 639.255 504.508 636.755 500.492L624.971 480.854L579.812 403.684L565.97 380.523C563.627 376.621 560.57 372.438 558.848 368.24C558.394 367.134 558.137 365.853 558.053 364.662C557.519 357.145 557.984 349.23 557.981 341.665L557.982 295.65L558.016 151.347L586.115 151.129L588.694 151.045Z"/>
	<path fill="#99E1F0" transform="scale(0.292969 0.292969)" d="M388.563 507.599C394.443 504.704 400.861 503.642 407.287 502.787C405.571 506.871 403.599 511.349 399.249 513.234C397.593 513.951 395.411 514.01 393.771 513.234C391.344 512.085 389.963 509.769 388.563 507.599Z"/>
	<path fill="#078FE4" transform="scale(0.292969 0.292969)" d="M654.14 529.597L663.675 544.776L686.985 583.234L744.98 679.5L787.64 749.929L801.987 773.5C807.54 782.568 812.979 791.453 816.657 801.493C822.853 818.406 823.293 836.531 820.168 854.135C816.043 877.378 800.268 900.761 781.017 914.225C770.329 921.701 759.221 926.769 746.679 930.269C737.885 932.722 727.671 933.099 718.564 933.408L662.744 933.503L556.99 933.225L514.849 933.024C507.359 933.005 498.614 933.852 491.288 932.399C493.02 930.743 495.675 930.513 497.951 930.067L511.387 927.34L533.538 921.714C562.39 913.828 589.979 903.383 616.5 889.552C645.466 874.447 673.134 855.615 693.277 829.458C701.232 819.128 708.609 808.476 713.926 796.515C720.075 782.679 723.026 767.097 723.077 752.01C723.092 747.754 723.495 742.942 722.896 738.751L721.635 727.229C717.628 701.658 710.372 677.453 701.896 653.048L665.364 560.106L655.275 536.265L654.85 535.136C654.049 533.351 654.047 532.318 654.11 530.33L654.14 529.597Z"/>
	<path fill="#06A5F1" transform="scale(0.292969 0.292969)" d="M369.167 530.191L381.906 534.466C402.552 540.623 424.124 544.235 445.5 546.602L486.698 549.913L538.765 549.181C563.994 548.068 588.761 545.84 613.5 540.53C626.627 537.712 640.9 534.52 652.75 528.114L654.14 529.597L654.11 530.33C654.047 532.318 654.049 533.351 654.85 535.136L655.275 536.265L665.364 560.106L701.896 653.048C710.372 677.453 717.628 701.658 721.635 727.229L722.896 738.751C723.495 742.942 723.092 747.754 723.077 752.01C723.026 767.097 720.075 782.679 713.926 796.515C708.609 808.476 701.232 819.128 693.277 829.458C673.134 855.615 645.466 874.447 616.5 889.552C589.979 903.383 562.39 913.828 533.538 921.714L511.387 927.34L497.951 930.067C495.675 930.513 493.02 930.743 491.288 932.399C482.125 933.814 471.546 932.689 462.25 932.427C459.088 932.338 452.571 931.432 449.859 932.93L414.633 933.013L347.237 933.009L310.442 933.019C304.165 933.017 297.272 933.565 291.091 932.671C277.033 930.637 263.811 925.51 251.835 917.882C227.149 902.16 207.777 878.324 201.599 849.25C198.351 833.966 199.857 816.668 205.493 802.094C210.738 788.531 219.557 776.464 227.043 764.076L259.461 709.94L328.273 596.85L369.167 530.191Z"/>
	<path fill="#FEFEFE" transform="scale(0.292969 0.292969)" d="M606.521 671.117C610.151 671.329 612.227 671.648 615.034 674.204C617.139 676.121 619.937 680.825 619.606 683.757L619.413 684.534C619.073 685.962 618.762 687.4 618.161 688.748C616.133 693.295 611.992 695.017 607.62 696.543C605.641 696.499 603.325 695.804 601.601 694.838C597.083 692.305 595.54 688.084 594.318 683.362C594.769 681.227 595.264 678.875 596.475 677.03C599.058 673.091 602.114 672.012 606.521 671.117Z"/>
	<path fill="#FEFEFE" transform="scale(0.292969 0.292969)" d="M551.097 588.545C556.193 588.371 561.658 588.616 566.25 591.025C571.954 594.018 576.378 599.554 578.05 605.798C579.623 611.671 578.495 618.779 575.465 624C571.845 630.239 565.948 633.722 559.228 635.662C553.85 636.036 548.229 635.287 543.374 632.854C538.063 630.194 533.778 624.775 532.109 619.139C530.092 612.332 530.717 606.085 534.253 599.799C537.941 593.241 544.163 590.432 551.097 588.545Z"/>
	<path fill="#FEFEFE" transform="scale(0.292969 0.292969)" d="M563.839 739.612C571.554 738.849 579.727 740.217 586.522 744C594.932 748.683 601.025 756.96 603.547 766.201C606.074 775.46 604.258 784.85 599.468 793.004C593.377 803.375 584.519 807.843 573.292 810.763C564.56 812.385 555 809.626 547.737 804.809C539.842 799.574 534.333 790.733 532.516 781.507C530.729 772.436 532.921 762.305 538.177 754.722C544.266 745.936 553.589 741.507 563.839 739.612Z"/>
	<path fill="#FEFEFE" transform="scale(0.292969 0.292969)" d="M423.217 652.657C426.78 652.156 430.721 652.249 434.284 652.673C450.063 654.553 465.752 662.017 475.69 674.666C486.351 688.235 490.524 704.689 488.532 721.75C487.317 732.155 483.464 742.154 477.2 750.586C466.372 765.163 450.718 772.78 433.127 775.508C418.887 776.503 404.121 773.292 392.379 764.888C377.473 754.22 368.934 740.135 366.032 722.138C363.573 706.895 368.259 690.344 377.246 677.923C388.499 662.372 404.789 655.505 423.217 652.657Z"/>
</svg>
