<?xml version="1.0" encoding="utf-8" ?>
<svg xmlns="http://www.w3.org/2000/svg" xmlns:xlink="http://www.w3.org/1999/xlink" width="371" height="371">
	<path fill="#001B2D" transform="scale(0.362305 0.362305)" d="M381.182 800.055C378.878 799.147 375.035 799.837 372.5 799.87L352.501 799.988L352.482 885.14C352.452 888.211 352.359 891.02 349.926 893.25C345.118 897.657 335.716 896.124 329.598 895.954L329.681 927.714C329.756 934.963 330.715 943.358 329.268 950.46C328.854 952.491 327.591 954.659 326.11 956.103C323.507 958.64 320.567 959.524 317 959.473C314.417 959.437 311.931 957.915 310.208 956.092C308.309 954.083 307.457 951.779 307.035 949.092C306.22 943.899 306.975 938.071 306.993 932.799L307.016 896.087L298.921 896.177C297.184 896.188 293.065 896.618 291.563 895.895C290.528 895.396 289.182 893.967 288.356 893.123C286.948 891.686 285.92 889.497 285.672 887.5C285.263 884.209 285.517 880.638 285.516 877.32L285.514 859.734L285.535 800.003C270.597 800.278 252.665 801.979 239.638 793.31C230.677 787.346 225.597 778.878 223.434 768.5C221.391 758.7 222.341 747.935 222.524 737.95L138.782 738.1C135.428 737.995 132.593 736.733 130.332 734.25C125.95 729.44 127.335 720.985 127.495 714.94L95.4795 715.068C89.47 715.181 83.0936 715.951 77.1191 715.178L76.25 715.054C73.0591 714.623 70.7261 713.86 68.343 711.6C66.3499 709.71 65.045 706.944 64.9966 704.183C64.9424 701.084 66.2307 698.085 68.4933 695.973C70.285 694.3 72.353 693.458 74.7503 693.128C80.1227 692.388 86.1927 692.978 91.6465 692.991L127.526 693.068C127.425 688.987 126.466 681.678 128.181 678.008L128.441 677.5C128.945 676.483 129.426 675.624 130.231 674.804C131.69 673.321 133.458 672.433 135.509 672.1C138.588 671.599 141.985 671.865 145.102 671.861L162.373 671.867L222.522 672.01L222.75 641.525L222.792 640.963L139.089 641.177C135.577 641.254 132.871 640.149 130.374 637.624C125.992 633.194 127.443 624.239 127.55 618.483L84.2056 618.584C80.3727 618.513 74.6855 619.233 71.2029 617.643C67.3885 615.901 65.7071 612.012 64.2614 608.367C65.0612 605.217 65.7132 602.214 68.0093 599.757C69.616 598.038 71.9109 597.132 74.1983 596.749C79.6462 595.837 85.8079 596.735 91.3551 596.799L127.487 596.932L127.471 585.554C127.486 584.052 127.284 582.187 127.69 580.76C127.985 579.721 129.035 578.652 129.763 577.904C132.109 575.491 134.428 574.687 137.7 574.226C140.844 573.782 144.202 574.027 147.383 574.024L164.019 574.015L222.527 574.032L222.544 543.941L161.852 543.96L146.067 543.958C142.878 543.955 139.534 544.189 136.381 543.722L135.75 543.617C133.668 543.286 132.18 542.387 130.378 541.319C126.378 535.37 127.437 529.057 127.532 522.222C125.878 521.361 121.047 521.922 119.056 521.923L89.863 521.994C84.6192 522.019 78.8661 522.547 73.7028 521.693C71.6442 521.353 69.9274 520.629 68.3731 519.222C66.0429 517.112 64.5591 514.445 64.5664 511.25C64.5735 508.203 66.074 504.954 68.25 502.845C69.8309 501.313 71.9108 500.526 74.0565 500.196C79.9504 499.29 86.2625 499.964 92.2245 499.983L127.509 500.044C127.466 494.462 126.342 485.867 130.489 481.5C132.05 479.856 134.165 478.842 136.397 478.533C139.807 478.061 143.456 478.299 146.899 478.298L164.155 478.31L222.523 478.378L222.751 449.247L222.796 448.637L162.961 448.957L146.116 448.974C142.992 448.971 139.647 449.226 136.568 448.763C134.086 448.389 131.864 447.178 130.109 445.393C126.034 441.246 127.475 431.863 127.53 426.48L89.3206 426.567C84.1161 426.575 77.8308 427.262 72.75 426.43C71.012 426.145 69.7435 425.368 68.4232 424.233C65.9772 422.13 64.6917 419.788 64.534 416.549C64.3712 413.206 65.1637 410.585 67.5056 408.148C68.9553 406.639 70.4209 405.759 72.4928 405.353C78.59 404.158 85.4142 404.956 91.6252 404.979L127.504 405.044C127.391 399.302 126.105 389.31 130.365 384.916C131.752 383.486 133.448 382.527 135.417 382.183C138.24 381.69 141.526 382.015 144.42 382.013L161.048 382.003L222.933 382.039L222.991 351.187C215.544 350.471 207.466 351.188 199.956 351.249L153.938 351.458L141.988 351.467C140.002 351.465 137.676 351.701 135.745 351.324C133.647 350.915 131.872 349.802 130.375 348.308C125.975 343.915 127.477 333.966 127.547 328.228C125.018 327.354 120.818 327.926 118.101 327.925L94.4557 327.969C87.8914 328.035 77.5495 329.513 71.4844 327.106C68.7517 326.022 66.0011 323.805 64.9631 320.979C63.8646 317.988 64.3011 313.896 65.7815 311.13C67.1175 308.634 69.5839 306.704 72.3334 305.991L72.996 305.833C78.4617 304.457 85.2023 305.465 90.9014 305.476L127.501 305.503C127.44 299.815 126.428 291.619 130.834 287.32C132.391 285.801 134.501 284.753 136.673 284.497C139.348 284.182 142.293 284.5 144.996 284.509L162.681 284.58L223.027 285.065C222.981 267.292 219.95 247.656 233.833 233.985C243.76 224.21 254.55 223.544 267.753 223.509L285.97 223.518L286.101 140.501C286.237 137.39 286.759 134.119 289.25 131.977C294.083 127.822 300.65 128.627 306.541 128.989L306.551 92.505C306.537 86.4536 305.937 79.8677 306.721 73.8871C307.046 71.4027 307.602 68.8456 309.166 66.8208C310.924 64.5447 313.5 63.0983 316.371 62.925C319.737 62.7219 322.561 63.805 324.964 66.1373C326.417 67.5481 327.846 69.5834 328.314 71.5828C329.486 76.5877 328.569 83.5748 328.566 88.787L328.571 129.1C334.197 129.018 343.722 127.651 348.122 131.775C349.764 133.314 351.215 135.437 351.528 137.711C351.938 140.688 351.635 144.068 351.618 147.075L351.581 163.027L351.593 223.339L383.443 223.365L383.49 184.11L383.51 151.404C383.518 146.987 382.898 141.444 383.846 137.15C384.305 135.074 385.346 133.339 386.881 131.88C391.263 127.715 397.965 128.79 403.508 129.054L403.616 93.4275C403.591 86.918 402.929 79.6745 403.845 73.2486C404.186 70.8599 404.704 68.7272 406.353 66.8712C408.718 64.2102 411.748 62.7561 415.285 62.5908C418.069 62.4608 420.947 64.1544 422.846 66.0881C424.567 67.841 425.702 69.8501 426.185 72.2671C427.277 77.7402 426.464 84.5336 426.459 90.1474L426.423 129.046C432.297 128.987 440.952 127.689 445.502 132.139C447.277 133.875 448.619 136.271 448.924 138.76C449.945 147.074 449.051 156.694 449.048 165.116L449.022 223.033L479.332 223.032L479.301 172.894C479.299 161.958 478.411 150.697 479.467 139.81C479.677 137.639 479.991 135.927 481.19 134.066C482.759 131.633 485.452 130.024 488.271 129.519L489 129.399C492.657 128.773 496.427 128.985 500.126 129.038L500.048 92.2641C500.031 85.4475 499.176 77.3454 500.619 70.75C501.005 68.9864 502.188 67.2166 503.408 65.9105C505.356 63.8249 508.712 62.6654 511.5 62.5879C514.429 62.5065 517.859 64.2062 519.877 66.25C521.549 67.9432 522.494 70.071 522.88 72.3901C523.756 77.6441 522.983 83.9672 522.977 89.3332L522.972 129.432C528.659 128.98 537.623 128.008 542.25 132.122C543.937 133.623 545.19 135.933 545.484 138.173C545.884 141.218 545.63 144.592 545.622 147.677L545.598 164.404L545.516 223.039L575.237 223.113C574.417 214.561 575.12 205.351 575.125 196.729C575.129 188.743 573.984 138.544 576.039 135.259L576.627 134.564C577.223 133.83 577.751 133.077 578.463 132.441C583.046 128.348 591.28 128.918 597.001 129.343L597.039 94.0735C597.017 86.5121 595.863 77.1248 597.933 69.9177C598.666 67.3663 600.616 65.1112 603 63.9567C605.294 62.8453 608.394 61.8807 610.844 62.8195L611.5 63.0957C613.386 63.8678 615.056 64.7872 616.509 66.25C618.319 68.0733 619.177 70.0314 619.623 72.5304C620.698 78.5464 619.735 85.5127 619.708 91.656L619.904 129.581L628.695 129.151C632.408 129.044 636.365 129.613 639.06 132.44C640.931 134.402 641.903 137.216 642.203 139.863C642.525 142.697 642.214 145.726 642.172 148.586L642.073 165.229L641.937 223.286L672.035 223.331L672.124 140C672.312 136.276 672.903 134.466 675.82 131.98C680.429 128.053 688.915 129.017 694.538 129.313L694.529 92.6013C694.488 86.2661 693.636 78.7171 694.703 72.5154C695.109 70.1553 696.061 68.0186 697.736 66.2873C700.06 63.8861 703.157 62.5674 706.5 62.5548C709.45 62.5437 712.417 63.9527 714.485 66.0183C715.95 67.4813 717.144 69.6113 717.459 71.6682C718.294 77.1224 717.563 83.6395 717.555 89.2003L717.516 129.088C720.936 129.41 724.423 129.369 727.858 129.453C728.467 129.468 730.647 129.295 731.118 129.531C732.051 130 733.272 131.2 734.035 131.941C735.463 133.324 736.893 135.382 737.313 137.359C737.839 139.835 737.541 142.713 737.54 145.25L737.576 161.043L737.738 223.264L760.407 222.844C773.041 222.865 782.958 225.561 791.997 234.75C805.327 248.301 802.493 265.636 802.463 283.039L859.725 283.045C868.159 283.038 877.521 282.022 885.844 283.22C888.061 283.54 889.98 284.284 891.62 285.846C892.517 286.701 893.959 288.342 894.335 289.538C894.737 290.816 894.467 292.827 894.482 294.215L894.573 306.025L933.332 305.853C938.747 305.818 944.658 305.085 950 305.656C952.174 305.888 954.65 306.576 956.342 308.024C958.651 310.002 960.136 313.325 960.258 316.359C960.379 319.351 958.993 323.073 956.935 325.25C955.382 326.892 953.817 327.541 951.632 327.902C944.921 329.012 937.935 328.217 931.166 328.157L894.847 327.995L894.998 336.997C895.022 341.272 894.952 345.586 891.635 348.75C890.262 350.059 888.413 351.227 886.5 351.459C883.646 351.805 880.424 351.482 877.534 351.48L860.214 351.473L802.488 351.645L802.483 382.035L861.237 382.032C869.773 382.027 878.967 381.205 887.423 381.986C888.598 382.094 889.525 382.353 890.5 383.017C892.737 384.542 893.993 386.937 894.471 389.559L894.59 390.25C895.498 394.957 894.985 400.168 894.899 404.962L934.243 404.969C939.042 404.94 944.114 404.211 948.864 404.649C950.685 404.817 952.553 405.167 954.215 405.959C958.153 407.835 959.432 411.679 960.76 415.505C960.112 418.373 959.257 421.485 957.094 423.595C955.465 425.185 953.646 426.081 951.42 426.481C946.011 427.452 940.223 426.565 934.75 426.565L894.957 426.898C895.042 432.555 896.242 441.389 891.94 445.75C890.467 447.244 888.328 448.247 886.24 448.456C878.016 449.277 868.794 448.447 860.469 448.462L802.4 448.584L802.301 477.958L877.023 477.927C881.854 477.927 888.916 476.844 892.517 480.747C896.383 484.937 894.952 494.641 894.719 500.035L950.531 499.905C953.568 500.259 955.942 501.541 957.75 504.056C959.584 506.606 960.252 509.46 959.708 512.532L959.57 513.25C959.163 515.51 958.387 517.25 956.777 518.943C955.306 520.491 953.565 521.239 951.486 521.581C945.359 522.591 938.448 521.937 932.215 521.938L895.217 521.954L895.337 525.438C895.47 529.728 896.159 537.086 892.852 540.291C891.232 541.861 888.593 543.119 886.354 543.366C883.443 543.686 880.171 543.243 877.224 543.191L863.106 543.204L802.49 543.46L802.488 573.061L857.022 573.267C866.522 573.274 876.751 572.418 886.127 573.447C888.319 573.687 890.639 574.638 892.187 576.25C896.614 580.861 895.131 590.626 894.974 596.523L932.88 596.565C938.318 596.551 944.386 595.825 949.75 596.593C951.855 596.894 953.716 597.606 955.375 598.953C957.9 601.004 959.666 603.958 959.836 607.25C959.998 610.411 958.848 613.395 956.594 615.601C955.158 617.006 953.414 617.918 951.45 618.321C945.674 619.506 939.124 618.598 933.221 618.586L895.078 618.568C895.227 623.28 895.954 629.53 894.218 633.945C893.272 636.35 891.506 638.391 889.093 639.41L888.508 639.643C885.398 640.921 881.482 640.588 878.14 640.607L859.098 640.508L802.189 640.487L802.209 671.034L859.478 671.209C869.135 671.235 880.058 670.291 889.502 671.91C891.85 673.953 893.76 675.651 894.431 678.852L894.558 679.5C895.496 683.889 894.995 688.839 894.919 693.325L927.734 693.346C935.398 693.283 943.794 692.338 951.326 693.723C953.009 694.033 954.334 694.628 955.636 695.739C958.179 697.908 960.471 701.086 960.556 704.535C960.633 707.665 958.722 710.969 956.596 713.167C954.63 715.2 952.372 716.081 949.628 716.552C943.526 717.6 936.629 716.951 930.415 716.952L894.917 716.961C895.011 723.11 896.182 731.478 891.531 736.225C889.721 738.073 887.623 739.086 885.081 739.429C882.074 739.834 878.697 739.518 875.649 739.487L860.355 739.462L801.691 739.481L801.739 740.819L801.669 756.387C801.63 760.996 801.96 766.04 801.221 770.587C800.188 776.94 796.243 783.992 791.81 788.508C786.623 793.793 779.682 797.87 772.25 798.859C768.298 799.386 764.009 799.147 760.02 799.203L741.644 799.439C741.005 800.672 741.348 802.841 741.348 804.256L741.37 819.136L741.397 884.112C741.387 887.568 740.748 890.687 738.14 893.143C733.314 897.689 723.614 896.493 717.5 896.2L717.552 932.429C717.581 938.192 718.476 945.693 717.274 951.233C716.923 952.846 715.878 954.54 714.779 955.75C712.889 957.833 710.102 959.432 707.25 959.563C703.568 959.732 700.678 959.167 697.981 956.497C696.279 954.812 695.136 952.097 694.732 949.756C693.803 944.378 694.753 938.246 694.813 932.759L694.906 896.07L690.11 896.156C687.019 896.17 679.963 896.903 677.29 895.362C676.39 894.843 675.248 893.532 674.5 892.772C673.087 891.338 672.277 889.403 672.085 887.4C671.21 878.275 672.056 868.406 672.077 859.191L672.157 799.205L642.215 799.07L641.773 799.027L641.514 803.089L641.65 861.301L641.678 880.956C641.667 884.076 642.102 888.038 640.685 890.868C639.65 892.935 637.878 894.746 635.653 895.486L635.072 895.666C630.373 897.205 624.386 896.528 619.511 896.039L619.527 931.405C619.556 937.356 620.937 946.444 619.027 952.007C618.099 954.708 615.388 957.515 612.84 958.704C610.439 959.826 606.525 960.153 604.062 959.092C601.069 957.802 598.698 955.261 597.607 952.195L597.375 951.5C595.29 945.362 596.911 936.853 596.955 930.323L597.022 896.087C590.907 896.375 581.943 898.058 577.197 893.514C575.804 892.181 575.049 890.818 574.697 888.926C572.982 879.704 574.32 868.961 574.354 859.546L574.208 803.011L574.278 799.217L545.93 799.459L545.735 803.065L545.679 870.082L545.686 883.736C545.683 885.79 545.937 888.761 545.095 890.674C544.596 891.81 543.507 892.918 542.62 893.759C541.859 894.482 540.083 896.139 539.095 896.446C538.146 896.742 536.141 896.443 535.033 896.442L522.986 896.431L523.008 927.611L523.062 942.615C523.067 946.211 523.272 950.355 521.639 953.656C520.318 956.326 517.346 958.331 514.547 959.154C511.632 960.011 508.417 959.742 505.832 958.124C503.453 956.634 501.661 954.39 500.902 951.666C499.55 946.814 500.277 940.697 500.287 935.662L500.31 906.921C500.31 903.61 500.808 899.301 500.108 896.125L493.235 896.543C489.206 896.729 484.748 896.95 481.64 893.912C480.089 892.396 479 889.89 478.717 887.743C478.347 884.931 478.587 881.83 478.6 878.987L478.564 863.6L478.627 802.941L478.565 799.937L449.683 799.581L449.474 803.152L449.518 869.952L449.518 885.635C449.518 886.935 449.777 889.564 449.294 890.714C448.929 891.582 446.855 893.553 446.103 894.25C445.69 894.633 444.353 895.904 443.795 896.041C442.363 896.394 440.011 896.129 438.5 896.123L426.458 895.973L426.467 932.99C426.471 938.339 427.175 944.657 426.305 949.892C425.917 952.225 424.917 954.271 423.242 955.957C420.898 958.317 417.846 959.589 414.503 959.453C411.522 959.332 408.679 958.081 406.723 955.794C405.628 954.513 404.972 953.06 404.39 951.5L404.142 950.856C403.187 948.153 403.38 945.061 403.381 942.231L403.481 928.134L403.463 896.165C401.654 895.747 399.4 896.177 397.518 896.279C391.896 896.582 385.507 896.269 382.322 890.834C381.46 889.362 381.349 887.552 381.248 885.886C380.707 876.96 381.19 867.737 381.219 858.772L381.37 803.812L381.182 800.055Z"/>
	<path fill="#010D1A" transform="scale(0.362305 0.362305)" d="M478.565 799.937C485.384 798.753 493.126 799.524 500.082 799.489L499.955 803.051C496.814 803.712 493.357 803.327 490.146 803.261C486.32 803.183 482.433 803.336 478.627 802.941L478.565 799.937Z"/>
	<path fill="#010D1A" transform="scale(0.362305 0.362305)" d="M381.182 800.055C387.609 799.915 395.724 799.032 402 800.081C402.714 801.334 402.41 802.002 402.25 803.41C396.095 805.173 387.827 803.399 381.37 803.812L381.182 800.055Z"/>
	<path fill="#010D1A" transform="scale(0.362305 0.362305)" d="M449.474 803.152L435.138 803.735C433.067 803.72 430.745 803.896 428.75 803.333C428.593 802.15 428.48 801.443 428.646 800.25C435.043 798.405 443.096 799.376 449.683 799.581L449.474 803.152Z"/>
	<path fill="#010D1A" transform="scale(0.362305 0.362305)" d="M619.911 799.511L641.773 799.027L641.514 803.089L619.977 803.716L619.911 799.511Z"/>
	<path fill="#010D1A" transform="scale(0.362305 0.362305)" d="M545.735 803.065C540.85 803.611 535.921 803.693 531.01 803.747C529.223 803.766 526.829 804.082 525.196 803.361C525.051 801.59 524.664 800.899 525.75 799.44C531.633 798.485 540.096 798.28 545.93 799.459L545.735 803.065Z"/>
	<path fill="#010D1A" transform="scale(0.362305 0.362305)" d="M574.278 799.217L589.553 799.026C591.37 799.039 593.454 798.66 594.921 799.75L594.821 802.75C593.583 803.629 591.813 803.55 590.334 803.626C585.258 803.888 580.079 803.671 575 803.532L574.208 803.011L574.278 799.217Z"/>
	<path fill="#3D677E" transform="scale(0.362305 0.362305)" d="M404.994 207.042L427.087 207.013L427.239 223.002L404.994 223.022L404.994 207.042Z"/>
	<path fill="#3D677E" transform="scale(0.362305 0.362305)" d="M329.996 206.983L329.959 222.985L307.432 223.485L307.473 207.035L329.996 206.983Z"/>
	<path fill="#3D677E" transform="scale(0.362305 0.362305)" d="M523.973 206.927L523.981 223.505L501.001 223.504L500.993 207.066L523.973 206.927Z"/>
	<path fill="#3D677E" transform="scale(0.362305 0.362305)" d="M596.905 207.032L620.101 207.009L620.031 223.242L596.567 223.507L596.905 207.032Z"/>
	<path fill="#3D677E" transform="scale(0.362305 0.362305)" d="M693.581 160.352L694.03 207.044L716.003 207.016L716.021 223.244L693.574 223.507L693.581 160.352Z"/>
	<path fill="#5991AD" transform="scale(0.362305 0.362305)" d="M404.994 207.042L404.989 150.725L427.168 151.015L427.087 207.013L404.994 207.042Z"/>
	<path fill="#5991AD" transform="scale(0.362305 0.362305)" d="M693.581 160.352L693.716 151.016L716.005 150.78L716.003 207.016L694.03 207.044L693.581 160.352Z"/>
	<path fill="#5991AD" transform="scale(0.362305 0.362305)" d="M307.473 207.035L307.458 151.003L330.009 151.008L329.996 206.983L307.473 207.035Z"/>
	<path fill="#5991AD" transform="scale(0.362305 0.362305)" d="M500.993 207.066L500.988 150.722L524.011 151.014L523.973 206.927L500.993 207.066Z"/>
	<path fill="#5991AD" transform="scale(0.362305 0.362305)" d="M596.905 207.032L596.915 151.009L620.33 150.914L620.101 207.009L596.905 207.032Z"/>
	<path fill="#5991AD" transform="scale(0.362305 0.362305)" d="M802.985 499.995L872.006 499.786L872.017 521.005L802.991 521.025L802.985 499.995Z"/>
	<path fill="#5991AD" transform="scale(0.362305 0.362305)" d="M803.031 595.711L872.001 595.512L872.036 617.507L802.971 617.503L803.031 595.711Z"/>
	<path fill="#5991AD" transform="scale(0.362305 0.362305)" d="M148.726 501.001L222.511 501.014L222.413 521.743L148.77 521.785L148.726 501.001Z"/>
	<path fill="#5991AD" transform="scale(0.362305 0.362305)" d="M802.955 403.497L872.012 404.016L872.015 426.505L802.964 426.243L802.955 403.497Z"/>
	<path fill="#5991AD" transform="scale(0.362305 0.362305)" d="M148.839 693.999L222.351 694.011L222.346 715.966L148.896 716.021L148.839 693.999Z"/>
	<path fill="#5991AD" transform="scale(0.362305 0.362305)" d="M148.555 404.007L222.166 404.009L222.139 426.007L148.631 426.019L148.555 404.007Z"/>
	<path fill="#5991AD" transform="scale(0.362305 0.362305)" d="M802.986 305.498L872.029 305.512L872.046 329.005L802.988 329.026L802.986 305.498Z"/>
	<path fill="#5991AD" transform="scale(0.362305 0.362305)" d="M219.617 596.257C220.949 596.311 221.283 596.148 222.28 597L222.155 618.507L151.875 618.504C150.455 618.503 150.023 618.767 148.974 617.75L148.961 596.403L219.617 596.257Z"/>
	<path fill="#5991AD" transform="scale(0.362305 0.362305)" d="M803.031 693.712L872.262 693.518L872.072 717.507L802.973 717.503L803.031 693.712Z"/>
	<path fill="#5991AD" transform="scale(0.362305 0.362305)" d="M148.737 306.499L222.539 306.514L222.506 329.504L148.86 329.506L148.737 306.499Z"/>
	<path fill="#3D677E" transform="scale(0.362305 0.362305)" d="M307.519 800.01L330.594 800.018L330.592 874.5L307.888 874.507L307.519 800.01Z"/>
	<path fill="#3D677E" transform="scale(0.362305 0.362305)" d="M619.977 803.716L619.968 874.754L595.589 874.862L595.491 799.229L619.911 799.511L619.977 803.716Z"/>
	<path fill="#3D677E" transform="scale(0.362305 0.362305)" d="M500.082 799.489L524.488 799.792L524.642 874.765L499.995 874.74C499.205 866.985 499.978 859.022 499.992 851.224L499.955 803.051L500.082 799.489Z"/>
	<path fill="#3D677E" transform="scale(0.362305 0.362305)" d="M403.038 800.196L427.992 800.443L427.929 874.764L403.004 874.813L403.038 800.196Z"/>
	<path fill="#3D677E" transform="scale(0.362305 0.362305)" d="M693.063 800.001L720.018 800.014L720.01 874.506L693.066 874.502L693.063 800.001Z"/>
	<path fill="#66C15B" transform="scale(0.362305 0.362305)" d="M249.745 773.473C247.756 771.5 246.084 769.421 245.489 766.62L245.368 766C244.603 762.272 244.956 758.063 244.952 754.258L244.956 733.81L244.949 659.329L244.922 366.465L244.958 293.704C244.96 282.313 244.239 270.599 244.9 259.251C245.001 257.517 245.161 255.919 245.86 254.309C247.106 251.445 249.804 248.213 252.805 247.114C256.507 245.757 261.438 246.246 265.38 246.241L287 246.237L347.523 246.23L607.337 246.228L711.473 246.245L768 246.507C770.157 246.613 771.921 247.339 773.887 248.185C765.003 259.662 753.498 269.261 743.232 279.525L729.29 293.464C726.639 296.11 723.994 299.224 720.842 301.257C713.82 296.096 706.659 291.843 697.827 290.871C691.022 290.122 683.871 290.525 677.012 290.516L641.224 290.497L527.495 290.315L387.018 290.233L348.167 290.508C340.408 290.492 332.366 289.632 324.681 290.779C313.815 292.4 303.831 297.195 297.25 306.255C293.018 312.082 290.678 318.952 290.173 326.12C289.567 334.72 290.053 343.633 290.059 352.26L290.057 401.867L290.042 557.021L290.012 652.199L290 678.583C289.989 684.248 289.606 690.289 290.528 695.888C292.051 705.129 296.741 713.33 303.235 719.956C300.879 723.036 297.768 725.496 294.917 728.108L285.507 737.298L261.952 761.58C258.024 765.575 254.152 769.999 249.745 773.473Z"/>
	<path fill="#17A139" transform="scale(0.362305 0.362305)" d="M773.887 248.185C776.935 251.067 780.315 253.736 780.427 258.132L780.51 300.122L780.586 380.162L780.922 587.674L780.513 704.98L780.506 743.292C780.521 750.042 780.989 757.009 780.432 763.725C780.125 767.424 778.255 770.206 775.788 772.896C770.966 778.153 767.252 778.307 760.484 778.444L651.922 778.492L449.632 778.129L323.06 778.013L281.181 778.029C274.098 778.027 266.837 778.349 259.771 777.96C255.954 777.751 252.711 775.73 249.745 773.473C254.152 769.999 258.024 765.575 261.952 761.58L285.507 737.298L294.917 728.108C297.768 725.496 300.879 723.036 303.235 719.956C311.689 726.401 318.257 730.987 329.155 732.184C335.729 732.907 342.712 732.462 349.329 732.468L386.269 732.483L508.212 732.46L634.59 732.486L673.372 732.468C680.718 732.462 688.357 732.896 695.647 732.065C703.086 731.216 710.197 727.473 715.951 722.796C724.902 715.522 731.482 704.883 732.624 693.271C733.437 684.995 732.979 676.437 732.981 668.121L732.987 624.67L732.987 483.846L732.981 373.936L733.015 344.442C733.066 337.946 733.572 331.102 732.735 324.668C731.564 315.66 726.442 308.129 720.842 301.257C723.994 299.224 726.639 296.11 729.29 293.464L743.232 279.525C753.498 269.261 765.003 259.662 773.887 248.185Z"/>
	<path fill="#001B2D" transform="scale(0.362305 0.362305)" d="M303.235 719.956C296.741 713.33 292.051 705.129 290.528 695.888C289.606 690.289 289.989 684.248 290 678.583L290.012 652.199L290.042 557.021L290.057 401.867L290.059 352.26C290.053 343.633 289.567 334.72 290.173 326.12C290.678 318.952 293.018 312.082 297.25 306.255C303.831 297.195 313.815 292.4 324.681 290.779C332.366 289.632 340.408 290.492 348.167 290.508L387.018 290.233L527.495 290.315L641.224 290.497L677.012 290.516C683.871 290.525 691.022 290.122 697.827 290.871C706.659 291.843 713.82 296.096 720.842 301.257C726.442 308.129 731.564 315.66 732.735 324.668C733.572 331.102 733.066 337.946 733.015 344.442L732.981 373.936L732.987 483.846L732.987 624.67L732.981 668.121C732.979 676.437 733.437 684.995 732.624 693.271C731.482 704.883 724.902 715.522 715.951 722.796C710.197 727.473 703.086 731.216 695.647 732.065C688.357 732.896 680.718 732.462 673.372 732.468L634.59 732.486L508.212 732.46L386.269 732.483L349.329 732.468C342.712 732.462 335.729 732.907 329.155 732.184C318.257 730.987 311.689 726.401 303.235 719.956Z"/>
	<path fill="#DEDD46" transform="scale(0.362305 0.362305)" d="M318.972 703.255C315.5 699.912 313.371 696.061 312.141 691.387C311.067 687.303 311.491 682.617 311.49 678.412L311.485 656.539L311.477 577.072L311.49 410.537L311.479 356.527L311.509 329C311.642 326.201 312.695 323.106 314.141 320.725C316.188 317.356 319.999 314.393 323.926 313.618C327.831 312.847 332.404 313.208 336.399 313.163L361.853 312.998L448.146 312.987L614.039 312.993L663.277 312.986C672.621 312.945 682.041 312.373 691.374 312.847C696.398 313.102 699.504 314.322 703.569 317.214C696.821 326.808 687.704 334.926 679.43 343.225L651.871 370.704C648.13 368.463 644.805 366.744 640.357 366.447C632.804 365.944 625.083 366.241 617.511 366.24L578.008 366.237L455.268 366.25L399.217 366.253L384.819 366.085C381.866 366.052 378.633 365.812 375.757 366.539C372.284 367.417 369.496 369.487 367.746 372.642C366.38 375.103 366.126 377.629 366.067 380.396L366.031 444.983L366.03 572.133L366.017 621.169L366.037 636.512C366.047 639.246 365.794 642.351 366.564 645C367.198 647.183 368.455 649.009 369.773 650.829L318.972 703.255Z"/>
	<path fill="#E8CE2E" transform="scale(0.362305 0.362305)" d="M703.569 317.214C707.381 321.123 710.147 324.532 710.816 330.187C711.357 334.757 711.076 339.606 711.069 344.206L711.064 367.971L711.055 447.608L711.025 606.85L711 686.326C710.892 693.416 708.743 699.569 703.63 704.611C700.878 707.324 697.813 708.657 694.241 709.914C690.912 711.085 686.609 710.545 683.1 710.539L662.263 710.498L572.751 710.013L413.529 710.017L335.333 709.985C331.614 709.871 328.03 708.941 324.708 707.285C322.559 706.214 320.727 704.884 318.972 703.255L369.773 650.829C371.897 652.828 374.224 654.726 377.097 655.493C380.053 656.283 383.192 655.924 386.221 655.833L398.228 655.711L452.213 655.69L584.375 655.693L625.973 655.714L643.244 655.917C645.914 655.827 648.272 655.42 650.562 653.986C652.81 652.578 655.216 650.019 655.733 647.321C656.32 644.26 656.017 640.748 656.016 637.622L656.003 621.52L655.947 560.25L655.974 439.779L656.019 401.608C656.031 394.563 656.362 387.348 655.935 380.321C655.705 376.539 653.948 373.726 651.871 370.704L679.43 343.225C687.704 334.926 696.821 326.808 703.569 317.214Z"/>
	<path fill="#001B2D" transform="scale(0.362305 0.362305)" d="M369.773 650.829C368.455 649.009 367.198 647.183 366.564 645C365.794 642.351 366.047 639.246 366.037 636.512L366.017 621.169L366.03 572.133L366.031 444.983L366.067 380.396C366.126 377.629 366.38 375.103 367.746 372.642C369.496 369.487 372.284 367.417 375.757 366.539C378.633 365.812 381.866 366.052 384.819 366.085L399.217 366.253L455.268 366.25L578.008 366.237L617.511 366.24C625.083 366.241 632.804 365.944 640.357 366.447C644.805 366.744 648.13 368.463 651.871 370.704C653.948 373.726 655.705 376.539 655.935 380.321C656.362 387.348 656.031 394.563 656.019 401.608L655.974 439.779L655.947 560.25L656.003 621.52L656.016 637.622C656.017 640.748 656.32 644.26 655.733 647.321C655.216 650.019 652.81 652.578 650.562 653.986C648.272 655.42 645.914 655.827 643.244 655.917L625.973 655.714L584.375 655.693L452.213 655.69L398.228 655.711L386.221 655.833C383.192 655.924 380.053 656.283 377.097 655.493C374.224 654.726 371.897 652.828 369.773 650.829Z"/>
	<path fill="#3BD19A" transform="scale(0.362305 0.362305)" d="M387.487 388.501L634.864 388.501L635.017 633.51L387.483 633.502L387.487 388.501Z"/>
	<path fill="#FCFCFB" transform="scale(0.362305 0.362305)" d="M407.51 402.51C413.193 401.977 468.015 401.644 469.918 402.653L470.715 403.25C471.889 404.103 473.127 404.896 474.049 406.039C475.681 408.064 476.847 411.138 476.463 413.75C475.786 418.348 471.166 422.565 466.825 423.768C461.996 425.107 455.632 423.928 450.631 423.786L429.347 423.502C427.685 423.487 424.355 423.027 423.038 424L422.937 428.793L422.988 453.25C423.006 458.228 423.427 463.538 422.664 468.463L422.529 469.25C422.332 470.465 422.132 471.467 421.491 472.541C419.388 476.063 416.528 477.243 412.748 478.22C409.448 477.477 406.655 476.572 404.506 473.781C403.927 473.029 403.015 471.969 402.673 471.127C402.14 469.813 402.309 467.177 402.288 465.696L402.225 453.94L402.228 422.792C402.238 418.201 401.696 412.742 402.469 408.268C402.934 405.583 405.473 404.024 407.51 402.51Z"/>
</svg>
