<svg width="140" height="140" viewBox="0 0 140 140" fill="none" xmlns="http://www.w3.org/2000/svg">
<path d="M98.6615 58.4679C99.0697 59.0811 99.4689 59.7192 99.9829 60.2478L93.7614 64.0707C93.4652 63.3951 93.1528 62.7494 92.7104 62.158L96.6208 59.6489C97.2807 59.2409 97.9443 58.7599 98.6615 58.4679Z" fill="#E7BECB"/>
<path d="M68.7437 16.563C69.543 16.6502 70.275 16.6946 71.0723 16.5684L71.0991 26.6199C70.3068 26.5495 69.5419 26.5425 68.7524 26.6477L68.7437 16.563Z" fill="#B9B0C6"/>
<path d="M31.0897 58.4288C31.3779 59.0704 31.6861 59.6326 32.0987 60.2018L26.1193 63.5732C24.9602 64.2188 23.7276 65.0557 22.4723 65.4773C22.0791 64.9233 21.7518 64.3616 21.2903 63.8575L31.0897 58.4288Z" fill="#E7BECB"/>
<path d="M68.751 105.967C68.9545 106.025 69.2763 105.999 69.4895 106C70.2022 106.004 70.8692 105.968 71.5672 105.82L71.5435 114.919C70.6359 114.795 69.7304 114.76 68.8254 114.921L68.751 105.967Z" fill="#9893AF"/>
<path d="M107.168 59.9711L108.307 57.9912L118.175 63.6742L116.837 65.5015L107.168 59.9711Z" fill="#B9B0C6"/>
<path d="M67.0714 7.12305C67.0832 7.19054 67.1495 7.42854 67.1341 7.48012C67.0344 7.81633 66.7431 8.09062 66.6495 8.46871C66.2471 10.0934 66.8183 12.4204 68.2334 13.3968C69.298 14.1314 70.8678 14.505 72.1296 14.2508C73.3856 13.9975 74.0724 13.1624 75.0239 12.4245C74.7291 13.7708 73.9441 15.0977 72.7733 15.8487C72.2681 16.1729 71.656 16.4368 71.0725 16.5684C70.2752 16.6947 69.5433 16.6503 68.7439 16.563C67.6084 16.1138 66.5808 15.491 65.844 14.4819C65.0012 13.3278 64.7128 11.9092 64.9347 10.4924C65.1536 9.09577 65.9699 7.9526 67.0714 7.12305Z" fill="#E9E8E3"/>
<path d="M126.418 45.1458L126.275 45.6272C125.83 46.971 124.847 48.0124 123.594 48.6283C122.428 49.2017 120.921 49.2616 119.704 48.8146C118.397 48.3348 117.387 47.2897 116.813 46.0236C116.245 44.7689 116.257 43.2769 116.749 41.9994C117.189 40.8578 117.987 39.8234 119.108 39.3077L119.179 39.3434C119.282 39.392 119.239 39.377 119.35 39.3959L119.291 39.4708C118.997 39.8611 118.767 40.2626 118.681 40.7483L118.661 40.8591C118.559 41.4342 118.605 42.0132 118.734 42.579L118.765 42.7193C119.05 43.9726 119.764 44.8978 120.849 45.5596C121.944 46.2277 123.066 46.5517 124.336 46.2135C125.16 45.9945 125.668 45.4375 126.418 45.1458Z" fill="#F6F5EB"/>
<path d="M31.0897 58.429C30.8182 57.6667 30.6877 56.7913 30.7909 55.9845L30.8111 55.8319C30.8768 55.3126 31.0168 54.8485 31.2119 54.3656C31.7838 52.9492 32.6703 52.1593 34.0492 51.5725L34.027 51.7217C33.9694 52.0176 33.7033 52.1945 33.5271 52.4185C32.7856 53.3615 32.6498 54.6543 32.923 55.7921L32.9497 55.9104C33.1623 56.8179 33.6889 57.5865 34.4301 58.1302L34.5168 58.1949C35.3176 58.7792 36.5766 58.9992 37.5451 58.8346C38.7157 58.6357 39.7592 57.7731 40.4227 56.8012L40.6609 56.4174C40.7699 56.2372 40.9142 56.0942 40.9992 55.9C41.054 56.7741 41.0069 57.6898 40.633 58.4955C40.2743 59.1725 39.9286 59.774 39.4344 60.3624C39.1444 60.6717 38.8092 60.9643 38.444 61.1779C37.4047 61.7859 35.8958 62.0134 34.7353 61.6921L34.5872 61.6501C33.5628 61.3718 32.887 60.9078 32.0987 60.2019C31.6861 59.6328 31.3779 59.0705 31.0897 58.429Z" fill="#14A4D3"/>
<path d="M66.2363 96.6459C66.8503 96.0771 67.4851 95.7111 68.2866 95.4935L68.258 95.6207C68.1616 95.9939 67.5999 96.3591 67.356 96.6714C66.3775 97.9242 66.2499 99.9087 66.9871 101.31C67.4149 102.124 68.1993 102.874 69.0894 103.129L69.411 103.199L69.5032 103.221C70.4605 103.433 71.6109 103.272 72.4273 102.711C73.4761 101.991 74.1887 100.833 74.4026 99.5701L74.5097 98.1317C74.5909 98.2633 74.6635 98.4284 74.7907 98.5163C75.2781 99.2538 75.2825 100.739 75.1212 101.591C74.8422 103.065 73.9508 104.385 72.7152 105.207L71.5672 105.82C70.8692 105.968 70.2022 106.004 69.4896 106C69.2763 105.999 68.9545 106.025 68.751 105.967C68.231 105.887 67.6595 105.721 67.1895 105.481C66.0478 104.897 65.1021 103.718 64.6943 102.5C64.2663 101.222 64.3749 99.6432 64.96 98.4405C65.336 97.7845 65.7535 97.2262 66.2363 96.6459Z" fill="#14A4D3"/>
<path d="M34.8162 33.7885C35.6339 33.9031 36.4428 33.9443 37.2671 33.9008L37.2384 51.3896C36.4445 51.177 35.6768 51.2196 34.8743 51.3317L34.8162 33.7885Z" fill="#9893AF"/>
<path d="M45.6414 91.0564C45.9291 91.8041 46.3296 92.4465 46.8387 93.0595L29.1994 101.666C28.8957 101.025 28.4767 100.423 28.0791 99.8381L45.6414 91.0564Z" fill="#B9B0C6"/>
<path d="M94.1532 91.0479L111.505 100.108C111.062 100.7 110.744 101.334 110.426 102C109.863 101.832 109.279 101.466 108.746 101.201L104.786 99.1745L93.0261 93.0483C93.3964 92.3378 93.8627 91.8289 94.1532 91.0479Z" fill="#B9B0C6"/>
<path d="M45.6412 91.0564L45.62 91.0284C45.0734 89.7362 45.2255 88.0659 45.7727 86.7929C46.4447 85.2293 47.5571 84.0331 49.1318 83.4059L49.0921 83.4637C48.8545 83.7951 48.5223 83.9702 48.2624 84.2698C47.4961 85.1538 47.0298 86.4549 47.2066 87.6344C47.3937 88.8815 48.1848 90.1328 49.192 90.8633C50.2551 91.6343 51.4833 91.9307 52.772 91.6932C53.8875 91.4875 55.1412 90.7469 55.7893 89.7828C56.417 88.8489 56.5015 87.8687 56.5184 86.7692C57.0225 87.6549 57.1287 89.1222 56.8787 90.1097C56.8038 90.4058 56.7149 90.7101 56.5845 90.9863C56.3169 91.5628 56.0632 92.0837 55.6933 92.5987L55.4355 92.9726C54.3503 94.224 52.9201 94.7899 51.3021 94.8976C50.8638 94.9267 50.4447 94.8692 50.0164 94.778L49.8872 94.7513C48.7416 94.5055 47.66 93.9034 46.8385 93.0595C46.3294 92.4465 45.9289 91.8041 45.6412 91.0564Z" fill="#303F85"/>
<path d="M119.108 39.3077C120.208 38.7783 121.429 38.5256 122.63 38.8456C123.953 39.1979 125.167 39.9415 125.874 41.1636C126.571 42.3689 126.712 43.7981 126.418 45.1458C125.668 45.4375 125.16 45.9945 124.337 46.2135C123.066 46.5517 121.944 46.2277 120.849 45.5596C119.764 44.8978 119.051 43.9726 118.765 42.7192L118.734 42.579C118.606 42.0132 118.559 41.4342 118.661 40.8591L118.682 40.7483C118.767 40.2626 118.998 39.8611 119.291 39.4707L119.351 39.3959C119.24 39.377 119.282 39.3919 119.18 39.3434L119.108 39.3077Z" fill="#E9E8E3"/>
<path d="M34.8743 51.3318C35.6768 51.2197 36.4446 51.177 37.2384 51.3897C38.5305 51.7649 39.6735 52.5814 40.3379 53.7868C40.7112 54.4641 40.8752 55.1446 40.9992 55.9C40.9143 56.0942 40.77 56.2371 40.661 56.4174L40.4227 56.8012C39.7592 57.773 38.7157 58.6357 37.5451 58.8345C36.5766 58.9991 35.3176 58.7791 34.5169 58.1949L34.4302 58.1301C33.6889 57.5865 33.1624 56.8179 32.9497 55.9103L32.9231 55.792C32.6498 54.6543 32.7856 53.3615 33.5272 52.4184C33.7034 52.1944 33.9694 52.0176 34.0271 51.7216L34.0492 51.5725L34.8743 51.3318Z" fill="#1EC1EF"/>
<path d="M68.2866 95.4935C69.7959 95.1177 71.2482 95.1657 72.6088 96.0041C72.9623 96.2218 73.2613 96.4775 73.5531 96.7734C73.9286 97.1963 74.2618 97.6168 74.5097 98.1317L74.4026 99.5701C74.1887 100.833 73.476 101.991 72.4273 102.711C71.6108 103.272 70.4605 103.433 69.5032 103.221L69.411 103.199L69.0894 103.129C68.1992 102.874 67.4148 102.124 66.987 101.31C66.2499 99.9087 66.3774 97.9242 67.3559 96.6714C67.5998 96.3591 68.1616 95.9939 68.258 95.6207L68.2866 95.4935Z" fill="#1EC1EF"/>
<path d="M43.3015 26.7213L43.4048 27.1561L63.4314 31.8566C63.2673 32.6544 63.2351 33.4297 63.2361 34.243L42.834 29.592C43.136 28.6203 43.2991 27.7406 43.3015 26.7213Z" fill="#9893AF"/>
<path d="M34.8162 33.7885C33.8149 33.6214 32.8258 33.1264 32.021 32.5073C30.6996 31.4912 29.6363 29.799 29.4114 28.1162L29.3935 27.973C29.2605 26.9975 29.2858 26.0139 29.5468 25.0603C30.0181 23.3391 30.9727 21.7183 32.5491 20.827L32.5351 20.9011C32.4159 21.4632 32.0042 21.9522 31.7743 22.4809C31.0831 24.0706 30.971 26.2781 31.907 27.8L31.9767 27.9106L32.0453 28.0246C32.8597 29.323 34.4264 30.3985 35.9139 30.6973C37.5909 31.0343 39.4486 30.6215 40.8579 29.65C41.7494 29.0355 42.4368 28.2349 42.8418 27.2169C42.9506 26.9434 43.0258 26.547 43.2333 26.3413C43.2379 26.1853 43.2322 26.0228 43.2578 25.869C43.281 26.1512 43.3211 26.4384 43.3019 26.7213C43.2996 27.7406 43.1364 28.6203 42.8344 29.592C42.0838 31.3153 40.774 32.7499 39.0236 33.4472C38.4694 33.6679 37.8589 33.8318 37.2671 33.9009C36.4428 33.9444 35.6339 33.9031 34.8162 33.7885Z" fill="#E9E8E3"/>
<path d="M67.0713 7.12313C68.3469 6.35837 69.792 5.98474 71.2659 6.34739C72.6188 6.68026 73.7366 7.48562 74.4422 8.71045C75.1073 9.86524 75.3424 11.1151 75.0237 12.4246C74.0722 13.1624 73.3855 13.9976 72.1294 14.2508C70.8676 14.5051 69.2978 14.1314 68.2332 13.3969C66.8181 12.4204 66.247 10.0935 66.6493 8.46879C66.7429 8.09071 67.0342 7.81642 67.1339 7.4802C67.1493 7.42863 67.0831 7.19063 67.0713 7.12313Z" fill="#F6F5EB"/>
<path d="M50.1343 83.134C50.7445 83.1141 51.3562 83.0883 51.9662 83.1209C52.1416 83.1303 52.3955 83.1142 52.5604 83.1712C54.155 83.6158 55.2827 84.4526 56.1179 85.9194C56.2721 86.1901 56.413 86.4757 56.5186 86.7693C56.5017 87.8688 56.4172 88.849 55.7895 89.783C55.1414 90.747 53.8877 91.4876 52.7722 91.6933C51.4836 91.9308 50.2553 91.6344 49.1922 90.8634C48.1851 90.1329 47.3939 88.8816 47.2068 87.6345C47.03 86.455 47.4963 85.154 48.2626 84.27C48.5225 83.9704 48.8547 83.7952 49.0923 83.4638L49.132 83.406C49.4653 83.2812 49.7874 83.2046 50.1343 83.134Z" fill="#5766B1"/>
<path d="M118.175 63.6744C118.735 62.9878 119.333 62.4124 120.112 61.9855L120.056 62.1308C119.878 62.5848 119.613 62.9967 119.446 63.4574C118.603 65.7956 118.331 68.497 119.28 70.8501C120.177 73.0773 121.878 74.9161 124.095 75.8166C126.493 76.7909 129.16 76.6343 131.514 75.5968C132.12 75.33 132.605 74.8597 133.187 74.6039L132.986 75.0207C131.92 77.1031 129.769 78.7089 127.577 79.3754C125.316 80.0626 122.67 79.63 120.62 78.492C118.321 77.2164 116.711 74.9674 116.011 72.4281C115.385 70.1551 115.711 67.5496 116.836 65.5016L118.175 63.6744Z" fill="#088B89"/>
<path d="M78.8291 127.935C78.5936 128.561 78.2836 129.159 77.9133 129.714C76.6413 131.618 74.4796 133.22 72.2247 133.654C69.5517 134.17 66.9057 133.674 64.6472 132.123C62.6897 130.778 61.3283 128.555 60.8892 126.211C60.4167 123.69 60.9602 121.007 62.4028 118.898C63.8906 116.722 65.9895 115.433 68.5431 114.968L68.4323 115.071C68.0064 115.456 67.4013 115.653 66.9371 116.021C65.1278 117.454 63.8449 119.672 63.6602 122.012C63.4856 124.225 64.1394 126.455 65.5848 128.133C66.9967 129.773 68.6856 130.632 70.797 130.92C73.1719 131.243 76.118 130.184 77.9694 128.701C78.2752 128.456 78.4911 128.142 78.8291 127.935Z" fill="#E0302D"/>
<path d="M104.169 51.5141L104.711 51.6164C105.966 51.9082 107.054 52.7265 107.735 53.8278C108.266 54.6855 108.473 55.6169 108.484 56.6232C108.456 57.0986 108.391 57.5244 108.307 57.9913L107.168 59.9712C106.436 60.891 105.294 61.5084 104.131 61.6225C102.675 61.7656 101.306 61.3574 100.17 60.4165L99.983 60.2479C99.469 59.7192 99.0698 59.0811 98.6617 58.4679C98.264 57.6014 98.1766 56.7014 98.3124 55.7589L98.3319 55.6329C98.4231 55.0047 98.6053 54.4346 98.9142 53.8817C99.6184 52.6214 100.616 52.0104 101.959 51.628C102.675 51.4661 103.441 51.4964 104.169 51.5141Z" fill="#1EC1EF"/>
<path d="M104.169 51.5141L104.711 51.6164C104.111 51.6147 103.664 51.6217 103.096 51.8305C102.284 52.1297 101.882 52.4 101.474 53.2052C101.091 53.9604 100.859 54.9061 100.995 55.7523L101.014 55.8744C101.164 56.7876 101.722 57.6965 102.468 58.2275C102.96 58.5781 103.492 58.7556 104.078 58.8643L104.178 58.8837C105.128 59.0587 106.411 58.7492 107.19 58.1745C107.59 57.8789 107.88 57.5046 108.136 57.0804C108.238 56.9118 108.351 56.7676 108.484 56.6232C108.456 57.0986 108.391 57.5244 108.307 57.9913L107.168 59.9712C106.436 60.891 105.294 61.5084 104.131 61.6225C102.675 61.7656 101.306 61.3574 100.17 60.4165L99.983 60.2479C99.469 59.7192 99.0698 59.0811 98.6617 58.4679C98.264 57.6014 98.1766 56.7014 98.3124 55.7589L98.3319 55.6329C98.4231 55.0047 98.6053 54.4346 98.9142 53.8817C99.6184 52.6214 100.616 52.0104 101.959 51.628C102.675 51.4661 103.441 51.4964 104.169 51.5141Z" fill="#14A4D3"/>
<path d="M29.0024 109.914L28.851 110.223C27.6985 112.457 25.577 114.145 23.2264 114.892C20.8461 115.649 18.2401 115.246 16.0708 114.075C13.9799 112.946 12.3762 110.883 11.6912 108.599C10.982 106.233 11.284 103.527 12.4447 101.359C13.5284 99.335 15.5389 97.5993 17.7255 96.9321L17.6395 97.0514C17.5534 97.1666 17.4684 97.2421 17.3565 97.3295C15.7571 98.5775 14.7102 100.916 14.4573 102.912C14.1812 105.093 14.8793 107.258 16.1989 108.976C17.541 110.724 19.5417 111.828 21.717 112.067C23.5968 112.273 25.6611 111.814 27.3239 110.91C27.8971 110.598 28.4175 110.211 29.0024 109.914Z" fill="#088B89"/>
<path d="M115.443 97.1652L115.441 97.2363C115.42 97.7118 115.065 98.0423 114.811 98.4194C114.564 98.7846 114.327 99.1837 114.143 99.5849C112.642 102.85 112.955 107.249 115.381 109.984C116.872 111.665 118.797 112.549 121.015 112.652C122.4 112.716 124.047 112.403 125.269 111.732C125.829 111.425 126.265 111.001 126.912 110.904C125.892 112.44 124.649 113.658 122.977 114.435C120.729 115.48 117.945 115.632 115.62 114.738C113.372 113.872 111.401 112.137 110.422 109.882C109.284 107.261 109.404 104.626 110.426 102C110.743 101.334 111.062 100.7 111.504 100.108C112.697 98.8868 113.872 97.8564 115.443 97.1652Z" fill="#E0302D"/>
<path d="M32.5487 20.8269C34.2033 19.8159 36.113 19.4943 37.9946 19.9735C39.7486 20.4202 41.3754 21.5976 42.3005 23.1822C42.7993 24.0366 43.0849 24.8923 43.2573 25.8689C43.2317 26.0227 43.2374 26.1852 43.2328 26.3412C43.0254 26.5469 42.9502 26.9433 42.8413 27.2168C42.4363 28.2348 41.749 29.0354 40.8574 29.6499C39.4481 30.6214 37.5905 31.0342 35.9134 30.6972C34.4259 30.3984 32.8593 29.3229 32.0449 28.0245L31.9762 27.9106L31.9065 27.7999C30.9706 26.278 31.0827 24.0705 31.7738 22.4808C32.0037 21.9521 32.4155 21.4631 32.5347 20.901L32.5487 20.8269Z" fill="#F6F5EB"/>
<path d="M87.258 72.2001C87.5348 72.1431 87.8894 72.2209 88.1776 72.218C88.6412 72.2133 89.1078 72.1456 89.5597 72.0452L89.5478 83.0527C91.0706 83.3281 92.2927 84.0182 93.196 85.3189L93.5224 85.8439C94.3451 87.0404 94.6757 88.6309 94.4073 90.069L94.153 91.0479C93.8625 91.8289 93.3962 92.3378 93.0259 93.0483C91.7024 94.2657 90.3198 94.9696 88.492 94.8938L87.5102 94.7709L87.3903 94.7512C86.2559 94.5528 85.2711 93.8974 84.4246 93.1365C83.9185 92.5808 83.5262 91.9777 83.1821 91.3082C82.6174 89.7906 82.5228 88.2937 83.1121 86.7551C83.7269 85.1496 85.019 84.0389 86.5503 83.3714L87.2091 83.1809L87.2054 72.1969L87.258 72.2001Z" fill="#5766B1"/>
<path d="M87.2581 72.2001C87.5349 72.1431 87.8895 72.2209 88.1777 72.218C88.6413 72.2133 89.1079 72.1456 89.5598 72.0452L89.5479 83.0527C88.9786 82.8203 87.8724 83.0647 87.2733 83.1597L87.2581 72.2001Z" fill="#E7BECB"/>
<path d="M83.1821 91.3081C82.6174 89.7905 82.5228 88.2936 83.1121 86.755C83.7269 85.1495 85.019 84.0388 86.5503 83.3713L86.5136 83.4331C86.2909 83.7992 85.9957 84.1017 85.7719 84.4666C85.1734 85.4426 84.8185 86.7981 85.031 87.9478L85.1305 88.3093L85.1599 88.4194C85.4459 89.4683 86.2157 90.5509 87.1518 91.097C88.2156 91.7178 89.5376 91.9415 90.7295 91.5903C91.6564 91.3173 92.6894 90.6046 93.1685 89.7415C93.87 88.4781 93.7477 87.201 93.5224 85.8438C94.3451 87.0403 94.6757 88.6308 94.4073 90.0689L94.153 91.0478C93.8625 91.8288 93.3962 92.3377 93.0259 93.0482C91.7024 94.2656 90.3198 94.9695 88.492 94.8937L87.5102 94.7708L87.3903 94.7511C86.2559 94.5527 85.2711 93.8973 84.4246 93.1364C83.9185 92.5807 83.5262 91.9776 83.1821 91.3081Z" fill="#303F85"/>
<path d="M71.099 26.6198C72.9028 26.9526 74.6025 27.9126 75.652 29.4746C76.1299 30.1855 76.4342 31.0143 76.6952 31.8281L76.8084 32.5663C76.868 33.0787 76.9242 33.5768 76.9129 34.0939C76.6439 36.1838 75.807 38.0559 74.1299 39.3638C73.2887 40.02 72.3474 40.4409 71.3186 40.6889L71.2517 40.7017C70.4567 40.7701 69.7006 40.8004 68.9074 40.7009L68.8516 40.6854C67.7778 40.4627 66.7268 40.0519 65.8774 39.3312C64.339 38.0258 63.4129 36.2699 63.2361 34.2429C63.2352 33.4296 63.2674 32.6543 63.4315 31.8564L63.5987 31.27C64.2214 29.6126 65.4553 28.0135 67.0781 27.2744C67.6099 26.9995 68.1804 26.8143 68.7524 26.6476C69.5418 26.5424 70.3068 26.5494 71.099 26.6198Z" fill="#1EC1EF"/>
<path d="M63.4315 31.8565L63.5987 31.27C64.2214 29.6126 65.4553 28.0135 67.0781 27.2744L67.0527 27.3669C66.949 27.7257 66.7848 27.9328 66.6185 28.2515C66.4339 28.6053 66.3259 29.0217 66.2238 29.4057L66.1871 29.5397C65.8589 30.7977 66.068 32.2406 66.7311 33.3481C67.497 34.6277 68.6968 35.4827 70.1265 35.8175C70.9255 36.0046 71.7999 35.9847 72.598 35.8016L72.7423 35.7693C74.2611 35.4162 75.6733 34.4059 76.4838 33.0593C76.588 32.8863 76.6773 32.7212 76.8084 32.5663C76.868 33.0788 76.9242 33.5769 76.9129 34.0939C76.6439 36.1838 75.807 38.0559 74.1299 39.3639C73.2887 40.02 72.3474 40.441 71.3186 40.689L71.2517 40.7017C70.4567 40.7702 69.7006 40.8004 68.9074 40.7009L68.8516 40.6855C67.7778 40.4628 66.7268 40.0519 65.8774 39.3312C64.339 38.0258 63.4129 36.2699 63.2361 34.2429C63.2352 33.4296 63.2674 32.6543 63.4315 31.8565Z" fill="#14A4D3"/>
<path d="M17.7254 96.9321C19.9612 96.0801 22.5532 96.1585 24.7312 97.1593C26.1147 97.7951 27.1372 98.6306 28.0788 99.8382C28.4765 100.423 28.8955 101.025 29.1992 101.666C29.6009 102.612 29.8451 103.461 29.9864 104.483C30.2328 106.263 29.7955 108.313 29.0022 109.914C28.4174 110.211 27.897 110.598 27.3238 110.91C25.661 111.814 23.5967 112.273 21.7169 112.067C19.5416 111.828 17.5409 110.724 16.1988 108.976C14.8792 107.258 14.1811 105.093 14.4572 102.912C14.71 100.916 15.757 98.5776 17.3563 97.3295C17.4683 97.2421 17.5533 97.1666 17.6393 97.0514L17.7254 96.9321Z" fill="#1B9F99"/>
<path d="M23.7688 99.5499C24.1864 99.5204 24.6631 99.6016 25.0466 99.7723C25.6013 100.019 26.0638 100.495 26.2654 101.077L26.2962 101.171L26.3931 101.502C26.5258 102.178 26.3771 103.039 25.9655 103.593C25.5006 104.218 24.9053 104.488 24.1539 104.597C23.5967 104.589 23.0971 104.525 22.6064 104.228C22.0154 103.869 21.6465 103.292 21.5 102.618C21.3518 101.936 21.4997 101.156 21.8973 100.584C22.3675 99.9084 23.002 99.6914 23.7688 99.5499Z" fill="#73BFBE"/>
<path d="M115.443 97.1652C117.906 96.1831 120.498 96.1004 122.95 97.1859C125.121 98.1473 126.979 100.077 127.831 102.326C128.704 104.632 128.638 107.374 127.61 109.623L126.912 110.904C126.265 111.001 125.829 111.425 125.269 111.732C124.047 112.403 122.4 112.716 121.015 112.652C118.797 112.549 116.872 111.665 115.381 109.984C112.956 107.249 112.642 102.85 114.143 99.5849C114.327 99.1838 114.564 98.7847 114.811 98.4195C115.065 98.0423 115.42 97.7119 115.441 97.2364L115.443 97.1652Z" fill="#F03F37"/>
<path d="M121.47 99.3096C121.985 99.303 122.399 99.2569 122.898 99.4383C123.467 99.645 124.005 100.031 124.252 100.605C124.506 101.195 124.484 101.92 124.252 102.515C123.958 103.27 123.381 103.653 122.678 103.954C122.066 104.05 121.528 104.037 120.957 103.779C120.396 103.526 120.009 103.025 119.809 102.446C119.594 101.822 119.626 101.095 119.914 100.501C120.227 99.8553 120.836 99.541 121.47 99.3096Z" fill="#FD7D79"/>
<path d="M120.113 61.9854C122.111 60.6654 124.694 60.3206 127 60.8098C129.434 61.3257 131.488 62.8292 132.828 64.9431C134.198 67.1048 134.649 69.6116 134.096 72.126C133.911 72.9656 133.637 73.8711 133.188 74.6039C132.605 74.8597 132.12 75.33 131.515 75.5968C129.161 76.6342 126.494 76.7909 124.095 75.8166C121.879 74.9161 120.178 73.0772 119.28 70.8501C118.332 68.4969 118.604 65.7956 119.447 63.4573C119.613 62.9966 119.878 62.5848 120.057 62.1308L120.113 61.9854Z" fill="#1B9F99"/>
<path d="M128.322 64.288C128.838 64.257 129.284 64.3159 129.751 64.554C130.302 64.8347 130.735 65.361 130.92 65.9556C131.113 66.5751 131.012 67.2151 130.718 67.7825C130.384 68.428 129.803 68.7497 129.148 68.9734C128.871 69.0141 128.575 69.0383 128.298 68.986C127.656 68.8645 127.059 68.5098 126.706 67.941C126.394 67.4385 126.295 66.6891 126.418 66.1113L126.439 66.0202C126.494 65.7723 126.56 65.5441 126.694 65.326C127.091 64.6774 127.62 64.4386 128.322 64.288Z" fill="#73BFBE"/>
<path d="M68.8256 114.921C69.7306 114.759 70.6361 114.795 71.5436 114.919C74.1754 115.437 76.4163 116.871 77.925 119.132C78.7322 120.342 79.2464 121.767 79.4372 123.21L79.457 123.353C79.6503 124.875 79.3917 126.516 78.8293 127.935C78.4913 128.142 78.2754 128.456 77.9696 128.7C76.1183 130.184 73.1722 131.242 70.7972 130.919C68.6858 130.632 66.997 129.773 65.585 128.133C64.1396 126.454 63.4858 124.225 63.6605 122.012C63.8451 119.672 65.128 117.453 66.9373 116.021C67.4015 115.653 68.0066 115.456 68.4325 115.071L68.5434 114.967L68.8256 114.921Z" fill="#F03F37"/>
<path d="M72.8467 118.254C73.2588 118.238 73.6497 118.214 74.0476 118.348C74.7036 118.568 75.2006 118.978 75.4979 119.617C75.7464 120.151 75.8338 120.837 75.6267 121.401L75.5884 121.499L75.4163 121.897C75.0728 122.57 74.4888 122.857 73.811 123.075C73.4444 123.09 73.0603 123.129 72.7049 123.018C72.1492 122.846 71.5425 122.446 71.2919 121.895L71.2314 121.752C71.0249 121.29 70.901 120.85 70.9783 120.337L70.9973 120.225C71.0294 120.029 71.0668 119.852 71.1521 119.671C71.5009 118.93 72.1218 118.54 72.8467 118.254Z" fill="#FD7D79"/>
<path d="M22.4725 65.4773C23.1295 66.3653 23.5339 67.5543 23.704 68.6432C24.0696 70.986 23.4554 73.7986 22.0605 75.722C20.5255 77.8385 18.4346 79.2142 15.8601 79.5839C13.3009 79.9511 10.7251 79.2722 8.67085 77.6694C6.73452 76.1585 5.52232 73.8668 5.19225 71.4327C4.86591 69.026 5.59518 66.6042 6.96851 64.6444C8.36713 62.6486 10.839 61.2354 13.2024 60.8511C15.3506 60.5019 18.0304 61.1055 19.7998 62.4139C20.3714 62.8366 20.8361 63.3091 21.2904 63.8575C21.752 64.3617 22.0792 64.9233 22.4725 65.4773Z" fill="#F03F37"/>
<path d="M17.3713 63.8059C17.8115 63.7778 18.2275 63.8094 18.6466 63.9592C19.2855 64.1876 19.8725 64.5565 20.1665 65.1991C20.398 65.7052 20.4592 66.3022 20.2643 66.8296L20.2229 66.9356L20.1136 67.2037C19.7436 67.9785 19.1845 68.4443 18.3849 68.7245C17.7286 68.7713 17.1814 68.7856 16.5819 68.4674C16.0468 68.1835 15.6574 67.6809 15.467 67.108C15.2437 66.4364 15.3353 65.6468 15.668 65.0253C16.035 64.3396 16.6566 63.9986 17.3713 63.8059Z" fill="#FD7D79"/>
<path d="M100.175 16.5648C101.818 16.1528 103.583 15.9933 105.256 16.3301C108.406 16.9648 110.988 18.5408 112.821 21.2591C114.704 24.0502 115.34 27.207 114.708 30.5351C114.317 32.5911 113.267 34.5579 111.936 36.1425C110.042 38.456 107.092 39.8421 104.183 40.2381C103.47 40.311 102.666 40.4208 101.955 40.3196C101.174 40.1809 100.406 40.1035 99.6345 39.9057C98.6037 39.6416 97.6403 39.2043 96.7201 38.6687C94.6835 37.4834 92.9609 35.5635 91.9813 33.4002C91.6061 32.5718 91.3661 31.7047 91.1329 30.827C91.0646 30.6642 91.0589 30.385 91.033 30.2017L90.8677 28.4793C90.8961 26.3814 91.3528 24.1933 92.4103 22.3707C94.1411 19.3884 96.8877 17.4233 100.175 16.5648Z" fill="#F03F37"/>
<path d="M106.432 19.555C107.044 19.5149 107.652 19.6009 108.224 19.8319C109.081 20.1784 109.796 20.8127 110.136 21.6992C110.461 22.549 110.425 23.5294 110.032 24.3514C109.586 25.2841 108.688 25.8874 107.747 26.2074C107.015 26.386 106.248 26.3242 105.563 26.0031C104.749 25.6214 104.148 24.8681 103.855 24.0193L103.82 23.9139L103.721 23.5809C103.558 22.7371 103.781 21.7831 104.244 21.0715C104.796 20.2235 105.45 19.7645 106.432 19.555Z" fill="#FD7D79"/>
<path d="M90.8677 28.4792C90.8961 26.3813 91.3528 24.1932 92.4103 22.3706C94.1411 19.3883 96.8877 17.4232 100.175 16.5647L100.14 16.6209C99.856 17.0529 99.3255 17.3183 98.9348 17.651C98.3264 18.1692 97.7064 18.7972 97.2517 19.4561L97.1716 19.5691C95.7017 21.6695 94.8949 24.9809 95.3644 27.5154C95.9255 30.5436 97.4686 33.2886 100.041 35.0172C101.715 36.1423 103.487 36.7448 105.471 37.0065C106.882 37.1928 108.46 37.061 109.841 36.7338L111.936 36.1424C110.042 38.456 107.092 39.8421 104.183 40.238C103.47 40.3109 102.666 40.4207 101.955 40.3195C101.174 40.1808 100.406 40.1035 99.6345 39.9056C98.6037 39.6415 97.6403 39.2042 96.7201 38.6687C94.6835 37.4833 92.9609 35.5634 91.9813 33.4002C91.6061 32.5717 91.3661 31.7046 91.1329 30.827C91.0646 30.6641 91.0589 30.3849 91.033 30.2017L90.8677 28.4792Z" fill="#E0302D"/>
<path d="M75.8532 58.0548L80.5685 60.6898C81.5562 61.2425 82.6181 61.7658 83.5261 62.4427C83.0968 62.9823 82.6374 63.7044 82.5148 64.3959L74.8767 60.1858C74.973 59.9352 75.1815 59.6937 75.3117 59.4535C75.5471 59.0189 75.6987 58.5233 75.8532 58.0548Z" fill="#E7BECB"/>
<path d="M101.955 40.3195C102.666 40.4208 103.47 40.3109 104.183 40.238L104.17 51.514C103.441 51.4963 102.675 51.4661 101.959 51.628L101.955 40.3195Z" fill="#B9B0C6"/>
<path d="M76.6956 31.8282L90.8678 28.4792L91.0332 30.2017C91.0591 30.3849 91.0647 30.6642 91.133 30.827L76.9132 34.094C76.9245 33.5769 76.8683 33.0788 76.8088 32.5664L76.6956 31.8282Z" fill="#B9B0C6"/>
<path d="M87.1171 60.3399C88.5909 60.021 90.0831 60.1271 91.3757 60.9659C91.8849 61.2962 92.2954 61.7169 92.7109 62.1581C93.1533 62.7495 93.4657 63.3951 93.7618 64.0708C94.0018 64.9334 94.0959 65.7743 93.9627 66.6656C93.9154 68.1588 93.2577 69.5765 92.1823 70.5994C91.3908 71.3524 90.5521 71.6638 89.5599 72.0452C89.1079 72.1457 88.6413 72.2133 88.1777 72.2181C87.8896 72.221 87.535 72.1431 87.2581 72.2001L87.2055 72.1969C86.998 71.9682 86.4388 71.9306 86.1362 71.8271C84.891 71.4008 83.7733 70.4889 83.0891 69.349C82.1319 67.754 82.0979 66.1664 82.5148 64.396C82.6375 63.7045 83.0968 62.9824 83.5262 62.4427C84.4811 61.4544 85.7094 60.4883 87.1171 60.3399Z" fill="#5766B1"/>
<path d="M83.5262 62.4426C84.4811 61.4544 85.7094 60.4882 87.1171 60.3398L86.9922 60.4408C86.4036 60.912 85.8675 61.1941 85.471 61.8812C84.7924 63.057 84.5122 64.4101 84.8687 65.7435C84.9334 65.9859 85.0275 66.2079 85.1314 66.4349L85.1789 66.5404C85.7089 67.6931 86.6998 68.6399 87.8808 69.0725C89.1107 69.5232 90.5185 69.4751 91.6983 68.9022C92.5624 68.4826 93.2255 67.881 93.7256 67.0549L93.9627 66.6655C93.9154 68.1588 93.2577 69.5764 92.1823 70.5994C91.3908 71.3523 90.5521 71.6637 89.5599 72.0451C89.1079 72.1456 88.6413 72.2133 88.1777 72.218C87.8896 72.2209 87.535 72.1431 87.2581 72.2L87.2055 72.1969C86.998 71.9681 86.4388 71.9305 86.1362 71.8271C84.891 71.4007 83.7733 70.4889 83.0891 69.3489C82.1319 67.7539 82.0979 66.1663 82.5148 64.3959C82.6375 63.7044 83.0968 62.9823 83.5262 62.4426Z" fill="#303F85"/>
<path d="M83.1821 91.3081C83.5262 91.9777 83.9185 92.5807 84.4246 93.1364L74.7907 98.5162C74.6635 98.4283 74.591 98.2632 74.5098 98.1316C74.262 97.6168 73.9287 97.1962 73.5532 96.7734L83.1821 91.3081Z" fill="#E7BECB"/>
<path d="M56.5844 90.9865L66.2362 96.6459C65.7534 97.2262 65.3359 97.7845 64.9599 98.4405L55.4353 92.9727L55.6932 92.5988C56.063 92.0838 56.3168 91.5629 56.5844 90.9865Z" fill="#E7BECB"/>
<path d="M50.1415 72.0588C50.8881 72.2015 51.827 72.3096 52.5658 72.095L52.5604 83.1712C52.3955 83.1142 52.1416 83.1302 51.9662 83.1209C51.3562 83.0882 50.7445 83.114 50.1343 83.1339L50.1415 72.0588Z" fill="#E7BECB"/>
<path d="M39.4341 60.3623C39.9283 59.774 40.2739 59.1725 40.6326 58.4955L47.2017 62.3139L45.9263 64.1976L39.4341 60.3623Z" fill="#E7BECB"/>
<path d="M63.7756 58.1575C64.0357 58.811 64.3479 59.6483 64.7714 60.2053L56.8427 64.8477C56.5525 64.0839 56.2542 63.3976 55.7983 62.7177L63.7756 58.1575Z" fill="#E7BECB"/>
<path d="M48.9683 61.0388C49.4894 60.7877 49.952 60.6075 50.5268 60.5142L50.6482 60.4938C52.0247 60.2797 53.5333 60.6992 54.6482 61.5345C55.0749 61.8541 55.4736 62.293 55.7984 62.7178C56.2543 63.3977 56.5525 64.084 56.8427 64.8478L56.9013 65.1195C57.3215 66.263 56.9804 67.8342 56.4953 68.9166C55.9352 70.1669 54.9877 71.2163 53.6967 71.7033L52.7324 72.0067C52.6293 72.0366 52.6665 72.0239 52.5655 72.095C51.8268 72.3096 50.8878 72.2015 50.1413 72.0589L49.0517 71.7224C47.6857 71.2085 46.627 70.0313 46.0365 68.7082C45.4013 67.2845 45.3766 65.6474 45.9266 64.1976L47.2019 62.3139C47.7493 61.7734 48.2582 61.3441 48.9683 61.0388Z" fill="#5766B1"/>
<path d="M47.2019 62.3138C47.7493 61.7734 48.2582 61.344 48.9683 61.0387C48.1289 62.1523 47.4467 63.2217 47.6457 64.7068L47.7596 65.264C48.0239 66.3852 48.6888 67.444 49.6598 68.0744L49.9771 68.2522L50.0852 68.3108C51.1928 68.8981 52.5988 68.9367 53.7801 68.5588C54.907 68.1982 55.9575 67.5066 56.5142 66.4181C56.7304 65.9955 56.7953 65.5755 56.9013 65.1195C57.3215 66.2629 56.9804 67.8342 56.4953 68.9165C55.9352 70.1668 54.9877 71.2162 53.6967 71.7032L52.7324 72.0066C52.6293 72.0365 52.6665 72.0238 52.5655 72.095C51.8268 72.3096 50.8878 72.2015 50.1413 72.0588L49.0517 71.7223C47.6857 71.2084 46.627 70.0312 46.0365 68.7081C45.4013 67.2845 45.3766 65.6473 45.9266 64.1976L47.2019 62.3138Z" fill="#303F85"/>
<path d="M71.2522 40.7018L71.3191 40.6891L71.3064 49.9826C73.1465 50.5482 74.4363 51.5126 75.3405 53.2553C75.5596 53.6775 75.6964 54.1546 75.8033 54.6169C76.1303 55.5838 76.1392 56.7009 75.9238 57.6901L75.881 57.9139L75.8534 58.0548C75.6989 58.5233 75.5473 59.0189 75.3119 59.4535C75.1817 59.6937 74.9732 59.9352 74.8769 60.1858C74.7764 60.5538 74.1895 61.1152 73.9033 61.364C72.5993 62.4968 70.8058 63.0008 69.1078 62.8233C67.8524 62.6921 66.5207 62.0975 65.6091 61.2094C65.2972 60.9057 65.0483 60.5411 64.7717 60.2054C64.3482 59.6483 64.036 58.811 63.7759 58.1575C63.7266 58.0451 63.6878 57.9322 63.6589 57.8125C63.2872 56.2739 63.7269 54.4138 64.506 53.074C65.2005 51.88 66.3692 50.7173 67.7193 50.3548C68.1067 50.202 68.5326 50.1267 68.9071 49.953L68.9079 40.701C69.7011 40.8005 70.4573 40.7703 71.2522 40.7018Z" fill="#5766B1"/>
<path d="M68.9075 40.7009C69.7007 40.8004 70.4569 40.7702 71.2518 40.7017L71.2471 49.947L71.119 49.9284C70.4355 49.8318 69.5837 49.8017 68.9067 49.9529L68.9075 40.7009Z" fill="#B9B0C6"/>
<path d="M63.7759 58.1574C63.7266 58.045 63.6878 57.9322 63.6589 57.8125C63.2872 56.2738 63.7269 54.4137 64.506 53.0739C65.2005 51.88 66.3692 50.7172 67.7193 50.3547C66.6162 51.5861 66.0863 52.5718 66.1545 54.2854C66.1653 54.5589 66.2098 54.7752 66.293 55.0358C66.5108 55.7183 66.7709 56.2543 67.2252 56.814L67.3132 56.9243C67.892 57.6375 68.7022 58.1191 69.5684 58.3785L69.7073 58.4211C70.9427 58.7786 72.3119 58.4943 73.4062 57.8543C74.3243 57.3174 75.1082 56.5265 75.503 55.5134C75.6175 55.2197 75.6708 54.9021 75.8033 54.6168C76.1303 55.5838 76.1392 56.7008 75.9238 57.69L75.881 57.9139L75.8534 58.0547C75.6989 58.5232 75.5473 59.0188 75.3119 59.4534C75.1817 59.6936 74.9732 59.9351 74.8769 60.1857C74.7764 60.5538 74.1895 61.1151 73.9033 61.3639C72.5993 62.4967 70.8058 63.0007 69.1078 62.8232C67.8524 62.692 66.5207 62.0975 65.6091 61.2093C65.2972 60.9056 65.0483 60.541 64.7717 60.2053C64.3482 59.6483 64.036 58.8109 63.7759 58.1574Z" fill="#303F85"/>
</svg>
