<?xml version="1.0" encoding="utf-8" ?>
<svg xmlns="http://www.w3.org/2000/svg" xmlns:xlink="http://www.w3.org/1999/xlink" width="300" height="300">
	<path fill="#FEFDFC" transform="scale(0.292969 0.292969)" d="M681.001 151.75C682.28 151.796 683.341 151.879 684.53 152.394C686.343 153.18 687.715 154.794 688.356 156.659C689.004 158.543 688.696 160.538 687.843 162.292C686.622 164.804 684.775 165.595 682.25 166.483C681.21 166.422 680.178 166.341 679.25 165.815C677.02 164.551 675.272 162.167 674.74 159.654C674.445 158.261 674.748 156.452 675.53 155.252C676.832 153.251 678.75 152.271 681.001 151.75Z"/>
	<path fill="#FEFDFC" transform="scale(0.292969 0.292969)" d="M330.787 150.019L334.53 150.669C336.533 151.265 338.272 153.013 339.177 154.854C340.162 156.859 340.444 158.906 339.592 161.015C338.227 164.396 336.068 165.664 332.866 167.001C331.558 166.999 329.985 166.875 328.75 166.436C326.399 165.599 324.53 163.285 323.756 160.968C323.16 159.182 323.155 156.459 324.042 154.75C325.452 152.032 327.968 150.799 330.787 150.019Z"/>
	<path fill="#FEFDFC" transform="scale(0.292969 0.292969)" d="M670.564 59.4928C672.15 59.419 673.935 59.2174 675.471 59.6935C678.878 60.7501 681.584 63.5191 682.978 66.7436C683.807 68.6619 683.838 71.4125 683.038 73.3512C681.741 76.4979 679.173 78.0775 676.174 79.3195C674.633 79.6747 673.012 80.1376 671.427 79.8439C668.378 79.2792 665.82 77.24 664.25 74.604C662.989 72.4872 662.517 69.9578 663.163 67.5519C664.258 63.4704 667.047 61.4197 670.564 59.4928Z"/>
	<path fill="#FEFDFC" transform="scale(0.292969 0.292969)" d="M298.352 120.148C300.193 120.274 301.912 120.44 303.622 121.19C305.823 122.155 307.676 124.168 308.471 126.437C309.522 129.443 309.395 132.586 307.869 135.392C306.169 138.519 303.402 139.779 300.148 140.747C297.764 140.608 295.076 140.395 293 139.077C291.043 137.835 289.184 135.87 288.639 133.562C287.969 130.729 288.259 127.226 289.979 124.806C292.177 121.714 294.757 120.764 298.352 120.148Z"/>
	<path fill="#FEFDFC" transform="scale(0.292969 0.292969)" d="M710.817 110.585C713.483 110.531 715.983 110.998 718.43 112.088C722.097 113.719 724.593 117.144 725.855 120.865C727.128 124.62 726.617 128.319 724.755 131.75C722.657 135.617 719.319 137.402 715.27 138.616C711.921 138.596 709.124 138.65 706.031 137.173C702.572 135.52 700.025 132.67 698.869 129C697.818 125.662 698.285 121.316 699.995 118.25C702.497 113.763 706.107 111.968 710.817 110.585Z"/>
	<path fill="#FEFDFC" transform="scale(0.292969 0.292969)" d="M380.557 120.046C384.413 119.825 387.94 120.241 391.35 122.166C395.183 124.33 398.373 128.679 399.472 132.892C400.479 136.757 399.486 142.477 397.501 145.859C395.067 150.007 391.121 152.345 386.533 153.427C382.509 154.062 378.583 153.789 374.952 151.829C371.001 149.696 367.731 145.327 366.551 141C365.436 136.91 366.271 132.245 368.36 128.607C371.115 123.81 375.337 121.342 380.557 120.046Z"/>
	<path fill="#FEFDFC" transform="scale(0.292969 0.292969)" d="M635.125 96.195C639.381 96.4729 642.43 97.0593 646.115 99.3734C650.804 102.318 654.434 107.358 655.715 112.725C656.875 117.583 655.785 123.556 653.027 127.703C649.179 133.49 643.759 136.188 637.162 137.66C632.114 137.644 627.83 136.834 623.668 133.763C619.182 130.453 615.829 125.314 615.114 119.75C614.397 114.18 615.828 108.464 619.329 104.035C623.361 98.9326 628.857 96.8276 635.125 96.195Z"/>
	<path fill="#FEFDFC" transform="scale(0.292969 0.292969)" d="M348.449 60.5936C352.891 60.2459 357.759 61.4594 361.519 63.8206C366.047 66.6646 369.514 71.563 370.572 76.7995L370.692 77.4256C371.323 80.4314 371.242 83.8336 370.342 86.7849L370.113 87.5C369.521 89.3961 368.927 91.1236 367.828 92.7976C364.067 98.524 359.105 100.728 352.61 101.966C348.156 102.195 343.724 101.375 339.825 99.1472C335.056 96.4219 331.819 91.6968 330.472 86.4211C329.141 81.2038 330.071 74.7929 332.963 70.25C336.642 64.4722 342.057 62.1332 348.449 60.5936Z"/>
	<path fill="#081359" transform="scale(0.292969 0.292969)" d="M566.915 172.645C577.71 171.56 589.195 172.357 600.072 172.379L664.062 172.525L747.023 172.644C760.143 172.634 773.694 171.844 786.75 172.525C789.084 172.646 791.314 173.318 793.423 174.314C798.556 176.741 801.962 181.022 803.728 186.365C805.678 192.265 805.495 205.387 802.794 210.768C799.86 216.614 795.679 218.915 789.704 220.728L790.224 287.535L808.636 287.534C818.2 287.548 826.516 286.942 834.39 293.407C839.703 297.77 842.793 304.45 843.384 311.25C844.003 318.383 841.302 325.143 836.696 330.495C830.553 337.632 824.18 339.432 815.051 340.118L814.431 839.715C811.349 869.991 796.936 899.002 775.385 920.382C772.226 923.517 768.4 926.282 764.945 929.107C742.676 947.855 710.953 958.22 682.069 958.244C647.812 958.274 614.97 944.374 590.751 920.239C572.059 901.612 557.681 878.12 552.462 852.045C548.192 830.71 550.014 808.718 550.028 787.107L550.022 696.489L549.704 453.835L550.019 339.641C543.499 339.369 536.956 338.194 531.509 334.37C526.138 330.6 521.682 324.279 520.452 317.781L520.317 317.007C520.079 315.694 519.927 314.437 519.902 313.098C519.756 305.053 521.681 298.013 527.521 292.2C535.961 283.798 545.186 283.858 556.261 283.815L574.069 283.83L574.065 219.679C571.653 219.549 569.321 219.328 567 218.615C563.452 217.525 560.526 214.651 558.847 211.393C558.303 210.338 557.781 209.123 557.614 207.938C557.008 203.642 557.417 198.694 557.429 194.306C557.44 190.308 556.81 185.131 558.242 181.376L558.505 180.75C560.13 176.737 563.053 174.401 566.915 172.645Z"/>
	<path fill="#990309" transform="scale(0.292969 0.292969)" d="M586.615 646.766L586.567 625.291L586.597 584.248L586.579 459.205L586.592 381.038L586.575 356.867C586.575 352.029 586.323 347.047 586.894 342.243L586.824 550.01L604.907 550.065L604.98 560.785L604.115 560.933C598.842 561.795 592.358 561.937 587.062 561.125L586.998 620.776L586.973 636.755C586.965 640.032 587.211 643.536 586.615 646.766Z"/>
	<path fill="#A05200" transform="scale(0.292969 0.292969)" d="M711.208 220.603L776.789 220.496L776.707 234.884C768.676 236.616 760.082 235.609 751.991 234.997L751.986 220.836L729.348 220.984C723.898 221.047 716.347 222.053 711.208 220.603Z"/>
	<path fill="#A1A3A4" transform="scale(0.292969 0.292969)" d="M533.252 305.746C535.316 308.064 537.348 310.764 540.026 312.379L540.633 312.752C544.786 315.186 550.483 314.496 555.132 314.508L574.023 314.484L573.932 326.174L557.531 326.257C552.84 326.377 547.338 327.176 542.831 325.748C538.374 324.336 534.947 321.419 533.008 317.141C530.896 312.481 531.344 310.454 533.252 305.746Z"/>
	<path fill="#A1A3A4" transform="scale(0.292969 0.292969)" d="M825.515 300.699C828.38 303.583 831.478 307.142 831.424 311.476C831.415 312.168 831.278 312.823 831.154 313.5L831.029 314.219C830.285 318.152 827.913 322.275 824.5 324.485C823.329 325.242 821.849 326.036 820.475 326.338C817.74 326.941 814.037 326.578 811.191 326.609C804.174 326.685 796.999 327.018 790.011 326.399L790.001 314.027C795.317 314.06 816.464 315.317 819.75 312.848C824.006 309.649 824.78 305.642 825.515 300.699Z"/>
	<path fill="#FEFDFC" transform="scale(0.292969 0.292969)" d="M790.001 314.027L789.987 296.996L805.692 296.937C809.751 296.841 815.11 296.042 818.967 297.2L819.5 297.377C821.779 298.112 823.561 299.36 825.515 300.699C824.78 305.642 824.006 309.649 819.75 312.848C816.464 315.317 795.317 314.06 790.001 314.027Z"/>
	<path fill="#FEFDFC" transform="scale(0.292969 0.292969)" d="M533.252 305.746C535.508 301.799 538.229 298.403 542.848 297.223C547.248 296.099 552.204 296.493 556.717 296.492C562.455 296.491 568.302 296.292 574.025 296.661L574.023 314.484L555.132 314.508C550.483 314.496 544.786 315.186 540.633 312.752L540.026 312.379C537.348 310.764 535.316 308.064 533.252 305.746Z"/>
	<path fill="#C56800" transform="scale(0.292969 0.292969)" d="M758.748 185.331C767.03 185.088 775.606 184.478 783.858 185.422C786.064 185.675 788.395 185.832 790.081 187.432C792.536 189.76 791.68 197.348 791.604 200.646C791.554 202.803 791.451 205.135 789.626 206.63C786.408 209.266 763.434 208.007 758.157 207.994C759.358 205.034 760.974 202.111 761.562 198.953C762.458 194.136 761.493 189.389 758.748 185.331Z"/>
	<path fill="#A1A3A4" transform="scale(0.292969 0.292969)" d="M752.938 296.444L776.618 296.569C776.716 298.235 776.991 300.067 776.882 301.722L776.79 325.997L586.947 326.001L586.911 314.026L753.411 313.957L752.938 296.444Z"/>
	<path fill="#CDCBCA" transform="scale(0.292969 0.292969)" d="M752.938 296.444L776.618 296.569C776.716 298.235 776.991 300.067 776.882 301.722L776.791 302.132C776.068 305.744 776.402 309.817 776.412 313.505C769.195 313.502 760.42 312.533 753.411 313.957L752.938 296.444Z"/>
	<path fill="#F9B805" transform="scale(0.292969 0.292969)" d="M586.894 342.243L587.008 340.25C588.566 339.189 590.567 339.595 592.436 339.607L604.611 339.677L604.907 550.065L586.824 550.01L586.894 342.243Z"/>
	<path fill="#FEFDFC" transform="scale(0.292969 0.292969)" d="M604.529 291.017L604.557 259.324C604.543 255.896 603.82 250.52 604.579 247.257C604.87 246.007 606.998 243.726 607.96 242.814C609.686 241.176 611.347 240.384 613.76 240.49C615.851 240.581 617.682 241.744 619.009 243.305C620.363 244.896 621.269 246.486 621.65 248.552C622.535 253.339 622.036 258.924 622.023 263.819L621.915 291.243L621.732 296.739L752.938 296.444L753.411 313.957L586.911 314.026C586.131 308.462 586.539 302.613 586.598 297.002L597.96 296.989C599.958 296.979 602.782 297.314 604.41 296L604.529 291.017Z"/>
	<path fill="#F58720" transform="scale(0.292969 0.292969)" d="M758.157 207.994L583.549 208.25C580.235 208.299 575.075 209.006 572.578 206.424C571.875 205.697 571.416 204.871 571.111 203.903C570.616 202.337 570.919 199.939 570.918 198.252L570.967 185.492L758.748 185.331C761.493 189.389 762.458 194.136 761.562 198.953C760.974 202.111 759.358 205.034 758.157 207.994Z"/>
	<path fill="#C56800" transform="scale(0.292969 0.292969)" d="M586.989 235.909L586.939 220.495C588.141 219.759 699.386 220.42 711.208 220.603C716.347 222.053 723.898 221.047 729.348 220.984L751.986 220.836L751.991 234.997C760.082 235.609 768.676 236.616 776.707 234.884L776.889 291.016L752.05 291.002L742.106 291.002L742.391 235.61L586.989 235.909Z"/>
	<path fill="#F58720" transform="scale(0.292969 0.292969)" d="M742.391 235.61L751.939 235.038L752.05 291.002L742.106 291.002L742.391 235.61Z"/>
	<path fill="#C56800" transform="scale(0.292969 0.292969)" d="M637.848 339.647L777.009 339.493L777.348 484.227L777.465 528.399C777.481 535.43 776.873 543.059 777.625 550.02L751.984 550L745.896 550.056L742.048 550.034L742.03 339.983L637.927 340.07L637.848 339.647Z"/>
	<path fill="#F58720" transform="scale(0.292969 0.292969)" d="M742.03 339.983L752.018 339.933L751.984 550L745.896 550.056L742.048 550.034L742.03 339.983Z"/>
	<path fill="#F9B805" transform="scale(0.292969 0.292969)" d="M586.989 235.909L742.391 235.61L742.106 291.002L621.915 291.243L622.023 263.819C622.036 258.924 622.535 253.339 621.65 248.552C621.269 246.486 620.363 244.896 619.009 243.305C617.682 241.744 615.851 240.581 613.76 240.49C611.347 240.384 609.686 241.176 607.96 242.814C606.998 243.726 604.87 246.007 604.579 247.257C603.82 250.52 604.543 255.896 604.557 259.324L604.529 291.017L586.938 291.219L586.989 235.909Z"/>
	<path fill="#FEFDFC" transform="scale(0.292969 0.292969)" d="M631.554 253.75C632.495 253.54 633.536 253.569 634.5 253.516C635.586 253.972 636.418 254.286 637.211 255.2C638.529 256.718 638.411 260.038 638.492 261.967C638.746 268.06 639.271 274.95 638.419 281C638.186 282.651 636.518 283.602 635.25 284.46C634.438 284.734 633.381 285.091 632.5 284.99C631.047 284.823 630.317 284.101 629.386 283.09C628.025 281.611 628.454 277.533 628.442 275.519L628.609 256.75C629.401 255.2 630.08 254.651 631.554 253.75Z"/>
	<path fill="#990309" transform="scale(0.292969 0.292969)" d="M751.984 550L777.625 550.02C778.871 561.84 777.991 574.293 778.233 586.213L778.488 698.598L778.533 785.435C778.583 805.746 780.04 826.02 776.706 846.175C774.41 860.05 767.638 874.244 758.838 885.119C740.995 907.17 715.535 920.194 687.411 922.866C682.192 923.362 676.935 922.818 671.75 922.241C651.932 920.035 634.388 911.926 619.124 899.131C601.562 884.409 588.182 860.704 586.243 837.698C586.028 835.15 585.95 832.496 586.404 829.971L586.543 830.237C588.855 834.306 589.353 839.775 590.93 844.251C597.197 862.042 607.029 875.728 622.885 886.135C637.796 895.922 659.902 899.885 677.325 896.264C700.906 891.363 720.566 878.472 733.709 858.145C740.616 847.462 745.353 835.99 746.923 823.317C747.93 815.181 747.533 806.791 747.531 798.606L747.496 759.915L747.406 631.162L747.498 575.176L747.573 559.723C747.586 556.755 747.913 553.51 747.295 550.616L745.896 550.056L751.984 550Z"/>
	<defs>
		<linearGradient id="gradient_0" gradientUnits="userSpaceOnUse" x1="818.57941" y1="650.14252" x2="535.40662" y2="622.37262">
			<stop offset="0" stop-color="#A7ABA7"/>
			<stop offset="1" stop-color="#C7E8D8"/>
		</linearGradient>
	</defs>
	<path fill="url(#gradient_0)" transform="scale(0.292969 0.292969)" d="M566.799 339.69L569.75 339.548C570.301 339.569 573.748 339.882 574.025 340.122C574.189 340.265 574.069 340.555 574.089 340.771C574.767 348.352 574.347 356.244 574.347 363.859L574.407 403.609L574.488 709.329L574.477 789.639C574.43 807.667 572.992 826.964 576.233 844.741C580.271 866.888 590.381 885.56 606.105 901.605C625.333 921.226 653.097 932.943 680.5 933.193C710.505 933.467 738.463 921.76 759.746 900.518C774.803 885.49 784.77 865.672 788.426 844.708C792.047 823.945 790.491 802.681 790.475 781.726L790.462 689.566L790.015 340.008L802.003 340.009L802.009 355.25L802.071 677.48L802.018 779.766C802.004 797.993 802.96 816.808 801.595 834.965C800.914 844.011 798.601 853.812 795.653 862.383C784.783 893.995 763.698 918.153 733.508 932.843C705.596 946.425 673.243 948.767 643.877 938.519C613.409 927.887 588.047 904.64 574.136 875.586C567.527 861.784 563.691 846.165 562.669 830.901C561.584 814.695 562.456 798.309 562.487 782.07L562.509 691.592L562.506 415.195L562.269 359.318L562.26 346.623C562.258 344.591 561.948 342.097 562.632 340.168L566.799 339.69Z"/>
	<path fill="#F9B805" transform="scale(0.292969 0.292969)" d="M637.927 340.07L742.03 339.983L742.048 550.034L637.971 550.03L637.927 340.07Z"/>
	<path fill="#D10020" transform="scale(0.292969 0.292969)" d="M621.559 339.51L629.283 339.469L637.848 339.647L637.927 340.07L637.971 550.03L742.048 550.034L745.896 550.056L747.295 550.616C747.913 553.51 747.586 556.755 747.573 559.723L747.498 575.176L747.406 631.162L747.496 759.915L747.531 798.606C747.533 806.791 747.93 815.181 746.923 823.317C745.353 835.99 740.616 847.462 733.709 858.145C720.566 878.472 700.906 891.363 677.325 896.264C659.902 899.885 637.796 895.922 622.885 886.135C607.029 875.728 597.197 862.042 590.93 844.251C589.353 839.775 588.855 834.306 586.543 830.237L586.404 829.971L586.615 646.766C587.211 643.536 586.965 640.032 586.973 636.755L586.998 620.776L587.062 561.125C592.358 561.937 598.842 561.795 604.115 560.933L604.98 560.785L604.907 550.065L604.611 339.677L621.559 339.51Z"/>
	<path fill="#7B0000" transform="scale(0.292969 0.292969)" d="M627.704 751.5C629.862 746.665 633.642 743.854 638.5 742.035L642 740.967L642.674 740.761C647.026 739.465 652.256 739.359 656.571 740.75C663.883 743.107 669.734 746.825 673.511 753.77C674.98 756.471 675.92 759.315 676.793 762.249C679.105 770.025 677.292 778.774 674.181 786.013L673.893 780.43C676.987 771.646 676.274 764.627 673.267 756.008L673.141 755.472C671.639 750.823 665.972 745.778 661.782 743.75C656.305 741.099 647.547 739.33 641.705 741.637L641 741.937C637.14 743.51 634.26 744.893 631.244 747.767L627.704 751.5Z"/>
	<path fill="#990309" transform="scale(0.292969 0.292969)" d="M619.767 776.467L621.603 775.894C623.652 783.894 627.141 789.412 634.435 793.556C640.311 796.894 648.46 798.061 655 796.121C663.267 793.668 669.761 787.955 673.893 780.43L674.181 786.013C673.446 789.147 669.673 792.754 667.412 794.905C662.398 799.672 655.087 802.353 648.188 802.064C639.093 801.683 631.412 797.342 625.71 790.333C623.802 787.988 622.379 785.363 620.312 783.125L619.989 782.782L619.767 776.467Z"/>
	<path fill="#7B0000" transform="scale(0.292969 0.292969)" d="M706.385 588.437C708.369 586.498 709.598 585.827 712.463 585.937C715.156 586.04 717.797 587.611 719.489 589.669C721.654 592.301 722.123 597.023 721.593 600.246C721.098 603.26 719.484 605.532 716.969 607.266C714.941 608.664 713.172 608.789 710.75 608.381C708.237 607.958 706.064 605.761 704.716 603.712C702.84 600.859 701.841 597.017 702.669 593.633C702.951 592.48 703.833 591.248 704.754 590.517C705.576 589.887 705.906 589.348 706.385 588.437Z"/>
	<path fill="#F7641B" transform="scale(0.292969 0.292969)" d="M716.337 588.181C718.441 590.245 719.882 591.919 719.963 595C720.015 596.991 718.806 598.642 717.398 599.92C715.405 601.731 713.577 602.162 710.905 601.99C708.485 601.835 706.606 600.906 705.059 599.026C703.591 597.242 703.399 595.652 703.596 593.407L707.884 597.636C709.074 598.478 710.649 598.713 712.064 598.401C713.957 597.985 715.313 596.815 716.286 595.167C717.632 592.889 716.926 590.589 716.337 588.181Z"/>
	<path fill="#EAA913" transform="scale(0.292969 0.292969)" d="M706.385 588.437C710.06 587.012 712.598 586.991 716.337 588.181C716.926 590.589 717.632 592.889 716.286 595.167C715.313 596.815 713.957 597.985 712.064 598.401C710.649 598.713 709.074 598.478 707.884 597.636L703.596 593.407L704.754 590.517C705.576 589.887 705.906 589.348 706.385 588.437Z"/>
	<path fill="#FEFDFC" transform="scale(0.292969 0.292969)" d="M709.304 589.25L709.71 589.215C711.171 589.262 711.792 589.556 712.861 590.5C712.459 592.007 711.322 592.898 710.25 593.958L708.5 594.472C707.326 593.605 707.275 593.658 706.95 592.25C707.542 590.779 708.136 590.251 709.304 589.25Z"/>
	<path fill="#7B0000" transform="scale(0.292969 0.292969)" d="M720.733 780.25C722.252 780.129 724.33 780.233 725.787 780.695C728.19 781.457 730.384 783.63 731.531 785.848C733.238 789.153 733.261 793.541 732.008 797C730.7 800.61 727.923 802.17 724.598 803.636C723.048 804.002 720.897 804.221 719.399 803.569C716.689 802.391 714.046 798.918 713.086 796.205C711.982 793.081 712.291 789.326 713.701 786.351C715.268 783.045 717.285 781.407 720.733 780.25Z"/>
	<path fill="#F7641B" transform="scale(0.292969 0.292969)" d="M718.44 782.202C721.186 781.278 723.406 780.742 726.156 782.067C727.824 782.871 729.065 784.164 729.889 785.819C730.486 786.953 730.961 788.197 730.967 789.5C730.977 791.574 729.884 793.505 728.457 794.922C726.467 796.898 724.171 797.678 721.396 797.617C719.002 797.563 717.41 797.022 715.819 795.175C714.077 793.153 713.687 791.005 714.042 788.38C714.402 785.718 716.455 783.786 718.44 782.202Z"/>
	<path fill="#EAA913" transform="scale(0.292969 0.292969)" d="M718.44 782.202C721.186 781.278 723.406 780.742 726.156 782.067C727.824 782.871 729.065 784.164 729.889 785.819C728.811 788.389 726.469 790.46 723.93 791.606C722.016 792.47 719.711 792.639 717.657 792.335C716.651 791.27 716.37 790.681 716.064 789.25L716.54 787.77C717.164 786.199 718.067 784.894 719.005 783.496L718.44 782.202Z"/>
	<path fill="#FEFDFC" transform="scale(0.292969 0.292969)" d="M719.005 783.496C720.863 783.072 722.22 782.677 723.94 783.804L724.547 784.25L724.522 785C722.405 786.539 719.191 788.174 716.54 787.77C717.164 786.199 718.067 784.894 719.005 783.496Z"/>
	<path fill="#7B0000" transform="scale(0.292969 0.292969)" d="M708.928 709.156C710.636 708.871 712.983 709.161 714.582 709.788C716.902 710.698 718.939 712.603 719.981 714.868L720.25 715.486L720.571 716.203C722.094 719.764 722.561 724.892 720.962 728.5C719.189 732.503 715.966 734.621 711.983 736.052C709.671 736.063 707.718 735.799 705.734 734.506C702.361 732.307 699.458 728.347 698.75 724.347C698.093 720.635 699.05 716.366 701.322 713.331C703.294 710.696 705.746 709.669 708.928 709.156Z"/>
	<path fill="#F7641B" transform="scale(0.292969 0.292969)" d="M701.617 714.097C703.083 712.447 704.689 710.834 706.876 710.25C709.289 709.606 712.435 709.778 714.572 711.079C717.184 713.301 719.336 715.106 719.586 718.739C719.756 721.214 719.445 723.393 717.7 725.28C715.101 728.089 712.073 728.929 708.537 729.964C705.033 728.442 701.651 727.075 700.289 723.14C699.193 719.972 700.167 716.932 701.617 714.097Z"/>
	<path fill="#EAA913" transform="scale(0.292969 0.292969)" d="M701.617 714.097C703.083 712.447 704.689 710.834 706.876 710.25C709.289 709.606 712.435 709.778 714.572 711.079L714.619 711.533C714.888 713.786 716.484 716.285 716.392 718.344C714.783 720.188 712.683 722.842 710 722.987C707.902 723.1 706.44 723.109 704.862 721.635C703.887 720.724 703.756 719.737 703.474 718.494L703.368 717.98C703.157 716.042 702.734 715.636 701.617 714.097Z"/>
	<path fill="#CDCBCA" transform="scale(0.292969 0.292969)" d="M703.368 717.98C703.542 716.293 703.701 715.412 704.75 714.059C707.029 712.925 708.401 713.277 710.75 713.968L711.404 715C710.975 716.605 710.976 716.879 709.75 717.963C707.6 718.585 705.684 718.56 703.474 718.494L703.368 717.98Z"/>
	<path fill="#7B0000" transform="scale(0.292969 0.292969)" d="M627.027 703.843C627.995 700.553 630.833 699.243 633.904 698.252C638.202 699.131 641.707 699.886 644.363 703.75C644.895 704.524 645.202 705.378 645.526 706.25L645.79 706.946C647.121 710.722 647.045 717.314 645.067 720.868C643.776 723.19 641.474 725.02 638.917 725.699C635.812 726.524 631.196 725.712 628.5 723.95C626.065 722.359 624.617 719.641 624.174 716.804C623.767 714.188 623.761 711.012 624.605 708.5L624.774 707.987C625.037 707.199 625.275 706.67 625.753 705.982L625.815 705.991L627.027 703.843Z"/>
	<path fill="#F7641B" transform="scale(0.292969 0.292969)" d="M631.427 700.338C633.624 699.843 635.764 700.048 637.994 700.158C640.848 701.988 643.349 704.025 644.145 707.478C644.849 710.536 644.163 713.262 642.403 715.849C641.194 717.627 639.436 719.018 637.278 719.386C634.274 719.898 630.989 719.407 628.495 717.587C626.595 716.2 625.73 713.689 625.023 711.544C627.613 712.221 630.055 712.921 632.448 714.145L632.922 714.392C637.401 712.453 639.711 710.738 642.671 706.765L639.877 703.324C638.502 702.205 636.892 701.466 635.323 700.66C633.913 700.807 632.795 700.615 631.427 700.338Z"/>
	<path fill="#F58720" transform="scale(0.292969 0.292969)" d="M627.027 703.843C628.417 702.274 629.505 701.212 631.427 700.338C632.795 700.615 633.913 700.807 635.323 700.66C636.892 701.466 638.502 702.205 639.877 703.324L642.671 706.765C639.711 710.738 637.401 712.453 632.922 714.392L632.448 714.145C630.055 712.921 627.613 712.221 625.023 711.544C624.881 709.566 625.299 707.9 625.753 705.982L625.815 705.991L627.027 703.843Z"/>
	<path fill="#FEFDFC" transform="scale(0.292969 0.292969)" d="M635.323 700.66C636.892 701.466 638.502 702.205 639.877 703.324C639.307 704.046 638.77 704.911 637.897 705.292C635.461 706.356 631.992 708.689 629.5 709.006L628.796 708.25C628.456 706.864 628.354 706.078 628.982 704.75C629.997 702.605 631.696 701.585 633.898 701.004L635.323 700.66Z"/>
	<path fill="#F7641B" transform="scale(0.292969 0.292969)" d="M631.244 747.767C634.26 744.893 637.14 743.51 641 741.937L641.705 741.637C647.547 739.33 656.305 741.099 661.782 743.75C665.972 745.778 671.639 750.823 673.141 755.472L673.267 756.008C676.274 764.627 676.987 771.646 673.893 780.43C669.761 787.955 663.267 793.668 655 796.121C648.46 798.061 640.311 796.894 634.435 793.556C627.141 789.412 623.652 783.894 621.603 775.894C621.104 772.457 620.981 769.316 621.144 765.848C623.213 767.77 623.868 770.276 625.047 772.75C627.285 777.447 630.453 780.134 635.369 781.834C641.125 783.824 647.317 782.913 652.724 780.282C662.507 775.521 668.666 766.497 672.064 756.483C671.984 756.024 671.978 755.855 671.755 755.38C669.026 749.577 662.642 745.499 656.666 743.802C653.621 742.937 649.042 742.389 645.973 743.331C644.873 743.669 643.924 743.843 642.79 744.021C640.044 745.183 637.409 746.305 634.842 747.833L633.828 748.413L631.244 747.767Z"/>
	<path fill="#F58720" transform="scale(0.292969 0.292969)" d="M642.79 744.021C643.924 743.843 644.873 743.669 645.973 743.331C649.042 742.389 653.621 742.937 656.666 743.802C662.642 745.499 669.026 749.577 671.755 755.38C671.978 755.855 671.984 756.024 672.064 756.483C668.666 766.497 662.507 775.521 652.724 780.282C647.317 782.913 641.125 783.824 635.369 781.834C630.453 780.134 627.285 777.447 625.047 772.75C623.868 770.276 623.213 767.77 621.144 765.848C621.75 763.074 622.705 760.653 623.812 758.051L627.704 751.5L631.244 747.767L633.828 748.413L634.842 747.833C637.409 746.305 640.044 745.183 642.79 744.021Z"/>
	<path fill="#FAB695" transform="scale(0.292969 0.292969)" d="M642.79 744.021L646.197 745.119C649.165 746.146 651.855 747.76 653.218 750.713C653.936 752.27 653.476 755.215 652.724 756.71C650.436 761.265 645.625 765.119 640.75 766.501C638.484 767.144 635.241 767.456 633.183 766.081C630.837 764.512 629.469 762.275 629.118 759.483C628.981 758.393 629.095 757.492 629.311 756.428L629.434 755.795C630.053 752.937 631.991 750.608 633.828 748.413L634.842 747.833C637.409 746.305 640.044 745.183 642.79 744.021Z"/>
	<path fill="#FEFDFC" transform="scale(0.292969 0.292969)" d="M638.279 748.75L638.728 748.657C640.47 748.522 641.835 749.604 642.992 750.75C643.61 752.47 643.819 752.889 643.504 754.75C642.466 756.052 641.768 756.456 640.25 757.144C638.881 757.173 637.964 757.102 636.828 756.25C635.141 754.985 635.128 754.174 635.03 752.25C635.848 750.45 636.58 749.747 638.279 748.75Z"/>
	<path fill="#7B0000" transform="scale(0.292969 0.292969)" d="M679.086 818.979C682.283 818.879 685.621 818.747 688.672 819.873C695.243 822.299 699.893 826.393 702.879 832.737L703.166 833.362C705.815 839.014 706.656 845.442 704.761 851.489L704.511 852.25C703.914 854.137 703.175 855.902 702.27 857.663C698.868 864.287 692.877 866.709 686.208 868.894C683.216 869.004 680.142 869.181 677.202 868.501C671.447 867.169 666.326 862.868 663.326 857.862C660.208 852.658 658.365 845.576 659.797 839.543C660.382 837.079 660.771 834.648 661.945 832.361C666.039 824.384 670.903 821.5 679.086 818.979Z"/>
	<path fill="#F7641B" transform="scale(0.292969 0.292969)" d="M679.364 820.312C685.2 819.416 690.126 821.168 694.842 824.562C698.929 827.502 702.203 832.266 702.984 837.25L702.402 838.48C702.834 841.594 703.074 844.12 702.559 847.25L702.448 847.967C701.638 852.668 698.264 857.126 694.439 859.819C689.471 863.317 683.094 864.477 677.139 863.451C672.131 862.588 667.109 859.475 664.351 855.187C662.435 852.208 661.277 848.599 660.811 845.1C665.262 847.848 667.468 851.395 672.841 853.177C675.812 854.163 680.395 854.526 683.383 853.464C689.681 851.225 693.283 847.702 697.582 842.784C698.72 841.482 699.568 839.961 700.966 838.92L701.754 838.355L701.518 837.797C700.916 836.239 700.374 834.775 699.518 833.331C696.066 827.509 691.591 824.569 685.25 822.635C681.975 821.636 679.673 822.05 676.5 823.014L675.312 824.226C674.693 824.497 672.775 825.577 672.219 825.517C669.741 826.03 668.283 827.502 666.948 829.628C665.938 831.238 665.573 832.979 665.508 834.853C664.383 838.28 662.456 841.137 660.677 844.234C660.221 838.525 661.847 832.911 665.566 828.466C668.924 824.454 674.094 820.825 679.364 820.312Z"/>
	<path fill="#F58720" transform="scale(0.292969 0.292969)" d="M676.5 823.014C679.673 822.05 681.975 821.636 685.25 822.635C691.591 824.569 696.066 827.509 699.518 833.331C700.374 834.775 700.916 836.239 701.518 837.797L701.754 838.355L700.966 838.92C699.568 839.961 698.72 841.482 697.582 842.784C693.283 847.702 689.681 851.225 683.383 853.464C680.395 854.526 675.812 854.163 672.841 853.177C667.468 851.395 665.262 847.848 660.811 845.1L660.677 844.234C662.456 841.137 664.383 838.28 665.508 834.853C665.573 832.979 665.938 831.238 666.948 829.628C668.283 827.502 669.741 826.03 672.219 825.517C672.775 825.577 674.693 824.497 675.312 824.226L676.5 823.014Z"/>
	<path fill="#FAB695" transform="scale(0.292969 0.292969)" d="M675.312 824.226L680.057 823.681C682.955 824.526 686.731 825.863 688.149 828.858C688.924 830.495 689.129 831.903 688.399 833.584L688.158 834.107L687.932 834.627C686.332 838.108 682.781 840.643 679.25 841.878C676.988 842.669 672.914 843.149 670.75 841.869C668.257 840.394 666.777 837.336 665.508 834.853C665.573 832.979 665.938 831.238 666.948 829.628C668.283 827.502 669.741 826.03 672.219 825.517C672.775 825.577 674.693 824.497 675.312 824.226Z"/>
	<path fill="#FEFDFC" transform="scale(0.292969 0.292969)" d="M675.312 824.226L680.057 823.681C681.178 825.935 682.004 827.329 681.186 829.802L680.746 831.006L679.368 835.769C676.931 836.093 674.533 836.687 672.187 835.75C670.979 834.217 669.921 832.656 670.161 830.605C670.377 828.755 671.327 827.115 672.219 825.517C672.775 825.577 674.693 824.497 675.312 824.226Z"/>
	<path fill="#7B0000" transform="scale(0.292969 0.292969)" d="M652.208 625.527C659.344 624.643 667.052 625.303 673.317 629.02C679.676 632.792 683.798 639.494 685.65 646.493C687.076 651.88 687.442 658.841 685.814 664.229L685.569 665L683.793 669.875C680.042 677.79 673.463 682.234 665.498 685.217C659.141 686.484 653.395 686.091 647.532 683.223C640.663 679.864 635.455 674.045 633.046 666.76L632.835 666.103C630.006 657.512 629.945 647.737 634.168 639.538C638.299 631.518 643.875 628.241 652.208 625.527Z"/>
	<path fill="#F7641B" transform="scale(0.292969 0.292969)" d="M653.453 626.797C662.492 626.234 670.227 627.744 677.163 633.992C679.246 635.868 680.803 637.817 681.378 640.605C676.102 635.42 671.447 631.513 663.985 630.097L659.277 628.641C655.748 628.847 652.815 629.058 649.5 630.378L648.678 630.697C644.315 632.433 641.102 635.258 638.673 639.239C636.285 643.667 634.833 647.676 635.783 652.75C636.477 656.454 638.047 659.262 641.212 661.469C645.058 664.15 650.815 665.409 655.352 664.441L656.215 664.25C664.575 662.5 671.439 657.858 676.471 651C677.517 649.574 678.449 648.314 679.209 646.709C680.109 644.805 680.931 643.066 681.534 641.033C682.709 642.727 683.686 644.642 684.25 646.632C686.102 653.169 684.975 661.002 681.597 666.81C677.87 673.217 671.211 677.98 663.994 679.63C657.502 681.114 650.149 679.915 644.5 676.425C638.644 672.807 634.195 667.047 632.712 660.283C631.241 653.57 632.275 644.484 636.127 638.75C640.389 632.405 645.923 628.292 653.453 626.797Z"/>
	<path fill="#F58720" transform="scale(0.292969 0.292969)" d="M638.673 639.239C641.102 635.258 644.315 632.433 648.678 630.697L649.5 630.378C652.815 629.058 655.748 628.847 659.277 628.641L663.985 630.097C671.447 631.513 676.102 635.42 681.378 640.605L681.534 641.033C680.931 643.066 680.109 644.805 679.209 646.709C678.449 648.314 677.517 649.574 676.471 651C671.439 657.858 664.575 662.5 656.215 664.25L655.352 664.441C650.815 665.409 645.058 664.15 641.212 661.469C638.047 659.262 636.477 656.454 635.783 652.75C634.833 647.676 636.285 643.667 638.673 639.239Z"/>
	<path fill="#FAB695" transform="scale(0.292969 0.292969)" d="M638.673 639.239C641.102 635.258 644.315 632.433 648.678 630.697L649.5 630.378C652.815 629.058 655.748 628.847 659.277 628.641L663.985 630.097C665.569 632.789 667.296 635.669 666.343 638.943C665.19 642.904 660.82 645.633 657.33 647.236C652.968 649.241 648.122 650.287 643.537 648.363C641.545 647.528 640.493 645.445 639.809 643.522L638.673 639.239Z"/>
	<path fill="#FEFDFC" transform="scale(0.292969 0.292969)" d="M650.378 633.25L650.728 633.274C651.989 633.566 652.004 633.925 652.625 635C652.526 636.737 652.544 637.851 651.25 639.199C650.022 640.478 648.866 640.409 647.25 640.502C646.647 640.085 646.096 639.494 645.55 639C645.23 638.076 644.924 637.714 645.184 636.722C646.064 633.368 648.057 634.747 650.378 633.25Z"/>
	<path fill="#FEFDFC" transform="scale(0.292969 0.292969)" d="M621.559 339.51L629.283 339.469L637.848 339.647L637.927 340.07L637.971 550.03C637.029 565.888 637.643 581.999 637.669 597.891L637.808 610.366C637.928 613.903 638.259 618.252 636.985 621.632C636.397 623.192 635.531 624.041 634.004 624.692C632.659 624.563 631.711 624.366 630.75 623.308C629.686 622.136 629.432 620.597 629.247 619.074C628.551 613.327 629.151 607.035 629.162 601.23C629.193 584.266 630.059 566.933 629.071 550.005L621.032 550.039L619.529 761.146C621.055 760.384 622.131 758.828 623.812 758.051C622.705 760.653 621.75 763.074 621.144 765.848C620.981 769.316 621.104 772.457 621.603 775.894L619.767 776.467L619.989 782.782C620.043 799.658 618.385 816.861 622.039 833.5C623.316 839.313 625.426 844.967 627.217 850.639C617.447 837.216 612.499 821.573 609.75 805.355C605.663 781.243 606.962 755.879 606.408 731.472L604.98 560.785L604.907 550.065L604.611 339.677L621.559 339.51Z"/>
	<path fill="#BF0008" transform="scale(0.292969 0.292969)" d="M619.529 761.146C621.055 760.384 622.131 758.828 623.812 758.051C622.705 760.653 621.75 763.074 621.144 765.848C620.981 769.316 621.104 772.457 621.603 775.894L619.767 776.467L619.529 761.146Z"/>
	<path fill="#F9B805" transform="scale(0.292969 0.292969)" d="M621.559 339.51L629.283 339.469L629.071 550.005L621.032 550.039C622.216 542.155 621.607 533.568 621.665 525.588L622.008 483.643L621.559 339.51Z"/>
	<path fill="#FEFDFC" transform="scale(0.292969 0.292969)" d="M629.283 339.469L637.848 339.647L637.927 340.07L637.971 550.03C637.029 565.888 637.643 581.999 637.669 597.891L637.808 610.366C637.928 613.903 638.259 618.252 636.985 621.632C636.397 623.192 635.531 624.041 634.004 624.692C632.659 624.563 631.711 624.366 630.75 623.308C629.686 622.136 629.432 620.597 629.247 619.074C628.551 613.327 629.151 607.035 629.162 601.23C629.193 584.266 630.059 566.933 629.071 550.005L629.283 339.469Z"/>
	<path fill="#081359" transform="scale(0.292969 0.292969)" d="M236.475 172.187C241.891 171.885 247.575 172.409 253.022 172.464L285.606 172.546L414.743 172.525L441.679 172.475C445.464 172.445 451.454 171.605 454.99 172.722L455.5 172.901C456.465 173.235 457.393 173.579 458.25 174.152C461.106 176.06 463.557 179.056 464.302 182.441C464.948 185.379 464.562 189.137 464.568 192.191C464.579 197.482 465.238 203.839 464.223 208.965C463.916 210.516 463.108 212.284 462.25 213.605C459.67 217.576 455.372 219.386 450.892 220.215L450.115 220.355L450.002 283.515L467.678 283.55C476.45 283.583 484.902 283.253 492.403 288.611C498.392 292.89 502.602 299.826 503.764 307.084C504.881 314.062 503.626 322.01 499.312 327.75C492.586 336.701 485.066 338.076 474.627 339.677L474.69 683.712L474.689 782.875C474.704 801.256 475.947 820.144 473.993 838.438C471.396 862.744 461.714 887.225 446.415 906.401C439.511 915.055 431.31 922.831 422.708 929.769C398.341 948.647 370.85 958.072 340.029 958.101C306.618 958.132 272.65 943.526 249.123 919.931C229.353 900.105 215.282 872.664 210.001 845.213C208.009 834.861 207.762 824.196 207.639 813.681L207.556 780.013L207.536 686.727L207.43 339.215C199.278 338.665 193.572 336.857 187.634 330.943C182.052 325.383 179.52 318.239 179.53 310.455C179.539 303.032 182.551 296.932 187.783 291.833C195.887 283.935 204.538 284.227 215.089 284.277L233.091 284.426L233.32 220.391C231.117 219.62 228.616 218.872 226.75 217.443C223.508 214.962 221.073 211.048 220.615 206.94C220.241 203.595 220.474 199.986 220.499 196.617C220.552 189.631 220.055 183.389 224.803 177.633C227.999 173.758 231.738 172.681 236.475 172.187Z"/>
	<path fill="#7D897E" transform="scale(0.292969 0.292969)" d="M284.91 339.025C285.925 337.424 285.915 337.03 287.864 336.665C289.599 336.34 291.49 336.477 293.25 336.509C294.231 337.449 294.194 338.005 294.488 339.306L294.018 339.328C290.989 338.683 287.956 339.24 284.923 339.613L284.91 339.025Z"/>
	<path fill="#07806E" transform="scale(0.292969 0.292969)" d="M261.171 339.493L261.889 336.963C262.449 336.494 262.449 336.428 263.25 336.133C265.573 335.28 273.813 335.453 276.045 336.438C276.512 337.364 276.827 338.127 277.613 338.828L278.073 339.179L277.449 339.565L261.567 339.644L261.171 339.493Z"/>
	<path fill="#A1A3A4" transform="scale(0.292969 0.292969)" d="M233.171 314.12L232.986 326.004L217.637 326.022C211.957 326.127 204.653 327.239 199.518 324.389C196.129 322.507 193.472 318.246 192.644 314.517C191.68 310.18 192.857 306.597 195.174 302.956C196.306 307.128 197.079 311.149 201.197 313.38C204.142 314.974 228.097 314.098 233.171 314.12Z"/>
	<path fill="#A1A3A4" transform="scale(0.292969 0.292969)" d="M450.497 315.035C457.832 315.046 466.018 315.767 473.243 314.72L474 314.6C481.387 313.465 485.46 310.077 490.115 304.51C492.005 308.112 493.219 311.438 491.926 315.466C490.68 319.349 487.525 323.056 483.825 324.782C479.579 326.762 473.934 326.224 469.334 326.222L450.496 326.145L450.497 315.035Z"/>
	<path fill="#07806E" transform="scale(0.292969 0.292969)" d="M424.008 186.004L451.038 186.012C451.076 192.185 451.777 199.315 450.75 205.362C450.016 206.067 449.769 206.51 448.755 206.768C446.37 207.373 443.089 207.005 440.605 207.006L424.446 206.95L385.302 206.926C389.369 206.041 394.24 206.536 398.424 206.528L424.037 206.475L424.008 186.004Z"/>
	<path fill="#FEFDFC" transform="scale(0.292969 0.292969)" d="M195.174 302.956C197.257 300.857 199.235 298.791 202.037 297.651C204.565 296.622 208.282 296.982 210.999 296.959L227.014 296.791C229.052 296.783 231.082 297.069 233.095 297.36C233.664 302.902 233.305 308.557 233.171 314.12C228.097 314.098 204.142 314.974 201.197 313.38C197.079 311.149 196.306 307.128 195.174 302.956Z"/>
	<path fill="#FEFDFC" transform="scale(0.292969 0.292969)" d="M450.497 315.035L450.49 297.002L479.85 297.058C484.52 297.439 487.376 301.146 490.115 304.51C485.46 310.077 481.387 313.465 474 314.6L473.243 314.72C466.018 315.767 457.832 315.046 450.497 315.035Z"/>
	<path fill="#07806E" transform="scale(0.292969 0.292969)" d="M252.73 220.106L437.345 220.015L437.262 290.199L420.172 290.224L420.136 290.167L420.849 289.729C421.834 282.936 421.039 274.969 421.034 268.011L420.985 220.588L301.785 220.552L269.039 220.523C263.951 220.516 258.182 221.051 253.176 220.191L252.73 220.106Z"/>
	<path fill="#A1A3A4" transform="scale(0.292969 0.292969)" d="M418.88 296.549L437.008 296.781L436.996 326.257L245.876 326.175L245.883 314.117L422.997 314.12L423.005 302.065C423.006 300.365 423.334 298.586 422.5 297.089L418.88 296.549Z"/>
	<path fill="#36DFE8" transform="scale(0.292969 0.292969)" d="M261.171 339.493L261.567 339.644C260.036 350.031 261.005 361.417 261.009 371.946L260.997 434.639L260.999 509.891C261.002 522.723 260.035 536.435 261.488 549.137L245.42 549.174L245.893 339.498L261.171 339.493Z"/>
	<path fill="#FEFDFC" transform="scale(0.292969 0.292969)" d="M277.531 290.852L277.842 291.014L284.652 291.099L284.941 291.072L294.059 291.436L294.035 296.972L418.88 296.549L422.5 297.089C423.334 298.586 423.006 300.365 423.005 302.065L422.997 314.12L245.883 314.117L245.847 296.739L260.952 296.95L261.012 290.945C266.286 290.975 272.345 291.535 277.531 290.852Z"/>
	<path fill="#081359" transform="scale(0.292969 0.292969)" d="M277.842 291.014L284.652 291.099C284.915 293.083 284.932 294.961 284.894 296.96L277.559 296.98L277.842 291.014Z"/>
	<path fill="#A1A3A4" transform="scale(0.292969 0.292969)" d="M284.941 291.072L294.059 291.436L294.035 296.972L284.894 296.96C284.932 294.961 284.915 293.083 284.652 291.099L284.941 291.072Z"/>
	<path fill="#A1A3A4" transform="scale(0.292969 0.292969)" d="M277.531 290.852L277.842 291.014L277.559 296.98L260.952 296.95L261.012 290.945C266.286 290.975 272.345 291.535 277.531 290.852Z"/>
	<path fill="#07806E" transform="scale(0.292969 0.292969)" d="M421.009 339.445L437.019 339.501L437.451 486.026L437.521 529.839C437.532 536.31 436.85 543.623 437.73 550.008L421.075 550.023L421.009 339.445Z"/>
	<path fill="#08AEA0" transform="scale(0.292969 0.292969)" d="M245.893 235.966L245.928 219.976L252.73 220.106L253.176 220.191C258.182 221.051 263.951 220.516 269.039 220.523L301.785 220.552L420.985 220.588L421.034 268.011C421.039 274.969 421.834 282.936 420.849 289.729L420.136 290.167L405.062 290.524L405.071 236.253C402.768 235.121 284.599 236.064 268.649 236.057L245.893 235.966Z"/>
	<path fill="#36DFE8" transform="scale(0.292969 0.292969)" d="M385.302 206.926L354.125 207.005L296.675 207L256.168 207.017C250.691 207.026 245.071 207.546 239.619 207.257C237.802 207.16 236.533 206.95 234.92 206.101C234.365 205.302 234.119 204.861 234.051 203.865C233.766 199.702 232.771 189.326 235.517 186.13C241.084 184.927 247.891 185.763 253.634 185.8L288.061 185.959L424.008 186.004L424.037 206.475L398.424 206.528C394.24 206.536 389.369 206.041 385.302 206.926Z"/>
	<path fill="#36DFE8" transform="scale(0.292969 0.292969)" d="M245.893 235.966L268.649 236.057C284.599 236.064 402.768 235.121 405.071 236.253L405.062 290.524L294.477 291.022L294.059 291.436L284.941 291.072L284.652 291.099L277.842 291.014L277.531 290.852C272.345 291.535 266.286 290.975 261.012 290.945C256.153 290.442 250.84 290.956 245.934 291.03L245.893 235.966Z"/>
	<path fill="#FEFDFC" transform="scale(0.292969 0.292969)" d="M284.941 291.072C284.397 285.646 283.148 258.463 285.722 255.304C286.684 254.124 287.869 253.598 289.25 253.045C291.151 253.343 292.492 254.015 293.644 255.628C295.131 257.71 294.53 262.544 294.528 265.084L294.477 291.022L294.059 291.436L284.941 291.072Z"/>
	<path fill="#FEFDFC" transform="scale(0.292969 0.292969)" d="M266.917 237.492C270.942 237.606 272.668 237.715 275.59 240.825C275.946 241.204 276.586 241.778 276.844 242.196C279.272 246.127 277.838 284.059 277.567 290.417L277.531 290.852C272.345 291.535 266.286 290.975 261.012 290.945L260.854 258.391C260.836 253.702 260.07 247.646 261.239 243.155C261.994 240.255 264.43 238.778 266.917 237.492Z"/>
	<path fill="#008D28" transform="scale(0.292969 0.292969)" d="M437.73 550.008C438.949 554.211 439.07 557.788 438.997 562.119L438.986 747.844L438.985 798.746C438.974 814.481 439.721 831.048 436.407 846.52C432.541 864.568 423.442 881.321 410.396 894.389C391.419 913.397 367.06 923.003 340.326 923.001C317.296 922.999 293.012 913.277 276.721 896.959L273.873 893.932C274.389 888.969 270.532 881.918 269.002 877.029C267.228 871.36 265.926 865.697 263.755 860.134L276.535 871.402C294.29 885.637 316.273 892.232 338.893 889.679C359.285 887.377 378.015 877.52 390.869 861.377C399.027 851.134 404.402 839.543 406.462 826.593C407.35 821.007 407.024 815.141 407.02 809.5L407.019 784.485L407.018 696L407.082 604.609L407.129 578.043C407.163 572.925 407.595 567.582 407.029 562.506L408.072 562.15L408.099 550.033L421.075 550.023L437.73 550.008Z"/>
	<path fill="#024B28" transform="scale(0.292969 0.292969)" d="M437.73 550.008C438.949 554.211 439.07 557.788 438.997 562.119L408.072 562.15L408.099 550.033L421.075 550.023L437.73 550.008Z"/>
	<defs>
		<linearGradient id="gradient_1" gradientUnits="userSpaceOnUse" x1="145.41499" y1="418.11499" x2="535.15137" y2="795.22858">
			<stop offset="0" stop-color="#B2B2B8"/>
			<stop offset="1" stop-color="#AEC1B9"/>
		</linearGradient>
	</defs>
	<path fill="url(#gradient_1)" transform="scale(0.292969 0.292969)" d="M220.456 339.01L232.959 339.007L232.821 687.268L232.775 783.523L232.768 812.198C232.767 821.293 232.724 830.57 234.22 839.567C238.02 862.413 247.561 883.51 263.88 900.173C285.023 921.761 312.185 933.808 342.45 933.984C369.944 934.144 397.87 922.274 417.25 902.969C432.611 887.668 444.011 867.439 447.928 846C449.834 835.572 449.907 824.683 449.921 814.113L449.941 784.933L449.912 690.806L449.472 339.506L461.456 339.517L461.433 349.375L461.37 692.593L461.458 784.313C461.483 804.777 463.062 826.569 459.3 846.731C454.742 871.156 442.349 893.449 424.906 911.039C403.066 933.063 372.071 945.5 341.173 945.528C309.812 945.556 280.427 932.78 258.311 910.632C239.818 892.114 227.858 869.193 222.876 843.543C218.771 822.408 220.489 800.125 220.498 778.712L220.504 685.858L220.456 339.01Z"/>
	<path fill="#36DFE8" transform="scale(0.292969 0.292969)" d="M294.488 339.306L405.385 339.381L421.009 339.445L421.075 550.023L408.099 550.033L405.247 550.001L294.017 550.06L294.018 339.328L294.488 339.306Z"/>
	<path fill="#19B0D6" transform="scale(0.292969 0.292969)" d="M349.389 478.564C353.313 478.414 356.682 478.631 360.318 480.401C364.455 482.413 368.096 486.938 369.548 491.277L369.75 491.905C370.84 495.231 370.977 499.485 369.784 502.807L369.52 503.5L368.8 505.371C365.91 511.5 361.245 514.137 355.097 516.24C350.548 516.902 346.456 515.764 342.5 513.527C338.504 511.267 335.313 506.796 334.177 502.371C332.885 497.336 334.043 491.669 336.61 487.205C339.424 482.312 344.121 480.063 349.389 478.564Z"/>
	<path fill="#FEFDFC" transform="scale(0.292969 0.292969)" d="M349.096 481.113C351.661 480.985 354.517 480.786 356.963 481.696C360.986 483.193 364.937 486.728 366.553 490.727C368.305 495.059 367.942 500.399 366.093 504.622C363.668 510.16 359.385 511.942 354.11 514C351.428 513.945 348.205 513.524 345.75 512.406C342.224 510.799 338.723 507.359 337.302 503.726C335.552 499.252 335.909 494.507 337.86 490.172C340.111 485.169 344.299 483.047 349.096 481.113Z"/>
	<path fill="#08AEA0" transform="scale(0.292969 0.292969)" d="M405.385 339.381L421.009 339.445L421.075 550.023L408.099 550.033L405.247 550.001L405.385 339.381Z"/>
	<path fill="#00C85C" transform="scale(0.292969 0.292969)" d="M284.923 339.613C287.956 339.24 290.989 338.683 294.018 339.328L294.017 550.06L405.247 550.001L408.099 550.033L408.072 562.15L407.029 562.506C407.595 567.582 407.163 572.925 407.129 578.043L407.082 604.609L407.018 696L407.019 784.485L407.02 809.5C407.024 815.141 407.35 821.007 406.462 826.593C404.402 839.543 399.027 851.134 390.869 861.377C378.015 877.52 359.285 887.377 338.893 889.679C316.273 892.232 294.29 885.637 276.535 871.402L263.755 860.134C265.926 865.697 267.228 871.36 269.002 877.029C270.532 881.918 274.389 888.969 273.873 893.932L272.71 892.841C257.736 878.036 247.694 857.645 245.509 836.672C244.567 827.629 244.978 818.349 244.998 809.262L245.097 773.693C244.682 768.583 244.957 763.273 244.957 758.138L244.962 730.468L244.992 643.224L245.018 580.175C245.022 570.167 244.009 559.008 245.42 549.174L261.488 549.137C260.035 536.435 261.002 522.723 260.999 509.891L260.997 434.639L261.009 371.946C261.005 361.417 260.036 350.031 261.567 339.644L277.449 339.565L278.073 339.179L284.91 339.025L284.923 339.613Z"/>
	<path fill="#EAA913" transform="scale(0.292969 0.292969)" d="M313.384 755.29C314.984 757.467 315.73 759.005 315.29 761.75C314.887 764.271 313.397 766.548 311.25 767.95C310.616 768.364 309.977 768.438 309.25 768.549L308.476 768.675C306.072 769.03 304.756 768.867 302.793 767.432C301.751 766.67 300.951 765.744 300.156 764.738C303.321 765.535 306.701 766.355 309.827 764.771C312.62 763.356 312.703 758.157 313.384 755.29Z"/>
	<path fill="#EAA913" transform="scale(0.292969 0.292969)" d="M296.789 709.516C295.024 706.4 293.876 703.353 293.408 699.8C292.422 692.295 294.472 685.08 299.028 679.088L301.6 679.385C297.759 684.075 296.32 688.268 296.459 694.351C295.7 698.103 296.349 701.753 297.334 705.415L296.789 709.516Z"/>
	<path fill="#E5C80C" transform="scale(0.292969 0.292969)" d="M300.156 764.738C299.878 764.076 299.842 764.055 299.661 763.25C299.162 761.039 299.699 758.764 300.986 756.923C302.466 754.805 305.311 753.298 307.866 753.053C310.152 752.834 311.686 753.923 313.384 755.29C312.703 758.157 312.62 763.356 309.827 764.771C306.701 766.355 303.321 765.535 300.156 764.738Z"/>
	<path fill="#EAA913" transform="scale(0.292969 0.292969)" d="M385.833 658.565C388.319 657.947 390.526 657.723 392.781 659.191C394.814 660.514 396.393 663.283 396.723 665.654C397.022 667.797 396.428 669.419 395.071 671.076C394.018 672.362 392.698 673.343 391 673.494C389.794 673.602 388.457 673.515 387.344 673.052L386.943 673.023C385.043 672.648 383.008 670.601 382.041 669C380.971 667.23 380.824 665.026 381.447 663.085C382.283 660.48 383.432 659.746 385.833 658.565Z"/>
	<path fill="#F9B805" transform="scale(0.292969 0.292969)" d="M387.344 673.052L386.943 673.023C385.043 672.648 383.008 670.601 382.041 669C380.971 667.23 380.824 665.026 381.447 663.085C382.283 660.48 383.432 659.746 385.833 658.565L386.465 659.474C388.403 659.562 388.249 659.567 389.577 661C389.451 662.955 388.68 663.315 388.318 664.885L388.891 665.051L387.011 667.25C388.184 668.483 390.774 668.967 392.459 669.25C392.181 670.264 392.123 670.118 391.256 670.598C389.878 671.361 388.215 671.647 387.344 673.052Z"/>
	<path fill="#FEFDFC" transform="scale(0.292969 0.292969)" d="M386.465 659.474C388.403 659.562 388.249 659.567 389.577 661C389.451 662.955 388.68 663.315 388.318 664.885C386.109 664.429 385.491 664.345 384.158 662.5C384.559 660.871 385.233 660.568 386.465 659.474Z"/>
	<path fill="#C56800" transform="scale(0.292969 0.292969)" d="M346.392 682.627C350.353 689.077 351.822 696.084 350.008 703.498C348.396 710.086 343.7 716.57 337.854 720.039C331.068 724.064 322.824 726.184 315.079 724.05C307.483 721.956 301.224 717.492 297.351 710.599L296.789 709.516L297.334 705.415C300.729 712.924 304.737 716.746 312.392 719.642C316.936 721.136 321.078 721.957 325.887 721.435C332.673 720.698 339.009 716.992 343.132 711.62C347.229 706.281 349.306 699.082 348.343 692.361C347.871 689.068 346.785 685.964 346.392 682.627Z"/>
	<defs>
		<linearGradient id="gradient_2" gradientUnits="userSpaceOnUse" x1="365.69089" y1="853.27618" x2="342.55188" y2="836.2215">
			<stop offset="0" stop-color="#CA8305"/>
			<stop offset="1" stop-color="#AB8B13"/>
		</linearGradient>
	</defs>
	<path fill="url(#gradient_2)" transform="scale(0.292969 0.292969)" d="M355.506 809.951C362.974 813.27 368.873 819.461 371.876 827.086C373.779 831.915 374.075 837.553 372.675 842.536L372.458 843.329C370.191 851.367 364.483 857.705 357.255 861.697C350.639 865.351 343.915 866.951 336.525 864.695C330.218 862.77 323.801 858.427 320.595 852.567L322.938 852.991C326.146 856.992 331.668 860.777 336.714 861.822C344.402 863.412 352.488 861.186 358.9 856.798L359.47 856.401L360.945 855.31C366.883 850.25 369.709 844.788 370.241 837.021L370.285 836.948C370.587 833.479 369.746 829.488 368.499 826.25C366.466 820.974 362.975 816.516 357.763 814.198L357.422 813.803L355.506 809.951Z"/>
	<path fill="#007335" transform="scale(0.292969 0.292969)" d="M245.42 549.174L261.488 549.137L261.625 557.759L261.461 562C260.276 562.766 258.789 562.464 257.391 562.468L245.393 562.495L245.391 709.438L245.354 753.232C245.338 759.742 245.98 767.277 245.097 773.693C244.682 768.583 244.957 763.273 244.957 758.138L244.962 730.468L244.992 643.224L245.018 580.175C245.022 570.167 244.009 559.008 245.42 549.174Z"/>
	<path fill="#EAA913" transform="scale(0.292969 0.292969)" d="M312.392 719.642C314.597 718.166 318.427 718.542 321.208 717.791C328.117 715.926 335.301 711.058 338.83 704.744L341.67 699.011C342.523 696.985 342.525 694.932 343.256 692.963C343.885 691.268 344.205 688.641 343.542 686.926C342.889 685.234 342.276 682.58 341.959 680.75C341.722 679.382 341.972 678.703 342.668 677.557C344.069 679.201 345.323 680.738 346.392 682.627C346.785 685.964 347.871 689.068 348.343 692.361C349.306 699.082 347.229 706.281 343.132 711.62C339.009 716.992 332.673 720.698 325.887 721.435C321.078 721.957 316.936 721.136 312.392 719.642Z"/>
	<path fill="#F9B805" transform="scale(0.292969 0.292969)" d="M323.127 852.481L323.754 852.229L324.456 852.517L325.502 852.944C331.542 855.915 339.649 853.539 345.921 852.213C355.8 850.124 362.47 842.777 370.241 837.021C369.709 844.788 366.883 850.25 360.945 855.31L359.47 856.401L358.9 856.798C352.488 861.186 344.402 863.412 336.714 861.822C331.668 860.777 326.146 856.992 322.938 852.991L323.127 852.481Z"/>
	<defs>
		<linearGradient id="gradient_3" gradientUnits="userSpaceOnUse" x1="381.97675" y1="776.06799" x2="371.87183" y2="753.22009">
			<stop offset="0" stop-color="#FDB604"/>
			<stop offset="1" stop-color="#E0CE0F"/>
		</linearGradient>
	</defs>
	<path fill="url(#gradient_3)" transform="scale(0.292969 0.292969)" d="M370.963 753.037C374.177 751.391 377.074 750.721 380.622 751.936C384.434 753.242 387.544 755.949 389.144 759.648C390.456 762.684 391.213 766.615 389.939 769.809C388.429 773.595 385.14 776.499 381.313 777.8C378.314 778.82 373.965 778.298 371.164 776.864C367.388 774.931 365.387 771.263 364.214 767.353C363.607 765.33 363.829 762.978 364.314 760.946L364.574 760.466C366.266 757.122 367.828 755.163 370.963 753.037Z"/>
	<path fill="#E9F216" transform="scale(0.292969 0.292969)" d="M370.963 753.037L372.955 754.515L374.162 754.319C375.797 753.964 377.086 753.927 378.75 754.056C379.8 755.279 380.084 756.381 379.929 757.958C379.613 761.162 377.517 764.071 375.059 766.061C373.119 767.63 371.117 768.102 368.682 768.25C366.852 766.755 366.362 765.911 365.559 763.75L364.314 760.946L364.574 760.466C366.266 757.122 367.828 755.163 370.963 753.037Z"/>
	<path fill="#FEFDFC" transform="scale(0.292969 0.292969)" d="M372.955 754.515L374.162 754.319C374.821 755.293 375.706 756.402 375.897 757.583C376.087 758.761 375.926 759.416 375.041 760.25C373.992 761.239 372.894 761.359 371.566 761.25C370.661 759.99 370.284 759.333 370.038 757.75C370.507 756.238 371.772 755.469 372.955 754.515Z"/>
	<path fill="#EAA913" transform="scale(0.292969 0.292969)" d="M341.701 615.766C341.813 615.234 341.966 614.726 342.161 614.218C343.564 610.549 346.704 607.731 350.263 606.198C353.342 604.871 356.356 605.083 359.458 606.274C363.397 607.914 366.337 610.058 368.091 614.1C369.505 617.358 369.577 620.879 368.121 624.157C366.463 627.892 362.312 631.352 358.467 632.731C355.288 633.872 352.063 632.781 349.17 631.341C345.81 629.669 343.104 626.59 342.008 623C341.281 620.619 341.542 618.209 341.701 615.766Z"/>
	<path fill="#E9F216" transform="scale(0.292969 0.292969)" d="M341.701 615.766C341.813 615.234 341.966 614.726 342.161 614.218C343.564 610.549 346.704 607.731 350.263 606.198C353.342 604.871 356.356 605.083 359.458 606.274C361.029 609.047 362.085 611.66 361.25 614.874C360.468 617.882 358.014 621.228 355.463 622.97C352.458 623.529 347.165 624.627 344.262 623.841L341.701 615.766Z"/>
	<path fill="#FEFDFC" transform="scale(0.292969 0.292969)" d="M353.126 607.25C354.313 607.228 354.806 607.662 355.75 608.33C355.925 609.079 356.188 609.954 355.965 610.723C355.358 612.815 352.445 614.552 350.75 615.666C349.998 615.932 349.79 615.874 349.027 615.75L348.654 615.195C348.012 613.988 347.753 612.027 348.187 610.711C348.751 608.999 351.635 607.876 353.126 607.25Z"/>
	<path fill="#E5C80C" transform="scale(0.292969 0.292969)" d="M315.979 668.246C324.308 667.033 331.359 668.321 338.117 673.416C339.786 674.674 341.299 675.967 342.668 677.557C341.972 678.703 341.722 679.382 341.959 680.75C342.276 682.58 342.889 685.234 343.542 686.926C344.205 688.641 343.885 691.268 343.256 692.963C342.525 694.932 342.523 696.985 341.67 699.011L338.83 704.744C335.301 711.058 328.117 715.926 321.208 717.791C318.427 718.542 314.597 718.166 312.392 719.642C304.737 716.746 300.729 712.924 297.334 705.415C296.349 701.753 295.7 698.103 296.459 694.351C298.471 697.559 299.188 700.949 302.68 703.145C306.696 705.671 311.053 705.75 315.517 704.66L316 704.537C318.363 703.967 320.351 703.17 322.411 701.858L323 701.477C326.927 699 330.148 695.205 332.096 691C333.828 687.262 334.394 682.798 332.855 678.888L332.594 678.25C331.712 675.995 330.513 674.703 329.263 672.716L328.992 672.255C321.723 670.111 316.475 670.142 309.658 673.71C306.729 675.244 304.133 677.283 301.6 679.385L299.028 679.088C303.69 673.472 309.114 670.386 315.979 668.246Z"/>
	<path fill="#E5C80C" transform="scale(0.292969 0.292969)" d="M318.251 825.88C321.122 819.672 324.826 814.704 330.926 811.361C339.052 806.908 346.926 807.523 355.506 809.951L357.422 813.803C353.442 812.01 348.683 810.372 344.284 810.084C339.141 809.746 332.586 811.837 328.807 815.304C325.109 818.695 321.951 823.64 321.882 828.784C321.857 830.699 322.126 831.872 322.843 833.59L323.084 834.229C324.369 837.556 326.605 839.614 329.828 841.031C334.87 843.249 341.333 843.362 346.392 841.093L350.645 838.648L351.178 838.316C354.984 835.864 357.345 831.751 358.561 827.5L358.84 826.553C359.76 823.012 358.74 817.61 357.763 814.198C362.975 816.516 366.466 820.974 368.499 826.25C369.746 829.488 370.587 833.479 370.285 836.948L370.241 837.021C362.47 842.777 355.8 850.124 345.921 852.213C339.649 853.539 331.542 855.915 325.502 852.944L324.456 852.517L323.754 852.229L323.127 852.481L322.938 852.991L320.595 852.567C316.987 847.632 315.325 840.237 316.274 834.255L316.401 833.5L318.251 825.88Z"/>
	<path fill="#EAA913" transform="scale(0.292969 0.292969)" d="M318.251 825.88C319.331 828.121 319.874 828.828 319.349 831.289C318.424 835.622 318.653 840.892 320.25 845.029L320.516 845.753C321.349 847.975 323.114 850.098 323.127 852.481L322.938 852.991L320.595 852.567C316.987 847.632 315.325 840.237 316.274 834.255L316.401 833.5L318.251 825.88Z"/>
	<path fill="#E9F216" transform="scale(0.292969 0.292969)" d="M357.763 814.198C358.74 817.61 359.76 823.012 358.84 826.553L358.561 827.5C357.345 831.751 354.984 835.864 351.178 838.316L350.645 838.648L346.392 841.093C341.333 843.362 334.87 843.249 329.828 841.031C326.605 839.614 324.369 837.556 323.084 834.229L322.843 833.59C322.126 831.872 321.857 830.699 321.882 828.784C321.951 823.64 325.109 818.695 328.807 815.304C332.586 811.837 339.141 809.746 344.284 810.084C348.683 810.372 353.442 812.01 357.422 813.803L357.763 814.198Z"/>
	<path fill="#FEFDFC" transform="scale(0.292969 0.292969)" d="M334.606 813.75C335.558 813.568 336.414 813.39 337.385 813.522C339.067 813.749 340.675 814.321 341.641 815.768C342.506 817.065 342.725 818.194 342.315 819.728C341.668 822.146 339.1 823.738 337.117 824.929L334.25 825.808C333.231 825.62 332.515 825.26 331.759 824.528C330.59 823.395 330.012 821.596 330.143 820C330.359 817.372 332.6 815.16 334.606 813.75Z"/>
	<path fill="#E9F216" transform="scale(0.292969 0.292969)" d="M301.6 679.385C304.133 677.283 306.729 675.244 309.658 673.71C316.475 670.142 321.723 670.111 328.992 672.255L329.263 672.716C330.513 674.703 331.712 675.995 332.594 678.25L332.855 678.888C334.394 682.798 333.828 687.262 332.096 691C330.148 695.205 326.927 699 323 701.477L322.411 701.858C320.351 703.17 318.363 703.967 316 704.537L315.517 704.66C311.053 705.75 306.696 705.671 302.68 703.145C299.188 700.949 298.471 697.559 296.459 694.351C296.32 688.268 297.759 684.075 301.6 679.385Z"/>
	<path fill="#FEFDFC" transform="scale(0.292969 0.292969)" d="M310.539 677.75C311.107 677.568 311.368 677.459 312.005 677.387C313.536 677.211 314.997 677.654 316.098 678.75C316.975 679.624 317.586 680.729 317.495 682C317.314 684.557 315.138 686.802 313.25 688.299C311.3 688.074 309.323 687.723 307.922 686.222C306.507 684.705 305.866 683.306 306.012 681.25C307.431 679.644 308.61 678.69 310.539 677.75Z"/>
	<path fill="#007335" transform="scale(0.292969 0.292969)" d="M405.247 550.001L408.099 550.033L408.072 562.15L407.029 562.506C403.306 561.945 399.502 562.443 395.75 562.476L374.935 562.502L294.03 562.411L294.017 550.06L405.247 550.001Z"/>
	<path fill="#FEFDFC" transform="scale(0.292969 0.292969)" d="M284.923 339.613C287.956 339.24 290.989 338.683 294.018 339.328L294.017 550.06L294.03 562.411L293.998 616.417C294.023 626.108 294.714 635.893 293.91 645.559C293.793 646.967 293.643 648.705 292.721 649.846C291.673 651.142 290.334 651.731 288.75 651.877C288.125 651.488 287.445 651.102 286.91 650.584C285.377 649.1 285.312 646.512 285.167 644.537C284.609 636.898 285.371 628.837 285.383 621.137L285.146 562.451L277.395 562.425L275.651 846.51C269.745 836.034 265.9 824.909 264.011 813.027C260.468 790.749 261.999 766.997 261.994 744.49L261.974 620.042L261.96 580.886C261.956 573.498 262.319 565.893 261.694 558.536L261.625 557.759L261.488 549.137C260.035 536.435 261.002 522.723 260.999 509.891L260.997 434.639L261.009 371.946C261.005 361.417 260.036 350.031 261.567 339.644L277.449 339.565L278.073 339.179L284.91 339.025L284.923 339.613Z"/>
	<path fill="#FEFDFC" transform="scale(0.292969 0.292969)" d="M284.923 339.613C287.956 339.24 290.989 338.683 294.018 339.328L294.017 550.06L294.03 562.411L293.998 616.417C294.023 626.108 294.714 635.893 293.91 645.559C293.793 646.967 293.643 648.705 292.721 649.846C291.673 651.142 290.334 651.731 288.75 651.877C288.125 651.488 287.445 651.102 286.91 650.584C285.377 649.1 285.312 646.512 285.167 644.537C284.609 636.898 285.371 628.837 285.383 621.137L285.146 562.451L277.395 562.425L277.492 549.959C278.556 535.251 277.998 520.585 278.077 505.834L278.175 420.162L278.105 368.144C278.076 358.835 278.772 348.763 277.449 339.565L278.073 339.179L284.91 339.025L284.923 339.613Z"/>
	<path fill="#024B28" transform="scale(0.292969 0.292969)" d="M277.492 549.959L284.976 549.953L285.146 562.451L277.395 562.425L277.492 549.959Z"/>
	<path fill="#36DFE8" transform="scale(0.292969 0.292969)" d="M278.073 339.179L284.91 339.025L284.923 339.613L284.976 549.953L277.492 549.959C278.556 535.251 277.998 520.585 278.077 505.834L278.175 420.162L278.105 368.144C278.076 358.835 278.772 348.763 277.449 339.565L278.073 339.179Z"/>
</svg>
