<?xml version="1.0" encoding="utf-8" ?>
<svg xmlns="http://www.w3.org/2000/svg" xmlns:xlink="http://www.w3.org/1999/xlink" width="371" height="371">
	<path fill="#D60531" transform="scale(0.362305 0.362305)" d="M448.358 165.455L451.19 166.023L451.252 166.538C452.037 173.69 451.537 181.285 451.594 188.491C451.619 191.731 451.333 195.346 452.468 198.432C453.184 200.378 454.596 201.597 456.159 202.871L456.567 203.2C454.194 202.947 451.961 202.188 450.25 200.468C449.458 199.671 448.796 198.634 448.529 197.533C447.771 194.403 448.102 190.495 448.095 187.284L448.358 165.455Z"/>
	<path fill="#FAA4EC" transform="scale(0.362305 0.362305)" d="M448.358 165.455C446.341 164.613 444.261 163.002 442.551 161.647C437.726 157.824 434.05 151.116 433.384 144.996L433.31 144.25L433.213 143.41C432.488 136.645 434.803 129.398 439.146 124.191C444.403 117.89 450.444 115.604 458.5 114.803C463.212 114.335 467.936 114.782 472.651 115.064L471.955 115.456C469.734 116.645 467.002 116.883 464.663 117.89C458.623 120.492 452.743 126.526 450.551 132.75C448.309 139.116 448.933 144.665 451.975 150.649C455.505 157.592 461.916 161.396 469 163.96C470.8 164.612 472.821 164.959 474.409 166.05L451.19 166.023L448.358 165.455Z"/>
	<path fill="#FA0B6D" transform="scale(0.362305 0.362305)" d="M451.19 166.023L474.409 166.05C476.543 166.453 478.574 166.483 480.734 166.507L480.509 172.429L480.071 202.599L474.951 202.924L457.966 203.058L456.567 203.2L456.159 202.871C454.596 201.597 453.184 200.378 452.468 198.432C451.333 195.346 451.619 191.731 451.594 188.491C451.537 181.285 452.037 173.69 451.252 166.538L451.19 166.023Z"/>
	<path fill="#FBC9F8" transform="scale(0.362305 0.362305)" d="M457.966 203.058L474.951 202.924C476.572 203.004 478.365 202.901 479.855 203.548L479.826 247.012L479.888 337.858L479.893 377.617C479.886 385.34 480.78 394.409 479.075 401.952C477.983 406.781 475.93 411.489 474.171 416.102C467.101 434.649 457.901 451.811 448.131 469.046L406.356 542.662L395.623 561.51C391.847 567.895 387.789 574.338 384.888 581.186L384.659 581.371C379.777 581.866 354.685 585.562 352.121 584.524L373.449 548.5L394.064 513.392L433.286 445.254L449.523 417.609C451.96 413.502 456.695 407.398 457.814 402.896C459.076 397.821 458.068 391.485 458.039 386.25L458.028 353.914L457.966 203.058Z"/>
	<path fill="#FE498A" transform="scale(0.362305 0.362305)" d="M472.651 115.064L542.34 115.192L561.996 115.106C566.226 115.084 570.589 114.827 574.759 115.642C579.997 116.666 585.553 119.895 589.369 123.634C592.273 126.479 594.38 130.143 595.581 134L595.839 134.804C597.772 141.096 596.989 148.074 593.826 153.839C590.641 159.644 585.181 163.98 579.094 166.428L579.054 172.295L579.072 190.443C579.068 192.198 579.418 195.648 578.797 197.185C578.461 198.015 577.165 199.398 576.529 200.038C574.196 202.388 571.138 203.066 567.978 203.383C567.539 204.204 567.315 204.868 567.132 205.781C567.163 204.671 567.275 203.786 566.811 202.75C557.539 201.672 547.326 202.441 537.947 202.444L480.071 202.599L480.509 172.429L480.734 166.507C478.574 166.483 476.543 166.453 474.409 166.05C472.821 164.959 470.8 164.612 469 163.96C461.916 161.396 455.505 157.592 451.975 150.649C448.933 144.665 448.309 139.116 450.551 132.75C452.743 126.526 458.623 120.492 464.663 117.89C467.002 116.883 469.734 116.645 471.955 115.456L472.651 115.064Z"/>
	<path fill="#D60531" transform="scale(0.362305 0.362305)" d="M480.734 166.507L579.094 166.428L579.054 172.295L579.072 190.443C579.068 192.198 579.418 195.648 578.797 197.185C578.461 198.015 577.165 199.398 576.529 200.038C574.196 202.388 571.138 203.066 567.978 203.383C567.539 204.204 567.315 204.868 567.132 205.781C567.163 204.671 567.275 203.786 566.811 202.75C557.539 201.672 547.326 202.441 537.947 202.444L480.071 202.599L480.509 172.429L480.734 166.507Z"/>
	<path fill="#A30014" transform="scale(0.362305 0.362305)" d="M480.734 166.507L579.094 166.428L579.054 172.295L480.509 172.429L480.734 166.507Z"/>
	<path fill="#FE498A" transform="scale(0.362305 0.362305)" d="M352.121 584.524C354.685 585.562 379.777 581.866 384.659 581.371L374.737 598.602L355.666 631.657L303.493 722L283.37 756.926C278.148 766.519 273.034 776.417 269.925 786.934C264.462 805.414 263.973 825.463 269.858 843.901C275.448 861.415 286.887 879.009 300.859 891.003C308.213 897.316 316.075 901.888 324.668 906.279L327.106 907.399C328.004 907.79 328.393 908.161 329.029 908.883C318.555 909.036 308.127 909.044 297.787 907.101C287.132 905.098 276.515 900.593 267.375 894.823C246.132 881.414 231.648 861.488 226.23 836.938C223.43 824.252 223.779 810.231 228.069 797.914C233.145 783.342 242.256 770.428 250.072 757.229L280.353 705.873L325.977 628.702L352.121 584.524Z"/>
	<path fill="#FAA4EC" transform="scale(0.362305 0.362305)" d="M480.071 202.599L537.947 202.444C547.326 202.441 557.539 201.672 566.811 202.75C567.275 203.786 567.163 204.671 567.132 205.781L567.063 358.355L566.966 389.874C566.944 393.463 566.212 399.15 567.121 402.541C568.333 407.067 572.354 412.006 574.826 416.064L588.356 438.662L645.238 535.984C654.732 552.227 665.339 568.156 673.794 584.959C668.898 584.068 663.684 583.933 658.72 583.483L630 580.872L517.137 576.016L481.464 576.134L416.16 578.972L384.888 581.186C387.789 574.338 391.847 567.895 395.623 561.51L406.356 542.662L448.131 469.046C457.901 451.811 467.101 434.649 474.171 416.102C475.93 411.489 477.983 406.781 479.075 401.952C480.78 394.409 479.886 385.34 479.893 377.617L479.888 337.858L479.826 247.012L479.855 203.548C478.365 202.901 476.572 203.004 474.951 202.924L480.071 202.599Z"/>
	<path fill="#FE498A" transform="scale(0.362305 0.362305)" d="M549.815 528.25C551.301 527.981 552.942 527.934 554.421 528.292C557.416 529.016 559.332 530.942 560.754 533.596C561.802 535.55 561.928 538.663 561.124 540.736C559.911 543.859 556.925 545.913 554.01 547.25C552.195 547.357 550.007 547.27 548.265 546.688C546.42 546.071 544.88 544.332 544.026 542.634C542.705 540.011 542.452 536.756 543.534 534C544.633 531.199 547.14 529.392 549.815 528.25Z"/>
	<path fill="#FE498A" transform="scale(0.362305 0.362305)" d="M504.016 454.085C507.853 453.798 511.562 454.401 514.991 456.169C519.798 458.649 523.327 462.782 524.848 468.008C526.439 473.473 525.682 479.217 522.801 484.087C519.535 489.61 514.601 492.008 508.569 493.544C503.502 493.559 499.389 493.134 494.846 490.684C490.314 488.239 487.069 483.682 485.794 478.75C484.619 474.2 485.516 468.067 488.052 464.122C491.662 458.506 497.686 455.46 504.016 454.085Z"/>
	<path fill="#FA0B6D" transform="scale(0.362305 0.362305)" d="M384.888 581.186L416.16 578.972L481.464 576.134L517.137 576.016L630 580.872L658.72 583.483C663.684 583.933 668.898 584.068 673.794 584.959L720.975 664.5L761.239 732.418C773.093 752.926 788.256 772.965 795.457 795.75C799.736 809.292 799.277 825.222 795.852 838.865C789.853 862.761 777.004 883.541 755.483 896.345C744.665 902.78 732.552 907.059 720.013 908.351C713.35 909.038 706.494 908.95 699.803 909.039L667.615 909.182L582.587 909.039L417.712 908.969L329.029 908.883C328.393 908.161 328.004 907.79 327.106 907.399L324.668 906.279C316.075 901.888 308.213 897.316 300.859 891.003C286.887 879.009 275.448 861.415 269.858 843.901C263.973 825.463 264.462 805.414 269.925 786.934C273.034 776.417 278.148 766.519 283.37 756.926L303.493 722L355.666 631.657L374.737 598.602L384.659 581.371L384.888 581.186Z"/>
	<path fill="#FDB5AF" transform="scale(0.362305 0.362305)" d="M543.507 617.48C545.06 617.446 546.822 617.949 548.25 618.537C551.37 619.821 553.267 622.75 554.265 625.85C555.08 628.379 554.134 631.307 552.912 633.573C551.303 636.554 548.963 638.107 545.75 639.012C543.81 638.931 541.662 638.609 539.91 637.735C537.458 636.514 535.611 633.817 534.712 631.29C533.735 628.541 533.853 626 535.205 623.379C537.045 619.812 539.958 618.725 543.507 617.48Z"/>
	<path fill="#FDB5AF" transform="scale(0.362305 0.362305)" d="M574.282 726.574C578.982 726.275 584.166 727.976 588.119 730.459C592.992 733.52 597.338 739.531 598.415 745.174C599.711 751.965 598.152 759.406 594.034 765C589.836 770.704 583.516 772.894 576.833 774.006C571.54 773.664 567.086 773.18 562.411 770.446C557.23 767.416 553.191 762.045 551.741 756.199C550.297 750.382 551.301 743.734 554.386 738.607C559.038 730.877 566.01 728.476 574.282 726.574Z"/>
	<path fill="#FDB5AF" transform="scale(0.362305 0.362305)" d="M439.814 646.639C451.932 645.372 463.935 648.233 473.75 655.597C483.096 662.609 489.766 674.014 491.298 685.591C493.061 698.923 490.069 711.998 481.87 722.724C473.632 733.502 463.29 738.051 450.121 739.786C439.861 741.251 427.677 738.213 419.15 732.498C408.849 725.594 401.09 714.482 398.77 702.25C396.431 689.916 399.241 676.466 406.363 666.145C414.339 654.587 426.39 649.084 439.814 646.639Z"/>
</svg>
