<?xml version="1.0" encoding="utf-8" ?>
<svg xmlns="http://www.w3.org/2000/svg" xmlns:xlink="http://www.w3.org/1999/xlink" width="300" height="300">
	<path fill="#02335D" transform="scale(0.292969 0.292969)" d="M324.039 168.5C327.184 169.209 330.315 169.24 333.484 169.693L333.454 177.713C331.606 175.39 328.811 173.934 326.927 171.567C326.029 170.438 325.092 169.485 324.039 168.5Z"/>
	<path fill="#02335D" transform="scale(0.292969 0.292969)" d="M91.5373 164.282C96.6999 168.207 101.644 169.222 107.993 169.635L107.877 226.516C107.205 222.717 107.757 217.78 107.741 213.872L107.568 184.858C107.563 184.118 107.792 179.254 107.525 178.874C107.214 178.433 103.428 177.01 102.683 176.583C97.7786 173.766 94.5904 168.869 91.5373 164.282Z"/>
	<path fill="#A99381" transform="scale(0.292969 0.292969)" d="M180.371 125.827L224.688 125.789C232.422 125.734 240.902 124.468 248.51 126.003C251.773 126.662 254.741 128.443 257.062 130.799C258.107 131.859 260.874 135.012 261.204 136.489C262.916 142.834 263.757 156.444 260.286 162.212C258.773 164.726 256.533 166.483 253.995 167.875L253.397 168.208C250.655 169.626 246.557 169.318 243.509 169.469L180.376 169.682L180.281 166.899C179.383 159.233 179.979 150.908 179.976 143.169C179.973 137.626 179.281 131.204 180.371 125.827Z"/>
	<path fill="#A99381" transform="scale(0.292969 0.292969)" d="M848.845 126.276L894.956 125.984C903.093 125.953 912.123 124.422 920 126.339L920.691 126.493C926.367 127.803 930.377 131.954 933.286 136.757C933.444 137.017 933.622 137.268 933.732 137.552C935.169 144.651 936.326 155.983 932.009 162.25C928.892 166.773 924.578 168.754 919.27 169.684C918.453 169.828 917.323 170.138 916.509 169.941C911.246 168.999 904.39 169.831 898.964 169.852L850.989 169.835L850.961 139.5C850.97 135.486 851.563 130.654 850.868 126.745L848.845 126.276Z"/>
	<path fill="#A99381" transform="scale(0.292969 0.292969)" d="M401.292 125.962L452.143 125.921L465.322 125.898C467.573 125.892 470.181 125.685 472.376 126.119C475.91 126.819 479.152 128.789 481.667 131.323C483.075 132.741 484.027 134.153 484.853 135.979C485.568 140.401 485.564 144.767 485.569 149.234C485.574 153.709 485.924 158.843 483.25 162.704C480.399 166.818 475.78 168.538 471.035 169.257L467.479 169.521L426.874 169.866L426.887 169.799C424.775 168.821 421.186 169.343 418.84 169.343L401.254 169.364L401.292 125.962Z"/>
	<path fill="#AEA195" transform="scale(0.292969 0.292969)" d="M782.008 169.917C778.032 169.328 774.091 168.708 770.856 166.089C766.326 162.423 765.197 157.666 764.789 152.14C764.282 145.264 764.45 137.266 769.41 131.912C772.344 128.745 776.817 126.987 781.009 126.321C787.351 125.315 794.157 126.363 800.569 126.387L848.845 126.276L850.868 126.745C851.563 130.654 850.97 135.486 850.961 139.5L850.989 169.835L850.016 170.074L796.013 169.998L782.008 169.917Z"/>
	<path fill="#AEA195" transform="scale(0.292969 0.292969)" d="M324.039 168.5C322.441 167.675 320.933 166.6 319.607 165.384C315.357 161.484 314.535 157.835 314.322 152.344C314.02 144.609 313.131 137.098 318.953 131.092C321.085 128.892 323.555 127.347 326.553 126.689C334.897 124.86 344.556 125.948 353.102 125.954L401.292 125.962L401.254 169.364L418.84 169.343C421.186 169.343 424.775 168.821 426.887 169.799L426.874 169.866L400.993 169.882L348.009 169.992L333.484 169.693C330.315 169.24 327.184 169.209 324.039 168.5Z"/>
	<path fill="#AEA195" transform="scale(0.292969 0.292969)" d="M557.044 169.95C551.706 169.388 546.726 169.079 543.064 164.623C539.203 159.923 539.173 149.353 539.833 143.459C540.488 137.613 541.699 132.658 546.584 128.875C548.489 127.401 550.519 126.39 552.92 126.065C555.957 125.655 559.436 125.935 562.517 125.931L581.87 125.955L609.862 125.976C615.518 125.987 621.375 125.69 626.992 126.335L627.03 169.306C630.304 169.316 634.002 169.006 637.209 169.572C629.67 170.146 621.95 169.907 614.387 169.906L577.635 169.828C571.163 169.811 563.388 168.973 557.044 169.95Z"/>
	<path fill="#AEA195" transform="scale(0.292969 0.292969)" d="M91.5373 164.282C87.5606 157.526 87.3122 150.374 88.3048 142.668L88.4276 141.75C88.9945 137.35 90.4589 133.694 93.75 130.58C96.2165 128.246 98.944 126.924 102.272 126.345C110.605 124.893 119.601 125.917 128.035 125.918L180.371 125.827C179.281 131.204 179.973 137.626 179.976 143.169C179.979 150.908 179.383 159.233 180.281 166.899L180.376 169.682L176.349 169.915C171.185 169.224 165.018 169.88 159.763 169.879L122.2 169.87L107.993 169.635C101.644 169.222 96.6999 168.207 91.5373 164.282Z"/>
	<path fill="#02335D" transform="scale(0.292969 0.292969)" d="M484.853 135.979C489.47 140.263 494.259 143.8 494.458 150.75C494.673 158.242 495.277 167.764 489.691 173.543C486.019 177.341 481.567 177.623 476.64 178.16L476.238 631.645L476.649 780.485L476.812 822.269C476.86 831.695 477.42 841.478 476.141 850.83C474.27 864.506 466.936 877.992 457.27 887.671C444.158 900.8 427.008 908.585 408.25 908.386C393.19 908.227 375.93 901.547 365.457 890.517C364.045 889.03 362.887 887.462 362.046 885.592C365.258 887.146 368.188 889.269 371.371 890.909C380.602 895.665 390.915 898.189 401.305 898.218C418.416 898.267 434.729 891.591 446.874 879.48C456.596 869.785 464.474 856.325 466.378 842.575C467.539 834.19 467.026 825.525 467.023 817.079L467.024 777.229L467.049 640.853L467.479 169.521L471.035 169.257C475.78 168.538 480.399 166.818 483.25 162.704C485.924 158.843 485.574 153.709 485.569 149.234C485.564 144.767 485.568 140.401 484.853 135.979Z"/>
	<path fill="#02335D" transform="scale(0.292969 0.292969)" d="M712.472 138.271C714.435 140.29 716.802 142.381 718.327 144.753C721.118 149.093 721.245 154.263 721.159 159.25C721.074 164.155 719.662 168.581 716.091 172.091C711.791 176.316 707.202 176.596 701.559 177.129L701.779 649.648L701.83 784.994L702.101 823.611C702.199 831.363 702.966 839.266 702.025 846.984C700.207 861.89 694.105 875.839 683.482 886.599C670.158 900.096 652.981 907.947 633.914 907.941C618.008 907.935 600.624 901.469 589.366 890.031L584.149 884.086C586.624 885.456 588.862 887.276 591.362 888.637C601.634 894.229 612.794 897.826 624.546 897.946C643.241 898.137 660.645 889.65 673.649 876.532C682.286 867.822 688.991 855.194 690.893 843.048C692.043 835.702 691.964 828.318 691.983 820.905L692.019 795.906L692.045 711.859L692.083 414.193C693.07 404.934 692.489 395.279 692.496 385.961L692.512 335.94L692.493 173.386L692.493 170.345C692.493 170.198 692.38 169.998 692.493 169.903C692.705 169.725 694.698 169.673 695.197 169.624C700.077 169.144 704.461 168.425 707.927 164.557C714.367 157.372 712.831 147.148 712.472 138.271Z"/>
	<path fill="#02335D" transform="scale(0.292969 0.292969)" d="M261.204 136.489C264.944 139.771 268.223 142.452 270.528 147L270.841 147.607C271.773 149.59 271.558 152.159 271.586 154.311C271.645 158.7 272.351 164.976 270.688 169.051C269.228 172.628 266.338 175.678 262.682 176.984C259.923 177.97 256.11 177.977 253.176 178.047L253.402 634.613L253.278 777.359L253.133 819.038C253.091 828.113 253.485 837.461 252.324 846.473C250.385 861.519 243.904 876.15 233.219 887.028C219.496 901 202.456 908.659 182.75 908.897C167.111 909.086 150.676 902.115 139.607 891.15C137.4 888.963 135.223 886.247 133.653 883.559C147.456 891.785 158.873 897.931 175.398 898.017C193.804 898.113 210.168 891.356 223.134 878.344C234.075 867.364 240.706 852.548 242.644 837.235C243.718 828.752 243.295 820.198 243.315 811.671L243.392 770.409L243.481 634.153L243.509 169.469C246.557 169.318 250.655 169.626 253.397 168.208L253.995 167.875C256.533 166.483 258.773 164.726 260.286 162.212C263.757 156.444 262.916 142.834 261.204 136.489Z"/>
	<path fill="#02335D" transform="scale(0.292969 0.292969)" d="M933.732 137.552C937.009 141.194 940.987 145.144 942.33 150.022C943.206 153.204 942.93 157.692 942.755 160.992C942.486 166.093 941.053 170.305 937.083 173.75C933.788 176.61 929.951 177.672 925.809 178.683L926.088 362.411L926.068 636.532L926.072 780.501L926.21 820.869C926.28 830.314 926.775 839.875 925.659 849.275C924.049 862.838 917.442 877.182 907.88 886.986C894.628 900.572 877.91 907.963 858.911 908.137C838.355 908.326 819.9 898.131 805.616 883.829C804.903 883.115 804.212 882.41 803.617 881.595C806.398 883.239 808.581 885.811 811.381 887.509C822.422 894.203 835.26 898.249 848.192 898.245C867.01 898.239 883.56 890.942 896.717 877.501C906.558 867.447 913.343 854.44 915.152 840.42C916.185 832.409 915.605 824.087 915.612 816.026L915.655 773.137L915.666 627.731L916.019 289.615L916.082 202.654L916.509 169.941C917.323 170.138 918.453 169.828 919.27 169.684C924.578 168.754 928.892 166.773 932.009 162.25C936.326 155.983 935.169 144.651 933.732 137.552Z"/>
	<path fill="#E7E6E6" transform="scale(0.292969 0.292969)" d="M426.874 169.866L467.479 169.521L467.049 640.853L467.024 777.229L467.023 817.079C467.026 825.525 467.539 834.19 466.378 842.575C464.474 856.325 456.596 869.785 446.874 879.48C434.729 891.591 418.416 898.267 401.305 898.218C390.915 898.189 380.602 895.665 371.371 890.909C368.188 889.269 365.258 887.146 362.046 885.592L353.867 878.143C343.693 868.048 336.864 853.803 334.973 839.634C333.938 831.875 334.452 823.678 334.471 815.851L334.551 775.9L334.534 639.99L333.454 177.713L333.484 169.693L348.009 169.992L400.993 169.882L426.874 169.866Z"/>
	<path fill="#8FD6EA" transform="scale(0.292969 0.292969)" d="M401.34 185.521L452.945 185.713L452.984 301.485L407.559 301.228L400.987 301.216L401.007 271.14L401.006 217.431L400.997 197.463C400.999 193.568 400.674 189.348 401.34 185.521Z"/>
	<path fill="#BFE6F1" transform="scale(0.292969 0.292969)" d="M400.927 185.361L401.34 185.521C400.674 189.348 400.999 193.568 400.997 197.463L401.006 217.431L401.007 271.14L400.987 301.216L407.559 301.228L348.081 301.495C347.475 296.939 347.917 291.748 347.851 287.132L347.564 250.355L347.512 210.629C347.503 202.248 347.086 193.721 348.022 185.386L400.927 185.361Z"/>
	<path fill="#F07A1E" transform="scale(0.292969 0.292969)" d="M348.496 518.017L407.145 518.068L400.937 518.582C399.231 528.523 400.246 538.72 400.296 548.75L399.997 590.555L400.113 618.96L400.426 618.991C401.688 624.043 401.016 630.093 401.037 635.305L401.081 663.796L398.636 664.139L399.89 664.75L399.956 710.507L401.287 710.767C400.732 716.389 401.065 722.328 401.05 727.988L400.948 760.385L399.978 843.932L400.024 872.323C400.034 876.249 400.49 880.644 400.042 884.51C387.132 884.375 373.672 878.393 364.545 869.328C356.059 860.899 350.889 850.444 348.963 838.667C348.322 834.747 348.524 830.611 348.529 826.65L348.534 808.804L348.519 745.279L348.496 518.017Z"/>
	<path fill="#DCD70E" transform="scale(0.292969 0.292969)" d="M400.113 618.96C396.737 620.001 393.473 620.196 390.008 619.558C386.385 618.892 383.232 617.076 381.153 614.003C378.463 610.025 377.498 606.01 378.487 601.25C379.394 596.881 381.838 593.645 385.666 591.354C390.01 588.753 395.326 589.219 399.997 590.555L400.113 618.96Z"/>
	<path fill="#DCD70E" transform="scale(0.292969 0.292969)" d="M398.636 664.139L399.89 664.75L399.956 710.507C396.27 709.783 392.954 708.957 389.704 706.962C384.33 703.662 380.384 698.385 379.002 692.202L378.851 691.5C377.692 686.321 378.567 680.76 381.052 676.091C384.876 668.906 391.183 666.258 398.636 664.139Z"/>
	<path fill="#E96819" transform="scale(0.292969 0.292969)" d="M407.145 518.068L452.919 518.08L452.966 743.658L453.01 802.747C453.068 815.946 454.279 829.836 451.947 842.882C450.189 852.716 444.685 862.188 437.704 869.226C427.652 879.36 414.162 884.212 400.042 884.51C400.49 880.644 400.034 876.249 400.024 872.323L399.978 843.932L400.948 760.385L401.05 727.988C401.065 722.328 400.732 716.389 401.287 710.767L399.956 710.507L399.89 664.75L398.636 664.139L401.081 663.796L401.037 635.305C401.016 630.093 401.688 624.043 400.426 618.991L400.113 618.96L399.997 590.555L400.296 548.75C400.246 538.72 399.231 528.523 400.937 518.582L407.145 518.068Z"/>
	<path fill="#F2AA16" transform="scale(0.292969 0.292969)" d="M429.385 639.25C430.559 639.091 431.875 638.843 433.038 639.163C435.365 639.805 437.57 641.142 438.789 643.304C439.656 644.841 440.192 647.225 439.588 648.927C438.612 651.679 436.213 653.369 433.75 654.676C432.261 655.178 430.158 655.109 428.68 654.569C426.734 653.857 425.072 652.166 424.25 650.277C423.318 648.135 423.624 645.878 424.466 643.75C425.44 641.286 427.055 640.297 429.385 639.25Z"/>
	<path fill="#F2AA16" transform="scale(0.292969 0.292969)" d="M399.997 590.555C403.921 592.45 407.323 595.004 408.902 599.25C409.264 600.224 409.425 601.233 409.608 602.25L409.739 602.936C410.382 606.591 409.224 610.213 407.013 613.141C405.359 615.333 403.431 616.847 401.213 618.424L400.426 618.991L400.113 618.96L399.997 590.555Z"/>
	<path fill="#F2AA16" transform="scale(0.292969 0.292969)" d="M398.636 664.139L401.081 663.796C409.235 665.101 416.122 666.515 421.309 673.701C424.655 678.334 425.809 684.773 424.823 690.351C423.673 696.858 420.119 702.867 414.5 706.492C410.371 709.156 406.023 709.923 401.287 710.767L399.956 710.507L399.89 664.75L398.636 664.139Z"/>
	<path fill="#DCD70E" transform="scale(0.292969 0.292969)" d="M407.559 301.228L452.984 301.485L452.919 518.08L407.145 518.068L348.496 518.017L348.081 301.495L407.559 301.228Z"/>
	<path fill="#E7E6E6" transform="scale(0.292969 0.292969)" d="M850.989 169.835L898.964 169.852C904.39 169.831 911.246 168.999 916.509 169.941L916.082 202.654L916.019 289.615L915.666 627.731L915.655 773.137L915.612 816.026C915.605 824.087 916.185 832.409 915.152 840.42C913.343 854.44 906.558 867.447 896.717 877.501C883.56 890.942 867.01 898.239 848.192 898.245C835.26 898.249 822.422 894.203 811.381 887.509C808.581 885.811 806.398 883.239 803.617 881.595L801.163 879.309C790.742 868.958 784.173 855.54 782.345 841C781.332 832.944 781.837 824.39 781.835 816.267L781.863 774.12L782.001 634.157L782.008 169.917L796.013 169.998L850.016 170.074L850.989 169.835Z"/>
	<path fill="#8FD6EA" transform="scale(0.292969 0.292969)" d="M850.838 186.013L901.387 185.744L901.377 301.732L850.437 301.513L850.838 186.013Z"/>
	<path fill="#BFE6F1" transform="scale(0.292969 0.292969)" d="M850.431 185.853L850.838 186.013L850.437 301.513L796.132 301.698L795.976 185.987L833.003 185.987C838.575 185.986 844.939 186.606 850.431 185.853Z"/>
	<path fill="#D81828" transform="scale(0.292969 0.292969)" d="M850.437 301.513L901.377 301.732L901.412 338.268L901.386 409.866L901.237 628.719L901.422 770.989L901.493 814.562C901.504 821.669 902.058 829.197 901.412 836.246C900.364 847.679 895.387 858.234 888.062 866.963C879.424 877.258 865.489 883.637 852.256 884.591C837.997 885.619 823.118 879.614 812.536 870.197C804.068 862.662 798.099 851.508 796.458 840.313C795.635 834.691 795.926 828.896 795.932 823.223L795.971 797.31L796.113 709.263L796.452 437.044L796.501 353.148C796.547 336.055 797.22 318.759 796.132 301.698L850.437 301.513Z"/>
	<path fill="#F07A1E" transform="scale(0.292969 0.292969)" d="M871.114 642.25C872.628 641.925 874.29 642.258 875.75 642.726C877.464 643.276 879.03 645.205 879.763 646.782C880.607 648.603 880.614 650.735 879.776 652.555C878.656 654.987 876.304 656.26 873.956 657.25C872.486 657.676 870.894 657.301 869.535 656.661C867.468 655.688 865.32 654.251 864.659 651.92C864.194 650.28 864.428 648.248 865.262 646.772C866.576 644.447 868.616 643.03 871.114 642.25Z"/>
	<path fill="#E96819" transform="scale(0.292969 0.292969)" d="M851.217 592.482C855.209 595.245 858.301 597.983 859.341 603.016L859.589 604.5L859.717 605.223C860.332 609.03 859.048 613.259 856.749 616.321C855.298 618.255 853.217 619.99 851.333 621.501C848.33 613.272 849.659 600.969 851.217 592.482Z"/>
	<path fill="#F07A1E" transform="scale(0.292969 0.292969)" d="M851.333 621.501C847.91 622.811 843.903 623.505 840.29 622.604C836.24 621.594 832.668 618.902 830.515 615.328C828.341 611.719 827.377 607.846 828.605 603.706C829.954 599.152 832.961 595.099 837.258 592.961C841.552 590.825 846.767 590.946 851.217 592.482C849.659 600.969 848.33 613.272 851.333 621.501Z"/>
	<path fill="#E96819" transform="scale(0.292969 0.292969)" d="M850.105 657.958C858.602 659.117 865.355 661.609 870.845 668.529C875.416 674.29 876.703 682.227 875.754 689.384C874.899 695.837 870.97 701.742 865.903 705.728C861.392 709.277 855.82 710.287 850.299 711.048C850.805 708.063 850.479 704.807 850.448 701.773L850.376 685.265L850.466 671C850.592 666.759 851.592 662.017 850.105 657.958Z"/>
	<path fill="#F07A1E" transform="scale(0.292969 0.292969)" d="M850.299 711.048C844.664 710.951 838.831 709.841 834.25 706.344C828.321 701.819 824.209 695.023 823.335 687.593C822.51 680.582 824.669 673.29 829.104 667.839C834.655 661.019 841.679 658.745 850.105 657.958C851.592 662.017 850.592 666.759 850.466 671L850.376 685.265L850.448 701.773C850.479 704.807 850.805 708.063 850.299 711.048Z"/>
	<path fill="#E7E6E6" transform="scale(0.292969 0.292969)" d="M180.376 169.682L243.509 169.469L243.481 634.153L243.392 770.409L243.315 811.671C243.295 820.198 243.718 828.752 242.644 837.235C240.706 852.548 234.075 867.364 223.134 878.344C210.168 891.356 193.804 898.113 175.398 898.017C158.873 897.931 147.456 891.785 133.653 883.559L127.517 877.799C117.479 867.781 110.797 855.149 108.798 841.037C107.59 832.511 107.967 823.797 107.971 815.209L108.001 779.084L108.016 657.262L107.877 226.516L107.993 169.635L122.2 169.87L159.763 169.879C165.018 169.88 171.185 169.224 176.349 169.915L180.376 169.682Z"/>
	<path fill="#8FD6EA" transform="scale(0.292969 0.292969)" d="M180.961 185.027L228.926 185.425L228.752 302.023C222.879 300.704 215.18 301.746 209.09 301.888C205.944 301.455 202.47 301.712 199.289 301.68L181.02 301.504L180.961 185.027Z"/>
	<path fill="#BFE6F1" transform="scale(0.292969 0.292969)" d="M180.663 184.938L180.961 185.027L181.02 301.504L121.997 301.493L122.06 184.984L180.663 184.938Z"/>
	<path fill="#00972F" transform="scale(0.292969 0.292969)" d="M209.09 301.888C215.18 301.746 222.879 300.704 228.752 302.023L228.531 674.688L228.621 784.591L228.728 817.047C228.762 824.207 229.131 831.555 228.213 838.663C226.803 849.585 221.248 860.16 213.518 867.94C204.492 877.026 194.135 882.042 181.46 883.595L181.056 301.833L208.446 301.938L209.09 301.888Z"/>
	<path fill="#00BA3F" transform="scale(0.292969 0.292969)" d="M181.02 301.504L199.289 301.68C202.47 301.712 205.944 301.455 209.09 301.888L208.446 301.938L181.056 301.833L181.46 883.595L180.731 883.608C164.696 883.854 150.413 879.978 138.725 868.483C129.726 859.631 124.576 847.404 122.982 835.005C122.159 828.601 122.499 821.966 122.498 815.513L122.517 783.531L122.526 677.465L122.516 456.329L121.997 301.493L181.02 301.504Z"/>
	<path fill="#E7E6E6" transform="scale(0.292969 0.292969)" d="M626.992 126.335L681.092 126.49L693.573 126.436C695.528 126.428 697.828 126.197 699.731 126.6C702.951 127.282 705.961 129.802 708.139 132.162C709.822 133.985 711.213 136.138 712.472 138.271C712.831 147.148 714.367 157.372 707.927 164.557C704.461 168.425 700.077 169.144 695.197 169.624C694.698 169.673 692.705 169.725 692.493 169.903C692.38 169.998 692.493 170.198 692.493 170.345L692.493 173.386L692.512 335.94L692.496 385.961C692.489 395.279 693.07 404.934 692.083 414.193L692.045 711.859L692.019 795.906L691.983 820.905C691.964 828.318 692.043 835.702 690.893 843.048C688.991 855.194 682.286 867.822 673.649 876.532C660.645 889.65 643.241 898.137 624.546 897.946C612.794 897.826 601.634 894.229 591.362 888.637C588.862 887.276 586.624 885.456 584.149 884.086L577.438 878.243C566.614 867.446 559.877 853.839 557.916 838.703C556.772 829.867 557.373 820.897 557.437 812.024L557.489 774.004L557.498 634.065L557.044 169.95C563.388 168.973 571.163 169.811 577.635 169.828L614.387 169.906C621.95 169.907 629.67 170.146 637.209 169.572C634.002 169.006 630.304 169.316 627.03 169.306L626.992 126.335Z"/>
	<path fill="#A99381" transform="scale(0.292969 0.292969)" d="M626.992 126.335L681.092 126.49L693.573 126.436C695.528 126.428 697.828 126.197 699.731 126.6C702.951 127.282 705.961 129.802 708.139 132.162C709.822 133.985 711.213 136.138 712.472 138.271C712.831 147.148 714.367 157.372 707.927 164.557C704.461 168.425 700.077 169.144 695.197 169.624C694.698 169.673 692.705 169.725 692.493 169.903C692.38 169.998 692.493 170.198 692.493 170.345L692.493 173.386L692.512 335.94L692.496 385.961C692.489 395.279 693.07 404.934 692.083 414.193L692.063 169.956L637.209 169.572C634.002 169.006 630.304 169.316 627.03 169.306L626.992 126.335Z"/>
	<path fill="#8FD6EA" transform="scale(0.292969 0.292969)" d="M627.935 185.984L677.424 185.484L677.655 517.992L628.347 518.058L628.042 517.967L627.935 185.984Z"/>
	<path fill="#0589E0" transform="scale(0.292969 0.292969)" d="M628.347 518.058L677.655 517.992L677.999 741.956L678.038 805.662C678.075 817.208 679.226 829.092 677.569 840.542C676.183 850.12 671.444 859.821 664.756 866.822C655.889 876.106 643.225 883.052 630.354 884.3L628.75 884.07C627.61 881.005 628.389 874.463 628.37 870.986L628.221 835.23L628.049 626.441L628.018 551.402L628.02 529.879C628.022 526.019 627.694 521.852 628.347 518.058Z"/>
	<path fill="#BFE6F1" transform="scale(0.292969 0.292969)" d="M570.919 517.997L570.507 185.992L627.935 185.984L628.042 517.967L570.919 517.997Z"/>
	<path fill="#06ADF6" transform="scale(0.292969 0.292969)" d="M628.042 517.967L628.347 518.058C627.694 521.852 628.022 526.019 628.02 529.879L628.018 551.402L628.049 626.441L628.221 835.23L628.37 870.986C628.389 874.463 627.61 881.005 628.75 884.07L630.354 884.3C628.864 884.743 626.446 884.489 624.865 884.499C611.768 884.583 597.722 879.103 588.508 869.75C579.405 860.51 573.673 849.796 571.612 836.984C569.964 826.741 571.04 815.678 571.045 805.305L571.042 744.677L570.919 517.997L628.042 517.967Z"/>
</svg>
