<?xml version="1.0" encoding="utf-8" ?>
<svg xmlns="http://www.w3.org/2000/svg" xmlns:xlink="http://www.w3.org/1999/xlink" width="300" height="300">
	<path fill="#FEFEFE" transform="scale(0.292969 0.292969)" d="M777.774 180.562C782.645 180.647 786.17 180.734 790.615 183.168C794.871 185.499 798.258 190.068 799.478 194.75C800.722 199.521 799.521 205.613 796.97 209.75C794.393 213.929 789.97 216.128 785.394 217.358C780.722 218.185 776.329 217.762 772.02 215.69C767.669 213.598 764.557 209.439 763.044 204.941C761.575 200.572 762.338 194.687 764.464 190.655C767.416 185.054 771.971 182.407 777.774 180.562Z"/>
	<path fill="#D89D9A" transform="scale(0.292969 0.292969)" d="M284.522 469.923L295.264 497.434C294.198 502.148 294.037 506.646 293.612 511.432L292.047 532.947C291.923 537.617 292.795 543.974 291.546 548.364C289.267 546.448 287.214 544.384 285.352 542.058C275.358 529.571 269.744 510.767 271.716 494.885C273.002 484.534 276.074 476.51 284.522 469.923Z"/>
	<path fill="#FEFEFE" transform="scale(0.292969 0.292969)" d="M778.771 47.2101C792.513 45.8374 806.516 51.1648 817.5 59.0608C827.909 66.5433 834.998 77.9623 837.688 90.4318C839.075 96.8577 839.094 104.121 837.555 110.516C834.23 124.333 825.797 136.054 813.098 142.649C808.657 144.955 803.734 146.328 799.5 149.029C793.061 153.138 792.318 162.078 790.94 168.94L765.612 166.632C763.32 157.311 764.9 146.009 768.931 137.379C771.983 132.453 775.606 128.545 780.4 125.254C785.567 121.707 791.437 119.339 796.712 115.959C801.224 113.067 804.825 109.386 805.965 103.956L806.106 103.25L806.246 102.715C807.14 99.0157 805.336 93.1166 803.373 90.0341C799.53 83.9992 793.7 81.4512 787 79.8475C784.164 79.1686 781.581 78.9512 778.673 79.0092C764.454 79.293 755.748 87.0179 746.512 96.7056L727.028 76.4043L730.866 71.3438C743.758 55.9924 758.968 49.0176 778.771 47.2101Z"/>
	<path fill="#BC1C1A" transform="scale(0.292969 0.292969)" d="M390.599 751.41C393.521 758.962 396.025 765.948 401.457 772.144L380.296 838.935L370.095 835.598C367.567 842.913 365.94 850.383 363.731 857.779C359.79 870.969 355.025 883.939 349.414 896.51C345.313 905.699 341.367 914.221 333.953 921.271C322.365 919.04 313.083 914.03 304.084 906.502C300.051 903.128 296.187 898.747 293.1 894.495L292.504 893.683L290.708 891.107L296.304 851.728C298.588 837.326 300.879 823.237 306.723 809.748C317.439 785.014 344.473 769.693 368.309 759.822L390.599 751.41Z"/>
	<path fill="#7F0606" transform="scale(0.292969 0.292969)" d="M290.708 891.107L292.504 893.683L293.1 894.495C296.187 898.747 300.051 903.128 304.084 906.502C313.083 914.03 322.365 919.04 333.953 921.271C341.367 914.221 345.313 905.699 349.414 896.51C355.025 883.939 359.79 870.969 363.731 857.779C365.94 850.383 367.567 842.913 370.095 835.598L380.296 838.935L454.25 861.634C455.394 860.656 455.512 859.032 455.835 857.628C461.582 860.385 467.367 862.353 473.448 864.244C469.561 874.427 466.775 884.945 463.685 895.381L454.029 926.309C445.126 954.906 434.796 983.747 414.274 1006.27C408.001 1013.15 400.724 1019.74 392.397 1024L323.991 1024C315.907 1018.9 308.566 1012.71 302.663 1005.17C284.805 982.339 284.131 956.617 286.547 928.936L290.708 891.107Z"/>
	<path fill="#BC1C1A" transform="scale(0.292969 0.292969)" d="M609.039 746.344C609.989 745.34 610.723 744.612 612 744.005C615.825 745.096 619.628 747.626 623.246 749.381L642.167 758.438L665.496 766.466C688.906 775.636 711.291 791.148 721.843 814.704C726.887 825.965 729.355 838.414 731.553 850.5L738.805 898.656C743.358 925.824 744.37 953.682 744.566 981.183L744.504 1024L664.482 1024L392.397 1024C400.724 1019.74 408.001 1013.15 414.274 1006.27C434.796 983.747 445.126 954.906 454.029 926.309L463.685 895.381C466.775 884.945 469.561 874.427 473.448 864.244C467.367 862.353 461.582 860.385 455.835 857.628C455.431 854.994 456.628 850.48 456.98 847.757L460.249 822.06L464.353 791.78C474.586 795.587 484.175 798.696 495.073 800.041C527.153 804 558.128 792.629 583.228 772.838C590.679 766.963 597.333 760.368 603.794 753.43C605.451 751.649 608.753 748.736 609.039 746.344Z"/>
	<path fill="#7F0606" transform="scale(0.292969 0.292969)" d="M609.039 746.344C609.989 745.34 610.723 744.612 612 744.005C615.825 745.096 619.628 747.626 623.246 749.381L642.167 758.438C635.545 765.927 629.159 773.707 622 780.696C592.639 809.36 556.021 828.611 514.695 831.354C496.187 832.582 477.21 829.43 460.249 822.06L464.353 791.78C474.586 795.587 484.175 798.696 495.073 800.041C527.153 804 558.128 792.629 583.228 772.838C590.679 766.963 597.333 760.368 603.794 753.43C605.451 751.649 608.753 748.736 609.039 746.344Z"/>
	<path fill="#7F0606" transform="scale(0.292969 0.292969)" d="M738.805 898.656C743.358 925.824 744.37 953.682 744.566 981.183L744.504 1024L664.482 1024L660.774 932.058C678.579 927.787 695.423 922.533 711.855 914.317C721.222 909.633 729.913 904.133 738.805 898.656Z"/>
	<path fill="#FEFEFE" transform="scale(0.292969 0.292969)" d="M270.485 415.79L269.973 415.929C265.09 417.218 259.588 417.545 254.548 417.934C228.408 419.955 201.747 415.774 176.701 408.327C173.51 407.379 169.838 406.778 166.81 405.477C176.558 401.246 186.707 398.733 196.13 393.671C209.367 386.56 220.912 377.625 230.75 366.23C246.364 348.147 256.572 326.184 268.838 305.858C274.544 296.404 280.878 287.649 287.632 278.927C255.303 260.165 229.725 233.768 214.966 199C212.477 193.136 209.99 187.05 208.365 180.885L205.996 171.944L206.517 172.274C214.996 177.551 224.878 181.606 234.25 184.986C262.669 195.237 292.028 199.322 321.702 192.223C341.988 187.37 358.735 176.787 377.558 168.49C393.956 161.262 411.019 156.637 428.325 152.204C417.438 122.129 412.485 91.3218 414.038 59.3091C430.005 90.5156 457.023 112.987 490.383 123.779C511.187 130.509 532.364 133.426 553.5 138.517C594.138 148.306 634.929 169.031 659.691 203.774C664.357 191.451 670.964 182.574 682.05 175.261C675.386 186.038 669.725 198.385 669.317 211.264C678.586 207.833 687.291 206.485 697.126 208.25C701.5 209.035 706.096 209.726 710.166 211.601C703.977 211.768 697.331 212.287 691.392 214.117C687.804 215.222 684.468 216.991 681.064 218.55C689.134 222.345 697.398 226.082 704.903 230.929C736.231 251.158 761.074 283.753 773.759 318.712C790.43 364.657 788.49 416.222 774.162 462.481C770.662 473.78 765.879 484.499 761.673 495.523L756.081 491.132C747.809 484.802 735.914 482.851 725.779 484.342L720.878 485.209C715.753 486.601 707.184 488.036 702.924 491.293C700.97 492.787 699.738 495.337 698.424 497.387C696.439 500.484 694.35 503.38 692.008 506.215C679.209 521.716 663.47 533.178 645.866 542.64C655.228 517.3 657.655 489.016 657.953 462.189C657.994 458.438 658.805 452.587 657.808 449.051L657.594 448.494C655.873 445.342 652.562 443.304 649.724 441.243C646.088 438.601 642.49 435.911 639.25 432.785C612.993 407.442 596.821 375.354 587.745 340.356L587.659 339.947C586.644 334.987 586.581 330.952 587.143 325.9C561.868 358.235 528.973 385.073 490.917 400.857C476.46 406.852 461.044 411.265 445.957 415.359C447.905 413.086 450.573 411.258 452.824 409.275L462.227 400.204C474.273 387.638 484.716 373.396 493.746 358.543C497.243 352.792 500.916 346.97 503.777 340.871C484.687 358.088 462.344 373.741 439.329 385.301C429.046 390.465 418.209 394.649 407.434 398.647C398.074 402.12 388.506 405.568 378.843 408.076C366.555 411.265 353.928 412.658 341.555 415.426L374.543 384.375C379.28 379.625 383.45 374.423 387.922 369.435C392.103 364.772 397.111 360.446 399.391 354.472C395.729 355.826 392.111 361.085 389.248 363.927C384.831 368.308 380.383 372.605 375.5 376.472C365.021 384.772 353.532 391.307 341.66 397.362C328.982 403.828 315.814 409.672 302.095 413.546L301.032 413.925L279.084 419.147C276.899 419.664 273.166 419.885 271.643 421.403L270.485 415.79Z"/>
	<path fill="#D7B6B2" transform="scale(0.292969 0.292969)" d="M270.485 415.79L302.017 407.57C302.066 409.529 302.264 411.599 302.095 413.546L301.032 413.925L279.084 419.147C276.899 419.664 273.166 419.885 271.643 421.403L270.485 415.79Z"/>
	<path fill="#D89D9A" transform="scale(0.292969 0.292969)" d="M302.017 407.57C330.637 398.726 357.392 386.2 381.023 367.624C392.275 358.779 401.289 350.5 408.642 338.053L409.044 338.25C406.401 344.009 402.838 349.18 399.391 354.472C395.729 355.826 392.111 361.085 389.248 363.927C384.831 368.308 380.383 372.605 375.5 376.472C365.021 384.772 353.532 391.307 341.66 397.362C328.982 403.828 315.814 409.672 302.095 413.546C302.264 411.599 302.066 409.529 302.017 407.57Z"/>
	<path fill="#F6D4BA" transform="scale(0.292969 0.292969)" d="M399.391 354.472C397.111 360.446 392.103 364.772 387.922 369.435C383.45 374.423 379.28 379.625 374.543 384.375L341.555 415.426C353.928 412.658 366.555 411.265 378.843 408.076C388.506 405.568 398.074 402.12 407.434 398.647C418.209 394.649 429.046 390.465 439.329 385.301C462.344 373.741 484.687 358.088 503.777 340.871C500.916 346.97 497.243 352.792 493.746 358.543C484.716 373.396 474.273 387.638 462.227 400.204L452.824 409.275C450.573 411.258 447.905 413.086 445.957 415.359C461.044 411.265 476.46 406.852 490.917 400.857C528.973 385.073 561.868 358.235 587.143 325.9C586.581 330.952 586.644 334.987 587.659 339.947L587.745 340.356C596.821 375.354 612.993 407.442 639.25 432.785C642.49 435.911 646.088 438.601 649.724 441.243C652.562 443.304 655.873 445.342 657.594 448.494L657.808 449.051C658.805 452.587 657.994 458.438 657.953 462.189C657.655 489.016 655.228 517.3 645.866 542.64C663.47 533.178 679.209 521.716 692.008 506.215C694.35 503.38 696.439 500.484 698.424 497.387C699.738 495.337 700.97 492.787 702.924 491.293C707.184 488.036 715.753 486.601 720.878 485.209L725.779 484.342C735.914 482.851 747.809 484.802 756.081 491.132L761.673 495.523C766.829 500.382 770.308 506.836 772.556 513.5C778.137 530.044 775.319 547.191 767.804 562.672C760.095 578.554 746.63 591.583 729.774 597.287L720.542 599.773C709.894 602.181 697.147 601.406 686.867 597.597C683.56 596.372 680.152 594.296 676.819 593.378C657.528 624.495 631.477 648.154 598.689 664.531C592.501 667.622 584.974 671.779 578.148 673.172L577.254 673.316C576.047 682.319 574.503 691.284 574.489 700.392C575.77 714.522 579.778 725.67 590.971 734.966C596.435 739.503 602.738 743.117 609.039 746.344C608.753 748.736 605.451 751.649 603.794 753.43C597.333 760.368 590.679 766.963 583.228 772.838C558.128 792.629 527.153 804 495.073 800.041C484.175 798.696 474.586 795.587 464.353 791.78L460.249 822.06L456.98 847.757C456.628 850.48 455.431 854.994 455.835 857.628C455.512 859.032 455.394 860.656 454.25 861.634L380.296 838.935L401.457 772.144C396.025 765.948 393.521 758.962 390.599 751.41C394.528 749.883 398.766 749.049 402.867 748.107C396.867 722.807 405.374 699.167 415.968 676.429C413.889 675.425 411.109 675.036 408.869 674.374L395.699 669.845C373.348 661.396 350.989 649.104 333.281 632.943C306.862 608.832 293.231 584.394 291.546 548.364C292.795 543.974 291.923 537.617 292.047 532.947L293.612 511.432C294.037 506.646 294.198 502.148 295.264 497.434L284.522 469.923L271.643 421.403C273.166 419.885 276.899 419.664 279.084 419.147L301.032 413.925L302.095 413.546C315.814 409.672 328.982 403.828 341.66 397.362C353.532 391.307 365.021 384.772 375.5 376.472C380.383 372.605 384.831 368.308 389.248 363.927C392.111 361.085 395.729 355.826 399.391 354.472Z"/>
	<path fill="#D34F4F" transform="scale(0.292969 0.292969)" d="M439.403 522.25L440.749 521.917L442.117 523.5C442.133 523.859 442.312 524.249 442.166 524.578C441.898 525.186 440.457 526.295 439.936 526.823C438.053 528.726 436.19 530.569 434.619 532.75C433.761 537.046 437.342 539.573 438.387 543.5L437.75 544.314L435.75 544.524C432.237 542.195 429.783 538.022 428.302 534.172C431.036 529.174 435.046 525.795 439.403 522.25Z"/>
	<path fill="#7F0606" transform="scale(0.292969 0.292969)" d="M402.867 748.107C403.554 751.144 405.444 756.189 405.38 759.094C405.359 760.053 404.556 761.783 404.264 762.742L401.457 772.144C396.025 765.948 393.521 758.962 390.599 751.41C394.528 749.883 398.766 749.049 402.867 748.107Z"/>
	<path fill="#BC1C1A" transform="scale(0.292969 0.292969)" d="M442.747 578.716C454.345 578.738 465.476 582.114 475.449 588.012C478 589.521 481.626 591.692 482.422 594.75L480.75 595.905C478.802 595.401 476.927 593.853 475.249 592.751C466.017 586.925 456.625 583.626 445.69 583.054C442.74 582.9 435.673 584.763 433.443 583.561C432.99 582.473 433.004 582.49 433.358 581.363C436.172 579.351 439.409 579.052 442.747 578.716Z"/>
	<path fill="#D89D9A" transform="scale(0.292969 0.292969)" d="M727.337 517.171C728.87 516.988 730.312 517.101 731.838 517.288C737.534 517.987 742.979 520.682 746.455 525.341C750.453 530.698 751.787 536.74 750.694 543.292L749.359 550.459C749.07 541.832 749.293 532.649 742.406 526.25C738.546 522.664 733.496 521.218 728.341 521.313C720.176 521.463 714.074 526.048 708.6 531.627L706.096 535.264C699.295 546.993 699.007 557.146 702.359 569.845C699.538 566.38 697.89 561.824 697.128 557.469C695.481 548.046 698.61 538.058 704.242 530.426C710.12 522.461 717.717 518.584 727.337 517.171Z"/>
	<path fill="#D89D9A" transform="scale(0.292969 0.292969)" d="M657.594 448.494L657.387 450.94L656.953 451.029C655.185 451.164 653.01 449.904 651.47 449.106C646.406 446.481 641.598 443.337 637 439.972C632.438 436.632 628.193 432.303 624.518 428.008C608.637 409.446 597.926 387.682 591.356 364.235C589.149 356.359 587.115 348.601 587.745 340.356C596.821 375.354 612.993 407.442 639.25 432.785C642.49 435.911 646.088 438.601 649.724 441.243C652.562 443.304 655.873 445.342 657.594 448.494Z"/>
	<path fill="#FEFEFE" transform="scale(0.292969 0.292969)" d="M397.226 407.25C398.005 407.13 398.169 407.224 398.88 407.5C399.101 409.828 398.931 412.202 398.484 414.5C397.341 420.364 393.226 425.125 388.291 428.308L384.125 430.9C371.233 438.24 356.811 440.746 342.4 436.762L337.608 434.473L397.226 407.25Z"/>
	<path fill="#FEFEFE" transform="scale(0.292969 0.292969)" d="M519.954 401.941C540.311 417.711 564.465 426.712 589.067 433.374C587.405 434.42 585.551 435.181 583.771 436.005L575.028 439.535C563.577 443.276 551.272 442.127 540.605 436.505C531.704 431.814 523.94 424.125 521.064 414.295L520.844 413.519C519.748 409.78 519.969 405.808 519.954 401.941Z"/>
	<path fill="#FEFEFE" transform="scale(0.292969 0.292969)" d="M271.643 421.403C273.166 419.885 276.899 419.664 279.084 419.147L301.032 413.925L297.835 461.701C297.395 472.37 297.542 483.42 296.39 494.019C296.248 495.317 295.882 496.282 295.264 497.434L284.522 469.923L271.643 421.403Z"/>
	<path fill="#07667A" transform="scale(0.292969 0.292969)" d="M367.197 458.523C369.264 458.483 371.295 458.423 373.316 458.942C381.151 460.956 387.168 466.188 391.088 473.169C395.816 481.587 396.842 492.067 394.043 501.266C391.374 510.036 385.728 515.515 377.801 519.69C374.152 520.783 370.268 521.011 366.605 519.785C360.695 517.806 355.923 512.291 353.411 506.746C348.47 495.839 348.62 483.672 352.936 472.6C355.781 465.303 360.124 461.659 367.197 458.523Z"/>
	<path fill="#FEFEFE" transform="scale(0.292969 0.292969)" d="M364.602 463.25C365.088 463.126 365.479 462.991 366.005 463.046C367.61 463.212 369.466 464.448 370.346 465.771C372.114 468.433 371.997 472.206 371.442 475.24C370.846 478.5 368.883 480.643 366.25 482.461C365.204 482.825 364.066 482.925 363 482.541C361.644 482.053 360.974 481.17 360.352 479.933C358.598 476.451 358.47 472.052 359.687 468.371C360.544 465.781 362.231 464.418 364.602 463.25Z"/>
	<path fill="#07667A" transform="scale(0.292969 0.292969)" d="M539.184 464.07C541.192 463.998 543.245 463.881 545.239 464.19C550.568 465.018 555.148 469.328 558.186 473.547C564.279 482.011 566.237 492.686 564.673 502.884L564.535 503.75C564.074 506.809 563.313 509.542 562.186 512.416C558.867 520.886 553.953 525.261 545.753 528.845C543.646 529.095 540.973 529.139 538.895 528.719C533.13 527.553 528.728 523.497 525.75 518.621C520.365 509.806 518.15 496.996 520.712 486.956L520.961 486C521.622 483.379 522.452 480.942 523.55 478.471C526.766 471.234 531.831 466.923 539.184 464.07Z"/>
	<path fill="#FEFEFE" transform="scale(0.292969 0.292969)" d="M531.402 474.25C532.534 473.998 533.27 474.085 534.422 474.16C536.304 475.258 537.631 476.514 538.597 478.501C539.575 480.513 539.731 482.545 538.995 484.664C538.189 486.983 536.866 488.177 534.75 489.291C534.046 489.393 533.222 489.564 532.5 489.506C530.578 489.351 529.289 488.394 528.146 486.877C526.585 484.804 526.014 481.832 526.679 479.317C527.306 476.945 529.416 475.435 531.402 474.25Z"/>
	<path fill="#D89D9A" transform="scale(0.292969 0.292969)" d="M574.489 700.392L573.819 698.599C572.475 698.374 571.304 699.242 570.075 699.801L560.766 703.807C556.522 705.456 552.134 706.938 547.745 708.153C532.522 712.367 517.302 713.867 501.593 714.696L475.355 685.426C483.998 686.494 492.822 686.359 501.514 686.179C527.895 685.632 552.211 681.711 577.254 673.316C576.047 682.319 574.503 691.284 574.489 700.392Z"/>
</svg>
