<svg width="300" height="300" xmlns="http://www.w3.org/2000/svg">

 <g>
  <title>background</title>
  <rect fill="none" id="canvas_background" height="402" width="582" y="-1" x="-1"/>
 </g>
 <g>
  <title>Layer 1</title>
  <path id="svg_1" d="m503.751,47.7165l0.999,-0.0678c13.552,-0.7104 27.475,0.3504 41,1.3086c101.709,7.2062 202.609,49.7726 277.456,119.3167c32.79,30.466 62.179,64.625 85.617,102.859c6.879,11.222 12.686,23.143 18.482,34.951c16.112,32.825 28.853,67.128 37.019,102.816c6.881,30.068 10.374,61.228 11.518,92.029c1.07,28.817 -1.623,58.112 -6.416,86.514c-15.119,89.586 -54.767,173.303 -116.825,240.009c-46.809,50.314 -102.964,88.874 -166.504,114.966c-24.684,10.136 -50.509,18.594 -76.652,24.091c-29.554,6.214 -58.995,8.7 -89.113,9.767c-118.749,3.348 -236.842,-42.662 -323.596,-123.455c-60.247,-56.106 -105.384,-127.234 -129.1822,-206.142c-11.575,-38.378 -18.0362,-79.284 -19.4623,-119.328c-4.3032,-120.829 41.2224,-241.715 123.6275,-330.062c20.842,-22.344 43.562,-43.178 68.274,-61.194c62.149,-45.3092 137.227,-75.203 213.529,-84.9029c16.681,-2.1206 33.438,-2.8992 50.229,-3.4756zm-4.022,25.9991c-21.587,0.9668 -42.947,2.721 -64.246,6.5028c-93.625,16.6239 -181.576,64.0546 -245.816,134.2846c-61.557,67.295 -99.9862,151.325 -112.0734,241.62c-3.0314,22.646 -4.9541,45.747 -3.9367,68.599c4.1584,93.407 33.8811,182.738 91.7141,256.881c15.519,19.895 32.855,37.876 51.493,54.833c65.853,59.917 147.333,97.166 235.304,109.64c23.13,3.28 46.75,5.47 70.136,4.264l3.106,-0.223c19.813,-0.955 39.612,-2.6 59.181,-5.914c96.455,-16.335 186.384,-65.128 252.148,-137.666c56.793,-62.643 93.81,-139.94 107.895,-223.287c4.851,-28.707 7.148,-58.092 5.753,-87.206c-5.512,-115.038 -54.811,-228.024 -140.705,-305.696c-41.608,-37.626 -89.29,-68.538 -141.887,-88.447c-33.268,-12.5924 -68.097,-20.7654 -103.372,-25.0203c-21.397,-2.5809 -43.136,-4.1634 -64.694,-3.1651z" transform="scale(0.2929689884185791) " fill="#0F9BB3"/>
  <path id="svg_11" d="m268.765816,463.843369c12.359,16.498 17.458,36.761 14.467,57.166c-2.955,20.15 -14.071,37.738 -30.483,49.743l-8.31,5.244c-3.558,2.728 -8.119,4.495 -12.152,6.437c-1.286,0.619 -2.9,1.003 -3.521,2.304c-4.971,1.408 -10.073,2.114 -15.228,2.37c-9.112,0.41 -23.541,-1.796 -31.198,-7.156c-5.96,-2.756 -11.308,-5.681 -16.806,-9.293l0.142,-0.18c5.293,-4.502 9.969,-9.829 14.89,-14.78l31.49,-32.042l34.211,-34.572c7.722,-7.904 16.208,-16.158 22.498,-25.241z" transform="translate(-22.891565322875977,-66.26506042480469) scale(0.2929689884185791) " fill="#E74E44"/>
  <path id="svg_20" d="m206.433,437.341c7.32,0.162 13.769,0.991 20.848,2.745c16.296,4.818 29.392,13.268 40.114,26.499c-6.29,9.083 -14.776,17.337 -22.498,25.241l-34.211,34.572l-31.49,32.042c-4.921,4.951 -9.597,10.278 -14.89,14.78l-0.142,0.18l-5.224,-3.86c-15.099,-12.35 -24.713,-31.094 -26.443,-50.472c-1.765,-19.765 3.839,-39.265 16.75,-54.439c15.15,-17.807 34.272,-25.487 57.186,-27.288z" transform="translate(-22.08835220336914,-66.66666412353516) scale(0.2929689884185791) " fill="#F56853"/>
  <path id="svg_21" d="m503.625,328.208l0.498,-0.069c12.064,-0.97 24.76,0.189 36.627,2.316c31.452,5.636 62.044,18.961 86.615,39.535c38.552,32.281 62.725,78.763 66.934,128.873c4.127,49.135 -14.208,97.897 -46.076,134.941c-22.616,26.29 -55.448,46.941 -89.123,55.286c-12.727,3.155 -25.572,4.431 -38.605,5.392c-10.268,0.051 -20.491,0.141 -30.717,-0.993c-35.565,-3.944 -69.924,-19.745 -97.079,-42.821c-37.646,-31.992 -59.8,-79.032 -63.705,-128.007c-0.918,-11.503 -0.101,-22.532 1.568,-33.933c5.393,-36.826 21.421,-70.51 45.609,-98.628c19.883,-23.114 47.727,-42.178 76.562,-52.059c16.531,-5.665 33.514,-8.555 50.892,-9.833z" transform="scale(0.2929689884185791) " fill="#47C5C1"/>
  <path id="svg_22" d="m462.789,417.742l2.461,-0.025c0.247,0.261 0.612,0.448 0.742,0.783c0.282,0.727 0.012,2.666 0.015,3.562l0.024,11.863l0.057,63.577l92.911,0.01l-0.075,-79.842l29.603,0.349l-0.097,188.073l-27.718,0.158l-1.246,-0.109c-1.482,-2.819 -0.473,-70.458 -0.462,-79.887l-93.002,0.242l0.406,79.784l-20.749,-0.008c-2.393,0.011 -6.492,0.558 -8.673,-0.242l-0.024,-188.021l25.827,-0.267z" transform="scale(0.2929689884185791) " fill="#ffffff"/>
 </g>
</svg>