<?xml version="1.0" encoding="utf-8" ?>
<svg xmlns="http://www.w3.org/2000/svg" xmlns:xlink="http://www.w3.org/1999/xlink" width="300" height="300">
	<path fill="#E8A44F" transform="scale(0.292969 0.292969)" d="M554.136 706.491L570.761 706.795L571.061 707.115C574.563 715.515 578.24 723.795 581.198 732.413C592.029 763.971 597.119 798.125 591.12 831.216C588.285 846.852 583.151 862.041 580.503 877.694C578.783 867.767 576.497 858.227 572.447 848.97C570.94 845.524 569.246 841.761 566.75 838.901L565.958 839.952C565.743 838.924 565.952 838.518 566.256 837.537C566.643 837.051 567.001 836.272 567.198 835.668C569.156 829.656 569 822.071 569.351 815.778C569.9 805.956 570.395 796.105 569.871 786.264C568.74 765.019 564.641 743.719 559.299 723.162C557.877 717.689 556.797 711.488 554.136 706.491Z"/>
	<defs>
		<linearGradient id="gradient_0" gradientUnits="userSpaceOnUse" x1="578.19409" y1="705.44989" x2="438.15872" y2="660.34973">
			<stop offset="0" stop-color="#AB1B1C"/>
			<stop offset="1" stop-color="#DB3130"/>
		</linearGradient>
	</defs>
	<path fill="url(#gradient_0)" transform="scale(0.292969 0.292969)" d="M435.108 664.556L500.451 664.639C504.408 665.131 508.382 665.024 512.361 664.995C515.74 665.043 519.135 665.211 522.485 664.695L589.303 664.472L579.24 706.795C576.649 707.417 573.731 706.749 571.061 707.115L570.761 706.795L554.136 706.491L533.383 706.295C527.746 705.626 521.42 706.157 515.714 706.157L482.434 706.432L472.493 706.451L457.875 706.424C456.452 706.426 454.632 706.227 453.445 707.066L444.78 706.939L435.108 664.556Z"/>
	<defs>
		<linearGradient id="gradient_1" gradientUnits="userSpaceOnUse" x1="529.07623" y1="138.34779" x2="444.79114" y2="114.67967">
			<stop offset="0" stop-color="#EC5128"/>
			<stop offset="1" stop-color="#F6843D"/>
		</linearGradient>
	</defs>
	<path fill="url(#gradient_1)" transform="scale(0.292969 0.292969)" d="M421.872 192.648C423.763 188.795 425.064 184.464 426.696 180.482L435.174 161.625C450.372 129.775 468.391 99.9554 490.22 72.2204C496.194 64.6304 502.561 56.5486 509.522 49.8512C510.521 48.8899 510.673 48.4608 512.111 48.4848L511.991 167.503L511.949 189.397C511.831 194.346 510.87 200.508 511.75 205.351L515.664 205.602L511.881 205.991C493.105 205.459 474.04 204.69 455.5 201.475C443.978 199.477 432.967 196.267 421.872 192.648Z"/>
	<path fill="#D73829" transform="scale(0.292969 0.292969)" d="M512.111 48.4848C515.081 50.6154 517.496 53.46 519.982 56.1188L533.921 72.5C562.34 108.903 585.908 149.079 602.929 192.076C578.691 200.666 554.126 204.219 528.496 205.173C524.589 205.318 519.46 206.119 515.664 205.602L511.75 205.351C510.87 200.508 511.831 194.346 511.949 189.397L511.991 167.503L512.111 48.4848Z"/>
	<path fill="#FEFEFE" transform="scale(0.292969 0.292969)" d="M421.872 192.648C432.967 196.267 443.978 199.477 455.5 201.475C474.04 204.69 493.105 205.459 511.881 205.991L511.947 245.302C511.942 249.936 512.912 256.682 511.58 261.013C495.914 262.139 482.277 268.148 471.889 280.164C465.335 287.743 461.046 298.213 459.986 308.148L392.649 308.11L402.121 260.64C407.317 237.541 413.936 214.949 421.872 192.648Z"/>
	<path fill="#DAE9EB" transform="scale(0.292969 0.292969)" d="M602.929 192.076C609.172 210.05 615.151 228.11 619.864 246.556C625.044 266.834 628.626 287.549 632.05 308.182L564.881 308.166C563.164 296.197 557.798 285.309 549.129 276.87C538.975 266.984 526.756 261.234 512.487 261.401L511.58 261.013C512.912 256.682 511.942 249.936 511.947 245.302L511.881 205.991L515.664 205.602C519.46 206.119 524.589 205.318 528.496 205.173C554.126 204.219 578.691 200.666 602.929 192.076Z"/>
	<defs>
		<linearGradient id="gradient_2" gradientUnits="userSpaceOnUse" x1="561.09155" y1="821.34686" x2="438.32706" y2="851.05103">
			<stop offset="0" stop-color="#ECA84C"/>
			<stop offset="1" stop-color="#F4C25D"/>
		</linearGradient>
	</defs>
	<path fill="url(#gradient_2)" transform="scale(0.292969 0.292969)" d="M453.445 707.066C454.632 706.227 456.452 706.426 457.875 706.424L472.493 706.451L464.757 728.029C460.146 742.618 457.858 756.926 455.847 772C455.633 773.604 455.184 775.118 455.066 776.75C454.826 780.065 455.08 783.428 454.941 786.75C454.831 789.388 454.219 791.964 454.055 794.592C453.804 798.613 454.005 802.752 454.467 806.75C455.01 811.448 454.84 816.064 455.177 820.75C455.318 822.701 455.865 824.596 456.023 826.543C456.229 829.068 455.614 831.327 456.83 833.68L457.5 834.022C459.443 831.52 460.776 828.703 462.402 826.012L472.076 809.734L480.089 838C485.356 854.188 493.116 869.851 501.494 884.634C504.646 890.196 507.347 895.829 511.527 900.729C516.034 895.952 519.062 889.218 522.124 883.445C533.202 862.563 543.474 840.574 547.302 817.035L547.748 817.575C553.349 824.284 561.672 830.21 566.256 837.537C565.952 838.518 565.743 838.924 565.958 839.952C566.181 843.327 564.972 847.008 564.233 850.304C558.633 875.27 547.874 898.726 537.193 921.846L512.126 976.291C504.567 963.456 498.564 949.559 492.236 936.09C481.924 914.14 471.345 892.285 463.924 869.133C460.678 859.005 458.834 848.437 456.002 838.189C450.124 848.469 446.281 861.547 443.553 873.03C439.378 857.794 435.051 842.522 432.506 826.904C428.07 799.684 430.189 772.938 438.004 746.5C442.004 732.968 447.541 719.86 453.445 707.066Z"/>
	<path fill="#FED442" transform="scale(0.292969 0.292969)" d="M482.434 706.432L515.714 706.157C521.42 706.157 527.746 705.626 533.383 706.295L554.136 706.491C556.797 711.488 557.877 717.689 559.299 723.162C564.641 743.719 568.74 765.019 569.871 786.264C570.395 796.105 569.9 805.956 569.351 815.778C569 822.071 569.156 829.656 567.198 835.668C567.001 836.272 566.643 837.051 566.256 837.537C561.672 830.21 553.349 824.284 547.748 817.575L547.302 817.035C543.474 840.574 533.202 862.563 522.124 883.445C519.062 889.218 516.034 895.952 511.527 900.729C507.347 895.829 504.646 890.196 501.494 884.634C493.116 869.851 485.356 854.188 480.089 838L472.076 809.734L462.402 826.012C460.776 828.703 459.443 831.52 457.5 834.022L456.83 833.68C455.614 831.327 456.229 829.068 456.023 826.543C455.865 824.596 455.318 822.701 455.177 820.75C454.84 816.064 455.01 811.448 454.467 806.75C454.005 802.752 453.804 798.613 454.055 794.592C454.219 791.964 454.831 789.388 454.941 786.75C455.08 783.428 454.826 780.065 455.066 776.75C455.184 775.118 455.633 773.604 455.847 772C457.858 756.926 460.146 742.618 464.757 728.029L472.493 706.451L482.434 706.432Z"/>
	<defs>
		<linearGradient id="gradient_3" gradientUnits="userSpaceOnUse" x1="537.3476" y1="759.09448" x2="487.02249" y2="763.74036">
			<stop offset="0" stop-color="#F0A301"/>
			<stop offset="1" stop-color="#FDDA06"/>
		</linearGradient>
	</defs>
	<path fill="url(#gradient_3)" transform="scale(0.292969 0.292969)" d="M482.434 706.432L515.714 706.157C521.42 706.157 527.746 705.626 533.383 706.295L534.788 721.704C536.128 746.347 534.841 771.18 525.726 794.395C522.08 803.681 517.119 812.338 511.97 820.858C500.235 799.142 490.557 774.81 486.03 750.5C483.319 735.94 482.796 721.195 482.434 706.432Z"/>
	<defs>
		<linearGradient id="gradient_4" gradientUnits="userSpaceOnUse" x1="427.86127" y1="633.60748" x2="289.1243" y2="629.20807">
			<stop offset="0" stop-color="#E33021"/>
			<stop offset="1" stop-color="#F69244"/>
		</linearGradient>
	</defs>
	<path fill="url(#gradient_4)" transform="scale(0.292969 0.292969)" d="M429.255 646.295C375.249 666.284 329.188 705.181 298.728 753.864C293.2 762.699 288.589 771.947 284.028 781.303C284.721 767.097 284.034 752.848 285.29 738.674L288.937 710.5C291.656 690.697 294.912 671.376 299.945 652C316.087 589.855 346.302 529.18 391.586 483.089C394.919 515.515 402.249 547.248 410.228 578.8L429.255 646.295Z"/>
	<path fill="#D73829" transform="scale(0.292969 0.292969)" d="M594.493 646.839C596.946 640.937 598.004 633.253 599.363 626.977L605.611 599.465L632.254 482.537C639.785 488.815 646.459 496.195 652.912 503.551C669.146 522.057 682.064 542.544 693.274 564.391C719.388 615.281 734.006 671.678 739.229 728.512L741.574 773.5C741.707 778.432 742.336 783.759 741.899 788.657C737.917 780.525 735.051 772.227 730.367 764.33C705.658 722.677 668.303 687.282 626.5 663.049C616.303 657.137 605.417 651.296 594.493 646.839Z"/>
	<path fill="#FEFEFE" transform="scale(0.292969 0.292969)" d="M392.649 308.11L459.986 308.148C459.881 311.096 460.146 314.699 459.505 317.541C461.415 334.561 468.331 348.805 481.834 359.598C490.926 366.864 500.921 367.738 511.878 369.457L511.892 411.018L511.904 496.705L511.902 523.973C511.902 526.782 511.26 531.473 512.427 533.963L512.868 534.205C512.186 537.294 512.689 540.728 512.792 543.886L512.95 558.559C512.992 570.351 513.885 662.001 512.361 664.995C508.382 665.024 504.408 665.131 500.451 664.639L435.108 664.556L429.255 646.295L410.228 578.8C402.249 547.248 394.919 515.515 391.586 483.089L387.126 422.671C385.819 387.299 388.092 352.404 391.661 317.238L392.649 308.11Z"/>
	<path fill="#B3BDBE" transform="scale(0.292969 0.292969)" d="M392.649 308.11L459.986 308.148C459.881 311.096 460.146 314.699 459.505 317.541L391.661 317.238L392.649 308.11Z"/>
	<path fill="#FA8947" transform="scale(0.292969 0.292969)" d="M512.427 533.963L512.868 534.205C512.186 537.294 512.689 540.728 512.792 543.886L512.95 558.559C512.992 570.351 513.885 662.001 512.361 664.995C508.382 665.024 504.408 665.131 500.451 664.639L500.499 581.765C500.479 569.502 499.036 556.189 500.672 544.071C500.966 541.891 501.759 540.054 503.131 538.335C505.439 535.445 508.914 534.421 512.427 533.963Z"/>
	<path fill="#DAE9EB" transform="scale(0.292969 0.292969)" d="M511.58 261.013L512.487 261.401C526.756 261.234 538.975 266.984 549.129 276.87C557.798 285.309 563.164 296.197 564.881 308.166L632.05 308.182L633.204 317.49C636.595 350.847 638.752 384.273 637.345 417.822L632.254 482.537L605.611 599.465L599.363 626.977C598.004 633.253 596.946 640.937 594.493 646.839L589.303 664.472L522.485 664.695C519.135 665.211 515.74 665.043 512.361 664.995C513.885 662.001 512.992 570.351 512.95 558.559L512.792 543.886C512.689 540.728 512.186 537.294 512.868 534.205L512.427 533.963C511.26 531.473 511.902 526.782 511.902 523.973L511.904 496.705L511.892 411.018L511.878 369.457C500.921 367.738 490.926 366.864 481.834 359.598C468.331 348.805 461.415 334.561 459.505 317.541C460.146 314.699 459.881 311.096 459.986 308.148C461.046 298.213 465.335 287.743 471.889 280.164C482.277 268.148 495.914 262.139 511.58 261.013Z"/>
	<path fill="#B3BDBE" transform="scale(0.292969 0.292969)" d="M564.881 308.166L632.05 308.182L633.204 317.49L565.44 317.771L564.881 308.166Z"/>
	<path fill="#E06F40" transform="scale(0.292969 0.292969)" d="M512.868 534.205C516.208 534.961 519.183 536.559 521.021 539.555C521.884 540.962 522.359 542.361 522.49 544C523.567 557.495 522.574 571.356 522.53 584.893L522.485 664.695C519.135 665.211 515.74 665.043 512.361 664.995C513.885 662.001 512.992 570.351 512.95 558.559L512.792 543.886C512.689 540.728 512.186 537.294 512.868 534.205Z"/>
	<path fill="#0FC8EB" transform="scale(0.292969 0.292969)" d="M511.58 261.013L512.487 261.401C526.756 261.234 538.975 266.984 549.129 276.87C557.798 285.309 563.164 296.197 564.881 308.166L565.44 317.771C563.214 334.697 557.958 347.892 543.944 358.543C535.43 365.015 523.609 368.997 512.919 369.164L511.878 369.457C500.921 367.738 490.926 366.864 481.834 359.598C468.331 348.805 461.415 334.561 459.505 317.541C460.146 314.699 459.881 311.096 459.986 308.148C461.046 298.213 465.335 287.743 471.889 280.164C482.277 268.148 495.914 262.139 511.58 261.013Z"/>
	<path fill="#AF1C1C" transform="scale(0.292969 0.292969)" d="M512.487 261.401C526.756 261.234 538.975 266.984 549.129 276.87C557.798 285.309 563.164 296.197 564.881 308.166L565.44 317.771C563.214 334.697 557.958 347.892 543.944 358.543C535.43 365.015 523.609 368.997 512.919 369.164C513.02 365.051 512.931 360.527 512.077 356.499C520.598 356.687 530.563 353.768 537.124 348.139C545.905 340.606 552.126 329.723 552.877 318.063C553.591 306.984 549.133 295.526 541.829 287.281C533.731 278.14 523.873 274.785 511.965 274.019L512.487 261.401Z"/>
	<path fill="#38DEFB" transform="scale(0.292969 0.292969)" d="M511.58 261.013L512.487 261.401L511.965 274.019L512.077 356.499C512.931 360.527 513.02 365.051 512.919 369.164L511.878 369.457C500.921 367.738 490.926 366.864 481.834 359.598C468.331 348.805 461.415 334.561 459.505 317.541C460.146 314.699 459.881 311.096 459.986 308.148C461.046 298.213 465.335 287.743 471.889 280.164C482.277 268.148 495.914 262.139 511.58 261.013Z"/>
	<path fill="#D73829" transform="scale(0.292969 0.292969)" d="M511.58 261.013L512.487 261.401L511.965 274.019C500.189 274.764 490.131 279.053 482.209 288.017C477.792 293.015 475.159 298.602 473.461 305L473.207 305.926C470.563 315.773 473.108 327.348 478.174 336.011C483.752 345.55 492.301 352.532 503.052 355.358C505.949 356.119 509.085 356.5 512.077 356.499C512.931 360.527 513.02 365.051 512.919 369.164L511.878 369.457C500.921 367.738 490.926 366.864 481.834 359.598C468.331 348.805 461.415 334.561 459.505 317.541C460.146 314.699 459.881 311.096 459.986 308.148C461.046 298.213 465.335 287.743 471.889 280.164C482.277 268.148 495.914 262.139 511.58 261.013Z"/>
</svg>
