<?xml version="1.0" encoding="utf-8" ?>
<svg xmlns="http://www.w3.org/2000/svg" xmlns:xlink="http://www.w3.org/1999/xlink" width="371" height="371">
	<path fill="#7EE6E9" transform="scale(0.362305 0.362305)" d="M151.789 503.595L149.146 504.691C144.946 506.129 139.482 505.963 135.5 503.952C131.408 501.886 128.146 498.016 126.803 493.635C125.366 488.946 127.016 484.801 129.247 480.738C131.163 488.847 131.701 494.655 139.554 499.561C143.346 501.93 147.667 502.221 151.789 503.595Z"/>
	<path fill="#7EE6E9" transform="scale(0.362305 0.362305)" d="M358.987 275.843C357.581 277.352 356.145 278.722 354.424 279.875C350.724 282.354 345.262 283.282 340.891 282.335C335.991 281.272 331.717 277.85 329.25 273.551C326.982 269.599 326.402 264.581 327.742 260.236C329.126 255.751 332.027 252.338 336.134 250.152C333.447 255.166 331.711 261.261 333.455 266.882C334.495 270.233 336.46 273.289 339.661 274.958C345.753 278.133 352.502 276.636 358.987 275.843Z"/>
	<path fill="#7EE6E9" transform="scale(0.362305 0.362305)" d="M859.689 334.348L860.081 335.236C861.088 337.64 860.949 340.459 861.299 343.012C862.393 351.01 868.073 357.127 875.25 360.36C880.685 362.808 886.768 363.318 892.5 361.603L893.032 361.45C896.276 360.472 899.047 358.293 902.431 357.641L902.238 358.048C899.379 363.436 893.657 367.919 887.762 369.491L887.041 369.674C880.702 371.326 874.286 370.618 868.5 367.523C862.594 364.364 858.46 359.529 856.624 353.052C854.844 346.77 856.657 339.925 859.689 334.348Z"/>
	<path fill="#CBF3F4" transform="scale(0.362305 0.362305)" d="M779.078 356.799C783.8 356.844 788.168 357.355 791.688 360.921C794.214 363.481 795.706 367.189 795.601 370.775L795.578 371.266L794.492 375.5C793.125 379.256 790.185 382.152 786.515 383.671C782.886 385.173 777.991 384.987 774.442 383.304C770.897 381.623 768.356 378.065 767.209 374.396C766.172 371.079 766.724 367.582 768.37 364.538C770.704 360.221 774.507 358.036 779.078 356.799Z"/>
	<path fill="#FCFCFB" transform="scale(0.362305 0.362305)" d="M779.078 356.799C783.8 356.844 788.168 357.355 791.688 360.921C794.214 363.481 795.706 367.189 795.601 370.775L795.578 371.266L788.752 375.779C787.301 376.58 785.786 376.903 784.176 376.393C781.231 375.461 777.776 372.424 776.47 369.68C774.388 365.307 777.8 360.854 779.078 356.799Z"/>
	<path fill="#CBF3F4" transform="scale(0.362305 0.362305)" d="M616.761 199.101C620.514 198.737 623.592 199.146 626.996 200.808C630.466 202.502 633.17 205.465 634.352 209.17C635.458 212.639 635.165 216.295 633.422 219.5C631.057 223.845 627.153 225.667 622.624 226.969C619.613 227.443 616.474 227.168 613.609 226.1C610.2 224.828 607.432 222.089 605.996 218.75C604.408 215.056 604.682 210.843 606.384 207.237C608.566 202.615 612.199 200.644 616.761 199.101Z"/>
	<path fill="#CBF3F4" transform="scale(0.362305 0.362305)" d="M129.247 480.738C131.101 478.138 133.048 476.185 135.985 474.837C140.985 472.543 145.723 473.142 150.722 475.025C153.285 476.717 155.045 478.258 156.919 480.746C159.35 485.47 160.335 489.172 158.741 494.442C157.54 498.411 155.188 501.277 151.789 503.595C147.667 502.221 143.346 501.93 139.554 499.561C131.701 494.655 131.163 488.847 129.247 480.738Z"/>
	<path fill="#FCFCFB" transform="scale(0.362305 0.362305)" d="M156.919 480.746C155.626 483.935 154.061 487.096 151.141 489.08C150.217 489.708 147.592 489.613 146.524 489.322C144.892 488.876 143.168 487.471 142.428 485.938C141.747 484.529 141.877 482.464 142.466 481.048C143.351 478.92 144.919 477.719 146.971 476.848L150.722 475.025C153.285 476.717 155.045 478.258 156.919 480.746Z"/>
	<path fill="#CBF3F4" transform="scale(0.362305 0.362305)" d="M336.134 250.152C339.941 247.932 344.088 248.001 348.32 248.39C351.909 249.333 354.99 250.786 357.615 253.497C360.958 258.157 363.261 262.671 362.196 268.622C361.73 271.226 360.364 273.614 358.987 275.843C352.502 276.636 345.753 278.133 339.661 274.958C336.46 273.289 334.495 270.233 333.455 266.882C331.711 261.261 333.447 255.166 336.134 250.152Z"/>
	<path fill="#FCFCFB" transform="scale(0.362305 0.362305)" d="M348.32 248.39C351.909 249.333 354.99 250.786 357.615 253.497C357.388 254.693 357.172 255.925 356.72 257.061C355.949 259.002 354.887 260.09 353 260.921C350.931 260.517 348.532 259.828 346.865 258.49C345.714 257.566 344.997 256.239 344.918 254.76C344.777 252.111 346.699 250.245 348.32 248.39Z"/>
	<path fill="#7EE6E9" transform="scale(0.362305 0.362305)" d="M880.969 171.255C879.669 177.482 876.471 183.005 871.677 187.202C866.631 191.62 859.273 193.85 852.611 193.326C844.939 192.724 838.157 189.246 833.182 183.302C828.06 177.182 826.619 169.989 827.473 162.226C828.32 154.534 832.887 148.615 838.71 143.953C838.119 147.24 836.774 150.082 836.019 153.25C835.001 157.518 835.689 162.734 837.276 166.75L837.512 167.374C838.884 170.939 840.983 174.122 844 176.485L844.595 176.957C849.579 180.796 857.246 182.03 863.395 181.288L866.5 180.658L867.122 180.509C872.788 179.108 876.508 174.7 880.969 171.255Z"/>
	<path fill="#7EE6E9" transform="scale(0.362305 0.362305)" d="M543.522 180.842L543.268 181.72C540.62 190.042 534.413 196.805 526.5 200.397C518.26 204.138 509.118 204.072 500.75 200.794C493.171 197.826 486.411 191.538 483.202 184.021C479.454 175.24 480.147 166.116 483.797 157.424C486.82 150.225 493.354 144.609 500.465 141.675L500.059 142.549C498.875 144.955 496.679 146.821 495.175 149.036C490.47 155.962 489.329 166.159 491.864 174.134C494 180.852 498.591 186.732 504.981 189.858C513.257 193.907 521.745 193.993 530.25 190.804L532.698 189.705L533.357 189.386C535.754 188.193 538.453 186.389 540.262 184.387C541.412 183.115 541.963 181.706 543.522 180.842Z"/>
	<path fill="#CBF3F4" transform="scale(0.362305 0.362305)" d="M859.689 334.348C862.953 328.897 867.802 324.784 874 323.059L877.5 322.431L878.266 322.302C884.229 321.373 890.584 323.42 895.377 326.969C900.729 330.931 904.395 336.655 905.271 343.328C905.899 348.113 904.979 353.486 902.431 357.641C899.047 358.293 896.276 360.472 893.032 361.45L892.5 361.603C886.768 363.318 880.685 362.808 875.25 360.36C868.073 357.127 862.393 351.01 861.299 343.012C860.949 340.459 861.088 337.64 860.081 335.236L859.689 334.348Z"/>
	<path fill="#FCFCFB" transform="scale(0.362305 0.362305)" d="M885.214 330.75C886.131 330.592 887.136 330.361 888.065 330.593C890.794 331.275 894.441 333.869 895.603 336.482C896.417 338.313 895.985 340.495 895.339 342.308C894.36 345.058 892.338 346.606 889.756 347.75C888.657 347.999 887.368 348.062 886.25 347.897C883.798 347.536 881.399 345.398 880.147 343.372C878.986 341.491 878.38 338.853 879.082 336.688C880.152 333.387 882.228 332.206 885.214 330.75Z"/>
	<defs>
		<linearGradient id="gradient_0" gradientUnits="userSpaceOnUse" x1="870.39136" y1="144.32213" x2="844.59241" y2="175.66451">
			<stop offset="0" stop-color="#B9FBF1"/>
			<stop offset="1" stop-color="#C9F2F8"/>
		</linearGradient>
	</defs>
	<path fill="url(#gradient_0)" transform="scale(0.362305 0.362305)" d="M838.71 143.953C844.996 139.562 852.227 137.107 859.947 138.678C867.406 140.196 873.405 144.442 877.491 150.79C878.371 152.156 878.993 153.494 879.593 155L879.836 155.574C881.75 160.211 882.319 166.42 880.969 171.255C876.508 174.7 872.788 179.108 867.122 180.509L866.5 180.658L863.395 181.288C857.246 182.03 849.579 180.796 844.595 176.957L844 176.485C840.983 174.122 838.884 170.939 837.512 167.374L837.276 166.75C835.689 162.734 835.001 157.518 836.019 153.25C836.774 150.082 838.119 147.24 838.71 143.953Z"/>
	<path fill="#FCFCFB" transform="scale(0.362305 0.362305)" d="M860.232 144.055C861.546 143.986 862.949 143.877 864.236 144.205C867.465 145.026 871.066 147.936 872.695 150.856C874.041 153.27 874.307 156.645 873.22 159.203C871.786 162.581 868.927 163.743 865.734 164.936C863.648 164.641 861.736 164.562 859.709 163.872C856.461 162.767 854.102 161.092 852.663 157.878C851.745 155.831 851.538 152.089 852.456 149.993C853.92 146.649 857.091 145.328 860.232 144.055Z"/>
	<path fill="#7EE6E9" transform="scale(0.362305 0.362305)" d="M236.492 414.236L235.342 416.25C229.65 424.757 221.542 429.386 211.75 431.73C207.356 432.781 202.272 432.892 197.798 432.229C191.719 431.327 186.608 429.804 181.426 426.398C173.457 421.162 167.32 412.23 165.432 402.877L165.25 401.937C164.053 395.998 164.28 389.957 166.18 384.184L166.409 383.5L167.173 381.118C170.616 371.74 177.994 364.735 186.89 360.55L186.768 361.044C185.941 364.255 184.403 367.081 183.281 370.174C181.148 376.058 181.004 382.438 182.343 388.5C184.393 397.773 189.622 406.368 197.659 411.648C205.418 416.746 216.98 419.905 226.212 417.776L236.492 414.236Z"/>
	<path fill="#CBF3F4" transform="scale(0.362305 0.362305)" d="M500.465 141.675C506.615 139.247 513.711 138.484 520.126 140.324C529.031 142.878 536.605 148.078 541.239 156.278C545.057 163.033 546.118 171.658 544.047 179.15L543.522 180.842C541.963 181.706 541.412 183.115 540.262 184.387C538.453 186.389 535.754 188.193 533.357 189.386L532.698 189.705L530.25 190.804C521.745 193.993 513.257 193.907 504.981 189.858C498.591 186.732 494 180.852 491.864 174.134C489.329 166.159 490.47 155.962 495.175 149.036C496.679 146.821 498.875 144.955 500.059 142.549L500.465 141.675Z"/>
	<path fill="#FCFCFB" transform="scale(0.362305 0.362305)" d="M519.21 149.25C521.03 149.096 524.95 148.519 526.56 149.185L527.155 149.537C530.047 151.202 531.992 153.11 533.279 156.25C534.763 159.869 535.002 163.614 533.439 167.25C531.999 170.601 529.185 172.106 526.018 173.465C523.927 173.511 521.528 173.725 519.477 173.293C516.79 172.728 514.033 170.492 512.713 168.123C511.078 165.189 510.795 161.72 511.695 158.496C512.821 154.465 515.685 151.358 519.21 149.25Z"/>
	<path fill="#CBF3F4" transform="scale(0.362305 0.362305)" d="M186.89 360.55L194.365 358.19C203.949 355.639 215.024 357.655 223.49 362.649C232.06 367.704 238.653 377.049 241.047 386.656C243.204 395.313 241.794 406.249 236.851 413.811L236.492 414.236L226.212 417.776C216.98 419.905 205.418 416.746 197.659 411.648C189.622 406.368 184.393 397.773 182.343 388.5C181.004 382.438 181.148 376.058 183.281 370.174C184.403 367.081 185.941 364.255 186.768 361.044L186.89 360.55Z"/>
	<path fill="#FCFCFB" transform="scale(0.362305 0.362305)" d="M213.579 364.044C215.582 363.949 217.546 363.817 219.49 364.415C222.632 365.383 225.71 367.552 227.174 370.569C228.65 373.611 229.283 378.431 228.082 381.668C226.477 385.991 222.76 387.978 218.86 389.822C216.819 390.047 214.728 390.017 212.75 389.394C209.267 388.296 206.449 385.108 204.911 381.907C203.429 378.822 203.776 374.977 204.967 371.84C206.571 367.612 209.749 365.895 213.579 364.044Z"/>
	<path fill="#7EE6E9" transform="scale(0.362305 0.362305)" d="M815.295 250.46C814.639 256.081 813.055 261.475 810.725 266.627C802.108 285.676 787.583 300.034 767.824 307.295C748.635 314.346 726.438 313.183 707.994 304.503C691.086 296.546 677.511 281.543 671.394 263.879C665.401 246.57 666.995 227.165 674.986 210.75C682.775 194.75 696.715 181.568 713.667 175.812L713.285 176.448C710.855 180.446 707.433 183.592 704.927 187.5C696.019 201.391 694.245 218.935 698.104 234.75C701.216 247.501 709.499 260.645 720.25 268.273L720.964 268.788C735.691 279.284 753.056 283.076 770.791 280.016C785.42 277.492 801.418 269.169 809.957 256.75C811.489 254.523 812.543 252.455 814.785 250.842L815.295 250.46Z"/>
	<path fill="#CBF3F4" transform="scale(0.362305 0.362305)" d="M713.667 175.812C732.806 168.282 754.472 168.5 773.371 176.674C791.074 184.331 804.612 198.053 811.702 216.031C815.961 226.829 817.22 239.027 815.295 250.46L814.785 250.842C812.543 252.455 811.489 254.523 809.957 256.75C801.418 269.169 785.42 277.492 770.791 280.016C753.056 283.076 735.691 279.284 720.964 268.788L720.25 268.273C709.499 260.645 701.216 247.501 698.104 234.75C694.245 218.935 696.019 201.391 704.927 187.5C707.433 183.592 710.855 180.446 713.285 176.448L713.667 175.812Z"/>
	<path fill="#FCFCFB" transform="scale(0.362305 0.362305)" d="M770.258 187.559C773.743 187.435 776.95 187.48 780.268 188.74C785.195 190.611 790.239 194.666 792.358 199.555C794.274 203.976 793.795 209.37 791.997 213.75C789.499 219.838 784.594 222.609 778.812 224.92C774.719 225.436 770.308 225.126 766.5 223.478C761.889 221.482 758.275 217.572 756.527 212.88C754.605 207.719 755.178 202.422 757.51 197.5C760.097 192.039 764.827 189.517 770.258 187.559Z"/>
	<path fill="#3CB0C1" transform="scale(0.362305 0.362305)" d="M843.976 540.721C867.662 548.106 899.978 559.841 912.253 583.221C920.978 599.838 921.094 620.305 915.545 637.947C912.072 648.988 905.71 658.552 898.594 667.557C877.143 694.703 847.541 714.446 817.054 730.165C770.931 753.947 718.09 764.285 667.703 748.169L646.846 739.381C641.104 734.462 639.177 725.267 636.499 718.531L636.146 717.658L817.059 626.916L830.037 619.898L835.297 615.495C838.666 612.167 841.541 608.483 842.92 603.88C844.151 599.772 843.98 595.558 843.986 591.318L843.963 575.916L843.976 540.721Z"/>
	<path fill="#CBF3F4" transform="scale(0.362305 0.362305)" d="M420.78 292.008C428.751 286.288 438.516 283.024 448.378 284.583C455.847 285.764 460.553 289.299 465.366 294.738C474.993 281.897 488.073 272.39 504.278 270.255C519.739 268.217 536.478 273.401 548.624 283.013C555.808 288.699 560.276 295.25 564.887 303.045C575.306 297.668 583.978 295.449 595.643 297.426C607.058 299.361 618.069 306.523 624.568 316.047C631.357 325.998 633.756 337.971 631.336 349.732C631.068 351.035 630.759 352.287 630.303 353.537C628.302 359.002 626.207 363.029 622.44 367.478C624.722 372.207 625.979 376.221 626.452 381.484C627.183 385.386 626.58 390.183 625.676 394.03L625.484 394.866C622.907 405.73 615.325 415.328 605.784 421.053L605.428 421.258C599.602 423.94 592.814 425.866 586.366 426.15L586.589 428.611C586.386 430.776 586.162 432.847 585.68 434.975C584.648 440.527 583.068 445.633 580.506 450.683C580.052 451.511 578.83 453.241 578.677 454.1C577.578 457.241 575.907 459.528 574.134 462.281C568.809 470.545 563.018 476.162 554.053 480.423C551.245 481.758 548.26 482.951 545.206 483.556C539.524 483.179 534.106 483.811 528.404 482.681L523.314 481.608C515.179 479.546 505.48 472.985 500.891 465.948C498.932 462.943 497.795 459.631 495.962 456.615L495.548 455.952C488.272 460.231 480.415 463.852 472 465.074L471.104 465.217C466.394 465.923 460.947 465.805 456.25 465.079L455.397 464.962C451.914 464.465 448.379 463.345 445.138 461.984C442.416 468.711 439.795 475.071 436.024 481.297C426.115 497.658 411.036 510.117 393.5 517.56C371.757 526.79 345.21 525.844 323.451 517.073C316.213 514.156 310.354 510.578 304.178 505.842C297.213 516.699 290.016 524.772 276.885 527.764C266.75 530.074 254.968 527.897 246.254 522.309C237.566 516.737 233.032 509.071 229.007 499.823C227.107 495.268 226.725 489.077 227.282 484.215C228.679 472.04 235.307 462.465 244.651 454.965C249.248 451.918 253.619 450.019 258.971 448.817C264.934 447.478 271.47 447.614 277.408 449.08C273.546 433.799 275.402 419.417 282.381 405.339C292.241 385.452 310.318 371.366 331.181 364.367C341.637 360.09 353.341 359.542 364.491 359.387C362.856 355.639 361.181 350.879 361.781 346.775L361.906 346C362.579 341.684 363.957 337.925 366.44 334.314C369.964 329.19 376.404 325.389 382.543 324.375C388.819 323.34 396.036 325.297 401.231 328.971C401.376 324.807 401.931 320.729 403.191 316.742C406.442 306.451 412.16 298.422 420.78 292.008Z"/>
	<path fill="#7EE6E9" transform="scale(0.362305 0.362305)" d="M401.231 328.971C401.376 324.807 401.931 320.729 403.191 316.742C406.442 306.451 412.16 298.422 420.78 292.008C419.557 296.479 417.306 299.905 415.249 303.975C410.098 314.166 407.399 325.008 407.424 336.445L401.221 329.036L401.231 328.971Z"/>
	<path fill="#FCFCFB" transform="scale(0.362305 0.362305)" d="M540.048 391.526C542.234 391.475 544.823 391.201 546.938 391.795L547.5 391.971C549.794 392.673 551.553 393.719 552.943 395.75C554.49 398.01 555.43 402.543 554.716 405.191L554.551 405.75L554.388 406.34C553.324 409.726 549.807 411.785 546.823 413.273C544.73 413.63 541.52 413.85 539.483 413.184C536.454 412.194 534.298 409.7 532.912 406.939C531.429 403.987 531.844 400.973 532.954 397.966C534.26 394.428 536.79 392.939 540.048 391.526Z"/>
	<path fill="#FCFCFB" transform="scale(0.362305 0.362305)" d="M593.388 312.588C595.573 312.506 598.053 312.223 600.18 312.792L600.75 312.96C606.36 314.571 611.768 318.233 615.016 323.139C617.988 327.631 619.516 334.042 618.21 339.362L618.04 340C617.47 342.24 616.538 346.066 614.5 347.384C613.385 346.302 613.097 344.59 612.651 343.142C611.666 340.132 610.687 336.932 608.954 334.25C607.551 332.079 605.599 330.386 603.661 328.707C601.782 327.079 599.839 325.161 597.673 323.937C592.913 321.248 587.221 320.236 581.957 318.961C585.727 315.82 588.699 314.03 593.388 312.588Z"/>
	<path fill="#7EE6E9" transform="scale(0.362305 0.362305)" d="M626.452 381.484C627.183 385.386 626.58 390.183 625.676 394.03L625.484 394.866C622.907 405.73 615.325 415.328 605.784 421.053L605.428 421.258C599.602 423.94 592.814 425.866 586.366 426.15L583.177 411.798C593.921 410.949 603.021 408.642 612 402.473C614.988 400.42 618.129 397.61 620.282 394.679L620.659 394.152C623.494 390.264 624.936 385.997 626.452 381.484Z"/>
	<path fill="#FCFCFB" transform="scale(0.362305 0.362305)" d="M597.984 365.063C601.222 364.922 604.292 365.001 607.25 366.493C610.163 367.962 612.648 370.616 613.585 373.784C614.769 377.788 614.751 382.396 612.69 386.131C610.578 389.959 606.477 391.226 602.591 392.461L597.455 392.42C594.214 392.046 591.075 389.835 589.111 387.307C586.849 384.398 585.672 380.584 586.301 376.93L586.43 376.25C586.727 374.578 587.233 373.223 588.076 371.732C590.342 367.727 593.723 366.175 597.984 365.063Z"/>
	<path fill="#FCFCFB" transform="scale(0.362305 0.362305)" d="M507.793 285.157L520.178 285.059C530.827 286.071 538.932 291.294 545.589 299.492C554.356 310.289 553.988 321.801 552.571 334.828L547.743 326.25C544.737 321.195 541.353 315.87 537.25 311.619C524.551 298.464 508.585 292.219 490.54 291.71C496.111 288.703 501.433 285.887 507.793 285.157Z"/>
	<path fill="#FCFCFB" transform="scale(0.362305 0.362305)" d="M375.002 375.065C379.065 374.907 382.971 375.111 386.714 376.92C390.808 378.897 394.106 382.574 395.633 386.846C397.394 391.772 397.662 397.84 395.246 402.615C392.26 408.517 387.163 410.949 381.226 412.939C376.821 413.466 372.913 413.254 368.896 411.246C364.209 408.903 360.758 403.884 359.382 398.922C358.058 394.142 359.097 387.871 361.638 383.702C364.537 378.945 369.764 376.342 375.002 375.065Z"/>
	<path fill="#7EE6E9" transform="scale(0.362305 0.362305)" d="M277.408 449.08C273.546 433.799 275.402 419.417 282.381 405.339C292.241 385.452 310.318 371.366 331.181 364.367L330.971 364.718C328.203 369.129 323.63 372.221 320.701 376.75L320.241 377.446C309.651 393.705 306.42 414.561 310.692 433.392C314.956 452.187 327.042 468.477 343.433 478.529C359.072 488.12 378.185 493.045 396.365 488.798C414.251 484.621 429.077 474.452 438.664 458.759C442.537 452.42 444.65 445.46 447.07 438.495L446.38 446.265C459.46 447.952 471.681 446.647 483.792 441.285C487.063 439.837 490.197 437.988 493.385 436.36C492.84 430.61 493.303 425.345 494.504 419.693C495.116 416.816 496.038 413.686 497.923 411.381L498.314 411.22C495.599 419.519 494.898 425.193 499.04 433.275C502.016 439.081 506.618 444.281 512 447.965C522.986 455.485 537.537 459.172 550.766 456.892C563.01 454.782 572.456 447.526 581.155 439.054C582.499 437.746 583.443 435.772 585.218 435.171L585.68 434.975C584.648 440.527 583.068 445.633 580.506 450.683C580.052 451.511 578.83 453.241 578.677 454.1C577.578 457.241 575.907 459.528 574.134 462.281C568.809 470.545 563.018 476.162 554.053 480.423C551.245 481.758 548.26 482.951 545.206 483.556C539.524 483.179 534.106 483.811 528.404 482.681L523.314 481.608C515.179 479.546 505.48 472.985 500.891 465.948C498.932 462.943 497.795 459.631 495.962 456.615L495.548 455.952C488.272 460.231 480.415 463.852 472 465.074L471.104 465.217C466.394 465.923 460.947 465.805 456.25 465.079L455.397 464.962C451.914 464.465 448.379 463.345 445.138 461.984C442.416 468.711 439.795 475.071 436.024 481.297C426.115 497.658 411.036 510.117 393.5 517.56C371.757 526.79 345.21 525.844 323.451 517.073C316.213 514.156 310.354 510.578 304.178 505.842C297.213 516.699 290.016 524.772 276.885 527.764C266.75 530.074 254.968 527.897 246.254 522.309C237.566 516.737 233.032 509.071 229.007 499.823C227.107 495.268 226.725 489.077 227.282 484.215C228.679 472.04 235.307 462.465 244.651 454.965C249.248 451.918 253.619 450.019 258.971 448.817C264.934 447.478 271.47 447.614 277.408 449.08Z"/>
	<path fill="#F27B8F" transform="scale(0.362305 0.362305)" d="M495.548 455.952L499.366 452.343L507.642 460.928C518.001 470.231 530.526 474.414 544.385 473.609C558.311 472.8 569.707 464.074 578.677 454.1C577.578 457.241 575.907 459.528 574.134 462.281C568.809 470.545 563.018 476.162 554.053 480.423C551.245 481.758 548.26 482.951 545.206 483.556C539.524 483.179 534.106 483.811 528.404 482.681L523.314 481.608C515.179 479.546 505.48 472.985 500.891 465.948C498.932 462.943 497.795 459.631 495.962 456.615L495.548 455.952Z"/>
	<path fill="#CBF3F4" transform="scale(0.362305 0.362305)" d="M244.651 454.965C249.248 451.918 253.619 450.019 258.971 448.817C264.934 447.478 271.47 447.614 277.408 449.08C282.262 451.303 287.402 453.386 291.78 456.482C300.425 462.594 305.867 472.15 307.295 482.594C308.302 489.952 307.042 496.629 304.722 503.568L304.26 503.765C300.096 505.592 296.386 508.403 292.362 510.528C283.757 515.073 273.109 514.35 264.253 510.919C260.446 509.443 257.135 507.332 253.905 504.871C251.425 502.981 249.234 500.569 247.483 498L247.021 497.336C241.673 489.546 239.179 479.915 240.988 470.542L244.651 454.965Z"/>
	<path fill="#FCFCFB" transform="scale(0.362305 0.362305)" d="M282.579 459.53C283.811 459.468 285.058 459.414 286.257 459.754C289.643 460.714 292.428 463.168 293.936 466.328L294.176 466.858C294.431 467.406 294.683 467.928 294.825 468.521C295.576 471.644 294.908 475.128 293.247 477.828C290.888 481.663 287.42 482.939 283.235 484.006C280.863 484.032 278.361 483.507 276.25 482.404C273.766 481.107 271.568 477.942 270.777 475.293C269.828 472.115 270.516 469.027 272.039 466.199C274.211 462.162 278.493 460.785 282.579 459.53Z"/>
	<path fill="#2C87A6" transform="scale(0.362305 0.362305)" d="M182.331 539.551C185.117 542.741 186.955 546.08 190.655 548.376C194.262 550.614 198.222 552.315 201.992 554.26L223.26 565.25L283.164 597.529L370.581 645.122L398.46 660.302C406.987 664.895 416.155 669.784 425.385 672.77L425.781 672.991C429.287 674.89 433.235 676.149 437.023 677.37C434.84 682.678 433.017 687.604 431.875 693.236C430.519 699.921 431.032 707.319 431.043 714.111L431.04 743.67L431.053 768.841C431.059 774.21 430.832 779.655 431.383 785L431.46 785.807C431.894 789.972 433.207 794.513 435.376 798.104C436.767 800.407 438.563 802.446 439.942 804.751C441.029 805.257 442.132 805.691 443.293 805.997C448.474 807.365 453.181 807.247 458.33 805.828C465.002 803.989 471.194 800.413 477.344 797.32L502.135 784.988C514.3 778.911 527.258 773.482 538.985 766.657C542.39 765.44 545.721 763.451 548.944 761.799L565.181 753.596L636.146 717.658L636.499 718.531C639.177 725.267 641.104 734.462 646.846 739.381C644.676 744.374 640.897 748.953 637.352 753.036C628.766 762.923 618.649 771.978 609.039 780.868C539.553 845.155 449.19 887.885 354.217 894.359C326.169 896.27 296.541 893.904 270.303 883.315C260.126 879.208 250.511 874.062 242.24 866.769C230.27 856.212 221.421 840.213 220.512 824.105C219.03 797.834 231.381 777.428 248.406 758.589C226.336 768.462 201.034 775.266 176.696 772.181C154.377 769.351 133.869 760.766 119.561 742.715C107.017 726.889 101.295 707.45 103.757 687.337C106.042 668.667 114.411 651.155 124.483 635.5C135.758 617.973 148.798 602.801 163.271 587.876C169.425 581.529 175.438 574.559 182.389 569.079C182.885 566.322 182.513 562.968 182.507 560.15L182.331 539.551Z"/>
	<path fill="#EA3C57" transform="scale(0.362305 0.362305)" d="M182.331 539.551C185.117 542.741 186.955 546.08 190.655 548.376C194.262 550.614 198.222 552.315 201.992 554.26L223.26 565.25L283.164 597.529L370.581 645.122L398.46 660.302C406.987 664.895 416.155 669.784 425.385 672.77L425.781 672.991C429.287 674.89 433.235 676.149 437.023 677.37C434.84 682.678 433.017 687.604 431.875 693.236C430.519 699.921 431.032 707.319 431.043 714.111L431.04 743.67L431.053 768.841C431.059 774.21 430.832 779.655 431.383 785L431.46 785.807C431.894 789.972 433.207 794.513 435.376 798.104C436.767 800.407 438.563 802.446 439.942 804.751C427.653 800.781 416.296 793.473 404.987 787.315L353.049 759.117L243.035 699.637L214.044 684.122L197.337 675.38C195.076 674.061 193.08 672.504 191.217 670.667C186.994 666.505 184.171 661.278 182.965 655.472C182.262 652.09 182.466 648.435 182.437 644.99L182.391 627.604L182.389 569.079C182.885 566.322 182.513 562.968 182.507 560.15L182.331 539.551Z"/>
	<defs>
		<linearGradient id="gradient_1" gradientUnits="userSpaceOnUse" x1="186.74152" y1="487.56689" x2="847.31097" y2="540.79474">
			<stop offset="0" stop-color="#F46683"/>
			<stop offset="1" stop-color="#F8E6CB"/>
		</linearGradient>
	</defs>
	<path fill="url(#gradient_1)" transform="scale(0.362305 0.362305)" d="M626.452 381.484C625.979 376.221 624.722 372.207 622.44 367.478C626.207 363.029 628.302 359.002 630.303 353.537L771.161 431.34L806.588 451.213C814.581 455.578 823.434 459.372 830.731 464.863C836.367 469.104 840.236 474.189 842.081 481.047C843.902 487.814 842.971 495.917 843.171 502.894L843.976 540.721L843.963 575.916L843.986 591.318C843.98 595.558 844.151 599.772 842.92 603.88C841.541 608.483 838.666 612.167 835.297 615.495L830.037 619.898L817.059 626.916L636.146 717.658L565.181 753.596L548.944 761.799C545.721 763.451 542.39 765.44 538.985 766.657C527.258 773.482 514.3 778.911 502.135 784.988L477.344 797.32C471.194 800.413 465.002 803.989 458.33 805.828C453.181 807.247 448.474 807.365 443.293 805.997C442.132 805.691 441.029 805.257 439.942 804.751C438.563 802.446 436.767 800.407 435.376 798.104C433.207 794.513 431.894 789.972 431.46 785.807L431.383 785C430.832 779.655 431.059 774.21 431.053 768.841L431.04 743.67L431.043 714.111C431.032 707.319 430.519 699.921 431.875 693.236C433.017 687.604 434.84 682.678 437.023 677.37C433.235 676.149 429.287 674.89 425.781 672.991L425.385 672.77C416.155 669.784 406.987 664.895 398.46 660.302L370.581 645.122L283.164 597.529L223.26 565.25L201.992 554.26C198.222 552.315 194.262 550.614 190.655 548.376C186.955 546.08 185.117 542.741 182.331 539.551C182.168 537.22 182.172 534.375 182.756 532.111C185.354 522.038 202.474 514.588 210.847 510.073L229.007 499.823C233.032 509.071 237.566 516.737 246.254 522.309C254.968 527.897 266.75 530.074 276.885 527.764C290.016 524.772 297.213 516.699 304.178 505.842C310.354 510.578 316.213 514.156 323.451 517.073C345.21 525.844 371.757 526.79 393.5 517.56C411.036 510.117 426.115 497.658 436.024 481.297C439.795 475.071 442.416 468.711 445.138 461.984C448.379 463.345 451.914 464.465 455.397 464.962L456.25 465.079C460.947 465.805 466.394 465.923 471.104 465.217L472 465.074C480.415 463.852 488.272 460.231 495.548 455.952L495.962 456.615C497.795 459.631 498.932 462.943 500.891 465.948C505.48 472.985 515.179 479.546 523.314 481.608L528.404 482.681C534.106 483.811 539.524 483.179 545.206 483.556C548.26 482.951 551.245 481.758 554.053 480.423C563.018 476.162 568.809 470.545 574.134 462.281C575.907 459.528 577.578 457.241 578.677 454.1C578.83 453.241 580.052 451.511 580.506 450.683C583.068 445.633 584.648 440.527 585.68 434.975C586.162 432.847 586.386 430.776 586.589 428.611L586.366 426.15C592.814 425.866 599.602 423.94 605.428 421.258L605.784 421.053C615.325 415.328 622.907 405.73 625.484 394.866L625.676 394.03C626.58 390.183 627.183 385.386 626.452 381.484Z"/>
	<path fill="#F6D3C3" transform="scale(0.362305 0.362305)" d="M824 464.25C825.261 464.617 826.449 464.821 827.363 465.833C826.76 467.113 826.594 466.981 825.25 467.5L823.004 467.692L822.569 466.51L824 464.25Z"/>
	<path fill="#F27B8F" transform="scale(0.362305 0.362305)" d="M605.428 421.258L605.729 421.924C600.217 426.58 593.691 428.344 586.589 428.611L586.366 426.15C592.814 425.866 599.602 423.94 605.428 421.258Z"/>
	<path fill="#CBF3F4" transform="scale(0.362305 0.362305)" d="M312.498 549.702L312.429 550.448C312.234 551.78 311.444 552.613 311.067 553.882C309.984 557.524 311.466 562.169 313.493 565.25C315.994 569.054 319.775 571.497 324.234 572.267C325.789 572.535 327.201 572.32 328.75 572.132C331.091 571.848 333.483 571.56 335.841 571.635C334.969 572.703 334.078 573.649 333.041 574.563C329.303 577.857 325.125 579.091 320.157 578.603C316.224 578.217 312.041 575.393 309.684 572.293C306.852 568.567 305.57 564.138 306.306 559.508L306.435 558.75C307.119 554.616 309.154 552.132 312.498 549.702Z"/>
	<path fill="#FCFCFB" transform="scale(0.362305 0.362305)" d="M312.498 549.702C316.516 547.303 320.832 545.861 325.497 546.956C329.705 547.943 333.606 550.499 335.885 554.205C338.142 557.873 339.151 562.37 338.151 566.613C337.711 568.481 336.864 570.031 335.841 571.635C333.483 571.56 331.091 571.848 328.75 572.132C327.201 572.32 325.789 572.535 324.234 572.267C319.775 571.497 315.994 569.054 313.493 565.25C311.466 562.169 309.984 557.524 311.067 553.882C311.444 552.613 312.234 551.78 312.429 550.448L312.498 549.702Z"/>
	<path fill="#FCFCFB" transform="scale(0.362305 0.362305)" d="M816.591 498.531C819.111 497.424 828.457 492.249 830.266 492.305L830.037 619.898L817.059 626.916L816.591 498.531Z"/>
	<defs>
		<linearGradient id="gradient_2" gradientUnits="userSpaceOnUse" x1="347.43484" y1="556.43024" x2="758.38672" y2="489.92853">
			<stop offset="0" stop-color="#F4A0A5"/>
			<stop offset="1" stop-color="#FBF1D6"/>
		</linearGradient>
	</defs>
	<path fill="url(#gradient_2)" transform="scale(0.362305 0.362305)" d="M580.506 450.683C590.176 448.062 598.951 442.829 607.768 438.175L635.002 423.967C643.053 419.776 653.303 412.805 662.618 412.973C667.095 413.054 671.479 414.64 675.451 416.589C683.485 420.529 690.978 426.136 698.667 430.75L730.556 449.465C737.841 453.727 747.302 458.145 753.125 464.304C755.239 466.54 756.639 469.261 756.445 472.406L756.146 474.25L756.019 474.878C755.178 478.606 751.594 481.114 748.5 482.982C734.311 491.55 718.266 498.078 703.311 505.25L611.5 549.455L502.14 603.335L468.382 620.25C458.417 625.265 448.547 630.487 437.957 634.101C427.562 637.649 417.787 637.553 407.225 634.843C392.715 631.12 379.316 623.768 367.331 614.927C363.288 611.945 358.6 608.37 356.02 604C353.976 600.537 352.749 596.4 353.773 592.392C355.567 585.362 363.682 581.82 369.53 578.73L389.901 568.791L503.265 506.775L529.991 492.835C535.234 490.065 540.987 487.846 545.206 483.556C548.26 482.951 551.245 481.758 554.053 480.423C563.018 476.162 568.809 470.545 574.134 462.281C575.907 459.528 577.578 457.241 578.677 454.1C578.83 453.241 580.052 451.511 580.506 450.683Z"/>
	<path fill="#F6D3C3" transform="scale(0.362305 0.362305)" d="M687.499 479.798L687.388 480.701C684.611 483.945 681.003 486.01 676.907 487.211C672.605 488.472 668.326 487.788 664.464 485.527C660.415 483.157 657.582 479.658 656.487 475.078C655.448 470.729 656.135 466.041 658.489 462.25C659.161 462.733 659.233 464.449 659.403 465.291C660.328 470.49 662.036 474.429 666.535 477.493C671.606 480.946 677.266 482.222 683.234 480.897L687.499 479.798Z"/>
	<path fill="#FCFCFB" transform="scale(0.362305 0.362305)" d="M659.403 465.291C659.282 461.627 659.51 459.532 661.25 456.298L661.601 455.632C663.578 452.006 667.255 449.557 671.172 448.466C676.236 447.056 682.264 446.939 686.921 449.625C690.868 451.901 693.484 455.28 695.083 459.5L695.324 460.1C696.528 463.295 696.224 468.441 694.875 471.525C693.626 474.379 689.942 477.86 687.499 479.798L683.234 480.897C677.266 482.222 671.606 480.946 666.535 477.493C662.036 474.429 660.328 470.49 659.403 465.291Z"/>
	<defs>
		<linearGradient id="gradient_3" gradientUnits="userSpaceOnUse" x1="556.03015" y1="620.44965" x2="814.68182" y2="641.89716">
			<stop offset="0" stop-color="#F28997"/>
			<stop offset="1" stop-color="#F3D2BA"/>
		</linearGradient>
	</defs>
	<path fill="url(#gradient_3)" transform="scale(0.362305 0.362305)" d="M535.478 638.422C537.761 636.728 540.762 635.579 543.301 634.279L555.997 627.438C558.335 626.258 560.879 625.437 563.16 624.183L627.412 591.391L750.891 529.298L784.329 512.552L798.104 505.889C799.274 505.331 800.257 504.532 801.478 504.069C804.866 502.784 807.903 500.353 811.305 499.219C812.243 498.906 813.01 498.572 813.883 498.097L814.5 497.755L815.749 498.259L816.591 498.531L817.059 626.916L636.146 717.658L565.181 753.596L548.944 761.799C545.721 763.451 542.39 765.44 538.985 766.657C527.258 773.482 514.3 778.911 502.135 784.988L477.344 797.32C471.194 800.413 465.002 803.989 458.33 805.828C453.181 807.247 448.474 807.365 443.293 805.997C442.132 805.691 441.029 805.257 439.942 804.751C438.563 802.446 436.767 800.407 435.376 798.104C433.207 794.513 431.894 789.972 431.46 785.807L431.383 785C430.832 779.655 431.059 774.21 431.053 768.841L431.04 743.67L431.043 714.111C431.032 707.319 430.519 699.921 431.875 693.236C433.017 687.604 434.84 682.678 437.023 677.37C433.235 676.149 429.287 674.89 425.781 672.991L425.385 672.77C426.678 672.819 428.168 673.008 429.375 673.503C431.755 674.479 427.98 673.266 430.824 674.137C432.95 674.789 435.054 676.039 437.25 676.255L437.625 675.734C437.809 676.767 437.606 676.292 438.25 677.152L440.502 677.405C443.945 677.872 448.123 678.109 451.542 677.502L451.998 677.417C456.042 676.83 459.728 675.45 463.498 673.939C468.668 671.868 473.415 668.93 478.5 666.702L535.478 638.422Z"/>
	<path fill="#F27B8F" transform="scale(0.362305 0.362305)" d="M535.478 638.422L536.45 638.3C541.134 637.583 547.886 632.665 552.059 630.38C553.579 629.547 555.214 628.303 557.001 628.998C558.701 630.681 559.298 631.745 559.335 634.183C559.351 635.307 559.016 635.95 558.688 637C558.384 637.977 558.432 638.523 558.606 639.504C558.994 641.695 558.264 646.194 557.843 648.421C556.754 654.175 558.156 660.853 556.757 666.499C555.907 669.927 556.783 673.511 556.177 676.855C555.846 678.683 555.072 682.759 555.521 684.487C555.714 685.232 555.493 685.623 555.358 686.341C555.069 687.881 555.332 689.458 555.146 691C554.488 696.447 554.711 702.163 553.757 707.5L551.248 742.6C551.243 744.376 550.872 745.601 550.262 747.241L549.515 749.256C549.145 750.276 548.966 751.047 548.314 751.94C547.755 752.706 547.735 753.242 547.623 754.161L547.002 754.804C545.65 756.282 546.087 758.095 544.565 759.734C544.677 760.841 545.013 761.873 544.5 762.878C543.835 763.287 543.284 763.679 542.519 763.869C541.353 764.158 540.216 765.022 539.187 765.643L538.985 766.657C527.258 773.482 514.3 778.911 502.135 784.988L477.344 797.32C471.194 800.413 465.002 803.989 458.33 805.828C453.181 807.247 448.474 807.365 443.293 805.997C442.132 805.691 441.029 805.257 439.942 804.751C438.563 802.446 436.767 800.407 435.376 798.104C433.207 794.513 431.894 789.972 431.46 785.807L431.383 785C430.832 779.655 431.059 774.21 431.053 768.841L431.04 743.67L431.043 714.111C431.032 707.319 430.519 699.921 431.875 693.236C433.017 687.604 434.84 682.678 437.023 677.37C433.235 676.149 429.287 674.89 425.781 672.991L425.385 672.77C426.678 672.819 428.168 673.008 429.375 673.503C431.755 674.479 427.98 673.266 430.824 674.137C432.95 674.789 435.054 676.039 437.25 676.255L437.625 675.734C437.809 676.767 437.606 676.292 438.25 677.152L440.502 677.405C443.945 677.872 448.123 678.109 451.542 677.502L451.998 677.417C456.042 676.83 459.728 675.45 463.498 673.939C468.668 671.868 473.415 668.93 478.5 666.702L535.478 638.422Z"/>
</svg>
