<?xml version="1.0" encoding="utf-8" ?>
<svg xmlns="http://www.w3.org/2000/svg" xmlns:xlink="http://www.w3.org/1999/xlink" width="300" height="300">
	<path fill="#2D97E2" transform="scale(0.292969 0.292969)" d="M268.092 838.144C266.451 836.706 264.915 834.339 263.515 832.628C258.46 826.448 254.051 819.881 249.749 813.165C222.42 770.499 203.773 723.489 198.669 672.782C195.119 637.526 197.444 602.56 206.509 568.25C212.358 546.108 220.436 524.557 229.329 503.473C242.627 471.945 258.02 441.133 274.837 411.339L302.015 365.673L329.446 320.091L456.461 137.333L511.637 66.7436L528.813 88.306C526.258 91.8379 525.07 95.6651 523.024 99.4385C520.008 105 515.815 110.768 513.649 116.662L513.311 115.785L512.446 116.07C509.739 116.979 492.416 141.028 489.251 145.176L384.512 293.089C345.281 352.288 307.385 413.47 275.738 477.103C263.293 502.128 250.447 528.328 243.101 555.332C238.164 566.124 235.639 578.509 233.372 590.137C223.729 639.578 227.386 690.085 244.75 737.464C257.712 772.832 277.978 806.243 303.389 834.056L325.429 856.236C312.047 855.265 297.181 849.594 284.844 844.49C279.66 842.346 273.572 839.059 268.092 838.144Z"/>
	<path fill="#1F75CC" transform="scale(0.292969 0.292969)" d="M528.813 88.306L652.934 257.722C696.145 320.727 737.369 385.732 771.481 454.168C788.612 488.539 804.869 524.02 815.253 561.092C826.249 600.35 830.339 641.29 825.274 681.838C814.829 765.445 766.255 840.99 700.303 892.153C636.374 941.747 552.478 963.875 472.334 953.636C407.498 945.353 347.286 916.085 299.486 871.699C288.177 861.197 277.554 850.376 268.092 838.144C273.572 839.059 279.66 842.346 284.844 844.49C297.181 849.594 312.047 855.265 325.429 856.236L327.445 857.17C335.403 865.355 345.665 872.62 355.313 878.692C380.94 894.82 409.266 907.614 438.602 915.294C453.042 919.074 467.432 920.772 482.038 923.466C485.343 924.076 488.527 923.868 491.85 924.119L513.425 925.101C571.418 925.09 625.982 905.684 673.5 873.035C721.758 839.877 760.096 790.072 780.179 735.142C783.535 725.963 787.362 716.116 789.044 706.476L792.8 688.82C795.656 671.914 796.653 655.103 796.103 638C795.968 633.811 796.5 629.381 795.832 625.246C794.291 615.715 793.663 606.129 791.819 596.588C785.942 566.182 775.314 537.08 763.363 508.603C747.928 471.823 728.216 436.66 708.379 402.111L659.577 325.49L605.87 242.634L592.433 224L556.412 173.573L536.581 146C533.557 141.798 530.75 137.23 527.448 133.25C525.824 131.292 524.079 129.429 521.703 128.443C518.569 125.548 515.697 120.404 513.649 116.662C515.815 110.768 520.008 105 523.024 99.4385C525.07 95.6651 526.258 91.8379 528.813 88.306Z"/>
	<path fill="#2D97E2" transform="scale(0.292969 0.292969)" d="M521.703 128.443C524.079 129.429 525.824 131.292 527.448 133.25C530.75 137.23 533.557 141.798 536.581 146L556.412 173.573L592.433 224L605.87 242.634L659.577 325.49L708.379 402.111C728.216 436.66 747.928 471.823 763.363 508.603C775.314 537.08 785.942 566.182 791.819 596.588C793.663 606.129 794.291 615.715 795.832 625.246C796.5 629.381 795.968 633.811 796.103 638C796.653 655.103 795.656 671.914 792.8 688.82L789.044 706.476C787.362 716.116 783.535 725.963 780.179 735.142C760.096 790.072 721.758 839.877 673.5 873.035C625.982 905.684 571.418 925.09 513.425 925.101L491.85 924.119C488.527 923.868 485.343 924.076 482.038 923.466C467.432 920.772 453.042 919.074 438.602 915.294C409.266 907.614 380.94 894.82 355.313 878.692C345.665 872.62 335.403 865.355 327.445 857.17C330.447 857.253 333.504 857.874 336.499 858.186L358.122 859.965C400.437 861.649 443.758 855.227 483.507 840.514C561.334 811.707 626.994 754.512 661.668 678.633C677.627 643.708 685.865 605.857 686.978 567.5C687.233 558.719 686.747 550.217 686.25 541.473C683.121 486.471 668.022 431.865 648.345 380.603L636.365 352.01L620.061 313.246L611.603 293.584L602.039 275.5L572.447 219.5L536.795 155.362L526.625 137.807C525.089 135.13 522.996 132.238 521.991 129.328L521.703 128.443Z"/>
	<path fill="#4EC6EC" transform="scale(0.292969 0.292969)" d="M512.446 116.07L513.311 115.785L513.649 116.662C515.697 120.404 518.569 125.548 521.703 128.443L521.991 129.328C522.996 132.238 525.089 135.13 526.625 137.807L536.795 155.362L572.447 219.5L602.039 275.5L611.603 293.584L620.061 313.246L636.365 352.01L648.345 380.603C668.022 431.865 683.121 486.471 686.25 541.473C686.747 550.217 687.233 558.719 686.978 567.5C685.865 605.857 677.627 643.708 661.668 678.633C626.994 754.512 561.334 811.707 483.507 840.514C443.758 855.227 400.437 861.649 358.122 859.965L336.499 858.186C333.504 857.874 330.447 857.253 327.445 857.17L325.429 856.236L303.389 834.056C277.978 806.243 257.712 772.832 244.75 737.464C227.386 690.085 223.729 639.578 233.372 590.137C235.639 578.509 238.164 566.124 243.101 555.332C250.447 528.328 263.293 502.128 275.738 477.103C307.385 413.47 345.281 352.288 384.512 293.089L489.251 145.176C492.416 141.028 509.739 116.979 512.446 116.07Z"/>
	<path fill="#9EDAED" transform="scale(0.292969 0.292969)" d="M512.446 116.07C511.473 123.015 507.295 129.288 504.25 135.512L490.012 164.487L453.096 241.082L417.25 323.926L390.879 385L356.328 476.823L330.83 547.278C327.169 557.679 324.733 569.037 319.758 578.873C317.12 584.089 312.861 589.199 308.203 592.766C299.335 599.556 288.602 601.792 277.75 600.174C267.59 598.658 257.991 592.801 251.888 584.524C247.605 578.716 245.326 572.191 244.511 565.059C244.146 561.873 244.048 558.396 243.101 555.332C250.447 528.328 263.293 502.128 275.738 477.103C307.385 413.47 345.281 352.288 384.512 293.089L489.251 145.176C492.416 141.028 509.739 116.979 512.446 116.07Z"/>
</svg>
