<svg width="300" height="300" xmlns="http://www.w3.org/2000/svg">
 <defs>
  <linearGradient y2="0.629525" x2="-0.384251" y1="0.37121" x1="1.264322" id="gradient_0">
   <stop stop-color="#CBEFF5" offset="0"/>
   <stop stop-color="#8FF2FC" offset="1"/>
  </linearGradient>
 </defs>
 <g>
  <title>background</title>
  <rect fill="none" id="canvas_background" height="402" width="582" y="-1" x="-1"/>
 </g>
 <g>
  <title>Layer 1</title>
  <path id="svg_1" d="m492.334,106.103c2.617,-0.137 5.089,-0.161 7.69,0.202l0.976,0.14l1.531,0.223c6.343,1.18 12.11,6.234 15.646,11.397c3.611,5.274 5.221,12.992 4.029,19.29l-0.13,0.645l-0.241,1.36c-1.282,6.398 -5.514,12.401 -11.01,15.911l-0.659,0.408c-3.71,2.342 -7.125,3.438 -11.401,4.19c-6.213,0.492 -12.874,-1.111 -18.09,-4.495c-6.044,-3.921 -10.267,-10.17 -11.722,-17.25c-1.441,-7.013 -0.108,-13.921 3.957,-19.844c4.904,-7.145 11.019,-10.618 19.424,-12.177z" transform="scale(0.2929689884185791) " fill="#FEBD14"/>
  <path id="svg_2" d="m488.78,114.514c1.703,-0.045 3.81,-0.267 5.453,0.216c2.235,0.657 4.284,2.206 5.28,4.328c0.835,1.779 0.817,4.189 0.084,5.994c-1.635,4.025 -4.914,5.473 -8.594,7.188c-2.164,-0.32 -4.562,-0.392 -6.662,-0.98c-2.076,-0.582 -3.653,-2.005 -4.591,-3.935c-0.976,-2.01 -0.773,-3.685 0.065,-5.688c1.775,-4.242 4.986,-5.568 8.965,-7.123z" transform="scale(0.2929689884185791) " fill="#FCFBFB"/>
  <path id="svg_5" d="m518.886,878.013l-212.543,-0.531c-22.01,0.105 -41.811,-9.187 -57.237,-24.588c-18.365,-18.333 -26.917,-46.768 -21.649,-72.191c2.766,-13.352 9.452,-24.699 16.391,-36.242l16.885,-27.756l36.229,-59.624l100.108,-168.137l25.588,-42.816c2.811,-4.71 7.353,-10.61 8.944,-15.723c1.385,-4.45 0.471,-11.621 0.476,-16.323l0.017,-34.214l0.279,-135.344c-3.411,0.102 -8.077,0.603 -11.302,-0.383c-2.869,-0.876 -5.591,-3.204 -6.968,-5.862l-0.297,-0.606c-0.65,-1.306 -1.039,-2.48 -1.29,-3.925c-1.04,-5.99 -0.334,-12.938 -0.353,-19.035l-0.018,-16.709c0.013,-3.56 -0.113,-7.469 0.586,-10.96c0.394,-1.964 1.362,-3.853 2.528,-5.466c2.306,-3.191 5.683,-5.66 9.646,-6.164c6.636,-0.845 14.004,0.029 20.719,0.069l49.555,0.289l66.939,0.061c9.972,-0.011 20.247,-0.741 30.167,-0.134c4.078,0.249 7.936,0.578 11.24,3.236c3.757,3.024 5.382,7.646 5.846,12.291c0.768,7.685 0.111,15.908 0.166,23.653c0.048,6.744 1.075,14.224 -0.048,20.871c-0.306,1.806 -0.98,3.612 -2.215,5c-3.775,4.245 -8.937,3.875 -14.138,4.005l-0.014,130.162l-0.017,36.682c0,5.327 -0.718,11.772 0.302,16.979c0.37,1.886 1.887,3.931 2.88,5.558l5.867,9.668l21.062,35.768l114.456,194.271l31.834,52.9c6.191,9.976 13.162,19.621 18.574,30.052c3.716,7.16 6.416,14.984 7.768,22.947c3.008,17.728 0.58,36.66 -7.222,52.879c-2.854,5.934 -6.489,11.216 -10.315,16.549c-14.437,15.682 -33.093,27.377 -54.882,28.265l-45.364,0.487l-12.333,-0.013c-1.84,-0.003 -4.323,-0.306 -6.084,0.131l-140.763,-0.027z" transform="scale(0.2929689884185791) " fill="#012E87"/>
  <path id="svg_6" d="m553.988,244.761l24.008,0.243l0.043,12.984l-23.652,-0.04c-1.261,-2.998 -0.389,-9.756 -0.399,-13.187z" transform="scale(0.2929689884185791) " fill="#0D81A0"/>
  <path id="svg_7" d="m446.994,257.604l0.004,-12.926l106.99,0.083c0.01,3.431 -0.862,10.189 0.399,13.187l-0.426,0.167c-2.122,-0.833 -5.041,-0.505 -7.324,-0.508l-13.159,-0.011l-45.463,-0.106l-17.052,-0.008l-23.969,0.122z" transform="scale(0.2929689884185791) " fill="#1DB9C9"/>
  <path id="svg_8" d="m555.963,190.015l38.54,-0.198l-0.225,41.19l-97.033,-0.097c5.624,-0.957 12.427,-0.276 18.203,-0.298l40.586,-0.133l-0.071,-40.464z" transform="scale(0.2929689884185791) " fill="#0D81A0"/>
  <path id="svg_9" d="m497.245,230.91l-70.234,0.114l-0.019,-25.536c-0.017,-4.173 -0.49,-8.893 0.11,-13.004c0.213,-1.456 0.421,-1.764 1.421,-2.824c4.431,-0.681 8.891,-0.223 13.356,-0.207l22.944,0.039l91.14,0.523l0.071,40.464l-40.586,0.133c-5.776,0.022 -12.579,-0.659 -18.203,0.298z" transform="scale(0.2929689884185791) " fill="#1DB9C9"/>
  <path id="svg_10" d="m431.048,193.252l50.311,-0.272l-0.146,33.259l-50.221,-0.015l0.056,-32.972z" transform="scale(0.2929689884185791) " fill="#C1EEF6"/>
  <path id="svg_11" d="m470.963,257.482l17.052,0.008l-0.14,121.88l-0.227,35.573c-0.068,9.959 0.353,19.279 -1.521,29.158c-2.616,13.791 -9.886,27.733 -15.445,40.563l-14.225,34.014l-12.803,30.914c-2.579,6.445 -4.968,13.75 -8.217,19.845l-33.692,-0.38l-0.349,0.367l-20.763,-0.166c-1.344,-0.945 -4.044,-1.667 -5.078,-2.68c-1.281,-1.256 -1.69,-5.68 -2.408,-7.469l-0.37,-0.892l55.245,-92.803l11.405,-19.031c2.315,-3.761 6.019,-8.405 7.351,-12.587c1.001,-3.14 -0.177,-8.145 -0.23,-11.546l-0.047,-23.502l0.493,-141.144l23.969,-0.122z" transform="scale(0.2929689884185791) " fill="url(#gradient_0)"/>
  <path id="svg_12" d="m470.963,257.482l17.052,0.008l-0.14,121.88l-0.227,35.573c-0.068,9.959 0.353,19.279 -1.521,29.158c-2.616,13.791 -9.886,27.733 -15.445,40.563l-14.225,34.014l-12.803,30.914c-2.579,6.445 -4.968,13.75 -8.217,19.845l-33.692,-0.38c2.14,-3.414 3.663,-7.675 5.569,-11.311l13.209,-23.746l32.62,-57.674l10.01,-17.187c2.583,-4.394 5.287,-8.896 6.712,-13.83c0.972,-3.365 0.866,-7.171 0.873,-10.645l-0.138,-16.19l-0.078,-34.39l0.441,-126.602z" transform="scale(0.2929689884185791) " fill="#FCFBFB"/>
  <path id="svg_13" d="m554.387,257.948l23.652,0.04l0.247,117.955l-0.263,38.177l-0.095,12.16c-0.008,2.3 -0.213,5.036 0.465,7.257c0.5,1.639 1.754,3.202 2.685,4.641l5.548,8.804l24.341,41.716l112.07,189.27l33.624,56.371c6.36,10.517 13.572,20.975 19.15,31.895c2.772,5.425 4.559,10.791 5.772,16.75c4.46,21.899 -3.567,45.906 -19.259,61.573c-14.944,14.921 -32.575,19.533 -53.222,19.408l-290.654,0.064l-85.433,-0.162c-12.181,-0.121 -25.467,0.902 -37.46,-1.135c-13.969,-2.372 -26.177,-9.394 -36.047,-19.455c-12.286,-12.523 -19.26,-30.46 -18.897,-48.027c0.185,-8.93 1.945,-18.271 5.639,-26.426c5.759,-12.717 14.04,-24.559 21.493,-36.353l20.16,-33.021l84.874,-141.233l0.37,0.892c0.718,1.789 1.127,6.213 2.408,7.469c1.034,1.013 3.734,1.735 5.078,2.68l-32.842,56.416l-57.469,96.141l-14.614,24.239c-5.719,9.093 -12.518,17.993 -16.401,28.079c-4.651,12.078 -5.423,26.004 -1.612,38.407c3.898,12.686 13.682,24.297 25.394,30.514c7.809,4.146 16.156,5.662 24.912,6.129l26.882,0.194l46.476,-0.018l146.044,-0.293l110.821,0.077l45.442,0.31l23.881,0.1c7.826,-0.014 16.08,0.083 23.601,-2.364c13.6,-4.425 25.068,-14.728 31.342,-27.49c5.875,-11.953 7.543,-27.663 3.193,-40.361c-1.312,-3.827 -3.134,-7.407 -5.093,-10.938l-28.197,-48.034l-60.27,-102.379l-19.983,-33.972c-2.551,-4.337 -5.443,-10.925 -8.896,-14.51l-23.579,-0.089c-0.882,-3.902 -3.008,-7.243 -4.856,-10.741l-7.541,-14.471l-38.641,-74.204l-8.853,-16.775c-1.669,-3.052 -3.867,-5.943 -5.024,-9.248c-1.245,-3.556 -0.426,-9.416 -0.465,-13.263l-0.188,-38.33l-0.136,-134.269l0.426,-0.167z" transform="scale(0.2929689884185791) " fill="#31DCEC"/>
  <path id="svg_14" d="m488.015,257.49l45.463,0.106l13.159,0.011c2.283,0.003 5.202,-0.325 7.324,0.508l0.136,134.269l0.188,38.33c0.039,3.847 -0.78,9.707 0.465,13.263c1.157,3.305 3.355,6.196 5.024,9.248l8.853,16.775l38.641,74.204l7.541,14.471c1.848,3.498 3.974,6.839 4.856,10.741l-1.598,0.259c-4.8,-0.485 -10.098,0.315 -14.969,0.33l-41.254,0.044l-126.407,-0.612c3.249,-6.095 5.638,-13.4 8.217,-19.845l12.803,-30.914l14.225,-34.014c5.559,-12.83 12.829,-26.772 15.445,-40.563c1.874,-9.879 1.453,-19.199 1.521,-29.158l0.227,-35.573l0.14,-121.88z" transform="scale(0.2929689884185791) " fill="#C1EEF6"/>
  <path id="svg_15" d="m487.208,510.827l0.414,0.701c1.127,2.022 1.35,4.732 2.037,6.949c2.367,7.632 8.529,12.967 16.036,15.322c6.263,1.964 13.403,1.213 19.176,-1.953c3.159,-1.732 5.845,-4.48 7.656,-7.568c1.065,-1.815 1.665,-3.777 2.976,-5.444l-0.209,3.358c-0.91,7.062 -4.289,12.901 -10.065,17.098c-5.142,3.737 -12.943,4.866 -19.151,3.565c-7.038,-1.475 -12.652,-6.054 -16.347,-12.11c-3.864,-6.332 -4.167,-12.912 -2.523,-19.918z" transform="scale(0.2929689884185791) " fill="#F33800"/>
  <path id="svg_16" d="m487.208,510.827c2.573,-7.559 6.339,-13.471 13.702,-17.101c1.757,-0.866 3.427,-1.386 5.34,-1.79l0.639,-0.145c5.61,-1.196 11.993,0.672 16.67,3.838c5.731,3.88 10.12,9.709 11.555,16.548c0.431,2.053 0.529,4.571 0.389,6.657c-1.311,1.667 -1.911,3.629 -2.976,5.444c-1.811,3.088 -4.497,5.836 -7.656,7.568c-5.773,3.166 -12.913,3.917 -19.176,1.953c-7.507,-2.355 -13.669,-7.69 -16.036,-15.322c-0.687,-2.217 -0.91,-4.927 -2.037,-6.949l-0.414,-0.701z" transform="scale(0.2929689884185791) " fill="#FEBD14"/>
  <path id="svg_17" d="m504.526,497.25l1.724,-0.224c1.328,0.428 2.72,0.957 3.487,2.224c0.679,1.122 0.768,2.156 0.411,3.397c-1.155,4.007 -4.927,5.836 -8.332,7.602l-2.816,0.198c-0.977,-0.654 -1.61,-1.042 -2.097,-2.147c-0.563,-1.28 -0.183,-3.018 0.367,-4.287c1.439,-3.324 3.997,-5.368 7.256,-6.763z" transform="scale(0.2929689884185791) " fill="#FCFBFB"/>
  <path id="svg_18" d="m401.745,569.057l33.692,0.38l-13.975,30.115l-58.154,119.717l-21.558,41.562c-3.844,7.349 -8.434,14.408 -11.004,22.341c-3.041,9.388 -3.226,21.031 -0.14,30.438l4.066,10.165l-0.312,0.579c5.799,2.455 11.187,3.012 17.39,3.8l21.177,2.065l44.802,2.259l29.143,0.969l56.209,-2.198c24.491,-0.927 49.093,-1.576 73.419,-4.81c28.028,-3.726 56.124,-8.384 82.75,-18.222c12.976,-4.794 25.683,-10.2 37.286,-17.816c6.541,-4.293 13.043,-9.766 16.249,-17.105c2.151,-4.922 1.938,-10.198 -0.018,-15.136c-2.335,-5.896 -5.413,-11.364 -8.278,-17.012l-10.624,-21.38l-55.484,-109.22l-10.884,-21.206c-2.653,-5.025 -5.642,-10.138 -7.692,-15.432l-1.738,-4.235l1.598,-0.259l23.579,0.089c3.453,3.585 6.345,10.173 8.896,14.51l19.983,33.972l60.27,102.379l28.197,48.034c1.959,3.531 3.781,7.111 5.093,10.938c4.35,12.698 2.682,28.408 -3.193,40.361c-6.274,12.762 -17.742,23.065 -31.342,27.49c-7.521,2.447 -15.775,2.35 -23.601,2.364l-23.881,-0.1l-45.442,-0.31l-110.821,-0.077l-146.044,0.293l-46.476,0.018l-26.882,-0.194c-8.756,-0.467 -17.103,-1.983 -24.912,-6.129c-11.712,-6.217 -21.496,-17.828 -25.394,-30.514c-3.811,-12.403 -3.039,-26.329 1.612,-38.407c3.883,-10.086 10.682,-18.986 16.401,-28.079l14.614,-24.239l57.469,-96.141l32.842,-56.416l20.763,0.166l0.349,-0.367z" transform="scale(0.2929689884185791) " fill="#F33800"/>
  <path id="svg_19" d="m401.745,569.057l33.692,0.38l-13.975,30.115l-58.154,119.717l-21.558,41.562c-3.844,7.349 -8.434,14.408 -11.004,22.341c-3.041,9.388 -3.226,21.031 -0.14,30.438l4.066,10.165l-0.312,0.579c-16.434,-6.625 -32.055,-15.928 -39.211,-32.926c-3.423,-8.128 -3.925,-19.354 -1.127,-27.678c2.046,-6.09 5.909,-11.519 9.033,-17.08l14.42,-26.001l55.083,-97.994c9.789,-17.431 21.208,-34.758 28.838,-53.251l0.349,-0.367z" transform="scale(0.2929689884185791) " fill="#F7A76F"/>
  <path id="svg_20" d="m435.437,569.437l126.407,0.612l41.254,-0.044c4.871,-0.015 10.169,-0.815 14.969,-0.33l1.738,4.235c2.05,5.294 5.039,10.407 7.692,15.432l10.884,21.206l55.484,109.22l10.624,21.38c2.865,5.648 5.943,11.116 8.278,17.012c1.956,4.938 2.169,10.214 0.018,15.136c-3.206,7.339 -9.708,12.812 -16.249,17.105c-11.603,7.616 -24.31,13.022 -37.286,17.816c-26.626,9.838 -54.722,14.496 -82.75,18.222c-24.326,3.234 -48.928,3.883 -73.419,4.81l-56.209,2.198l-29.143,-0.969l-44.802,-2.259l-21.177,-2.065c-6.203,-0.788 -11.591,-1.345 -17.39,-3.8l0.312,-0.579l-4.066,-10.165c-3.086,-9.407 -2.901,-21.05 0.14,-30.438c2.57,-7.933 7.16,-14.992 11.004,-22.341l21.558,-41.562l58.154,-119.717l13.975,-30.115z" transform="scale(0.2929689884185791) " fill="#F96704"/>
  <path id="svg_21" d="m524.834,621.03c0.454,1.189 0.472,1.982 0.147,3.22c-0.683,2.597 -3.316,5.32 -5.607,6.576c-3.427,1.878 -5.218,2.099 -8.939,0.884c-2.622,-0.855 -5.118,-2.495 -6.346,-5.036l-0.254,-0.552c-0.378,-0.801 -0.666,-1.477 -0.771,-2.372c-0.237,-2.037 -0.26,-4.126 1.046,-5.685c1.563,3.402 3.269,6.822 7.026,8.221c2.245,0.836 5.82,1.037 8.058,0.031c2.211,-0.994 4.155,-3.431 5.64,-5.287z" transform="scale(0.2929689884185791) " fill="#F33800"/>
  <path id="svg_22" d="m571.423,673.106l0.543,1.394c-0.4,2.913 -1.183,5.579 -3.085,7.899c-3.031,3.695 -7.361,5.569 -12.085,5.772c-3.997,0.172 -8.364,-1.704 -11.246,-4.421c-2.59,-2.441 -4.981,-6.361 -5.03,-10.008c-0.028,-2.052 0.177,-4.181 1.607,-5.727c1.274,4.582 2.484,9.017 6.966,11.491c3.987,2.2 8.767,2.864 13.16,1.544c4.099,-1.231 6.925,-4.455 9.17,-7.944z" transform="scale(0.2929689884185791) " fill="#F33800"/>
  <path id="svg_23" d="m409.416,792.981c0.027,0.621 0.056,1.197 -0.137,1.8c-1.431,4.454 -5.038,8.262 -9.285,10.172c-4.683,2.106 -9.927,2.428 -14.744,0.51c-4.67,-1.86 -7.82,-6.023 -9.576,-10.591l-0.32,-0.861c-0.262,-0.685 -0.535,-1.336 -0.67,-2.063c-0.741,-3.999 -0.566,-10.615 1.806,-14.068l0.665,0.252c-0.289,6.018 0.232,10.769 4.634,15.36c2.91,3.034 7.988,5.798 12.252,5.862c6.272,0.094 10.847,-2.351 15.375,-6.373z" transform="scale(0.2929689884185791) " fill="#F33800"/>
  <path id="svg_24" d="m528.249,778.524l0.376,0.631c-0.068,3.509 -1.598,6.978 -3.717,9.732c-3.152,4.097 -7.439,6.262 -12.556,6.762c-5.279,0.515 -10.348,-0.392 -14.41,-4.064c-3.801,-3.435 -6.462,-9.319 -6.455,-14.41c0.005,-3.345 0.524,-7.454 2.968,-9.811c0.005,3.126 -0.146,6.171 0.891,9.162l0.22,0.66c1.467,4.239 4.378,7.674 8.398,9.675c4.096,2.039 9.211,2.662 13.61,1.159c4.937,-1.687 8.049,-5.172 10.675,-9.496z" transform="scale(0.2929689884185791) " fill="#F33800"/>
  <path id="svg_25" d="m504.11,618.065c0.249,-3.921 1.488,-7.347 4.483,-9.946c1.456,-1.263 3.246,-1.813 5.053,-2.379c4.402,0.767 7.046,0.916 9.853,4.824c1.809,2.517 2.317,5.489 1.785,8.528l-0.45,1.938c-1.485,1.856 -3.429,4.293 -5.64,5.287c-2.238,1.006 -5.813,0.805 -8.058,-0.031c-3.757,-1.399 -5.463,-4.819 -7.026,-8.221z" transform="scale(0.2929689884185791) " fill="#FEBD14"/>
  <path id="svg_26" d="m514.305,608.75l1.365,-0.041c0.997,1.061 1.462,1.581 1.828,3.041l-1.748,1.671c-1.118,0.518 -1.283,0.58 -2.5,0.437l-0.129,-0.538c-0.299,-1.837 0.057,-3.132 1.184,-4.57z" transform="scale(0.2929689884185791) " fill="#FFFFDA"/>
  <path id="svg_27" d="m651.336,759.069c0.854,1.754 0.443,3.128 0.017,4.96c-1.327,5.711 -5.044,10.852 -10.122,13.843c-6.407,3.775 -14.705,4.02 -21.697,1.984c-7.703,-2.244 -13.291,-8.097 -16.948,-15.046c-3.603,-6.845 -4.464,-15.096 -2.19,-22.501c2.085,-6.788 6.922,-15.303 13.449,-18.686l0.535,-0.266c2.495,-1.273 4.919,-2.185 7.62,-2.931c2.086,-0.575 3.828,-0.782 6,-0.804l0.445,0.688c-8.372,1.274 -15.148,3.346 -20.421,10.495c-4.389,5.951 -6.697,13.217 -5.515,20.601c1.131,7.059 4.959,13.267 10.811,17.344c5.515,3.842 12.925,5.152 19.508,3.787c8.367,-1.734 13.837,-6.615 18.508,-13.468z" transform="scale(0.2929689884185791) " fill="#F33800"/>
  <path id="svg_28" d="m542.127,668.015c1.551,-5.419 3.337,-10.685 8.623,-13.527c2.954,-1.588 7.019,-2.595 10.299,-1.631c3.926,1.153 7.473,3.904 9.365,7.557l0.677,1.586l0.236,0.576c1.179,3.074 0.988,7.408 0.096,10.53c-2.245,3.489 -5.071,6.713 -9.17,7.944c-4.393,1.32 -9.173,0.656 -13.16,-1.544c-4.482,-2.474 -5.692,-6.909 -6.966,-11.491z" transform="scale(0.2929689884185791) " fill="#FEBD14"/>
  <path id="svg_29" d="m494.455,767.364c2.006,-4.877 4.346,-9.692 9.545,-11.792c4.92,-1.987 10.844,-2.179 15.734,-0.005c3.742,1.664 6.858,5.344 8.247,9.183c0.324,0.895 0.453,1.821 0.628,2.75l0.13,0.625c0.659,3.373 0.17,6.987 -0.52,10.316l0.03,0.083c-2.626,4.324 -5.738,7.809 -10.675,9.496c-4.399,1.503 -9.514,0.88 -13.61,-1.159c-4.02,-2.001 -6.931,-5.436 -8.398,-9.675l-0.22,-0.66c-1.037,-2.991 -0.886,-6.036 -0.891,-9.162z" transform="scale(0.2929689884185791) " fill="#FEBD14"/>
  <path id="svg_30" d="m377.155,778.132c1.313,-4.482 4.315,-9.114 8.462,-11.495c4.1,-2.355 7.803,-2.795 12.383,-2.258l0.654,0.068c3.963,0.456 7.859,3.217 10.268,6.303c1.873,2.399 3.13,5.524 3.633,8.5l0.136,0.763c0.77,4.743 -1.327,8.817 -3.275,12.968c-4.528,4.022 -9.103,6.467 -15.375,6.373c-4.264,-0.064 -9.342,-2.828 -12.252,-5.862c-4.402,-4.591 -4.923,-9.342 -4.634,-15.36z" transform="scale(0.2929689884185791) " fill="#FEBD14"/>
  <path id="svg_31" d="m628.445,720.31c1.81,0.182 3.788,0.059 5.55,0.375c5.785,1.036 11.543,4.772 15.228,9.249c3.673,4.462 6.217,11.38 5.581,17.191c-0.464,4.241 -1.663,8.089 -3.468,11.944c-4.671,6.853 -10.141,11.734 -18.508,13.468c-6.583,1.365 -13.993,0.055 -19.508,-3.787c-5.852,-4.077 -9.68,-10.285 -10.811,-17.344c-1.182,-7.384 1.126,-14.65 5.515,-20.601c5.273,-7.149 12.049,-9.221 20.421,-10.495z" transform="scale(0.2929689884185791) " fill="#FEBD14"/>
  <path id="svg_32" d="m635.435,727.25c0.997,-0.344 2.015,-0.456 3.065,-0.329c2.031,0.248 3.533,1.408 4.636,3.098c0.849,1.3 1.123,2.71 0.784,4.231c-0.592,2.662 -2.414,4.129 -4.67,5.393c-0.85,0.276 -2.114,0.485 -3,0.354c-1.805,-0.267 -3.242,-1.834 -4.159,-3.323c-0.938,-1.526 -1.454,-3.436 -0.916,-5.198c0.643,-2.107 2.392,-3.3 4.26,-4.226z" transform="scale(0.2929689884185791) " fill="#FCFBFB"/>
  <path id="svg_33" d="m432.941,647.683c3.438,-0.529 7.207,-0.358 10.593,0.401c11.449,2.566 21.748,9.896 27.91,19.904c5.371,8.725 7.887,21.546 5.408,31.524c-1.444,5.815 -3.403,10.979 -7.012,15.842c-7.96,10.725 -18.407,15.062 -31.221,17.051c-9.231,0.587 -18.481,-1.554 -26.097,-6.939c-9.633,-6.811 -16.559,-16.939 -18.386,-28.678c-1.79,-11.504 1.752,-24.046 8.743,-33.29c7.339,-9.702 18.32,-14.193 30.062,-15.815z" transform="scale(0.2929689884185791) " fill="#F33800"/>
  <path id="svg_34" d="m435.267,649.186c7.682,-0.728 15.715,1.795 22.189,5.864c8.449,5.308 14.396,14.07 16.53,23.793c1.92,8.745 0.456,18.371 -4.5,25.897c-6.575,9.983 -15.418,14.978 -26.91,17.321c-4.337,0.344 -9.092,0.458 -13.326,-0.671c-8.957,-2.387 -17.272,-8.252 -22.029,-16.253c-4.72,-7.939 -7.494,-18.615 -5.01,-27.721l0.261,-0.916c1.337,-4.844 3.273,-9.227 6.38,-13.197c6.608,-8.441 15.82,-12.934 26.415,-14.117z" transform="scale(0.2929689884185791) " fill="#FEBD14"/>
  <path id="svg_35" d="m426.788,662.524c1.335,-0.061 2.77,-0.179 4.085,0.109c3.245,0.712 6.441,3.224 8.037,6.117c1.299,2.354 1.539,5.662 0.661,8.198c-1.41,4.069 -4.356,5.941 -7.987,7.766c-1.57,0.17 -3.285,0.114 -4.834,-0.215c-2.64,-0.559 -5.138,-3.094 -6.463,-5.349c-1.511,-2.571 -2.382,-5.302 -1.468,-8.249c1.32,-4.251 4.309,-6.324 7.969,-8.377z" transform="scale(0.2929689884185791) " fill="#FCFBFB"/>
 </g>
</svg>