<svg width="300" height="300" xmlns="http://www.w3.org/2000/svg">
 <defs>
  <linearGradient y2="1.013652" x2="0.590255" y1="0.016056" x1="0.363982" id="gradient_0">
   <stop stop-color="#FA3B1F" offset="0"/>
   <stop stop-color="#DB6018" offset="1"/>
  </linearGradient>
 </defs>
 <g>
  <title>background</title>
  <rect fill="none" id="canvas_background" height="402" width="582" y="-1" x="-1"/>
 </g>
 <g>
  <title>Layer 1</title>
  <path id="svg_2" d="m314.871,772.986l49.287,-11.171c7.375,-1.682 14.859,-3.862 22.342,-4.959c10.034,-1.47 20.349,-1.575 30.473,-1.87c-44.162,-16.692 -83.454,-51.317 -102.855,-94.582c-16.366,-36.496 -20.668,-79.571 -14.515,-118.95c2.966,-18.978 8.496,-37.802 15.389,-55.704l32.752,-65.512c-4.081,28.273 -0.974,55.881 16.505,79.353c9.941,13.35 21.612,22.815 33.927,33.667c-16.566,-63.296 -5.227,-132.727 27.605,-188.974c11.503,-19.706 25.784,-37.542 40.377,-55.013c10.3,-12.332 21.905,-24.86 29.864,-38.855c17.175,-30.202 15.192,-64.703 6.728,-97.225l-4.152,-14.051c18.239,21.448 33.582,46.528 38.553,74.626c2.218,12.535 2.222,25.278 1.173,37.933c-1.395,16.837 -5.271,33.693 -5.763,50.551c-0.744,25.44 15.411,47.33 31.035,65.795c9.135,10.794 18.856,20.958 26.91,32.643c3.561,5.166 6.463,10.655 9.29,16.243c12.725,-33.348 5.795,-68.861 -7.609,-100.715c11.434,12.03 22.117,25.241 30.617,39.536c17.992,30.259 26.513,65.189 25.587,100.312l-5.343,43.298c6.014,-7.275 12.173,-14.564 17.413,-22.427c12.706,-19.066 20.942,-39.44 25.909,-61.752c8.099,12.363 13.763,26.623 19.198,40.317c19.681,49.588 30.782,102.477 19.806,155.581c-10.576,51.169 -41.728,98.547 -85.548,127.294c-5.849,3.837 -12.151,7.058 -18.328,10.337c-3.071,1.63 -6.385,3.041 -9.187,5.108c16.726,1.407 32.626,5.906 48.858,9.862l47.859,10.753c3.233,0.554 4.912,1.866 6.791,4.587c5.305,7.68 6.605,18.594 6.799,27.727c0.263,17.085 -7.76,34.373 -19.531,46.592c-4.972,5.16 -14.203,13.677 -21.71,14.4c-0.788,0.076 -0.823,-0.033 -1.569,-0.271l-0.811,-0.252c-1.78,-0.567 -5.565,-1.695 -6.852,-3.007l-55.742,-18.088l-82.004,-25.579l-17.348,-5.211c-1.541,-0.473 -4.462,-1.816 -5.95,-1.845c-2.682,-0.053 -7.792,2.354 -10.477,3.221l-26.129,8.28l-124.042,39.38c-1.283,0.691 -3.056,1.884 -4.448,2.16c-4.284,0.848 -7.751,-1.426 -11.139,-3.693c-17.936,-12.002 -29.028,-29.161 -33.136,-50.206c-0.928,-9.242 -0.543,-17.586 1.712,-26.63c0.789,-3.165 1.807,-6.872 3.854,-9.477c1.934,-2.461 4.584,-3.221 7.575,-3.537z" transform="scale(0.2929689884185791) " fill="url(#gradient_0)"/>
  <path id="svg_3" d="m301.73,812.63c-0.928,-9.242 -0.543,-17.586 1.712,-26.63c0.789,-3.165 1.807,-6.872 3.854,-9.477c1.934,-2.461 4.584,-3.221 7.575,-3.537l0.771,0.406c2.243,1.14 5.092,1.62 7.506,2.434c6.272,2.114 11.243,5.436 16.261,9.643c11.817,9.908 19.295,25.289 20.492,40.562c0.322,4.104 0.306,8.386 -0.231,12.469l-0.1,0.798c-1.15,8.876 -4.75,17.33 -9.117,25.071c-1.283,0.691 -3.056,1.884 -4.448,2.16c-4.284,0.848 -7.751,-1.426 -11.139,-3.693c-17.936,-12.002 -29.028,-29.161 -33.136,-50.206z" transform="scale(0.2929689884185791) " fill="#F99A28"/>
  <path id="svg_4" d="m709.028,774.435c3.233,0.554 4.912,1.866 6.791,4.587c5.305,7.68 6.605,18.594 6.799,27.727c0.263,17.085 -7.76,34.373 -19.531,46.592c-4.972,5.16 -14.203,13.677 -21.71,14.4c-0.788,0.076 -0.823,-0.033 -1.569,-0.271l-0.811,-0.252c-1.78,-0.567 -5.565,-1.695 -6.852,-3.007c-2.389,-3.262 -5.642,-5.804 -8.055,-9.167c-6.652,-9.273 -9.726,-20.731 -7.78,-32.07c2.276,-13.267 8.341,-23.108 18.656,-31.641c7.618,-6.303 15.754,-10.752 24.907,-14.403c3.307,-1.319 5.447,-2.853 9.155,-2.495z" transform="scale(0.2929689884185791) " fill="#F99A28"/>
  <path id="svg_5" d="m504.142,422.987l7.469,8.205c8.457,9.59 15.839,21.039 22.213,32.095c17.859,30.972 29.743,64.917 32.907,100.678c1.221,13.803 0.589,27.31 -0.303,41.098c15.037,-31.23 21.592,-64.993 12.976,-99.095l7.369,10.059c20.925,29.695 31.079,66.103 30.172,102.334c-0.306,12.226 -2.159,24.288 -4.263,36.315c12.677,-10.184 23.211,-21.47 31.686,-35.401c3.068,-5.043 5.578,-10.54 8.338,-15.761c1.343,5.635 0.937,12.07 1.019,17.843c0.379,26.762 -2.446,54.108 -13.817,78.668c-11.568,24.985 -33.114,46.965 -57.057,60.342c-9.543,5.332 -19.272,9.143 -29.514,12.876c-8.466,2.464 -17.695,2.947 -26.465,2.741c-15.577,-0.365 -31.329,-1.729 -46.372,-6.028c-25.376,-7.252 -46.262,-22.592 -64.254,-41.464c-25.693,-26.951 -38.682,-61.582 -41.472,-98.275c-0.689,-9.07 -0.387,-18.262 -0.183,-27.345c2.114,2.922 3.541,6.227 5.331,9.343l6.027,9.544c10.569,16.037 26.914,29.534 43.025,39.655l-4.786,-14.625c-1.582,-6.147 -2.098,-12.758 -2.348,-19.087c-1.111,-28.12 7.31,-58.313 19.127,-83.702c5.738,-12.326 12.977,-23.94 19.865,-35.644c1.972,20.622 5.729,39.654 16.013,57.87c-1.2,-15.183 4.101,-29.693 9.66,-43.554c9.748,-24.304 20.369,-48.731 20.438,-75.422c0.021,-8.142 -1.286,-16.288 -2.801,-24.263z" transform="scale(0.2929689884185791) " fill="#FECC30"/>
 </g>
</svg>