<?xml version="1.0" encoding="utf-8" ?>
<svg xmlns="http://www.w3.org/2000/svg" xmlns:xlink="http://www.w3.org/1999/xlink" width="300" height="300">
	<path fill="#113D65" transform="scale(0.292969 0.292969)" d="M409.669 798.885L402.875 797.592C400.212 796.949 397.482 795.594 396.15 793.073C395.436 791.722 395.14 789.112 395.711 787.664C397.393 783.392 404.889 781.722 408.886 780.139C406.732 783.674 404.488 786.879 405.68 791.192C406.321 793.512 407.871 795.572 409.174 797.559C409.614 798.229 409.465 797.98 409.669 798.885Z"/>
	<path fill="#113D65" transform="scale(0.292969 0.292969)" d="M409.683 766.261L405.5 765.513C401.791 764.732 398.357 763.635 396.329 760.159C395.346 758.474 395.065 756.042 395.741 754.188C397.313 749.871 405.689 748.164 409.615 746.245C407.792 749.747 406.011 752.714 405.301 756.64C406.629 760.532 408.241 763.196 411.292 766.06L409.683 766.261Z"/>
	<path fill="#113D65" transform="scale(0.292969 0.292969)" d="M411.884 832.099C408.302 831.955 403.905 831.765 400.547 830.532C398.337 829.721 396.466 828.197 395.591 825.967C394.899 824.204 394.991 822.344 395.825 820.639C397.996 816.203 404.75 814.951 409.024 813.623C406.996 816.872 405.365 819.726 406.053 823.75C406.619 827.064 409.54 829.881 411.884 832.099Z"/>
	<path fill="#F8C74A" transform="scale(0.292969 0.292969)" d="M317.339 128.75L319.75 128.424C321.959 128.569 323.615 130.446 324.925 132.032C329.919 138.076 334.233 144.874 338.687 151.321L355.146 174.722C360.493 182.409 366.79 189.668 371.526 197.75C372.382 199.211 372.748 199.999 372.593 201.75C371.773 203.554 370.836 204.277 369.25 205.429C368.7 205.727 368.284 205.861 367.656 205.904C366.003 206.019 365.185 205.785 363.938 204.571C360.086 200.825 357.101 194.702 353.908 190.273L329.02 155.589C324.495 149.209 319.513 142.752 315.575 136.006C314.702 134.511 314.409 133.487 314.408 131.75C315.253 130.064 315.82 129.795 317.339 128.75Z"/>
	<path fill="#F8C74A" transform="scale(0.292969 0.292969)" d="M806.014 429.709L862.287 429.662L877.699 429.569C880.357 429.53 883.652 429.077 886.206 429.718C887.77 430.111 889.002 431.068 889.764 432.485C890.536 433.921 890.825 435.72 890.179 437.262C889.46 438.982 887.984 439.827 886.341 440.469L826.112 440.582L811.685 440.606C809.47 440.605 806.521 440.959 804.5 440.039C803.074 439.389 802.078 438.264 801.644 436.75C801.261 435.414 801.358 433.446 802.05 432.25C802.915 430.756 804.455 430.168 806.014 429.709Z"/>
	<path fill="#F8C74A" transform="scale(0.292969 0.292969)" d="M702.028 129.25C702.97 129.053 704.039 128.981 704.992 129.162C706.124 129.376 707.035 130.174 707.688 131.083C708.612 132.37 708.792 133.632 708.423 135.161C708.035 136.77 706.298 138.792 705.37 140.158L698.407 150.583L677.527 182.04L664.447 201.437C662.907 203.501 661.531 205.399 659.295 206.75C658.581 206.961 657.946 207.124 657.19 206.981C655.181 206.6 653.972 204.916 653.051 203.25C652.92 201.692 652.95 200.648 653.542 199.186C657.118 190.363 664.727 181.963 670.024 174L689.314 145.273C692.198 141.004 694.825 136.346 698.022 132.321C699.228 130.802 700.233 129.967 702.028 129.25Z"/>
	<path fill="#F8C74A" transform="scale(0.292969 0.292969)" d="M842.491 256.49L845.25 256.484C846.206 256.971 846.887 257.421 847.547 258.266C848.84 259.92 848.687 261.295 848.453 263.25C847.556 264.671 846.794 265.491 845.356 266.375C842.213 268.307 838.488 269.7 835.147 271.282L813.589 281.327L782.907 295.588C778.213 297.68 773.63 299.956 768.75 301.595L767.25 301.896C765.587 301.254 764.477 300.607 763.592 299C762.914 297.77 762.501 296.376 762.986 295C763.633 293.162 765.473 292.045 767.096 291.142C771.163 288.878 775.609 287.219 779.861 285.328L798.284 276.808L842.491 256.49Z"/>
	<path fill="#F8C74A" transform="scale(0.292969 0.292969)" d="M178.518 256.25C179.659 256.015 180.698 255.801 181.854 256.067C184.399 256.652 187.09 258.534 189.398 259.75L205.557 268.107L237.14 284.044C243.649 287.283 250.472 290.335 256.75 293.997C257.987 294.719 259.237 295.604 259.979 296.865C260.588 297.901 260.66 299.123 260.371 300.268C259.875 302.232 258.621 303.22 257.008 304.25C255.916 304.537 255.234 304.745 254.106 304.475C252.282 304.037 250.127 302.523 248.463 301.63L237.445 295.941L199.109 276.66C192.365 273.251 185.091 270.015 178.647 266.096C177.487 265.391 176.05 264.252 175.45 263C174.929 261.914 174.893 260.9 175.269 259.755C175.856 257.966 176.921 257.112 178.518 256.25Z"/>
	<path fill="#F8C74A" transform="scale(0.292969 0.292969)" d="M688.662 669.75C689.339 669.669 689.292 669.613 690.011 669.813C692.193 670.419 693.837 672.349 695.317 673.966C700.985 680.158 706.132 687.077 711.343 693.67L727.089 712.97L739.37 727.819C741.961 730.883 745.339 734.141 747.181 737.697C747.909 739.102 748.282 740.478 747.692 741.999C746.978 743.839 745.434 744.69 743.75 745.506C742.93 745.651 742.002 745.852 741.175 745.63C739.691 745.231 738.367 743.839 737.386 742.731L708.774 707.111C701.264 697.853 692.586 688.832 685.803 679.068C684.781 677.597 683.538 675.476 684.123 673.632C684.797 671.505 686.741 670.503 688.662 669.75Z"/>
	<path fill="#F8C74A" transform="scale(0.292969 0.292969)" d="M765.936 562.75C766.355 562.627 766.547 562.546 767.026 562.545C768.14 562.543 769.232 562.928 770.244 563.353L803.5 578.977L833.533 592.984C837.636 594.88 844.664 596.993 847.73 600.323C849.196 601.914 849.098 603.246 848.977 605.25C847.953 607.136 847.109 607.981 845.25 609.049L843.5 609.471C836.138 607.226 828.856 602.641 821.819 599.384L782.58 580.818L767.23 573.719C765.789 572.972 764.411 571.998 763.366 570.742C762.194 569.332 762.353 567.943 762.476 566.25C763.402 564.369 764.122 563.771 765.936 562.75Z"/>
	<path fill="#F8C74A" transform="scale(0.292969 0.292969)" d="M253.16 563.25C253.84 563.143 253.993 563.085 254.75 563.144C256.163 563.253 257.892 564.322 258.75 565.426C259.709 566.661 260.48 568.551 259.977 570.141C259.453 571.797 257.837 572.937 256.413 573.76C246.985 579.212 236.195 583.319 226.304 588.002L198.745 600.972C193.234 603.564 187.796 606.381 182.124 608.603C181.176 608.634 181.416 608.658 180.638 608.592C178.971 608.451 177.632 608.012 176.574 606.566C175.247 604.753 175.346 602.843 175.714 600.75C176.818 599.292 177.759 598.599 179.381 597.756L207.35 584.855L238.435 569.891C243.082 567.675 248.207 564.533 253.16 563.25Z"/>
	<path fill="#F8C74A" transform="scale(0.292969 0.292969)" d="M510.302 76.25C511.197 76.1163 511.819 76.1046 512.709 76.2492C514.274 76.5036 515.788 77.0167 516.592 78.5C517.324 79.8517 517.317 81.6213 517.375 83.1165L517.23 139.199L517.22 156.352C517.222 158.517 517.625 161.64 516.966 163.654C516.295 165.705 515.132 166.665 513.34 167.75C512.346 168.097 511.594 168.227 510.557 168.059C508.963 167.8 507.876 167.008 507.058 165.614C506.397 164.488 506.209 162.575 506.126 161.303C505.763 155.8 506.058 150.094 506.073 144.571L506.097 113.818L506.146 89.882C506.158 86.855 505.681 81.9012 506.654 79.1361C507.257 77.421 508.771 76.8356 510.302 76.25Z"/>
	<path fill="#F8C74A" transform="scale(0.292969 0.292969)" d="M136.108 429.721C145.866 429.419 218.268 428.627 221.25 429.991C222.714 430.661 223.502 431.994 223.929 433.5C224.35 434.982 223.978 436.536 223.19 437.821C222.19 439.455 220.729 439.97 218.972 440.474L173.692 440.584L146.927 441.002C143.514 441.045 137.052 441.792 134.063 440.25C132.524 439.456 131.754 438.43 131.25 436.795C130.689 434.975 131.102 433.602 131.904 431.954C133.282 430.661 134.274 430.163 136.108 429.721Z"/>
	<path fill="#F8C74A" transform="scale(0.292969 0.292969)" d="M333.121 670.25L334.633 670.083C336.104 670.06 337.472 670.756 338.421 671.862C339.36 672.955 340.081 674.669 339.824 676.131C339.589 677.469 338.813 678.856 338.022 679.932C335.074 683.943 331.434 687.566 328.192 691.347L309.934 712.825C301.474 722.689 293.552 733.367 284.528 742.702C283.163 744.115 281.638 745.166 279.948 746.157C278.768 746.432 277.642 746.478 276.5 746.004C274.991 745.377 274.302 744.145 273.614 742.75C273.46 741.298 273.387 740.023 273.947 738.641C275.561 734.65 279.507 730.98 282.332 727.77L295.263 712.702C305.885 700.026 316.048 686.345 327.44 674.386C329.176 672.564 330.752 671.21 333.121 670.25Z"/>
	<path fill="#081441" transform="scale(0.292969 0.292969)" d="M470.538 882.431L497.836 883.584C502.072 884.488 507.239 883.995 511.613 883.985L552.548 882.932L546.92 891.25C538.955 902.171 529.073 907.115 516 909.153C509.361 910.188 503.207 909.089 496.837 907.306C483.774 903.651 476.792 893.67 470.538 882.431Z"/>
	<path fill="#082A50" transform="scale(0.292969 0.292969)" d="M549.068 831.687L607.253 832.019C601.518 850.373 587.724 866.886 570.659 875.789C567.225 877.58 563.626 878.995 559.96 880.237C557.675 881.011 554.401 881.387 552.548 882.932L511.613 883.985C507.239 883.995 502.072 884.488 497.836 883.584C500.752 881.796 504.541 880.669 507.67 879.164C520.639 872.926 532.443 864.337 539.391 851.357C542.678 845.218 544.725 838.607 547.023 832.062L549.068 831.687Z"/>
	<path fill="#113D65" transform="scale(0.292969 0.292969)" d="M412.74 832.112L547.023 832.062C544.725 838.607 542.678 845.218 539.391 851.357C532.443 864.337 520.639 872.926 507.67 879.164C504.541 880.669 500.752 881.796 497.836 883.584L470.538 882.431C466.009 880.844 461.28 879.586 456.892 877.64C442.39 871.207 430.347 860.688 421.644 847.462C419.879 844.78 418.179 842.014 416.711 839.157C415.654 837.099 414.691 834.384 413.197 832.628L412.74 832.112Z"/>
	<path fill="#081441" transform="scale(0.292969 0.292969)" d="M549.484 799.103C554.144 799.909 559.266 799.566 563.992 799.544L594.165 799.369C599.126 799.338 604.587 798.871 609.498 799.483L609.565 809.934C615.003 810.788 621.317 811.998 624.866 816.588C626.297 818.438 627.18 821.639 626.771 823.96C626.239 826.98 624.541 829.156 621.951 830.75C618.474 832.89 611.295 832.022 607.253 832.019L549.068 831.687L547.023 832.062L412.74 832.112L411.884 832.099C409.54 829.881 406.619 827.064 406.053 823.75C405.365 819.726 406.996 816.872 409.024 813.623C410.007 813.053 410.567 812.386 411.308 811.543C409.914 807.908 410.29 802.986 410.142 799.091C414.042 799.754 418.155 799.5 422.105 799.504L441.309 799.496L515.621 799.243L538.643 799.188C542.134 799.177 546.028 798.778 549.484 799.103Z"/>
	<path fill="#113D65" transform="scale(0.292969 0.292969)" d="M609.565 809.934C615.003 810.788 621.317 811.998 624.866 816.588C626.297 818.438 627.18 821.639 626.771 823.96C626.239 826.98 624.541 829.156 621.951 830.75C618.474 832.89 611.295 832.022 607.253 832.019L549.068 831.687C551.327 829.998 553.557 828.128 554.868 825.585C556.151 823.096 556.216 819.537 555.101 816.997C553.781 813.99 551.57 811.212 548.41 810.124L590.883 810.104C596.821 810.123 603.73 810.851 609.565 809.934Z"/>
	<path fill="#376588" transform="scale(0.292969 0.292969)" d="M411.308 811.543C412.535 810.621 414.582 810.572 416.091 810.477C432.744 809.432 449.903 810.224 466.621 810.14L548.41 810.124C551.57 811.212 553.781 813.99 555.101 816.997C556.216 819.537 556.151 823.096 554.868 825.585C553.557 828.128 551.327 829.998 549.068 831.687L547.023 832.062L412.74 832.112L411.884 832.099C409.54 829.881 406.619 827.064 406.053 823.75C405.365 819.726 406.996 816.872 409.024 813.623C410.007 813.053 410.567 812.386 411.308 811.543Z"/>
	<path fill="#081441" transform="scale(0.292969 0.292969)" d="M606.832 713.137L607.75 714.321L608.418 714.391C612.727 714.872 616.713 716.384 619.422 719.957C621.144 722.229 622.139 725.031 621.689 727.912C621.188 731.115 618.966 733.948 616.386 735.807C614.57 737.115 612.059 737.596 609.906 738.073C609.993 740.313 610.264 742.697 610.11 744.926C614.938 745.333 620.748 745.562 624.204 749.476C626.02 751.532 627.08 753.97 626.761 756.749C626.425 759.682 624.515 762.748 622.098 764.434C619.046 766.564 613.226 767.137 609.57 766.774L609.888 776.923C613.891 776.852 619.818 778.429 622.75 781.272C624.878 783.336 626.554 786.338 626.479 789.371C626.409 792.233 624.906 795.194 622.741 797.046C619.721 799.629 613.311 799.672 609.498 799.483C604.587 798.871 599.126 799.338 594.165 799.369L563.992 799.544C559.266 799.566 554.144 799.909 549.484 799.103C546.028 798.778 542.134 799.177 538.643 799.188L515.621 799.243L441.309 799.496L422.105 799.504C418.155 799.5 414.042 799.754 410.142 799.091L409.669 798.885C409.465 797.98 409.614 798.229 409.174 797.559C407.871 795.572 406.321 793.512 405.68 791.192C404.488 786.879 406.732 783.674 408.886 780.139L410.623 778.559C410.524 775.402 411.192 768.812 409.683 766.261L411.292 766.06C408.241 763.196 406.629 760.532 405.301 756.64C406.011 752.714 407.792 749.747 409.615 746.245L410.483 745.503C409.935 742.114 410.061 738.565 410.017 735.134C407.597 734.966 404.994 733.953 403.188 732.31C401.026 730.342 399.954 727.925 400.027 725C400.104 721.881 402.02 719.371 404.25 717.378C407.316 714.639 412.175 713.784 416.164 714.051C418.997 715.626 451.562 714.189 457.976 714.625L485.957 714.987L497.405 714.963L514.128 714.95L527.394 714.987L538.897 714.998L552.582 714.999L594.269 714.871C597.481 715.224 603.183 715.525 606.25 714.65L606.832 713.137Z"/>
	<path fill="#113D65" transform="scale(0.292969 0.292969)" d="M552.599 744.831L610.11 744.926C614.938 745.333 620.748 745.562 624.204 749.476C626.02 751.532 627.08 753.97 626.761 756.749C626.425 759.682 624.515 762.748 622.098 764.434C619.046 766.564 613.226 767.137 609.57 766.774C607.726 766.299 605.671 766.509 603.764 766.504L592.728 766.495L551.185 766.481C554.744 762.86 557.962 760.74 558.027 755.094C558.077 750.73 555.444 747.784 552.599 744.831Z"/>
	<path fill="#113D65" transform="scale(0.292969 0.292969)" d="M609.888 776.923C613.891 776.852 619.818 778.429 622.75 781.272C624.878 783.336 626.554 786.338 626.479 789.371C626.409 792.233 624.906 795.194 622.741 797.046C619.721 799.629 613.311 799.672 609.498 799.483C604.587 798.871 599.126 799.338 594.165 799.369L563.992 799.544C559.266 799.566 554.144 799.909 549.484 799.103C550.465 798.498 551.403 797.868 552.265 797.097C555.135 794.532 557.034 791.701 557.048 787.713C557.063 783.493 554.569 780.923 551.849 778.089C548.355 777.421 543.924 777.912 540.347 777.91L513.52 777.908L412.928 777.969C416.661 777.066 420.972 777.454 424.803 777.449L445.924 777.432L519.6 777.426L552.125 777.6C559.219 777.31 607.632 778.598 609.888 776.923Z"/>
	<path fill="#376588" transform="scale(0.292969 0.292969)" d="M410.623 778.559C411.451 778.002 411.955 778.053 412.928 777.969L513.52 777.908L540.347 777.91C543.924 777.912 548.355 777.421 551.849 778.089C554.569 780.923 557.063 783.493 557.048 787.713C557.034 791.701 555.135 794.532 552.265 797.097C551.403 797.868 550.465 798.498 549.484 799.103C546.028 798.778 542.134 799.177 538.643 799.188L515.621 799.243L441.309 799.496L422.105 799.504C418.155 799.5 414.042 799.754 410.142 799.091L409.669 798.885C409.465 797.98 409.614 798.229 409.174 797.559C407.871 795.572 406.321 793.512 405.68 791.192C404.488 786.879 406.732 783.674 408.886 780.139L410.623 778.559Z"/>
	<path fill="#376588" transform="scale(0.292969 0.292969)" d="M410.483 745.503L410.914 745.416L411.635 745.279C418.096 743.956 424.538 744.686 431.069 744.76L453.898 744.787L552.599 744.831C555.444 747.784 558.077 750.73 558.027 755.094C557.962 760.74 554.744 762.86 551.185 766.481L455.71 766.726L428.88 766.746C423.103 766.743 416.989 767.073 411.292 766.06C408.241 763.196 406.629 760.532 405.301 756.64C406.011 752.714 407.792 749.747 409.615 746.245L410.483 745.503Z"/>
	<path fill="#081441" transform="scale(0.292969 0.292969)" d="M606.832 713.137L607.75 714.321L608.418 714.391C612.727 714.872 616.713 716.384 619.422 719.957C621.144 722.229 622.139 725.031 621.689 727.912C621.188 731.115 618.966 733.948 616.386 735.807C614.57 737.115 612.059 737.596 609.906 738.073C609.993 740.313 610.264 742.697 610.11 744.926L552.599 744.831L453.898 744.787L431.069 744.76C424.538 744.686 418.096 743.956 411.635 745.279L410.914 745.416L410.483 745.503C409.935 742.114 410.061 738.565 410.017 735.134C407.597 734.966 404.994 733.953 403.188 732.31C401.026 730.342 399.954 727.925 400.027 725C400.104 721.881 402.02 719.371 404.25 717.378C407.316 714.639 412.175 713.784 416.164 714.051C418.997 715.626 451.562 714.189 457.976 714.625L485.957 714.987L497.405 714.963L514.128 714.95L527.394 714.987L538.897 714.998L552.582 714.999L594.269 714.871C597.481 715.224 603.183 715.525 606.25 714.65L606.832 713.137Z"/>
	<path fill="#082A50" transform="scale(0.292969 0.292969)" d="M416.164 714.051C418.997 715.626 451.562 714.189 457.976 714.625L485.957 714.987L497.405 714.963L514.128 714.95L527.394 714.987L538.897 714.998L552.582 714.999C553.486 718.364 556.105 724.501 554.4 727.534C552.572 730.787 549.669 733.41 545.944 734.26C542.511 735.043 538.606 734.801 535.091 734.809L517.06 734.802L444.933 734.79L423.397 734.791C418.991 734.795 414.375 734.505 410.017 735.134C407.597 734.966 404.994 733.953 403.188 732.31C401.026 730.342 399.954 727.925 400.027 725C400.104 721.881 402.02 719.371 404.25 717.378C407.316 714.639 412.175 713.784 416.164 714.051Z"/>
	<path fill="#F8C74A" transform="scale(0.292969 0.292969)" d="M416.164 714.051C414.709 706.138 413.696 698.297 411.764 690.443C408.845 678.571 404.121 667.074 398.533 656.223C385.833 631.56 367.526 612.717 349.484 592.122C341.054 582.498 332.676 572.439 325.639 561.738C303.181 527.587 289.859 486.751 289.464 445.75C289.404 439.477 289.207 433.008 289.659 426.758C293.577 372.565 316.087 321.971 354.191 283.124C395.508 241.002 454.361 218.12 513.033 217.524L511.958 237.836L511.937 246.183C511.937 247.009 512.166 248.741 511.939 249.5C511.81 249.928 511.48 250.267 511.25 250.651L510.324 250.628C509.409 250.611 508.625 250.713 507.73 250.916L493.204 252.75C491.159 253.089 488.128 254.113 486.139 253.707C473.533 257.03 461.868 261.749 450.115 267.331C412.889 285.012 378.864 313.017 357.961 348.905C337.938 383.284 327.319 425.032 330.854 464.882C331.35 470.468 331.922 476.145 332.944 481.659C334.079 487.783 335.759 493.885 336.558 500.059C339.654 508.446 342.417 516.863 346.192 524.989C352.276 538.087 360.344 549.526 369.641 560.5C373.89 565.517 378.746 571.166 383.939 575.224C387.645 578.121 390.836 581.58 394.412 584.616L399.5 588.877C400.249 589.486 401.754 590.354 402.202 591.185C408.465 598.207 416.128 603.793 422.182 611.024C426.302 615.947 430.056 621.12 433.554 626.5C435.238 629.09 436.728 632.11 438.699 634.469C451.171 637.787 462.914 640.562 475.746 642.186L485.957 714.987L457.976 714.625C451.562 714.189 418.997 715.626 416.164 714.051Z"/>
	<path fill="#FBF27B" transform="scale(0.292969 0.292969)" d="M336.558 500.059L336.242 499.701C334.258 496.966 333.656 491.475 332.79 488.175C325.861 461.781 323.643 434.759 327.637 407.687C334.92 358.32 363.154 316.098 402.98 286.847C423.249 271.959 447.313 260.87 471.891 255.463C476.436 254.463 481.479 252.982 486.139 253.707C473.533 257.03 461.868 261.749 450.115 267.331C412.889 285.012 378.864 313.017 357.961 348.905C337.938 383.284 327.319 425.032 330.854 464.882C331.35 470.468 331.922 476.145 332.944 481.659C334.079 487.783 335.759 493.885 336.558 500.059Z"/>
	<path fill="#CD6246" transform="scale(0.292969 0.292969)" d="M438.699 634.469C451.171 637.787 462.914 640.562 475.746 642.186L485.957 714.987L457.976 714.625C456.106 686.361 450.636 660.292 438.699 634.469Z"/>
	<path fill="#DAA75F" transform="scale(0.292969 0.292969)" d="M513.033 217.524C553.965 219.062 594.392 229.078 629.535 250.671C646.974 261.385 662.738 274.869 676.646 289.848C717.164 333.489 735.839 392.827 733.505 451.703C731.573 500.473 712.266 548.014 681.724 585.821C671.733 598.189 660.173 609.259 649.447 620.98C625.179 647.498 608.4 676.594 606.832 713.137L606.25 714.65C603.183 715.525 597.481 715.224 594.269 714.871L552.582 714.999L538.897 714.998L548.792 638.512L553.761 602.711L555.572 601.99C563.77 598.431 571.729 593.107 579 587.951C611.069 565.207 637.405 532.564 651.739 495.86C668.694 452.441 667.744 402.063 648.959 359.399C630.858 318.291 598.255 285.762 558.25 265.694C547.071 260.085 535.565 256.34 523.977 251.836L521.5 251.508C518.542 250.83 515.608 250.854 512.576 250.748L507.73 250.916C508.625 250.713 509.409 250.611 510.324 250.628L511.25 250.651C511.48 250.267 511.81 249.928 511.939 249.5C512.166 248.741 511.937 247.009 511.937 246.183L511.958 237.836L513.033 217.524Z"/>
	<path fill="#CD6246" transform="scale(0.292969 0.292969)" d="M595.015 620.664C592.012 625.377 588.436 629.677 585.598 634.5C575.243 652.096 569.46 671.726 566.244 691.779L563.445 714.513L583.861 714.495C587.207 714.498 591.003 714.115 594.269 714.871L552.582 714.999L538.897 714.998L548.792 638.512C564.683 636.161 580.428 627.06 595.015 620.664Z"/>
	<path fill="#EEA619" transform="scale(0.292969 0.292969)" d="M523.977 251.836C530.838 250.882 538.679 252.203 545.418 253.556C572.289 258.951 599.355 270.954 621.293 287.467C663.573 319.293 690.166 366.768 697.383 418.96C703.996 466.781 686.057 519.772 657.168 557.745C653.046 563.163 648.684 568.814 643.99 573.748L623.497 593.498L595.015 620.664C580.428 627.06 564.683 636.161 548.792 638.512L553.761 602.711L555.572 601.99C563.77 598.431 571.729 593.107 579 587.951C611.069 565.207 637.405 532.564 651.739 495.86C668.694 452.441 667.744 402.063 648.959 359.399C630.858 318.291 598.255 285.762 558.25 265.694C547.071 260.085 535.565 256.34 523.977 251.836Z"/>
	<path fill="#F7DA3C" transform="scale(0.292969 0.292969)" d="M512.576 250.748C515.608 250.854 518.542 250.83 521.5 251.508L523.977 251.836C535.565 256.34 547.071 260.085 558.25 265.694C598.255 285.762 630.858 318.291 648.959 359.399C667.744 402.063 668.694 452.441 651.739 495.86C637.405 532.564 611.069 565.207 579 587.951C571.729 593.107 563.77 598.431 555.572 601.99L553.761 602.711L548.792 638.512L538.897 714.998L527.394 714.987L514.128 714.95L497.405 714.963L485.957 714.987L475.746 642.186C462.914 640.562 451.171 637.787 438.699 634.469C436.728 632.11 435.238 629.09 433.554 626.5C430.056 621.12 426.302 615.947 422.182 611.024C416.128 603.793 408.465 598.207 402.202 591.185C401.754 590.354 400.249 589.486 399.5 588.877L394.412 584.616C390.836 581.58 387.645 578.121 383.939 575.224C378.746 571.166 373.89 565.517 369.641 560.5C360.344 549.526 352.276 538.087 346.192 524.989C342.417 516.863 339.654 508.446 336.558 500.059C335.759 493.885 334.079 487.783 332.944 481.659C331.922 476.145 331.35 470.468 330.854 464.882C327.319 425.032 337.938 383.284 357.961 348.905C378.864 313.017 412.889 285.012 450.115 267.331C461.868 261.749 473.533 257.03 486.139 253.707C488.128 254.113 491.159 253.089 493.204 252.75L507.73 250.916L512.576 250.748Z"/>
	<path fill="#F9F9F7" transform="scale(0.292969 0.292969)" d="M371.469 398.682C375.656 398.874 379.214 399.145 382.75 401.744C386.39 404.419 389.889 409.182 390.415 413.764C390.953 418.455 389.831 423.738 386.774 427.427C383.64 431.211 379.236 433.258 374.433 433.827C369.973 433.609 366.524 433.143 362.731 430.566C358.978 428.015 356.335 423.182 355.62 418.75C354.958 414.65 356.383 409.343 358.79 405.999C361.817 401.793 366.517 399.67 371.469 398.682Z"/>
	<path fill="#EEA619" transform="scale(0.292969 0.292969)" d="M402.202 591.185C411.611 595.5 420.876 600.218 430.586 603.845C443.973 608.846 457.937 611.817 471.754 615.301L475.746 642.186C462.914 640.562 451.171 637.787 438.699 634.469C436.728 632.11 435.238 629.09 433.554 626.5C430.056 621.12 426.302 615.947 422.182 611.024C416.128 603.793 408.465 598.207 402.202 591.185Z"/>
	<path fill="#F9F9F7" transform="scale(0.292969 0.292969)" d="M402.867 322.607C406.789 322.132 411.86 321.943 415.616 323.245L416.25 323.48C418.014 324.105 419.63 324.827 421.242 325.778C426.494 328.876 430.117 334.376 431.561 340.248C433.444 347.905 431.057 355.71 427.033 362.249C421.617 371.05 413.005 376.506 403.104 378.929C396.935 380.033 389.421 378.491 384.117 375.273C379.459 372.446 375.7 366.758 374.484 361.491L374.325 360.75C372.868 354.123 374.937 347.393 377.959 341.5C383.332 331.022 392.063 326.042 402.867 322.607Z"/>
	<path fill="#F9F9F7" transform="scale(0.292969 0.292969)" d="M512.918 436.361C516.978 436.407 519.721 438.472 522.469 441.261C526.911 445.77 529.083 452.162 532.525 457.39C536.023 451.721 542.673 439.125 549.734 437.187C551.602 436.675 553.907 437.599 555.474 438.571C561.002 441.999 563.534 449.493 567.247 454.536C575.192 444.458 585.269 434.572 598.75 433.106C599.574 433.016 600.257 433.145 601.052 433.319L601.742 433.463C605.02 434.203 607.798 436.114 609.634 438.938C611.398 441.651 612.084 445.061 611.386 448.24C610.036 454.389 604.719 458.889 599.569 462.046C590.866 467.382 581.169 470.733 571.197 472.693L553.761 602.711L548.792 638.512L538.897 714.998L527.394 714.987L514.128 714.95L497.405 714.963L485.957 714.987L475.746 642.186L471.754 615.301C470.596 604.572 452.136 477.14 450.827 475.573C450.276 474.914 446.884 473.673 445.971 473.198L432.719 465.846C425.832 462.011 417.71 458.017 414.583 450.25C413.608 447.828 413.567 444.714 414.668 442.338L414.958 441.75C416.21 439.16 418.311 437.028 420.8 435.583C424.623 433.362 428.231 433.009 432.498 434.085C445.267 437.303 452.549 447.509 458.993 458.18C461.767 451.368 464.083 442.855 470.23 438.25C471.518 437.285 473.286 437 474.848 437.346C484.251 439.436 489.06 454.233 493.623 461.388L498.45 451C501.866 444.298 505.494 438.757 512.918 436.361Z"/>
	<path fill="#F8C74A" transform="scale(0.292969 0.292969)" d="M517.78 463.383L504.821 463.177L504.648 462.878C507.32 457.827 509.791 452.335 513.765 448.172L515.021 448.429C512.294 451.799 512.973 458.348 513.027 462.5C514.055 463.064 515.04 462.987 516.178 463.065C517.101 463.128 516.748 463.091 517.78 463.383Z"/>
	<path fill="#F8C74A" transform="scale(0.292969 0.292969)" d="M474.55 449.135L481.031 461.75L480.62 462.75L476.31 462.986L468.969 462.83L474.55 449.135Z"/>
	<path fill="#EEA619" transform="scale(0.292969 0.292969)" d="M515.021 448.429C519.464 451.956 523.04 458.637 525.883 463.515L517.78 463.383C516.748 463.091 517.101 463.128 516.178 463.065C515.04 462.987 514.055 463.064 513.027 462.5C512.973 458.348 512.294 451.799 515.021 448.429Z"/>
	<path fill="#F8C74A" transform="scale(0.292969 0.292969)" d="M426.622 444.25C427.47 444.261 428.278 444.294 429.114 444.45C438.132 446.129 443.477 454.621 448.267 461.597C442.29 458.701 436.236 455.656 430.899 451.67C429.367 450.527 427.36 449.104 426.552 447.352C425.883 445.902 426.079 445.633 426.622 444.25Z"/>
	<path fill="#F8C74A" transform="scale(0.292969 0.292969)" d="M597.311 444.25C597.869 444.231 598.729 444.248 599.25 444.417C600.46 444.808 600.771 445.484 601.328 446.5C597.847 453.037 586.064 456.697 579.631 459.307L577.75 460.007L577.124 459.5L577.426 458.917C581.233 451.904 589.771 446.343 597.311 444.25Z"/>
	<path fill="#F8C74A" transform="scale(0.292969 0.292969)" d="M551.353 448.506C553.912 451.809 556.18 455.319 558.326 458.9C559.233 460.415 560.457 462.067 560.955 463.75C559.084 465.066 554.456 464.164 552.125 464.006L540.144 463.981L551.353 448.506Z"/>
	<path fill="#BE4A40" transform="scale(0.292969 0.292969)" d="M513.417 643.037L536.348 641.194L527.394 714.987L514.128 714.95L513.417 643.037Z"/>
	<path fill="#CD6246" transform="scale(0.292969 0.292969)" d="M513.098 642.946L513.417 643.037L514.128 714.95L497.405 714.963L487.7 643.063L513.098 642.946Z"/>
	<path fill="#F7DA3C" transform="scale(0.292969 0.292969)" d="M484.325 617.178L462.792 474.484L512.959 474.491L513.048 616.099C508.053 616.581 503.072 617.038 498.049 617.071C493.668 617.101 488.599 616.502 484.325 617.178Z"/>
	<path fill="#F8C74A" transform="scale(0.292969 0.292969)" d="M512.959 474.491L559.155 474.485L540.786 609.38L536.348 641.194L513.417 643.037L513.098 642.946L487.7 643.063L484.325 617.178C488.599 616.502 493.668 617.101 498.049 617.071C503.072 617.038 508.053 616.581 513.048 616.099L512.959 474.491Z"/>
	<path fill="#EEA619" transform="scale(0.292969 0.292969)" d="M513.098 642.946L513.189 616.404L540.786 609.38L536.348 641.194L513.417 643.037L513.098 642.946Z"/>
	<path fill="#F8C74A" transform="scale(0.292969 0.292969)" d="M512.576 250.748C515.608 250.854 518.542 250.83 521.5 251.508L523.977 251.836C535.565 256.34 547.071 260.085 558.25 265.694C598.255 285.762 630.858 318.291 648.959 359.399C667.744 402.063 668.694 452.441 651.739 495.86C637.405 532.564 611.069 565.207 579 587.951C571.729 593.107 563.77 598.431 555.572 601.99L553.761 602.711L571.197 472.693C581.169 470.733 590.866 467.382 599.569 462.046C604.719 458.889 610.036 454.389 611.386 448.24C612.084 445.061 611.398 441.651 609.634 438.938C607.798 436.114 605.02 434.203 601.742 433.463L601.052 433.319C600.257 433.145 599.574 433.016 598.75 433.106C585.269 434.572 575.192 444.458 567.247 454.536C563.534 449.493 561.002 441.999 555.474 438.571C553.907 437.599 551.602 436.675 549.734 437.187C542.673 439.125 536.023 451.721 532.525 457.39C529.083 452.162 526.911 445.77 522.469 441.261C519.721 438.472 516.978 436.407 512.918 436.361C512.025 428.568 512.538 420.304 512.536 412.446L512.535 370.972L512.576 250.748Z"/>
</svg>
