<?xml version="1.0" encoding="utf-8" ?>
<svg xmlns="http://www.w3.org/2000/svg" xmlns:xlink="http://www.w3.org/1999/xlink" width="300" height="300">
	<path fill="#D3E401" transform="scale(0.292969 0.292969)" d="M452.879 142.302C452.098 140.483 450.764 138.03 451.041 136C451.478 132.791 454.827 129.872 457.402 128.184C461.963 125.193 467.729 123.569 472.977 122.2C487.2 118.488 501.61 117.682 516.25 118.046C526.988 118.313 537.961 119.182 548.431 121.665C555.15 123.258 567.171 126.459 570.833 132.923C572.65 136.129 571.452 138.654 570.478 141.88L569.687 142.233C565.822 144.002 562.391 146.468 558.418 148.139C546.699 153.068 531.539 154.919 518.875 155.011C500.177 155.05 481.071 154.924 463.434 147.722C459.729 146.209 456.426 144.118 452.879 142.302Z"/>
	<path fill="#8D9C02" transform="scale(0.292969 0.292969)" d="M518.875 155.011C531.539 154.919 546.699 153.068 558.418 148.139C562.391 146.468 565.822 144.002 569.687 142.233L570.478 141.88L556.598 198.529C555.191 202.322 554.559 206.453 553.673 210.396L549.704 229.551L518.044 230.57L476.233 229.526L468.398 197.961L452.879 142.302C456.426 144.118 459.729 146.209 463.434 147.722C481.071 154.924 500.177 155.05 518.875 155.011Z"/>
	<path fill="#9DB702" transform="scale(0.292969 0.292969)" d="M518.875 155.011C531.539 154.919 546.699 153.068 558.418 148.139C562.391 146.468 565.822 144.002 569.687 142.233L570.478 141.88L556.598 198.529C555.191 202.322 554.559 206.453 553.673 210.396L549.704 229.551L518.044 230.57L518.703 184.312L518.573 166.56C518.5 162.814 517.981 158.637 518.875 155.011Z"/>
	<path fill="#27B232" transform="scale(0.292969 0.292969)" d="M424.462 209.171C437.913 202.27 453.479 199.49 468.398 197.961L476.233 229.526L518.044 230.57L549.704 229.551L553.673 210.396C554.559 206.453 555.191 202.322 556.598 198.529C569.078 200.334 581.507 201.429 593.272 206.441C596.51 207.82 600.216 209.51 602.419 212.363L603.025 213.231L603.496 213.879C604.013 216.478 604.067 218.705 603.949 221.331L603.537 241.389C603.527 242.872 603.896 247.045 603.223 248.354C602.812 249.152 601.574 250.271 600.92 250.901C596.741 254.928 589.503 257.313 583.996 258.694L584.108 271.052C576.866 273.593 569.303 276.025 561.738 277.396C557.177 277.752 552.512 279.076 547.943 279.667C538.151 280.935 527.901 281.698 518.045 281.978C512.833 282.126 507.491 281.594 502.278 281.332L478.471 279.725C473.293 279.122 468.191 278.073 462.996 277.662C457.981 277.153 452.317 275.501 447.511 273.947C445.076 273.16 442.244 271.551 439.75 271.416L439.3 274.451L438.886 259.246C432.485 257.185 425.29 255.115 420.25 250.387C419.783 249.949 418.495 248.756 418.273 248.156C417.788 246.849 418.264 243.271 418.267 241.651C418.283 234.796 418.419 227.985 417.971 221.138L417.961 216.75C418.417 213.28 421.851 211.033 424.462 209.171Z"/>
	<path fill="#0F6039" transform="scale(0.292969 0.292969)" d="M438.886 259.246L461.503 262.804C485.94 265.643 510.163 266.555 534.734 265.266C551.425 264.39 567.738 262.724 583.996 258.694L584.108 271.052C576.866 273.593 569.303 276.025 561.738 277.396C557.177 277.752 552.512 279.076 547.943 279.667C538.151 280.935 527.901 281.698 518.045 281.978C512.833 282.126 507.491 281.594 502.278 281.332L478.471 279.725C473.293 279.122 468.191 278.073 462.996 277.662C457.981 277.153 452.317 275.501 447.511 273.947C445.076 273.16 442.244 271.551 439.75 271.416L439.3 274.451L438.886 259.246Z"/>
	<path fill="#B4FF85" transform="scale(0.292969 0.292969)" d="M424.462 209.171C437.913 202.27 453.479 199.49 468.398 197.961L476.233 229.526L518.044 230.57L549.704 229.551L553.673 210.396C554.559 206.453 555.191 202.322 556.598 198.529C569.078 200.334 581.507 201.429 593.272 206.441C596.51 207.82 600.216 209.51 602.419 212.363L603.025 213.231L603.496 213.879C604.013 216.478 604.067 218.705 603.949 221.331C603.627 222.485 603.111 223.137 602.307 223.997C590.919 236.18 553.452 240.122 537.234 240.876C512.217 242.04 486.305 241.663 461.5 238.024C450.758 236.448 439.346 234.282 429.524 229.472C425.244 227.375 421.475 224.327 417.971 221.138L417.961 216.75C418.417 213.28 421.851 211.033 424.462 209.171Z"/>
	<path fill="#32FE21" transform="scale(0.292969 0.292969)" d="M556.598 198.529C569.078 200.334 581.507 201.429 593.272 206.441C596.51 207.82 600.216 209.51 602.419 212.363L603.025 213.231L603.496 213.879L602.995 214.064C598.952 215.616 595.4 218.134 591.411 219.826C578.118 225.465 564.056 228.359 549.704 229.551L553.673 210.396C554.559 206.453 555.191 202.322 556.598 198.529Z"/>
	<path fill="#32FE21" transform="scale(0.292969 0.292969)" d="M424.462 209.171C437.913 202.27 453.479 199.49 468.398 197.961L476.233 229.526C465.703 228.206 455.579 227.065 445.267 224.367C441.193 223.301 436.946 222.236 433.149 220.367C427.955 217.811 426.143 214.44 424.462 209.171Z"/>
	<path fill="#32FE21" transform="scale(0.292969 0.292969)" d="M439.3 274.451L439.75 271.416C442.244 271.551 445.076 273.16 447.511 273.947C452.317 275.501 457.981 277.153 462.996 277.662C468.191 278.073 473.293 279.122 478.471 279.725L502.278 281.332C507.491 281.594 512.833 282.126 518.045 281.978C527.901 281.698 538.151 280.935 547.943 279.667C552.512 279.076 557.177 277.752 561.738 277.396C569.303 276.025 576.866 273.593 584.108 271.052L584.138 379.236L584.042 409.026C584.008 416.527 583.647 424.047 584.869 431.477C586.018 438.471 588.609 445.398 593.688 450.494C601.659 458.489 612.532 461.99 622.207 467.358C629.964 471.66 637.37 476.729 644.573 481.891C706.387 526.189 748.17 596.262 748.636 673.242C748.873 712.434 739.276 752.417 719.659 786.509C709.802 803.638 696.54 820.112 682.623 834.13C636.784 880.306 575.842 905.416 510.781 905.509C465.274 905.574 418.196 890.56 380.488 865.168C375.13 861.561 370.156 857.207 365.149 853.135C357.492 846.906 349.979 840.728 342.988 833.746C299.402 790.217 274.844 732.388 274.863 670.686C274.867 655.511 277.12 640.276 280.327 625.478C289.677 582.335 311.735 542.458 343.036 511.31C357.945 496.474 374.625 483.828 392.75 473.185C397.068 470.649 401.448 468.157 406 466.067C413.522 462.612 422.057 459.282 427.904 453.218C435.808 445.019 439.556 431.966 439.608 420.89L439.539 321.632L439.454 289.955C439.437 284.894 439.805 279.474 439.3 274.451ZM339.615 602.845C336.694 607.34 333.053 611.174 330.747 616.078C328.21 621.476 327.149 627.38 326.464 633.25C324.811 647.413 326.211 660.954 329.126 674.862L336.399 701.878L337.599 703.091C349.931 707.015 361.846 711.748 374.388 715.071C442.159 733.028 515.074 737.095 584.5 728.164C595.236 726.783 605.625 724.439 616.233 722.368C621.543 721.332 627.887 720.838 632.902 718.858C631.946 715.477 634.003 708.312 634.491 704.734L637.652 678.739C638.814 667.549 638.378 655.207 637.961 643.917C637.199 623.29 630.968 604.127 625.502 584.477L624.115 583.848C611.549 579.947 598.492 577.918 585.488 576.084C554.045 571.65 522.29 570.393 490.567 571.453C451.859 572.748 412.826 577.693 375.672 588.903C364.017 592.419 351.504 596.489 340.748 602.219L339.615 602.845Z"/>
	<path fill="#B4FF85" transform="scale(0.292969 0.292969)" d="M625.502 584.477C631.531 585.511 637.547 587.745 643.392 589.561C659.163 594.46 675.253 600.327 689.776 608.265C698.151 612.843 705.609 618.153 713.335 623.705L714.264 625.373C717.536 637.44 720.283 648.039 718.9 660.651C718.402 665.187 717.53 669.703 715.318 673.747C712.627 678.667 708.126 682.635 703.857 686.154C683.203 703.181 657.848 710.651 632.902 718.858C631.946 715.477 634.003 708.312 634.491 704.734L637.652 678.739C638.814 667.549 638.378 655.207 637.961 643.917C637.199 623.29 630.968 604.127 625.502 584.477Z"/>
	<path fill="#27B232" transform="scale(0.292969 0.292969)" d="M337.599 703.091C345.682 722.497 354.614 741.463 366.125 759.107C388.7 793.709 419.475 819.617 456.841 836.961C502.622 858.212 556.075 859.732 603.326 842.28C643.493 827.445 679.608 796.135 700.711 758.941C708.408 745.374 714.158 730.764 718.783 715.901C720.929 709.004 722.911 701.896 724.251 694.794L726.249 681.545C726.556 679.27 726.552 676.598 727.522 674.503L727.88 674.75L727.394 681.462C724.861 721.386 710.852 763.364 687.258 795.805C678.062 808.449 666.988 819.982 655.298 830.324C642.66 841.505 628.881 851.592 614.03 859.628C578.417 878.898 536.26 887.599 495.909 884.9C440.476 881.193 384.247 853.843 347.779 811.875C340.752 803.789 333.993 795.352 328.252 786.29C323.699 779.104 319.9 771.182 316.343 763.462C301.87 732.047 294.807 698.093 297.185 663.467L298.709 668.269C304.931 685.353 320.743 694.658 336.399 701.878L337.599 703.091Z"/>
	<path fill="#84FE12" fill-opacity="0.98823529" transform="scale(0.292969 0.292969)" d="M339.615 602.845L340.748 602.219C351.504 596.489 364.017 592.419 375.672 588.903C412.826 577.693 451.859 572.748 490.567 571.453C522.29 570.393 554.045 571.65 585.488 576.084C598.492 577.918 611.549 579.947 624.115 583.848L625.502 584.477C630.968 604.127 637.199 623.29 637.961 643.917C638.378 655.207 638.814 667.549 637.652 678.739L634.491 704.734C634.003 708.312 631.946 715.477 632.902 718.858C627.887 720.838 621.543 721.332 616.233 722.368C605.625 724.439 595.236 726.783 584.5 728.164C515.074 737.095 442.159 733.028 374.388 715.071C361.846 711.748 349.931 707.015 337.599 703.091L336.399 701.878L329.126 674.862C326.211 660.954 324.811 647.413 326.464 633.25C327.149 627.38 328.21 621.476 330.747 616.078C333.053 611.174 336.694 607.34 339.615 602.845Z"/>
	<path fill="#0B8B01" transform="scale(0.292969 0.292969)" d="M591.614 687.457C591.169 691.098 590.628 694.043 587.594 696.497C585.583 698.124 582.395 699.758 579.717 699.461C576.456 699.099 573.263 696.694 571.505 694C570.74 692.828 570.185 691.47 569.701 690.162L573.053 693.12C575.202 694.683 578.027 695.806 580.649 695.377C584.755 694.705 587.561 693.133 590.002 689.681L591.614 687.457Z"/>
	<path fill="#27B232" transform="scale(0.292969 0.292969)" d="M487.616 640.574C493.034 644.476 497.769 647.504 504.626 647.881C509.944 648.173 515.876 645.934 519.692 642.253C525.226 636.916 525.607 630.049 525.642 622.886C527.527 627.442 528.955 631.756 528.122 636.75L528.006 637.488C527.151 642.567 523.974 647.275 519.826 650.309C514.895 653.915 508.581 654.755 502.704 653.556C497.477 652.489 492.487 649.016 489.623 644.513L487.616 640.574Z"/>
	<path fill="#32FE21" transform="scale(0.292969 0.292969)" d="M569.701 690.162C569.453 689.494 569.27 688.833 569.137 688.13C568.607 685.339 570.076 681.496 571.695 679.26C573.373 676.942 576.141 675.39 579 675.161C581.894 674.929 586.021 676.411 588.105 678.374C590.767 680.882 591.467 683.961 591.614 687.457L590.002 689.681C587.561 693.133 584.755 694.705 580.649 695.377C578.027 695.806 575.202 694.683 573.053 693.12L569.701 690.162Z"/>
	<path fill="#27B232" transform="scale(0.292969 0.292969)" d="M466.917 661.489C468.836 665.227 469.954 668.845 470.582 673L470.712 673.827C472.031 682.892 469.617 692.925 464.193 700.347C458.929 707.55 450.397 712.992 441.562 714.339C432.429 715.731 422.804 713.351 415.422 707.823C408.163 702.387 404.561 695.789 402.207 687.207C405.364 691.323 407.779 695.558 411.914 698.838C418.429 704.005 427.056 706.651 435.328 705.736C445.34 704.628 453.384 700.554 459.595 692.544C466.7 683.381 468.268 672.716 466.917 661.489Z"/>
	<path fill="#32FE21" transform="scale(0.292969 0.292969)" d="M487.616 640.574C487.039 639.713 486.495 638.843 486.112 637.875C484.147 632.914 485.182 626.428 487.249 621.699C489.421 616.733 493.583 612.712 498.721 610.845C503.558 609.088 510.265 609.456 514.879 611.668L515.5 611.974C520.19 614.258 523.212 618.414 525.642 622.886C525.607 630.049 525.226 636.916 519.692 642.253C515.876 645.934 509.944 648.173 504.626 647.881C497.769 647.504 493.034 644.476 487.616 640.574Z"/>
	<path fill="#32FE21" transform="scale(0.292969 0.292969)" d="M402.207 687.207L400.909 681.798L400.799 681.066C399.589 673.288 401.036 665.923 404.546 658.921C408.524 650.983 414.968 644.937 423.525 642.165C431.572 639.558 439.855 639.459 447.832 642.698C455.443 645.788 463.746 653.784 466.917 661.489C468.268 672.716 466.7 683.381 459.595 692.544C453.384 700.554 445.34 704.628 435.328 705.736C427.056 706.651 418.429 704.005 411.914 698.838C407.779 695.558 405.364 691.323 402.207 687.207Z"/>
	<path fill="#27B232" transform="scale(0.292969 0.292969)" d="M462.996 277.662C468.191 278.073 473.293 279.122 478.471 279.725L502.278 281.332C507.491 281.594 512.833 282.126 518.045 281.978C527.901 281.698 538.151 280.935 547.943 279.667C552.512 279.076 557.177 277.752 561.738 277.396L561.761 310.125L561.913 361.38L561.925 400.083C561.893 412.111 561.005 424.328 563.588 436.165C566.018 447.304 571.833 458.315 579.496 466.746C587.722 475.795 596.619 479.692 606.974 485.607C615.832 490.666 624.456 495.845 632.758 501.795C669.173 527.894 695.478 563.06 713.02 604C715.882 610.681 718.576 617.499 720.301 624.57C720.854 626.839 721.619 629.581 721.664 631.909L721.596 632.842L714.264 625.373L713.335 623.705C705.609 618.153 698.151 612.843 689.776 608.265C675.253 600.327 659.163 594.46 643.392 589.561C637.547 587.745 631.531 585.511 625.502 584.477L624.115 583.848C611.549 579.947 598.492 577.918 585.488 576.084C554.045 571.65 522.29 570.393 490.567 571.453C451.859 572.748 412.826 577.693 375.672 588.903C364.017 592.419 351.504 596.489 340.748 602.219L339.615 602.845C336.435 603.839 333.292 605.621 330.352 607.178C318.854 613.268 309.346 621.489 300.846 631.261C302.357 621.648 305.443 613.201 308.809 604.112C325.027 560.316 355.637 523.057 394.799 497.803C399.458 494.799 404.255 491.691 409.235 489.25C418.229 484.842 428.989 481.18 436.715 474.75C448.382 465.039 457.045 449.742 460.354 435C463.763 419.809 462.318 403.372 462.256 387.913L462.377 321.118C462.379 306.557 461.625 292.197 462.996 277.662Z"/>
	<path fill="#0B8B01" transform="scale(0.292969 0.292969)" d="M507.817 433.49C508.786 435.404 508.815 438.465 508.256 440.533C507.793 442.243 506.123 444.689 504.5 445.496C502.384 446.548 499.093 446.866 496.893 445.965C494.711 445.071 493.072 443.755 492.22 441.513C491.72 440.197 491.423 439.026 491.532 437.608C492.655 438.637 493.87 439.808 495.25 440.487C496.795 441.249 498.827 441.537 500.469 441.003C504.47 439.703 505.969 436.99 507.817 433.49Z"/>
	<path fill="#32FE21" transform="scale(0.292969 0.292969)" d="M491.532 437.608C491.188 436.928 490.819 436.252 490.65 435.5C490.073 432.931 490.545 429.958 491.987 427.75C493.258 425.804 495.283 424.087 497.65 423.734C499.715 423.426 502.627 424.122 504.265 425.426C506.634 427.311 507.635 430.585 507.817 433.49C505.969 436.99 504.47 439.703 500.469 441.003C498.827 441.537 496.795 441.249 495.25 440.487C493.87 439.808 492.655 438.637 491.532 437.608Z"/>
	<path fill="#0B8B01" transform="scale(0.292969 0.292969)" d="M530.439 335.048C531.684 339.193 531.088 345.657 529.099 349.487C527.112 353.313 522.486 357.348 518.38 358.522C513.637 359.877 508.873 359.407 504.61 356.896C500.168 354.279 496.453 349.663 495.514 344.5L495.335 341.905C498.079 345.767 500.721 349.195 505.299 351.024C509.965 352.888 515.363 352.657 519.899 350.425C525.942 347.452 528.352 340.972 530.439 335.048Z"/>
	<path fill="#0B8B01" transform="scale(0.292969 0.292969)" d="M510.707 498.068C512.839 501.302 512.53 508.678 511.858 512.279C510.699 518.492 506.867 524.782 501.562 528.342L500.5 529L499.939 529.364C493.535 533.452 486.211 534.114 478.92 532.482C472.899 531.136 466.597 526.872 463.344 521.571C461.109 517.929 459.719 513.772 459.663 509.487L461.654 512.989C465.951 519.241 473.165 523.204 480.57 524.333C486.818 525.286 494.176 523.746 499.25 519.891C506.328 514.514 509.792 506.694 510.707 498.068Z"/>
	<path fill="#32FE21" transform="scale(0.292969 0.292969)" d="M495.335 341.905C494.814 340.545 494.487 339.205 494.272 337.768C493.522 332.739 495.087 327.568 498.084 323.517C500.788 319.862 504.729 317.714 509.218 317.127C514.629 316.419 520.395 317.967 524.606 321.447C528.651 324.79 530.016 330.035 530.439 335.048C528.352 340.972 525.942 347.452 519.899 350.425C515.363 352.657 509.965 352.888 505.299 351.024C500.721 349.195 498.079 345.767 495.335 341.905Z"/>
	<path fill="#32FE21" transform="scale(0.292969 0.292969)" d="M459.663 509.487L458.701 506.234C456.903 498.917 457.848 490.99 461.918 484.575C465.324 479.207 471.385 474.932 477.547 473.505L478.394 473.315C481.494 472.592 485.267 472.057 488.425 472.771L489 472.91C493.31 473.87 497.503 475.409 500.983 478.191C507.039 483.033 509.932 490.525 510.707 498.068C509.792 506.694 506.328 514.514 499.25 519.891C494.176 523.746 486.818 525.286 480.57 524.333C473.165 523.204 465.951 519.241 461.654 512.989L459.663 509.487Z"/>
	<path fill="#32FE21" transform="scale(0.292969 0.292969)" d="M624.115 583.848C624.359 581.54 622.419 578.41 621.47 576.23C614.01 559.083 603.898 542.422 592.136 527.873C581.084 514.204 569.09 501.065 555 490.473C554.099 489.795 550.502 487.569 550.254 486.675L557.894 485.336C562.951 484.631 568.5 484.841 573.5 485.832C593.093 489.714 610.058 499.639 626.192 511.07C649.787 527.788 670.783 547.695 687.203 571.623C698.303 587.797 707.129 605.069 713.335 623.705C705.609 618.153 698.151 612.843 689.776 608.265C675.253 600.327 659.163 594.46 643.392 589.561C637.547 587.745 631.531 585.511 625.502 584.477L624.115 583.848Z"/>
</svg>
