<?xml version="1.0" encoding="utf-8" ?>
<svg xmlns="http://www.w3.org/2000/svg" xmlns:xlink="http://www.w3.org/1999/xlink" width="371" height="371">
	<path fill="#43405D" transform="scale(0.362305 0.362305)" d="M823.704 840.022C829.48 837.418 834.126 832.977 839.154 829.232C843.856 825.729 848.473 822.519 853.843 820.115C862.488 816.246 872.093 814.677 881.322 812.848L809.752 903.248L788.314 930.816C786.565 933.075 782.928 939.008 780.575 940.332C779.647 940.854 776.949 941.01 775.858 941.119L748.725 943.595C750.445 939.875 753.321 936.611 755.73 933.312L765.954 918.898L818.763 845.072L823.704 840.022Z"/>
	<defs>
		<linearGradient id="gradient_0" gradientUnits="userSpaceOnUse" x1="192.50406" y1="767.02673" x2="215.74184" y2="656.1853">
			<stop offset="0" stop-color="#8390C1"/>
			<stop offset="1" stop-color="#BBC8DD"/>
		</linearGradient>
	</defs>
	<path fill="url(#gradient_0)" transform="scale(0.362305 0.362305)" d="M128.034 636.685L191.176 665.986L215.057 677.182C218.338 678.721 222.565 680.104 225.503 682.195C226.977 683.244 227.71 684.945 228.515 686.5L268.077 760.032C268.339 762.674 270.59 765.056 271.842 767.347C275.282 773.642 279.515 780.523 282.163 787.155C281.42 786.743 281.068 786.345 280.598 785.655C279.641 784.248 274.251 784.59 272.107 784.008L260.998 781.224C257.99 780.254 255.886 780.722 253 780.224C251.257 779.923 249.109 778.669 247.397 778.045L248.5 780.25C249.761 782.31 250.712 784.587 252.038 786.577C252.62 787.45 252.961 788.373 253.5 789.25C254.752 791.285 255.684 793.536 256.995 795.502C257.855 796.792 259.368 799.031 259.25 800.577L227.966 744.313L218.766 727.777C216.767 724.124 214.828 719.684 211.998 716.63C210.975 716.958 210.607 717.936 210.01 718.805C199.739 705.814 187.303 695.115 175.342 683.75C165.273 674.184 155.593 664.187 145 655.187C142.199 652.808 139.717 650.042 137.151 647.412C136.18 646.417 134.965 645.8 134.169 644.713C133.5 643.8 133.867 644.094 133.102 643.611C131.416 642.546 129.19 640.168 128.156 638.457C127.592 637.525 127.779 637.647 128.034 636.685Z"/>
	<defs>
		<linearGradient id="gradient_1" gradientUnits="userSpaceOnUse" x1="241.53767" y1="846.06879" x2="291.77621" y2="797.0755">
			<stop offset="0" stop-color="#394DA4"/>
			<stop offset="1" stop-color="#8593C1"/>
		</linearGradient>
	</defs>
	<path fill="url(#gradient_1)" transform="scale(0.362305 0.362305)" d="M210.01 718.805C210.607 717.936 210.975 716.958 211.998 716.63C214.828 719.684 216.767 724.124 218.766 727.777L227.966 744.313L259.25 800.577C259.368 799.031 257.855 796.792 256.995 795.502C255.684 793.536 254.752 791.285 253.5 789.25C252.961 788.373 252.62 787.45 252.038 786.577C250.712 784.587 249.761 782.31 248.5 780.25L247.397 778.045C249.109 778.669 251.257 779.923 253 780.224C255.886 780.722 257.99 780.254 260.998 781.224L272.107 784.008C274.251 784.59 279.641 784.248 280.598 785.655C281.068 786.345 281.42 786.743 282.163 787.155C284.701 791.629 287.09 797.023 290.217 801.052L289.691 797.417L290.862 797.403L291.639 797.786L292.243 796.315C293.789 796.796 295.413 796.719 297.028 797.026L297.709 796.306L299.476 796.285L300.25 796.02L301.152 795.845C301.91 795.069 302.672 794.108 303.747 793.8L305.075 793.538C305.946 793.319 306.071 793.141 306.972 793.376L307.885 793.772C308.628 791.919 307.992 791.112 308.63 789.429L309.25 789.745L309.818 791.904L310.758 791.968L325.239 840.033L326.371 844.141L318.766 858.047C316.367 862.676 313.913 868.775 310.751 872.855C310.401 874.766 310.362 875.9 310.917 877.75L325.713 924.586C323.402 925.371 321.341 926.249 319.178 927.389C318.236 924.476 316.53 921.566 315.275 918.749C312.207 911.864 309.355 903.624 304.314 897.955L252.08 800.332C250.242 795.475 247.351 790.651 244.966 786.037C241.855 780.017 238.931 773.754 235.305 768.033L210.01 718.805Z"/>
	<path fill="#5167A0" transform="scale(0.362305 0.362305)" d="M290.217 801.052L289.691 797.417L290.862 797.403L291.639 797.786L292.243 796.315C293.789 796.796 295.413 796.719 297.028 797.026L297.709 796.306L299.476 796.285L300.25 796.02L301.152 795.845C301.91 795.069 302.672 794.108 303.747 793.8L305.075 793.538C305.946 793.319 306.071 793.141 306.972 793.376L307.885 793.772C308.628 791.919 307.992 791.112 308.63 789.429L309.25 789.745L309.818 791.904L310.758 791.968L325.239 840.033L326.371 844.141L318.766 858.047C314.596 851.728 312.288 843.96 308.809 837.171L296.004 812.5C294.085 808.79 291.641 804.965 290.217 801.052Z"/>
	<path fill="#5167A0" transform="scale(0.362305 0.362305)" d="M105.199 761.833L144.722 764.017C148.321 770.202 153.166 775.983 157.42 781.754L170.791 799.893L175.91 807.039L183.307 816.811L216.025 861.996L231.378 882.969C244.065 898.396 255.44 915.482 267.22 931.638L274.51 941.626C275.274 942.666 276.796 944.265 277.139 945.41L249.171 945.047L105.199 761.833Z"/>
	<path fill="#7C92C0" transform="scale(0.362305 0.362305)" d="M252.08 800.332L304.314 897.955C309.355 903.624 312.207 911.864 315.275 918.749C316.53 921.566 318.236 924.476 319.178 927.389C311.308 932.989 302.921 939.79 294.327 944.15C290.05 946.676 282.103 945.45 277.139 945.41C276.796 944.265 275.274 942.666 274.51 941.626L267.22 931.638C255.44 915.482 244.065 898.396 231.378 882.969C233.239 879.663 233.82 875.7 234.634 872.032L237.896 858.142L252.08 800.332Z"/>
	<path fill="#5167A0" transform="scale(0.362305 0.362305)" d="M304.314 897.955C309.355 903.624 312.207 911.864 315.275 918.749C316.53 921.566 318.236 924.476 319.178 927.389C311.308 932.989 302.921 939.79 294.327 944.15C295.015 936.863 297.129 929.313 298.808 922.191L304.314 897.955Z"/>
	<path fill="#C3CDD5" transform="scale(0.362305 0.362305)" d="M228.68 280.405L374.418 405.629L374.038 407.04C373.091 407.519 372.208 407.917 371.207 408.263C363.982 410.765 357.499 416.395 351 420.422L318.916 440.128C317.529 438.334 316.577 435.516 315.45 433.5L307.277 419.722L279.345 371.888L239.956 304C235.929 296.504 230.564 288.757 228.68 280.405Z"/>
	<path fill="#5A566C" transform="scale(0.362305 0.362305)" d="M739.613 858.081L818.763 845.072L765.954 918.898L755.73 933.312C753.321 936.611 750.445 939.875 748.725 943.595L747.622 943.577L747.123 943.651C743.508 944.138 739.769 943.999 736.128 944.009C720.683 944.055 706.537 940.987 691.954 936.094L685.9 945.152C685.083 946.419 684.152 948.361 683.083 949.403C682.379 950.089 680.735 950.443 679.781 950.752L669.032 954.05L641.095 963.406C646.684 954.886 654.444 947.022 660.984 939.134L681.58 914.329L692.77 900.954C694.969 898.451 697.158 895.773 700.024 894.019C702.353 894.205 704.991 893.738 707.32 893.523L721.257 892.086L715.402 860.671C722.012 859.08 730.251 859.325 737.099 858.762L738.809 858.169L739.613 858.081Z"/>
	<path fill="#43405D" transform="scale(0.362305 0.362305)" d="M715.402 860.671C722.012 859.08 730.251 859.325 737.099 858.762L727.043 873.992L757.111 890.986L731.518 916.779C725.744 922.572 719.957 928.23 714.874 934.663L733.603 943.027C737.062 944.711 743.608 942.943 747.622 943.577L747.123 943.651C743.508 944.138 739.769 943.999 736.128 944.009C720.683 944.055 706.537 940.987 691.954 936.094L685.9 945.152C685.083 946.419 684.152 948.361 683.083 949.403C682.379 950.089 680.735 950.443 679.781 950.752L669.032 954.05L641.095 963.406C646.684 954.886 654.444 947.022 660.984 939.134L681.58 914.329L692.77 900.954C694.969 898.451 697.158 895.773 700.024 894.019C702.353 894.205 704.991 893.738 707.32 893.523L721.257 892.086L715.402 860.671Z"/>
	<path fill="#C3CDD5" transform="scale(0.362305 0.362305)" d="M903.171 653.233L906 651.973L906.794 652.366L907.03 653.443C908.283 656.819 907.912 661.344 908.191 664.968L910.973 717.5L912.925 751.723C913.3 757.659 914.279 764.021 913.907 769.942C912.008 770.773 908.406 770.228 906.267 770.188C895.277 769.984 883.675 769.636 872.992 766.922L872.719 766.572L869.271 765.478L830.08 747.069L826.739 745.343C825.597 744.645 824.372 744.118 823.312 743.296L822.75 742.841C819.539 740.657 816.848 737.265 814.252 734.371C809.38 724.612 804.615 714.922 798.324 705.972L784.631 730.959C782.207 735.372 779.945 740.23 777.074 744.351C775.16 742.32 774.201 741.272 771.434 740.742C773.775 735.398 778.468 731.035 780.252 725.37C783.545 719.658 787.606 714.225 791.182 708.665C793.497 705.066 796.34 698.622 799.662 696.13C801.614 694.667 804.708 693.818 806.968 692.898L821.676 686.791L873.808 664.846L903.171 653.233Z"/>
	<path fill="#F4F5F4" transform="scale(0.362305 0.362305)" d="M903.171 653.233L906 651.973L906.794 652.366L907.03 653.443L905.336 655.903C903.064 657.406 901.632 659.845 900.032 662L893.82 670.007L851.904 722.965C845.216 731.289 839.27 740.249 831.5 747.638C830.508 742.67 830.989 737.471 830.328 732.451L827.536 716C827.297 714.627 826.398 711.753 826.566 710.468C826.593 710.26 831.27 707.14 831.654 706.882L875.636 675.312L894.187 661.779C897.012 659.645 901.066 657.343 902.764 654.088L903.171 653.233Z"/>
	<path fill="#9CAEC9" transform="scale(0.362305 0.362305)" d="M907.03 653.443C908.283 656.819 907.912 661.344 908.191 664.968L910.973 717.5L912.925 751.723C913.3 757.659 914.279 764.021 913.907 769.942C912.008 770.773 908.406 770.228 906.267 770.188C895.277 769.984 883.675 769.636 872.992 766.922L872.719 766.572C872.809 764.142 874.174 760.871 874.892 758.491L880.104 741.215L896.866 684.833L905.336 655.903L907.03 653.443Z"/>
	<path fill="#9CAEC9" transform="scale(0.362305 0.362305)" d="M705.159 816.381L707 816.474C708.176 818.389 708.325 821.336 708.7 823.552L708.981 828.751C706.16 840.03 705.088 852.104 703.471 863.625C702.087 873.479 699.754 884.058 700.024 894.019C697.158 895.773 694.969 898.451 692.77 900.954L681.58 914.329L660.984 939.134C654.444 947.022 646.684 954.886 641.095 963.406C640.56 963.508 639.22 963.942 638.75 963.854C635.946 963.327 630.638 958.556 628.13 956.857L612.455 946.854L596.806 937.417L601.316 922.862L609.224 899.52L609.052 899.135C608.236 897.536 608.804 895.44 608.971 893.697L609.534 884.911C611.306 884.279 612.391 884.959 614.167 885.48C615.982 880.219 618.236 875.156 619.472 869.721L628.487 847.5C629.346 846.068 630.07 845.741 631.625 845.36C642.087 842.506 652.397 837.733 662.503 833.744L705.142 816.866L705.159 816.381Z"/>
	<path fill="#C3CDD5" transform="scale(0.362305 0.362305)" d="M705.159 816.381L707 816.474C708.176 818.389 708.325 821.336 708.7 823.552L708.981 828.751C706.16 840.03 705.088 852.104 703.471 863.625C702.087 873.479 699.754 884.058 700.024 894.019C695.338 894.243 690.055 892.635 685.344 892.093L664.401 890.156C660.567 889.813 656.773 889.718 653.028 888.75L652.956 887.75L658.846 882.571C663.701 878.139 668.027 873.165 672.231 868.118C681.475 857.02 689.878 845.01 698.112 833.153C700.581 829.6 706.257 823.04 706.452 818.765L705.486 817.957C705.565 817.265 705.612 817.643 705.142 816.866L705.159 816.381Z"/>
	<path fill="#F4F5F4" transform="scale(0.362305 0.362305)" d="M705.142 816.866C705.612 817.643 705.565 817.265 705.486 817.957L650.818 889.16C646.713 882.467 644.019 875.265 641.038 868.016L631.625 845.36C642.087 842.506 652.397 837.733 662.503 833.744L705.142 816.866Z"/>
	<path fill="#C3CDD5" transform="scale(0.362305 0.362305)" d="M619.472 869.721L628.487 847.5C629.346 846.068 630.07 845.741 631.625 845.36L641.038 868.016C644.019 875.265 646.713 882.467 650.818 889.16L612.455 946.854L596.806 937.417L601.316 922.862L609.224 899.52L609.052 899.135C608.236 897.536 608.804 895.44 608.971 893.697L609.534 884.911C611.306 884.279 612.391 884.959 614.167 885.48C615.982 880.219 618.236 875.156 619.472 869.721Z"/>
	<path fill="#13173D" transform="scale(0.362305 0.362305)" d="M609.534 884.911C611.306 884.279 612.391 884.959 614.167 885.48L609.224 899.52L609.052 899.135C608.236 897.536 608.804 895.44 608.971 893.697L609.534 884.911Z"/>
	<defs>
		<linearGradient id="gradient_2" gradientUnits="userSpaceOnUse" x1="331.94135" y1="779.16632" x2="152.11771" y2="472.53613">
			<stop offset="0" stop-color="#4B64A8"/>
			<stop offset="1" stop-color="#87A8BA"/>
		</linearGradient>
	</defs>
	<path fill="url(#gradient_2)" transform="scale(0.362305 0.362305)" d="M157.553 467.047L215.69 486.793L280.797 691.975L294.743 736.667L300.818 758.381C304.105 769.34 308.47 780.79 310.758 791.968L309.818 791.904L309.25 789.745L308.63 789.429C307.992 791.112 308.628 791.919 307.885 793.772L306.972 793.376C306.071 793.141 305.946 793.319 305.075 793.538L303.747 793.8C302.672 794.108 301.91 795.069 301.152 795.845L300.25 796.02L299.476 796.285L297.709 796.306L297.028 797.026C295.413 796.719 293.789 796.796 292.243 796.315L291.639 797.786L290.862 797.403L289.691 797.417L290.217 801.052C287.09 797.023 284.701 791.629 282.163 787.155C279.515 780.523 275.282 773.642 271.842 767.347C270.59 765.056 268.339 762.674 268.077 760.032C266.984 754.651 263.576 748.671 261.534 743.5L239.15 687.016L187.919 549.25L165.758 489.575L157.553 467.047Z"/>
	<path fill="#C3CDD5" transform="scale(0.362305 0.362305)" d="M118.946 634.067L119.273 632.602C120.45 632.651 121.11 633.036 122.127 633.602C122.976 634.034 127.809 636.174 128.034 636.685C127.779 637.647 127.592 637.525 128.156 638.457C129.19 640.168 131.416 642.546 133.102 643.611C133.867 644.094 133.5 643.8 134.169 644.713C134.965 645.8 136.18 646.417 137.151 647.412C139.717 650.042 142.199 652.808 145 655.187C155.593 664.187 165.273 674.184 175.342 683.75C187.303 695.115 199.739 705.814 210.01 718.805L235.305 768.033C238.931 773.754 241.855 780.017 244.966 786.037C247.351 790.651 250.242 795.475 252.08 800.332L237.896 858.142L234.634 872.032C233.82 875.7 233.239 879.663 231.378 882.969L216.025 861.996L183.307 816.811L175.91 807.039L170.791 799.893L157.42 781.754C153.166 775.983 148.321 770.202 144.722 764.017L105.199 761.833C104.624 760.755 104.586 760.194 104.676 758.977L108.063 727.787L114.315 674.011L117.297 646.999C117.776 642.75 117.926 638.212 118.946 634.067Z"/>
	<path fill="#9CAEC9" transform="scale(0.362305 0.362305)" d="M235.305 768.033C238.931 773.754 241.855 780.017 244.966 786.037C247.351 790.651 250.242 795.475 252.08 800.332L237.896 858.142L234.634 872.032C233.82 875.7 233.239 879.663 231.378 882.969L216.025 861.996L235.305 768.033Z"/>
	<path fill="#7C92C0" transform="scale(0.362305 0.362305)" d="M184.669 737.847L201.372 725.379L188.491 789.25L185.357 805.353C184.571 809.121 183.485 812.961 183.307 816.811L175.91 807.039L170.791 799.893L157.42 781.754C153.166 775.983 148.321 770.202 144.722 764.017L144.727 763.09L145.167 763.093C147.656 762.948 151.204 759.917 153.246 758.517L166.618 749.638C169.667 747.632 173.644 745.762 176.182 743.178L176.555 743.437C179.06 741.008 181.418 739.223 184.669 737.847Z"/>
	<path fill="#9CAEC9" transform="scale(0.362305 0.362305)" d="M176.555 743.437C179.06 741.008 181.418 739.223 184.669 737.847L178.114 792.818L177.005 802.127C176.812 803.712 176.829 805.692 175.91 807.039L170.791 799.893C172.971 790.092 173.276 779.105 174.203 769.073C174.994 760.528 176.254 752.019 176.555 743.437Z"/>
	<path fill="#E2E4E4" transform="scale(0.362305 0.362305)" d="M176.182 743.178L176.555 743.437C176.254 752.019 174.994 760.528 174.203 769.073C173.276 779.105 172.971 790.092 170.791 799.893L157.42 781.754C153.166 775.983 148.321 770.202 144.722 764.017L144.727 763.09L145.167 763.093C147.656 762.948 151.204 759.917 153.246 758.517L166.618 749.638C169.667 747.632 173.644 745.762 176.182 743.178Z"/>
	<path fill="#F4F5F4" transform="scale(0.362305 0.362305)" d="M118.946 634.067L119.273 632.602C120.45 632.651 121.11 633.036 122.127 633.602L122.215 635.169L122.23 635.785C122.546 638.345 125.01 641.829 126.107 644.27L153.593 700L176.182 743.178C173.644 745.762 169.667 747.632 166.618 749.638L153.246 758.517C151.204 759.917 147.656 762.948 145.167 763.093L144.727 763.09L128.799 682.116L124.045 653.985C123.358 649.764 122.912 645.401 121.89 641.25C121.473 639.559 120.712 638.56 119.529 637.3C118.86 636.589 119.023 635.053 118.946 634.067Z"/>
	<path fill="#C3CDD5" transform="scale(0.362305 0.362305)" d="M118.946 634.067C119.023 635.053 118.86 636.589 119.529 637.3C120.712 638.56 121.473 639.559 121.89 641.25C122.912 645.401 123.358 649.764 124.045 653.985L128.799 682.116L144.727 763.09L144.722 764.017L105.199 761.833C104.624 760.755 104.586 760.194 104.676 758.977L108.063 727.787L114.315 674.011L117.297 646.999C117.776 642.75 117.926 638.212 118.946 634.067Z"/>
	<defs>
		<linearGradient id="gradient_3" gradientUnits="userSpaceOnUse" x1="808.42493" y1="852.09607" x2="803.03992" y2="770.87311">
			<stop offset="0" stop-color="#7B809D"/>
			<stop offset="1" stop-color="#99A7B1"/>
		</linearGradient>
	</defs>
	<path fill="url(#gradient_3)" transform="scale(0.362305 0.362305)" d="M777.074 744.351C779.945 740.23 782.207 735.372 784.631 730.959L798.324 705.972C804.615 714.922 809.38 724.612 814.252 734.371C816.848 737.265 819.539 740.657 822.75 742.841L823.312 743.296C824.372 744.118 825.597 744.645 826.739 745.343L830.08 747.069L869.271 765.478L872.719 766.572L872.992 766.922C883.675 769.636 895.277 769.984 906.267 770.188C908.406 770.228 912.008 770.773 913.907 769.942C912.357 774.348 907.35 779.15 904.433 782.964L881.322 812.848C872.093 814.677 862.488 816.246 853.843 820.115C848.473 822.519 843.856 825.729 839.154 829.232C834.126 832.977 829.48 837.418 823.704 840.022L818.763 845.072L739.613 858.081L738.809 858.169L737.099 858.762C730.251 859.325 722.012 859.08 715.402 860.671L721.257 892.086L707.32 893.523C704.991 893.738 702.353 894.205 700.024 894.019C699.754 884.058 702.087 873.479 703.471 863.625C705.088 852.104 706.16 840.03 708.981 828.751L708.7 823.552C709.305 823.075 709.933 822.623 710.319 821.934C711.895 819.12 712.431 815.029 713.335 811.874L719.211 792.234C720.473 787.995 721.544 783.372 723.319 779.339L723.955 779.43C724.619 777.602 724.545 777.389 726.274 776.313L726.985 776.824C727.972 777.322 729.964 777.249 731.024 776.979C734.324 776.138 738.891 776.711 742.338 776.713C743.65 776.714 745.055 776.927 746.254 776.315C746.231 777.363 746.21 777.93 745.651 778.831L745.696 779.459C745.739 781.201 745.206 782.706 745.331 784.524C750.825 777.274 754.891 768.281 759.379 760.362C761.682 756.296 764.651 752.333 766.792 748.254L771.434 740.742C774.201 741.272 775.16 742.32 777.074 744.351Z"/>
	<path fill="#717787" transform="scale(0.362305 0.362305)" d="M830.08 747.069L869.271 765.478C863.865 768.932 857.505 770.739 851.649 773.333C836.285 780.141 820.669 788.231 804.656 793.276C800.543 794.573 794.875 796.212 790.612 795.458L830.08 747.069Z"/>
	<path fill="#5A566C" transform="scale(0.362305 0.362305)" d="M872.992 766.922C883.675 769.636 895.277 769.984 906.267 770.188C908.406 770.228 912.008 770.773 913.907 769.942C912.357 774.348 907.35 779.15 904.433 782.964L881.322 812.848C872.093 814.677 862.488 816.246 853.843 820.115C848.473 822.519 843.856 825.729 839.154 829.232C834.126 832.977 829.48 837.418 823.704 840.022C826.063 835.413 829.435 831.12 832.334 826.833L848.542 802.949L865.571 777.467C867.624 774.39 870.175 769.084 872.992 766.922Z"/>
	<defs>
		<linearGradient id="gradient_4" gradientUnits="userSpaceOnUse" x1="754.71692" y1="864.21912" x2="776.18115" y2="704.99139">
			<stop offset="0" stop-color="#4A619E"/>
			<stop offset="1" stop-color="#7591B6"/>
		</linearGradient>
	</defs>
	<path fill="url(#gradient_4)" transform="scale(0.362305 0.362305)" d="M777.074 744.351C779.945 740.23 782.207 735.372 784.631 730.959L798.324 705.972C804.615 714.922 809.38 724.612 814.252 734.371C816.848 737.265 819.539 740.657 822.75 742.841L823.312 743.296C824.372 744.118 825.597 744.645 826.739 745.343L830.08 747.069L790.612 795.458C776.45 810.846 764.341 827.774 751.126 843.938C747.87 847.92 740.914 853.198 739.613 858.081L738.809 858.169L737.099 858.762C730.251 859.325 722.012 859.08 715.402 860.671L721.257 892.086L707.32 893.523C704.991 893.738 702.353 894.205 700.024 894.019C699.754 884.058 702.087 873.479 703.471 863.625C705.088 852.104 706.16 840.03 708.981 828.751L708.7 823.552C709.305 823.075 709.933 822.623 710.319 821.934C711.895 819.12 712.431 815.029 713.335 811.874L719.211 792.234C720.473 787.995 721.544 783.372 723.319 779.339L723.955 779.43C724.619 777.602 724.545 777.389 726.274 776.313L726.985 776.824C727.972 777.322 729.964 777.249 731.024 776.979C734.324 776.138 738.891 776.711 742.338 776.713C743.65 776.714 745.055 776.927 746.254 776.315C746.231 777.363 746.21 777.93 745.651 778.831L745.696 779.459C745.739 781.201 745.206 782.706 745.331 784.524C750.825 777.274 754.891 768.281 759.379 760.362C761.682 756.296 764.651 752.333 766.792 748.254L771.434 740.742C774.201 741.272 775.16 742.32 777.074 744.351Z"/>
	<defs>
		<linearGradient id="gradient_5" gradientUnits="userSpaceOnUse" x1="740.29199" y1="839.98566" x2="821.78735" y2="742.31616">
			<stop offset="0" stop-color="#9FABC5"/>
			<stop offset="1" stop-color="#C0C9DA"/>
		</linearGradient>
	</defs>
	<path fill="url(#gradient_5)" transform="scale(0.362305 0.362305)" d="M814.252 734.371C816.848 737.265 819.539 740.657 822.75 742.841L823.312 743.296C824.372 744.118 825.597 744.645 826.739 745.343L830.08 747.069L790.612 795.458C776.45 810.846 764.341 827.774 751.126 843.938C747.87 847.92 740.914 853.198 739.613 858.081L738.809 858.169L738.347 857.441L777.145 802.627C791.576 781.05 804.098 758.25 814.252 734.371Z"/>
	<path fill="#9CAEC9" transform="scale(0.362305 0.362305)" d="M771.434 740.742C774.201 741.272 775.16 742.32 777.074 744.351L767.308 762.426L722.792 838.698L716.339 849.756C715.861 850.594 714.636 852.224 714.458 853.058C714.122 854.626 715.178 858.86 715.402 860.671L721.257 892.086L707.32 893.523C704.991 893.738 702.353 894.205 700.024 894.019C699.754 884.058 702.087 873.479 703.471 863.625C705.088 852.104 706.16 840.03 708.981 828.751L708.7 823.552C709.305 823.075 709.933 822.623 710.319 821.934C711.895 819.12 712.431 815.029 713.335 811.874L719.211 792.234C720.473 787.995 721.544 783.372 723.319 779.339L723.955 779.43C724.619 777.602 724.545 777.389 726.274 776.313L726.985 776.824C727.972 777.322 729.964 777.249 731.024 776.979C734.324 776.138 738.891 776.711 742.338 776.713C743.65 776.714 745.055 776.927 746.254 776.315C746.231 777.363 746.21 777.93 745.651 778.831L745.696 779.459C745.739 781.201 745.206 782.706 745.331 784.524C750.825 777.274 754.891 768.281 759.379 760.362C761.682 756.296 764.651 752.333 766.792 748.254L771.434 740.742Z"/>
	<path fill="#5167A0" transform="scale(0.362305 0.362305)" d="M723.319 779.339L723.955 779.43C724.619 777.602 724.545 777.389 726.274 776.313L726.985 776.824C727.972 777.322 729.964 777.249 731.024 776.979C734.324 776.138 738.891 776.711 742.338 776.713C743.65 776.714 745.055 776.927 746.254 776.315C746.231 777.363 746.21 777.93 745.651 778.831L745.696 779.459C745.739 781.201 745.206 782.706 745.331 784.524L712.292 841.808L708.981 828.751L708.7 823.552C709.305 823.075 709.933 822.623 710.319 821.934C711.895 819.12 712.431 815.029 713.335 811.874L719.211 792.234C720.473 787.995 721.544 783.372 723.319 779.339Z"/>
	<path fill="#F4F5F4" transform="scale(0.362305 0.362305)" d="M157.553 467.047L157.04 465.75C160.602 453.739 165.505 441.805 169.89 430.052L186.851 383.733L214.645 306.551L223.504 281.392C224.028 280.01 224.418 278.44 225.75 277.649L227.155 278.971L228.68 280.405C230.564 288.757 235.929 296.504 239.956 304L279.345 371.888L307.277 419.722L315.45 433.5C316.577 435.516 317.529 438.334 318.916 440.128L319.184 441.035C317.11 442.469 314.72 443.58 312.859 445.278L274.44 467.621C272.289 468.846 267.912 470.708 266.327 472.531C265.593 473.375 264.938 475.9 264.533 477.051L260.08 489.618L246.559 527.504C244.639 532.941 242.208 538.413 240.721 543.976C240.23 545.814 240.101 547.61 240.451 549.485C241.384 554.489 243.721 559.288 245.392 564.083L253.243 588.626L280.308 677.246L305.509 765.076L319.763 816.877C321.717 823.663 324.331 830.557 325.688 837.476C325.818 838.141 325.854 838.884 325.569 839.519L325.239 840.033L310.758 791.968C308.47 780.79 304.105 769.34 300.818 758.381L294.743 736.667L280.797 691.975L215.69 486.793L157.553 467.047Z"/>
	<path fill="#E2E4E4" transform="scale(0.362305 0.362305)" d="M227.155 278.971L228.68 280.405C230.564 288.757 235.929 296.504 239.956 304L279.345 371.888L307.277 419.722L315.45 433.5C316.577 435.516 317.529 438.334 318.916 440.128L319.184 441.035C317.11 442.469 314.72 443.58 312.859 445.278L274.44 467.621C271.553 467.668 268.301 469.751 265.683 470.951L238.702 337.554L231.17 300.434L228.958 289.03C228.694 287.545 228.163 285.953 228.285 284.44C228.462 282.254 227.96 280.978 227.155 278.971Z"/>
	<path fill="#C3CDD5" transform="scale(0.362305 0.362305)" d="M319.184 441.035C323.531 454.918 325.939 469.735 329.75 483.838C330.152 485.325 330.961 490.179 331.852 491.119L336.17 510.896L355.728 594.78C357.941 603.865 359.286 613.805 362.298 622.611C359.634 626.187 358.206 631.079 356.669 635.247L349.695 654.021L320.415 728.72L311.363 751.56C309.646 755.913 308.136 761.198 305.509 765.076L280.308 677.246L253.243 588.626L245.392 564.083C243.721 559.288 241.384 554.489 240.451 549.485C240.101 547.61 240.23 545.814 240.721 543.976C242.208 538.413 244.639 532.941 246.559 527.504L260.08 489.618L264.533 477.051C264.938 475.9 265.593 473.375 266.327 472.531C267.912 470.708 272.289 468.846 274.44 467.621L312.859 445.278C314.72 443.58 317.11 442.469 319.184 441.035Z"/>
	<path fill="#9CAEC9" transform="scale(0.362305 0.362305)" d="M312.859 445.278C312.192 449.112 310.02 453.156 308.548 456.767L299.209 479.672L265.669 559.126L254.467 587.01C254.177 587.676 253.762 588.133 253.243 588.626L245.392 564.083C243.721 559.288 241.384 554.489 240.451 549.485C240.101 547.61 240.23 545.814 240.721 543.976C242.208 538.413 244.639 532.941 246.559 527.504L260.08 489.618L264.533 477.051C264.938 475.9 265.593 473.375 266.327 472.531C267.912 470.708 272.289 468.846 274.44 467.621L312.859 445.278Z"/>
	<path fill="#9CAEC9" transform="scale(0.362305 0.362305)" d="M362.298 622.611L410.354 847.094C412.056 853.511 413.449 859.91 414.176 866.514L414.506 868.911C415.791 869.592 416.805 870.313 417.94 871.227L417.797 873.822L407.152 921.552C407.64 922.569 407.655 922.408 408.582 922.896L406.987 923.272L403.892 940.04C403.305 943.514 402.977 947.553 401.584 950.796C393.544 955.467 384.145 958.84 375.637 962.632C373.467 963.449 369.589 965.749 367.44 965.724C365.46 965.702 361.114 963.525 359.093 962.797L356.056 962.291C349.879 960.343 343.01 959.375 336.595 958.389C334.938 955.1 334.179 950.813 333.071 947.263L325.713 924.586L310.917 877.75C310.362 875.9 310.401 874.766 310.751 872.855C313.913 868.775 316.367 862.676 318.766 858.047L326.371 844.141L325.239 840.033L325.569 839.519C325.854 838.884 325.818 838.141 325.688 837.476C324.331 830.557 321.717 823.663 319.763 816.877L305.509 765.076C308.136 761.198 309.646 755.913 311.363 751.56L320.415 728.72L349.695 654.021L356.669 635.247C358.206 631.079 359.634 626.187 362.298 622.611Z"/>
	<path fill="#7C92C0" transform="scale(0.362305 0.362305)" d="M414.176 866.514L390.421 836.339C397.232 839.72 402.132 845.666 409.732 847.94L410.354 847.094C412.056 853.511 413.449 859.91 414.176 866.514Z"/>
	<path fill="#43405D" transform="scale(0.362305 0.362305)" d="M414.506 868.911C415.791 869.592 416.805 870.313 417.94 871.227L417.797 873.822L407.152 921.552C407.64 922.569 407.655 922.408 408.582 922.896L406.987 923.272L403.892 940.04C403.305 943.514 402.977 947.553 401.584 950.796C393.544 955.467 384.145 958.84 375.637 962.632L389.435 906.777L392.531 894.286C392.932 892.648 393.227 890.266 393.968 888.809C394.797 887.176 397.648 885.027 399.018 883.711L414.506 868.911Z"/>
	<path fill="#C3CDD5" transform="scale(0.362305 0.362305)" d="M326.371 844.141L356.054 793.711L357.912 801.878L394.024 887.964C388.092 890.009 382.203 890.838 376.124 892.199C369.574 893.665 363.252 895.546 356.537 896.174C357.685 901.903 360.003 960.669 359.093 962.797L356.056 962.291C349.879 960.343 343.01 959.375 336.595 958.389C334.938 955.1 334.179 950.813 333.071 947.263L325.713 924.586L310.917 877.75C310.362 875.9 310.401 874.766 310.751 872.855C313.913 868.775 316.367 862.676 318.766 858.047L326.371 844.141Z"/>
	<path fill="#9CAEC9" transform="scale(0.362305 0.362305)" d="M310.751 872.855C313.823 874.281 316.352 876.511 319.126 878.416C322.503 880.734 327.895 883.629 330.124 887.072L346.574 931.5L353.54 951.451C354.636 954.907 356.107 958.64 356.056 962.291C349.879 960.343 343.01 959.375 336.595 958.389C334.938 955.1 334.179 950.813 333.071 947.263L325.713 924.586L310.917 877.75C310.362 875.9 310.401 874.766 310.751 872.855Z"/>
	<path fill="#E2E4E4" transform="scale(0.362305 0.362305)" d="M326.371 844.141L356.054 793.711L357.912 801.878C357.156 803.237 356.436 804.586 356.213 806.144C355.069 814.127 356.185 823.353 356.314 831.5L356.95 886.125C356.956 887.954 357.584 893.533 356.973 895C356.785 895.451 356.313 895.72 355.983 896.08C350.646 895.09 345.636 892.652 340.547 890.848C336.99 889.586 333.572 888.726 330.124 887.072C327.895 883.629 322.503 880.734 319.126 878.416C316.352 876.511 313.823 874.281 310.751 872.855C313.913 868.775 316.367 862.676 318.766 858.047L326.371 844.141Z"/>
	<path fill="#C3CDD5" transform="scale(0.362305 0.362305)" d="M800.387 316.582L800.405 316.532C803.366 313.698 808.681 308.144 812.412 306.646L813.036 308.015L815.315 313.848L829.29 352.386L854.288 424.187L869.993 468.873C871.586 473.718 874.771 480.636 874.572 485.737L810.016 502.065C809.502 503.509 808.952 504.901 808.753 506.431L792.474 501.985C784.669 500.784 776.575 498.011 768.923 495.946C761.871 494.043 754.659 492.565 747.734 490.235L718.561 522.5L705.577 536.62C702.72 539.71 699.157 542.802 697.506 546.75C695.578 551.364 694.865 557.156 693.676 562.053C690.571 574.848 687.745 588.141 683.773 600.677L683.332 601.059C681.408 601.377 679.829 601.742 678.045 602.537L707.482 473.119C705.214 471.653 703.375 469.52 701.469 467.614L691.686 457.844L661.917 428.132C662.482 427.15 663.008 426.325 663.851 425.552C671.048 418.95 679.44 413.043 687.098 406.921L728.827 373.325L779.56 333.028L800.387 316.582Z"/>
	<path fill="#F4F5F4" transform="scale(0.362305 0.362305)" d="M800.387 316.582L800.405 316.532C803.366 313.698 808.681 308.144 812.412 306.646L813.036 308.015C809.804 314.89 807.676 323.071 805.195 330.303L791.096 370.866L750.564 487.903L793.425 498.136C798.621 499.352 805.214 500.02 810.016 502.065C809.502 503.509 808.952 504.901 808.753 506.431L792.474 501.985C784.669 500.784 776.575 498.011 768.923 495.946C761.871 494.043 754.659 492.565 747.734 490.235L707.901 473.017C708.225 470.723 710.44 467.807 711.677 465.811L718.116 455.066L738.75 420.608L782.085 346.75L792.517 330.384C795.393 326.069 799.118 321.663 800.387 316.582Z"/>
	<path fill="#C3CDD5" transform="scale(0.362305 0.362305)" d="M661.917 428.132C662.482 427.15 663.008 426.325 663.851 425.552C671.048 418.95 679.44 413.043 687.098 406.921L728.827 373.325L779.56 333.028L800.387 316.582C799.118 321.663 795.393 326.069 792.517 330.384L782.085 346.75L738.75 420.608L718.116 455.066L711.677 465.811C710.44 467.807 708.225 470.723 707.901 473.017L747.734 490.235L718.561 522.5L705.577 536.62C702.72 539.71 699.157 542.802 697.506 546.75C695.578 551.364 694.865 557.156 693.676 562.053C690.571 574.848 687.745 588.141 683.773 600.677L683.332 601.059C681.408 601.377 679.829 601.742 678.045 602.537L707.482 473.119C705.214 471.653 703.375 469.52 701.469 467.614L691.686 457.844L661.917 428.132Z"/>
	<defs>
		<linearGradient id="gradient_6" gradientUnits="userSpaceOnUse" x1="775.13202" y1="786.47528" x2="821.52417" y2="479.30118">
			<stop offset="0" stop-color="#607193"/>
			<stop offset="1" stop-color="#95A7BA"/>
		</linearGradient>
	</defs>
	<path fill="url(#gradient_6)" transform="scale(0.362305 0.362305)" d="M810.016 502.065L874.572 485.737L854.446 535.85L816.25 632.532L787.867 704.348L782.442 718.407C781.595 720.665 780.386 722.942 780.252 725.37C778.468 731.035 773.775 735.398 771.434 740.742L766.792 748.254C764.651 752.333 761.682 756.296 759.379 760.362C754.891 768.281 750.825 777.274 745.331 784.524C745.206 782.706 745.739 781.201 745.696 779.459L745.651 778.831C746.21 777.93 746.231 777.363 746.254 776.315C745.055 776.927 743.65 776.714 742.338 776.713C738.891 776.711 734.324 776.138 731.024 776.979C729.964 777.249 727.972 777.322 726.985 776.824L726.274 776.313C724.545 777.389 724.619 777.602 723.955 779.43L723.319 779.339C721.544 783.372 720.473 787.995 719.211 792.234L713.335 811.874C712.431 815.029 711.895 819.12 710.319 821.934C709.933 822.623 709.305 823.075 708.7 823.552C708.325 821.336 708.176 818.389 707 816.474L705.159 816.381L705.142 816.866L662.503 833.744C652.397 837.733 642.087 842.506 631.625 845.36C630.07 845.741 629.346 846.068 628.487 847.5L619.472 869.721C619.521 861.757 622.078 852.884 623.482 845L633.559 794.447C635.838 783.495 637.76 772.4 640.741 761.613L643.975 747.724C644.565 745.446 644.931 743.011 645.868 740.855L678.045 602.537C679.829 601.742 681.408 601.377 683.332 601.059L683.773 600.677C687.745 588.141 690.571 574.848 693.676 562.053C694.865 557.156 695.578 551.364 697.506 546.75C699.157 542.802 702.72 539.71 705.577 536.62L718.561 522.5L747.734 490.235C754.659 492.565 761.871 494.043 768.923 495.946C776.575 498.011 784.669 500.784 792.474 501.985L808.753 506.431C808.952 504.901 809.502 503.509 810.016 502.065Z"/>
	<path fill="#5167A0" transform="scale(0.362305 0.362305)" d="M765.321 636.174L765.959 635.447C767.242 633.883 767.657 631.659 768.318 629.774L773.18 615.525C773.247 616.703 773.316 616.429 772.755 617.5L772.003 620.625L772 621.25L771.5 623.25L771.125 624.125L770.755 625.25L770.503 626.003C770.133 627.318 770.236 629.009 769.255 630L769.159 630.547C768.971 631.465 768.561 632.237 768.379 633.158C768.207 634.024 768.347 633.613 767.755 634.5L767.75 635.5L767.255 636L767.288 636.434C767.278 638.766 766.044 642.224 765.279 644.5L764.082 648.511C761.268 658.925 726.072 771.895 725.151 772.562L724.634 772.223L723.375 776.375C722.606 778.487 722.147 780.754 721.375 782.875C721.017 783.858 720.829 784.78 720.5 785.766L720.25 786.5C720.009 787.336 719.937 787.666 719.375 788.375C719.146 787.715 718.815 787.123 718.497 786.503C717.871 786.226 717.43 786.034 716.733 786.001L716.248 786.002C716.05 785.777 715.715 785.62 715.653 785.326C715.605 785.103 716.404 783.052 716.522 782.696L721.288 768.702C721.874 767 723.1 764.413 722.84 762.605L722.703 761.854C722.732 760.429 723.655 758.493 724.099 757.116L728.425 744.083L746.447 689.49L765.321 636.174Z"/>
	<path fill="#7C92C0" transform="scale(0.362305 0.362305)" d="M640.741 761.613L641.479 761.552L739.876 692.872C741.999 691.465 744.115 690.484 746.447 689.49L728.425 744.083L724.099 757.116C723.655 758.493 722.732 760.429 722.703 761.854L722.84 762.605C723.1 764.413 721.874 767 721.288 768.702L716.522 782.696C716.404 783.052 715.605 785.103 715.653 785.326C715.715 785.62 716.05 785.777 716.248 786.002L716.733 786.001C717.43 786.034 717.871 786.226 718.497 786.503C718.815 787.123 719.146 787.715 719.375 788.375C719.937 787.666 720.009 787.336 720.25 786.5L720.5 785.766C720.829 784.78 721.017 783.858 721.375 782.875C722.147 780.754 722.606 778.487 723.375 776.375L724.634 772.223L725.151 772.562L723.319 779.339C721.544 783.372 720.473 787.995 719.211 792.234L713.335 811.874C712.431 815.029 711.895 819.12 710.319 821.934C709.933 822.623 709.305 823.075 708.7 823.552C708.325 821.336 708.176 818.389 707 816.474L705.159 816.381L705.142 816.866L662.503 833.744C652.397 837.733 642.087 842.506 631.625 845.36C630.07 845.741 629.346 846.068 628.487 847.5L619.472 869.721C619.521 861.757 622.078 852.884 623.482 845L633.559 794.447C635.838 783.495 637.76 772.4 640.741 761.613Z"/>
	<path fill="#43405D" transform="scale(0.362305 0.362305)" d="M722.703 761.854L722.84 762.605C723.1 764.413 721.874 767 721.288 768.702L716.522 782.696C716.404 783.052 715.605 785.103 715.653 785.326C715.715 785.62 716.05 785.777 716.248 786.002L716.733 786.001C717.43 786.034 717.871 786.226 718.497 786.503C718.815 787.123 719.146 787.715 719.375 788.375C719.937 787.666 720.009 787.336 720.25 786.5L720.5 785.766C720.829 784.78 721.017 783.858 721.375 782.875C722.147 780.754 722.606 778.487 723.375 776.375L724.634 772.223L725.151 772.562L723.319 779.339C721.544 783.372 720.473 787.995 719.211 792.234L713.335 811.874C712.431 815.029 711.895 819.12 710.319 821.934C709.933 822.623 709.305 823.075 708.7 823.552C708.325 821.336 708.176 818.389 707 816.474L705.159 816.381C705.048 814.629 705.915 812.717 706.449 811.044L709.423 801.877L722.703 761.854Z"/>
	<defs>
		<linearGradient id="gradient_7" gradientUnits="userSpaceOnUse" x1="757.69788" y1="708.36847" x2="687.45398" y2="549.42407">
			<stop offset="0" stop-color="#8BA0C1"/>
			<stop offset="1" stop-color="#C8CED9"/>
		</linearGradient>
	</defs>
	<path fill="url(#gradient_7)" transform="scale(0.362305 0.362305)" d="M747.734 490.235C754.659 492.565 761.871 494.043 768.923 495.946C776.575 498.011 784.669 500.784 792.474 501.985L808.753 506.431L787.789 569.75L785.302 577L780.594 590.275L770.411 620.693C768.782 625.431 765.837 631.297 765.321 636.174L746.447 689.49C744.115 690.484 741.999 691.465 739.876 692.872L641.479 761.552L640.741 761.613L643.975 747.724C644.565 745.446 644.931 743.011 645.868 740.855L678.045 602.537C679.829 601.742 681.408 601.377 683.332 601.059L683.773 600.677C687.745 588.141 690.571 574.848 693.676 562.053C694.865 557.156 695.578 551.364 697.506 546.75C699.157 542.802 702.72 539.71 705.577 536.62L718.561 522.5L747.734 490.235Z"/>
	<path fill="#F4F5F4" transform="scale(0.362305 0.362305)" d="M678.045 602.537C679.829 601.742 681.408 601.377 683.332 601.059C681.159 611.813 677.803 622.504 674.98 633.115L659.961 689.721L651.612 721.5C649.956 727.963 648.651 734.974 646.128 741.135L645.868 740.855L678.045 602.537Z"/>
	<path fill="#9CAEC9" transform="scale(0.362305 0.362305)" d="M747.734 490.235C754.659 492.565 761.871 494.043 768.923 495.946C776.575 498.011 784.669 500.784 792.474 501.985L684.597 600.748L683.773 600.677C687.745 588.141 690.571 574.848 693.676 562.053C694.865 557.156 695.578 551.364 697.506 546.75C699.157 542.802 702.72 539.71 705.577 536.62L718.561 522.5L747.734 490.235Z"/>
	<defs>
		<linearGradient id="gradient_8" gradientUnits="userSpaceOnUse" x1="311.31247" y1="601.55054" x2="472.10104" y2="610.19708">
			<stop offset="0" stop-color="#9EB0B3"/>
			<stop offset="1" stop-color="#618AC7"/>
		</linearGradient>
	</defs>
	<path fill="url(#gradient_8)" transform="scale(0.362305 0.362305)" d="M360.702 274.953C370.431 278.996 379.293 285.946 388.189 291.54L429.779 317.566L447.082 758.279L455.976 939.222L423.563 927.11L408.582 922.896C407.655 922.408 407.64 922.569 407.152 921.552L417.797 873.822L417.94 871.227C416.805 870.313 415.791 869.592 414.506 868.911L414.176 866.514C413.449 859.91 412.056 853.511 410.354 847.094L362.298 622.611C359.286 613.805 357.941 603.865 355.728 594.78L336.17 510.896L331.852 491.119C330.961 490.179 330.152 485.325 329.75 483.838C325.939 469.735 323.531 454.918 319.184 441.035L318.916 440.128L351 420.422C357.499 416.395 363.982 410.765 371.207 408.263C372.208 407.917 373.091 407.519 374.038 407.04L374.418 405.629C375.663 403.069 362.016 286.18 360.702 274.953Z"/>
	<path fill="#5167A0" transform="scale(0.362305 0.362305)" d="M417.797 873.822C418.895 878.142 419.049 882.72 419.484 887.148L421.472 906.382C422.153 913.122 423.519 920.381 423.563 927.11L408.582 922.896C407.655 922.408 407.64 922.569 407.152 921.552L417.797 873.822Z"/>
	<defs>
		<linearGradient id="gradient_9" gradientUnits="userSpaceOnUse" x1="343.87155" y1="709.95764" x2="411.44751" y2="679.35077">
			<stop offset="0" stop-color="#455DAA"/>
			<stop offset="1" stop-color="#6686AD"/>
		</linearGradient>
	</defs>
	<path fill="url(#gradient_9)" transform="scale(0.362305 0.362305)" d="M331.852 491.119L332.32 491L352.13 561.923L379.399 655.433L393.527 697.403C397.318 707.895 401.851 718.359 404.265 729.276C405.885 736.606 406.021 744.77 406.796 752.25L411.799 802.528L415.377 839.876C416.479 850.253 418.193 860.776 417.94 871.227C416.805 870.313 415.791 869.592 414.506 868.911L414.176 866.514C413.449 859.91 412.056 853.511 410.354 847.094L362.298 622.611C359.286 613.805 357.941 603.865 355.728 594.78L336.17 510.896L331.852 491.119Z"/>
	<defs>
		<linearGradient id="gradient_10" gradientUnits="userSpaceOnUse" x1="554.20435" y1="931.67822" x2="640.84283" y2="267.63101">
			<stop offset="0" stop-color="#6989C2"/>
			<stop offset="1" stop-color="#ACBBBB"/>
		</linearGradient>
	</defs>
	<path fill="url(#gradient_10)" transform="scale(0.362305 0.362305)" d="M659.534 268.046C660.498 270.393 660.007 273.502 659.86 276L658.153 294.531L652.518 362.25L635.443 567.054C636.726 563.621 637.106 559.778 637.75 556.186L640.589 540.816L648.768 497.548L661.917 428.132L691.686 457.844L701.469 467.614C703.375 469.52 705.214 471.653 707.482 473.119L678.045 602.537L645.868 740.855C644.931 743.011 644.565 745.446 643.975 747.724L640.741 761.613C637.76 772.4 635.838 783.495 633.559 794.447L623.482 845C622.078 852.884 619.521 861.757 619.472 869.721C618.236 875.156 615.982 880.219 614.167 885.48C612.391 884.959 611.306 884.279 609.534 884.911L608.971 893.697C608.804 895.44 608.236 897.536 609.052 899.135L609.224 899.52L601.316 922.862C591.087 925.666 581.466 931.538 571.585 935.43L561.111 940.221L526.439 954.523C524.313 955.438 513.149 960.895 511.981 960.801C510.721 960.699 508.707 959.655 507.464 959.185L495.526 954.453L474.614 946.532L455.976 939.222L447.082 758.279C450.6 754.024 453.424 748.782 456.525 744.18L468.776 727.322L542.145 625.229L559.796 600.912C564.437 594.498 568.875 587.723 574.453 582.081L580.556 434.1C580.048 431.568 580.413 428.316 580.409 425.71L581.837 393.608L583.085 360.244L585.159 313.069C589.811 308.897 596.85 305.97 602.335 302.825L648.627 275.618L656.116 271.129C656.808 270.716 658.508 269.961 659 269.409C659.324 269.044 659.356 268.5 659.534 268.046Z"/>
	<path fill="#5167A0" transform="scale(0.362305 0.362305)" d="M580.556 434.1L581.283 434.5C581.453 442.106 580.808 449.58 580.567 457.167L579.98 493.447L578.462 612.713L577.722 700.638L572.92 879L571.819 916.104L570.981 929.964C570.96 931.54 570.645 934.111 571.585 935.43L561.111 940.221L565.914 786.939C567.112 780.19 566.876 773.004 567.195 766.149L568.988 721.25L574.453 582.081L580.556 434.1Z"/>
	<defs>
		<linearGradient id="gradient_11" gradientUnits="userSpaceOnUse" x1="545.70435" y1="852.8053" x2="729.43372" y2="461.96472">
			<stop offset="0" stop-color="#31325E"/>
			<stop offset="1" stop-color="#54537F"/>
		</linearGradient>
	</defs>
	<path fill="url(#gradient_11)" transform="scale(0.362305 0.362305)" d="M661.917 428.132L691.686 457.844L701.469 467.614C703.375 469.52 705.214 471.653 707.482 473.119L678.045 602.537L645.868 740.855C644.931 743.011 644.565 745.446 643.975 747.724L640.741 761.613C637.76 772.4 635.838 783.495 633.559 794.447L623.482 845C622.078 852.884 619.521 861.757 619.472 869.721C618.236 875.156 615.982 880.219 614.167 885.48C612.391 884.959 611.306 884.279 609.534 884.911L629.453 632.606L629.325 632.008C628.782 628.321 634.373 568.539 635.443 567.054C636.726 563.621 637.106 559.778 637.75 556.186L640.589 540.816L648.768 497.548L661.917 428.132Z"/>
	<path fill="#717787" transform="scale(0.362305 0.362305)" d="M648.768 497.548C649.955 499.804 649.443 502.755 649.065 505.27L646.891 523.88L634.113 609.232L631.527 624.196C631.06 626.919 630.845 630.189 629.453 632.606L629.325 632.008C628.782 628.321 634.373 568.539 635.443 567.054C636.726 563.621 637.106 559.778 637.75 556.186L640.589 540.816L648.768 497.548Z"/>
	<path fill="#C3CDD5" transform="scale(0.362305 0.362305)" d="M447.082 758.279C450.6 754.024 453.424 748.782 456.525 744.18L468.776 727.322L542.145 625.229L559.796 600.912C564.437 594.498 568.875 587.723 574.453 582.081L568.988 721.25L567.195 766.149C566.876 773.004 567.112 780.19 565.914 786.939L561.111 940.221L526.439 954.523C524.313 955.438 513.149 960.895 511.981 960.801C510.721 960.699 508.707 959.655 507.464 959.185L495.526 954.453L474.614 946.532L455.976 939.222L447.082 758.279Z"/>
	<path fill="#7C92C0" transform="scale(0.362305 0.362305)" d="M565.914 786.939L561.111 940.221L526.439 954.523C524.313 955.438 513.149 960.895 511.981 960.801C510.721 960.699 508.707 959.655 507.464 959.185L495.526 954.453L474.614 946.532C479.6 939.421 483.525 932.073 487.769 924.52L505.033 894.081L548.091 818.626C553.957 808.124 560.579 797.693 565.914 786.939Z"/>
	<path fill="#F4F5F4" transform="scale(0.362305 0.362305)" d="M360.702 274.953C360.453 274.186 360.02 273.47 360.242 272.659C361.016 269.83 364.504 266.138 366.272 263.675L383.484 239.729L474.75 111.08L501.832 71.6335L508.106 62.6012C509.206 61.0332 510.244 59.1661 511.971 58.25L513.142 59.4323C516.37 62.6796 518.976 66.7721 521.629 70.4953L536.547 91.9215L621.237 212.753L649.079 252.568L656.164 262.596C657.345 264.262 658.979 266.076 659.534 268.046C659.356 268.5 659.324 269.044 659 269.409C658.508 269.961 656.808 270.716 656.116 271.129L648.627 275.618L602.335 302.825C596.85 305.97 589.811 308.897 585.159 313.069L583.085 360.244L581.837 393.608L580.409 425.71C580.413 428.316 580.048 431.568 580.556 434.1L574.453 582.081C568.875 587.723 564.437 594.498 559.796 600.912L542.145 625.229L468.776 727.322L456.525 744.18C453.424 748.782 450.6 754.024 447.082 758.279L429.779 317.566L388.189 291.54C379.293 285.946 370.431 278.996 360.702 274.953Z"/>
	<path fill="#C3CDD5" transform="scale(0.362305 0.362305)" d="M558.268 314.714L566.998 314.373L444.484 488.292L441.123 493.192L439.23 441.141L438.678 426.834C438.628 425.402 438.199 422.787 438.716 421.539L489.998 317.241L558.268 314.714Z"/>
	<path fill="#E2E4E4" transform="scale(0.362305 0.362305)" d="M513.142 59.4323C516.37 62.6796 518.976 66.7721 521.629 70.4953L536.547 91.9215L621.237 212.753L649.079 252.568L656.164 262.596C657.345 264.262 658.979 266.076 659.534 268.046C659.356 268.5 659.324 269.044 659 269.409C658.508 269.961 656.808 270.716 656.116 271.129L648.627 275.618L602.335 302.825C596.85 305.97 589.811 308.897 585.159 313.069L584.718 311.366L493.506 310.892L513.056 61.8851L513.142 59.4323Z"/>
	<path fill="#C3CDD5" transform="scale(0.362305 0.362305)" d="M513.142 59.4323C516.37 62.6796 518.976 66.7721 521.629 70.4953L536.547 91.9215L621.237 212.753L649.079 252.568L656.164 262.596C657.345 264.262 658.979 266.076 659.534 268.046C659.356 268.5 659.324 269.044 659 269.409C658.508 269.961 656.808 270.716 656.116 271.129L648.627 275.618L602.335 302.825C596.85 305.97 589.811 308.897 585.159 313.069L584.718 311.366C583.293 302.288 579.564 292.881 577.052 284L558.054 218L526.108 107L513.056 61.8851L513.142 59.4323Z"/>
</svg>
