<?xml version="1.0" encoding="utf-8" ?>
<svg xmlns="http://www.w3.org/2000/svg" xmlns:xlink="http://www.w3.org/1999/xlink" width="371" height="371">
	<path fill="#F0E9E8" transform="scale(0.362305 0.362305)" d="M511.111 137.972C529.052 137.945 549.293 137.638 566.219 144.327C567.961 145.015 570.86 146.029 572.085 147.423C572.684 148.104 572.845 148.651 573.07 149.488C572.545 151.362 572.2 151.611 570.5 152.583C567.95 154.042 564.815 154.759 562 155.527C551.657 158.349 540.876 158.802 530.224 159.275L511.358 160.041C511.797 152.486 511.865 145.519 511.111 137.972Z"/>
	<path fill="#B8B5B5" transform="scale(0.362305 0.362305)" d="M448.319 150.391C448.479 149.265 448.778 148.442 449.25 147.409C454.885 143.089 463.163 141.951 470 140.959C483.722 138.966 497.267 138.358 511.111 137.972C511.865 145.519 511.797 152.486 511.358 160.041L511.081 160.089C489.2 157.894 468.643 160.913 448.319 150.391Z"/>
	<path fill="#4F848B" transform="scale(0.362305 0.362305)" d="M573.07 149.488L573.205 150.241C573.892 154.47 573.055 159.885 573.094 164.25L576.678 164.918L573.213 165.25C571.751 171.203 573.275 178.815 572.755 185.031L572.522 194.472C564.699 197.918 556.757 199.185 548.353 200.285C536.118 201.887 523.708 202.329 511.376 202.114L511.081 160.089L511.358 160.041L530.224 159.275C540.876 158.802 551.657 158.349 562 155.527C564.815 154.759 567.95 154.042 570.5 152.583C572.2 151.611 572.545 151.362 573.07 149.488Z"/>
	<path fill="#202836" transform="scale(0.362305 0.362305)" d="M448.319 150.391C468.643 160.913 489.2 157.894 511.081 160.089L511.376 202.114L490.966 201.043C477.041 200.403 461.405 200.742 448.922 193.847L448.694 178.38L448.563 166.307L448.319 150.391Z"/>
	<path fill="#EF712C" transform="scale(0.362305 0.362305)" d="M659.903 762.012C665.887 760.9 672.112 758.76 677.938 756.961C689.61 753.356 701.466 749.895 711.787 743.114C714.074 741.611 716.351 739.487 718.25 737.502C719.48 736.215 720.7 734.182 722.388 733.578L722.508 806.27L722.514 825.909C722.528 829.509 722.937 833.699 722.348 837.244C721.801 840.541 719.436 843.778 717.163 846.12C702.472 861.253 678.723 865.143 659.128 870.236L659.554 798.627L659.598 776.14C659.607 771.46 659.4 766.665 659.903 762.012Z"/>
	<path fill="#992711" transform="scale(0.362305 0.362305)" d="M300.768 740.389C322.495 756.037 347.92 760.851 373.694 765.811C386.41 768.258 399.086 770.74 411.989 772.002L411.926 878.207C385.155 874.049 357.19 869.685 331.671 860.346C323.037 857.186 313.467 853.143 306.849 846.522C304.23 843.902 301.672 840.427 300.992 836.725C300.389 833.445 300.737 829.694 300.772 826.37L300.856 809.196L300.768 740.389Z"/>
	<path fill="#586773" transform="scale(0.362305 0.362305)" d="M722.447 313.598L722.388 733.578C720.7 734.182 719.48 736.215 718.25 737.502C716.351 739.487 714.074 741.611 711.787 743.114C701.466 749.895 689.61 753.356 677.938 756.961C672.112 758.76 665.887 760.9 659.903 762.012L659.857 660.902L659.711 452.906L659.632 378.162L659.81 352.432C659.753 349.808 660.023 346.362 659.064 343.917L659.506 343.524L660.992 343.348C668.366 342.251 675.71 340.006 682.799 337.744C698.072 332.87 712.595 326.941 722.447 313.598Z"/>
	<path fill="#EB4721" transform="scale(0.362305 0.362305)" d="M659.903 762.012C659.4 766.665 659.607 771.46 659.598 776.14L659.554 798.627L659.128 870.236L617.124 878.238C581.987 883.276 545.959 884.384 510.506 884.592L411.926 878.207L411.989 772.002L510.518 777.537L512.16 777.607C547.06 776.223 581.791 774.592 616.425 769.896C630.965 767.924 645.686 765.727 659.903 762.012Z"/>
	<path fill="#B33316" transform="scale(0.362305 0.362305)" d="M411.989 772.002L510.518 777.537L512.16 777.607L510.633 778.25L510.506 884.592L411.926 878.207L411.989 772.002Z"/>
	<path fill="#202836" transform="scale(0.362305 0.362305)" d="M300.98 317.714C303.982 320.756 306.94 323.696 310.586 325.965C329.237 337.57 353.163 342.125 374.375 346.305C386.713 348.736 399.402 351.224 411.956 352.086L411.989 772.002C399.086 770.74 386.41 768.258 373.694 765.811C347.92 760.851 322.495 756.037 300.768 740.389L300.98 317.714Z"/>
	<path fill="#DDC19B" transform="scale(0.362305 0.362305)" d="M576.678 164.918L620.399 169.105C634.561 170.896 648.559 173.591 662.5 176.631C677.877 179.985 693.088 183.492 707.136 190.836C711.606 193.172 717.007 196.164 720.175 200.164C721.848 202.277 722.576 204.177 722.834 206.829L722.996 279.614L723 300.015C723.004 304.51 723.26 309.165 722.447 313.598C712.595 326.941 698.072 332.87 682.799 337.744C675.71 340.006 668.366 342.251 660.992 343.348L659.506 343.524L659.064 343.917L658.533 343.974C646.01 345.422 633.609 349.057 621.135 351.008C592.071 355.554 562.313 356.857 532.935 357.259C526.023 357.353 518.169 358.206 511.334 357.468L511.009 357.53L412.326 351.949L411.956 352.086C399.402 351.224 386.713 348.736 374.375 346.305C353.163 342.125 329.237 337.57 310.586 325.965C306.94 323.696 303.982 320.756 300.98 317.714L300.962 209.459C300.919 205.767 301.333 203.15 303.721 200.215C310.691 191.653 322.727 187.614 332.826 184.296C370.322 171.975 409.641 170.397 448.563 166.307L448.694 178.38L448.922 193.847C461.405 200.742 477.041 200.403 490.966 201.043L511.376 202.114C523.708 202.329 536.118 201.887 548.353 200.285C556.757 199.185 564.699 197.918 572.522 194.472L572.755 185.031C573.275 178.815 571.751 171.203 573.213 165.25L576.678 164.918Z"/>
	<path fill="#C29B75" transform="scale(0.362305 0.362305)" d="M448.694 178.38L448.922 193.847C461.405 200.742 477.041 200.403 490.966 201.043L511.376 202.114C523.708 202.329 536.118 201.887 548.353 200.285C556.757 199.185 564.699 197.918 572.522 194.472L572.755 185.031C587.054 186.834 601.705 188.103 615.434 192.741C618.901 193.913 622.883 195.104 625.253 198.081C626.081 199.121 626.75 200.363 626.375 201.737C625.468 205.058 621.008 206.859 618.14 208.164C614.765 209.699 611.206 210.775 607.653 211.821C594.235 215.775 580.466 217.295 566.598 218.673C526.019 222.706 484.094 222.547 443.658 217.109C429.383 215.189 412.611 213.043 399.952 205.729C398.342 204.799 396.399 203.182 396.024 201.25C395.68 199.479 395.807 197.69 396.939 196.25C404.336 186.841 436.314 182.79 448.093 181.25L448.694 178.38Z"/>
	<path fill="#992711" transform="scale(0.362305 0.362305)" d="M300.962 209.459C308.684 220.343 320.892 225.262 333.189 229.275C341.374 231.945 349.755 234.066 358.25 235.499L412.904 243.894L412.997 327.137L412.944 342.099C412.843 344.783 411.433 349.517 412.326 351.949L411.956 352.086C399.402 351.224 386.713 348.736 374.375 346.305C353.163 342.125 329.237 337.57 310.586 325.965C306.94 323.696 303.982 320.756 300.98 317.714L300.962 209.459Z"/>
	<path fill="#EB4721" transform="scale(0.362305 0.362305)" d="M722.834 206.829L722.996 279.614L723 300.015C723.004 304.51 723.26 309.165 722.447 313.598C712.595 326.941 698.072 332.87 682.799 337.744C675.71 340.006 668.366 342.251 660.992 343.348L659.506 343.524L659.064 343.917L658.533 343.974C646.01 345.422 633.609 349.057 621.135 351.008C592.071 355.554 562.313 356.857 532.935 357.259C526.023 357.353 518.169 358.206 511.334 357.468L511.009 357.53L412.326 351.949C411.433 349.517 412.843 344.783 412.944 342.099L412.997 327.137L412.904 243.894L511 248.423C547.719 248.811 584.687 247.063 621.161 242.75C633.852 241.249 647.11 239.71 659.516 236.588C678.139 232.638 701.176 228.695 716.384 216.45C719.317 214.089 722.422 210.657 722.834 206.829Z"/>
	<path fill="#EF712C" transform="scale(0.362305 0.362305)" d="M722.834 206.829L722.996 279.614L723 300.015C723.004 304.51 723.26 309.165 722.447 313.598C712.595 326.941 698.072 332.87 682.799 337.744C675.71 340.006 668.366 342.251 660.992 343.348L659.506 343.524L659.516 236.588C678.139 232.638 701.176 228.695 716.384 216.45C719.317 214.089 722.422 210.657 722.834 206.829Z"/>
	<path fill="#B33316" transform="scale(0.362305 0.362305)" d="M412.904 243.894L511 248.423L510.993 326.579L510.994 346.531C510.997 350.034 510.582 354.043 511.334 357.468L511.009 357.53L412.326 351.949C411.433 349.517 412.843 344.783 412.944 342.099L412.997 327.137L412.904 243.894Z"/>
	<path fill="#475765" transform="scale(0.362305 0.362305)" d="M511.334 357.468C518.169 358.206 526.023 357.353 532.935 357.259C562.313 356.857 592.071 355.554 621.135 351.008C633.609 349.057 646.01 345.422 658.533 343.974L659.064 343.917C660.023 346.362 659.753 349.808 659.81 352.432L659.632 378.162L659.711 452.906L659.857 660.902L659.903 762.012C645.686 765.727 630.965 767.924 616.425 769.896C581.791 774.592 547.06 776.223 512.16 777.607L510.518 777.537L411.989 772.002L411.956 352.086L412.326 351.949L511.009 357.53L511.334 357.468Z"/>
	<path fill="#F6B235" transform="scale(0.362305 0.362305)" d="M527.381 584.239L556.97 584.648C565.099 584.706 573.805 582.94 581.758 585.19L510.474 722.997C509.83 721.363 509.485 720.022 509.548 718.25C509.841 710.094 511.204 701.556 512.48 693.5L519.406 653.079L529.586 585.5L530.25 584.774L527.381 584.239Z"/>
	<path fill="#F8D771" transform="scale(0.362305 0.362305)" d="M511.576 459.791L531.255 420.052L531.03 564.239L593.03 563.74L581.758 585.19C573.805 582.94 565.099 584.706 556.97 584.648L527.381 584.239L509.996 584.22L509.883 464.279L511.576 459.791Z"/>
	<path fill="#2A3747" transform="scale(0.362305 0.362305)" d="M412.326 351.949L511.009 357.53L510.871 421.372C510.783 432.589 510.027 444.057 510.512 455.25C510.58 456.818 510.967 458.349 511.576 459.791L509.883 464.279L509.996 584.22L527.381 584.239L530.25 584.774L529.586 585.5L519.406 653.079L512.48 693.5C511.204 701.556 509.841 710.094 509.548 718.25C509.485 720.022 509.83 721.363 510.474 722.997L509.322 725.534C511.737 730.437 510.502 739.844 510.508 745.341L510.518 777.537L411.989 772.002L411.956 352.086L412.326 351.949Z"/>
	<path fill="#EF712C" transform="scale(0.362305 0.362305)" d="M509.322 725.534L494.335 754.401C493.748 753.49 494.427 626.117 494.443 614.014L434.794 614.157C437.046 608.27 440.579 602.875 443.413 597.239L463.87 556.503L493.928 496.172C499.188 485.573 503.985 474.524 509.883 464.279L509.996 584.22L527.381 584.239L530.25 584.774L529.586 585.5L519.406 653.079L512.48 693.5C511.204 701.556 509.841 710.094 509.548 718.25C509.485 720.022 509.83 721.363 510.474 722.997L509.322 725.534Z"/>
</svg>
