<?xml version="1.0" encoding="utf-8" ?>
<svg xmlns="http://www.w3.org/2000/svg" xmlns:xlink="http://www.w3.org/1999/xlink" width="300" height="300">
	<path fill="#15E1DA" transform="scale(0.292969 0.292969)" d="M341.887 185.198C348.962 183.634 358.97 186.682 364.921 190.541C372.609 195.525 377.69 203.774 379.458 212.675C381.306 221.982 379.171 232.196 373.693 239.937C367.655 248.469 359.026 252.646 349.036 254.486C339.353 254.837 332.269 252.469 324.523 246.675C316.833 240.922 311.816 231.227 310.65 221.75C309.6 213.211 312.774 204.09 318.078 197.439C324.287 189.653 332.208 186.341 341.887 185.198Z"/>
	<path fill="#10C9BE" transform="scale(0.292969 0.292969)" d="M687.657 736.631C691.655 734.327 695.672 732.039 700.231 731.054L701 730.893C705.355 729.896 709.69 729.791 714.138 729.588C721.493 730.523 728.02 731.786 734.186 736.305C737.784 738.941 740.766 742.575 743.6 745.991C747.185 752.384 749.548 758.933 750.435 766.235C750.201 778.144 746.613 788.562 737.853 796.966C731.09 803.453 720.293 807.353 710.907 806.938C699.66 806.441 689.63 802.157 682.053 793.692C678.541 789.769 676.075 784.986 674.375 780.026C670.487 770.155 672.108 762.777 675.575 753.093C677.794 746.696 683.34 741.604 687.657 736.631Z"/>
	<path fill="#15E1DA" transform="scale(0.292969 0.292969)" d="M687.657 736.631C691.655 734.327 695.672 732.039 700.231 731.054L701 730.893C705.355 729.896 709.69 729.791 714.138 729.588C718.804 741.744 721.722 755.458 716.077 767.834C713.169 774.21 708.172 779.933 701.483 782.368C693.732 785.189 684.775 784.57 677.36 781.117C676.372 780.658 675.415 780.339 674.375 780.026C670.487 770.155 672.108 762.777 675.575 753.093C677.794 746.696 683.34 741.604 687.657 736.631Z"/>
	<path fill="#FEAC28" transform="scale(0.292969 0.292969)" d="M621.464 719.5C622.785 719.614 623.533 719.772 624.757 720.342C626.269 721.045 627.845 721.375 629.457 721.75L639.417 724.261L687.657 736.631C683.34 741.604 677.794 746.696 675.575 753.093L635.712 742.746C630.246 768.626 622.693 793.91 613.153 818.587C598.532 856.41 577.523 898.373 542.533 921.007C533.625 926.769 523.058 930.036 512.486 930.588L512.204 910.917C514.939 910.723 517.511 910.518 520.16 909.76L521 909.511C525.744 908.135 530.004 906.109 534.17 903.468C548.892 894.137 560.537 878.733 569.676 864.159C587.098 836.38 598.473 806.618 607.689 775.285L617.992 736.83L621.464 719.5Z"/>
	<path fill="#FEAC28" transform="scale(0.292969 0.292969)" d="M811.039 254.724C833.635 259.966 855.781 268.327 868.666 288.859C879.179 305.612 879.838 326.192 875.468 344.983C870.864 364.783 861.897 383.428 851.683 400.896C834.113 430.944 812.421 457.786 789.244 483.647C781.463 492.329 772.667 500.223 765.141 509.078C763.216 507.191 761.604 505.06 759.598 503.223C756.94 500.791 753.902 498.711 751.146 496.372L810.03 429.464C822.423 413.025 833.675 395.947 843.178 377.672C852.71 359.339 861.823 338.382 858.999 317.25C857.986 309.667 855.35 302.497 850.882 296.25C840.7 282.013 823.34 275.582 806.692 272.917C809.642 267.706 810.714 260.62 811.039 254.724Z"/>
	<path fill="#FEAC28" transform="scale(0.292969 0.292969)" d="M752.854 524.676C754.798 521.404 757.592 519.653 760.201 517.018C762.159 515.041 763.628 512.713 765.087 510.363C788.342 533.041 809.234 557.527 828.191 583.896C842.505 603.807 855.627 624.473 865.871 646.803C872.949 662.231 879.457 678.961 879.649 696.166C879.836 712.868 874.775 727.634 863.006 739.741C842.855 760.47 809.17 766.669 781.273 766.915L750.435 766.235C749.548 758.933 747.185 752.384 743.6 745.991L780.281 747.539C802.815 747.994 831.654 744.234 848.521 727.785C855.93 720.559 861.544 709.788 861.454 699.25C861 646.045 790.498 560.343 752.854 524.676Z"/>
	<path fill="#10C9BE" transform="scale(0.292969 0.292969)" d="M753.395 204.493C764.575 201.983 777.71 205.212 787.297 211.16C797.403 217.429 806.775 229.578 809.277 241.36L811.039 254.724C810.714 260.62 809.642 267.706 806.692 272.917C799.504 286.897 791.23 296.447 775.886 301.418C764.324 305.163 751.259 303.756 740.477 298.25C731.056 293.439 723.647 286.199 718.444 277.001C717.517 275.508 716.926 273.607 716.244 271.977C714.156 267.858 713.354 263.172 712.498 258.676C712 253.37 711.628 247.352 713.157 242.186C715.426 234.519 718.241 227.733 723.357 221.47C730.93 212.2 741.337 205.72 753.395 204.493Z"/>
	<path fill="#15E1DA" transform="scale(0.292969 0.292969)" d="M712.498 258.676C712 253.37 711.628 247.352 713.157 242.186C715.426 234.519 718.241 227.733 723.357 221.47C730.93 212.2 741.337 205.72 753.395 204.493C755.019 204.558 757.357 204.315 758.691 205.181C760.836 206.575 763.24 207.546 765.335 209.019C771.417 213.292 776.5 220.295 778.173 227.594L778.58 230L778.7 230.763C779.764 238.289 775.588 247.075 771.086 252.9C762.79 263.636 748.058 270.193 734.797 271.801C728.724 272.537 722.355 272.189 716.244 271.977C714.156 267.858 713.354 263.172 712.498 258.676Z"/>
	<path fill="#FEAC28" transform="scale(0.292969 0.292969)" d="M511.966 84.845C537.241 87.3005 556.304 102.477 571.955 121.568C583.336 135.45 592.195 151.693 599.852 167.87C610.578 190.531 619.196 213.96 626.128 238.046L636.736 278.658L712.498 258.676C713.354 263.172 714.156 267.858 716.244 271.977C716.926 273.607 717.517 275.508 718.444 277.001L640.093 296.648C637.496 296.99 635.232 297.601 632.75 298.398L626.75 300.421C625.038 301.05 623.451 301.669 621.842 302.537L531.677 340.376C530.083 338.788 525.805 337.118 523.675 335.954L512.431 329.157C524.076 321.32 537.456 316.121 550.271 310.527C572.619 300.77 594.968 291.028 618.451 284.316L618.507 283.693C618.325 281.431 617.382 278.78 616.899 276.523L610.428 251.009C602.52 223.658 593.788 197.083 581.114 171.5C573.559 156.249 564.918 141.656 553.74 128.758C542.854 116.197 528.891 106.129 511.89 104.873L511.966 84.845Z"/>
	<path fill="#10C9BE" transform="scale(0.292969 0.292969)" d="M180.304 642.132C185.544 643.131 190.564 643.878 195.628 645.674C207.123 649.748 217.525 658.717 224.288 668.725C233.07 681.72 238.035 697.965 234.86 713.643C231.845 728.531 225.917 738.457 216.155 750.021C213.192 752.19 210.23 754.479 207.097 756.395C203.873 758.369 200.434 759.936 197.248 761.982L196.859 762.227C194.721 761.613 187.908 764.058 185.286 764.521C181.367 765.214 177.346 765.367 173.379 765.128C156.826 764.132 141.19 756.233 130.283 743.788C121.948 734.277 116.099 721.226 114.677 708.645C114.139 703.887 114.456 698.891 114.756 694.119C115.206 690.806 115.604 687.757 116.427 684.5C117.268 681.169 118.328 678.079 119.794 674.962C127.173 659.282 140.213 649.979 156.103 644.326L157.339 643.57C164.847 642.217 172.676 641.196 180.304 642.132Z"/>
	<path fill="#15E1DA" transform="scale(0.292969 0.292969)" d="M114.756 694.119C115.206 690.806 115.604 687.757 116.427 684.5C117.268 681.169 118.328 678.079 119.794 674.962C127.173 659.282 140.213 649.979 156.103 644.326C160.596 645.914 165.234 646.386 169.829 647.565C182.172 650.734 191.999 658.192 197.461 669.771C202.488 680.43 204.182 692.719 200.075 703.975C196.098 714.873 188.478 723.958 177.853 728.771C167.854 733.299 154.845 734.112 144.519 730.248C133.246 726.029 124.621 716.623 119.756 705.817C118.184 702.325 117.196 696.897 114.756 694.119Z"/>
	<path fill="#FED95C" transform="scale(0.292969 0.292969)" d="M369.253 605.036L381.603 613.574C383.885 615.302 386.616 618.364 389.12 619.496C392.573 620.783 395.763 623.364 398.88 625.324L416.576 636.309L463.594 665.602L489.148 681.547C492.414 682.924 508.952 690.46 510.519 692.712L407.733 735.715L421.839 789.575C430.705 819.578 443.161 850.167 461.306 875.786C469.123 886.824 478.705 897.648 490.704 904.223C497.581 907.991 504.451 909.947 512.204 910.917L512.486 930.588C498.211 930.523 484.615 924.108 473.372 915.682C461.109 906.492 451.212 894.065 442.783 881.374C421.37 849.135 408.396 813.112 398.188 775.994C395.068 764.649 391.52 753.033 389.825 741.382L354.014 750.816L310.594 761.75L265.75 768.69C252.341 770.297 237.677 771.88 224.212 770.176C214.34 768.927 205.62 767.207 196.859 762.227L197.248 761.982C200.434 759.936 203.873 758.369 207.097 756.395C210.23 754.479 213.192 752.19 216.155 750.021C232.381 752.702 249.072 751.177 265.321 749.313L298.359 744.777C327.885 739.347 356.573 731.198 385.48 723.239L369.253 605.036ZM389.12 619.496L403.643 717.134L465.569 692.432L481.362 685.329C483.71 684.191 486.667 682.223 489.148 681.547L463.594 665.602L416.576 636.309L398.88 625.324C395.763 623.364 392.573 620.783 389.12 619.496Z"/>
	<path fill="#FED95C" transform="scale(0.292969 0.292969)" d="M157.339 643.57C161.77 635.175 167.154 627.106 172.239 619.091C197.705 578.951 228.117 543.66 261.083 509.572C253.99 503.639 247.461 495.604 241.206 488.742C210.458 455.01 181.054 417.598 161.284 376.254C150.578 353.866 140.846 325.635 149.72 301.081C155.829 284.177 168.992 271.414 185.11 263.875C210.572 251.965 241.42 253.19 268.75 255.461C294.395 257.593 319.171 261.706 344.25 267.444C358.418 270.685 372.994 273.942 386.656 278.89C396.879 239.767 407.283 201.565 425.105 165.071C433.468 147.946 442.922 131.778 455.238 117.132C464.837 105.717 476.48 94.9349 490.581 89.4256C497.655 86.6617 504.438 85.489 511.966 84.845L511.89 104.873C495.335 105.882 481.828 114.677 471.041 126.864C448.894 151.886 435.679 183.428 424.985 214.685L410.761 260.504L406.29 276.818C405.66 279.217 404.613 281.861 404.398 284.314C430.59 292.809 456.129 302.442 481.152 313.986C491.234 318.637 501.397 323.277 511.069 328.749C504.754 331.934 497.532 336.722 490.806 338.648L490.544 338.75C490.364 339.083 490.266 339.476 490.004 339.75C489.115 340.677 486.725 341.66 485.56 342.334L471.457 350.441L414.089 384.636L396.215 396.648C393.292 398.671 390.402 401.075 387.311 402.808L376.398 410.932C373.973 412.794 370.983 415.532 368.043 416.441L367.192 416.119L383.145 297.58C381.15 296.155 377.96 295.46 375.613 294.739L354.959 289.355C328.339 283.186 301.645 277.553 274.444 274.706C253.696 272.534 232.679 271.919 212.04 275.361C196.844 277.896 180.948 284.394 171.885 297.462C164.642 307.904 163.737 322.105 166.107 334.264C168.784 347.998 174.338 361.029 180.495 373.519C203.381 419.951 238.655 459.256 273.994 496.562C279.452 500.7 283.885 505.419 288.52 510.415C284.556 513.193 280.907 516.315 277.25 519.477C276.053 520.512 274.552 521.544 273.932 523.034L228.836 573.037C210.882 594.583 194.756 618.105 180.304 642.132C172.676 641.196 164.847 642.217 157.339 643.57ZM387.311 402.808C390.402 401.075 393.292 398.671 396.215 396.648L414.089 384.636L471.457 350.441L485.56 342.334C486.725 341.66 489.115 340.677 490.004 339.75C490.266 339.476 490.364 339.083 490.544 338.75L401.562 303.076L387.311 402.808Z"/>
	<path fill="#FED95C" transform="scale(0.292969 0.292969)" d="M512.503 692.416L533.901 681.603L620.464 717.162C621.237 718.151 621.366 718.263 621.464 719.5L617.992 736.83C582.289 724.232 545.552 711.019 512.503 692.416Z"/>
	<path fill="#FE8A26" transform="scale(0.292969 0.292969)" d="M621.842 302.537C623.451 301.669 625.038 301.05 626.75 300.421L632.75 298.398C635.232 297.601 637.496 296.99 640.093 296.648L656.253 414.696C656.085 415.648 655.933 416.391 655.481 417.25C652.764 416.475 650.196 414.31 647.969 412.601L636.923 404.212L628.929 345.232C627.15 331.033 625.536 316.376 621.842 302.537Z"/>
	<path fill="#FE8A26" transform="scale(0.292969 0.292969)" d="M636.072 618.635C636.849 618.442 639.357 615.847 640.147 615.25L648.445 609.547C651.12 607.631 653.677 605.325 656.766 604.124C655.602 633.341 651.005 663.332 645.688 692.051L639.417 724.261L629.457 721.75C627.845 721.375 626.269 721.045 624.757 720.342C623.533 719.772 622.785 719.614 621.464 719.5C621.366 718.263 621.237 718.151 620.464 717.162L621.403 716.676C623.098 713.199 623.447 708.884 623.973 705.087L625.942 693.12C629.98 668.456 634.364 643.605 636.072 618.635Z"/>
	<path fill="#F37875" transform="scale(0.292969 0.292969)" d="M621.842 302.537C625.536 316.376 627.15 331.033 628.929 345.232L636.923 404.212L647.969 412.601C650.196 414.31 652.764 416.475 655.481 417.25C655.933 416.391 656.085 415.648 656.253 414.696C656.352 415.991 656.087 417.41 657.096 418.274C668.893 428.382 682.262 436.653 694.126 446.734L733.029 480.75L744.755 491.151C746.774 492.912 748.837 495.021 751.146 496.372C753.902 498.711 756.94 500.791 759.598 503.223C761.604 505.06 763.216 507.191 765.141 509.078C765.11 509.486 765.022 509.959 765.087 510.363C763.628 512.713 762.159 515.041 760.201 517.018C757.592 519.653 754.798 521.404 752.854 524.676L750.75 523.352C747.849 524.111 738.84 534.348 736.132 536.997L726.264 546.018L693.737 573.258L656.766 604.124C653.677 605.325 651.12 607.631 648.445 609.547L640.147 615.25C639.357 615.847 636.849 618.442 636.072 618.635C634.364 643.605 629.98 668.456 625.942 693.12L623.973 705.087C623.447 708.884 623.098 713.199 621.403 716.676L620.464 717.162L533.901 681.603L512.503 692.416L510.519 692.712C508.952 690.46 492.414 682.924 489.148 681.547L463.594 665.602L416.576 636.309L398.88 625.324C395.763 623.364 392.573 620.783 389.12 619.496C386.616 618.364 383.885 615.302 381.603 613.574L369.253 605.036L341.439 583.486L296.051 544.938C288.453 537.85 280.826 530.828 273.932 523.034C274.552 521.544 276.053 520.512 277.25 519.477C280.907 516.315 284.556 513.193 288.52 510.415C283.885 505.419 279.452 500.7 273.994 496.562L312.789 462.134L335.743 441.807L355.311 426.374C358.658 423.825 365.632 420.124 367.192 416.119L368.043 416.441C370.983 415.532 373.973 412.794 376.398 410.932L387.311 402.808C390.402 401.075 393.292 398.671 396.215 396.648L414.089 384.636L471.457 350.441L485.56 342.334C486.725 341.66 489.115 340.677 490.004 339.75C490.266 339.476 490.364 339.083 490.544 338.75L490.806 338.648C497.532 336.722 504.754 331.934 511.069 328.749L512.431 329.157L523.675 335.954C525.805 337.118 530.083 338.788 531.677 340.376L621.842 302.537ZM386.72 428.817C383.047 429.856 368.75 440.404 366.574 443.748L366.237 444.48C363.643 472.212 364.898 499.226 365.539 526.976L366.662 559.662C366.869 565.72 366.665 572.025 367.345 578.033C370.197 581.06 373.376 582.962 376.71 585.374L387.591 593.109C398.612 601.897 410.773 609.967 422.526 617.751L473.058 649.385L511.424 670.591L637.126 592.674L637.972 592.271C640.115 591.231 642.077 589.29 644.055 587.894C648.965 584.432 653.892 582.038 658.054 577.541L657.577 482.948L657.499 457.301C657.483 452.665 657.85 447.656 657.145 443.08C650.587 438.944 645.39 432.041 638 429.156L637.221 429.904L637.036 428.5C634.909 425.9 631.612 424.087 628.822 422.257L614.196 412.798L565.387 381.574L534.906 364.328C527.309 360.137 519.437 356.059 512.185 351.299L511.702 350.978C498.37 359.546 483.581 366.49 469.794 374.382L406.5 414.56L393.853 423.315C391.418 425.017 388.739 426.631 386.72 428.817ZM657.145 443.08C657.85 447.656 657.483 452.665 657.499 457.301L657.577 482.948L658.054 577.541L736.195 509.195L657.145 443.08ZM367.345 578.033C366.665 572.025 366.869 565.72 366.662 559.662L365.539 526.976C364.898 499.226 363.643 472.212 366.237 444.48L365.164 444.25L288.622 510.561L367.345 578.033ZM621.842 302.537L531.677 340.376L636.923 404.212L628.929 345.232C627.15 331.033 625.536 316.376 621.842 302.537ZM533.901 681.603L620.464 717.162L621.403 716.676C623.098 713.199 623.447 708.884 623.973 705.087L625.942 693.12C629.98 668.456 634.364 643.605 636.072 618.635L533.901 681.603Z"/>
	<path fill="#FED95C" transform="scale(0.292969 0.292969)" d="M366.237 444.48L366.574 443.748C368.75 440.404 383.047 429.856 386.72 428.817C382.59 467.681 382.571 506.8 384.446 545.801C385.202 561.518 387.358 577.413 387.591 593.109L376.71 585.374C373.376 582.962 370.197 581.06 367.345 578.033C366.665 572.025 366.869 565.72 366.662 559.662L365.539 526.976C364.898 499.226 363.643 472.212 366.237 444.48Z"/>
	<path fill="#FE8A26" transform="scale(0.292969 0.292969)" d="M637.221 429.904L638 429.156C645.39 432.041 650.587 438.944 657.145 443.08C657.85 447.656 657.483 452.665 657.499 457.301L657.577 482.948L658.054 577.541C653.892 582.038 648.965 584.432 644.055 587.894C642.077 589.29 640.115 591.231 637.972 592.271L637.221 429.904Z"/>
	<path fill="#FE8A26" transform="scale(0.292969 0.292969)" d="M592.316 436.39C613 459.261 623.606 486.815 621.874 517.748C620.508 542.15 610.195 564.263 594.388 582.638L533.381 520.781C532.031 519.702 530.975 518.521 529.833 517.229C530.831 512.147 530.906 507.5 529.296 502.546C533.669 496.556 540.287 491.054 545.549 485.702L578.481 451.811C583.189 446.734 588.05 441.86 592.316 436.39Z"/>
	<path fill="#FED95C" transform="scale(0.292969 0.292969)" d="M433.403 585.414C415.812 567.551 407.162 547.253 403.546 522.75L402.847 514.215C401.501 483.977 411.725 457.138 432.085 434.847L486.204 492.541C481.307 499.174 477.677 505.181 478.965 513.712C479.856 519.61 482.501 524.781 486.401 529.275L433.403 585.414Z"/>
	<path fill="#FEAC28" transform="scale(0.292969 0.292969)" d="M432.085 434.847C454.711 413.373 481.834 400.077 513.565 401.064C544.631 402.03 570.463 414.683 592.316 436.39C588.05 441.86 583.189 446.734 578.481 451.811L545.549 485.702C540.287 491.054 533.669 496.556 529.296 502.546C528.126 500.129 526.991 497.701 525.344 495.563C520.922 489.823 514.544 485.936 507.279 485.166C499.118 484.302 492.355 487.444 486.204 492.541L432.085 434.847Z"/>
	<path fill="#FEAC28" transform="scale(0.292969 0.292969)" d="M486.204 492.541C492.355 487.444 499.118 484.302 507.279 485.166C514.544 485.936 520.922 489.823 525.344 495.563C526.991 497.701 528.126 500.129 529.296 502.546C530.906 507.5 530.831 512.147 529.833 517.229C530.975 518.521 532.031 519.702 533.381 520.781L594.388 582.638C571.346 605.346 543.445 619.272 510.631 618.995C481.303 618.747 454.126 605.696 433.403 585.414L486.401 529.275C482.501 524.781 479.856 519.61 478.965 513.712C477.677 505.181 481.307 499.174 486.204 492.541Z"/>
	<path fill="#FEFEFB" transform="scale(0.292969 0.292969)" d="M486.204 492.541C492.355 487.444 499.118 484.302 507.279 485.166C514.544 485.936 520.922 489.823 525.344 495.563C526.991 497.701 528.126 500.129 529.296 502.546C530.906 507.5 530.831 512.147 529.833 517.229C527.515 524.173 523.806 530.206 517.091 533.601C511.192 536.584 503.189 537.718 496.862 535.65C492.841 534.336 489.502 532.088 486.401 529.275C482.501 524.781 479.856 519.61 478.965 513.712C477.677 505.181 481.307 499.174 486.204 492.541Z"/>
</svg>
