<?xml version="1.0" encoding="utf-8" ?>
<svg xmlns="http://www.w3.org/2000/svg" xmlns:xlink="http://www.w3.org/1999/xlink" width="371" height="371">
	<path fill="#F5CEA3" transform="scale(0.362305 0.362305)" d="M161.308 421.204C164.772 418.975 168.663 417.683 172.812 418.691C176.31 419.54 179.528 422.187 181.25 425.306C182.163 426.96 182.847 428.781 183.394 430.586L182.5 431.852C182.047 431.558 181.71 431.37 181.374 430.939C180.552 430.811 180.883 430.95 180.14 430.443C176.515 427.967 172.894 426.064 168.5 425.386C166.39 425.06 164.228 425.02 162.25 424.165L162.238 422.784L161.308 421.204Z"/>
	<path fill="#FEFEFE" transform="scale(0.362305 0.362305)" d="M162.238 422.784C167.218 421.133 171.588 421.363 176.337 423.897C178.913 425.271 180.373 427.191 181.125 429.969L181.374 430.939C180.552 430.811 180.883 430.95 180.14 430.443C176.515 427.967 172.894 426.064 168.5 425.386C166.39 425.06 164.228 425.02 162.25 424.165L162.238 422.784Z"/>
	<path fill="#F5CEA3" transform="scale(0.362305 0.362305)" d="M155.404 310.75C156.392 310.59 157.182 310.463 158.169 310.713C161.212 311.486 163.38 313.105 164.771 315.915C165.904 318.205 165.657 320.532 164.793 322.853C163.931 325.165 161.385 326.84 159.25 327.797C157.116 328.157 155.225 327.899 153.25 326.981C151.364 326.105 150.076 324.383 149.39 322.46C148.555 320.122 148.633 317.166 149.814 314.955C151.074 312.597 152.955 311.573 155.404 310.75Z"/>
	<path fill="#AEE39C" transform="scale(0.362305 0.362305)" d="M183.394 430.586L183.444 431.245C183.734 435.474 182.765 438.883 179.843 442.056C176.997 445.147 173.584 447.051 169.328 447.123C165.348 447.19 161.451 445.77 158.678 442.84C155.871 439.873 154.658 436.038 154.975 432C155.351 427.211 157.759 424.188 161.308 421.204L162.238 422.784L162.25 424.165C164.228 425.02 166.39 425.06 168.5 425.386C172.894 426.064 176.515 427.967 180.14 430.443C180.883 430.95 180.552 430.811 181.374 430.939C181.71 431.37 182.047 431.558 182.5 431.852L183.394 430.586Z"/>
	<path fill="#FEFEFE" transform="scale(0.362305 0.362305)" d="M235.551 452.045C237.846 452.056 240.507 452.314 242.613 453.285C246.087 454.886 248.657 457.385 249.96 461.021C251.231 464.566 250.807 468.852 249.219 472.207C247.208 476.459 243.546 477.975 239.356 479.377C236.307 479.579 233.54 479.095 230.843 477.581C227.549 475.733 224.954 472.199 224.123 468.53C223.333 465.041 224.23 460.908 226.196 457.945C228.477 454.508 231.651 452.963 235.551 452.045Z"/>
	<path fill="#F5CEA3" transform="scale(0.362305 0.362305)" d="M269.141 678.574L269.428 678.272C274.979 672.359 279.941 664.192 289.109 664.012C293.092 663.935 297.859 665.402 300.625 668.36C302.911 670.805 303.802 674.015 303.538 677.308C303.381 679.278 302.527 681.196 301.843 683.037C299.245 690.02 295.655 696.739 292.198 703.326C288.758 709.882 285.266 716.687 281.299 722.94C277.111 721.475 273.08 716.883 268.69 716.387C269.294 712.391 268.913 707.769 268.93 703.719L269.141 678.574Z"/>
	<path fill="#F5CEA3" transform="scale(0.362305 0.362305)" d="M213.188 336.565C216.099 336.419 219.094 336.456 221.917 337.224L222.75 337.465C228.372 339.063 232.829 343.021 235.815 347.98C238.966 353.214 240.694 360.352 239.19 366.368L239.018 367C238.181 370.224 236.909 373.595 234.85 376.263C230.643 381.714 225.069 384.631 218.339 385.635C212.855 386.44 206.656 385.12 202 382.125C196.699 378.715 193.153 372.996 191.75 366.925C190.143 359.97 192.192 352.866 196.081 347C200.137 340.883 206.189 337.98 213.188 336.565Z"/>
	<path fill="#FEFEFE" transform="scale(0.362305 0.362305)" d="M215.838 339.044C218.619 338.91 221.205 339.131 223.822 340.156C227.826 341.724 230.907 345.015 232.604 348.933C233.32 350.589 234.162 352.549 233.457 354.25L232.25 354.438L228.559 351.207C224.803 349.041 221.192 346.977 216.849 346.218C214.538 345.815 208.815 346.193 207.25 344.848L207.507 344C208.747 341.195 213.15 339.915 215.838 339.044Z"/>
	<path fill="#EEA177" transform="scale(0.362305 0.362305)" d="M359.13 398.874C365.051 397.554 369.886 396.913 375.959 397.016C374.06 408.237 375.495 420.316 373.87 431.652L373.68 430.66C373.212 427.926 373.702 424.56 373.981 421.792C364.184 420.217 355.451 420.318 347.001 426.231C339.889 431.209 335.801 439.818 334.589 448.25C333.067 458.835 335.329 469.08 341.874 477.591C348.463 486.161 357.943 491.998 368.77 493.191C372.924 493.648 377.226 492.566 381.279 492.985L386.731 510.504L385.166 510.887C373.497 513.578 360.964 510.646 351.001 504.324C337.823 495.964 328.133 480.791 324.932 465.621C321.655 450.094 324.093 433.984 332.774 420.624C338.323 412.084 348.883 401.09 359.13 398.874Z"/>
	<path fill="#E96E35" transform="scale(0.362305 0.362305)" d="M381.279 492.985C377.226 492.566 372.924 493.648 368.77 493.191C357.943 491.998 348.463 486.161 341.874 477.591C335.329 469.08 333.067 458.835 334.589 448.25C335.801 439.818 339.889 431.209 347.001 426.231C355.451 420.318 364.184 420.217 373.981 421.792C373.702 424.56 373.212 427.926 373.68 430.66L373.87 431.652C373.887 446.963 375.12 462.226 377.668 477.328C378.53 482.432 379.327 488.167 381.279 492.985Z"/>
	<path fill="#F5CEA3" transform="scale(0.362305 0.362305)" d="M197.801 763.503C187.844 763.615 173.497 762.371 164.85 757.114C160.722 754.604 159.386 750.594 158.231 746.202C158.899 743.017 159.85 739.814 162.318 737.516C167.254 732.92 177.807 734.897 184.156 735.086C178.49 733.02 172.488 731.268 167.339 728.049C163.404 725.588 160.818 722.455 159.838 717.822C159.235 714.971 159.949 711.458 161.671 709.094C164.153 705.686 167.975 704.123 172.011 703.444L176.097 702.768C172.858 700.437 169.167 699.712 166.068 696.833C163.335 694.294 161.447 691.05 161.476 687.251C161.502 683.788 162.733 680.637 165.333 678.295C170.391 673.741 177.241 674.51 183.531 674.818C178.609 671.297 172.851 667.12 169.996 661.627C168.235 658.236 167.883 653.972 169.187 650.346C170.092 647.828 171.811 646.06 174.25 644.969C180.828 642.026 191.627 646.477 197.751 649.09C202.309 652.822 208.819 658.001 209.537 664.294C210.019 668.528 207.861 671.407 207.808 675.25C209.16 676.285 210.965 676.536 212.593 676.927L215.989 678.137C219.749 679.391 222.88 681.863 224.615 685.489C225.272 686.863 225.52 688.404 225.838 689.882L226.034 690.754L226.144 691.28C224.995 696.537 223.602 700.778 218.875 703.977C216.808 705.375 214.138 705.901 211.75 706.526C211.146 707.721 211.145 707.909 211.259 709.25C212.851 710.462 214.684 711.088 216.315 712.189C219.59 714.4 221.969 717.92 222.436 721.882C222.802 724.988 221.282 729.693 219.293 732.049C215.864 736.11 211.826 736.614 206.856 737.069C210.288 739.89 213.005 742.349 213.443 747.082C213.547 748.194 213.346 749.167 213.141 750.25L212.995 751.067C212.505 753.661 211.611 756.224 209.89 758.273C208.075 760.434 205.126 762.029 204.66 764.833L204.25 763.292C202.133 763.084 199.925 763.372 197.801 763.503Z"/>
	<path fill="#EEA177" transform="scale(0.362305 0.362305)" d="M740.788 405.992C748.809 400.386 763.288 397.385 772.917 399.009C781.438 400.446 787.985 404.928 794.322 410.53L805.091 425.347C811.934 439.284 812.228 458.335 807.228 472.808C801.724 488.737 789.66 502.584 774.5 509.937C759.767 517.083 741.564 516.087 726.249 511.219C728.064 508.329 729.264 504.943 730.58 501.803L737.658 484.824L745.32 458.575L749.111 436.206L740.788 405.992Z"/>
	<path fill="#E96E35" transform="scale(0.362305 0.362305)" d="M749.111 436.206C753.993 431.339 760.143 427.129 767.271 427.002C772.093 426.916 775.42 428.607 778.762 431.939C780.516 433.687 781.879 435.287 783.032 437.5L783.413 438.213C785.627 442.462 786.011 446.967 786.513 451.636C785.824 461.95 782.525 472.193 774.44 479.131C767.65 484.958 758.91 487.711 750.025 487.011C745.818 486.68 741.808 485.051 737.658 484.824L745.32 458.575L749.111 436.206Z"/>
	<path fill="#E2624C" transform="scale(0.362305 0.362305)" d="M749.111 436.206C753.993 431.339 760.143 427.129 767.271 427.002C772.093 426.916 775.42 428.607 778.762 431.939C780.516 433.687 781.879 435.287 783.032 437.5L783.413 438.213C785.627 442.462 786.011 446.967 786.513 451.636L785.616 451.156C784.075 450.244 783.249 448.37 782.369 446.878C778.724 440.693 774.303 436.986 766.75 438.036C759.853 438.994 753.508 448.216 749.923 453.5C748.523 455.563 747.581 457.295 745.32 458.575L749.111 436.206Z"/>
	<path fill="#FEFEFE" transform="scale(0.362305 0.362305)" d="M197.751 649.09L197.514 539.265L196.857 539.106C193.867 538.364 191.683 537.514 189.25 535.614C187.679 531.969 187.886 517.588 189.458 514.034C189.97 512.878 191.291 511.742 192.489 511.336C196.681 509.915 274.899 510.955 276.427 511.896C277.841 512.767 278.465 513.957 278.797 515.533C279.877 520.651 280.134 531.925 277.326 536.328C274.776 538.301 272.123 538.671 269.03 539.171L269.141 678.574L268.93 703.719C268.913 707.769 269.294 712.391 268.69 716.387L268.655 760.144C268.259 773.323 267.04 785.303 256.893 794.886C252.426 799.106 247.546 801.212 241.958 803.55L235.109 804.444C226.312 804.805 216.411 801.676 209.893 795.681C200.16 786.728 198.257 776.263 197.801 763.503C199.925 763.372 202.133 763.084 204.25 763.292L204.66 764.833C205.126 762.029 208.075 760.434 209.89 758.273C211.611 756.224 212.505 753.661 212.995 751.067L213.141 750.25C213.346 749.167 213.547 748.194 213.443 747.082C213.005 742.349 210.288 739.89 206.856 737.069C211.826 736.614 215.864 736.11 219.293 732.049C221.282 729.693 222.802 724.988 222.436 721.882C221.969 717.92 219.59 714.4 216.315 712.189C214.684 711.088 212.851 710.462 211.259 709.25C211.145 707.909 211.146 707.721 211.75 706.526C214.138 705.901 216.808 705.375 218.875 703.977C223.602 700.778 224.995 696.537 226.144 691.28L226.034 690.754L225.838 689.882C225.52 688.404 225.272 686.863 224.615 685.489C222.88 681.863 219.749 679.391 215.989 678.137L212.593 676.927C210.965 676.536 209.16 676.285 207.808 675.25C207.861 671.407 210.019 668.528 209.537 664.294C208.819 658.001 202.309 652.822 197.751 649.09Z"/>
	<path fill="#92D703" transform="scale(0.362305 0.362305)" d="M212.597 638.999C218.899 639.347 225.178 640.249 231.5 640.399C241.282 640.632 251.244 639.32 260.983 638.514L260.901 690.433L226.144 691.28L226.034 690.754L225.838 689.882C225.52 688.404 225.272 686.863 224.615 685.489C222.88 681.863 219.749 679.391 215.989 678.137L212.593 676.927L212.597 638.999Z"/>
	<path fill="#E96E35" transform="scale(0.362305 0.362305)" d="M260.901 690.433L260.861 747.312L260.895 762.113C260.924 765.652 261.201 769.433 260.453 772.905C259.319 778.166 256.007 783.649 252.189 787.433C247.245 792.333 240.093 795.33 233.12 795.218C225.815 795.1 218.225 792.205 213.153 786.854C209.424 782.92 206.868 778.206 205.44 773L205.206 772.168C204.547 769.696 204.598 767.361 204.66 764.833C205.126 762.029 208.075 760.434 209.89 758.273C211.611 756.224 212.505 753.661 212.995 751.067L213.141 750.25C213.346 749.167 213.547 748.194 213.443 747.082C213.005 742.349 210.288 739.89 206.856 737.069C211.826 736.614 215.864 736.11 219.293 732.049C221.282 729.693 222.802 724.988 222.436 721.882C221.969 717.92 219.59 714.4 216.315 712.189C214.684 711.088 212.851 710.462 211.259 709.25C211.145 707.909 211.146 707.721 211.75 706.526C214.138 705.901 216.808 705.375 218.875 703.977C223.602 700.778 224.995 696.537 226.144 691.28L260.901 690.433Z"/>
	<path fill="#7BE6D7" transform="scale(0.362305 0.362305)" d="M212.597 638.999L212.348 539.021L261.435 539.001L260.983 638.514C251.244 639.32 241.282 640.632 231.5 640.399C225.178 640.249 218.899 639.347 212.597 638.999Z"/>
	<path fill="#FEFEFE" transform="scale(0.362305 0.362305)" d="M239.729 598.75C240.579 598.594 241.915 598.351 242.75 598.506C244.039 598.746 244.996 599.554 245.521 600.75C246.03 601.911 245.929 602.988 245.484 604.135C244.771 605.973 243.474 606.712 241.75 607.471C239.231 607.651 238.086 607.191 236.126 605.75C235.286 604.039 235.1 603.957 235.513 602C236.78 600.341 237.874 599.676 239.729 598.75Z"/>
	<path fill="#026893" transform="scale(0.362305 0.362305)" d="M299.888 741.23L329.357 765.872C338.303 772.976 347.19 780.125 357.358 785.44L429.82 705.958C436.209 699.453 442.818 691.609 450.214 686.331L450.773 685.937C446.084 694.141 441.314 702.177 438.009 711.068C427.71 738.769 427.506 768.198 427.494 797.356L427.531 844.881C420.925 851.4 413.341 856.907 405.749 862.214C393.532 870.752 379.926 880.411 364.473 880.925C351.946 881.342 339.292 874.726 328.582 868.971C296.187 851.562 268.692 828.592 241.958 803.55C247.546 801.212 252.426 799.106 256.893 794.886C267.04 785.303 268.259 773.323 268.655 760.144L268.69 716.387C273.08 716.883 277.111 721.475 281.299 722.94L299.888 741.23Z"/>
	<path fill="#EEA177" transform="scale(0.362305 0.362305)" d="M268.69 716.387C273.08 716.883 277.111 721.475 281.299 722.94L299.888 741.23L286.159 757.878C283.529 760.961 280.997 764.316 278.095 767.141C275.676 765.19 271.541 760.902 268.655 760.144L268.69 716.387Z"/>
	<path fill="#026893" transform="scale(0.362305 0.362305)" d="M682.515 831.799C680.86 825.373 677.653 819.059 675.25 812.853C670.766 801.273 666.761 789.073 664.407 776.863C659.989 753.943 661.762 727.547 675.563 707.894C679.356 702.494 685.643 697.04 692.362 696.052L693.25 695.933C696.792 695.434 699.317 696.104 702.763 696.317L703.622 696.365C711.205 701.333 717.535 707.815 723.577 714.533C741.071 733.984 753.911 757.275 763.443 781.512C768.146 793.473 772.32 805.758 774.967 818.35C777.788 831.767 779.225 845.192 779.477 858.898C779.547 862.735 779.934 867.123 779.148 870.885C778.481 874.076 776.631 877.207 774.856 879.911C752.994 913.214 717.05 936.427 681.534 953.002L681.578 882.401L682.515 831.799ZM682.515 831.799L681.578 882.401L696.398 861.554C695.003 860.165 694.126 857.02 693.549 855.156C692.897 851.415 690.908 847.91 689.281 844.503C687.262 840.275 685.366 835.517 682.515 831.799Z"/>
	<path fill="#045983" transform="scale(0.362305 0.362305)" d="M693.549 855.156C695.364 852.967 700.375 852.293 703.122 852.062C707.34 851.708 711.449 851.94 715.579 852.803L716.448 852.973C722.864 854.268 730.081 857.894 734.489 862.75C735.066 864.32 735.004 865.063 734.731 866.714L733.75 867.501C730.305 866.6 727.1 864.311 723.891 862.75C717.75 859.763 708.833 858.584 702.096 859.588C700.227 859.867 698.546 860.73 696.696 861.047L696.398 861.554C695.003 860.165 694.126 857.02 693.549 855.156Z"/>
	<path fill="#7BE6D7" transform="scale(0.362305 0.362305)" d="M520.491 613.158C528.279 613.968 536.085 615.099 543.912 615.388C562.951 616.093 580.793 613.995 599.437 610.365L599.514 618.424L646.05 635.734L630.385 646.837C627.548 648.786 624.331 650.655 621.77 652.937C645.269 659.009 666.803 670.684 686.994 683.894C692.697 687.625 698.892 691.431 703.622 696.365L702.763 696.317C699.317 696.104 696.792 695.434 693.25 695.933L692.362 696.052C685.643 697.04 679.356 702.494 675.563 707.894C661.762 727.547 659.989 753.943 664.407 776.863C666.761 789.073 670.766 801.273 675.25 812.853C677.653 819.059 680.86 825.373 682.515 831.799L681.578 882.401L681.534 953.002C639.229 969.753 595.667 978.192 550.156 978.555C539.942 978.636 529.287 978.935 519.15 977.487C516.98 977.572 514.721 977.114 512.57 976.829L486.75 972.521C465.832 968.242 446.724 960.86 427.608 951.491L427.531 844.881L427.494 797.356C427.506 768.198 427.71 738.769 438.009 711.068C441.314 702.177 446.084 694.141 450.773 685.937C460.509 675.154 470.874 666.224 482.954 658.116C481.888 655.199 479.468 652.194 477.732 649.584L467.324 633.776L519.75 616.991L520.401 615.144L520.491 613.158Z"/>
	<path fill="#FEFEFE" transform="scale(0.362305 0.362305)" d="M541.691 870.75C543.111 870.38 545.274 870.346 546.75 870.558C548.898 870.868 550.715 872.535 551.937 874.249C553.155 875.956 553.489 878.272 553.12 880.306C552.505 883.696 550.261 885.66 547.575 887.515C545.837 887.867 543.991 887.809 542.25 887.475C540.179 887.078 538.257 885.638 537.187 883.825C535.84 881.543 535.95 878.437 536.579 875.958C537.267 873.248 539.408 872.006 541.691 870.75Z"/>
	<path fill="#FEFEFE" transform="scale(0.362305 0.362305)" d="M542.088 809.75C543.356 809.474 545.298 809.294 546.566 809.602C548.755 810.134 550.736 811.521 551.953 813.437C553.23 815.45 553.585 817.959 553.012 820.25C552.137 823.75 549.619 825.137 546.797 826.952C545.259 827.42 543.556 827.313 542 826.937C539.78 826.401 537.845 824.699 536.793 822.7C535.634 820.496 535.503 817.392 536.356 815.07C537.294 812.519 539.755 810.876 542.088 809.75Z"/>
	<path fill="#FEFEFE" transform="scale(0.362305 0.362305)" d="M542.449 927.031C543.896 926.972 545.552 926.83 546.977 927.122C549.122 927.562 550.823 929.119 551.997 930.899C553.498 933.176 554.089 936.243 553.36 938.919C552.609 941.679 549.521 943.546 547.178 944.76C545.739 944.936 544.196 945.096 542.75 944.954C540.705 944.753 539.041 943.156 537.878 941.578C536.169 939.26 536.073 935.716 536.641 933C537.265 930.018 540.015 928.392 542.449 927.031Z"/>
	<path fill="#FEFEFE" transform="scale(0.362305 0.362305)" d="M541.63 750.75C543.575 750.381 545.335 750.533 547.25 751.068C549.331 751.65 551.558 753.245 552.493 755.232C553.452 757.267 553.262 760.661 552.488 762.75C551.51 765.39 549.184 766.688 546.796 767.873C544.923 768.177 542.925 768.482 541.078 767.884C538.975 767.204 537.253 765.297 536.355 763.321C535.319 761.042 535.246 758.344 536.085 756C537.084 753.208 539.081 752.013 541.63 750.75Z"/>
	<path fill="#35D6AF" transform="scale(0.362305 0.362305)" d="M512.57 976.829L512.721 976.24C513.135 974.082 512.9 971.531 512.906 969.325L512.922 956.636L512.945 909.001L512.966 730.273C515.152 728.891 517.295 727.471 519.642 726.374L519.15 977.487C516.98 977.572 514.721 977.114 512.57 976.829Z"/>
	<path fill="#35D6AF" transform="scale(0.362305 0.362305)" d="M564.803 752.982L631.834 752.978L631.808 780.669C631.861 788.578 632.655 797.608 630.452 805.25C629.055 810.097 626.389 814.093 623.069 817.813C616.27 824.465 606.845 827.476 597.5 827.673C589.135 827.849 579.975 824.673 573.986 818.749C570.319 815.122 567.255 810.016 565.963 805.007C564.101 797.79 564.915 789.887 564.919 782.5L564.803 752.982Z"/>
	<path fill="#002F53" transform="scale(0.362305 0.362305)" d="M520.491 613.158C528.279 613.968 536.085 615.099 543.912 615.388C562.951 616.093 580.793 613.995 599.437 610.365L599.514 618.424L646.05 635.734L630.385 646.837C627.548 648.786 624.331 650.655 621.77 652.937C618.435 655.928 614.332 658.367 610.656 660.944L585.795 678.02L541.48 708.172C535.724 711.944 530.097 716.107 524.058 719.403L495.495 677.129C491.447 671.116 486.106 664.621 482.954 658.116C481.888 655.199 479.468 652.194 477.732 649.584L467.324 633.776L519.75 616.991L520.401 615.144L520.491 613.158Z"/>
	<path fill="#EEA177" transform="scale(0.362305 0.362305)" d="M520.491 613.158C528.279 613.968 536.085 615.099 543.912 615.388C562.951 616.093 580.793 613.995 599.437 610.365L599.514 618.424C599.437 620.438 599.719 629.457 598.734 630.523C592.157 637.634 579.24 638.135 570.167 638.508C558.826 638.975 546.687 639.077 535.5 637.007C530.866 636.149 526.072 634.918 522.606 631.474C519.05 627.942 520.314 619.78 520.401 615.144L520.491 613.158Z"/>
	<path fill="#F5CEA3" transform="scale(0.362305 0.362305)" d="M375.959 397.016L383.52 363.75C391.931 333.271 406.198 305.593 430.278 284.574C432.178 282.916 436.046 278.667 438.541 278.838C438.515 281.016 440.877 283.67 442.116 285.492C446.622 292.121 451.05 298.08 456.644 303.856C465.736 313.246 477.414 321.388 488.706 327.873C512.459 341.514 538.037 350.383 565.734 350.452C573.14 350.47 582.342 350.253 589.517 348.27C593.636 341.614 598.568 333.907 606.471 331.819C608.028 330.691 609.134 329.343 610.361 327.872C620.275 333.394 631.392 337.232 642.243 340.45C645.04 341.28 648.534 342.606 651.406 342.835L656.024 347.847L659.67 350.741C672.352 353.859 687.046 355.344 700.127 354.342C707.646 353.766 715.286 352.219 722.732 351.024C721.038 360.957 719.758 370.819 719.1 380.875C718.105 396.082 718.374 412.088 727.572 424.981L730.48 428.92C733.638 421.661 736.417 412.538 740.788 405.992L749.111 436.206L745.32 458.575L737.658 484.824L730.58 501.803C729.264 504.943 728.064 508.329 726.249 511.219C718.824 524.57 711.021 537.399 701.304 549.239C678.11 577.498 644.998 598.064 610 608.051L599.437 610.365C580.793 613.995 562.951 616.093 543.912 615.388C536.085 615.099 528.279 613.968 520.491 613.158C512.796 611.723 505.078 610.511 497.5 608.509C482.448 604.533 467.413 598.284 454 590.392C430.36 576.481 409.364 555.116 395.871 531.254C392.242 524.837 388.599 517.672 386.731 510.504L381.279 492.985C379.327 488.167 378.53 482.432 377.668 477.328C375.12 462.226 373.887 446.963 373.87 431.652C375.495 420.316 374.06 408.237 375.959 397.016Z"/>
	<path fill="#C2220A" transform="scale(0.362305 0.362305)" d="M586.209 500.75C587.962 500.544 587.869 500.438 589.25 501.513L589.321 502.75C585.633 506.309 580.946 509.145 576.577 511.804C567.792 517.149 558.666 522.083 548.65 524.697C534.191 528.472 520.207 526.443 506.771 520.235C502.731 518.368 498.867 515.88 495.015 513.643C494.041 512.954 493.29 512.12 492.484 511.25C492.556 509.699 492.412 509.651 493.5 508.578C496.206 509.427 498.685 511.167 501.161 512.532C506.737 515.607 512.305 518.678 518.535 520.207C544.771 526.647 564.793 513.705 586.209 500.75Z"/>
	<path fill="#EEA177" transform="scale(0.362305 0.362305)" d="M424.297 472.696C427.079 472.551 429.744 472.47 432.513 472.832L433.5 472.964C437.488 473.474 441.632 474.738 445.25 476.526C448.541 478.153 452.446 482.158 453.381 485.75C454.064 488.374 453.126 491.443 451.69 493.67C447.264 500.533 438.781 502.597 431.289 503.982C423.114 504.069 414.669 503.963 407.474 499.403C404.412 497.462 401.282 494.471 400.595 490.75C399.993 487.49 400.447 483.854 402.57 481.247C407.793 474.836 416.597 473.557 424.297 472.696Z"/>
	<path fill="#FEFEFE" transform="scale(0.362305 0.362305)" d="M456.83 330.221C460.271 330.327 463.713 330.327 467.016 331.426C477.735 334.993 482.887 344.375 487.698 353.767C467.014 349.714 448.733 350.94 429.658 360.283L407.346 371.58C409.777 364.688 412.571 357.67 417.338 352.018C427.072 340.479 441.573 331.401 456.83 330.221Z"/>
	<path fill="#EEA177" transform="scale(0.362305 0.362305)" d="M657.037 475.173C663.618 473.909 673.751 476.338 679.367 479.673C682.901 481.772 686.063 485.49 687.066 489.494C687.709 492.06 686.837 495.872 685.414 498.082C681.08 504.814 672.417 506.595 665.126 507.982C656.786 508.638 647.364 507.804 640.188 503.059C636.592 500.681 634.085 497.168 633.25 492.924C632.771 490.49 633.002 487.287 634.572 485.25C639.972 478.245 648.843 476.541 657.037 475.173Z"/>
	<path fill="#FEFEFE" transform="scale(0.362305 0.362305)" d="M610.361 327.872C620.275 333.394 631.392 337.232 642.243 340.45C645.04 341.28 648.534 342.606 651.406 342.835L656.024 347.847L659.67 350.741C664.818 356.815 668.136 362.247 671.086 369.648L655.133 362.608C652.552 361.412 648.755 359.195 646.011 358.81C643.747 359.144 641.17 358.063 638.957 357.561C635.747 356.832 632.472 356.333 629.208 355.903C621.751 354.921 614.563 355.252 607.126 354.702L606.437 354.647C605.19 354.492 603.216 355.097 601.955 355.364C596.036 356.618 590.28 358.734 584.623 360.841C584.583 359.78 585.301 358.488 585.68 357.496C586.876 354.366 588.057 351.291 589.517 348.27C593.636 341.614 598.568 333.907 606.471 331.819C608.028 330.691 609.134 329.343 610.361 327.872Z"/>
	<path fill="#EEA177" transform="scale(0.362305 0.362305)" d="M606.437 354.647C615.523 353.094 624.4 351.91 633.5 354.137C637.762 355.18 641.959 357.132 646.011 358.81C643.747 359.144 641.17 358.063 638.957 357.561C635.747 356.832 632.472 356.333 629.208 355.903C621.751 354.921 614.563 355.252 607.126 354.702L606.437 354.647Z"/>
	<path fill="#CAB9B7" transform="scale(0.362305 0.362305)" d="M610.361 327.872C620.275 333.394 631.392 337.232 642.243 340.45C645.04 341.28 648.534 342.606 651.406 342.835L656.024 347.847L654.64 347.524L606.471 331.819C608.028 330.691 609.134 329.343 610.361 327.872Z"/>
	<path fill="#EEA177" transform="scale(0.362305 0.362305)" d="M518.698 441.196C524.544 440.646 531.236 442.633 536.234 445.661C542.308 449.339 547.25 455.845 548.935 462.75C549.975 467.011 549.122 471.874 546.75 475.581C542.771 481.799 535.372 484.274 528.571 485.853C520.885 486.267 513.491 485.576 507.051 480.949C502.039 477.349 498.546 471.645 497.61 465.533C496.78 460.11 497.564 453.347 501.052 448.925C505.213 443.65 512.361 441.936 518.698 441.196Z"/>
	<path fill="#FEFEFE" transform="scale(0.362305 0.362305)" d="M623.209 381.643C634.122 380.886 644.117 385.05 652.25 392.187C660.959 399.83 667.714 412.548 668.446 424.158C669.069 434.047 666.731 444.653 660 452.235C652.608 460.561 643.467 463.602 632.668 464.282C624.119 464.724 614.394 461.603 607.25 456.956C597.459 450.587 590.596 440.103 588.45 428.642C586.407 417.721 589.098 406.586 595.518 397.519C602.468 387.703 611.694 383.711 623.209 381.643Z"/>
	<path fill="#002F53" transform="scale(0.362305 0.362305)" d="M614.644 412.71C618.551 412.811 621.712 413.175 625.167 415.256C629.467 417.846 632.875 422.181 633.921 427.125C635.009 432.271 634.03 437.901 630.981 442.25C627.09 447.802 621.556 450.299 615.119 451.452C610.43 451.363 606.425 450.588 602.494 447.83C598.931 445.331 596.227 441.005 595.577 436.688C594.746 431.161 596.264 424.848 599.696 420.407C603.591 415.366 608.517 413.471 614.644 412.71Z"/>
	<path fill="#FEFEFE" transform="scale(0.362305 0.362305)" d="M604.037 418.25C604.873 418.009 605.339 417.99 606.223 418.131C607.673 418.363 608.997 419.111 609.8 420.354C610.65 421.67 610.887 424.088 610.384 425.581C609.643 427.785 608.112 428.702 606.25 429.883L604.25 430.03C602.627 429.863 601.488 429.055 600.596 427.74C599.562 426.214 599.063 424.133 599.687 422.336C600.419 420.229 602.152 419.177 604.037 418.25Z"/>
	<path fill="#FEFEFE" transform="scale(0.362305 0.362305)" d="M452.151 381.592C462.196 381.174 470.841 383.044 479.018 389.076C488.916 396.378 494.353 407.172 496.124 419.186C497.558 428.919 496.14 439.127 490.162 447.171C482.769 457.119 473.141 461.611 461.12 463.422C452.061 463.941 442.398 464.217 434.252 459.549C425.625 454.606 419.163 446.37 416.594 436.751C413.363 424.655 415.448 412.606 421.826 401.923C428.59 390.594 439.599 384.656 452.151 381.592Z"/>
	<path fill="#002F53" transform="scale(0.362305 0.362305)" d="M467.573 411.636C471.188 411.707 475.531 413.065 478.277 415.46C482.649 419.273 484.644 424.575 484.906 430.295C485.163 435.884 483.728 440.851 479.757 444.9C476.349 448.374 470.849 451.357 465.886 451.401C462.556 450.969 459.208 450.105 456.25 448.474C451.781 446.011 449.018 441.586 447.785 436.75C446.523 431.805 447.68 425.377 450.524 421.11C454.426 415.258 460.98 412.903 467.573 411.636Z"/>
	<path fill="#FEFEFE" transform="scale(0.362305 0.362305)" d="M456.173 417.25L457.67 417.051C459.417 416.9 460.481 417.163 461.777 418.366C462.85 419.36 463.52 420.777 463.47 422.25C463.381 424.886 461.189 426.726 459.25 428.124C458.262 428.51 457.299 428.44 456.25 428.467C454.893 427.874 454.018 427.484 453.212 426.2C452.177 424.554 452.046 422.675 452.613 420.83C453.181 418.983 454.616 418.153 456.173 417.25Z"/>
	<path fill="#FEFEFE" transform="scale(0.362305 0.362305)" d="M351.44 357.374C335.062 348.214 321.634 329.444 314.75 312.344C311.389 303.996 309.311 295.104 306.857 286.462C318.026 296.991 330.851 303.67 344.883 309.53C334.783 297.127 327.622 286.158 323.667 270.463C319.65 254.525 319.707 237.789 321.642 221.562C324.467 197.87 331.424 174.08 343.707 153.532C347.059 160.009 350.066 166.606 353.892 172.832C361.451 185.136 371.626 195.589 383.591 203.646C383.431 184.808 386.252 166.221 393.247 148.652C410.122 106.27 447.413 76.0522 487.234 56.1745C493.875 52.8594 500.788 50.2008 507.601 47.275L483.241 112.012L511.287 89.0279C545.091 65.7122 584.272 60.4722 624.4 60.373L640.779 60.4197C643.68 60.446 646.781 60.2481 649.627 60.8214L650.25 60.9582C652.491 61.4337 654.531 62.1656 656.669 62.9728C653.236 63.1838 649.319 62.4089 645.889 61.9707C632.085 70.39 618.516 81.6951 610.64 96.0429C619.565 96.0367 629.017 95.9279 637.886 96.7586C658.613 98.7001 678.232 103.645 697.688 110.965C710.781 115.892 723.137 122.105 736.991 124.674C741.868 125.578 746.951 125.8 751.906 125.402C771.75 123.809 787.707 110.306 799.976 95.8281C797.607 125.087 785.248 149.818 763.6 169.566L768.25 169.483C779.805 169.458 790.088 173.589 800.415 178.448C827.216 191.057 849.944 209.346 870.767 230.135C854.844 233.535 839.304 238.879 824.703 246.038C828.798 249.701 832.16 254.368 835.412 258.768C853.17 282.8 863.592 311.065 878.755 336.653C874.581 337.307 870.233 338.013 866 337.925C855.301 337.702 845.606 333.838 836.089 329.25L835.945 329.722C835.669 331.186 836.303 333.007 836.516 334.5L837.404 342.727C837.66 345.931 837.59 349.265 837.462 352.479C836.346 380.45 822.407 404.334 805.091 425.347L794.322 410.53C787.985 404.928 781.438 400.446 772.917 399.009C763.288 397.385 748.809 400.386 740.788 405.992C736.417 412.538 733.638 421.661 730.48 428.92L727.572 424.981C718.374 412.088 718.105 396.082 719.1 380.875C719.758 370.819 721.038 360.957 722.732 351.024C715.286 352.219 707.646 353.766 700.127 354.342C687.046 355.344 672.352 353.859 659.67 350.741L656.024 347.847L651.406 342.835C648.534 342.606 645.04 341.28 642.243 340.45C631.392 337.232 620.275 333.394 610.361 327.872C609.134 329.343 608.028 330.691 606.471 331.819C598.568 333.907 593.636 341.614 589.517 348.27C582.342 350.253 573.14 350.47 565.734 350.452C538.037 350.383 512.459 341.514 488.706 327.873C477.414 321.388 465.736 313.246 456.644 303.856C451.05 298.08 446.622 292.121 442.116 285.492C440.877 283.67 438.515 281.016 438.541 278.838C436.046 278.667 432.178 282.916 430.278 284.574C406.198 305.593 391.931 333.271 383.52 363.75L375.959 397.016C369.886 396.913 365.051 397.554 359.13 398.874C356.911 391.042 355.683 381.896 354.803 373.814L354.123 363.734C354.074 362.663 354.19 360.305 353.641 359.417C353.235 358.762 352.039 357.93 351.44 357.374Z"/>
	<path fill="#CAB9B7" transform="scale(0.362305 0.362305)" d="M723.515 340.719C730.549 339.693 738.427 337.146 744.985 334.39C749.143 332.642 753.222 330.436 757.599 329.309C750.684 334.903 742.981 338.752 734.91 342.352C731.129 344.039 727.096 345.995 723.13 347.131L723.515 340.719Z"/>
	<path fill="#DBECEE" transform="scale(0.362305 0.362305)" d="M794.322 410.53C798.183 406.479 801.141 399.343 803.648 394.312C811.886 377.779 819.676 360.483 823.25 342.255C824.52 335.776 824.989 329.213 825.668 322.656C829.058 324.572 833.254 326.547 836.089 329.25L835.945 329.722C835.669 331.186 836.303 333.007 836.516 334.5L837.404 342.727C837.66 345.931 837.59 349.265 837.462 352.479C836.346 380.45 822.407 404.334 805.091 425.347L794.322 410.53Z"/>
	<path fill="#DBECEE" transform="scale(0.362305 0.362305)" d="M351.44 357.374C352.329 355.435 352.192 352.756 352.701 350.621C353.95 345.39 355.835 340.386 358.278 335.6C364.603 323.206 373.466 312.749 384.886 304.746C389.846 301.27 395.288 298.792 400.781 296.297C407.568 293.216 414.181 290.412 421.283 288.12C407.636 287.927 392.436 285.984 381.676 276.735C367.912 264.902 362.431 246.74 361.199 229.232C366.156 239.375 371.561 248.101 380.691 255.102C397.392 267.909 417.133 272.336 437.21 277.084C425.407 264.554 414.334 252.461 409.36 235.545C408.091 231.226 407.555 226.428 406.83 221.981C411.994 230.796 416.75 238.133 424.654 244.846C439.661 257.594 460.385 262.855 479.691 261.08L475.755 256.323C459.707 235.551 450.27 206.729 453.839 180.391C455.324 169.432 458.296 160.018 462.372 149.776C462.413 157.207 462.398 164.636 463.327 172.023C466.106 194.14 474.873 216.944 487.907 235.033C492.882 241.937 498.91 247.816 504.054 254.533C503.988 242.326 502.99 230.21 504.316 218C505.619 206.002 509.581 193.285 514.461 182.274C523.217 162.519 537.089 141.934 557.893 133.836C563.32 131.723 568.476 131.322 574.206 130.863C566.179 139.107 561.155 149.676 557.257 160.354C550.352 179.272 547.085 198.147 546.835 218.305C557.625 205.233 565.482 190.629 579.399 180.273C601.417 163.891 628.499 161.415 654.897 165.227L626.601 178.712C599.798 192.78 573.266 213.227 558.744 240.328C565.879 234.039 573.159 229.499 581.5 224.97C590.94 219.845 600.084 215.66 610.75 213.831C633.818 209.875 657.593 214.756 677.411 226.989L652.971 228.012C626.552 229.576 600.008 233.628 577 247.49C573.461 249.622 569.685 251.789 566.664 254.621C574.026 252.888 581.685 251.549 589.27 251.547C604.337 251.544 619.34 255.815 633.966 258.983C671.082 267.024 709.385 269.068 745.486 255.095C750.902 252.999 755.853 250.256 761.049 247.698C744.586 269.522 718.322 283.602 691.64 288.535C700.58 291.666 709.364 294.861 718.633 296.924C742.231 302.176 765.53 299.953 788.374 292.698C784.124 300.983 779.223 309.107 773.114 316.172C769.456 320.401 763.171 327.657 757.599 329.309C753.222 330.436 749.143 332.642 744.985 334.39C738.427 337.146 730.549 339.693 723.515 340.719L723.13 347.131L722.732 351.024C715.286 352.219 707.646 353.766 700.127 354.342C687.046 355.344 672.352 353.859 659.67 350.741L656.024 347.847L651.406 342.835C648.534 342.606 645.04 341.28 642.243 340.45C631.392 337.232 620.275 333.394 610.361 327.872C609.134 329.343 608.028 330.691 606.471 331.819C598.568 333.907 593.636 341.614 589.517 348.27C582.342 350.253 573.14 350.47 565.734 350.452C538.037 350.383 512.459 341.514 488.706 327.873C477.414 321.388 465.736 313.246 456.644 303.856C451.05 298.08 446.622 292.121 442.116 285.492C440.877 283.67 438.515 281.016 438.541 278.838C436.046 278.667 432.178 282.916 430.278 284.574C406.198 305.593 391.931 333.271 383.52 363.75L375.959 397.016C369.886 396.913 365.051 397.554 359.13 398.874C356.911 391.042 355.683 381.896 354.803 373.814L354.123 363.734C354.074 362.663 354.19 360.305 353.641 359.417C353.235 358.762 352.039 357.93 351.44 357.374Z"/>
	<path fill="#EEA177" transform="scale(0.362305 0.362305)" d="M651.406 342.835C657.53 343.291 663.633 344.673 669.777 345.2C687.876 346.752 705.942 345.243 723.515 340.719L723.13 347.131L722.732 351.024C715.286 352.219 707.646 353.766 700.127 354.342C687.046 355.344 672.352 353.859 659.67 350.741L656.024 347.847L651.406 342.835Z"/>
	<path fill="#EEA177" transform="scale(0.362305 0.362305)" d="M589.517 348.27C582.342 350.253 573.14 350.47 565.734 350.452C538.037 350.383 512.459 341.514 488.706 327.873C477.414 321.388 465.736 313.246 456.644 303.856C451.05 298.08 446.622 292.121 442.116 285.492C440.877 283.67 438.515 281.016 438.541 278.838C447.62 285.611 455.889 292.857 465.574 298.903C492.615 315.783 523.342 327.736 555 332.051C564.569 333.355 574.743 334.282 584.352 332.884C586.332 332.595 589.171 332.561 590.962 331.743L590.362 331.43C578.916 325.359 568.347 316.382 561.869 305.036C559.012 300.032 557.026 294.647 554.637 289.414C571.332 305.381 589.672 317.696 610.361 327.872C609.134 329.343 608.028 330.691 606.471 331.819C598.568 333.907 593.636 341.614 589.517 348.27Z"/>
</svg>
