<?xml version="1.0" encoding="utf-8" ?>
<svg xmlns="http://www.w3.org/2000/svg" xmlns:xlink="http://www.w3.org/1999/xlink" width="300" height="300">
	<path fill="#3AC790" transform="scale(0.292969 0.292969)" d="M522.083 627.767C527.133 628.977 529.722 634.661 532.273 638.797C534.272 642.04 537.792 647.12 537.547 651C536.577 652.115 535.42 652.335 534 652.482L531.246 652.567L530.034 645.75C529.132 641.218 526.601 637.474 524.445 633.456C523.465 631.63 522.313 629.857 522.083 627.767Z"/>
	<path fill="#3AC790" transform="scale(0.292969 0.292969)" d="M504.274 626.971C505.905 627.667 507.432 627.578 509.108 627.948L504.5 628.011C499.419 634.484 493.377 643.871 493.305 652.285C491.19 652.219 489.261 652.249 487.427 651.042C486.6 650.497 486.74 650.154 486.516 649.25C488.322 643.256 493.233 635.406 497.446 630.743C499.698 628.25 500.8 627.145 504.274 626.971Z"/>
	<path fill="#63DCAE" transform="scale(0.292969 0.292969)" d="M521.495 627.567L522.083 627.767C522.313 629.857 523.465 631.63 524.445 633.456C526.601 637.474 529.132 641.218 530.034 645.75L531.246 652.567L516.867 652.965C512.457 652.997 507.917 653.254 503.532 652.789C500.39 651.924 496.539 652.195 493.305 652.285C493.377 643.871 499.419 634.484 504.5 628.011L509.108 627.948C512.844 627.983 517.965 628.679 521.495 627.567Z"/>
	<path fill="#1A8C67" transform="scale(0.292969 0.292969)" d="M503.532 652.789C507.917 653.254 512.457 652.997 516.867 652.965C511.535 668.438 506.981 685.011 505.513 701.337C502.811 731.397 509.167 760.909 517.922 789.5C523.103 806.416 528.903 823.008 532.051 840.468C535.753 860.995 535.661 882.726 531.851 903.234C527.132 928.638 517.669 951.637 504.75 973.899C502.438 977.883 499.756 984.199 495.812 986.676C494.297 987.627 492.66 987.883 490.919 987.432C489.374 987.032 488.234 985.78 487.488 984.418C484.491 978.941 491.058 971.332 493.87 966.8C511.626 938.185 522.196 905.395 522.052 871.576C521.961 850.099 516.838 829.321 510.61 808.906L497.76 765.078C491.542 739.191 488.885 711.567 494.129 685.274C496.344 674.169 500.08 663.541 503.532 652.789Z"/>
	<path fill="#09AA6E" transform="scale(0.292969 0.292969)" d="M690.743 123.532C738.474 181.561 761.308 259.781 754.024 334.539C745.196 425.154 699.102 515.102 628.295 572.899C605.486 591.518 578.82 607.692 550.281 615.563C544.818 617.069 539.325 618.35 533.739 619.318C530.294 619.916 524.99 619.815 521.848 621.128L521.495 627.567C517.965 628.679 512.844 627.983 509.108 627.948C507.432 627.578 505.905 627.667 504.274 626.971L503.976 621.156C502.843 620.379 500.083 620.293 498.633 620.06L484.714 617.609C459.736 611.939 437.71 600.256 416.239 586.68C422.792 585.19 429.574 585.146 436.211 584.098C454.406 581.227 472.36 577.657 489.953 572.138C522.872 561.811 554.156 545.619 581.75 524.925C608.739 504.685 632.244 478.312 651.901 450.981C691.193 396.35 715.22 330.601 719.026 263.359C720.408 238.927 717.88 213.679 712.992 189.75C710.423 177.174 707.154 164.241 702.506 152.267L697.417 139.836C695.043 134.765 691.684 129.694 690.826 124.112L690.743 123.532Z"/>
	<path fill="#1A8C67" transform="scale(0.292969 0.292969)" d="M503.976 621.156L521.848 621.128L521.495 627.567C517.965 628.679 512.844 627.983 509.108 627.948C507.432 627.578 505.905 627.667 504.274 626.971L503.976 621.156Z"/>
	<path fill="#3AC790" transform="scale(0.292969 0.292969)" d="M416.239 586.68C411.195 583.944 406.6 580.253 402.006 576.831C382.492 562.296 364.716 545.358 349.244 526.582C303.508 471.079 277.35 402.435 271.281 331C269.634 311.612 269.175 291.842 271.073 272.455C278.038 201.307 312.014 135.408 367.508 90.1144C413.837 52.301 476.364 33.5743 535.849 39.7622C595.843 46.003 652.663 76.7258 690.743 123.532L690.826 124.112C691.684 129.694 695.043 134.765 697.417 139.836L702.506 152.267C707.154 164.241 710.423 177.174 712.992 189.75C717.88 213.679 720.408 238.927 719.026 263.359C715.22 330.601 691.193 396.35 651.901 450.981C632.244 478.312 608.739 504.685 581.75 524.925C554.156 545.619 522.872 561.811 489.953 572.138C472.36 577.657 454.406 581.227 436.211 584.098C429.574 585.146 422.792 585.19 416.239 586.68Z"/>
	<path fill="#63DCAE" transform="scale(0.292969 0.292969)" d="M454.809 87.1611C460.039 85.8788 467.568 87.8758 472.244 90.3076C479.248 93.9507 484.739 101.477 486.875 109C490.086 120.306 486.542 132.519 477.131 139.846C472.44 143.498 467.021 145.732 461.685 148.256L445.719 156.513C435.529 162.244 425.802 169.358 417.301 177.385C394.184 199.213 376.616 226.509 369.57 257.771C367.341 267.661 367.623 278.496 362.63 287.616C358.444 295.264 351.123 299.875 342.976 302.269C336.156 302.924 329.866 302.772 323.719 299.348C317.266 295.753 311.943 289.403 310.036 282.205L309.856 281.5L309.282 279.168C308.042 272.185 310.005 263.626 311.112 256.705C316.854 220.79 329.938 189.778 351.211 160.312C369.13 135.494 392.99 116.37 419.484 101.361C430.551 95.091 442.152 89.1862 454.809 87.1611Z"/>
</svg>
