<?xml version="1.0" encoding="utf-8" ?>
<svg xmlns="http://www.w3.org/2000/svg" xmlns:xlink="http://www.w3.org/1999/xlink" width="371" height="371">
	<path fill="#CB741D" transform="scale(0.362305 0.362305)" d="M206.82 888.291C216.044 894.776 225.247 900.99 235.742 905.257C251.773 911.775 271.398 912.53 288.245 909.571C295.518 908.293 302.882 906.06 309.75 903.358C313.755 901.782 317.219 899.777 321.466 898.771C295.084 921.534 262.228 935.865 226.866 933.342C208.658 932.043 192.479 926.266 176.169 918.413C179.912 913.525 185.042 909.35 189.394 904.995L199.463 894.845C201.787 892.509 203.981 890.01 206.82 888.291Z"/>
	<path fill="#B15814" transform="scale(0.362305 0.362305)" d="M711.562 386.191C716.141 391.906 721.105 394.904 727.479 398.351C738.602 404.367 749.946 408.309 762.552 409.675C767.433 410.204 772.594 410.911 777.5 410.81C789.715 410.56 802.494 406.878 813.48 401.634C818.147 399.406 822.889 395.859 827.841 394.555C809.872 416.134 781.018 431.296 753.021 433.86C733.368 435.661 712.841 431.825 695.259 422.784C690.85 420.517 686.891 417.622 682.585 415.225L711.562 386.191Z"/>
	<path fill="#CB741D" transform="scale(0.362305 0.362305)" d="M454.675 637.648C458.966 640.909 463.277 644.459 467.75 647.441C479.804 655.477 497.189 662.507 511.864 662.538C517.769 663.844 524.868 663.027 530.871 662.405C535.449 661.931 540.237 661.52 544.682 660.289C553.371 657.883 561.598 654.933 569.5 650.51C574.001 647.99 577.887 644.542 582.779 642.757L583.324 642.564C577.34 649.326 571.176 655.986 564.117 661.653C545.198 676.841 518.78 687.982 494.405 689.42C475.647 690.527 457.479 686.555 440.948 677.673C435.474 674.732 430.301 671.077 425.203 667.533C426.13 665.618 430.224 662.34 431.837 660.708L454.675 637.648Z"/>
	<path fill="#E09420" transform="scale(0.362305 0.362305)" d="M620.2 352.667C605.803 336.824 598.003 310.877 597.108 289.753C596.042 264.62 603.567 239.411 615.959 217.73C620.539 209.717 625.946 201.658 632.29 194.924L670.172 156.991L695.379 131.619C705.438 121.504 715.304 111.473 727.526 103.921C741.933 95.02 760.434 88.9034 777.403 88.5145C805.585 87.8687 831.73 98.7868 851.994 118.195C850.062 121.051 845.309 127.169 842.098 128.202L841.66 128.283C835.675 123.712 830.063 121.594 822.751 120.001C813.628 117.378 804.821 116.515 795.348 116.719C791.478 116.802 787.693 116.784 783.925 117.75C777.792 119.322 772.239 121.66 766.395 124.063C760.644 126.427 755.013 128.718 749.721 132.059C746.388 134.165 743.58 136.719 740.421 139.009C729.718 146.764 720.245 157.549 711.108 167.084L686.598 192.052L669.209 209.402C665.789 212.833 661.939 216.323 659.112 220.25C650.85 231.728 645.002 243.91 640.491 257.285L636.819 272.619C636.299 274.869 636.259 277.209 636.041 279.5C635.49 285.3 634.904 290.68 635.98 296.487C636.345 298.458 636.252 300.513 636.566 302.5C637.434 307.998 638.732 313.326 640.286 318.667C641.329 322.252 642.826 325.691 644.537 329.001L627.328 346.399C625.637 348.087 622.397 351.973 620.2 352.667Z"/>
	<defs>
		<linearGradient id="gradient_0" gradientUnits="userSpaceOnUse" x1="705.75543" y1="487.42419" x2="492.2648" y2="616.25269">
			<stop offset="0" stop-color="#D66B30"/>
			<stop offset="1" stop-color="#F6C657"/>
		</linearGradient>
	</defs>
	<path fill="url(#gradient_0)" transform="scale(0.362305 0.362305)" d="M670.89 427.394C686.782 454.195 691.209 488.677 683.443 518.784C679.873 532.624 673.684 546.451 665.419 558.125C658.352 568.107 648.723 576.666 640.093 585.306L602.637 622.964L588.761 637.048C587.114 638.727 585.204 641.308 583.324 642.564L582.779 642.757C577.887 644.542 574.001 647.99 569.5 650.51C561.598 654.933 553.371 657.883 544.682 660.289C540.237 661.52 535.449 661.931 530.871 662.405C524.868 663.027 517.769 663.844 511.864 662.538C497.189 662.507 479.804 655.477 467.75 647.441C463.277 644.459 458.966 640.909 454.675 637.648C456.682 633.406 463.329 629.274 466.691 625.846L480.31 611.336C484.733 615.332 489.305 618.078 494.813 620.34C504.928 622.91 517.196 624.824 527.534 622.439C533.271 621.116 538.792 618.624 544.288 616.55C544.223 614.883 544.488 613.146 544.25 611.5C543.609 607.068 542.915 600.081 543.998 595.769C544.653 593.159 543.947 590.396 544.349 587.75C544.716 585.333 544.784 582.839 545.19 580.455C545.52 578.518 546.9 574.82 546.492 572.998C546.382 572.507 546.098 572.073 545.901 571.611C546.543 570.541 547.915 569.455 548.819 568.537L555.901 561.361L582.612 534.641C589.155 528.206 596.784 521.822 602.009 514.274C604.46 510.733 605.969 506.734 606.824 502.539L606.085 501.864L605.753 501.418L605.847 501.001L606.525 498.002L606.755 496.75C607.024 495.998 607.28 495.955 607.283 495.065L607.255 494.5C607.932 493.481 607.968 492.732 608.148 491.555C609.652 488.51 614.877 484.621 617.407 482.109L639.286 459.861L670.89 427.394Z"/>
	<path fill="#FAC84A" transform="scale(0.362305 0.362305)" d="M454.675 637.648C456.682 633.406 463.329 629.274 466.691 625.846L480.31 611.336C484.733 615.332 489.305 618.078 494.813 620.34L495.589 620.959C496.255 621.482 496.783 621.815 497.602 622.07L497.594 623.07C497.683 626.667 501.252 630.958 503.318 633.836L504.025 633.488C503.831 632.244 503.506 632.09 504.274 631.02L505.713 633.885L505.467 634.579C504.748 637.127 506.601 639.573 507.663 641.759C508.061 642.578 507.88 642.242 508.447 642.963C509.578 644.398 510.313 646.073 511.431 647.555L511.762 648.043C512.613 649.031 514.195 649.25 515.246 650.007C516.426 650.855 516.82 651.846 518.268 652.695C519.121 653.195 519.463 653.191 519.755 654.259L519.943 656.143L520.288 656.552C521.612 658.187 521.916 659.316 522.119 661.381L523.25 662.255C519.631 662.268 515.391 661.869 511.864 662.538C497.189 662.507 479.804 655.477 467.75 647.441C463.277 644.459 458.966 640.909 454.675 637.648Z"/>
	<defs>
		<linearGradient id="gradient_1" gradientUnits="userSpaceOnUse" x1="644.02527" y1="538.82947" x2="544.57391" y2="537.72705">
			<stop offset="0" stop-color="#B16107"/>
			<stop offset="1" stop-color="#E09D2B"/>
		</linearGradient>
	</defs>
	<path fill="url(#gradient_1)" transform="scale(0.362305 0.362305)" d="M639.286 459.861C647.482 478.728 647.743 499.698 640.263 518.905C637.847 525.108 634.376 530.516 630.579 535.925C624.666 544.348 615.471 551.426 608.25 558.779L577.394 589.966C571.767 595.646 566.428 601.719 560.26 606.826C555.435 610.822 549.967 613.95 544.288 616.55C544.223 614.883 544.488 613.146 544.25 611.5C543.609 607.068 542.915 600.081 543.998 595.769C544.653 593.159 543.947 590.396 544.349 587.75C544.716 585.333 544.784 582.839 545.19 580.455C545.52 578.518 546.9 574.82 546.492 572.998C546.382 572.507 546.098 572.073 545.901 571.611C546.543 570.541 547.915 569.455 548.819 568.537L555.901 561.361L582.612 534.641C589.155 528.206 596.784 521.822 602.009 514.274C604.46 510.733 605.969 506.734 606.824 502.539L606.085 501.864L605.753 501.418L605.847 501.001L606.525 498.002L606.755 496.75C607.024 495.998 607.28 495.955 607.283 495.065L607.255 494.5C607.932 493.481 607.968 492.732 608.148 491.555C609.652 488.51 614.877 484.621 617.407 482.109L639.286 459.861Z"/>
	<path fill="#FAC84A" transform="scale(0.362305 0.362305)" d="M385.386 714.585C385.473 712.859 384.63 711.199 384.01 709.612C389.413 701.475 396.887 695.355 403.764 688.51C407.824 684.469 411.91 679.489 416.576 676.191C432.635 709.888 436.27 745.094 423.75 780.603C420.156 790.797 414.989 800.609 408.552 809.287C395.596 826.753 378.477 841.828 363.181 857.255C349.5 871.054 336.126 886.03 321.466 898.771C317.219 899.777 313.755 901.782 309.75 903.358C302.882 906.06 295.518 908.293 288.245 909.571C271.398 912.53 251.773 911.775 235.742 905.257C225.247 900.99 216.044 894.776 206.82 888.291C209.166 885.346 211.815 883.528 214.538 881.053C216.886 878.919 218.793 876.332 220.819 873.908C225.866 867.872 231.897 862.078 237.923 857.028C243.421 853.16 248.577 847.047 253.478 842.345C255.187 843.215 256.716 843.491 258.623 843.527C263.839 843.627 269.67 842.877 274.217 840.132C277.553 838.118 280.619 834.891 283.428 832.194L299.232 816.324L341.405 774.364L334.34 767.458L347.133 753.744L353.349 747.02C356.751 742.715 361.017 739.006 364.894 735.13L385.386 714.585Z"/>
	<path fill="#E8A614" transform="scale(0.362305 0.362305)" d="M385.386 714.585C386.95 717.398 387.253 720.911 387.713 724.064C389.612 737.055 388.781 748.846 385.157 761.434C382.834 769.506 379.175 777.58 374.168 784.351C364.454 797.486 351.436 808.283 339.894 819.802L316.825 842.874C312.822 846.885 308.896 851.173 304.666 854.939C302.483 856.883 299.844 858.596 297.281 859.991C290.922 863.452 283.813 865.629 276.675 866.69C263.188 868.693 249.122 864.494 237.923 857.028C243.421 853.16 248.577 847.047 253.478 842.345C255.187 843.215 256.716 843.491 258.623 843.527C263.839 843.627 269.67 842.877 274.217 840.132C277.553 838.118 280.619 834.891 283.428 832.194L299.232 816.324L341.405 774.364L334.34 767.458L347.133 753.744L353.349 747.02C356.751 742.715 361.017 739.006 364.894 735.13L385.386 714.585Z"/>
	<path fill="#B15814" transform="scale(0.362305 0.362305)" d="M353.349 747.02C354.33 754.957 348.514 765.588 343.753 771.709C343.013 772.661 342.285 773.537 341.405 774.364L334.34 767.458L347.133 753.744L353.349 747.02Z"/>
	<path fill="#E09420" transform="scale(0.362305 0.362305)" d="M851.994 118.195C853.804 116.164 856.234 112.646 858.552 111.365L886.172 138.425L911.452 163.928L922.902 175.25C923.637 176.047 924.179 176.791 924.386 177.867L924.551 178.678C925.225 181.778 926.912 185.014 928.057 188L933.503 204.476C942.452 236.769 938.949 270.014 921.333 298.854C912.571 313.201 899.506 324.713 887.622 336.404L848.339 375.408C841.646 381.882 834.274 387.853 827.841 394.555C822.889 395.859 818.147 399.406 813.48 401.634C802.494 406.878 789.715 410.56 777.5 410.81C772.594 410.911 767.433 410.204 762.552 409.675C749.946 408.309 738.602 404.367 727.479 398.351C721.105 394.904 716.141 391.906 711.562 386.191L754.119 342.459C759.401 336.557 766.057 331.705 771 325.552C767.368 320.962 762.887 317.112 758.73 313.009L735.395 290.106L732.713 287.499L716.011 270.845C713.807 268.669 710.548 264.743 707.582 264.088C701.049 265.793 695.28 272.597 688.5 272.933C687.247 272.995 686.134 272.395 685.25 271.538C682.631 268.998 682.491 265.587 682.429 262.194C683.356 257.301 684.491 252.978 687.415 248.828C691.518 243.004 698.174 237.687 703.266 232.613L736.775 199.404C742.757 193.49 749.293 187.697 754.708 181.264C757.004 178 761.011 174.353 764.327 172.109L765.093 171.605C766.582 170.613 767.776 169.818 769.518 169.357C776.385 172.994 781.884 177.781 787.781 182.745L788.151 182.421L806.414 164.074L801.408 163.79L801.526 162.901L799.25 162.755C800.209 161.883 800.73 161.23 802.124 161.293L802.613 161.334L804.158 158.83C804.697 158.032 805.192 157.467 805.479 156.533C805.83 155.395 806.135 154.304 806.789 153.29C807.925 151.528 808.138 149.484 809.299 147.84L810.296 146.359C811.386 144.545 812.27 142.073 813.522 140.484C814.192 139.632 814.521 138.712 815.2 137.868L815.648 137.344L815.768 136.385C816.06 136.083 816.451 135.712 816.649 135.345C817.033 134.632 817.115 133.866 817.584 133.151C818.116 132.34 818.654 131.681 818.946 130.734L820.11 126.351L817.804 122.412C818.69 121.568 818.945 121.374 819.299 120.222L822.751 120.001C830.063 121.594 835.675 123.712 841.66 128.283L842.098 128.202C845.309 127.169 850.062 121.051 851.994 118.195ZM754.708 181.264C749.293 187.697 742.757 193.49 736.775 199.404L703.266 232.613C698.174 237.687 691.518 243.004 687.415 248.828C684.491 252.978 683.356 257.301 682.429 262.194C682.491 265.587 682.631 268.998 685.25 271.538C686.134 272.395 687.247 272.995 688.5 272.933C695.28 272.597 701.049 265.793 707.582 264.088C710.548 264.743 713.807 268.669 716.011 270.845L732.713 287.499L735.395 290.106L758.73 313.009C762.887 317.112 767.368 320.962 771 325.552C766.057 331.705 759.401 336.557 754.119 342.459C754.775 342.765 755.249 342.867 755.975 342.895C762.663 343.154 769.705 343.23 775.75 339.954C781.615 336.776 786.539 331.108 791.231 326.442L809.404 308.371L850.634 268.328C846.876 267.118 842.015 265.744 838.816 263.458C834.781 260.573 831.213 256.424 827.683 252.943L808.652 234.3L754.708 181.264Z"/>
	<path fill="#B15814" transform="scale(0.362305 0.362305)" d="M888.534 214.19C890.167 218.049 891.896 222.185 892.924 226.25C896.075 238.707 895.008 255.136 890.108 267C887.662 272.923 884.265 278.272 880.264 283.26C879.052 284.771 877.833 286.698 876.204 287.75C875.467 285.686 875.662 283.725 875.435 281.587L873.727 265.36C873.078 259.267 871.934 253.089 871.518 247C871.269 243.349 872.461 239.083 871.876 235.602C871.703 234.57 871.67 234.572 870.75 234.022L866.524 238.574C864.321 241.302 861.578 243.632 859.093 246.106C856.209 248.976 853.606 251.834 850.25 254.174L850.065 253.607C851.231 252.571 853.371 251.144 854.165 249.877L888.534 214.19Z"/>
	<path fill="#FEE47E" transform="scale(0.362305 0.362305)" d="M851.994 118.195C853.804 116.164 856.234 112.646 858.552 111.365L886.172 138.425L911.452 163.928L922.902 175.25C923.637 176.047 924.179 176.791 924.386 177.867L888.534 214.19L854.165 249.877L814.517 210.238L788.151 182.421L806.414 164.074L801.408 163.79L801.526 162.901L799.25 162.755C800.209 161.883 800.73 161.23 802.124 161.293L802.613 161.334L804.158 158.83C804.697 158.032 805.192 157.467 805.479 156.533C805.83 155.395 806.135 154.304 806.789 153.29C807.925 151.528 808.138 149.484 809.299 147.84L810.296 146.359C811.386 144.545 812.27 142.073 813.522 140.484C814.192 139.632 814.521 138.712 815.2 137.868L815.648 137.344L815.768 136.385C816.06 136.083 816.451 135.712 816.649 135.345C817.033 134.632 817.115 133.866 817.584 133.151C818.116 132.34 818.654 131.681 818.946 130.734L820.11 126.351L817.804 122.412C818.69 121.568 818.945 121.374 819.299 120.222L822.751 120.001C830.063 121.594 835.675 123.712 841.66 128.283L842.098 128.202C845.309 127.169 850.062 121.051 851.994 118.195Z"/>
	<path fill="#FAC84A" transform="scale(0.362305 0.362305)" d="M851.994 118.195C853.804 116.164 856.234 112.646 858.552 111.365L886.172 138.425L814.517 210.238L788.151 182.421L806.414 164.074L801.408 163.79L801.526 162.901L799.25 162.755C800.209 161.883 800.73 161.23 802.124 161.293L802.613 161.334L804.158 158.83C804.697 158.032 805.192 157.467 805.479 156.533C805.83 155.395 806.135 154.304 806.789 153.29C807.925 151.528 808.138 149.484 809.299 147.84L810.296 146.359C811.386 144.545 812.27 142.073 813.522 140.484C814.192 139.632 814.521 138.712 815.2 137.868L815.648 137.344L815.768 136.385C816.06 136.083 816.451 135.712 816.649 135.345C817.033 134.632 817.115 133.866 817.584 133.151C818.116 132.34 818.654 131.681 818.946 130.734L820.11 126.351L817.804 122.412C818.69 121.568 818.945 121.374 819.299 120.222L822.751 120.001C830.063 121.594 835.675 123.712 841.66 128.283L842.098 128.202C845.309 127.169 850.062 121.051 851.994 118.195Z"/>
	<defs>
		<linearGradient id="gradient_2" gradientUnits="userSpaceOnUse" x1="452.97107" y1="289.73309" x2="681.15027" y2="404.23407">
			<stop offset="0" stop-color="#E08E06"/>
			<stop offset="1" stop-color="#FBC93C"/>
		</linearGradient>
	</defs>
	<path fill="url(#gradient_2)" transform="scale(0.362305 0.362305)" d="M620.2 352.667C622.397 351.973 625.637 348.087 627.328 346.399L644.537 329.001C642.826 325.691 641.329 322.252 640.286 318.667C638.732 313.326 637.434 307.998 636.566 302.5C636.252 300.513 636.345 298.458 635.98 296.487C634.904 290.68 635.49 285.3 636.041 279.5C636.259 277.209 636.299 274.869 636.819 272.619L640.491 257.285C645.002 243.91 650.85 231.728 659.112 220.25C661.939 216.323 665.789 212.833 669.209 209.402L686.598 192.052L711.108 167.084C720.245 157.549 729.718 146.764 740.421 139.009C743.58 136.719 746.388 134.165 749.721 132.059C755.013 128.718 760.644 126.427 766.395 124.063C772.239 121.66 777.792 119.322 783.925 117.75C787.693 116.784 791.478 116.802 795.348 116.719C804.821 116.515 813.628 117.378 822.751 120.001L819.299 120.222C818.945 121.374 818.69 121.568 817.804 122.412L820.11 126.351L818.946 130.734C818.654 131.681 818.116 132.34 817.584 133.151C817.115 133.866 817.033 134.632 816.649 135.345C816.451 135.712 816.06 136.083 815.768 136.385L815.648 137.344L815.2 137.868C814.521 138.712 814.192 139.632 813.522 140.484C812.27 142.073 811.386 144.545 810.296 146.359L809.299 147.84C808.138 149.484 807.925 151.528 806.789 153.29C806.135 154.304 805.83 155.395 805.479 156.533C805.192 157.467 804.697 158.032 804.158 158.83L802.613 161.334L802.124 161.293C800.73 161.23 800.209 161.883 799.25 162.755L801.526 162.901L801.408 163.79L806.414 164.074L788.151 182.421L787.781 182.745C781.884 177.781 776.385 172.994 769.518 169.357C767.776 169.818 766.582 170.613 765.093 171.605L764.327 172.109C761.011 174.353 757.004 178 754.708 181.264C749.293 187.697 742.757 193.49 736.775 199.404L703.266 232.613C698.174 237.687 691.518 243.004 687.415 248.828C684.491 252.978 683.356 257.301 682.429 262.194C682.491 265.587 682.631 268.998 685.25 271.538C686.134 272.395 687.247 272.995 688.5 272.933C695.28 272.597 701.049 265.793 707.582 264.088C710.548 264.743 713.807 268.669 716.011 270.845L732.713 287.499L735.395 290.106L758.73 313.009C762.887 317.112 767.368 320.962 771 325.552C766.057 331.705 759.401 336.557 754.119 342.459L711.562 386.191L682.585 415.225L670.89 427.394L639.286 459.861L617.407 482.109C614.877 484.621 609.652 488.51 608.148 491.555C607.968 492.732 607.932 493.481 607.255 494.5L607.283 495.065C607.28 495.955 607.024 495.998 606.755 496.75L606.525 498.002L605.847 501.001L605.753 501.418L604.953 501.834C603.528 502.276 602.282 500.547 601.322 499.696L563.792 463.581L547.357 447.599C543.504 443.778 539.588 439.147 535.215 435.966L554.058 418.281L554.911 418.25L598.968 373.777C589.811 371.041 580.64 368.102 571.168 366.658C549.189 363.308 526.948 369.008 507.668 379.446C497.262 385.08 488.725 392.346 480.056 400.304L443.617 436.549C430.126 449.915 415.268 462.686 403.943 478C396.932 487.48 391.064 498.71 387.751 510.04C382.168 529.136 381.049 546.162 384.833 565.75C385.724 570.365 386.344 575.926 388.593 580.1L388.837 580.499L366.86 602.4C353.977 584.548 345.405 566.993 343.648 544.743C341.172 513.38 351.805 480.145 372.443 456.348C377.693 450.294 383.597 444.783 389.278 439.138L415.957 412.646L444.962 383.999C455.073 374.042 464.905 363.241 477.082 355.778C491.103 347.185 508.224 342.111 524.591 340.946C545.804 339.436 567.525 345.407 585.25 357.066C591.277 361.03 596.777 365.896 602.224 370.607C607.925 364.799 613.752 357.562 620.2 352.667Z"/>
	<path fill="#FAC84A" transform="scale(0.362305 0.362305)" d="M732.713 287.499L735.395 290.106C733.933 291.107 732.613 292.068 731.349 293.313C730.857 290.64 731.261 289.759 732.713 287.499Z"/>
	<path fill="#B15814" transform="scale(0.362305 0.362305)" d="M769.518 169.357C774.464 167.704 779.591 165.782 784.73 164.853C790.252 163.855 795.818 163.849 801.408 163.79L806.414 164.074L788.151 182.421L787.781 182.745C781.884 177.781 776.385 172.994 769.518 169.357Z"/>
	<path fill="#E09420" transform="scale(0.362305 0.362305)" d="M707.582 264.088C707.163 267.931 699.871 273.437 697.036 276.25L678.11 295.203C676.121 289.062 675.304 283.297 676.301 276.839C677.067 271.872 678.169 265.338 682.429 262.194C682.491 265.587 682.631 268.998 685.25 271.538C686.134 272.395 687.247 272.995 688.5 272.933C695.28 272.597 701.049 265.793 707.582 264.088Z"/>
	<path fill="#FEE47E" transform="scale(0.362305 0.362305)" d="M735.395 290.106L758.73 313.009C762.887 317.112 767.368 320.962 771 325.552C766.057 331.705 759.401 336.557 754.119 342.459L711.562 386.191L682.585 415.225L670.89 427.394L639.286 459.861L617.407 482.109C614.877 484.621 609.652 488.51 608.148 491.555C607.968 492.732 607.932 493.481 607.255 494.5L607.283 495.065C607.28 495.955 607.024 495.998 606.755 496.75L606.525 498.002L605.847 501.001L605.753 501.418L604.953 501.834C603.528 502.276 602.282 500.547 601.322 499.696L563.792 463.581C566.977 458.367 573.542 453.223 577.894 448.86L607.068 419.504L675.963 350.25L731.349 293.313C732.613 292.068 733.933 291.107 735.395 290.106Z"/>
	<path fill="#E09420" transform="scale(0.362305 0.362305)" d="M601.322 499.696C603.432 496.745 605.589 494.127 608.148 491.555C607.968 492.732 607.932 493.481 607.255 494.5L607.283 495.065C607.28 495.955 607.024 495.998 606.755 496.75L606.525 498.002L605.847 501.001L605.753 501.418L604.953 501.834C603.528 502.276 602.282 500.547 601.322 499.696Z"/>
	<path fill="#FAC84A" transform="scale(0.362305 0.362305)" d="M366.86 602.4L388.837 580.499L388.593 580.1C386.344 575.926 385.724 570.365 384.833 565.75C381.049 546.162 382.168 529.136 387.751 510.04C391.064 498.71 396.932 487.48 403.943 478C415.268 462.686 430.126 449.915 443.617 436.549L480.056 400.304C488.725 392.346 497.262 385.08 507.668 379.446C526.948 369.008 549.189 363.308 571.168 366.658C580.64 368.102 589.811 371.041 598.968 373.777L554.911 418.25L554.058 418.281L535.215 435.966C539.588 439.147 543.504 443.778 547.357 447.599L563.792 463.581L601.322 499.696C602.282 500.547 603.528 502.276 604.953 501.834L605.753 501.418L606.085 501.864L606.824 502.539C605.969 506.734 604.46 510.733 602.009 514.274C596.784 521.822 589.155 528.206 582.612 534.641L555.901 561.361L548.819 568.537C547.915 569.455 546.543 570.541 545.901 571.611C546.098 572.073 546.382 572.507 546.492 572.998C546.9 574.82 545.52 578.518 545.19 580.455C544.784 582.839 544.716 585.333 544.349 587.75C543.947 590.396 544.653 593.159 543.998 595.769C542.915 600.081 543.609 607.068 544.25 611.5C544.488 613.146 544.223 614.883 544.288 616.55C538.792 618.624 533.271 621.116 527.534 622.439C517.196 624.824 504.928 622.91 494.813 620.34C489.305 618.078 484.733 615.332 480.31 611.336L466.691 625.846C463.329 629.274 456.682 633.406 454.675 637.648L431.837 660.708C430.224 662.34 426.13 665.618 425.203 667.533C422.53 670.723 419.574 673.334 416.576 676.191C411.91 679.489 407.824 684.469 403.764 688.51C396.887 695.355 389.413 701.475 384.01 709.612C384.63 711.199 385.473 712.859 385.386 714.585L364.894 735.13C361.017 739.006 356.751 742.715 353.349 747.02L347.133 753.744L308.48 714.833L280.331 686.794L300.052 668.163L346.617 622.294C347.897 621.682 348.777 620.338 349.677 619.271L366.86 602.4ZM504.171 431.021L490.29 445.115L457.898 477.893C451.322 484.363 443.634 490.419 437.936 497.684C434.103 502.572 430.6 508.697 429.12 514.76L429.04 515.044C436.342 517.291 442.388 517.624 449.99 517.719C450.791 517.906 451.548 518.067 452.25 518.523C455.252 520.472 458.4 524.639 460.936 527.226L479.328 545.645L503.922 570.049C506.573 572.665 511.36 576.172 513.114 579.336L496.606 595.157L480.31 611.336C484.733 615.332 489.305 618.078 494.813 620.34C504.928 622.91 517.196 624.824 527.534 622.439C533.271 621.116 538.792 618.624 544.288 616.55C544.223 614.883 544.488 613.146 544.25 611.5C543.609 607.068 542.915 600.081 543.998 595.769C544.653 593.159 543.947 590.396 544.349 587.75C544.716 585.333 544.784 582.839 545.19 580.455C545.52 578.518 546.9 574.82 546.492 572.998C546.382 572.507 546.098 572.073 545.901 571.611C546.543 570.541 547.915 569.455 548.819 568.537L555.901 561.361L582.612 534.641C589.155 528.206 596.784 521.822 602.009 514.274C604.46 510.733 605.969 506.734 606.824 502.539L606.085 501.864L605.753 501.418L604.953 501.834C603.528 502.276 602.282 500.547 601.322 499.696L563.792 463.581L547.357 447.599C543.504 443.778 539.588 439.147 535.215 435.966C533.595 435.298 531.864 433.06 530.578 431.778C526.965 428.174 523.402 424.141 519.342 421.057C514.593 423.445 507.659 426.917 504.171 431.021Z"/>
	<path fill="#FEE47E" transform="scale(0.362305 0.362305)" d="M429.04 515.044C436.342 517.291 442.388 517.624 449.99 517.719C448.37 520.559 445.76 522.792 443.572 525.202L428.291 541.475C426.433 536.555 426.481 529.293 427.319 524.128L429.04 515.044Z"/>
	<path fill="#B15814" transform="scale(0.362305 0.362305)" d="M519.342 421.057C531.322 416.478 541.571 415.477 554.058 418.281L535.215 435.966C533.595 435.298 531.864 433.06 530.578 431.778C526.965 428.174 523.402 424.141 519.342 421.057Z"/>
	<path fill="#FEE47E" transform="scale(0.362305 0.362305)" d="M479.328 545.645L503.922 570.049C506.573 572.665 511.36 576.172 513.114 579.336L496.606 595.157L480.31 611.336L466.691 625.846C463.329 629.274 456.682 633.406 454.675 637.648L431.837 660.708C430.224 662.34 426.13 665.618 425.203 667.533C422.53 670.723 419.574 673.334 416.576 676.191C411.91 679.489 407.824 684.469 403.764 688.51C396.887 695.355 389.413 701.475 384.01 709.612C384.63 711.199 385.473 712.859 385.386 714.585L364.894 735.13C361.017 739.006 356.751 742.715 353.349 747.02L347.133 753.744L308.48 714.833L422.425 602.283L460.002 564.258C466.163 558.056 472.318 550.801 479.328 545.645Z"/>
	<defs>
		<linearGradient id="gradient_3" gradientUnits="userSpaceOnUse" x1="544.92834" y1="598.21277" x2="482.83887" y2="594.8786">
			<stop offset="0" stop-color="#E09C2B"/>
			<stop offset="1" stop-color="#FFC240"/>
		</linearGradient>
	</defs>
	<path fill="url(#gradient_3)" transform="scale(0.362305 0.362305)" d="M545.901 571.611C546.098 572.073 546.382 572.507 546.492 572.998C546.9 574.82 545.52 578.518 545.19 580.455C544.784 582.839 544.716 585.333 544.349 587.75C543.947 590.396 544.653 593.159 543.998 595.769C542.915 600.081 543.609 607.068 544.25 611.5C544.488 613.146 544.223 614.883 544.288 616.55C538.792 618.624 533.271 621.116 527.534 622.439C517.196 624.824 504.928 622.91 494.813 620.34C489.305 618.078 484.733 615.332 480.31 611.336L496.606 595.157C499.877 596.022 503.348 596.966 506.75 596.912C510.748 596.848 515.502 596.368 519.25 594.933C524.895 592.772 529.807 587.93 533.983 583.722L545.901 571.611Z"/>
	<path fill="#CB741D" transform="scale(0.362305 0.362305)" d="M504.171 431.021C507.659 426.917 514.593 423.445 519.342 421.057C523.402 424.141 526.965 428.174 530.578 431.778C531.864 433.06 533.595 435.298 535.215 435.966C539.588 439.147 543.504 443.778 547.357 447.599L563.792 463.581L601.322 499.696C602.282 500.547 603.528 502.276 604.953 501.834L605.753 501.418L606.085 501.864C602.465 507.089 596.557 511.915 591.592 515.831C588.367 513.505 585.459 510.174 582.596 507.402L566.545 491.864L504.171 431.021Z"/>
	<path fill="#E09420" transform="scale(0.362305 0.362305)" d="M134.603 885.943L103.065 854.702C104.993 852.56 107.527 850.833 109.781 849.04C107.256 845.112 104.345 841.396 102.001 837.365C96.3258 827.606 92.4841 816.851 90.25 805.802C84.2278 776.019 92.5957 744.734 109.25 719.777C116.078 709.545 124.864 700.922 133.576 692.315L160.806 665.478L189.724 636.588C199.225 627.106 208.674 617.298 219.821 609.724C229.478 603.16 241.022 598.81 252.445 596.579C286.489 589.931 321.349 600.196 349.677 619.271C348.777 620.338 347.897 621.682 346.617 622.294L300.052 668.163L280.331 686.794L308.48 714.833L347.133 753.744L334.34 767.458L341.405 774.364L299.232 816.324L283.428 832.194C280.619 834.891 277.553 838.118 274.217 840.132C269.67 842.877 263.839 843.627 258.623 843.527C256.716 843.491 255.187 843.215 253.478 842.345C248.577 847.047 243.421 853.16 237.923 857.028C231.897 862.078 225.866 867.872 220.819 873.908C218.793 876.332 216.886 878.919 214.538 881.053C211.815 883.528 209.166 885.346 206.82 888.291C203.981 890.01 201.787 892.509 199.463 894.845L189.394 904.995C185.042 909.35 179.912 913.525 176.169 918.413L171.734 923.52L134.603 885.943ZM250.072 682.802C242.744 691.937 233.04 700.261 224.712 708.564L180.596 752.605L193.503 764.981C194.564 764.632 195.417 764.021 196.442 764.567C198.108 765.454 199.671 767.493 201.009 768.867L210.361 778.491L226.328 794.054L263.929 832.331L253.478 842.345C255.187 843.215 256.716 843.491 258.623 843.527C263.839 843.627 269.67 842.877 274.217 840.132C277.553 838.118 280.619 834.891 283.428 832.194L299.232 816.324L341.405 774.364L334.34 767.458L347.133 753.744L308.48 714.833L280.331 686.794C278.116 683.817 274.992 681.747 272.25 679.338L263.35 671.17C258.943 673.356 252.163 678.187 250.072 682.802Z"/>
	<defs>
		<linearGradient id="gradient_4" gradientUnits="userSpaceOnUse" x1="140.9113" y1="894.00146" x2="256.50604" y2="823.04932">
			<stop offset="0" stop-color="#F7AE37"/>
			<stop offset="1" stop-color="#FFE97F"/>
		</linearGradient>
	</defs>
	<path fill="url(#gradient_4)" transform="scale(0.362305 0.362305)" d="M226.328 794.054L263.929 832.331L253.478 842.345C248.577 847.047 243.421 853.16 237.923 857.028C231.897 862.078 225.866 867.872 220.819 873.908C218.793 876.332 216.886 878.919 214.538 881.053C211.815 883.528 209.166 885.346 206.82 888.291C203.981 890.01 201.787 892.509 199.463 894.845L189.394 904.995C185.042 909.35 179.912 913.525 176.169 918.413L171.734 923.52L134.603 885.943L226.328 794.054Z"/>
	<path fill="#FEE47E" transform="scale(0.362305 0.362305)" d="M169.963 789.022C166.66 791.51 163.819 794.984 160.889 797.911L145.42 812.919C141.587 816.759 138.123 820.942 133.873 824.339C125.039 801.898 127.794 776.558 136.902 754.674C140.751 745.426 146.421 736.618 152.8 728.924C157.17 723.655 162.338 718.898 167.232 714.117L188.786 692.891L220.539 661.061C228.838 652.787 237.107 644.233 246.398 637.061C253.672 631.446 262.008 626.847 270.522 623.388C293.492 614.057 323.491 612.61 346.617 622.294L300.052 668.163L280.331 686.794C278.116 683.817 274.992 681.747 272.25 679.338L263.35 671.17C258.943 673.356 252.163 678.187 250.072 682.802C242.744 691.937 233.04 700.261 224.712 708.564L180.596 752.605L193.503 764.981C193.301 765.663 193.174 766.185 192.716 766.75C189.533 770.678 184.376 774.266 180.624 777.852L169.963 789.022Z"/>
	<path fill="#E09420" transform="scale(0.362305 0.362305)" d="M263.35 671.17C276.088 665.439 286.494 664.506 300.052 668.163L280.331 686.794C278.116 683.817 274.992 681.747 272.25 679.338L263.35 671.17Z"/>
	<path fill="#E8A614" transform="scale(0.362305 0.362305)" d="M169.963 789.022C169.956 776.292 171.076 762.154 180.596 752.605L193.503 764.981C193.301 765.663 193.174 766.185 192.716 766.75C189.533 770.678 184.376 774.266 180.624 777.852L169.963 789.022Z"/>
	<path fill="#CB741D" transform="scale(0.362305 0.362305)" d="M250.072 682.802C252.163 678.187 258.943 673.356 263.35 671.17L272.25 679.338C274.992 681.747 278.116 683.817 280.331 686.794L308.48 714.833L347.133 753.744L334.34 767.458L250.072 682.802Z"/>
</svg>
