<?xml version="1.0" encoding="utf-8" ?>
<svg xmlns="http://www.w3.org/2000/svg" xmlns:xlink="http://www.w3.org/1999/xlink" width="300" height="300">
	<path fill="#EA7650" transform="scale(0.292969 0.292969)" d="M207.352 461.269C205.294 474.34 206.379 486.255 214.294 497.23C218.866 503.571 224.549 507.809 231.581 511.092C231.966 511.272 232.312 511.523 232.684 511.728C233.698 512.285 235.506 512.074 236.657 512.079C225.306 513.558 213.585 515.765 203.559 521.593L199.973 523.315C196.812 520.107 193.8 516.782 191.432 512.932C186.478 504.879 185.154 495.187 187.412 486.031C190.203 474.713 197.634 467.204 207.352 461.269Z"/>
	<path fill="#F98A2C" transform="scale(0.292969 0.292969)" d="M207.352 461.269C216.561 456.6 225.678 456.544 235.479 459.124C235.273 479.115 239.04 495.65 250.292 512.449L236.657 512.079C235.506 512.074 233.698 512.285 232.684 511.728C232.312 511.523 231.966 511.272 231.581 511.092C224.549 507.809 218.866 503.571 214.294 497.23C206.379 486.255 205.294 474.34 207.352 461.269Z"/>
	<path fill="#EA7650" transform="scale(0.292969 0.292969)" d="M367.373 280.576C359.093 273.649 352.281 267.64 349.382 256.798C346.655 246.605 347.618 235.16 353.045 225.972C359.43 215.161 369.102 209.225 381.04 206.139L380.78 206.607C379.016 209.733 376.682 212.46 374.994 215.627C370.522 224.02 369.986 234.425 372.461 243.514C375.049 253.019 381.172 261.173 389.785 266.042C394.926 268.948 400.61 270.611 406.5 270.984C408.906 271.136 411.365 270.956 413.698 271.622C406.841 278.483 401.586 281.834 392.27 284.326C386.197 285.95 380.049 284.893 374.046 283.559L373.514 283.434L367.373 280.576Z"/>
	<path fill="#F98A2C" transform="scale(0.292969 0.292969)" d="M767.056 455.021C780.417 455.01 792.312 457.118 802.157 466.851C808.186 472.812 811.472 480.414 812.54 488.75C813.189 493.816 813.362 499.443 811.832 504.368C810.532 508.987 808.69 512.736 806.1 516.756L796.247 513.038L771.938 508.28C768.713 504.628 763.915 501.727 759.69 499.358C765.213 485.02 767.036 470.267 767.056 455.021Z"/>
	<path fill="#EA7650" transform="scale(0.292969 0.292969)" d="M796.247 513.038C798.743 511.366 801.652 510.933 804.328 509.686C807.08 508.404 809.416 506.176 811.832 504.368C810.532 508.987 808.69 512.736 806.1 516.756L796.247 513.038Z"/>
	<path fill="#F98A2C" transform="scale(0.292969 0.292969)" d="M381.04 206.139C394.053 203.283 405.092 208.7 415.939 215.277C417.847 227.444 420.148 238.68 425.963 249.706C428.364 253.663 431.199 259.669 434.95 262.382L433.403 269.581L432.75 270.899L432.194 270.833L415.463 269.962L413.698 271.622C411.365 270.956 408.906 271.136 406.5 270.984C400.61 270.611 394.926 268.948 389.785 266.042C381.172 261.173 375.049 253.019 372.461 243.514C369.986 234.425 370.522 224.02 374.994 215.627C376.682 212.46 379.016 209.733 380.78 206.607L381.04 206.139Z"/>
	<path fill="#EA7650" transform="scale(0.292969 0.292969)" d="M425.963 249.706C428.364 253.663 431.199 259.669 434.95 262.382L433.403 269.581L432.75 270.899L432.194 270.833L415.463 269.962C419.765 263.735 423.071 256.673 425.963 249.706Z"/>
	<path fill="#F98A2C" transform="scale(0.292969 0.292969)" d="M675.865 317.951C685.899 314.368 696.085 314.673 705.768 319.194C715.71 323.836 723.109 331.776 726.807 342.101C729.353 349.206 729.748 356.93 727.952 364.248C726.744 370.449 724.123 377.897 719.863 382.715C703.298 374.338 685.848 371.424 667.402 373.259C666.199 371.344 668.874 363.27 669.282 360.674C670.384 353.651 670.968 346.61 670.422 339.496C669.975 333.664 668.634 327.814 667.73 322.033L675.865 317.951Z"/>
	<path fill="#EA7650" transform="scale(0.292969 0.292969)" d="M675.865 317.951L673.853 329.613C672.407 339.426 674.31 349.82 680.368 357.811C686.384 365.744 695.916 371.564 705.812 372.844C711.341 373.559 718.154 372.86 722.687 369.409C723.727 368.616 724.435 367.669 725.25 366.669C726.069 365.664 726.767 364.83 727.952 364.248C726.744 370.449 724.123 377.897 719.863 382.715C703.298 374.338 685.848 371.424 667.402 373.259C666.199 371.344 668.874 363.27 669.282 360.674C670.384 353.651 670.968 346.61 670.422 339.496C669.975 333.664 668.634 327.814 667.73 322.033L675.865 317.951Z"/>
	<path fill="#F98A2C" transform="scale(0.292969 0.292969)" d="M856.704 582.07C868.329 578.168 879.503 578.314 890.586 583.917C900.447 588.902 907.121 597.461 910.459 607.891C913.103 616.151 912.841 624.171 910.252 632.42C906.728 642.873 899.811 649.56 891.25 656.186C879.952 651.498 866.179 648.714 853.903 649.598C848.597 649.981 843.197 651.3 837.947 652.198C843.699 643.35 850.503 633.397 852.858 622.999L854.891 616.483C857.957 605.067 857.868 593.737 856.704 582.07Z"/>
	<path fill="#EA7650" transform="scale(0.292969 0.292969)" d="M854.891 616.483L855.163 616.833C857.073 619.389 857.903 622.539 859.562 625.274C864.422 633.287 873.213 638.81 882.413 640.328C889.935 641.569 898.852 640.554 905.25 636.066L907.19 634.502C907.92 633.891 908.653 633.437 909.457 632.931L910.252 632.42C906.728 642.873 899.811 649.56 891.25 656.186C879.952 651.498 866.179 648.714 853.903 649.598C848.597 649.981 843.197 651.3 837.947 652.198C843.699 643.35 850.503 633.397 852.858 622.999L854.891 616.483Z"/>
	<path fill="#3640B4" transform="scale(0.292969 0.292969)" d="M516.586 799.239L516.856 799.611C519.803 803.762 521.189 808.932 523.924 813.291C535.48 831.712 553.927 845.431 575.611 849.252C594.598 852.597 616.227 850.243 632.408 838.904L638.172 834.115C640.952 839.028 643.693 843.895 647.422 848.172L634.244 859.689C615.327 874.767 588.936 881.128 565.054 878.256C538.758 875.095 518.439 860.575 502.413 839.946L506.45 832.155L506.484 832.142C512.747 823.13 515.068 809.875 516.586 799.239Z"/>
	<path fill="#F98A2C" transform="scale(0.292969 0.292969)" d="M287.868 300.858C298.344 296.133 309.404 295.527 320.25 299.567C322.79 300.513 325.354 301.829 327.571 303.376C329.606 304.796 331.552 306.376 333.442 307.982C333.7 308.201 335.039 309.499 335.248 309.544C335.682 309.637 336.077 309.227 336.491 309.069L336.25 310.601C341.476 316.901 345.788 323.237 347.049 331.5L347.187 332.37C348.027 338.018 347.671 344.092 346.017 349.556C343.767 357.364 339.624 363.937 334.268 370C329.644 373.487 325.19 376.863 319.75 379.001C316.403 380.317 313.002 380.924 309.517 381.711C302.481 383.3 293.546 380.575 287.009 377.935C278.674 373.636 271.059 366.804 266.7 358.432C261.618 348.671 260.655 337.263 264.044 326.789C268.025 314.487 276.613 306.632 287.868 300.858Z"/>
	<path fill="#EA7650" transform="scale(0.292969 0.292969)" d="M287.009 377.935C278.674 373.636 271.059 366.804 266.7 358.432C261.618 348.671 260.655 337.263 264.044 326.789C268.025 314.487 276.613 306.632 287.868 300.858L287.793 301.67C287.424 305.101 285.703 308.423 285.165 311.892C283.387 323.351 286.028 337.236 293.15 346.599C298.686 353.878 308.004 360.308 317.256 361.463C322.607 362.131 327.171 362.209 332.107 359.654L332.894 359.253C335.465 357.909 337.824 356.183 339.945 354.206C341.86 352.42 343.446 350.335 346.017 349.556C343.767 357.364 339.624 363.937 334.268 370C329.644 373.487 325.19 376.863 319.75 379.001C316.403 380.317 313.002 380.924 309.517 381.711C302.481 383.3 293.546 380.575 287.009 377.935Z"/>
	<path fill="#F98A2C" transform="scale(0.292969 0.292969)" d="M160.118 575.193L161.022 575.506C164.168 576.581 167.411 577.275 170.498 578.543C178.977 582.026 184.757 587.399 190.388 594.448C193.13 599.192 194.872 604.215 196.278 609.499C198.261 619.819 196.207 630.058 191.36 639.286C188.909 643.638 185.705 647.513 182.318 651.174C171.36 659.933 160.715 664.821 146.469 663.184C140.323 662.477 133.465 660.434 128.179 657.209C122.842 653.543 117.946 648.272 114.701 642.675C109.337 633.424 106.364 621.104 109.202 610.572L110.943 604.517C115.231 592.651 123.791 584.282 135.109 579.006C143.069 575.641 151.551 574.65 160.118 575.193Z"/>
	<path fill="#EA7650" transform="scale(0.292969 0.292969)" d="M128.179 657.209C122.842 653.543 117.946 648.272 114.701 642.675C109.337 633.424 106.364 621.104 109.202 610.572L110.943 604.517C115.231 592.651 123.791 584.282 135.109 579.006C134.161 583.578 132.526 587.931 131.58 592.5C129.406 602.998 131.253 613.839 137.166 622.771C143.869 632.894 154.147 640.612 166.156 643.052C171.241 644.086 177.496 643.997 182.354 642.067C185.617 640.771 187.74 639.441 191.36 639.286C188.909 643.638 185.705 647.513 182.318 651.174C171.36 659.933 160.715 664.821 146.469 663.184C140.323 662.477 133.465 660.434 128.179 657.209Z"/>
	<path fill="#5061D1" transform="scale(0.292969 0.292969)" d="M759.69 499.358C763.915 501.727 768.713 504.628 771.938 508.28L796.247 513.038L806.1 516.756C827.795 526.475 843.916 544.895 852.312 566.958L856.704 582.07C857.868 593.737 857.957 605.067 854.891 616.483L852.858 622.999C850.503 633.397 843.699 643.35 837.947 652.198C815.724 660.509 795.835 674.174 784.426 695.542C783.155 694.81 781.541 695.084 780.082 695.066L768.865 694.891C750.595 693.744 728.814 685.39 715.12 673.28L715.526 671.376C722.381 660.641 726.033 647.066 726.491 634.39L726.75 630.986C726.98 604.451 717.353 579.828 698.767 560.981C703.371 557.959 708.879 556.064 713.623 553.122C730.379 542.729 745.685 526.108 755.447 509.042L755.919 508.869L759.69 499.358Z"/>
	<path fill="#EA7650" transform="scale(0.292969 0.292969)" d="M759.69 499.358C763.915 501.727 768.713 504.628 771.938 508.28C766.948 508.601 760.809 509.795 755.919 508.869L759.69 499.358Z"/>
	<path fill="#A08FDC" transform="scale(0.292969 0.292969)" d="M780.308 549.118C782.977 548.975 785.932 548.809 788.427 549.953C791.999 551.59 794.86 554.909 796.065 558.641C797.152 562.009 796.671 566.662 794.989 569.75C793.053 573.304 789.069 575.284 785.395 576.494C782.218 576.495 779.343 576.497 776.366 575.191C773.434 573.905 770.835 570.888 769.737 567.918C768.311 564.058 768.609 559.193 770.577 555.561C772.607 551.814 776.455 550.266 780.308 549.118Z"/>
	<path fill="#3640B4" transform="scale(0.292969 0.292969)" d="M726.491 634.39L727.25 631.351C731.417 635.384 735.212 639.612 739.684 643.35C750.826 652.662 764.212 658.337 778.582 660.168C798.816 662.746 817.524 656.08 833.5 644.007C837.514 640.974 841.511 637.187 844.764 633.34C847.281 630.365 848.683 625.663 852.004 623.517L852.858 622.999C850.503 633.397 843.699 643.35 837.947 652.198C815.724 660.509 795.835 674.174 784.426 695.542C783.155 694.81 781.541 695.084 780.082 695.066L768.865 694.891C750.595 693.744 728.814 685.39 715.12 673.28L715.526 671.376C722.381 660.641 726.033 647.066 726.491 634.39Z"/>
	<path fill="#3698E8" transform="scale(0.292969 0.292969)" d="M667.402 373.259C685.848 371.424 703.298 374.338 719.863 382.715C741.153 395.22 758.09 415.161 764.312 439.355L767.056 455.021C767.036 470.267 765.213 485.02 759.69 499.358L755.919 508.869L755.447 509.042C745.685 526.108 730.379 542.729 713.623 553.122C708.879 556.064 703.371 557.959 698.767 560.981C691.503 554.705 683.975 549.575 675.296 545.439C657.202 536.816 632.187 533.937 613.112 540.792L606.813 533.601C609.687 527.107 611.24 521.097 612.121 514.036C612.065 509.407 612.144 504.72 611.066 500.188C607.434 484.917 598.301 475.594 585.259 467.683L586.241 455.901C586.817 452.791 586.921 449.61 587.556 446.5C590.105 434.029 596.076 421.654 603.911 411.646C609.192 405.215 613.808 398.101 621.485 394.331C633.328 382.156 651.061 376.097 667.402 373.259Z"/>
	<path fill="#7CBDF1" transform="scale(0.292969 0.292969)" d="M682.268 410.087C684.963 409.929 688.086 409.959 690.648 410.949C695.034 412.645 698.249 416.259 699.946 420.597C701.215 423.84 700.504 427.988 699.118 431.063C697.175 435.376 693.331 437.501 689.068 438.981C685.467 439.43 682.085 439.282 678.744 437.784C674.971 436.091 672.809 432.796 671.51 428.977C670.134 424.929 670.661 420.854 672.701 417.101C674.75 413.33 678.33 411.355 682.268 410.087Z"/>
	<path fill="#0C79D8" transform="scale(0.292969 0.292969)" d="M621.485 394.331C619.212 399.407 617.742 405.095 616.478 410.5C612.203 428.782 611.847 448.467 618.58 466.225C623.347 478.8 631.294 491.147 641.527 499.944C653.052 509.852 664.255 515.316 678.865 519.272C693.123 523.132 708.877 521.717 722.888 517.558C728.324 515.945 733.459 513.489 738.885 511.867C744.306 510.245 749.844 509.674 755.447 509.042C745.685 526.108 730.379 542.729 713.623 553.122C708.879 556.064 703.371 557.959 698.767 560.981C691.503 554.705 683.975 549.575 675.296 545.439C657.202 536.816 632.187 533.937 613.112 540.792L606.813 533.601C609.687 527.107 611.24 521.097 612.121 514.036C612.065 509.407 612.144 504.72 611.066 500.188C607.434 484.917 598.301 475.594 585.259 467.683L586.241 455.901C586.817 452.791 586.921 449.61 587.556 446.5C590.105 434.029 596.076 421.654 603.911 411.646C609.192 405.215 613.808 398.101 621.485 394.331Z"/>
	<path fill="#5061D1" transform="scale(0.292969 0.292969)" d="M457.965 132.141C478.173 118.704 504.923 113.012 528.75 118.112C554.392 123.599 576.168 138.455 590.206 160.686C600.28 176.637 604.922 198.403 602.258 217.138C615.273 215.617 627.078 217.472 637.582 225.732C646.535 232.771 652.355 243.691 653.58 254.995C654.039 259.228 653.789 263.237 653.306 267.453C651.83 274.024 650.158 279.517 646.652 285.32C656.541 296.228 663.731 307.765 667.73 322.033C668.634 327.814 669.975 333.664 670.422 339.496C670.968 346.61 670.384 353.651 669.282 360.674C668.874 363.27 666.199 371.344 667.402 373.259C651.061 376.097 633.328 382.156 621.485 394.331C613.808 398.101 609.192 405.215 603.911 411.646C596.076 421.654 590.105 434.029 587.556 446.5C586.921 449.61 586.817 452.791 586.241 455.901L585.73 455.145C582.818 454.982 580.414 455.649 577.631 456.4C573.824 450.395 569.968 444.428 565.017 439.286C548.186 421.808 524.108 410.368 499.726 410.017C490.021 410.354 480.858 411.536 471.424 413.807C457.818 417.675 443.922 426.424 434.697 437.156C432.322 439.92 430.486 443.053 428.383 446.015C425.564 448.731 422.801 452.442 419.624 454.626C417.902 443.546 416.216 433.245 412.256 422.681C407.923 415.182 403.767 407.796 398.238 401.083C382.144 381.547 358.879 372.353 334.268 370C339.624 363.937 343.767 357.364 346.017 349.556C347.671 344.092 348.027 338.018 347.187 332.37L347.049 331.5C345.788 323.237 341.476 316.901 336.25 310.601L336.491 309.069L359 288.845C361.47 285.791 364.477 283.216 367.373 280.576L373.514 283.434L374.046 283.559C380.049 284.893 386.197 285.95 392.27 284.326C401.586 281.834 406.841 278.483 413.698 271.622L415.463 269.962L432.194 270.833L432.75 270.899L433.403 269.581L434.95 262.382C431.199 259.669 428.364 253.663 425.963 249.706C420.148 238.68 417.847 227.444 415.939 215.277C415.746 205.31 415.998 195.743 418.373 186C423.748 163.953 438.754 144.013 457.965 132.141Z"/>
	<path fill="#3640B4" transform="scale(0.292969 0.292969)" d="M587.129 255.83L579.883 254.796C583.505 251.226 586.997 247.209 590.172 243.229C592.901 239.808 594.502 234.94 598.492 232.876C595.865 241.476 592.061 248.313 587.129 255.83Z"/>
	<path fill="#A08FDC" transform="scale(0.292969 0.292969)" d="M523.009 149.538C525.284 149.201 527.973 149.167 530.225 149.71C534.036 150.629 537.432 153.358 539.264 156.824C541.197 160.481 541.269 164.368 540.02 168.25C538.569 172.757 534.923 175.273 530.919 177.362C527.424 177.524 524.423 177.796 521.125 176.379C517.963 175.021 515.329 172.261 514.082 169.046L513.882 168.5C512.799 165.605 512.592 162.116 513.605 159.159C515.323 154.141 518.399 151.764 523.009 149.538Z"/>
	<path fill="#A08FDC" transform="scale(0.292969 0.292969)" d="M586.234 295.582C589.49 295.457 592.701 295.431 595.783 296.677C599.556 298.203 602.413 301.527 603.924 305.25C605.28 308.593 604.589 313.466 603.218 316.67C601.376 320.973 597.68 323.137 593.572 324.87C591.065 324.921 588.688 324.966 586.242 324.324C581.817 323.163 578.656 320.513 576.498 316.519C574.664 313.126 574.806 309.141 575.966 305.547C577.737 300.056 581.365 297.957 586.234 295.582Z"/>
	<path fill="#F98A2C" transform="scale(0.292969 0.292969)" d="M602.258 217.138C615.273 215.617 627.078 217.472 637.582 225.732C646.535 232.771 652.355 243.691 653.58 254.995C654.039 259.228 653.789 263.237 653.306 267.453C651.83 274.024 650.158 279.517 646.652 285.32C638.479 277.808 630.201 271.754 620.818 265.819C610.056 260.913 598.814 257.618 587.129 255.83C592.061 248.313 595.865 241.476 598.492 232.876C600.306 227.71 601.379 222.532 602.258 217.138Z"/>
	<path fill="#EA7650" transform="scale(0.292969 0.292969)" d="M620.818 265.819C624.011 264.356 628.269 266.036 631.567 266.83C638.026 268.383 644.984 270.367 651.5 268.069L653.306 267.453C651.83 274.024 650.158 279.517 646.652 285.32C638.479 277.808 630.201 271.754 620.818 265.819Z"/>
	<path fill="#3640B4" transform="scale(0.292969 0.292969)" d="M415.939 215.277C415.746 205.31 415.998 195.743 418.373 186C423.748 163.953 438.754 144.013 457.965 132.141L457.834 132.652C457.159 135.123 455.86 136.818 454.695 139.038C452.731 142.777 451.01 146.559 449.541 150.518C440.79 174.083 442.457 198.793 454.72 220.75C465.464 239.987 483.28 254.086 504.581 259.776C514.904 262.533 526.491 262.495 536.909 260.313C542.146 259.216 547.128 257.556 552.443 256.676C547.575 259.63 542.474 261.672 537.438 264.25C529.293 268.419 521.66 273.534 514.826 279.625C510.05 283.881 506.297 287.837 504.742 294.244C498.841 318.541 506.064 346.692 519.021 367.5C532.254 388.749 553.947 403.559 578.281 409.05C586.507 410.906 595.455 412.29 603.911 411.646C596.076 421.654 590.105 434.029 587.556 446.5C586.921 449.61 586.817 452.791 586.241 455.901L585.73 455.145C582.818 454.982 580.414 455.649 577.631 456.4C573.824 450.395 569.968 444.428 565.017 439.286C548.186 421.808 524.108 410.368 499.726 410.017C490.021 410.354 480.858 411.536 471.424 413.807C470.734 411.353 475.606 404.461 476.9 402C477.959 399.986 478.812 397.9 479.482 395.726L484.407 383.441C484.437 380.661 482.637 376.802 481.856 374.055C481.016 371.1 480.555 368.093 480.114 365.058C477.943 350.111 480.01 333.765 485.535 319.75C487.251 315.397 489.614 311.334 491.238 306.943L491.423 306.432L438.513 275.771C436.173 274.141 433.925 272.421 433.403 269.581L434.95 262.382C431.199 259.669 428.364 253.663 425.963 249.706C420.148 238.68 417.847 227.444 415.939 215.277Z"/>
	<path fill="#23299C" transform="scale(0.292969 0.292969)" d="M484.407 383.441L499.726 410.017C490.021 410.354 480.858 411.536 471.424 413.807C470.734 411.353 475.606 404.461 476.9 402C477.959 399.986 478.812 397.9 479.482 395.726L484.407 383.441Z"/>
	<path fill="#23299C" transform="scale(0.292969 0.292969)" d="M434.95 262.382C437.646 265.172 440.328 268.176 443.342 270.619C459.038 283.343 480.473 290.075 500.509 290.495L502.972 290.516L491.423 306.432L438.513 275.771C436.173 274.141 433.925 272.421 433.403 269.581L434.95 262.382Z"/>
	<path fill="#5061D1" transform="scale(0.292969 0.292969)" d="M433.403 269.581C433.925 272.421 436.173 274.141 438.513 275.771L491.423 306.432L491.238 306.943C489.614 311.334 487.251 315.397 485.535 319.75C480.01 333.765 477.943 350.111 480.114 365.058C480.555 368.093 481.016 371.1 481.856 374.055C482.637 376.802 484.437 380.661 484.407 383.441L479.482 395.726C478.812 397.9 477.959 399.986 476.9 402C475.606 404.461 470.734 411.353 471.424 413.807C457.818 417.675 443.922 426.424 434.697 437.156C432.322 439.92 430.486 443.053 428.383 446.015C425.564 448.731 422.801 452.442 419.624 454.626C417.902 443.546 416.216 433.245 412.256 422.681C407.923 415.182 403.767 407.796 398.238 401.083C382.144 381.547 358.879 372.353 334.268 370C339.624 363.937 343.767 357.364 346.017 349.556C347.671 344.092 348.027 338.018 347.187 332.37L347.049 331.5C345.788 323.237 341.476 316.901 336.25 310.601L336.491 309.069L359 288.845C361.47 285.791 364.477 283.216 367.373 280.576L373.514 283.434L374.046 283.559C380.049 284.893 386.197 285.95 392.27 284.326C401.586 281.834 406.841 278.483 413.698 271.622L415.463 269.962L432.194 270.833L432.75 270.899L433.403 269.581Z"/>
	<path fill="#23299C" transform="scale(0.292969 0.292969)" d="M359 288.845C361.47 285.791 364.477 283.216 367.373 280.576L373.514 283.434C369.197 285.149 363.505 288.359 359 288.845Z"/>
	<path fill="#A08FDC" transform="scale(0.292969 0.292969)" d="M424.615 310.557C426.736 310.497 429.159 310.267 431.243 310.656C434.571 311.277 437.815 313.806 439.598 316.659C441.74 320.087 442.506 324.338 441.363 328.25C440.011 332.878 435.574 335.229 431.649 337.393C429.433 337.839 427.216 337.865 425 337.352C421.142 336.459 418.218 333.893 416.385 330.482C414.484 326.945 414.451 322.825 415.71 319.059C417.283 314.35 420.421 312.56 424.615 310.557Z"/>
	<path fill="#3640B4" transform="scale(0.292969 0.292969)" d="M479.482 395.726C478.812 397.9 477.959 399.986 476.9 402C475.606 404.461 470.734 411.353 471.424 413.807C457.818 417.675 443.922 426.424 434.697 437.156C432.322 439.92 430.486 443.053 428.383 446.015C425.564 448.731 422.801 452.442 419.624 454.626C417.902 443.546 416.216 433.245 412.256 422.681C430.748 421.232 447.586 416.351 463.332 406.391C468.782 402.944 473.894 398.946 479.482 395.726Z"/>
	<path fill="#0C79D8" transform="scale(0.292969 0.292969)" d="M182.318 651.174C186.838 652.807 191.507 653.953 195.968 655.75C206.612 660.039 216.644 666.782 224.549 675.09C228.028 678.746 230.921 683.103 234.488 686.623C237.904 691.982 241.118 697.324 243.858 703.071C245.438 706.385 246.608 710.225 248.466 713.342C254.233 709.125 260.882 705.155 267.674 702.876C272.329 700.963 276.504 698.947 281.429 697.748C284.821 696.923 288.283 696.665 291.674 695.795L292.266 695.639C293.016 695.246 293.962 693.619 294.506 692.925L299.897 686.596C304.133 683.034 308.171 680.208 313.135 677.743C320.335 674.552 329.808 672.618 337.567 674.557C345.465 677.027 352.46 679.859 359.18 684.784L366.715 685.83C386.117 687.305 405.894 677.978 420.24 665.612C424.507 678.075 429.844 689.219 438.259 699.425C459.826 702.17 482.441 711.51 496.061 729.213L499.719 734.014C503.638 740.693 508.346 747.379 511.164 754.615C514.331 764.895 516.667 775.005 516.928 785.817C517.036 790.308 516.329 794.716 516.586 799.239C515.068 809.875 512.747 823.13 506.484 832.142L506.45 832.155L502.413 839.946L494.046 851.103C479.448 868.245 456.024 880.91 433.463 882.659C413.504 884.207 394.722 881.387 377.25 871.058C371.347 867.569 365.916 863.16 360.73 858.703C358.841 859.316 356.259 862.217 354.639 863.525C351.383 866.152 347.998 868.7 344.377 870.802C323.011 883.204 296.682 886.682 272.812 880.301C252.23 874.799 235.005 863.068 222.059 846.181C217.68 840.47 214.166 834.272 210.572 828.058C193.705 835.629 177.18 839.621 158.584 837.664C135.334 835.217 112.521 822.218 98.0058 804.02C83.0863 785.315 72.9537 760.319 75.7626 735.991C78.8105 709.593 88.9095 687.495 109.397 670.084C115.295 665.135 121.481 660.976 128.179 657.209C133.465 660.434 140.323 662.477 146.469 663.184C160.715 664.821 171.36 659.933 182.318 651.174Z"/>
	<path fill="#3698E8" transform="scale(0.292969 0.292969)" d="M182.318 651.174C186.838 652.807 191.507 653.953 195.968 655.75C206.612 660.039 216.644 666.782 224.549 675.09C228.028 678.746 230.921 683.103 234.488 686.623C237.904 691.982 241.118 697.324 243.858 703.071C245.438 706.385 246.608 710.225 248.466 713.342C245.761 716.203 242.313 718.07 239.218 720.44C237.057 722.095 235.105 724.135 233.195 726.068C219.365 740.074 208.967 758.771 205.775 778.327C204.451 786.438 204.467 794.315 204.524 802.505L191 801.99C164.657 800.276 136.659 789.35 119.057 769.149C99.751 746.993 91.7949 715.608 102.015 687.51C103.435 683.608 105.19 679.861 107.087 676.169C107.935 674.519 109.43 672.966 109.437 671.048L109.397 670.084C115.295 665.135 121.481 660.976 128.179 657.209C133.465 660.434 140.323 662.477 146.469 663.184C160.715 664.821 171.36 659.933 182.318 651.174Z"/>
	<path fill="#7CBDF1" transform="scale(0.292969 0.292969)" d="M167.162 692.613C169.545 692.223 172.484 692.079 174.852 692.706C178.27 693.61 181.29 695.996 183.094 698.997C185.058 702.264 185.954 706.029 184.831 709.75C183.259 714.96 179.904 717.422 175.278 719.714C172.532 720.322 169.374 720.387 166.629 719.684C163.309 718.833 160.727 716.658 159.085 713.652C157.04 709.909 156.763 705.431 158.086 701.384C159.641 696.63 162.943 694.728 167.162 692.613Z"/>
	<path fill="#3698E8" transform="scale(0.292969 0.292969)" d="M313.135 677.743C320.335 674.552 329.808 672.618 337.567 674.557C345.465 677.027 352.46 679.859 359.18 684.784C365.291 691.462 369.92 698.358 372.027 707.25C372.938 711.093 373.211 714.724 373.4 718.672C372.742 725.016 371.43 730.084 368.763 735.879L364.871 743.53C356.373 752.979 348.41 757.837 335.862 759.864L333.199 771.612C329.114 793.521 331.642 814.64 341.765 834.562C344.475 839.898 347.854 844.732 351.228 849.654C350.382 850.104 350.672 850.035 349.813 850.202C323.916 855.23 296.959 847.824 275.556 832.93C255.168 818.742 240.496 797.482 235.816 773.032C233.416 760.499 234.829 747.147 238.512 735C242.96 720.333 250.869 712.791 264.123 705.721C265.442 705.017 266.301 704.346 267.332 703.249L267.674 702.876C272.329 700.963 276.504 698.947 281.429 697.748C284.821 696.923 288.283 696.665 291.674 695.795L292.266 695.639C293.016 695.246 293.962 693.619 294.506 692.925L299.897 686.596C304.133 683.034 308.171 680.208 313.135 677.743Z"/>
	<path fill="#F98A2C" transform="scale(0.292969 0.292969)" d="M313.135 677.743C320.335 674.552 329.808 672.618 337.567 674.557C345.465 677.027 352.46 679.859 359.18 684.784C365.291 691.462 369.92 698.358 372.027 707.25C372.938 711.093 373.211 714.724 373.4 718.672C372.742 725.016 371.43 730.084 368.763 735.879L364.871 743.53C356.373 752.979 348.41 757.837 335.862 759.864C331.159 760.084 325.951 760.46 321.37 759.277L320.5 759.039C308.753 755.926 298.993 749.404 292.577 738.885C287.06 729.838 285.092 717.889 287.76 707.602L287.993 706.75C289.044 702.794 290.264 699.215 292.266 695.639C293.016 695.246 293.962 693.619 294.506 692.925L299.897 686.596C304.133 683.034 308.171 680.208 313.135 677.743Z"/>
	<path fill="#EA7650" transform="scale(0.292969 0.292969)" d="M299.897 686.596C304.133 683.034 308.171 680.208 313.135 677.743L313.113 678.401C312.9 682.699 310.099 686.064 308.945 690.164C305.584 702.108 310.299 716.826 318.238 725.908C325.877 734.648 336.364 739.274 347.9 739.941C352.027 740.18 356.352 739.763 360.267 738.382C363.284 737.317 365.414 735.904 368.763 735.879L364.871 743.53C356.373 752.979 348.41 757.837 335.862 759.864C331.159 760.084 325.951 760.46 321.37 759.277L320.5 759.039C308.753 755.926 298.993 749.404 292.577 738.885C287.06 729.838 285.092 717.889 287.76 707.602L287.993 706.75C289.044 702.794 290.264 699.215 292.266 695.639C293.016 695.246 293.962 693.619 294.506 692.925L299.897 686.596Z"/>
	<path fill="#3698E8" transform="scale(0.292969 0.292969)" d="M359.18 684.784L366.715 685.83C386.117 687.305 405.894 677.978 420.24 665.612C424.507 678.075 429.844 689.219 438.259 699.425C459.826 702.17 482.441 711.51 496.061 729.213L499.719 734.014C503.638 740.693 508.346 747.379 511.164 754.615C514.331 764.895 516.667 775.005 516.928 785.817C517.036 790.308 516.329 794.716 516.586 799.239C515.068 809.875 512.747 823.13 506.484 832.142L506.45 832.155C504.329 832.499 502.586 833.95 500.75 834.991L493.122 838.882C484.365 842.963 474.599 846.054 465.043 847.433C448.839 849.771 430.593 847.642 415.5 840.998C408.74 838.022 402.739 834.096 396.806 829.75L394.797 828.245C377.502 814.401 366.523 792.755 363.824 771C363.135 765.442 363.062 758.952 363.815 753.4C364.155 750.899 365.839 745.676 364.871 743.53L368.763 735.879C371.43 730.084 372.742 725.016 373.4 718.672C373.211 714.724 372.938 711.093 372.027 707.25C369.92 698.358 365.291 691.462 359.18 684.784Z"/>
	<path fill="#7CBDF1" transform="scale(0.292969 0.292969)" d="M440.03 735.06C442.552 734.688 445.841 734.63 448.25 735.546C451.876 736.925 454.902 740.02 456.536 743.497C458.096 746.818 458.422 751.345 456.992 754.75C455.054 759.362 451.01 761.481 446.733 763.462C443.607 763.545 440.447 763.765 437.487 762.564C434.172 761.218 431.551 758.142 430.184 754.884C428.728 751.413 428.923 747.172 430.339 743.717C432.21 739.148 435.744 736.967 440.03 735.06Z"/>
	<path fill="#23299C" transform="scale(0.292969 0.292969)" d="M359.18 684.784L366.715 685.83C386.117 687.305 405.894 677.978 420.24 665.612C424.507 678.075 429.844 689.219 438.259 699.425C413.498 698.31 392.29 701.633 373.4 718.672C373.211 714.724 372.938 711.093 372.027 707.25C369.92 698.358 365.291 691.462 359.18 684.784Z"/>
	<path fill="#0C79D8" transform="scale(0.292969 0.292969)" d="M334.268 370C358.879 372.353 382.144 381.547 398.238 401.083C403.767 407.796 407.923 415.182 412.256 422.681C416.216 433.245 417.902 443.546 419.624 454.626C422.801 452.442 425.564 448.731 428.383 446.015C430.486 443.053 432.322 439.92 434.697 437.156C443.922 426.424 457.818 417.675 471.424 413.807C480.858 411.536 490.021 410.354 499.726 410.017C524.108 410.368 548.186 421.808 565.017 439.286C569.968 444.428 573.824 450.395 577.631 456.4C580.414 455.649 582.818 454.982 585.73 455.145L586.241 455.901L585.259 467.683C598.301 475.594 607.434 484.917 611.066 500.188C612.144 504.72 612.065 509.407 612.121 514.036C611.24 521.097 609.687 527.107 606.813 533.601L613.112 540.792C632.187 533.937 657.202 536.816 675.296 545.439C683.975 549.575 691.503 554.705 698.767 560.981C717.353 579.828 726.98 604.451 726.75 630.986L726.491 634.39C726.033 647.066 722.381 660.641 715.526 671.376L715.12 673.28C728.814 685.39 750.595 693.744 768.865 694.891L780.082 695.066C781.541 695.084 783.155 694.81 784.426 695.542C795.835 674.174 815.724 660.509 837.947 652.198C843.197 651.3 848.597 649.981 853.903 649.598C866.179 648.714 879.952 651.498 891.25 656.186C914.053 666.427 932.109 684.514 941.077 708.086C947.415 724.748 948.959 744.564 945.25 762.011C944.189 767.001 942.35 771.741 940.715 776.554C931.053 800.294 913.837 820.606 889.806 830.797C867.956 840.062 843.639 840.556 821.633 831.393C816.31 829.176 811.407 826.163 806.531 823.113C796.587 845.514 778.634 866.597 755.259 875.615C731.496 884.783 707.086 884.996 683.69 874.578C676.413 871.338 669.263 867.34 662.979 862.422C657.444 858.09 652.555 852.96 647.422 848.172C643.693 843.895 640.952 839.028 638.172 834.115L632.408 838.904C616.227 850.243 594.598 852.597 575.611 849.252C553.927 845.431 535.48 831.712 523.924 813.291C521.189 808.932 519.803 803.762 516.856 799.611L516.586 799.239C516.329 794.716 517.036 790.308 516.928 785.817C516.667 775.005 514.331 764.895 511.164 754.615C508.346 747.379 503.638 740.693 499.719 734.014L496.061 729.213C482.441 711.51 459.826 702.17 438.259 699.425C429.844 689.219 424.507 678.075 420.24 665.612C405.894 677.978 386.117 687.305 366.715 685.83L359.18 684.784C352.46 679.859 345.465 677.027 337.567 674.557C329.808 672.618 320.335 674.552 313.135 677.743C308.171 680.208 304.133 683.034 299.897 686.596L294.506 692.925C293.962 693.619 293.016 695.246 292.266 695.639L291.674 695.795C288.283 696.665 284.821 696.923 281.429 697.748C276.504 698.947 272.329 700.963 267.674 702.876C260.882 705.155 254.233 709.125 248.466 713.342C246.608 710.225 245.438 706.385 243.858 703.071C241.118 697.324 237.904 691.982 234.488 686.623C230.921 683.103 228.028 678.746 224.549 675.09C216.644 666.782 206.612 660.039 195.968 655.75C191.507 653.953 186.838 652.807 182.318 651.174C185.705 647.513 188.909 643.638 191.36 639.286C196.207 630.058 198.261 619.819 196.278 609.499C194.872 604.215 193.13 599.192 190.388 594.448C184.757 587.399 178.977 582.026 170.498 578.543C167.411 577.275 164.168 576.581 161.022 575.506L160.118 575.193C162.203 568.349 164.427 561.922 167.901 555.625C175.584 541.698 187.011 532.076 199.973 523.315L203.559 521.593C213.585 515.765 225.306 513.558 236.657 512.079L250.292 512.449C239.04 495.65 235.273 479.115 235.479 459.124L235.608 456.791C237.639 430.946 249.551 406.875 269.367 390.051C274.671 385.212 280.997 381.803 287.009 377.935C293.546 380.575 302.481 383.3 309.517 381.711C313.002 380.924 316.403 380.317 319.75 379.001C325.19 376.863 329.644 373.487 334.268 370Z"/>
	<path fill="#23299C" transform="scale(0.292969 0.292969)" d="M288.703 543.749C293.952 544.982 299.245 546.409 304.616 546.978C302.787 548.397 301.366 549.923 298.965 550.106C295.286 548.676 291.694 546.296 288.703 543.749Z"/>
	<path fill="#23299C" transform="scale(0.292969 0.292969)" d="M630.335 729.386C639.505 727.768 648.411 725.909 657.171 722.675L643.858 737.908C639.566 733.791 635.449 732.096 630.335 729.386Z"/>
	<path fill="#23299C" transform="scale(0.292969 0.292969)" d="M375.426 532.112C384.706 525.511 393.402 518.864 401.468 510.788C401.475 517.978 401.847 524.743 403.577 531.775C404.887 537.099 407.071 542.272 408.884 547.442C397.8 541.224 387.559 536.155 375.426 532.112Z"/>
	<path fill="#5061D1" transform="scale(0.292969 0.292969)" d="M523.542 732.248C529.707 730.432 535.994 728.967 541.993 726.644C551.722 722.876 560.207 717.374 568.398 710.986C568.804 710.669 572.524 707.883 572.564 707.89C572.78 707.932 575.345 710.875 575.745 711.25C578.199 713.548 581.155 715.655 584.016 717.422C598.433 726.33 613.857 728.319 630.335 729.386C635.449 732.096 639.566 733.791 643.858 737.908C640.92 742.748 637.795 747.73 635.492 752.906C627.567 770.716 624.652 791.449 629.355 810.517C631.426 818.916 634.496 826.326 638.172 834.115L632.408 838.904C616.227 850.243 594.598 852.597 575.611 849.252C553.927 845.431 535.48 831.712 523.924 813.291C521.189 808.932 519.803 803.762 516.856 799.611L516.586 799.239C516.329 794.716 517.036 790.308 516.928 785.817C516.667 775.005 514.331 764.895 511.164 754.615C508.346 747.379 503.638 740.693 499.719 734.014C507.753 734.078 515.659 733.968 523.542 732.248Z"/>
	<path fill="#23299C" transform="scale(0.292969 0.292969)" d="M499.719 734.014C507.753 734.078 515.659 733.968 523.542 732.248C518.712 739.545 514.857 746.704 511.164 754.615C508.346 747.379 503.638 740.693 499.719 734.014Z"/>
	<path fill="#A08FDC" transform="scale(0.292969 0.292969)" d="M588.227 734.566C591.713 734.167 595.267 734.147 598.498 735.665C601.806 737.219 604.152 740.22 605.337 743.622C606.594 747.231 606.199 751.356 604.513 754.75C602.526 758.751 598.816 760.643 594.755 762.013C591.766 763.12 588.071 762.422 585.266 761.144C582.012 759.661 579.194 756.53 577.968 753.174C576.645 749.551 577.19 744.442 579.055 741.079C581.026 737.526 584.535 735.795 588.227 734.566Z"/>
	<path fill="#5061D1" transform="scale(0.292969 0.292969)" d="M318.861 540.124C332.424 533.914 346.125 529.143 361.308 530.161C366.068 530.481 370.699 531.551 375.426 532.112C387.559 536.155 397.8 541.224 408.884 547.442C413.971 552.446 419.559 556.948 424.41 562.19C430.467 568.734 433.781 576.515 441.514 581.435C437.828 586.57 433.736 592.023 430.544 597.447C420.053 615.276 415.408 636.573 418.707 657.081L420.24 665.612C405.894 677.978 386.117 687.305 366.715 685.83L359.18 684.784C352.46 679.859 345.465 677.027 337.567 674.557C337.353 673.955 337.325 673.249 336.925 672.75C336.475 672.187 334.672 671.288 333.98 670.816C330.565 668.489 326.957 666.58 323.71 663.993C306.514 650.29 295.952 631.706 293.705 609.787C291.636 589.6 297.786 569.162 309.054 552.5C311.996 548.149 315.574 544.218 318.861 540.124Z"/>
	<path fill="#A08FDC" transform="scale(0.292969 0.292969)" d="M378.463 574.091C380.716 573.923 382.656 574.116 384.659 575.254C388.555 577.467 391.622 580.821 392.688 585.265C393.494 588.627 393.023 592.639 391.009 595.5C388.229 599.448 384.73 601.083 380.12 601.983C378.277 601.8 376.329 601.809 374.545 601.272C370.967 600.195 368.385 597.841 366.75 594.48C365.019 590.923 364.907 586.414 366.331 582.739C367.339 580.139 369.759 577.191 372.394 576.072L372.928 575.862C374.756 575.116 376.548 574.575 378.463 574.091Z"/>
	<path fill="#3698E8" transform="scale(0.292969 0.292969)" d="M334.268 370C358.879 372.353 382.144 381.547 398.238 401.083C403.767 407.796 407.923 415.182 412.256 422.681C416.216 433.245 417.902 443.546 419.624 454.626C418.64 459.855 418.731 465.422 418.199 470.724C417.746 475.229 416.624 479.843 415.331 484.174C414.432 487.184 413.343 490.76 410.899 492.893C408.021 495.403 404.076 497.24 400.736 499.143C383.879 508.75 365.042 515.224 345.368 514.427C321.909 513.476 298.041 503.201 282.086 485.706C263.092 464.877 254.608 435.927 262.835 408.575C263.88 405.099 265.07 401.68 266.475 398.332C267.359 396.226 269.442 393.224 269.418 391.02L269.367 390.051C274.671 385.212 280.997 381.803 287.009 377.935C293.546 380.575 302.481 383.3 309.517 381.711C313.002 380.924 316.403 380.317 319.75 379.001C325.19 376.863 329.644 373.487 334.268 370Z"/>
	<path fill="#7CBDF1" transform="scale(0.292969 0.292969)" d="M334.761 402.574C336.251 402.466 337.731 402.378 339.202 402.705C343.801 403.726 347.096 405.801 349.481 409.929C351.515 413.451 351.755 417.345 350.548 421.203C348.946 426.32 344.721 428.417 340.259 430.659C337.441 430.327 334.151 430.436 331.554 429.252L331 428.984C328.085 427.597 325.831 424.84 324.669 421.867C322.988 417.571 323.295 413.723 325.233 409.565C327.152 405.45 330.737 404.054 334.761 402.574Z"/>
	<path fill="#5061D1" transform="scale(0.292969 0.292969)" d="M236.657 512.079L250.292 512.449C261.213 525.413 272.521 537.335 288.703 543.749C291.694 546.296 295.286 548.676 298.965 550.106C301.366 549.923 302.787 548.397 304.616 546.978C306.15 546.822 308.131 545.503 309.504 544.745C312.596 543.038 315.519 541.339 318.861 540.124C315.574 544.218 311.996 548.149 309.054 552.5C297.786 569.162 291.636 589.6 293.705 609.787C295.952 631.706 306.514 650.29 323.71 663.993C326.957 666.58 330.565 668.489 333.98 670.816C334.672 671.288 336.475 672.187 336.925 672.75C337.325 673.249 337.353 673.955 337.567 674.557C329.808 672.618 320.335 674.552 313.135 677.743C308.171 680.208 304.133 683.034 299.897 686.596L294.506 692.925C293.962 693.619 293.016 695.246 292.266 695.639L291.674 695.795C288.283 696.665 284.821 696.923 281.429 697.748C276.504 698.947 272.329 700.963 267.674 702.876C260.882 705.155 254.233 709.125 248.466 713.342C246.608 710.225 245.438 706.385 243.858 703.071C241.118 697.324 237.904 691.982 234.488 686.623C230.921 683.103 228.028 678.746 224.549 675.09C216.644 666.782 206.612 660.039 195.968 655.75C191.507 653.953 186.838 652.807 182.318 651.174C185.705 647.513 188.909 643.638 191.36 639.286C196.207 630.058 198.261 619.819 196.278 609.499C194.872 604.215 193.13 599.192 190.388 594.448C184.757 587.399 178.977 582.026 170.498 578.543C167.411 577.275 164.168 576.581 161.022 575.506L160.118 575.193C162.203 568.349 164.427 561.922 167.901 555.625C175.584 541.698 187.011 532.076 199.973 523.315L203.559 521.593C213.585 515.765 225.306 513.558 236.657 512.079Z"/>
	<path fill="#A08FDC" transform="scale(0.292969 0.292969)" d="M259.738 546.559C262.992 546.378 265.877 546.477 269 547.518C271.884 548.479 274.016 550.417 275.342 553.138C276.814 556.157 276.971 560.178 275.81 563.335L275.549 564L275.312 564.638C273.488 569.297 270.094 571.135 265.829 573.083C263.937 573.539 262.091 573.644 260.185 573.198C256.319 572.293 253.352 570.215 251.325 566.792C249.474 563.665 248.809 559.535 249.939 556.031C250.988 552.778 253.118 549.568 256.308 548.096L259.738 546.559Z"/>
	<path fill="#3640B4" transform="scale(0.292969 0.292969)" d="M203.559 521.593L203.75 522.944C191.333 539.172 185.74 559.337 188.27 579.676L188.852 583C189.463 586.146 191.183 591.475 190.388 594.448C184.757 587.399 178.977 582.026 170.498 578.543C167.411 577.275 164.168 576.581 161.022 575.506L160.118 575.193C162.203 568.349 164.427 561.922 167.901 555.625C175.584 541.698 187.011 532.076 199.973 523.315L203.559 521.593Z"/>
	<path fill="#3640B4" transform="scale(0.292969 0.292969)" d="M318.861 540.124C315.574 544.218 311.996 548.149 309.054 552.5C297.786 569.162 291.636 589.6 293.705 609.787C295.952 631.706 306.514 650.29 323.71 663.993C326.957 666.58 330.565 668.489 333.98 670.816C334.672 671.288 336.475 672.187 336.925 672.75C337.325 673.249 337.353 673.955 337.567 674.557C329.808 672.618 320.335 674.552 313.135 677.743C308.171 680.208 304.133 683.034 299.897 686.596L294.506 692.925C293.962 693.619 293.016 695.246 292.266 695.639L291.674 695.795C288.283 696.665 284.821 696.923 281.429 697.748C276.504 698.947 272.329 700.963 267.674 702.876C260.882 705.155 254.233 709.125 248.466 713.342C246.608 710.225 245.438 706.385 243.858 703.071C241.118 697.324 237.904 691.982 234.488 686.623C230.921 683.103 228.028 678.746 224.549 675.09C216.644 666.782 206.612 660.039 195.968 655.75C191.507 653.953 186.838 652.807 182.318 651.174C185.705 647.513 188.909 643.638 191.36 639.286C196.207 630.058 198.261 619.819 196.278 609.499C198.495 611.513 199.916 614.338 201.689 616.75C205.777 622.31 210.421 627.902 215.815 632.245C233.144 646.2 251.461 651.242 273.509 649.117L268.938 630.407C264.996 607.16 274.317 581.898 288.294 563.56C290.221 561.031 292.173 558.567 294.436 556.327C296.263 554.519 298.437 553.107 299.94 551L298.965 550.106C301.366 549.923 302.787 548.397 304.616 546.978C306.15 546.822 308.131 545.503 309.504 544.745C312.596 543.038 315.519 541.339 318.861 540.124Z"/>
	<path fill="#23299C" transform="scale(0.292969 0.292969)" d="M234.488 686.623C238.539 685.369 243.434 685.888 247.714 685.289C262.133 683.271 273.202 678.574 285.472 670.918C287.811 672.438 289.949 675.381 291.841 677.439C294.418 680.242 297.918 683.35 299.897 686.596L294.506 692.925C293.962 693.619 293.016 695.246 292.266 695.639L291.674 695.795C288.283 696.665 284.821 696.923 281.429 697.748C276.504 698.947 272.329 700.963 267.674 702.876C260.882 705.155 254.233 709.125 248.466 713.342C246.608 710.225 245.438 706.385 243.858 703.071C241.118 697.324 237.904 691.982 234.488 686.623Z"/>
	<path fill="#3698E8" transform="scale(0.292969 0.292969)" d="M837.947 652.198C843.197 651.3 848.597 649.981 853.903 649.598C866.179 648.714 879.952 651.498 891.25 656.186C914.053 666.427 932.109 684.514 941.077 708.086C947.415 724.748 948.959 744.564 945.25 762.011C944.189 767.001 942.35 771.741 940.715 776.554C937.595 777.706 935.264 781.127 932.728 783.274C923.142 791.39 911.822 796.374 899.5 798.67C892.165 800.037 883.565 800.156 876.146 799.158C861.347 797.168 847.46 792.581 834.719 784.722C826.59 779.708 819.245 773.628 812.02 767.416C814.279 783.3 814.582 797.355 809.738 812.883C808.922 815.498 808.004 819.073 806.372 821.25C805.192 822.824 803.353 824.235 801.893 825.592C790.687 836.007 773.277 843.459 758.198 845.598C733.607 849.086 710.704 842.933 690.755 828.25C686.512 825.127 682.183 820.971 678.902 816.847L674.982 811.924C662.214 795.135 654.865 772.493 657.821 751.369C659.572 738.862 663.28 727.238 670.001 716.5C672.392 712.679 675.371 709.086 679.238 706.676L685.483 703.047L698.371 697.268C700.423 692.678 705.57 687.713 708.683 683.605C711.161 680.334 713.167 676.881 715.12 673.28C728.814 685.39 750.595 693.744 768.865 694.891L780.082 695.066C781.541 695.084 783.155 694.81 784.426 695.542C795.835 674.174 815.724 660.509 837.947 652.198Z"/>
	<path fill="#7CBDF1" transform="scale(0.292969 0.292969)" d="M869.159 690.535C872.722 690.454 875.683 690.46 879.05 691.837C882.52 693.256 885.005 696.562 886.418 699.947L886.637 700.491C887.894 703.534 887.925 707.193 886.737 710.28C884.745 715.455 880.715 717.806 875.902 719.913C874.012 720.021 872.368 719.787 870.5 719.545L867 718.973C863.388 717.894 860.705 714.976 859.104 711.663C857.239 707.804 857.177 703.975 858.703 699.976C860.769 694.562 864.155 692.665 869.159 690.535Z"/>
	<path fill="#7CBDF1" transform="scale(0.292969 0.292969)" d="M736.672 730.576C739.4 730.468 742.249 730.343 744.876 731.237C749.031 732.652 752.085 735.417 753.913 739.385C755.689 743.239 755.254 748.127 753.696 752.002C751.869 756.545 747.648 758.546 743.486 760.439C740.558 760.869 737.439 760.741 734.618 759.8C730.943 758.573 728.452 756.037 726.75 752.619C724.721 748.547 724.946 744.121 726.453 739.922C728.324 734.711 731.927 732.698 736.672 730.576Z"/>
	<path fill="#23299C" transform="scale(0.292969 0.292969)" d="M715.12 673.28C728.814 685.39 750.595 693.744 768.865 694.891L780.082 695.066C781.541 695.084 783.155 694.81 784.426 695.542L777.016 712.518C773.188 710.031 769.467 707.235 765.492 705C752.959 697.957 739.107 694.18 724.734 693.911C718.914 693.802 712.906 693.893 707.189 695.106L698.371 697.268C700.423 692.678 705.57 687.713 708.683 683.605C711.161 680.334 713.167 676.881 715.12 673.28Z"/>
	<path fill="#3698E8" transform="scale(0.292969 0.292969)" d="M499.726 410.017C524.108 410.368 548.186 421.808 565.017 439.286C569.968 444.428 573.824 450.395 577.631 456.4C580.414 455.649 582.818 454.982 585.73 455.145L586.241 455.901L585.259 467.683C598.301 475.594 607.434 484.917 611.066 500.188C612.144 504.72 612.065 509.407 612.121 514.036C611.24 521.097 609.687 527.107 606.813 533.601L613.112 540.792C632.187 533.937 657.202 536.816 675.296 545.439C683.975 549.575 691.503 554.705 698.767 560.981C717.353 579.828 726.98 604.451 726.75 630.986L726.491 634.39C726.033 647.066 722.381 660.641 715.526 671.376C712.562 673.368 710.26 676.418 707.559 678.782C695.573 689.276 677.562 693.302 662.005 692.268C644.968 691.136 626.649 684.454 613.292 673.758C609.04 670.353 605.502 666.385 601.939 662.296L595.897 671.764L595.393 672.463C592.382 676.697 588.379 680.83 584.349 684.116L576.953 689.75C559.241 701.022 537.09 705.625 516.492 700.785C493.696 695.429 471.543 679.928 459.246 659.962C446.751 639.674 441.252 616.014 446.857 592.517C449.122 583.02 452.993 573.623 460.121 566.697C465.745 561.232 473.238 557.067 479.88 552.963C476.019 552.762 471.772 552.806 468 551.995C459.036 550.067 442.196 528.969 437.056 520.798C426.861 504.59 421.112 483.49 423.912 464.348C424.826 458.1 426.873 452.576 428.272 446.51L428.383 446.015C430.486 443.053 432.322 439.92 434.697 437.156C443.922 426.424 457.818 417.675 471.424 413.807C480.858 411.536 490.021 410.354 499.726 410.017Z"/>
	<path fill="#23299C" transform="scale(0.292969 0.292969)" d="M577.631 456.4C580.414 455.649 582.818 454.982 585.73 455.145L586.241 455.901L585.259 467.683L583.527 466.804L577.631 456.4Z"/>
	<path fill="#23299C" transform="scale(0.292969 0.292969)" d="M606.813 533.601L613.112 540.792C599.024 547.377 588.509 556.848 578.69 568.777C574.312 565.226 569.214 561.712 565.366 557.621C569.935 557.384 574.038 557.32 578.512 556.207C591.124 553.071 600.277 544.484 606.813 533.601Z"/>
	<path fill="#7CBDF1" transform="scale(0.292969 0.292969)" d="M515.102 583.612C518.074 583.161 521.002 583.163 523.855 584.192C527.757 585.599 530.754 588.605 532.423 592.371L532.651 592.904C533.923 595.77 533.931 599.67 532.785 602.593L532.511 603.25C530.691 607.835 527.362 609.797 523.132 611.772C521.148 612.285 519.386 612.665 517.338 612.249C512.826 611.333 509.056 609.263 506.659 605.19C504.818 602.063 504.423 597.791 505.313 594.297L505.461 593.75L505.908 592.072C507.463 587.57 510.993 585.467 515.102 583.612Z"/>
	<path fill="#7CBDF1" transform="scale(0.292969 0.292969)" d="M640.846 577.048C643.151 576.943 645.637 577 647.85 577.73C652.036 579.111 655.131 582.15 656.858 586.17C658.284 589.49 658.212 593.683 656.879 596.998C654.956 601.781 651.532 603.671 647.036 605.614C643.928 605.825 640.286 605.791 637.373 604.603C634.021 603.236 631.419 600.372 630.087 597.03L629.884 596.5L629.391 595.259C628.293 591.982 629.069 587.626 630.663 584.64C632.936 580.38 636.315 578.31 640.846 577.048Z"/>
	<path fill="#7CBDF1" transform="scale(0.292969 0.292969)" d="M501.44 453.643C504.132 453.296 507.533 453.07 510.125 454.005C514.57 455.608 517.184 458.451 519.086 462.685C520.358 465.516 520.498 469.452 519.256 472.328L518.943 473L518.636 473.692C516.75 477.707 513.218 479.926 509.173 481.352C506.055 482.138 503.385 482.072 500.286 481.178C496.722 480.149 494.195 477.842 492.463 474.619C490.549 471.057 490.322 466.545 491.678 462.75C493.431 457.844 496.875 455.628 501.44 453.643Z"/>
	<path fill="#EA7650" transform="scale(0.292969 0.292969)" d="M553.527 465.464C564.5 461.103 572.816 463.306 583.527 466.804L585.259 467.683C598.301 475.594 607.434 484.917 611.066 500.188C612.144 504.72 612.065 509.407 612.121 514.036C611.24 521.097 609.687 527.107 606.813 533.601C600.277 544.484 591.124 553.071 578.512 556.207C574.038 557.32 569.935 557.384 565.366 557.621C550.99 555.025 537.714 549.619 528.847 537.331C522.172 528.079 518.864 515.508 520.813 504.192C521.663 499.261 522.624 494.528 524.764 489.965C530.511 477.71 541.062 469.924 553.527 465.464Z"/>
	<path fill="#F98A2C" transform="scale(0.292969 0.292969)" d="M553.527 465.464C564.5 461.103 572.816 463.306 583.527 466.804L585.259 467.683C598.301 475.594 607.434 484.917 611.066 500.188C612.144 504.72 612.065 509.407 612.121 514.036C607.698 515.02 605.94 518.398 602.353 520.763C598.97 522.995 595.739 524.968 591.75 525.932C581.212 528.48 571.858 526.342 562.833 520.663C555.21 515.866 549.38 506.959 547.494 498.181L547.302 497.25C546.38 492.918 546.024 488.037 546.773 483.656C547.423 479.85 548.087 476.389 549.866 472.935C551.097 470.547 552.813 468.544 553.44 465.879L553.527 465.464Z"/>
</svg>
