<?xml version="1.0" encoding="utf-8" ?>
<svg xmlns="http://www.w3.org/2000/svg" xmlns:xlink="http://www.w3.org/1999/xlink" width="371" height="371">
	<path fill="#D4D4D4" transform="scale(0.362305 0.362305)" d="M747.381 502.181C753.882 502.404 759.15 502.02 765.357 500.083C763.957 503.462 762.61 505.885 759.075 507.365C756.862 508.292 754.452 508.252 752.295 507.183C750.015 506.053 748.638 504.327 747.381 502.181Z"/>
	<path fill="#D4D4D4" transform="scale(0.362305 0.362305)" d="M147.514 600.501C149.105 603.251 150.175 605.615 149.25 608.831C148.483 611.498 146.634 613.91 144.156 615.183C141.848 616.369 139.205 616.359 136.778 615.52L135.141 614.838C137.745 613.33 141.478 611.652 143.115 609.066C144.974 606.131 144.942 603.199 147.514 600.501Z"/>
	<path fill="#D4D4D4" transform="scale(0.362305 0.362305)" d="M210.33 545.417C211.99 548.555 213.485 552.139 212.223 555.739C211.453 557.938 209.616 560.006 207.5 560.983C204.153 562.528 201.889 562.333 198.535 560.813L196.136 559.486C197.614 559.36 199.184 559.253 200.566 558.678C205.901 556.456 208.115 550.3 210.33 545.417Z"/>
	<path fill="#D4D4D4" transform="scale(0.362305 0.362305)" d="M450.164 754.275C451.378 756.195 452.514 758.346 451.944 760.694C451.517 762.449 450.468 763.636 448.91 764.482C445.855 766.14 440.623 767.075 437.25 765.909C435.797 765.408 434.558 764.15 433.95 762.75C433.121 760.844 432.924 759.977 433.44 757.993L433.749 759.664L434.883 760.129C436.782 760.947 438.716 761.462 440.704 762.019C444.444 760.082 446.327 757.086 449.621 754.665L450.164 754.275Z"/>
	<path fill="#F2F2F2" transform="scale(0.362305 0.362305)" d="M435.37 754.084C435.747 753.997 436.094 753.935 436.448 753.75C437.893 752.995 439.09 752.24 440.667 751.692C443.038 750.867 445.633 750.582 447.951 751.671L450.164 754.275L449.621 754.665C446.327 757.086 444.444 760.082 440.704 762.019C438.716 761.462 436.782 760.947 434.883 760.129L433.749 759.664L433.44 757.993C433.707 756.417 434.496 755.374 435.37 754.084Z"/>
	<path fill="#F2F2F2" transform="scale(0.362305 0.362305)" d="M691.03 431.055C690.933 430.357 690.904 430.303 690.91 429.503C690.931 426.856 692.166 424.468 694.018 422.644C695.951 420.74 697.953 420.228 700.609 420.336C703.786 420.465 705.214 421.786 707.348 424.004C705.824 425.616 703.865 428.292 702.112 429.544C701.198 430.197 697.421 430.566 696.25 430.564C695.44 430.563 695.707 430.52 694.997 430.43C693.62 430.257 692.803 430.656 691.572 431.195L691.03 431.055Z"/>
	<path fill="#D4D4D4" transform="scale(0.362305 0.362305)" d="M707.348 424.004C708.478 426.082 709.063 428.114 709.667 430.377C708.794 433.298 707.842 435.939 705.069 437.55C702.854 438.838 699.456 438.891 697.004 438.235C694.986 437.695 692.796 435.573 691.808 433.765C691.348 432.923 691.205 431.986 691.03 431.055L691.572 431.195C692.803 430.656 693.62 430.257 694.997 430.43C695.707 430.52 695.44 430.563 696.25 430.564C697.421 430.566 701.198 430.197 702.112 429.544C703.865 428.292 705.824 425.616 707.348 424.004Z"/>
	<path fill="#F2F2F2" transform="scale(0.362305 0.362305)" d="M747.381 502.181L747.236 501.736C746.576 499.15 746.891 496.504 748.333 494.245C749.764 492.002 752.199 489.989 754.875 489.535C757.426 489.102 760.007 489.909 761.974 491.56C764.747 493.888 764.971 496.742 765.357 500.083C759.15 502.02 753.882 502.404 747.381 502.181Z"/>
	<path fill="#F2F2F2" transform="scale(0.362305 0.362305)" d="M135.141 614.838C133.254 613.148 131.162 611.055 130.623 608.477C130.157 606.25 131.022 603.707 132.374 601.937C134.027 599.773 136.497 597.84 139.271 597.526C142.676 597.141 144.933 598.459 147.514 600.501C144.942 603.199 144.974 606.131 143.115 609.066C141.478 611.652 137.745 613.33 135.141 614.838Z"/>
	<path fill="#F2F2F2" transform="scale(0.362305 0.362305)" d="M196.136 559.486C194.608 557.899 193.029 555.706 192.633 553.496C192.233 551.259 193.226 548.514 194.584 546.75C196.388 544.408 199.467 542.297 202.5 542.119C205.618 541.935 208.033 543.536 210.33 545.417C208.115 550.3 205.901 556.456 200.566 558.678C199.184 559.253 197.614 559.36 196.136 559.486Z"/>
	<path fill="#F2F2F2" transform="scale(0.362305 0.362305)" d="M838.993 620.012C842.14 615.585 845.771 612.952 851.25 611.988C855.854 611.178 860.066 612.464 863.761 615.241C867.187 617.816 868.893 621.959 869.893 625.988L837.899 626.998L837.254 626.627C837.44 624.341 838.289 622.182 838.993 620.012Z"/>
	<path fill="#D4D4D4" transform="scale(0.362305 0.362305)" d="M869.893 625.988C870.048 631.48 869.615 635.471 865.693 639.695L864.444 640.814C863.161 640.891 861.993 641.161 860.75 641.467C857.374 642.298 850.039 642.61 846.75 641.46C843.207 640.222 840.005 637.019 838.622 633.55C837.761 631.392 837.008 629.129 837.899 626.998L869.893 625.988Z"/>
	<defs>
		<linearGradient id="gradient_0" gradientUnits="userSpaceOnUse" x1="296.09833" y1="747.73767" x2="252.7072" y2="742.14081">
			<stop offset="0" stop-color="#B7B7B7"/>
			<stop offset="1" stop-color="#DBDAD9"/>
		</linearGradient>
	</defs>
	<path fill="url(#gradient_0)" transform="scale(0.362305 0.362305)" d="M288.468 731.817C289.94 733.066 292.212 735.421 294.103 735.703C296.583 739.829 298.444 743.945 297.25 748.894C296.614 751.528 294.612 753.226 292.343 754.499C282.699 759.91 269.523 760.046 259.084 756.849C255.442 755.733 252.196 753.873 249.394 751.292L250.465 750.251C251.43 749.608 251.784 750.07 252.75 750.413C259.442 748.945 266.531 750.444 273.356 748.579L277.297 747.58L278 747.33L279.5 746.82C283.098 745.299 286.637 742.215 287.887 738.423L288.073 737.75C288.677 735.762 288.519 733.874 288.468 731.817Z"/>
	<path fill="#F2F2F2" transform="scale(0.362305 0.362305)" d="M765.568 554.055C767.505 547.282 769.838 542.295 776.25 538.645C780.619 536.157 786.91 535.127 791.755 536.581C797.84 538.406 802.794 542.503 805.661 548.198C806.641 550.145 807.421 552.368 807.935 554.482L805.492 555.105C800.63 556.304 796.002 555.998 791.047 555.987C789.482 555.983 787.088 555.67 785.647 556.081L766.25 556.028L765.568 554.055Z"/>
	<defs>
		<linearGradient id="gradient_1" gradientUnits="userSpaceOnUse" x1="193.83009" y1="728.19006" x2="147.15921" y2="716.69934">
			<stop offset="0" stop-color="#C0BFBF"/>
			<stop offset="1" stop-color="#E9E8E8"/>
		</linearGradient>
	</defs>
	<path fill="url(#gradient_1)" transform="scale(0.362305 0.362305)" d="M183.678 707.453C185.994 707.466 186.501 707.789 188.25 709.492C189.874 711.072 192.982 717.721 194.499 718.353C194.667 718.93 195.33 720.524 195.144 721.018C195.251 725.818 195.765 729.616 192.011 733.357C185.995 739.352 175.745 739.852 167.75 739.684C160.558 739.534 151.715 738.271 146.579 732.75C145.079 731.138 144.176 729.058 143.569 726.965C145.019 726.831 146.245 726.964 147.662 727.25C152.742 728.276 158.123 728.276 163.25 727.489C171.002 726.299 178.837 721.345 183.231 714.772C184.857 712.339 184.199 710.116 183.678 707.453Z"/>
	<path fill="#F2F2F2" transform="scale(0.362305 0.362305)" d="M251.316 491.538C254.931 491.384 257.89 491.787 261.147 493.493C265.634 495.844 268.434 499.703 269.837 504.524C271.226 509.295 270.395 513.012 267.945 517.284C265.286 521.919 261.67 524.059 256.633 525.5C253.503 525.604 250.932 525.586 248 524.266C243.723 522.341 240.372 518.4 238.733 514.04C237.066 509.607 237.358 504.453 239.612 500.25C242.226 495.376 246.258 493.168 251.316 491.538Z"/>
	<path fill="#F2F2F2" transform="scale(0.362305 0.362305)" d="M64.7405 700.953C63.4765 699.5 62.135 697.761 61.6083 695.89C60.2661 691.123 61.607 685.947 64.0656 681.75C67.548 675.806 72.7583 672.236 79.25 670.293C85.5011 668.422 90.5252 669.918 96.3763 672.212C97.1401 670.554 97.3639 668.705 98.0218 667C98.932 664.641 100.813 662.597 102.75 661.002C108.63 656.161 115.553 655.617 122.831 656.377L129.301 658.487C129.093 660.924 129.057 663.132 129.646 665.529C130.084 667.312 130.988 669.155 131.073 670.983C128.758 675.519 123.967 678.718 119.191 680.291C115.276 681.581 111.716 682.088 107.619 682.076C110.225 685.599 112.125 690.063 113.907 694.075L113.419 694.485C111.425 696.238 110.235 699.545 108.395 701.629C103.563 707.103 92.4676 708.169 85.6406 707.989C78.2129 707.795 70.3562 706.048 64.7405 700.953Z"/>
	<path fill="#D4D4D4" transform="scale(0.362305 0.362305)" d="M122.831 656.377L129.301 658.487C129.093 660.924 129.057 663.132 129.646 665.529C130.084 667.312 130.988 669.155 131.073 670.983C128.758 675.519 123.967 678.718 119.191 680.291C115.276 681.581 111.716 682.088 107.619 682.076C110.225 685.599 112.125 690.063 113.907 694.075L113.419 694.485C111.425 696.238 110.235 699.545 108.395 701.629C103.563 707.103 92.4676 708.169 85.6406 707.989C78.2129 707.795 70.3562 706.048 64.7405 700.953C65.6071 699.869 66.4626 698.998 67.5 698.075L74.1441 698.473C81.7257 698.586 89.7987 695.82 95.2485 690.285C97.1681 688.335 100.579 684.429 101.263 681.822C101.676 680.249 101.485 678.159 101.483 676.531C100.725 675.933 100.049 675.355 99.3963 674.644C100.022 674.729 100.619 674.764 101.251 674.729C108.72 674.323 116.37 669.968 121.279 664.436C123.566 661.858 123.04 659.637 122.831 656.377Z"/>
	<path fill="#AFB3AC" transform="scale(0.362305 0.362305)" d="M640.568 399.945L641.446 400.13C643.34 400.521 645.253 400.549 647.141 401.015C653.106 402.487 658.251 406.324 661.668 411.387C665.304 416.773 667.254 423.825 667.001 430.306C666.928 432.172 666.111 438.259 666.199 438.359C666.938 439.206 670.488 440.448 671.636 441.238C677.345 445.17 682.176 451.566 683.824 458.333C684.668 461.798 684.576 465.489 684.575 469.03C694.897 468.927 703.075 470.144 710.769 477.75C716.112 483.031 718.647 490.802 718.555 498.217C718.532 500.028 716.501 508.902 716.817 509.498C720.504 509.47 724.005 509.304 727.579 510.316L728.363 510.526C735.47 512.497 741.463 517.728 745.01 524.123C746.281 526.414 747.089 528.689 747.573 531.25L747.719 531.984C748.447 535.856 747.995 539.429 747.075 543.212C748.137 544.917 749.946 548.515 751.446 549.651C752.068 550.122 754.645 550.468 755.505 550.706C759.092 551.699 762.414 553.094 765.25 555.548C765.3 555.34 765.616 554.239 765.568 554.055L766.25 556.028L785.647 556.081C787.088 555.67 789.482 555.983 791.047 555.987C796.002 555.998 800.63 556.304 805.492 555.105L807.935 554.482C808.274 560.947 806.903 566.937 802.274 571.774C799.799 574.361 796.106 576.355 792.567 576.971L788.997 577.75C789.191 578.91 789.364 580.035 789.75 581.151C796.811 580.238 803.087 580.089 809.192 584.552C813.099 587.409 816.897 592.838 817.464 597.75C817.883 601.375 817.918 605.302 817.595 608.941C824.709 609.017 830.621 610.099 835.752 615.554C837.032 616.914 838.041 618.414 838.993 620.012C838.289 622.182 837.44 624.341 837.254 626.627L837.899 626.998C837.008 629.129 837.761 631.392 838.622 633.55C840.005 637.019 843.207 640.222 846.75 641.46C850.039 642.61 857.374 642.298 860.75 641.467C861.993 641.161 863.161 640.891 864.444 640.814L869.623 641.659C878.021 643.475 885.625 647.348 890.448 654.697L893.175 659.886C898.947 660.521 903.215 661.485 907.91 665.154C908.785 665.837 910.167 667.23 911.166 667.578C912.242 667.954 914.778 667.639 916.027 667.726C921.582 668.111 927.208 671.573 930.599 675.96C933.581 679.818 935.459 684.833 934.888 689.75C934.529 692.839 933.267 695.903 930.71 697.795C924.545 702.356 913.269 703.853 905.721 703.792C902.997 703.77 900.24 703.068 897.539 703.245C897.565 708.674 897.41 712.603 893.22 716.62C887.015 722.569 875.803 723.352 867.722 722.923C862.271 722.634 857.263 720.754 852.38 718.454C849.392 724.481 845.999 727.164 839.621 729.269C830.539 732.266 815.519 732.793 806.691 728.333C803.975 726.96 801.877 724.755 799.847 722.54C794.326 727.765 789.101 728.183 781.931 729.723C780.915 729.942 780.812 729.561 780.623 730.685C779.946 734.706 778.68 738.045 775.27 740.528C768.388 745.538 756.675 746.55 748.568 745.171L746 744.618L745.158 744.428C740.132 743.263 736.24 740.979 732.135 737.982L731.735 738.721C728.902 743.904 724.695 747.474 718.892 749.053C713.822 750.433 708.658 750.52 703.488 749.75C701.503 749.454 699.003 748.614 697.031 749C694.581 753.021 690.488 755.698 686.085 757.175C676.603 760.355 663.356 760.461 654.303 755.695C650.395 753.638 647.99 750.103 646.711 745.979C644.88 744.91 638.57 745.784 636.177 745.855C636.991 742.851 638.418 738.532 637.686 735.471L637.495 734.75C635.887 727.973 632.953 724.485 628.162 719.532C642.881 712.724 654.332 705.647 661.399 690.403C663.992 684.809 665.362 679.64 665.152 673.438C664.725 660.798 656.813 657.297 648.746 649.451C646.581 647.346 644.157 644.744 643.25 641.792C642.427 639.112 642.802 635.789 644.057 633.313L644.487 632.5C649.651 622.61 658.236 614.909 665.51 606.59C686.114 583.029 701.288 554.21 698.794 522.109C697.871 510.242 693.74 495.848 684.381 487.923L683.669 487.329C679.821 484.077 675.609 481.974 670.949 480.121L661.872 476.828C661.214 476.574 659.546 476.134 659.075 475.687C658.136 474.795 657.391 471.969 656.994 470.77C656.059 467.948 655.111 465.177 653.57 462.609C649.311 455.511 643.262 450.048 637.728 444.01L639.178 438.572C639.766 436.453 639.972 434.562 640.001 432.371C640.151 421.004 635.363 413.894 627.803 406.08C631.173 404.816 638.555 402.755 640.568 399.945Z"/>
	<path fill="#D4D4D4" transform="scale(0.362305 0.362305)" d="M694.67 591.962C696.66 594.826 697.417 598.299 696.874 601.75C696.476 604.279 693.904 606.792 691.871 608.211C689.905 609.584 687.065 609.975 684.75 609.407C681.287 608.556 678.962 605.618 677.181 602.783L676.789 602.173L680.387 602.867C684.253 603.407 687.821 602.847 690.962 600.398C694.06 597.981 694.16 595.601 694.67 591.962Z"/>
	<path fill="#D4D4D4" transform="scale(0.362305 0.362305)" d="M695.379 691.883C698.39 693.845 700.87 696.614 701.689 700.217C702.163 702.306 701.654 704.45 700.42 706.194C698.656 708.688 695.458 711.024 692.373 711.469C686.668 712.292 681.531 710.872 677.08 707.25L675.837 706.223C681.766 705.074 689.952 705.2 694.162 700.164C696.199 697.729 695.627 694.782 695.379 691.883Z"/>
	<path fill="#F2F2F2" transform="scale(0.362305 0.362305)" d="M676.789 602.173C676.064 600.419 675.783 598.463 676.05 596.57C676.434 593.852 678.543 591.743 680.619 590.129C682.789 588.443 685.703 587.075 688.5 587.597C691.088 588.079 693.18 589.906 694.67 591.962C694.16 595.601 694.06 597.981 690.962 600.398C687.821 602.847 684.253 603.407 680.387 602.867L676.789 602.173Z"/>
	<path fill="#C4C6C1" transform="scale(0.362305 0.362305)" d="M863.715 659.25C864.874 659.018 865.927 658.91 867.099 659.173C870.222 659.872 872.955 661.638 874.581 664.42C875.746 666.414 875.716 668.676 875.138 670.859C874.275 674.117 871.556 675.787 868.782 677.344C867.231 677.668 865.647 678.029 864.061 677.769C861.984 677.429 860.164 675.919 858.954 674.25C857.467 672.2 856.794 669.592 857.275 667.091L857.401 666.5C857.56 665.732 857.707 664.974 858.023 664.25C859.062 661.876 861.391 660.184 863.715 659.25Z"/>
	<path fill="#C4C6C1" transform="scale(0.362305 0.362305)" d="M776.446 678.75C777.806 678.419 779.061 678.751 780.323 679.296C783.133 680.51 785.384 683.038 786.436 685.895C787.144 687.819 787.069 689.603 786.192 691.463C784.563 694.919 781.841 696.354 778.42 697.589C777.165 697.53 775.774 697.523 774.592 697.06C771.88 695.998 769.501 693.688 768.454 690.971C767.635 688.843 768.016 686.648 768.908 684.612C770.397 681.214 773.185 679.994 776.446 678.75Z"/>
	<path fill="#F2F2F2" transform="scale(0.362305 0.362305)" d="M675.837 706.223C674.702 704.868 673.9 703.544 673.476 701.805C672.862 699.284 673.609 696.433 675.099 694.378C676.829 691.994 680.257 690.024 683.135 689.5L683.75 689.397L684.384 689.268C688.339 688.519 692.115 689.695 695.379 691.883C695.627 694.782 696.199 697.729 694.162 700.164C689.952 705.2 681.766 705.074 675.837 706.223Z"/>
	<path fill="#C4C6C1" transform="scale(0.362305 0.362305)" d="M743.108 655.482C744.17 655.442 745.277 655.386 746.33 655.551C749.296 656.015 752.23 658.427 753.855 660.856C755.208 662.878 755.667 665.418 755.09 667.776C754.177 671.499 751.154 673.685 748.025 675.477C746.569 675.517 744.996 675.629 743.551 675.43C740.713 675.038 738.645 673.307 737.097 670.977C735.618 668.751 735.026 665.904 735.671 663.281C736.655 659.279 739.745 657.348 743.108 655.482Z"/>
	<path fill="#C4C6C1" transform="scale(0.362305 0.362305)" d="M785.207 616.488C786.245 616.431 787.326 616.374 788.352 616.572C791.449 617.168 795.095 619.592 796.683 622.319C797.997 624.575 797.71 627.791 796.947 630.182C795.87 633.554 793.732 635.158 790.634 636.664C788.648 636.847 786.714 636.927 784.75 636.488C782.281 635.937 780.873 634.358 779.664 632.23C777.952 629.216 777.093 626.017 778.233 622.58C779.322 619.297 782.316 617.873 785.207 616.488Z"/>
	<path fill="#C4C6C1" transform="scale(0.362305 0.362305)" d="M815.615 656.02C817.995 656.011 822.04 656.009 823.926 657.612L824.48 658.25C825.426 659.33 826.424 660.475 826.998 661.808C827.93 663.974 827.823 667.781 826.896 669.921C825.451 673.26 822.738 674.591 819.524 675.862C817.662 675.986 815.808 675.915 814 675.391C811.535 674.676 809.405 672.376 808.368 670.112C807.35 667.89 807.031 664.932 807.957 662.625C809.393 659.045 812.243 657.458 815.615 656.02Z"/>
	<path fill="#C4C6C1" transform="scale(0.362305 0.362305)" d="M702.546 643.073C703.877 643.084 705.243 643.27 706.547 643.532C709.087 644.044 711.751 646.035 713.08 648.259C714.551 650.719 714.806 653.553 713.935 656.263C712.773 659.877 709.831 661.799 706.593 663.375C705.216 663.46 703.523 663.71 702.182 663.334C698.892 662.413 696.898 660.676 695.388 657.604C694.316 655.423 693.974 651.911 694.912 649.625C696.382 646.047 699.081 644.411 702.546 643.073Z"/>
	<path fill="#C4C6C1" transform="scale(0.362305 0.362305)" d="M743.256 597.75C744.932 597.431 746.113 597.479 747.75 598.003C750.909 599.014 753.396 601.424 754.809 604.373C755.794 606.429 755.956 609.992 755.114 612.109C753.535 616.079 750.557 617.9 746.841 619.505C745.696 619.557 744.51 619.603 743.385 619.346C740.358 618.652 737.926 615.642 736.475 613.058C735.017 610.461 734.59 608.372 735.491 605.5C736.756 601.463 739.623 599.513 743.256 597.75Z"/>
	<path fill="#C4C6C1" transform="scale(0.362305 0.362305)" d="M730.882 540.079C733.159 539.985 735.198 540.011 737.25 541.134C739.722 542.486 742.001 545.514 742.737 548.227C743.478 550.958 743.093 553.942 741.653 556.37C739.636 559.768 736.29 561.44 732.626 562.49C730.802 562.571 729.038 562.348 727.356 561.585C724.595 560.331 721.733 557.586 720.841 554.627C719.934 551.62 720.821 548.174 722.459 545.565C724.561 542.219 727.221 541.028 730.882 540.079Z"/>
	<defs>
		<linearGradient id="gradient_2" gradientUnits="userSpaceOnUse" x1="666.47662" y1="644.0166" x2="653.84772" y2="626.25281">
			<stop offset="0" stop-color="#C7C7C5"/>
			<stop offset="1" stop-color="#E9EAE8"/>
		</linearGradient>
	</defs>
	<path fill="url(#gradient_2)" transform="scale(0.362305 0.362305)" d="M658.709 623.074C660.978 622.791 663.294 622.816 665.41 623.81C668.079 625.064 670.04 628.422 670.901 631.136C671.959 634.476 671.739 638.412 670.019 641.5C667.931 645.248 665.063 646.473 661.11 647.524L660.75 647.534C659.785 647.566 658.693 647.644 657.75 647.407C654.648 646.628 650.559 642.576 649.352 639.658C648.318 637.159 648.133 634.036 649.122 631.5C650.871 627.013 654.55 624.891 658.709 623.074Z"/>
	<path fill="#F2F2F2" transform="scale(0.362305 0.362305)" d="M646.6 741.931C645.849 739.208 646.584 736.083 647.823 733.608C650.121 729.018 655.656 725.672 660.374 724.268C669.816 721.459 677.611 723.831 686.001 728.259C684.029 733.184 677.958 737.105 673.175 739.102C668.43 741.083 663.367 742.026 658.295 742.675C654.206 743.199 650.578 743.011 646.6 741.931Z"/>
	<path fill="#D4D4D4" transform="scale(0.362305 0.362305)" d="M807.935 554.482C808.274 560.947 806.903 566.937 802.274 571.774C799.799 574.361 796.106 576.355 792.567 576.971C787.667 577.08 780.764 576.123 776.445 573.711L776 573.459L775.182 573.042C769.528 569.948 767.443 562.665 765.935 556.946C769.435 556.93 782.75 557.739 785.145 556.455L785.647 556.081C787.088 555.67 789.482 555.983 791.047 555.987C796.002 555.998 800.63 556.304 805.492 555.105L807.935 554.482Z"/>
	<path fill="#D4D4D4" transform="scale(0.362305 0.362305)" d="M686.001 728.259C689.854 730.467 695.02 733.313 696.133 737.995C696.943 741.403 696.897 745.481 697.031 749C694.581 753.021 690.488 755.698 686.085 757.175C676.603 760.355 663.356 760.461 654.303 755.695C650.395 753.638 647.99 750.103 646.711 745.979C647.148 744.94 646.704 743.078 646.6 741.931C650.578 743.011 654.206 743.199 658.295 742.675C663.367 742.026 668.43 741.083 673.175 739.102C677.958 737.105 684.029 733.184 686.001 728.259Z"/>
	<path fill="#F2F2F2" transform="scale(0.362305 0.362305)" d="M299.783 482.081L299.428 481.552C293.69 472.799 292.507 462.824 294.599 452.744C296.219 444.942 301.033 437.63 307.756 433.324C317.705 426.949 328.345 428.83 339.18 431.278C340.032 426.263 341.945 420.722 344.983 416.579C351.807 407.273 361.405 404.127 372.312 402.329C367.167 396.2 363.952 390.397 364.083 382.153C364.185 375.684 367.046 368.97 371.762 364.521C378.107 358.535 386.286 357.879 394.563 358.116C395.463 354.917 396.215 351.638 397.704 348.648C401.767 340.486 408.865 337.227 417.546 336.11C417.863 336.069 419.656 335.935 419.751 335.836C420.363 335.197 421.317 329.735 421.774 328.573C422.64 326.373 424.139 324.186 425.753 322.463C430.356 317.552 436.087 316.943 442.397 316.726C443.383 307.559 445.244 298.446 451.846 291.527C458.5 284.555 466.753 282.263 476.148 282.102C476.62 279.498 477.024 276.704 478.025 274.25C479.193 271.385 481.813 268.689 483.669 266.227C489.129 258.984 495.828 248.357 504.481 244.782C508.418 243.155 512.065 242.851 516.028 244.571C528.63 251.43 536.17 266.686 540.029 279.953L540.316 280.984L540.98 281.174C549.544 283.683 556.576 288.568 560.884 296.545C563.497 301.384 565.648 307.636 565.563 313.206C574.681 311.929 582.834 312.875 590.354 318.655C596.311 323.232 601.755 330.894 602.462 338.564C602.821 342.459 602.45 346.436 601.638 350.247C610.275 353.149 618.589 357.917 622.877 366.383C624.444 369.477 625.057 373.02 625.357 376.453C631.417 378.427 636.581 381.021 639.622 387.012C641.138 390 642.08 396.132 640.843 399.335L640.568 399.945C638.555 402.755 631.173 404.816 627.803 406.08C635.363 413.894 640.151 421.004 640.001 432.371C639.972 434.562 639.766 436.453 639.178 438.572L637.728 444.01C643.262 450.048 649.311 455.511 653.57 462.609C655.111 465.177 656.059 467.948 656.994 470.77C657.391 471.969 658.136 474.795 659.075 475.687C659.546 476.134 661.214 476.574 661.872 476.828L670.949 480.121C675.609 481.974 679.821 484.077 683.669 487.329L684.381 487.923C693.74 495.848 697.871 510.242 698.794 522.109C701.288 554.21 686.114 583.029 665.51 606.59C658.236 614.909 649.651 622.61 644.487 632.5L644.057 633.313C642.802 635.789 642.427 639.112 643.25 641.792C644.157 644.744 646.581 647.346 648.746 649.451C656.813 657.297 664.725 660.798 665.152 673.438C665.362 679.64 663.992 684.809 661.399 690.403C654.332 705.647 642.881 712.724 628.162 719.532C632.953 724.485 635.887 727.973 637.495 734.75L637.686 735.471C638.418 738.532 636.991 742.851 636.177 745.855C630.535 752.446 621.026 753.683 612.875 754.287L600.912 754.019C594.788 762.222 588.231 766.33 578.016 767.798C568.725 769.133 556.522 766.842 548.945 761.109C546.474 759.239 544.171 756.88 542.937 754.017C537.463 753.725 532.167 754.153 526.692 753.368C524.394 755.31 521.968 757.344 519.267 758.701C510.597 763.056 497.99 763.655 488.455 762.847C482.218 762.319 475.991 761.297 470.478 758.208C469.395 757.199 468.079 756.097 467.329 754.81C465.879 752.32 466.533 749.523 467.186 746.911L454.683 749.893C452.563 750.346 449.714 750.399 447.951 751.671C445.633 750.582 443.038 750.867 440.667 751.692C439.09 752.24 437.893 752.995 436.448 753.75C436.094 753.935 435.747 753.997 435.37 754.084C431.799 752.852 426.557 753.766 422.703 753.506C419.764 753.308 416.887 752.693 413.959 752.439L413.48 752.83C403.888 760.575 390.738 762.358 378.777 761.026C377.289 760.86 375.904 760.566 374.459 760.174L373.679 759.97C370.636 759.149 368.062 757.905 365.487 756.098L365.408 755.921C364.543 755.306 363.63 754.551 362.935 753.75C360.833 751.33 360.987 747.854 361.19 744.886C357.69 745.594 354.177 746.299 350.62 746.656C346.313 747.088 341.766 746.234 337.859 748.25C332.637 750.945 327.207 752.076 321.372 751.992C315.378 752.19 307.604 751.008 302.726 747.336C300.145 745.394 297.94 742.43 297.509 739.17C297.228 738.205 297.014 737.283 296.881 736.288L296.75 735.272L294.103 735.703C292.212 735.421 289.94 733.066 288.468 731.817C288.519 733.874 288.677 735.762 288.073 737.75L287.887 738.423C286.637 742.215 283.098 745.299 279.5 746.82L278 747.33L277.297 747.58L273.356 748.579C266.531 750.444 259.442 748.945 252.75 750.413C251.784 750.07 251.43 749.608 250.465 750.251L249.394 751.292C247.728 749.128 246.904 747.064 246.326 744.439L246.175 743.716C241.035 743.481 234.87 743.504 230.25 741C226.364 738.894 224.196 735.687 222.894 731.552C220.5 732.35 217.708 732.351 215.196 732.468C210.403 732.691 205.254 733.003 200.554 731.883L195.144 721.018C195.33 720.524 194.667 718.93 194.499 718.353C192.982 717.721 189.874 711.072 188.25 709.492C186.501 707.789 185.994 707.466 183.678 707.453C184.199 710.116 184.857 712.339 183.231 714.772C178.837 721.345 171.002 726.299 163.25 727.489C158.123 728.276 152.742 728.276 147.662 727.25C146.245 726.964 145.019 726.831 143.569 726.965C142.931 724.863 143.087 723.146 143.265 720.993C135.426 721.04 127.094 721.095 120.001 717.301C115.98 715.15 114.117 713.001 112.857 708.595C112.266 703.345 113.561 699.374 116.439 695.031L113.907 694.075C112.125 690.063 110.225 685.599 107.619 682.076C111.716 682.088 115.276 681.581 119.191 680.291C123.967 678.718 128.758 675.519 131.073 670.983C130.988 669.155 130.084 667.312 129.646 665.529C129.057 663.132 129.093 660.924 129.301 658.487C131.682 654.754 133.6 650.664 136.346 647.187C141.842 641.813 148.156 641.035 155.314 639.623C155.38 636.122 155.64 633.048 156.983 629.75C159.811 622.806 166.334 620.363 173.332 621.271C174.581 621.433 176.807 622.154 177.917 621.996C178.411 621.926 179.634 621.047 180.104 620.786L187.725 616.439C190.563 614.926 193.522 613.703 196.492 612.476L193.385 608.013C191.736 605.131 191.867 603.207 192.835 600.183C194.1 596.227 196.708 592.709 200.5 590.872C204.24 589.061 208.087 589.864 211.81 591.22C213.014 591.659 217.419 589.373 218.833 588.806C219.182 586.282 219.533 583.798 220.332 581.368C223.232 572.543 230.552 567.669 238.436 563.689C237.422 560.74 236.24 557.924 236.767 554.761C237.201 552.152 237.668 549.852 238.661 547.388C244.116 533.846 262.15 529.614 274.201 524.375L273.439 521.527L272.807 519.12C271.216 512.424 272.233 507.245 275.973 501.391C279.671 495.603 286.122 491.804 292.753 490.437L293.692 490.25C297.189 489.536 300.621 489.477 304.178 489.386C304.184 488.286 300.507 483.458 299.783 482.081Z"/>
	<path fill="#AFB3AC" transform="scale(0.362305 0.362305)" d="M286.072 728.117C290.391 727.738 294.687 728.557 298.987 728.115C297.985 731.152 297.181 733.827 297.4 737.042L297.509 739.17C297.228 738.205 297.014 737.283 296.881 736.288L296.75 735.272L294.103 735.703C292.212 735.421 289.94 733.066 288.468 731.817C287.868 730.376 287.032 729.323 286.072 728.117Z"/>
	<path fill="#D4D4D4" transform="scale(0.362305 0.362305)" d="M529.436 281.982C530.821 284.564 532.04 288.027 531.956 290.994C531.898 293.034 531.088 294.902 529.547 296.25C528.132 297.487 527.507 297.331 525.755 297.25L524.918 296.756C523.728 295.944 523.282 295.375 523.073 294L524.227 292.75C527.467 289.29 528.447 286.46 529.436 281.982Z"/>
	<path fill="#D4D4D4" transform="scale(0.362305 0.362305)" d="M628.321 471.316C628.98 474.274 628.222 477.363 628.023 480.353C627.834 483.189 627.978 486.132 628.011 488.977C625.293 489.364 621.964 489.643 619.322 488.716C616.822 487.838 613.132 485.125 611.868 482.767L613.02 482.082C614.459 481.998 615.887 481.919 617.275 481.497C622.893 479.788 625.637 476.24 628.321 471.316Z"/>
	<path fill="#D4D4D4" transform="scale(0.362305 0.362305)" d="M323.031 632.272L322.64 633C320.735 636.419 318.143 638.094 314.436 639.054C308.866 640.496 303.726 637.551 299.133 634.768C299.965 634.371 299.629 634.45 300.493 634.332C304.21 633.827 307.908 633.087 311.5 631.984C314.958 630.922 319.431 628.084 322.914 628.19L323.031 632.272Z"/>
	<path fill="#D4D4D4" transform="scale(0.362305 0.362305)" d="M602.238 519.25C602.929 519.422 603.314 519.793 603.778 520.326C606.069 522.957 608.015 528.35 607.42 531.75C606.87 534.894 603.352 537.36 600.978 539.18L597.355 537.843C593.659 536.28 591.524 534.422 588.821 531.539C596.152 528.764 598.868 526.434 602.238 519.25Z"/>
	<path fill="#D4D4D4" transform="scale(0.362305 0.362305)" d="M571.429 346.944L573.027 349.25C575.737 353.542 576.771 360.395 575.446 365.25C574.973 366.985 573.549 369.415 571.717 370C569.329 370.763 566.448 369.661 564.295 368.713C561.476 367.229 559.023 365.367 556.486 363.457C558.762 362.042 561.643 361.877 564 360.487C569.07 357.499 570.306 352.253 571.429 346.944Z"/>
	<path fill="#D4D4D4" transform="scale(0.362305 0.362305)" d="M319.488 660.471C322.937 661.055 324.707 662.261 326.75 665.153C327.964 666.871 328.473 669.713 327.899 671.75C327.277 673.962 324.699 677.147 322.625 678.14C320.545 679.135 317.767 678.571 315.709 677.756C313.054 676.705 310.223 673.963 309.237 671.25C308.761 669.938 308.235 668.026 309.004 666.75L309.999 665.479C313.986 664.995 316.524 662.946 319.488 660.471Z"/>
	<path fill="#D4D4D4" transform="scale(0.362305 0.362305)" d="M585.74 478.25L585.833 478.304C587.539 479.25 588.724 481.337 589.628 483.016C591.601 486.679 592.94 491.154 591.519 495.275C590.729 497.565 589.033 499.757 586.71 500.642C584.06 501.652 580.543 500.98 578.019 500.002C574.644 498.096 572.269 495.652 569.608 492.884C571.886 492.404 574.394 491.99 576.5 490.988C581.587 488.568 583.939 483.229 585.74 478.25Z"/>
	<path fill="#D4D4D4" transform="scale(0.362305 0.362305)" d="M534.486 528.25L535.338 528.23C539.833 532.151 543.08 537.667 543.352 543.75C543.494 546.926 541.802 549.905 539.558 552.058C537.004 554.506 534.966 554.81 531.579 554.789L527.458 552.673C525.964 551.728 522.104 548.709 521.721 547.062C525.032 545.707 528.235 544.495 530.69 541.761C534.299 537.742 534.611 533.344 534.486 528.25Z"/>
	<path fill="#D4D4D4" transform="scale(0.362305 0.362305)" d="M245.894 661.673C249.116 662.22 252.205 664.869 254.117 667.469C256.167 670.257 256.382 673.671 255.859 677C255.293 680.599 253.53 684.268 250.415 686.335C247.891 688.011 244.731 688.296 241.84 687.602C238.066 686.697 233.992 684.767 231.787 681.447L231.563 681.053L236.25 680.849C239.38 680.364 242.788 677.484 244.455 674.913C247.326 670.487 247.056 666.617 245.894 661.673Z"/>
	<path fill="#D4D4D4" transform="scale(0.362305 0.362305)" d="M497.009 548.036C499.981 550.486 503.64 556.409 503.982 560.245C504.254 563.304 503.607 565.862 502.667 568.745L500.515 572.765C497.839 574.05 494.74 575.28 491.75 575.459C486.128 575.796 480.761 571.49 477.025 567.806L479.293 567.965C484.427 568.108 488.391 566.015 492.031 562.578C496.245 558.601 496.885 553.522 497.009 548.036Z"/>
	<path fill="#C4C6C1" transform="scale(0.362305 0.362305)" d="M477.46 661.016C479.958 662.17 482.798 663.482 484.434 665.796C486.06 668.098 486.47 671.779 485.809 674.5C485.198 677.018 483.335 679.56 481.116 680.892C477.121 683.29 473.53 682.963 469.15 681.771C466.207 680.321 463.174 677.669 461.783 674.653L459.959 670.831C463.456 672.015 466.718 673.155 470.281 671.314C474.688 669.037 476.059 665.469 477.46 661.016Z"/>
	<path fill="#D4D4D4" transform="scale(0.362305 0.362305)" d="M521.059 569.327C524.827 571.485 528.199 575.515 529.31 579.766L529.588 581L529.726 581.571C530.533 585.151 530.03 588.78 528.035 591.874C526.487 594.274 523.908 596.611 521.001 597.079C516.869 597.744 513.437 595.854 510.298 593.382C508.634 592.071 506.57 590.168 505.755 588.203L506.459 587.564C511.928 586.284 516.077 584.506 519.469 579.75C521.731 576.579 521.609 572.971 521.059 569.327Z"/>
	<path fill="#D4D4D4" transform="scale(0.362305 0.362305)" d="M410.075 616.948L411.25 615.538C413.875 615.932 416.339 618.349 417.859 620.462C420.112 623.595 421.277 627.341 420.619 631.192C419.981 634.924 417.998 638.219 414.787 640.29C411.803 642.214 407.425 642.376 404.085 641.395C399.277 639.982 395.266 635.675 393.024 631.355L392.763 630.802L393.316 630.903L394.217 631.044L395.48 631.279C398.228 631.655 401.443 630.275 403.591 628.617C407.508 625.594 409.492 621.803 410.075 616.948Z"/>
	<path fill="#D4D4D4" transform="scale(0.362305 0.362305)" d="M473.295 594.912C475.954 595.409 479.6 599.37 481.1 601.604C483.541 605.24 485.31 609.28 484.422 613.75C483.763 617.068 480.567 621.013 477.622 622.72C475.243 624.099 472.066 624.369 469.44 623.64C464.091 622.154 459.491 617.185 456.925 612.481C458.72 612.51 460.82 612.676 462.568 612.245C466.092 611.375 470.31 607.743 472.227 604.683C474.332 601.322 474.168 598.661 473.295 594.912Z"/>
	<path fill="#D4D4D4" transform="scale(0.362305 0.362305)" d="M576.426 560.473L579.582 563.457C583.638 567.876 587.325 573.909 586.999 580.053C586.767 584.429 585.127 588.895 581.74 591.796C578.996 594.146 576.271 594.31 572.794 594.013C568.456 591.98 565.047 589.494 561.46 586.328C564.963 584.798 567.93 583.457 570.636 580.629C576.213 574.799 576.58 568.082 576.426 560.473Z"/>
	<path fill="#D4D4D4" transform="scale(0.362305 0.362305)" d="M354.661 624.849C357.039 625.317 359.835 629.174 361.109 631.127C363.236 634.387 364.327 638.562 363.412 642.417C362.548 646.052 359.95 649.709 356.645 651.494C353.171 653.37 348.736 654.093 344.93 652.899C339.429 651.171 336.508 647.288 333.436 642.787C338.045 643.226 341.589 642.52 345.561 640.06C351.511 636.375 353.229 631.278 354.661 624.849Z"/>
	<path fill="#D4D4D4" transform="scale(0.362305 0.362305)" d="M150.717 690.525C152.225 690.186 153.073 690.926 154.341 691.724C155.37 692.371 156.35 692.994 157.21 693.862C159.663 696.003 162.462 698.212 164.069 701.094L157.939 703.365C151.666 706.775 146.389 711.555 144.037 718.5L143.527 720.608L143.265 720.993C135.426 721.04 127.094 721.095 120.001 717.301C115.98 715.15 114.117 713.001 112.857 708.595C114.548 708.603 115.484 708.923 117.004 709.671L117.5 709.922C121.264 708.853 125.464 711.112 129.5 710.39C137.706 708.92 145.899 703.649 150.632 696.81C151.985 694.854 151.177 692.664 150.717 690.525Z"/>
	<path fill="#AFB3AC" transform="scale(0.362305 0.362305)" d="M321.372 751.992C323.311 750.925 324.609 750.693 326.827 750.733L327.5 750.755L328.25 750.255C328.89 750.351 329.359 750.463 329.986 750.229L332.75 749.255C333.981 748.872 335.093 748.467 336.251 747.887L337.002 747.503C338.984 746.532 339.637 745.769 340.644 743.751L341.755 741.5C342.343 740.504 342.251 740.607 342.255 739.5C342.943 738.464 343.099 737.235 342.755 736C342.508 735.112 342.471 734.356 342.255 733.5C341.866 731.96 341.656 731.699 342.038 730.038C342.788 729.815 343.714 729.562 344.5 729.755L346.5 730.255L347.337 730.578L349.25 730.755C350.644 731.242 351.192 731.252 352.75 731.255C354.004 732.083 356.202 731.753 357.736 731.755L363.144 726.285C366.026 722.795 369.405 720.084 372.475 716.852C372.782 716.529 374.598 714.984 374.75 714.755C375.114 714.205 374.43 713.172 375.502 712.503C375.862 712.278 376.389 712.477 376.75 712.255C377.794 711.612 379.096 709.928 380.001 709.027C383.248 705.793 387.274 702.097 389.845 698.321L389.298 697.894C388.386 697.132 387.694 696.559 386.626 696.015C385.747 695.569 384.945 695.107 384.125 694.554C386.318 694.758 389.048 696.429 390.584 698.023C394.329 701.914 396.093 707.725 395.873 713.036L395.723 713.583C394.542 718.168 394.598 721.102 390.566 724.169C383.492 722.871 378.924 723.454 372.742 727.651C368.382 730.611 365.061 735.178 362.955 739.978C362.253 741.577 361.953 743.343 361.19 744.886C357.69 745.594 354.177 746.299 350.62 746.656C346.313 747.088 341.766 746.234 337.859 748.25C332.637 750.945 327.207 752.076 321.372 751.992Z"/>
	<path fill="#D4D4D4" transform="scale(0.362305 0.362305)" d="M209.842 690.506C212.779 690.613 215.418 692.999 217.322 695.091C219.951 697.979 221.65 701.527 224.118 704.518C224.32 704.762 225.255 706.01 225.54 706.131C226.128 706.381 227.513 706.293 228.238 706.353L236.118 707.119C231.734 710.851 227.499 714.695 224.935 719.953C224.218 721.972 223.384 724.115 223.125 726.25C222.936 727.811 223.375 730.151 222.894 731.552C220.5 732.35 217.708 732.351 215.196 732.468C210.403 732.691 205.254 733.003 200.554 731.883L195.144 721.018C195.33 720.524 194.667 718.93 194.499 718.353C192.982 717.721 189.874 711.072 188.25 709.492C186.501 707.789 185.994 707.466 183.678 707.453L182.058 705.574L182.583 705.269C184.305 704.54 186.732 704.783 188.442 705.461C189.406 708.108 192.149 709.644 194.5 710.881C197.387 711.052 199.808 711.174 202.442 709.781C206.524 707.622 210.239 703.6 211.468 699.086C212.367 695.785 211.415 693.401 209.842 690.506Z"/>
	<path fill="#D4D4D4" transform="scale(0.362305 0.362305)" d="M259.468 708.664L254.034 705.908C255.425 703.978 256.864 701.88 258.605 700.25C261.892 697.172 266.026 695.619 270.5 695.933C276.58 696.361 281.211 700.664 285.001 705.01C290.222 703.93 296.023 704.233 301.379 703.875C312.495 703.133 323.623 701.874 334.779 702.028C331.296 707.058 329.565 711.061 328.323 717.047L327.709 716.838C321.7 714.834 316.078 713.718 310.214 716.701C307.323 718.172 303.813 720.802 302.03 723.505L298.987 728.115C294.687 728.557 290.391 727.738 286.072 728.117L286.014 728.124L284.3 726.45C282.628 724.979 280.882 723.256 278.871 722.271L278.25 721.986C274.929 720.436 270.825 720.88 267.229 720.932C264.877 715.931 263.468 712.582 259.468 708.664Z"/>
	<path fill="#C4C6C1" transform="scale(0.362305 0.362305)" d="M565.563 313.206C574.681 311.929 582.834 312.875 590.354 318.655C596.311 323.232 601.755 330.894 602.462 338.564C602.821 342.459 602.45 346.436 601.638 350.247C610.275 353.149 618.589 357.917 622.877 366.383C624.444 369.477 625.057 373.02 625.357 376.453C631.417 378.427 636.581 381.021 639.622 387.012C641.138 390 642.08 396.132 640.843 399.335L640.568 399.945C638.555 402.755 631.173 404.816 627.803 406.08C635.363 413.894 640.151 421.004 640.001 432.371C639.972 434.562 639.766 436.453 639.178 438.572L637.728 444.01C643.262 450.048 649.311 455.511 653.57 462.609C655.111 465.177 656.059 467.948 656.994 470.77C657.391 471.969 658.136 474.795 659.075 475.687C659.546 476.134 661.214 476.574 661.872 476.828L670.949 480.121C675.609 481.974 679.821 484.077 683.669 487.329L684.381 487.923C693.74 495.848 697.871 510.242 698.794 522.109C701.288 554.21 686.114 583.029 665.51 606.59C658.236 614.909 649.651 622.61 644.487 632.5L644.057 633.313C642.802 635.789 642.427 639.112 643.25 641.792C644.157 644.744 646.581 647.346 648.746 649.451C656.813 657.297 664.725 660.798 665.152 673.438C665.362 679.64 663.992 684.809 661.399 690.403C654.332 705.647 642.881 712.724 628.162 719.532C632.953 724.485 635.887 727.973 637.495 734.75L637.686 735.471C638.418 738.532 636.991 742.851 636.177 745.855C630.535 752.446 621.026 753.683 612.875 754.287L600.912 754.019C594.788 762.222 588.231 766.33 578.016 767.798C568.725 769.133 556.522 766.842 548.945 761.109C546.474 759.239 544.171 756.88 542.937 754.017C537.463 753.725 532.167 754.153 526.692 753.368C524.394 755.31 521.968 757.344 519.267 758.701C510.597 763.056 497.99 763.655 488.455 762.847C482.218 762.319 475.991 761.297 470.478 758.208C469.395 757.199 468.079 756.097 467.329 754.81C465.879 752.32 466.533 749.523 467.186 746.911L454.683 749.893C452.563 750.346 449.714 750.399 447.951 751.671C445.633 750.582 443.038 750.867 440.667 751.692C439.09 752.24 437.893 752.995 436.448 753.75C436.094 753.935 435.747 753.997 435.37 754.084C431.799 752.852 426.557 753.766 422.703 753.506C419.764 753.308 416.887 752.693 413.959 752.439L413.48 752.83C403.888 760.575 390.738 762.358 378.777 761.026C377.289 760.86 375.904 760.566 374.459 760.174L373.679 759.97C370.636 759.149 368.062 757.905 365.487 756.098L365.408 755.921C364.543 755.306 363.63 754.551 362.935 753.75C360.833 751.33 360.987 747.854 361.19 744.886C361.953 743.343 362.253 741.577 362.955 739.978C365.061 735.178 368.382 730.611 372.742 727.651C378.924 723.454 383.492 722.871 390.566 724.169C394.598 721.102 394.542 718.168 395.723 713.583L395.873 713.036C401.613 713.045 407.525 712.23 413.246 711.675C448.75 708.236 481.736 697.381 512.885 680.09C527.144 672.174 541.248 662.865 552.918 651.389C559.921 644.503 566.088 637.529 571.513 629.328C577.667 620.026 582.633 609.744 588.336 600.13C595.482 588.083 603.832 576.781 610.605 564.482C622.943 542.08 627.808 514.325 628.011 488.977C627.978 486.132 627.834 483.189 628.023 480.353C628.222 477.363 628.98 474.274 628.321 471.316C627.514 469.225 627.285 466.03 626.864 463.779L623.892 442.748C621.55 442.887 618.882 443.226 616.571 442.806C611.029 441.799 606.518 436.595 603.411 432.248C606.299 432 609.251 431.789 611.993 430.785C615.933 429.342 619.03 426.014 620.655 422.194C621.686 419.772 622.771 415.161 621.25 412.761C620.134 411.001 618.766 409.772 618.046 407.733L613.835 395.071C611.259 395.973 609.038 396.675 606.25 396.481C600.053 396.048 596.836 391.952 593.017 387.614C595.283 387.087 597.72 386.818 599.826 385.797C604.08 383.735 608.286 380.012 609.75 375.398C610.583 372.773 610.669 369.774 609.25 367.321C608.007 365.172 605.219 363.988 602.896 363.447L602.25 363.308C598.361 362.446 595.514 364.251 591.857 365.061L585.612 354.244C582.737 349.77 579.093 345.877 576.905 340.966C574.682 335.976 573.837 330.457 571.545 325.5C569.588 321.268 566.84 317.768 565.563 313.206Z"/>
	<path fill="#AFB3AC" transform="scale(0.362305 0.362305)" d="M526.692 753.368L528.26 749.002C533.712 749.105 538.266 748.591 543.57 747.553L542.937 754.017C537.463 753.725 532.167 754.153 526.692 753.368Z"/>
	<path fill="#D4D4D4" transform="scale(0.362305 0.362305)" d="M645.438 532.197C646.709 534.748 647.046 538.684 646.25 541.446C645.6 543.699 643.555 545.692 641.537 546.792C639.791 547.745 637.686 547.714 635.825 547.12C633.184 546.277 631.458 544.592 629.76 542.462C632.404 542.527 635.512 542.434 638 541.465C640.905 540.335 643.049 538.092 644.194 535.232L645.438 532.197Z"/>
	<path fill="#D4D4D4" transform="scale(0.362305 0.362305)" d="M597.195 665.566C598.919 668.202 600.591 670.889 599.859 674.18C599.209 677.106 596.83 680.427 594.114 681.75C591.823 682.866 588.039 682.52 585.75 681.474C584.606 680.952 583.585 680.105 582.755 679.175C585.588 678.804 588.821 678.538 591.259 676.919C595.521 674.09 596.397 670.264 597.195 665.566Z"/>
	<path fill="#D4D4D4" transform="scale(0.362305 0.362305)" d="M634.712 581.067C636.353 583.345 637.07 585.605 637.72 588.312C636.652 591.523 635.233 594.926 632.095 596.646C630.313 597.624 628.059 597.749 626.157 597.064C623.758 596.201 621.614 594.562 620.092 592.543C623.498 592.603 626.852 592.527 629.75 590.486C633.167 588.078 633.947 584.9 634.712 581.067Z"/>
	<path fill="#D4D4D4" transform="scale(0.362305 0.362305)" d="M686.8 503.256C688.041 506.125 689.255 509.436 688.186 512.576C687.261 515.295 684.295 517.418 681.759 518.476C680.125 519.158 678.381 519.313 676.75 518.555C674.854 517.674 673.265 516.385 671.806 514.911C677.104 513.429 682.147 511.151 685.034 506.256L686.8 503.256Z"/>
	<path fill="#D4D4D4" transform="scale(0.362305 0.362305)" d="M684.354 541.567C685.459 545.181 686.266 549.522 684.653 553.096L684.412 553.639C683.209 556.202 680.679 557.863 678.04 558.724C675.867 559.434 672.868 558.534 670.861 557.422C669.372 556.596 668.133 555.513 667.057 554.206C669.578 553.887 672.369 553.276 674.75 552.373C679.938 550.404 682.228 546.375 684.354 541.567Z"/>
	<path fill="#D4D4D4" transform="scale(0.362305 0.362305)" d="M620.802 628.365C622.433 631.688 623.84 637.145 622.614 640.757C621.819 643.1 619.684 645.703 617.409 646.727C615.107 647.763 612.699 647.621 610.392 646.689C608.135 645.777 606.211 644.085 604.459 642.433C607.829 642.54 610.485 642.534 613.354 640.582C618.147 637.323 619.809 633.849 620.802 628.365Z"/>
	<path fill="#F2F2F2" transform="scale(0.362305 0.362305)" d="M671.806 514.911C670.396 512.533 668.934 510.987 669.04 508C669.152 504.826 670.484 502.617 672.75 500.485C674.551 498.79 676.531 498.262 678.982 498.411C682.586 498.629 684.614 500.64 686.8 503.256L685.034 506.256C682.147 511.151 677.104 513.429 671.806 514.911Z"/>
	<path fill="#F2F2F2" transform="scale(0.362305 0.362305)" d="M629.76 542.462C629.22 541.967 628.696 541.497 628.25 540.912C626.969 539.233 626.71 537.306 627.008 535.25C627.377 532.717 629.8 530.243 631.76 528.782C633.921 527.171 636.849 526.456 639.524 526.97C642.424 527.528 643.963 529.894 645.438 532.197L644.194 535.232C643.049 538.092 640.905 540.335 638 541.465C635.512 542.434 632.404 542.527 629.76 542.462Z"/>
	<path fill="#F2F2F2" transform="scale(0.362305 0.362305)" d="M620.092 592.543L619.413 591.662C617.917 589.652 616.673 587.311 617.173 584.734C617.776 581.636 620.233 579.185 622.784 577.515C624.559 576.354 626.839 575.884 628.914 576.351C631.659 576.968 633.243 578.805 634.712 581.067C633.947 584.9 633.167 588.078 629.75 590.486C626.852 592.527 623.498 592.603 620.092 592.543Z"/>
	<path fill="#F2F2F2" transform="scale(0.362305 0.362305)" d="M546.594 692.535C548.502 692.489 550.775 692.241 552.642 692.602C554.663 692.993 556.304 694.948 557.467 696.5C557.534 697.798 557.583 699.067 557.157 700.316C555.616 704.837 552.446 706.291 548.53 708.442C547.199 709.042 546.193 709.375 544.75 709.587C542.827 708.971 541.049 708.045 539.91 706.309C538.63 704.358 538.513 701.684 539.135 699.459C540.111 695.968 543.647 694.132 546.594 692.535Z"/>
	<path fill="#F2F2F2" transform="scale(0.362305 0.362305)" d="M667.057 554.206C664.965 551.141 663.587 547.857 664.661 544.054L664.982 543.25C666.044 540.497 667.809 538.366 670.361 536.846C672.907 535.331 675.454 534.795 678.336 535.642C681.117 536.458 682.947 539.221 684.354 541.567C682.228 546.375 679.938 550.404 674.75 552.373C672.369 553.276 669.578 553.887 667.057 554.206Z"/>
	<path fill="#F2F2F2" transform="scale(0.362305 0.362305)" d="M582.755 679.175C580.627 677.767 578.658 676.397 577.639 673.946C576.761 671.835 577 669.607 577.873 667.537C578.824 665.281 581.471 662.918 583.726 662.07C586.382 661.072 590.378 660.327 593.031 661.706L593.5 661.972C595.141 662.884 596.063 664.089 597.195 665.566C596.397 670.264 595.521 674.09 591.259 676.919C588.821 678.538 585.588 678.804 582.755 679.175Z"/>
	<path fill="#F2F2F2" transform="scale(0.362305 0.362305)" d="M604.459 642.433C602.502 640.633 601.337 638.337 601.099 635.678C600.797 632.298 602.443 628.943 604.75 626.567C606.5 624.764 609.406 622.932 612 623.011C616.178 623.137 618.319 625.313 620.802 628.365C619.809 633.849 618.147 637.323 613.354 640.582C610.485 642.534 607.829 642.54 604.459 642.433Z"/>
	<path fill="#F2F2F2" transform="scale(0.362305 0.362305)" d="M526.67 715.534L531.273 715.572C535.45 716.014 540.064 717.518 542.502 721.25C543.303 722.476 543.596 723.764 543.149 725.155C541.893 729.065 536.141 731.816 532.656 733.398C530.088 734.326 527.515 734.745 524.835 735.191C523.25 734.08 521.403 732.9 520.247 731.327L519.75 730.567L519.22 729.866C517.904 727.819 517.84 725.227 518.553 722.964C519.685 719.37 523.56 717.171 526.67 715.534Z"/>
	<path fill="#F2F2F2" transform="scale(0.362305 0.362305)" d="M607.679 714.059C609.828 713.978 611.893 713.909 614 714.408C617.269 715.183 618.682 716.431 620.385 719.415C621.7 721.722 621.623 723.733 620.835 726.179C619.175 731.327 613.985 733.968 609.509 736.307C607.523 737.103 605.875 737.741 603.75 736.937C600.714 735.789 598.17 732.605 597.048 729.648C596.18 727.363 596.209 724.824 597.218 722.603L597.51 722C599.52 717.715 603.535 715.715 607.679 714.059Z"/>
	<path fill="#D4D4D4" transform="scale(0.362305 0.362305)" d="M434.279 716.159C437.049 715.718 441.184 716.592 443.696 717.749C445.397 718.534 447.531 720.084 448.125 721.96C448.619 723.523 448.143 725.79 447.32 727.173C444.215 732.394 437.138 734.762 431.611 735.957C428.027 736.043 423.594 736.234 420.437 734.306C418.893 733.363 417.302 731.661 417.015 729.807C416.593 727.073 417.263 725.088 418.933 722.926C422.247 718.633 429.175 716.926 434.279 716.159Z"/>
	<path fill="#F2F2F2" transform="scale(0.362305 0.362305)" d="M567.907 731.151C570.94 730.943 574.166 730.851 577.178 731.294L578 731.424C579.33 731.622 580.674 731.758 581.922 732.293C584.161 733.252 585.659 734.932 586.5 737.214C587.444 739.772 587.021 742.983 585.781 745.358C582.812 751.046 574.191 755.544 568.405 757.382C564.234 758.286 559.201 758.879 555.25 756.99C552.619 755.732 549.787 753.037 549.04 750.143C548.247 747.069 549.63 743.141 551.359 740.609C555.042 735.214 561.649 732.189 567.907 731.151Z"/>
	<path fill="#F2F2F2" transform="scale(0.362305 0.362305)" d="M361.19 744.886C361.953 743.343 362.253 741.577 362.955 739.978C365.061 735.178 368.382 730.611 372.742 727.651C378.924 723.454 383.492 722.871 390.566 724.169C394.635 726.617 399.196 729.108 402.1 732.984C403.685 735.1 404.773 737.764 405.901 740.155C404.135 744.584 399.184 747.367 395.031 749.166C389.16 751.71 377.817 755.133 371.61 752.853C369.77 752.177 368.116 751.17 366.5 750.077C365.619 750.66 365.465 751.067 365 751.988L364.443 753L364.805 753.587C365.251 754.389 365.273 754.799 365.364 755.675L365.408 755.921C364.543 755.306 363.63 754.551 362.935 753.75C360.833 751.33 360.987 747.854 361.19 744.886Z"/>
	<defs>
		<linearGradient id="gradient_3" gradientUnits="userSpaceOnUse" x1="498.60352" y1="756.7077" x2="478.13785" y2="731.75787">
			<stop offset="0" stop-color="#DAD9D9"/>
			<stop offset="1" stop-color="white"/>
		</linearGradient>
	</defs>
	<path fill="url(#gradient_3)" transform="scale(0.362305 0.362305)" d="M467.186 746.911L467.526 746.587C469.16 744.832 470.417 742.288 471.715 740.257C475.789 733.881 481.981 725.065 490.25 724.345C496.545 723.798 502.494 727.053 506.973 731.204C510.512 734.485 512.704 738.194 515.07 742.344C509.612 750.27 503.639 753.788 494.234 755.555C486.26 757.053 479.759 756.696 471.75 755.98L470.478 758.208C469.395 757.199 468.079 756.097 467.329 754.81C465.879 752.32 466.533 749.523 467.186 746.911Z"/>
</svg>
