<?xml version="1.0" encoding="utf-8" ?>
<svg xmlns="http://www.w3.org/2000/svg" xmlns:xlink="http://www.w3.org/1999/xlink" width="300" height="300">
	<path fill="#2A45F2" transform="scale(0.292969 0.292969)" d="M333.043 165.437C333.071 162.639 334.312 159.145 335.091 156.45C337.838 146.956 341.671 137.816 346.375 129.132C347.86 126.391 349.451 123.018 351.583 120.732L371.695 154.466L372.642 157.298C371.476 158.065 370.902 158.321 369.501 158.36C368.74 159.057 368.573 159.544 367.515 159.581C362.377 159.762 358.314 162.718 353.442 163.985L338.377 169.59C336.757 170.187 335.85 170.856 334.671 172.107L333.719 172.175L332.831 171.095L332.952 170.592C333.247 168.984 333.217 167.062 333.043 165.437Z"/>
	<defs>
		<linearGradient id="gradient_0" gradientUnits="userSpaceOnUse" x1="648.65857" y1="208.57477" x2="661.3429" y2="122.2144">
			<stop offset="0" stop-color="#373DD8"/>
			<stop offset="1" stop-color="#5E51FF"/>
		</linearGradient>
	</defs>
	<path fill="url(#gradient_0)" transform="scale(0.292969 0.292969)" d="M608.352 197.79C618.655 188.188 629.225 178.692 638.76 168.31C651.942 153.96 663.237 138.227 673.511 121.711C685.626 145.54 690.496 170.867 690.516 197.5C690.521 203.672 690.692 209.981 689.943 216.115C689.305 215.381 688.84 214.831 688.467 213.914L688.233 213.253C686.036 212.356 683.95 211.35 681.613 210.849C678.384 210.155 674.71 210.101 671.618 209.245C670.679 208.985 670.81 208.839 669.833 208.906C669.036 208.962 668.746 208.977 667.978 208.69L667.315 208.437L666.167 208.412C665.366 208.228 664.955 207.794 664.076 207.84C663.056 207.894 662.492 208.047 661.49 207.675L660.833 207.425L659.667 207.395C657.514 206.876 655.18 206.451 652.935 206.208L652.326 206.15L650.36 205.866C649.51 205.811 648.993 205.912 648.114 205.73L647.225 205.532L645.835 205.329C644.436 204.957 643.583 204.719 642.116 204.73L640.627 204.729C638.755 204.233 641.267 204.397 638.924 204.368C638.139 204.358 637.825 204.339 637.049 204.075C636.147 203.769 636.599 203.814 635.696 203.835C634.687 203.859 635.252 203.918 634.133 203.695L633.202 203.501L631.335 203.303C630.307 203.069 629.753 202.763 628.654 202.758C627.994 202.754 627.416 202.765 626.759 202.654L626.17 202.53L624.827 202.261C624.028 202.055 623.391 201.859 622.552 201.838C620.038 201.774 617.602 200.692 615.254 200.698C613.283 200.703 612.271 200.535 610.637 199.329L608.352 197.79Z"/>
	<path fill="#2B66B0" transform="scale(0.292969 0.292969)" d="M743.933 301.336L856.768 301.414L888.605 301.414C893.613 301.417 899.388 300.878 904.31 301.731C909.617 302.649 915.329 305.501 919.121 309.37C923.163 313.495 924.891 317.652 926.586 323.021L735.874 323.027L743.933 301.336Z"/>
	<path fill="#2B66B0" transform="scale(0.292969 0.292969)" d="M97.092 322.602C98.6007 317.276 100.689 312.777 104.71 308.813C108.85 304.732 113.954 302.198 119.722 301.363C125.149 300.578 130.824 301.322 136.294 301.359L168.458 301.366L279.634 301.594L287.874 321.863L287.232 323.027L143.804 323.04L109.386 323.063C106.429 323.062 99.5519 323.844 97.092 322.602Z"/>
	<path fill="#2B66B0" transform="scale(0.292969 0.292969)" d="M97.1372 398.951C98.798 393.944 101.011 389.654 104.794 385.922C109.174 381.6 115.324 378.477 121.411 377.573C127.56 376.659 133.839 377.475 140.03 377.495L178.594 377.519L318.208 377.579L318.21 398.019L97.1372 398.951Z"/>
	<path fill="#2B66B0" transform="scale(0.292969 0.292969)" d="M701.839 377.369L843.547 377.36L882.75 377.33C888.754 377.268 894.95 376.494 900.932 377.258C907.669 378.119 913.946 380.672 918.794 385.491C922.44 389.114 924.28 393.229 926.043 397.99L701.086 399.07C701.798 392.224 702.289 384.242 701.839 377.369Z"/>
	<path fill="#043985" transform="scale(0.292969 0.292969)" d="M287.874 321.863C291.031 326.712 293.05 332.462 295.928 337.545C299.219 343.357 303.29 348.456 306.919 354.021L266.828 353.899L182.963 353.923L141.489 353.96C135.135 353.968 128.005 354.678 121.746 353.809C113.731 352.696 106.53 348.905 101.734 342.253C97.6482 336.586 95.9174 329.468 97.092 322.602C99.5519 323.844 106.429 323.062 109.386 323.063L143.804 323.04L287.232 323.027L287.874 321.863Z"/>
	<path fill="#043985" transform="scale(0.292969 0.292969)" d="M735.874 323.027L926.586 323.021C927.071 330.708 926.374 338.355 920.993 344.37C916.089 349.851 908.636 353.99 901.159 354.417L718.503 354.526C722.252 349.325 725.189 343.01 728.275 337.384C730.841 332.705 733.924 327.99 735.874 323.027Z"/>
	<path fill="#043985" transform="scale(0.292969 0.292969)" d="M97.1372 398.951L318.21 398.019C319.535 408.672 321.971 421.14 328.322 430.044C324.555 431.188 320.157 430.166 316.25 430.05L300.026 429.955L189.661 429.944L160.539 429.958C155.753 429.962 150.15 429.45 145.471 430.342C140.136 431.072 134.068 430.58 128.645 430.559C125.066 430.544 120.713 430.949 117.229 430.295C111.173 429.157 104.339 424.298 100.837 419.237C96.6656 413.212 95.8213 406.002 97.1372 398.951Z"/>
	<path fill="#043985" transform="scale(0.292969 0.292969)" d="M926.043 397.99C927.342 405.91 926.98 412.885 922.195 419.637C918.205 425.267 911.542 429.139 904.755 430.246C896.417 431.607 887.097 430.978 878.625 430.975L692.55 430.892C698.411 421.187 700.858 410.272 701.086 399.07L926.043 397.99Z"/>
	<defs>
		<linearGradient id="gradient_1" gradientUnits="userSpaceOnUse" x1="686.20886" y1="365.41476" x2="734.40887" y2="211.8788">
			<stop offset="0" stop-color="#002AC1"/>
			<stop offset="1" stop-color="#3745ED"/>
		</linearGradient>
	</defs>
	<path fill="url(#gradient_1)" transform="scale(0.292969 0.292969)" d="M686.884 244.1C705.632 239.433 723.607 233.671 741.099 225.379C746.506 222.816 751.595 219.771 756.824 216.879L756.302 240.754C755.295 256.134 752.321 271.455 748.359 286.33C747.029 291.323 745.88 296.543 743.933 301.336L735.874 323.027C733.924 327.99 730.841 332.705 728.275 337.384C725.189 343.01 722.252 349.325 718.503 354.526L703.288 374.205C702.744 370.046 703.781 365.233 702.06 361.354C703.077 358.325 703.523 354.788 702.449 351.7C699.103 342.069 690.406 336.793 681.635 332.675C680.559 332.663 678.625 331.713 677.563 331.35L663.262 326.075C652.366 322.373 640.74 320.155 629.468 317.878C632.035 317.161 634.662 315.526 637.06 314.328L651.201 307.23L666.317 299.578C668.756 298.329 671.334 297.329 673.578 295.745L681.207 269.4C682.792 263.527 683.801 257.511 685.044 251.568C685.535 249.222 685.699 246.207 686.884 244.1Z"/>
	<defs>
		<linearGradient id="gradient_2" gradientUnits="userSpaceOnUse" x1="667.31177" y1="329.07346" x2="676.73987" y2="269.42661">
			<stop offset="0" stop-color="#005BFF"/>
			<stop offset="1" stop-color="#0887FF"/>
		</linearGradient>
	</defs>
	<path fill="url(#gradient_2)" transform="scale(0.292969 0.292969)" d="M673.578 295.745L714.266 273.046C707.712 289.045 700.617 304.015 691.478 318.721C688.531 323.465 685.566 328.678 681.635 332.675C680.559 332.663 678.625 331.713 677.563 331.35L663.262 326.075C652.366 322.373 640.74 320.155 629.468 317.878C632.035 317.161 634.662 315.526 637.06 314.328L651.201 307.23L666.317 299.578C668.756 298.329 671.334 297.329 673.578 295.745Z"/>
	<defs>
		<linearGradient id="gradient_3" gradientUnits="userSpaceOnUse" x1="627.51642" y1="316.07382" x2="643.63641" y2="203.30838">
			<stop offset="0" stop-color="#0027A8"/>
			<stop offset="1" stop-color="#3A3EDA"/>
		</linearGradient>
	</defs>
	<path fill="url(#gradient_3)" transform="scale(0.292969 0.292969)" d="M593.498 211.043L608.352 197.79L610.637 199.329C612.271 200.535 613.283 200.703 615.254 200.698C617.602 200.692 620.038 201.774 622.552 201.838C623.391 201.859 624.028 202.055 624.827 202.261L626.17 202.53L626.759 202.654C627.416 202.765 627.994 202.754 628.654 202.758C629.753 202.763 630.307 203.069 631.335 203.303L633.202 203.501L634.133 203.695C635.252 203.918 634.687 203.859 635.696 203.835C636.599 203.814 636.147 203.769 637.049 204.075C637.825 204.339 638.139 204.358 638.924 204.368C641.267 204.397 638.755 204.233 640.627 204.729L642.116 204.73C643.583 204.719 644.436 204.957 645.835 205.329L647.225 205.532L648.114 205.73C648.993 205.912 649.51 205.811 650.36 205.866L652.326 206.15L652.935 206.208C655.18 206.451 657.514 206.876 659.667 207.395L660.833 207.425L661.49 207.675C662.492 208.047 663.056 207.894 664.076 207.84C664.955 207.794 665.366 208.228 666.167 208.412L667.315 208.437L667.978 208.69C668.746 208.977 669.036 208.962 669.833 208.906C670.81 208.839 670.679 208.985 671.618 209.245C674.71 210.101 678.384 210.155 681.613 210.849C683.95 211.35 686.036 212.356 688.233 213.253L688.467 213.914C688.84 214.831 689.305 215.381 689.943 216.115L686.884 244.1C685.699 246.207 685.535 249.222 685.044 251.568C683.801 257.511 682.792 263.527 681.207 269.4L673.578 295.745C671.334 297.329 668.756 298.329 666.317 299.578L651.201 307.23L637.06 314.328C634.662 315.526 632.035 317.161 629.468 317.878L625.46 317.067C621.733 317.03 617.757 316.25 614.045 315.807L590.926 312.653L591.858 310.06C598.437 295.196 600.051 278.378 600.522 262.311C600.323 258.54 600.877 254.732 600.725 250.929C600.198 237.771 597.799 223.507 593.498 211.043Z"/>
	<path fill="#007AFC" transform="scale(0.292969 0.292969)" d="M600.522 262.311L601.127 261.949C606.471 258.704 611.43 254.34 616.253 250.371L648.711 220.934C645.687 245.344 641.85 269.702 634.46 293.221C631.905 301.352 628.718 309.2 625.46 317.067C621.733 317.03 617.757 316.25 614.045 315.807L590.926 312.653L591.858 310.06C598.437 295.196 600.051 278.378 600.522 262.311Z"/>
	<defs>
		<linearGradient id="gradient_4" gradientUnits="userSpaceOnUse" x1="382.99045" y1="338.5202" x2="323.78467" y2="174.35619">
			<stop offset="0" stop-color="#022AB6"/>
			<stop offset="1" stop-color="#4E47F2"/>
		</linearGradient>
	</defs>
	<path fill="url(#gradient_4)" transform="scale(0.292969 0.292969)" d="M371.695 154.466L372.008 154.813L384.162 169.903C393.536 181.015 403.539 191.579 414.298 201.363C418.62 205.293 423.459 209.859 428.59 212.66C424.66 224.979 422.713 239.451 422.249 252.333C422.116 256.016 422.53 259.64 422.488 263.314C424.43 266.818 423.889 272.725 424.558 276.748C426.505 288.453 429.01 301.284 434.75 311.794L437.564 312.184L397.155 317.504L396.407 317.647L367.206 324.631C357.126 327.352 347.435 331.063 337.684 334.743C330.749 337.756 322.264 342.55 319.238 349.903C318.732 351.132 318.467 352.331 318.228 353.634C317.665 357.437 318.052 361.331 317.843 365.168L306.919 354.021C303.29 348.456 299.219 343.357 295.928 337.545C293.05 332.462 291.031 326.712 287.874 321.863L279.634 301.594C277.755 296.787 276.673 291.599 275.419 286.6C269.483 262.927 267.733 239.717 268.261 215.415C274.535 218.853 280.391 222.866 286.803 226.108C305.414 235.521 325.73 241.307 346.067 245.597C336.582 226.127 331.343 204.718 331.436 183.069C331.463 176.941 331.517 171.398 333.043 165.437C333.217 167.062 333.247 168.984 332.952 170.592L332.831 171.095L333.719 172.175L334.671 172.107C335.85 170.856 336.757 170.187 338.377 169.59L353.442 163.985C358.314 162.718 362.377 159.762 367.515 159.581C368.573 159.544 368.74 159.057 369.501 158.36C370.902 158.321 371.476 158.065 372.642 157.298L371.695 154.466Z"/>
	<defs>
		<linearGradient id="gradient_5" gradientUnits="userSpaceOnUse" x1="365.29578" y1="328.69345" x2="339.07837" y2="264.97552">
			<stop offset="0" stop-color="#0061FF"/>
			<stop offset="1" stop-color="#0385FF"/>
		</linearGradient>
	</defs>
	<path fill="url(#gradient_5)" transform="scale(0.292969 0.292969)" d="M337.684 334.743C335.116 330.07 332.121 325.753 329.773 320.926C322.349 305.671 317.358 289.275 311.576 273.349L375.5 307.054L389.348 314.36C391.292 315.379 393.501 316.973 395.622 317.481L396.407 317.647L367.206 324.631C357.126 327.352 347.435 331.063 337.684 334.743Z"/>
	<path fill="#007AFC" transform="scale(0.292969 0.292969)" d="M397.155 317.504C396.978 313.146 393.722 307.555 392.427 303.21L385.209 276.55L374.715 223.569L374.964 223.451L399.134 244.952C406.537 251.552 413.974 258.159 422.488 263.314C424.43 266.818 423.889 272.725 424.558 276.748C426.505 288.453 429.01 301.284 434.75 311.794L437.564 312.184L397.155 317.504Z"/>
	<path fill="#2A45F2" transform="scale(0.292969 0.292969)" d="M481.177 116.011C493.833 92.7361 506.609 70.2561 512.662 44.1559L517.627 60.9544C522.082 74.2532 527.772 87.4565 534.351 99.8418L544.222 117.137C546.271 120.555 548.666 123.978 550.306 127.603L562.281 146.997C569.718 159.155 577.324 171.409 583.383 184.321C587.503 193.101 590.549 201.845 593.498 211.043C597.799 223.507 600.198 237.771 600.725 250.929C600.877 254.732 600.323 258.54 600.522 262.311C600.051 278.378 598.437 295.196 591.858 310.06L590.926 312.653L558.488 309.912C558.188 308.318 558.902 305.901 559.146 304.25L560.264 294.208C560.73 288.695 560.698 283.017 560.074 277.523C558.294 261.856 553.782 246.923 548.06 232.281C538.56 207.971 525.856 185.655 511.491 163.936L509.457 167.081C503.931 176.017 499.161 185.594 494.181 194.848C475.134 230.237 457.501 268.962 467.288 309.886L437.564 312.184L434.75 311.794C429.01 301.284 426.505 288.453 424.558 276.748C423.889 272.725 424.43 266.818 422.488 263.314C422.53 259.64 422.116 256.016 422.249 252.333C422.713 239.451 424.66 224.979 428.59 212.66C430.445 208.685 431.643 204.359 433.241 200.265L443.218 177.974C450.545 163.326 459.922 149.377 468.85 135.661L481.177 116.011Z"/>
	<path fill="#58B3F8" transform="scale(0.292969 0.292969)" d="M224.068 943.15C226.948 943.029 229.737 943.47 232.608 943.487L260.173 943.567C269.603 943.717 278.856 944.32 288.259 943.167C298.894 943.92 309.807 943.405 320.483 943.408L380.215 943.503L585.28 943.659L692.379 943.583L720.824 943.537C725.617 943.526 731.203 944.015 735.904 943.186C744.385 943.881 752.639 943.626 761.131 943.624L787.75 943.921C789.473 943.939 800.803 943.299 800.939 943.38C806.032 943.83 811.294 943.573 816.408 943.575L843.88 943.544C851.369 943.518 863.055 941.839 869.526 945.75C873.41 948.098 877.027 952.148 877.851 956.75C878.631 961.106 877.463 965.803 875.016 969.452C872.566 973.108 868.224 975.56 863.942 976.312C858.716 977.229 852.213 976.524 846.881 976.516L809.351 976.472L660.725 976.068L313.953 976.452L210.304 976.484L160.104 976.516C155.714 976.442 151.434 975.509 147.782 972.968C144.389 970.608 141.202 966.426 140.599 962.25C140.023 958.268 141.328 953.887 143.629 950.617C145.995 947.255 149.527 945.072 153.462 943.975C157.506 942.849 163.218 943.508 167.458 943.502L206.17 943.538C211.406 943.543 218.126 944.296 223.202 943.329L224.068 943.15Z"/>
	<path fill="#00D9FB" transform="scale(0.292969 0.292969)" d="M437.564 312.184L467.288 309.886C457.501 268.962 475.134 230.237 494.181 194.848C499.161 185.594 503.931 176.017 509.457 167.081L511.491 163.936C525.856 185.655 538.56 207.971 548.06 232.281C553.782 246.923 558.294 261.856 560.074 277.523C560.698 283.017 560.73 288.695 560.264 294.208L559.146 304.25C558.902 305.901 558.188 308.318 558.488 309.912L590.926 312.653L614.045 315.807C617.757 316.25 621.733 317.03 625.46 317.067L629.468 317.878C640.74 320.155 652.366 322.373 663.262 326.075L677.563 331.35C678.625 331.713 680.559 332.663 681.635 332.675C690.406 336.793 699.103 342.069 702.449 351.7C703.523 354.788 703.077 358.325 702.06 361.354C703.781 365.233 702.744 370.046 703.288 374.205L701.839 377.369C702.289 384.242 701.798 392.224 701.086 399.07C700.858 410.272 698.411 421.187 692.55 430.892L686.476 437.945L686.211 438.27C683.52 440.213 681.131 442.463 678.5 444.47C672.494 449.051 665.882 453.095 659.019 456.254C636.824 466.471 612.555 470.904 588.5 474.068C533.923 481.246 477.796 480.223 423.468 471.471L389.441 464.526C379.462 462.092 369.634 459.451 360.223 455.25C352.717 451.899 345.947 447.656 339.215 442.975L334.014 437.396L328.322 430.044C321.971 421.14 319.535 408.672 318.21 398.019L318.208 377.579C318.697 374.797 319.075 367.643 317.843 365.168C318.052 361.331 317.665 357.437 318.228 353.634C318.467 352.331 318.732 351.132 319.238 349.903C322.264 342.55 330.749 337.756 337.684 334.743C347.435 331.063 357.126 327.352 367.206 324.631L396.407 317.647L397.155 317.504L437.564 312.184Z"/>
	<path fill="#58B3F8" transform="scale(0.292969 0.292969)" d="M468.764 315.007C468.212 313.268 467.561 311.51 467.264 309.709C475.785 308.51 484.154 308.443 492.737 308.214L529.888 308.159L558.256 309.619L556.91 315.196C559.936 315.844 563.352 315.816 566.45 316.035L585.381 317.478L607.763 320.862C626.38 323.731 645.359 326.621 663.196 332.857C667.474 334.352 671.882 335.737 675.951 337.741C681.136 340.296 686.593 343.073 688.428 349.01C689.208 351.532 688.9 354.017 687.569 356.306C685.231 360.328 681.243 362.641 677.232 364.688C669.648 368.56 661.443 371.512 653.251 373.803C625.983 381.428 597.757 385.383 569.575 387.613C535.253 390.329 501.343 390.493 466.983 388.352C438.251 386.563 409.411 383.662 381.367 376.896C369.001 373.913 354.748 370.522 343.649 364.228C338.173 361.122 335.496 357.971 333.795 351.914C334.573 348.875 335.623 346.957 337.904 344.749C341.946 340.837 348.277 338.457 353.413 336.345C376.668 326.784 400.721 322.53 425.553 319.381L468.764 315.007Z"/>
	<path fill="#FEFEFE" transform="scale(0.292969 0.292969)" d="M468.764 315.007C468.212 313.268 467.561 311.51 467.264 309.709C475.785 308.51 484.154 308.443 492.737 308.214L529.888 308.159L558.256 309.619L556.91 315.196L552.955 325.5C547.899 335.955 538.136 344.699 527.044 348.267C516.029 351.811 502.735 350.629 492.523 345.168C480.323 338.644 472.743 328.084 468.764 315.007Z"/>
	<path fill="#007AFC" transform="scale(0.292969 0.292969)" d="M318.228 353.634L318.527 359.942L327.029 367.302C330.018 369.628 333.574 371.278 336.913 373.04C351.557 380.77 367.966 385.192 384.088 388.648C444.691 401.638 506.445 403.379 568.102 398.772L606.375 395.486C629.461 392.389 653.243 388.213 674.945 379.501C679.579 377.641 684.558 375.822 688.825 373.213C694.226 369.911 698.083 366.233 702.06 361.354C703.781 365.233 702.744 370.046 703.288 374.205L701.839 377.369C702.289 384.242 701.798 392.224 701.086 399.07C700.858 410.272 698.411 421.187 692.55 430.892L686.476 437.945L686.211 438.27C683.52 440.213 681.131 442.463 678.5 444.47C672.494 449.051 665.882 453.095 659.019 456.254C636.824 466.471 612.555 470.904 588.5 474.068C533.923 481.246 477.796 480.223 423.468 471.471L389.441 464.526C379.462 462.092 369.634 459.451 360.223 455.25C352.717 451.899 345.947 447.656 339.215 442.975L334.014 437.396L328.322 430.044C321.971 421.14 319.535 408.672 318.21 398.019L318.208 377.579C318.697 374.797 319.075 367.643 317.843 365.168C318.052 361.331 317.665 357.437 318.228 353.634Z"/>
	<path fill="#2B66B0" transform="scale(0.292969 0.292969)" d="M328.322 430.044L334.014 437.396L339.215 442.975C345.947 447.656 352.717 451.899 360.223 455.25C369.634 459.451 379.462 462.092 389.441 464.526L423.468 471.471C477.796 480.223 533.923 481.246 588.5 474.068C612.555 470.904 636.824 466.471 659.019 456.254C665.882 453.095 672.494 449.051 678.5 444.47C681.131 442.463 683.52 440.213 686.211 438.27L686.476 437.945L692.55 430.892L878.625 430.975L878.478 432.981C871.135 443.372 865.767 455.655 860.028 467L837.097 511.619L824.142 536.588C821.256 541.818 817.551 547.042 815.436 552.628L819.206 557.505L798.361 605.455C792.751 594.55 786.103 586.501 774.059 582.658C768.414 580.858 763.055 581.026 757.214 581.076L741.312 581.139L701.319 581.16L568.948 581.158L357.393 581.146L290.101 581.115L253.881 581.122C248.91 581.309 243.903 582.542 239.51 584.901C231.402 589.256 226.319 597.15 223.904 605.857L223.761 606.426L223.239 606.429L196.934 575.448L196.043 577.203C191.04 573.701 186.956 569.467 182.72 565.098C171.369 553.391 161.877 539.83 154.473 525.303C151.329 519.136 149.22 512.252 145.805 506.278L145.583 505.9L145.471 430.342C150.15 429.45 155.753 429.962 160.539 429.958L189.661 429.944L300.026 429.955L316.25 430.05C320.157 430.166 324.555 431.188 328.322 430.044Z"/>
	<path fill="#00014A" transform="scale(0.292969 0.292969)" d="M334.014 437.396L339.215 442.975C345.947 447.656 352.717 451.899 360.223 455.25C369.634 459.451 379.462 462.092 389.441 464.526L423.468 471.471C477.796 480.223 533.923 481.246 588.5 474.068C612.555 470.904 636.824 466.471 659.019 456.254C665.882 453.095 672.494 449.051 678.5 444.47C681.131 442.463 683.52 440.213 686.211 438.27L686.476 437.945L691.809 440.335C699.25 443.72 709.419 448.491 712.385 456.811L712.618 457.5C713.339 459.514 713.856 460.872 713.218 463.002C710.823 470.997 703.986 475.991 696.863 479.622C677.265 489.611 654.943 494.538 633.423 498.461C602.57 504.085 571.411 506.725 540.092 507.785C496.088 509.275 451.806 507.144 408.231 500.763C387.555 497.735 367.331 494.225 347.429 487.717C336.841 484.254 323.948 479.517 315.477 472.065C313.234 470.092 311.082 467.96 309.747 465.254C308.285 462.291 308.001 458.835 309.176 455.729C312.401 447.198 326.248 440.755 334.014 437.396Z"/>
	<path fill="#000B7F" transform="scale(0.292969 0.292969)" d="M339.215 442.975C345.947 447.656 352.717 451.899 360.223 455.25C369.634 459.451 379.462 462.092 389.441 464.526L423.468 471.471C477.796 480.223 533.923 481.246 588.5 474.068C612.555 470.904 636.824 466.471 659.019 456.254C665.882 453.095 672.494 449.051 678.5 444.47C681.131 442.463 683.52 440.213 686.211 438.27C684.924 447.902 679.427 456.74 671.692 462.618C661.484 470.375 647.666 474.995 635.5 478.588C602.892 488.216 568.993 491.585 535.117 492.543C519.802 492.976 504.376 493.21 489.07 492.393L457.75 489.641L430.219 486.973L413.593 483.75C394.381 479.985 374.351 475.574 357.445 465.25C352.279 462.095 347.438 458.816 343.783 453.902C341.425 450.732 339.809 446.88 339.215 442.975Z"/>
	<path fill="#58B3F8" transform="scale(0.292969 0.292969)" d="M244.757 531.295C251.952 528.667 260.142 528.967 267.671 529.016L288.967 529.082L333.276 529.084L450.326 529.081L652.255 529.079L773.938 529.677C790.365 533.033 804.3 539.941 815.436 552.628L819.206 557.505L798.361 605.455C792.751 594.55 786.103 586.501 774.059 582.658C768.414 580.858 763.055 581.026 757.214 581.076L741.312 581.139L701.319 581.16L568.948 581.158L357.393 581.146L290.101 581.115L253.881 581.122C248.91 581.309 243.903 582.542 239.51 584.901C231.402 589.256 226.319 597.15 223.904 605.857L223.761 606.426L223.239 606.429L196.934 575.448L200.798 566.872C209.747 549.723 226.493 537.14 244.757 531.295Z"/>
	<path fill="#FEFEFE" transform="scale(0.292969 0.292969)" d="M244.757 531.295C251.952 528.667 260.142 528.967 267.671 529.016L288.967 529.082L333.276 529.084L450.326 529.081L652.255 529.079L773.938 529.677C776.1 534.708 777.445 540.51 775.137 545.774C772.912 550.847 767.312 554.976 762.201 556.742C757.725 558.288 752.944 557.998 748.284 558.011L729.996 558.022L684.62 558.01L533.465 558.02L363.156 558.016L307.515 558.008L277.989 557.926C271.875 557.664 266.243 556.171 260.803 553.346C253.903 549.761 248.339 543.759 246.058 536.25L244.757 531.295Z"/>
	<defs>
		<linearGradient id="gradient_6" gradientUnits="userSpaceOnUse" x1="394.30554" y1="940.93573" x2="641.44922" y2="338.63986">
			<stop offset="0" stop-color="#000264"/>
			<stop offset="1" stop-color="#043A7F"/>
		</linearGradient>
	</defs>
	<path fill="url(#gradient_6)" transform="scale(0.292969 0.292969)" d="M878.478 432.981L878.767 680.941L878.847 748.327C878.861 764.981 880.072 782.526 876.782 798.925C873.299 816.289 864.341 832.921 851.75 845.401C843.915 853.167 833.049 860.086 822.417 863.219C820.063 863.913 817.235 864.911 814.778 865.012L814.609 864.967L814.921 908C814.954 914.644 815.895 922.936 814.446 929.366C813.724 932.571 811.85 935.417 809.562 937.727C807.166 940.145 804.044 942.018 800.939 943.38C800.803 943.299 789.473 943.939 787.75 943.921L761.131 943.624C752.639 943.626 744.385 943.881 735.904 943.186C731.203 944.015 725.617 943.526 720.824 943.537L692.379 943.583L585.28 943.659L380.215 943.503L320.483 943.408C309.807 943.405 298.894 943.92 288.259 943.167C278.856 944.32 269.603 943.717 260.173 943.567L232.608 943.487C229.737 943.47 226.948 943.029 224.068 943.15C220.495 941.584 217.216 940.102 214.403 937.304C212.18 935.093 210.452 932.382 209.722 929.308C208.142 922.645 209.079 914.26 209.078 907.403L209.156 867.067C208.891 865.052 209.256 865.364 207.285 864.813C192.82 860.771 179.625 852.556 169.052 841.969C157.748 830.65 149.991 815.486 147.001 799.799C144.56 786.994 145.432 773.612 145.435 760.632L145.454 707.59L145.583 505.9L145.805 506.278C149.22 512.252 151.329 519.136 154.473 525.303C161.877 539.83 171.369 553.391 182.72 565.098C186.956 569.467 191.04 573.701 196.043 577.203L196.934 575.448L223.239 606.429L223.761 606.426L223.904 605.857C226.319 597.15 231.402 589.256 239.51 584.901C243.903 582.542 248.91 581.309 253.881 581.122L290.101 581.115L357.393 581.146L568.948 581.158L701.319 581.16L741.312 581.139L757.214 581.076C763.055 581.026 768.414 580.858 774.059 582.658C786.103 586.501 792.751 594.55 798.361 605.455L819.206 557.505L815.436 552.628C817.551 547.042 821.256 541.818 824.142 536.588L837.097 511.619L860.028 467C865.767 455.655 871.135 443.372 878.478 432.981ZM303.434 864.93C302.181 864.821 302.193 864.866 301.149 865.582L301.084 884.998L301.147 909.489C301.237 916.042 301.626 922.325 300.735 928.856L301.095 930.853L301.757 930.047L302.226 930.592C300.548 935.495 297.303 939.162 292.585 941.371L288.259 943.167C298.894 943.92 309.807 943.405 320.483 943.408L380.215 943.503L585.28 943.659L692.379 943.583L720.824 943.537C725.617 943.526 731.203 944.015 735.904 943.186C732.512 941.572 729.373 939.854 726.683 937.155C723.873 934.336 722.462 930.799 721.75 926.927C720.471 919.971 721.444 913.012 721.456 906.013L721.326 864.937L421.505 864.914L336.677 864.932L314 864.926C310.607 864.914 306.758 864.402 303.434 864.93Z"/>
	<path fill="#00014A" transform="scale(0.292969 0.292969)" d="M833.167 767.805L833.803 767.539C834.393 771.622 833.344 775.937 832.454 779.933C830.185 790.109 827.113 799.181 820.787 807.608C810.405 821.438 793.838 832.867 776.425 835.306C765.056 836.899 752.793 836.479 741.33 836.477L688.695 836.218L541.966 836.114L355.5 836.386L286.5 836.033C276.118 835.88 265.483 836.618 255.155 835.494C243.313 834.205 231.437 828.584 222.043 821.4C220.325 820.085 219.212 818.886 218.25 816.943C218.241 816.093 218.228 815.826 218.605 815.035C228.16 821.02 238.035 825.879 249.337 827.327C258.765 828.535 268.649 827.997 278.144 828L325.438 828.005L486.336 827.996L675.456 828.269L735.059 828.335C746.774 828.338 758.607 828.945 770.275 827.856C782.994 826.669 796.154 821.872 806.256 813.975C821.105 802.368 830.926 786.592 833.167 767.805Z"/>
	<path fill="#000B7F" transform="scale(0.292969 0.292969)" d="M209.156 867.067C209.378 866.02 209.408 865.971 210.2 865.25L212.93 865.518C223.711 867.464 235.406 866.564 246.351 866.733L277.465 866.959C284.892 866.967 293.998 867.805 301.149 865.582L301.084 884.998L301.147 909.489C301.237 916.042 301.626 922.325 300.735 928.856L301.095 930.853L301.757 930.047L302.226 930.592C300.548 935.495 297.303 939.162 292.585 941.371L288.259 943.167C278.856 944.32 269.603 943.717 260.173 943.567L232.608 943.487C229.737 943.47 226.948 943.029 224.068 943.15C220.495 941.584 217.216 940.102 214.403 937.304C212.18 935.093 210.452 932.382 209.722 929.308C208.142 922.645 209.079 914.26 209.078 907.403L209.156 867.067Z"/>
	<path transform="scale(0.292969 0.292969)" d="M209.156 867.067C209.378 866.02 209.408 865.971 210.2 865.25L212.93 865.518L212.559 889.771L212.454 915.274C212.454 919.561 211.811 925.27 213.25 929.272L213.508 930.011C214.986 933.995 218.354 936.989 222.189 938.667C223.954 939.439 225.92 939.741 227.831 939.892C236.823 940.601 246.262 940.021 255.316 940.091L274.724 940.436C279.464 940.532 284.51 940.893 289.126 939.7L289.846 939.519C293.523 938.518 297.531 935.089 299.372 931.748L299.984 930.5L300.242 929.966L300.735 928.856L301.095 930.853L301.757 930.047L302.226 930.592C300.548 935.495 297.303 939.162 292.585 941.371L288.259 943.167C278.856 944.32 269.603 943.717 260.173 943.567L232.608 943.487C229.737 943.47 226.948 943.029 224.068 943.15C220.495 941.584 217.216 940.102 214.403 937.304C212.18 935.093 210.452 932.382 209.722 929.308C208.142 922.645 209.079 914.26 209.078 907.403L209.156 867.067Z"/>
	<path fill="#00014A" transform="scale(0.292969 0.292969)" d="M212.93 865.518C223.711 867.464 235.406 866.564 246.351 866.733L277.465 866.959C284.892 866.967 293.998 867.805 301.149 865.582L301.084 884.998L213.527 885.145C212.677 886.603 212.908 888.183 212.559 889.771L212.93 865.518Z"/>
	<path transform="scale(0.292969 0.292969)" d="M721.326 864.937L814.609 864.967L814.921 908C814.954 914.644 815.895 922.936 814.446 929.366C813.724 932.571 811.85 935.417 809.562 937.727C807.166 940.145 804.044 942.018 800.939 943.38C800.803 943.299 789.473 943.939 787.75 943.921L761.131 943.624C752.639 943.626 744.385 943.881 735.904 943.186C732.512 941.572 729.373 939.854 726.683 937.155C723.873 934.336 722.462 930.799 721.75 926.927C720.471 919.971 721.444 913.012 721.456 906.013L721.326 864.937Z"/>
	<path fill="#00014A" transform="scale(0.292969 0.292969)" d="M724.433 923.209C723.488 918.076 724.021 912.101 724.027 906.894L724.636 867.006L811.935 867.069L812.487 886.973L724.562 886.69L724.433 923.209Z"/>
	<path fill="#000B7F" transform="scale(0.292969 0.292969)" d="M724.433 923.209L724.562 886.69L812.487 886.973L812.528 912.692C812.529 917.409 813.012 922.693 812.003 927.294C811.338 930.324 809.987 933.279 807.75 935.481C805.359 937.834 801.852 939.665 798.552 940.305C790.262 941.912 780.593 941.048 772.155 941.073L744.652 941.14C738.101 940.841 732.955 939.587 728.341 934.64C725.292 931.371 724.486 927.555 724.433 923.209Z"/>
	<path fill="#2B66B0" transform="scale(0.292969 0.292969)" d="M833.004 747.361C834.16 753.517 833.876 761.566 833.167 767.805C830.926 786.592 821.105 802.368 806.256 813.975C796.154 821.872 782.994 826.669 770.275 827.856C758.607 828.945 746.774 828.338 735.059 828.335L675.456 828.269L486.336 827.996L325.438 828.005L278.144 828C268.649 827.997 258.765 828.535 249.337 827.327C238.035 825.879 228.16 821.02 218.605 815.035L209.18 806.507C200.131 797.299 193.641 783.099 192.232 770.316C191.573 764.332 191.972 757.943 192.035 751.912L192.442 753.494C194.068 759.943 198.936 767.789 203.015 773C213.444 786.325 229.618 796.291 246.5 798.576C253.656 799.545 261.266 799.036 268.486 799.033L307.024 799.024L451.665 798.22L668.304 798.099L737.315 798.071L772.607 797.947C781.293 797.509 790.257 794.668 798 790.794C810.511 784.535 822.247 774.802 828.134 761.821C830.242 757.174 831.395 752.187 833.004 747.361Z"/>
	<path transform="scale(0.292969 0.292969)" d="M301.149 865.582C302.193 864.866 302.181 864.821 303.434 864.93L303.515 904.268L303.574 917.59C303.638 921.98 303.942 926.228 302.405 930.423L302.226 930.592L301.757 930.047L301.095 930.853L300.735 928.856C301.626 922.325 301.237 916.042 301.147 909.489L301.084 884.998L301.149 865.582Z"/>
	<defs>
		<linearGradient id="gradient_7" gradientUnits="userSpaceOnUse" x1="519.11639" y1="809.65613" x2="506.66971" y2="561.94037">
			<stop offset="0" stop-color="#4A77F9"/>
			<stop offset="1" stop-color="#4C8FFF"/>
		</linearGradient>
	</defs>
	<path fill="url(#gradient_7)" transform="scale(0.292969 0.292969)" d="M819.206 557.505C825.276 565.224 830.196 574.857 832 584.578C833.599 593.19 833.042 602.437 833.032 611.175L833.075 644.47L833.172 710.193L833.004 747.361C831.395 752.187 830.242 757.174 828.134 761.821C822.247 774.802 810.511 784.535 798 790.794C790.257 794.668 781.293 797.509 772.607 797.947L737.315 798.071L668.304 798.099L451.665 798.22L307.024 799.024L268.486 799.033C261.266 799.036 253.656 799.545 246.5 798.576C229.618 796.291 213.444 786.325 203.015 773C198.936 767.789 194.068 759.943 192.442 753.494L192.035 751.912L191.925 659.517L191.885 621.059C191.792 612.012 190.988 602.753 192.042 593.75C192.706 588.074 194.286 582.621 196.043 577.203L196.934 575.448L223.239 606.429L223.761 606.426C223.342 608.966 223.504 611.5 223.578 614.063C223.688 612.431 223.648 610.596 224.25 609.07C228.104 611.5 230.633 615.721 233.75 618.976L254.612 639.884L281.717 663.881C286.282 667.709 291.573 671.04 295.668 675.354C292.65 690.663 293.909 705.885 302.829 719.068C311.66 732.119 325.053 738.296 340.094 740.992C351.171 742.978 363.467 739.446 373.456 734.785C383.975 745.411 395.929 752.911 408.495 760.839C412.589 763.422 417.025 765.834 420.877 768.75L420.75 769.334L417.243 769.947L424.323 770.047L609.524 769.96L610.939 769.519L612.549 768.109C614.769 766.474 621.474 763.179 624.147 763.681C629.469 764.681 636.218 763.978 641.69 763.978L678.577 763.994L744.265 764.003C754.782 764.002 765.78 764.702 776.244 763.873C784.966 763.182 792.12 755.96 794.46 747.75C795.28 744.875 794.987 741.583 794.997 738.62L795.021 720.748L795.452 656.682C795.473 646.757 794.548 636.861 795.08 626.919C795.304 622.742 795.894 618.507 796.58 614.385C796.865 612.669 796.958 610.875 798.185 609.537L798.848 608.855C798.939 607.851 798.526 606.472 798.361 605.455L819.206 557.505Z"/>
	<path fill="#000B7F" transform="scale(0.292969 0.292969)" d="M610.939 769.519L612.549 768.109C614.769 766.474 621.474 763.179 624.147 763.681C629.469 764.681 636.218 763.978 641.69 763.978L678.577 763.994L744.265 764.003C754.782 764.002 765.78 764.702 776.244 763.873C784.966 763.182 792.12 755.96 794.46 747.75C795.28 744.875 794.987 741.583 794.997 738.62L795.021 720.748L795.452 656.682C795.473 646.757 794.548 636.861 795.08 626.919C795.304 622.742 795.894 618.507 796.58 614.385C796.865 612.669 796.958 610.875 798.185 609.537L798.848 608.855C800.37 620.557 799.875 632.226 799.815 643.988L799.684 689.256L799.907 725.255C799.96 732.029 800.441 739.123 799.695 745.855C799.211 750.223 797.683 754.981 794.983 758.5C791.338 763.25 784.984 767.947 778.912 768.446L610.939 769.519Z"/>
	<path fill="#58B3F8" transform="scale(0.292969 0.292969)" d="M424.323 770.047L609.524 769.96C605.806 772.312 601.256 773.633 597.151 775.184C581.025 781.275 564.75 786.092 547.829 789.472C514.163 796.197 480.131 793.121 447.999 781.254C439.965 778.287 431.473 774.827 424.323 770.047Z"/>
	<path fill="#00014A" transform="scale(0.292969 0.292969)" d="M223.578 614.063C223.688 612.431 223.648 610.596 224.25 609.07C228.104 611.5 230.633 615.721 233.75 618.976L254.612 639.884L281.717 663.881C286.282 667.709 291.573 671.04 295.668 675.354C292.65 690.663 293.909 705.885 302.829 719.068C311.66 732.119 325.053 738.296 340.094 740.992C351.171 742.978 363.467 739.446 373.456 734.785C383.975 745.411 395.929 752.911 408.495 760.839C412.589 763.422 417.025 765.834 420.877 768.75L420.75 769.334L417.243 769.947L259.012 770.13C248.929 770.242 240.071 768.888 232.625 761.477C228.39 757.262 225.422 752.178 224.292 746.266C223.45 741.864 223.937 736.725 223.944 732.227L223.956 705.449L223.578 614.063Z"/>
	<path fill="#043985" transform="scale(0.292969 0.292969)" d="M223.761 606.426L223.904 605.857C226.319 597.15 231.402 589.256 239.51 584.901C243.903 582.542 248.91 581.309 253.881 581.122L290.101 581.115L357.393 581.146L568.948 581.158L701.319 581.16L741.312 581.139L757.214 581.076C763.055 581.026 768.414 580.858 774.059 582.658C786.103 586.501 792.751 594.55 798.361 605.455C798.526 606.472 798.939 607.851 798.848 608.855L798.185 609.537C796.958 610.875 796.865 612.669 796.58 614.385C795.894 618.507 795.304 622.742 795.08 626.919C794.548 636.861 795.473 646.757 795.452 656.682L795.021 720.748L794.997 738.62C794.987 741.583 795.28 744.875 794.46 747.75C792.12 755.96 784.966 763.182 776.244 763.873C765.78 764.702 754.782 764.002 744.265 764.003L678.577 763.994L641.69 763.978C636.218 763.978 629.469 764.681 624.147 763.681C621.474 763.179 614.769 766.474 612.549 768.109L610.939 769.519L609.524 769.96L424.323 770.047L417.243 769.947L420.75 769.334L420.877 768.75C417.025 765.834 412.589 763.422 408.495 760.839C395.929 752.911 383.975 745.411 373.456 734.785C363.467 739.446 351.171 742.978 340.094 740.992C325.053 738.296 311.66 732.119 302.829 719.068C293.909 705.885 292.65 690.663 295.668 675.354C291.573 671.04 286.282 667.709 281.717 663.881L254.612 639.884L233.75 618.976C230.633 615.721 228.104 611.5 224.25 609.07C223.648 610.596 223.688 612.431 223.578 614.063C223.504 611.5 223.342 608.966 223.761 606.426Z"/>
	<path fill="#007AFC" transform="scale(0.292969 0.292969)" d="M630.852 721.564L631.932 721.607L631.487 721.143C630.973 720.565 630.807 720.217 630.576 719.502L631.293 717.773C631.919 718.171 631.99 718.365 632.753 718.321C635.1 718.186 637.287 718.638 639.567 719.107C640.524 719.303 641.303 719.072 642.173 719.211L643.097 719.523C644.122 719.843 644.626 719.759 645.673 719.711C646.69 719.665 647.287 719.748 648.247 720.017C649.998 720.507 651.684 720.218 653.507 720.782C654.596 721.118 656.206 720.464 657.326 720.749C658.015 720.925 657.966 721.353 658.81 721.312C660.174 721.247 662.715 720.965 663.976 721.284C664.64 721.451 664.506 721.847 665.335 721.801C666.276 721.749 667.105 721.923 668.004 722.165C668.756 722.368 669.407 722.239 670.173 722.211L671.673 722.211L672.443 722.189C673.241 722.189 673.609 722.381 674.353 722.558C675.709 722.88 676.956 722.825 678.326 722.749C680.33 723.928 683.176 723.203 685.326 723.749C686.031 723.929 685.946 724.34 686.808 724.299C687.754 724.253 688.578 724.417 689.482 724.661C690.257 724.87 689.988 724.767 691.003 724.766C692.222 724.766 692.347 725.106 693.384 725.346L694.476 725.285C695.166 725.305 695.825 725.484 696.482 725.661C697.257 725.87 696.988 725.767 698.003 725.766C699.222 725.766 699.343 726.093 700.384 726.346C700.693 726.421 701.175 726.3 701.477 726.285C702.722 726.221 703.402 726.86 704.359 726.808C705.555 726.742 705.904 726.989 707.021 727.284L707.907 727.376L709.157 728.362L710.024 728.074C710.857 727.809 711.247 727.765 712.103 727.987L712.929 728.189C708.373 733.689 702.445 737.523 696.114 740.649C687.06 745.12 675.832 745.976 665.973 744.275C652.054 741.874 638.957 733.048 630.852 721.564Z"/>
	<path fill="#007AFC" transform="scale(0.292969 0.292969)" d="M525.472 718.708C529.819 718.153 532.12 715.391 535.005 712.402C535.967 712.337 536.73 712.302 537.653 711.992C538.457 711.722 538.881 711.52 539.75 711.52L540.499 711.535C541.201 711.386 541.708 710.949 542.477 710.859C545.508 710.501 548.837 711.423 551.828 710.779C553.236 710.477 556.3 709.882 557.67 710.583C557.75 710.624 558.963 711.65 559.022 711.674C559.716 711.954 560.06 711.524 561 712L560.258 713.495L560.73 714.049C554.949 726.013 544.086 735.73 531.5 740.014C522.329 743.136 511.496 744.198 502 742.101C488.58 739.138 475.448 731.61 467.536 720.101L467.228 719.625L468.294 719.5L467.125 718.375C467.637 717.461 467.733 716.466 467.932 715.445L468.584 715.638L469.374 715.433L470.084 715.638L470.874 715.433C471.785 715.697 471.355 715.679 472.254 715.536C473.234 715.38 472.804 715.399 473.787 715.401C474.346 715.402 475.207 715.503 475.746 715.333L476.582 714.956L477.374 715.113L478.082 714.936L478.874 715.113L479.582 714.936L480.539 715.25L482.082 714.436L482.874 714.613C485.205 714.613 481.973 714.175 484.293 714.526C485.265 714.673 485.631 714.325 486.519 713.935L487.084 714.138L487.874 713.933C489.022 714.345 488.994 714.072 490.048 713.586L496.855 718.538L497.979 718.195C507.602 722.714 515.689 722.225 525.472 718.708Z"/>
	<defs>
		<linearGradient id="gradient_8" gradientUnits="userSpaceOnUse" x1="513.4071" y1="715.01373" x2="507.23068" y2="599.7287">
			<stop offset="0" stop-color="#0073F6"/>
			<stop offset="1" stop-color="#02C2FE"/>
		</linearGradient>
	</defs>
	<path fill="url(#gradient_8)" transform="scale(0.292969 0.292969)" d="M467.228 719.625L466.814 719.149C459.126 709.195 455.568 695.124 456.643 682.721C459.134 653.981 490.568 616.548 512.081 598.267C533.972 619.515 557.155 643.727 565.68 673.904C569.474 687.333 567.595 701.916 560.73 714.049L560.258 713.495L561 712C560.06 711.524 559.716 711.954 559.022 711.674C558.963 711.65 557.75 710.624 557.67 710.583C556.3 709.882 553.236 710.477 551.828 710.779C548.837 711.423 545.508 710.501 542.477 710.859C541.708 710.949 541.201 711.386 540.499 711.535L539.75 711.52C538.881 711.52 538.457 711.722 537.653 711.992C536.73 712.302 535.967 712.337 535.005 712.402C532.12 715.391 529.819 718.153 525.472 718.708C515.689 722.225 507.602 722.714 497.979 718.195L496.855 718.538L490.048 713.586C488.994 714.072 489.022 714.345 487.874 713.933L487.084 714.138L486.519 713.935C485.631 714.325 485.265 714.673 484.293 714.526C481.973 714.175 485.205 714.613 482.874 714.613L482.082 714.436L480.539 715.25L479.582 714.936L478.874 715.113L478.082 714.936L477.374 715.113L476.582 714.956L475.746 715.333C475.207 715.503 474.346 715.402 473.787 715.401C472.804 715.399 473.234 715.38 472.254 715.536C471.355 715.679 471.785 715.697 470.874 715.433L470.084 715.638L469.374 715.433L468.584 715.638L467.932 715.445C467.733 716.466 467.637 717.461 467.125 718.375L468.294 719.5L467.228 719.625Z"/>
	<path fill="#00D9FB" transform="scale(0.292969 0.292969)" d="M497.979 718.195C488.905 711.454 481.858 704.609 480.162 692.719C479.75 689.83 479.707 686.428 480.299 683.573C482.132 674.723 487.403 665.818 491.843 658.037C497.47 648.173 503.329 638.365 510.337 629.405L511.338 628.138L528.868 654.099C536.009 665.753 544.302 678.875 542.203 693.171C541.03 701.158 537.268 710.312 530.581 715.295L525.472 718.708C515.689 722.225 507.602 722.714 497.979 718.195Z"/>
	<path fill="#2BE7F4" transform="scale(0.292969 0.292969)" d="M511.624 646.355C513.99 649.185 515.575 653.007 517.377 656.216C522.028 664.496 527.782 672.801 529.728 682.25C530.888 687.888 530.243 693.483 526.968 698.309C523.035 704.103 518.241 705.341 511.763 706.533C508.122 706.184 504.739 706.024 501.566 703.981C496.998 701.041 493.935 695.751 492.842 690.499C492.002 686.466 492.813 682.627 493.973 678.75C497.503 666.944 504.787 656.456 511.624 646.355Z"/>
	<defs>
		<linearGradient id="gradient_9" gradientUnits="userSpaceOnUse" x1="669.39227" y1="723.88568" x2="684.4187" y2="602.73016">
			<stop offset="0" stop-color="#0071F9"/>
			<stop offset="1" stop-color="#01C0FE"/>
		</linearGradient>
	</defs>
	<path fill="url(#gradient_9)" transform="scale(0.292969 0.292969)" d="M630.852 721.564C622.774 711.951 619.129 696.951 620.21 684.637C620.909 676.679 623.949 668.572 627.348 661.408C635.798 643.601 649.106 626.821 662.338 612.29L670.117 604.198C671.23 603.083 672.576 601.383 673.871 600.524L674.601 600.224C685.51 611.658 695.623 623.208 704.919 636C717.599 653.447 728.158 672.242 727.56 694.417C727.258 705.637 721.289 719.385 713.602 727.577L712.929 728.189L712.103 727.987C711.247 727.765 710.857 727.809 710.024 728.074L709.157 728.362L707.907 727.376L707.021 727.284C705.904 726.989 705.555 726.742 704.359 726.808C703.402 726.86 702.722 726.221 701.477 726.285C701.175 726.3 700.693 726.421 700.384 726.346C699.343 726.093 699.222 725.766 698.003 725.766C696.988 725.767 697.257 725.87 696.482 725.661C695.825 725.484 695.166 725.305 694.476 725.285L693.384 725.346C692.347 725.106 692.222 724.766 691.003 724.766C689.988 724.767 690.257 724.87 689.482 724.661C688.578 724.417 687.754 724.253 686.808 724.299C685.946 724.34 686.031 723.929 685.326 723.749C683.176 723.203 680.33 723.928 678.326 722.749C676.956 722.825 675.709 722.88 674.353 722.558C673.609 722.381 673.241 722.189 672.443 722.189L671.673 722.211L670.173 722.211C669.407 722.239 668.756 722.368 668.004 722.165C667.105 721.923 666.276 721.749 665.335 721.801C664.506 721.847 664.64 721.451 663.976 721.284C662.715 720.965 660.174 721.247 658.81 721.312C657.966 721.353 658.015 720.925 657.326 720.749C656.206 720.464 654.596 721.118 653.507 720.782C651.684 720.218 649.998 720.507 648.247 720.017C647.287 719.748 646.69 719.665 645.673 719.711C644.626 719.759 644.122 719.843 643.097 719.523L642.173 719.211C641.303 719.072 640.524 719.303 639.567 719.107C637.287 718.638 635.1 718.186 632.753 718.321C631.99 718.365 631.919 718.171 631.293 717.773L630.576 719.502C630.807 720.217 630.973 720.565 631.487 721.143L631.932 721.607L630.852 721.564Z"/>
	<path fill="#00D9FB" transform="scale(0.292969 0.292969)" d="M674.172 630.75L675.5 631.021C680.975 636.655 685.411 643.456 689.727 649.995C694.477 657.191 699.632 664.83 702.433 673.041L704.979 682.167C706.423 690.067 704.985 698.941 700.232 705.541C694.148 713.99 686.836 716.784 676.85 718.549L674.987 718.545C666.951 718.406 659.098 715.057 653.552 709.189C647.272 702.544 644.09 694.378 644.484 685.25C645.095 671.125 655.448 656.878 663.001 645.5C666.181 640.709 669.94 634.624 674.172 630.75Z"/>
	<path fill="#2BE7F4" transform="scale(0.292969 0.292969)" d="M674.383 647.057C682.381 654.861 690.632 667.993 693.015 679.019C694.34 685.15 693.469 690.007 689.92 695.228C686.274 700.591 681.309 701.915 675.319 702.984C671.621 703.029 667.067 702.007 663.964 699.943C659.592 697.036 656.574 691.773 655.783 686.66C653.782 673.731 667.206 656.86 674.383 647.057Z"/>
	<path fill="#007AFC" transform="scale(0.292969 0.292969)" d="M295.668 675.354C305.045 645.062 325.848 621.181 347.979 599.245C365.865 615.865 383.02 634.786 394.521 656.5C399.195 665.324 403.152 674.863 403.476 685C403.902 698.336 399.189 712.241 389.871 721.93C385.053 726.941 379.489 731.318 373.456 734.785C363.467 739.446 351.171 742.978 340.094 740.992C325.053 738.296 311.66 732.119 302.829 719.068C293.909 705.885 292.65 690.663 295.668 675.354Z"/>
	<path fill="#00D9FB" transform="scale(0.292969 0.292969)" d="M348.911 630.133C353.309 634.611 357.158 639.803 360.914 644.824C369.166 655.858 376.609 667.543 378.86 681.379C380.216 689.712 378.012 697.692 373 704.5C366.673 713.093 359.581 715.085 349.482 716.651C341.472 716.551 334.791 715.448 328.567 709.923C322.469 704.51 318.307 697.13 317.95 688.877C317.352 675.032 326.323 660.856 333.807 649.75C338.428 642.894 343.285 636.206 348.911 630.133Z"/>
	<path fill="#2BE7F4" transform="scale(0.292969 0.292969)" d="M348.732 647.25L349.261 647.546C350.719 648.66 352.197 651.483 353.204 653.026C358.629 661.341 364.298 670.52 366.508 680.313C367.748 685.808 367.476 690.667 364.315 695.542C360.078 702.075 355.4 703.923 348.114 705.461C346.514 705.53 344.769 705.239 343.235 704.801C338.467 703.44 334.554 700.089 332.171 695.768C329.48 690.892 328.649 686.293 330.172 680.915L330.439 680C332.68 671.93 336.999 664.697 341.483 657.68C343.73 654.163 345.953 650.369 348.732 647.25Z"/>
</svg>
