<?xml version="1.0" encoding="utf-8" ?>
<svg xmlns="http://www.w3.org/2000/svg" xmlns:xlink="http://www.w3.org/1999/xlink" width="300" height="300">
	<path fill="#643F36" transform="scale(0.292969 0.292969)" d="M510.98 107.162C516.613 107.583 521.468 108.844 525.416 113.237C527.298 115.333 528.642 118.164 529.243 120.911C530.44 126.381 529.848 133.155 529.877 138.752C529.915 145.996 530.327 153.5 529.758 160.718L529.504 163.38L529.535 163.957L495.041 163.92L495.003 139.097C494.951 133.199 494.381 126.742 495.208 120.906C495.535 118.602 496.317 116.276 497.671 114.367C501.112 109.513 505.427 108.09 510.98 107.162Z"/>
	<path fill="#E9A05A" transform="scale(0.292969 0.292969)" d="M141.449 742.226L141.11 351.613L141.032 234.642L141.024 200.775C141.013 194.895 140.531 188.568 141.255 182.757L141.358 182C142.058 176.617 144.24 173.109 147.851 169.21C151.026 173.667 154.652 177.201 158.292 181.25C160.773 184.01 164.389 189.889 167.944 191.048C167.045 194.111 167.558 198.168 167.556 201.356L167.563 224.148L167.626 311.537L167.476 722.837L167.533 743.386C163.095 744.181 158.23 744.227 153.881 742.963L153.813 742.735C149.876 741.888 145.475 742.234 141.449 742.226Z"/>
	<path fill="#E9A05A" transform="scale(0.292969 0.292969)" d="M875.404 168.316C880.303 172.475 883.372 176.287 883.888 182.973L883.553 737.491L855.98 737.511L855.782 190.529C856.212 186.148 871.653 172.082 875.404 168.316Z"/>
	<path fill="#F1B784" transform="scale(0.292969 0.292969)" d="M147.851 169.21C151.562 166.286 155.171 164.707 159.86 164.199C171.882 162.894 184.58 163.821 196.69 163.819L266.002 163.797L495.041 163.92L529.535 163.957L772.837 163.97L832.672 163.894L852.492 163.869C857.415 163.868 862.445 163.656 867.25 164.867L868.125 165.083C870.738 165.758 873.09 166.953 875.404 168.316C871.653 172.082 856.212 186.148 855.782 190.529L167.944 191.048C164.389 189.889 160.773 184.01 158.292 181.25C154.652 177.201 151.026 173.667 147.851 169.21Z"/>
	<path fill="#64A063" transform="scale(0.292969 0.292969)" d="M642.735 784.07L686.546 784.041L697.983 802.26L722.376 838.816L737.137 860.535C739.184 863.638 742.553 867.983 743.378 871.623C744.464 873.077 744.564 873.771 746.5 873.979C750.328 874.389 754.572 874.078 758.434 874.102L784.102 874.169L863.036 874.093L879.429 873.856C884.965 873.651 890.587 873.238 896.068 874.272C900.409 875.091 903.837 877.369 906.831 880.532C910.795 884.718 912.697 890.001 912.528 895.739C912.339 902.125 909.83 907.768 905.145 912.122C901.981 915.063 898.494 916.429 894.25 917.07L893.46 917.195C887.439 918.071 880.661 917.509 874.56 917.497L837.483 917.434L696.015 917.446L278.973 917.526L176.324 917.445L147.821 917.41C140.127 917.395 132.035 917.824 124.5 916.108L123.754 915.945C119.175 914.88 115.014 911.313 112.535 907.413C111.232 905.362 110.553 903.341 109.978 901L109.801 900.299C109.01 896.848 109.357 892.318 110.33 888.952L110.522 888.254C112.038 882.98 115.829 878.544 120.68 876.045C123.836 874.42 127.548 873.859 131.055 873.608C135.143 873.315 139.227 873.837 143.302 874.019L157.302 874.102L237.449 874.069L262.971 873.944C268.187 873.907 273.519 874.055 278.711 873.508C279.025 871.212 280.008 869.084 281.137 867.076C285.522 859.276 291.107 851.951 296.042 844.465L327.046 796.638L354.733 796.473C358.76 796.457 363.456 795.971 367.38 796.591C368.436 795.682 369.423 793.782 370.249 792.587L376.355 783.743C380.806 784.289 385.525 784 390.016 784.005L414.351 784.026L495.063 784.062L527.985 784.039L642.735 784.07ZM642.735 784.07L527.985 784.039L495.063 784.062L495.107 807.763L494.91 873.45C495.752 879.114 496.683 884.296 501.714 887.838C504.286 889.648 506.95 890.062 509.849 891.005C511.917 890.979 513.803 890.911 515.79 890.289L516.5 890.055C518.159 889.517 519.503 888.861 520.919 887.832C525.783 884.298 527.152 879.979 528.072 874.345L702.889 873.89C706.872 879.2 709.557 885.022 714.665 889.487C718.522 892.857 723.435 894.162 728.491 893.638C732.86 893.185 736.946 890.824 739.704 887.425C743.574 882.653 743.902 877.447 743.378 871.623C742.553 867.983 739.184 863.638 737.137 860.535L722.376 838.816L697.983 802.26L686.546 784.041L642.735 784.07ZM376.355 783.743L370.249 792.587C369.423 793.782 368.436 795.682 367.38 796.591C363.456 795.971 358.76 796.457 354.733 796.473L327.046 796.638L296.042 844.465C291.107 851.951 285.522 859.276 281.137 867.076C280.008 869.084 279.025 871.212 278.711 873.508C279.815 879.827 280.056 884.612 285.707 888.879C289.015 891.377 294.286 892.238 298.291 891.513C306.117 890.096 310.344 883.189 314.365 877.064L316.691 873.492L494.91 873.45L495.107 807.763L495.063 784.062L414.351 784.026L390.016 784.005C385.525 784 380.806 784.289 376.355 783.743Z"/>
	<path fill="#BB7041" transform="scale(0.292969 0.292969)" d="M327.046 796.638L354.733 796.473C358.76 796.457 363.456 795.971 367.38 796.591L316.691 873.492L314.365 877.064C310.344 883.189 306.117 890.096 298.291 891.513C294.286 892.238 289.015 891.377 285.707 888.879C280.056 884.612 279.815 879.827 278.711 873.508C279.025 871.212 280.008 869.084 281.137 867.076C285.522 859.276 291.107 851.951 296.042 844.465L327.046 796.638Z"/>
	<path fill="#8D5030" transform="scale(0.292969 0.292969)" d="M495.063 784.062L527.985 784.039L527.906 798.356L528.072 874.345C527.152 879.979 525.783 884.298 520.919 887.832C519.503 888.861 518.159 889.517 516.5 890.055L515.79 890.289C513.803 890.911 511.917 890.979 509.849 891.005C506.95 890.062 504.286 889.648 501.714 887.838C496.683 884.296 495.752 879.114 494.91 873.45L495.107 807.763L495.063 784.062Z"/>
	<path fill="#643F36" transform="scale(0.292969 0.292969)" d="M495.063 784.062L527.985 784.039L527.906 798.356L528.072 874.345C527.152 879.979 525.783 884.298 520.919 887.832C519.503 888.861 518.159 889.517 516.5 890.055L515.79 890.289C513.803 890.911 511.917 890.979 509.849 891.005C512.521 887.737 515.9 885.229 517.159 881.025C518.316 877.16 518.01 872.708 518.011 868.716L518.004 850.328L517.938 798.438L517.503 798.488C510.352 799.222 502.575 798.484 495.364 798.465C495.376 801.385 495.736 804.943 495.107 807.763L495.063 784.062Z"/>
	<path fill="#BB7041" transform="scale(0.292969 0.292969)" d="M642.735 784.07L686.546 784.041L697.983 802.26L722.376 838.816L737.137 860.535C739.184 863.638 742.553 867.983 743.378 871.623C743.902 877.447 743.574 882.653 739.704 887.425C736.946 890.824 732.86 893.185 728.491 893.638C723.435 894.162 718.522 892.857 714.665 889.487C709.557 885.022 706.872 879.2 702.889 873.89L649.469 794.141C649.026 794.033 643.365 785.011 642.735 784.07Z"/>
	<path fill="#8D5030" transform="scale(0.292969 0.292969)" d="M642.735 784.07L686.546 784.041L697.983 802.26C691.474 800.463 684.023 799.817 677.326 798.643L659.443 795.507C656.17 794.946 652.796 794.05 649.469 794.141C649.026 794.033 643.365 785.011 642.735 784.07Z"/>
	<path fill="#4B4654" transform="scale(0.292969 0.292969)" d="M167.944 191.048L855.782 190.529L855.98 737.511L883.553 737.491L883.561 743.545L883.446 763.433C882.913 770.35 884.661 778.266 878.812 783.132C878.159 783.676 876.943 784.695 876.147 784.966C874.931 785.378 870.5 784.661 868.953 784.617L849.233 784.539L686.546 784.041L642.735 784.07L527.985 784.039L495.063 784.062L414.351 784.026L390.016 784.005C385.525 784 380.806 784.289 376.355 783.743L370.249 792.587C369.423 793.782 368.436 795.682 367.38 796.591C363.456 795.971 358.76 796.457 354.733 796.473L327.046 796.638L334.736 784.554L334.454 783.801L332.814 783.939L294.413 783.972L218.607 783.961L175.234 783.928C167.937 783.919 160.152 784.453 152.904 783.757C149.983 783.476 147.821 782.857 145.675 780.735C139.666 774.792 141.472 765.177 141.52 757.601L141.449 742.226C145.475 742.234 149.876 741.888 153.813 742.735L153.881 742.963C158.23 744.227 163.095 744.181 167.533 743.386L167.476 722.837L167.626 311.537L167.563 224.148L167.556 201.356C167.558 198.168 167.045 194.111 167.944 191.048Z"/>
	<path fill="#2B3140" transform="scale(0.292969 0.292969)" d="M167.944 191.048L855.782 190.529L855.98 737.511L855.949 743.519L851.886 743.42L851.815 743.299L847.032 743.181L847.021 200.803L316.369 200.546L212.418 200.494L186.781 200.479C183.954 200.478 179.542 199.912 176.973 200.755L177.059 722.267C174.471 723.156 170.287 722.753 167.476 722.837L167.626 311.537L167.563 224.148L167.556 201.356C167.558 198.168 167.045 194.111 167.944 191.048Z"/>
	<path fill="#F1B784" transform="scale(0.292969 0.292969)" d="M855.98 737.511L883.553 737.491L883.561 743.545L883.446 763.433C882.913 770.35 884.661 778.266 878.812 783.132C878.159 783.676 876.943 784.695 876.147 784.966C874.931 785.378 870.5 784.661 868.953 784.617L849.233 784.539L686.546 784.041L642.735 784.07L527.985 784.039L495.063 784.062L414.351 784.026L390.016 784.005C385.525 784 380.806 784.289 376.355 783.743L370.249 792.587C369.423 793.782 368.436 795.682 367.38 796.591C363.456 795.971 358.76 796.457 354.733 796.473L327.046 796.638L334.736 784.554L334.454 783.801L332.814 783.939L294.413 783.972L218.607 783.961L175.234 783.928C167.937 783.919 160.152 784.453 152.904 783.757C149.983 783.476 147.821 782.857 145.675 780.735C139.666 774.792 141.472 765.177 141.52 757.601L141.449 742.226C145.475 742.234 149.876 741.888 153.813 742.735L153.881 742.963C158.23 744.227 163.095 744.181 167.533 743.386L851.886 743.42L855.949 743.519L855.98 737.511Z"/>
	<path fill="#BB7041" transform="scale(0.292969 0.292969)" d="M855.98 737.511L883.553 737.491L883.561 743.545L855.949 743.519L855.98 737.511Z"/>
	<path fill="#BB7041" transform="scale(0.292969 0.292969)" d="M141.449 742.226C145.475 742.234 149.876 741.888 153.813 742.735L153.881 742.963C150.42 743.569 147.92 745.934 145.912 748.699C144.431 750.739 143.453 753.158 142.443 755.457C143.369 760.278 144.218 764.217 148.486 767.208C150.458 768.591 152.845 769.663 155.262 769.913C163.318 770.748 172.225 770.053 180.394 770.074L234.442 770.189L425.899 770.266L781.468 770.621L849.999 770.511L866.439 770.503C869.244 770.503 872.589 770.89 875.309 770.271C878.762 769.485 881.559 766.18 883.446 763.433C882.913 770.35 884.661 778.266 878.812 783.132C878.159 783.676 876.943 784.695 876.147 784.966C874.931 785.378 870.5 784.661 868.953 784.617L849.233 784.539L686.546 784.041L642.735 784.07L527.985 784.039L495.063 784.062L414.351 784.026L390.016 784.005C385.525 784 380.806 784.289 376.355 783.743L370.249 792.587C369.423 793.782 368.436 795.682 367.38 796.591C363.456 795.971 358.76 796.457 354.733 796.473L327.046 796.638L334.736 784.554L334.454 783.801L332.814 783.939L294.413 783.972L218.607 783.961L175.234 783.928C167.937 783.919 160.152 784.453 152.904 783.757C149.983 783.476 147.821 782.857 145.675 780.735C139.666 774.792 141.472 765.177 141.52 757.601L141.449 742.226Z"/>
	<path fill="#8D5030" transform="scale(0.292969 0.292969)" d="M334.454 783.801C338.311 782.785 342.19 783.004 346.132 783.084L361.789 783.422C366.132 783.459 372.286 782.731 376.355 783.743L370.249 792.587C369.423 793.782 368.436 795.682 367.38 796.591C363.456 795.971 358.76 796.457 354.733 796.473L327.046 796.638L334.736 784.554L334.454 783.801Z"/>
	<path fill="#278C96" transform="scale(0.292969 0.292969)" d="M191.827 663.647L191.449 212.747L767.688 212.888C763.006 218.707 754.67 223.498 748.598 228.022L713.63 254.106L586.074 350.962L555.894 374.222L542.471 384.75C538.666 387.787 533.834 392.18 529.024 393.414L528.489 395.633L527.225 399.38C524.735 403.655 521.343 407.84 516.25 409C512.904 409.762 509.786 409.546 506.5 408.631L505.911 408.472C503.889 407.89 502.074 406.612 500.376 405.395L496.271 400.979L458 423.506C450.138 428.15 441.953 433.74 433.524 437.232C435.072 439.707 437.051 441.983 438.037 444.75L438.289 445.443C439.116 447.86 439.133 450.24 439.191 452.761C437.22 457.569 434.528 461.859 429.536 463.942L425.573 465.39L419.998 465.441L419.992 476.52C418.478 476.704 417.492 476.997 416.193 477.831C408.931 482.495 402.115 488.894 395.363 494.317L359.745 522.75C350.979 529.937 341.893 539.979 330.958 543.585C330.104 543.684 327.884 543.64 327.396 544.32C326.14 546.068 326.497 550.329 326.517 552.55C326.782 558.71 327.314 564.89 326.374 571.015L315.29 570.915L289.423 570.989L289.434 553.652C289.428 550.764 289.84 547.304 288.889 544.559C287.695 543.974 287.405 544.027 286.061 544.127C284.123 546.688 285.035 553.897 285.07 557.184L285.211 586.318C284.074 586.593 282.952 586.955 282.004 587.663C278.55 590.245 275.382 593.501 272.112 596.337L254.52 611.205L211.034 647.775L199 657.914C196.75 659.815 194.37 662.205 191.827 663.647Z"/>
	<path fill="#FEFEFE" transform="scale(0.292969 0.292969)" d="M510.008 376.076L509.94 345.5C509.891 340.771 509.303 335.78 509.671 331.085C509.785 329.637 509.854 328.428 510.7 327.202L512.75 327.027L513.679 327.928C514.736 333.279 514.036 339.497 513.98 344.98L513.649 375.945L510.008 376.076Z"/>
	<path fill="#1C8581" transform="scale(0.292969 0.292969)" d="M315.29 570.915C312.046 569.936 307.866 570.284 304.487 570.21L304.864 569.514C306.819 566.757 309.924 564.671 312.5 562.546C316.637 559.134 321.216 553.805 326.517 552.55C326.782 558.71 327.314 564.89 326.374 571.015L315.29 570.915Z"/>
	<path fill="#FEFEFE" transform="scale(0.292969 0.292969)" d="M345.169 395.25C350.922 395.493 402.24 426.619 410.951 431.505L408.75 433.979L407.719 434.563C403.692 433.398 399.588 430.94 395.85 429.005L364.087 411.114L352.547 404.597C349.383 402.894 345.538 401.365 343.055 398.75C343.483 397.264 344.203 396.406 345.169 395.25Z"/>
	<path fill="#FEFEFE" transform="scale(0.292969 0.292969)" d="M413.586 436.46C412.949 434.688 412.028 433.088 411.126 431.44C415.216 429.407 419.509 426.962 424.25 427.528C427.618 427.931 429.709 429.82 431.643 432.387L432.114 433.018C439.827 429.692 446.756 424.73 454 420.504L494.571 397.07C495.052 398.418 495.452 399.791 496.271 400.979L458 423.506C450.138 428.15 441.953 433.74 433.524 437.232C430.088 435.216 425.985 433.646 421.955 434.294L421.25 434.418C418.622 434.854 416.125 435.67 413.586 436.46Z"/>
	<path fill="#FEFEFE" transform="scale(0.292969 0.292969)" d="M507.567 262.598C513.757 262.266 519.249 263.087 524.75 266.083C527.176 267.404 530.763 269.506 531.554 272.25L530.956 273.25C530.554 273.485 530.208 273.873 529.75 273.956C529.582 273.986 529.419 273.865 529.261 273.8C527.634 273.134 526.101 271.642 524.676 270.606C520.433 267.522 515.816 266.259 510.618 266.374C503.74 266.527 497.033 269.562 492.308 274.616C487.844 279.392 485.921 285.349 486.175 291.835C486.452 298.907 489.767 304.616 494.997 309.226C500.994 314.512 506.579 314.984 514.113 314.448C516.807 313.915 519.709 313.281 522.162 312.019C524.865 310.628 527.732 307.23 530.75 307.001C531.476 308.017 531.766 308.49 531.799 309.75C528.663 313.586 523.547 316.219 518.853 317.553C510.919 319.808 502.885 318.46 495.75 314.471C489.587 311.025 485.194 304.687 483.33 297.964C481.366 290.883 482.692 282.641 486.426 276.332C491.284 268.123 498.731 264.876 507.567 262.598Z"/>
	<path fill="#FEFEFE" transform="scale(0.292969 0.292969)" d="M287.282 349.75C287.912 349.759 288.625 349.933 289.25 350.033C290.538 352.364 290.159 356.34 290.17 359L289.997 380.11L326.819 379.959L327.063 350.75L328 349.908C329.517 349.774 329.594 349.705 330.864 350.516C331.396 354.989 331.623 412.142 330.769 413.889C330.459 414.524 329.378 414.669 328.75 414.899L327.469 414.506C326.103 411.609 326.863 388.686 326.846 384.007L289.998 384.008C290.219 392.029 290.627 400.138 290.208 408.154C290.117 409.907 290.304 412.825 289.343 414.25C287.914 414.441 287.568 414.524 286.25 413.993C285.562 412.275 285.812 409.974 285.812 408.131L285.808 395.328C285.806 380.598 284.883 365.168 286.15 350.526L287.282 349.75Z"/>
	<path fill="#A74893" transform="scale(0.292969 0.292969)" d="M413.586 436.46C416.125 435.67 418.622 434.854 421.25 434.418L421.955 434.294C425.985 433.646 430.088 435.216 433.524 437.232C435.072 439.707 437.051 441.983 438.037 444.75L438.289 445.443C439.116 447.86 439.133 450.24 439.191 452.761C437.22 457.569 434.528 461.859 429.536 463.942L425.573 465.39L419.998 465.441C416.378 464.32 412.362 462.287 409.786 459.442C407.248 456.64 405.776 452.784 406.044 449C406.47 442.996 409.267 440.114 413.586 436.46Z"/>
	<path fill="#C07FAD" transform="scale(0.292969 0.292969)" d="M419.127 437.603C422.082 437.262 424.816 437.193 427.664 438.15C431.081 439.298 434.558 442.217 435.947 445.622C437.132 448.528 436.247 452.034 434.956 454.75C433.08 458.696 429.822 460.689 425.84 462.045C423.349 462.792 419.23 462.165 416.844 461.138C413.888 459.865 410.962 456.711 409.873 453.699C408.787 450.692 408.613 446.754 410.172 443.866C411.936 440.6 415.768 438.708 419.127 437.603Z"/>
	<path fill="#A74893" transform="scale(0.292969 0.292969)" d="M513.649 375.945C518.666 377.471 523.606 379.12 526.331 384.031C527.972 386.99 528.604 390.108 529.024 393.414L528.489 395.633L527.225 399.38C524.735 403.655 521.343 407.84 516.25 409C512.904 409.762 509.786 409.546 506.5 408.631L505.911 408.472C503.889 407.89 502.074 406.612 500.376 405.395L496.271 400.979C495.452 399.791 495.052 398.418 494.571 397.07C494.17 392.174 494.371 388.083 497.054 383.75C499.867 379.205 505.082 377.285 510.008 376.076L513.649 375.945Z"/>
	<path fill="#C07FAD" transform="scale(0.292969 0.292969)" d="M508.749 379.074C511.97 378.881 515.494 379.208 518.516 380.416C521.557 381.632 523.821 384.63 524.956 387.621C526.436 391.519 525.226 396.128 523.492 399.75C521.629 403.643 518.104 405.09 514.25 406.471C510.981 406.565 508.405 406.42 505.278 405.265C501.653 403.926 499.851 400.622 498.388 397.258C497.034 394.147 497.025 390.252 498.406 387.131C500.477 382.451 504.228 380.708 508.749 379.074Z"/>
	<path fill="#1C8581" transform="scale(0.292969 0.292969)" d="M767.688 212.888L831.218 212.491L831.481 722.01L191.954 722.884L191.732 681.703C191.713 676.015 190.98 669.214 191.827 663.647C194.37 662.205 196.75 659.815 199 657.914L211.034 647.775L254.52 611.205L272.112 596.337C275.382 593.501 278.55 590.245 282.004 587.663C282.952 586.955 284.074 586.593 285.211 586.318L285.07 557.184C285.035 553.897 284.123 546.688 286.061 544.127C287.405 544.027 287.695 543.974 288.889 544.559C289.84 547.304 289.428 550.764 289.434 553.652L289.423 570.989L315.29 570.915L326.374 571.015C327.314 564.89 326.782 558.71 326.517 552.55C326.497 550.329 326.14 546.068 327.396 544.32C327.884 543.64 330.104 543.684 330.958 543.585C341.893 539.979 350.979 529.937 359.745 522.75L395.363 494.317C402.115 488.894 408.931 482.495 416.193 477.831C417.492 476.997 418.478 476.704 419.992 476.52L419.998 465.441L425.573 465.39L429.536 463.942C434.528 461.859 437.22 457.569 439.191 452.761C439.133 450.24 439.116 447.86 438.289 445.443L438.037 444.75C437.051 441.983 435.072 439.707 433.524 437.232C441.953 433.74 450.138 428.15 458 423.506L496.271 400.979L500.376 405.395C502.074 406.612 503.889 407.89 505.911 408.472L506.5 408.631C509.786 409.546 512.904 409.762 516.25 409C521.343 407.84 524.735 403.655 527.225 399.38L528.489 395.633L529.024 393.414C533.834 392.18 538.666 387.787 542.471 384.75L555.894 374.222L586.074 350.962L713.63 254.106L748.598 228.022C754.67 223.498 763.006 218.707 767.688 212.888Z"/>
	<path fill="#FEFEFE" transform="scale(0.292969 0.292969)" d="M528.489 395.633C542.117 401.694 555.368 408.848 568.477 415.954C574.125 419.016 580.309 421.67 585.25 425.811L585.521 426.75C584.626 428.06 584.583 428.6 583 428.985L527.225 399.38L528.489 395.633Z"/>
	<path fill="#FEFEFE" transform="scale(0.292969 0.292969)" d="M755.638 369.566C760.026 369.05 763.76 369.313 767.285 372.186C770.323 374.662 771.744 378.399 771.883 382.25C772.254 392.55 759.189 402.755 752.498 409.32C756.656 409.759 770.728 408.315 773.25 409.857L773.462 411.5L772.819 412.298L752.875 412.518C750.67 412.696 749.405 412.746 747.602 411.45C747.613 410.992 747.51 410.515 747.637 410.074C748.053 408.63 751.302 405.897 752.393 404.801C757.273 399.9 763.545 394.805 766.907 388.75C768.507 385.868 769.523 382.372 768.398 379.155C767.57 376.788 765.475 374.589 763.25 373.486C761.031 372.386 757.808 372.158 755.499 373.075C751.742 374.567 751.04 377.989 749.459 381.25C748.15 381.556 748.384 381.403 747.322 380.75C746.98 379.625 747.094 378.913 747.436 377.818C748.805 373.421 751.847 371.631 755.638 369.566Z"/>
	<path fill="#FEFEFE" transform="scale(0.292969 0.292969)" d="M675.191 391.25L676.015 391.523C677.047 392.925 677.349 393.514 677.479 395.25C676.664 396.964 673.179 398.59 671.493 399.618L647.25 413.163C635.993 419.317 625.252 426.045 613.552 431.381L611.069 426.914C612.644 425.512 615.043 424.525 616.91 423.508L627 417.931L657.387 401.033C663.263 397.758 669.111 394.108 675.191 391.25Z"/>
	<path fill="#FEFEFE" transform="scale(0.292969 0.292969)" d="M709.289 542.6C715.878 542.236 722.569 544.289 728 548.083C729.822 549.357 732.009 551.193 732.406 553.5L731.407 554.75C730.938 554.823 730.465 555.065 730 554.969C729.635 554.894 728.333 553.574 727.968 553.268C722.821 548.947 717.924 545.983 710.962 546.089C704.677 546.185 698.856 548.689 694.566 553.283C690.492 557.645 688.667 563.862 688.993 569.75C689.294 575.194 692.022 580.649 696.132 584.256C702.124 589.514 707.959 589.959 715.504 589.492C718.059 588.701 720.647 587.982 722.979 586.63C725.495 585.171 727.942 582.132 730.75 581.525C731.577 582.253 732.146 582.663 732.447 583.75C729.313 588.385 724.095 590.762 718.845 592.225C711.643 594.233 703.733 593.453 697.202 589.675C691.407 586.322 687.192 580.166 685.635 573.733C684.046 567.173 685.415 560.288 688.999 554.64C693.758 547.14 701.038 544.386 709.289 542.6Z"/>
	<path fill="#8ACCDB" transform="scale(0.292969 0.292969)" d="M721.95 615.91C728.287 614.167 737.436 615.352 744.011 615.521C744.518 616.774 744.328 618.439 744.335 619.799C744.353 623.201 744.896 628.129 743.616 631.292L743.382 631.75L744.507 633.991L743.535 634.598C735.794 634.315 727.566 635.143 719.913 634.123C720.108 633.069 720.54 631.745 720.199 630.718C719.942 629.942 720.136 629.456 720.308 628.675L720.602 616.5L721.95 615.91Z"/>
	<path fill="#FEFEFE" transform="scale(0.292969 0.292969)" d="M721.95 615.91L724.25 616.156C725.598 620.077 724.799 625.17 724.476 629.25C723.168 630.268 722.377 630.066 720.75 630.148L720.308 628.675L720.602 616.5L721.95 615.91Z"/>
	<path fill="#FEFEFE" transform="scale(0.292969 0.292969)" d="M326.517 552.55C326.497 550.329 326.14 546.068 327.396 544.32C327.884 543.64 330.104 543.684 330.958 543.585L330.965 584.036L330.953 596.023C330.947 598.459 331.179 601.522 330.25 603.784C329.098 603.97 328.484 604.122 327.418 603.587C326.104 601.08 326.717 596.284 326.754 593.409L326.724 575.268L289.382 575.269C289.403 579.728 290.492 601.293 288.468 603.868L286 603.883C283.902 600.65 285.166 590.427 285.211 586.318L285.07 557.184C285.035 553.897 284.123 546.688 286.061 544.127C287.405 544.027 287.695 543.974 288.889 544.559C289.84 547.304 289.428 550.764 289.434 553.652L289.423 570.989L315.29 570.915L326.374 571.015C327.314 564.89 326.782 558.71 326.517 552.55Z"/>
	<path fill="#278C96" transform="scale(0.292969 0.292969)" d="M496.271 400.979L500.376 405.395L439.191 452.761C439.133 450.24 439.116 447.86 438.289 445.443L438.037 444.75C437.051 441.983 435.072 439.707 433.524 437.232C441.953 433.74 450.138 428.15 458 423.506L496.271 400.979Z"/>
	<path fill="#CF4456" transform="scale(0.292969 0.292969)" d="M496.416 548.252C499.91 544.2 502.867 541.624 508.25 540.448L508.908 540.294C512.228 539.573 516.066 540.759 518.915 542.541C520.985 543.836 522.924 546.544 524.189 548.591L526.491 554.494C526.773 556.436 526.802 558.299 526.544 560.25C526.042 564.056 523.489 567.739 520.383 569.918C517.083 572.233 513.259 573.326 509.246 572.674L508.5 572.543C504.86 571.948 502.019 570.892 499.25 568.359C495.089 564.554 494.547 559.866 494.432 554.571L496.416 548.252Z"/>
	<path fill="#DB6168" transform="scale(0.292969 0.292969)" d="M509.507 543.057C512.047 542.907 515.26 543.432 517.484 544.763C520.219 546.398 522.251 549.139 523.013 552.21L523.185 552.944C524.004 556.35 524.024 559.739 522.318 562.902C519.856 567.463 516.909 568.399 512.217 569.713C509.702 569.451 507.103 568.839 504.75 567.913C501.321 566.564 499.092 563.409 497.75 560.104C496.549 557.144 497.169 553.556 498.573 550.75C500.909 546.084 504.824 544.487 509.507 543.057Z"/>
	<path fill="#E9A05A" transform="scale(0.292969 0.292969)" d="M744.507 633.991L746.75 634.331C753.709 636.07 759.743 642.932 763.046 648.983C767.168 656.532 768.495 664.594 766.614 673L766.441 673.816C764.548 682.455 758.618 690.568 751.197 695.286C747.615 697.562 744.125 698.714 740.091 699.841C732.275 702.025 722.373 700.291 715.406 696.249C707.233 691.507 701.128 684.085 698.504 675L698.249 674.136C696.999 669.627 697.392 664.871 698.331 660.344C699.581 664.525 699.701 668.906 701.204 673.052L701.462 673.75C704.123 681.156 709.323 686.93 716.304 690.487C723.534 694.171 731.632 693.593 739.142 691.054C746.244 688.652 752.105 683.327 755.25 676.518C758.826 668.775 759.852 660.654 756.715 652.534C755.532 649.473 754.237 646.777 752.475 644C750.204 640.422 746.76 637.333 743.535 634.598L744.507 633.991Z"/>
	<path fill="#FEFEFE" transform="scale(0.292969 0.292969)" d="M419.998 465.441L425.573 465.39L425.518 509.559L496.416 548.252L494.432 554.571C486.327 551.26 478.454 545.723 470.762 541.43L422.08 514.516L345.181 558.54L342.233 553.507L419.956 508.619L419.992 476.52L419.998 465.441Z"/>
	<path fill="#FEFEFE" transform="scale(0.292969 0.292969)" d="M524.189 548.591L596.129 509.993L596.316 453.546L595.535 453.281C591.061 451.739 587.988 449.58 585.816 445.256C584.054 441.747 583.732 437.38 584.988 433.645C586.373 429.53 589.9 426.32 593.75 424.498C596.852 423.03 600.506 422.859 603.737 424.027C607.209 425.282 610.936 427.771 612.532 431.221C614.418 435.3 614.693 440.289 612.964 444.465C611.3 448.487 608.07 450.419 604.5 452.478C604.254 452.62 602.131 453.701 602.04 453.879C601.742 454.46 602.162 505.508 602.159 510.887L680.806 556.463C680.18 557.992 679.697 559.731 678.5 560.882C670.729 558.2 663.237 552.712 656.027 548.655L607.5 521.591C604.848 520.148 602.229 518.631 599.483 517.373C599.034 517.167 597.843 516.458 597.431 516.469C597.092 516.479 595.714 517.182 595.385 517.344L578.599 526.519L552.526 540.701C544.073 545.513 535.632 551.081 526.491 554.494L524.189 548.591Z"/>
	<path fill="#FEFEFE" transform="scale(0.292969 0.292969)" d="M704.003 346.197C710.354 346.515 715.826 347.592 721 351.511C727.065 356.106 731.616 362.697 732.555 370.386C733.462 377.815 731.665 385.554 726.807 391.379C721.795 397.386 714.471 400.488 706.859 401.325C698.991 400.869 693.693 399.498 687.374 394.389C681.818 389.896 678.838 382.596 678.159 375.641C677.474 368.615 680.047 361.153 684.585 355.809C689.616 349.883 696.325 346.783 704.003 346.197Z"/>
	<path fill="#1C8581" transform="scale(0.292969 0.292969)" d="M702.278 351.066C706.654 350.369 711.804 351.096 715.73 353.137C721.625 356.2 726.281 361.754 728.041 368.202C729.701 374.283 728.568 380.459 725.439 385.871C721.697 392.342 715.507 395.11 708.608 397.006L708.105 397.195C703.574 398.479 697.491 396.351 693.599 394.098C688.158 390.948 684.109 385.407 682.68 379.299C681.212 373.028 682.353 365.965 686.014 360.631C689.987 354.841 695.647 352.464 702.278 351.066Z"/>
	<path fill="#FEFEFE" transform="scale(0.292969 0.292969)" d="M505.871 604.559C508.987 604.476 511.907 604.549 515 604.927C519.033 605.419 522.702 606.838 526.126 609.024C532.17 612.883 536.884 619.093 538.267 626.211C539.695 633.555 538.374 641.678 533.924 647.811C529.779 653.525 523.627 657.631 516.631 658.771C512.623 659.211 508.616 659.397 504.656 658.451C497.172 656.663 491.053 651.953 487.154 645.378C483.712 639.571 482.398 632.388 484.215 625.827L484.457 625C485.11 622.728 485.929 620.606 487.015 618.5C491.147 610.482 497.662 607.262 505.871 604.559Z"/>
	<path fill="#1C8581" transform="scale(0.292969 0.292969)" d="M510.873 608.182C515.398 607.784 519.936 609.517 523.719 611.863C529.027 615.155 533.2 620.418 534.543 626.593C535.955 633.086 534.792 639.648 531.043 645.191C526.711 651.599 520.125 654.167 512.826 655.607C507.093 655.286 501.824 653.994 497.13 650.568C491.992 646.819 488.413 641.379 487.476 635.035C486.564 628.859 488.058 622.612 491.838 617.609C496.596 611.312 503.308 609.196 510.873 608.182Z"/>
	<path fill="#F1B784" transform="scale(0.292969 0.292969)" d="M719.913 634.123C727.566 635.143 735.794 634.315 743.535 634.598C746.76 637.333 750.204 640.422 752.475 644C754.237 646.777 755.532 649.473 756.715 652.534C759.852 660.654 758.826 668.775 755.25 676.518C752.105 683.327 746.244 688.652 739.142 691.054C731.632 693.593 723.534 694.171 716.304 690.487C709.323 686.93 704.123 681.156 701.462 673.75L701.204 673.052C699.701 668.906 699.581 664.525 698.331 660.344C699.041 656.337 700.422 652.271 702.403 648.71C706.169 641.941 712.516 636.374 719.913 634.123Z"/>
	<path fill="#FEFEFE" transform="scale(0.292969 0.292969)" d="M715.877 644.75L718 644.555C719.237 645.127 720.059 645.561 720.75 646.784C721.366 647.872 721.369 648.977 720.984 650.134C719.883 653.441 716.684 655.939 713.75 657.557L712.492 657.973C710.868 657.728 710.245 656.97 709.161 655.851C708.665 653.781 708.676 653.065 709.476 651C710.686 647.877 712.946 646.15 715.877 644.75Z"/>
</svg>
