<?xml version="1.0" encoding="utf-8" ?>
<svg xmlns="http://www.w3.org/2000/svg" xmlns:xlink="http://www.w3.org/1999/xlink" width="300" height="300">
	<path fill="#E68A30" transform="scale(0.292969 0.292969)" d="M224.217 202.639C232.005 205.042 239.085 209.467 243.005 216.844C246.424 223.278 247.261 230.559 245.697 237.623L245.545 238.384C244.133 245.183 239.513 250.314 234.004 254.209C233.58 254.509 231.627 255.669 231.443 255.991C231.099 256.593 231.324 260.556 231.303 261.436C231.128 268.958 230.911 276.732 231.336 284.242L231.182 308.717C231.165 310.038 231.541 313.364 231.102 314.5C230.96 314.87 230.618 315.127 230.375 315.441L221.861 315.362L222.363 250.07L220.639 249.793C222.538 249.582 224.415 249.108 226.162 248.321C230.672 246.289 234.508 242.166 236.164 237.502C238.061 232.162 237.432 226.549 234.881 221.541C232.435 216.738 228.424 214.045 223.46 212.312L224.217 202.639Z"/>
	<path fill="#E68A30" transform="scale(0.292969 0.292969)" d="M511.976 76.1895C524.995 76.9248 535.346 80.8693 544.098 90.9345C550.858 98.7085 553.411 110.514 552.519 120.541C552.13 124.902 550.596 129.393 549.065 133.478L549.033 167.485L548.77 201.424C538.688 191.578 526.449 187.169 512.674 185.943C512.324 182.487 512.868 179.197 512.967 175.75L512.975 155.545L511.984 155.414C512.31 152.864 512.04 150.038 512.037 147.451L512.022 131.222L511.976 76.1895Z"/>
	<path fill="#0B244A" transform="scale(0.292969 0.292969)" d="M512.975 155.545L519.111 154.645C533.199 152.417 541.042 144.559 549.065 133.478L549.033 167.485L548.77 201.424C538.688 191.578 526.449 187.169 512.674 185.943C512.324 182.487 512.868 179.197 512.967 175.75L512.975 155.545Z"/>
	<path fill="#F2BC45" transform="scale(0.292969 0.292969)" d="M474.338 133.733C473.417 130.448 472.081 127.334 471.448 123.964L471.298 123.127L470.563 117.181C470.198 106.801 473.888 96.3164 481.093 88.7724C489.927 79.522 499.584 76.6011 511.976 76.1895L512.022 131.222L512.037 147.451C512.04 150.038 512.31 152.864 511.984 155.414L512.975 155.545L512.967 175.75C512.868 179.197 512.324 182.487 512.674 185.943C510.958 186.085 509.154 186.123 507.465 186.447C494.73 187.122 483.496 193.158 474.887 202.338L474.535 166.873L474.338 133.733Z"/>
	<path fill="#634758" transform="scale(0.292969 0.292969)" d="M474.338 133.733C483.086 145.349 491.643 153.268 506.589 155.204C508.303 155.426 510.259 155.513 511.984 155.414L512.975 155.545L512.967 175.75C512.868 179.197 512.324 182.487 512.674 185.943C510.958 186.085 509.154 186.123 507.465 186.447C494.73 187.122 483.496 193.158 474.887 202.338L474.535 166.873L474.338 133.733Z"/>
	<path fill="#F2BC45" transform="scale(0.292969 0.292969)" d="M208.574 315.181L158.976 315.524L158.704 284.517L206.551 284.921L206.594 262.974C206.605 261.958 207.022 258.212 206.663 257.433C206.572 257.235 197.57 251.486 196.117 249.935C191.456 244.962 188.191 236.76 188.587 229.915C189.04 222.076 192.337 214.97 198.25 209.804C206.117 202.931 214.196 201.949 224.217 202.639L223.46 212.312C228.424 214.045 232.435 216.738 234.881 221.541C237.432 226.549 238.061 232.162 236.164 237.502C234.508 242.166 230.672 246.289 226.162 248.321C224.415 249.108 222.538 249.582 220.639 249.793L222.363 250.07L221.861 315.362L208.574 315.181ZM220.639 249.793C222.538 249.582 224.415 249.108 226.162 248.321C230.672 246.289 234.508 242.166 236.164 237.502C238.061 232.162 237.432 226.549 234.881 221.541C232.435 216.738 228.424 214.045 223.46 212.312C220.498 211.821 218.009 211.466 215 211.933L214.241 212.045C209.394 212.839 204.453 216.447 201.64 220.446C198.749 224.556 197.704 230.055 198.639 234.997C199.59 240.027 202.964 244.182 207.132 246.967C211.157 249.657 215.927 250.112 220.639 249.793Z"/>
	<path fill="#F4EBB8" transform="scale(0.292969 0.292969)" d="M474.887 202.338C483.496 193.158 494.73 187.122 507.465 186.447C508.977 186.452 510.438 186.341 511.902 186.75L512.09 294.25C511.15 295.22 509.935 295.062 508.624 295.233C494.86 294.615 486.124 289.203 475.58 280.879L469.596 273.965C461.63 263.437 457.39 249.015 459.269 235.846C460.837 224.852 464.211 216.734 469.848 207.16C471.581 206.441 473.545 203.739 474.887 202.338Z"/>
	<path fill="#F1DE95" transform="scale(0.292969 0.292969)" d="M512.674 185.943C526.449 187.169 538.688 191.578 548.77 201.424C550.606 203.674 552.479 205.696 554.604 207.675C556.984 211.896 559.533 216.145 561.363 220.637C566.092 232.247 566.498 244.537 563.177 256.597C560.625 265.86 555.255 274.672 548.604 281.554C545.934 283.387 543.411 285.573 540.654 287.248C531.676 292.702 523.277 294.968 512.808 295.421L508.624 295.233C509.935 295.062 511.15 295.22 512.09 294.25L511.902 186.75C510.438 186.341 508.977 186.452 507.465 186.447C509.154 186.123 510.958 186.085 512.674 185.943Z"/>
	<path fill="#9FDCC6" transform="scale(0.292969 0.292969)" d="M208.574 315.181L221.861 315.362L230.375 315.441L230.73 321.095C231.51 326.199 235.136 332.337 237.347 337.084L247.859 360.073L308.867 492.057L325.241 527.532C328.979 535.563 334.093 544.338 336.058 553.004L328.628 552.988C326.955 548.237 324.706 543.753 322.278 539.351C319.785 532.921 316.597 526.919 313.6 520.722L300.689 493.295L245.497 373.567L231.559 343.049C227.804 334.835 224.019 326.992 221.301 318.332L221.066 376.16L221.013 488.053L221.049 533.151L221.066 545.095C221.074 547.267 220.827 549.955 221.457 552.04L221.037 552.964L219.176 553.573C217.232 553.487 215.341 553.134 213.427 552.806L214.063 551.601L213.574 319.263C204.788 345.021 192.044 369.646 180.488 394.271L137.897 486.236C129.801 503.424 120.307 520.652 113.896 538.518C111.259 542.781 108.705 548.261 106.977 552.958L98.5261 552.912L208.574 315.181Z"/>
	<path fill="#9FDCC6" transform="scale(0.292969 0.292969)" d="M795.469 315.159L817.521 315.438L827.507 336.882L848.68 382.88L906.573 510L918.662 536.088C921.173 541.411 924.824 547.687 925.892 553.436L918.499 553.544C916.469 549.364 914.228 543.086 911.264 539.573C909.008 531.493 904.43 523.478 900.956 515.829L879.712 469.222L826.732 354.005L809.766 316.888L809.501 366.862L809.51 457.166L809.57 515.684C809.594 525.939 808.84 536.927 810.104 547.093C810.037 547.913 809.91 548.624 809.76 549.428C809.521 550.701 809.451 551.769 809.506 553.058C806.861 553.636 804.347 553.252 801.694 552.961L801.454 547.86L801.259 322.157C795.673 332.348 791.252 343.536 786.28 354.062L743.991 446.492L715.698 508.606C711.622 517.737 706.387 527.025 703.723 536.657C700.883 542.026 697.449 547.799 695.479 553.545C692.596 554.032 689.407 553.758 686.507 553.542C689.05 545.327 693.076 537.673 696.758 529.928L711.348 498.825L769.829 371.827L782.942 342.811C787.235 333.621 791.843 324.648 795.469 315.159Z"/>
	<defs>
		<linearGradient id="gradient_0" gradientUnits="userSpaceOnUse" x1="589.30078" y1="783.1037" x2="502.38843" y2="829.8338">
			<stop offset="0" stop-color="#E8912F"/>
			<stop offset="1" stop-color="#DB7D41"/>
		</linearGradient>
	</defs>
	<path fill="url(#gradient_0)" transform="scale(0.292969 0.292969)" d="M548.984 735.489C552.91 739.191 555.363 744.303 558.241 748.819L570.28 767.122L608.374 823.346C614.937 833.003 622.08 842.434 628.078 852.455L512.343 852.568C512.853 849.205 512.499 845.317 512.496 841.896L512.483 821.701L512.447 767.299L512.562 735.771L512.825 735.627L548.984 735.489Z"/>
	<path fill="#F2BC45" transform="scale(0.292969 0.292969)" d="M474.992 734.929C478.255 735.914 481.861 735.665 485.25 735.669L503.5 735.638C506.418 735.63 509.689 735.308 512.562 735.771L512.447 767.299L512.483 821.701L512.496 841.896C512.499 845.317 512.853 849.205 512.343 852.568L412.418 852.624L398.971 852.509C399.982 849.781 402.457 846.634 404.032 844.126L417.692 822.788L460.423 756.625C464.879 749.842 469.223 740.552 474.992 734.929Z"/>
	<path fill="#F1DE95" transform="scale(0.292969 0.292969)" d="M231.336 284.242L474.535 166.873L474.887 202.338C473.545 203.739 471.581 206.441 469.848 207.16C459.991 210.25 450.342 216.175 441.032 220.718L386.758 246.855L274.864 300.347L243.976 315.019C239.681 317.033 234.816 318.763 230.73 321.095L230.375 315.441C230.618 315.127 230.96 314.87 231.102 314.5C231.541 313.364 231.165 310.038 231.182 308.717L231.336 284.242Z"/>
	<path fill="#F2BC45" transform="scale(0.292969 0.292969)" d="M221.037 552.964L328.628 552.988L336.058 553.004L349.211 553.047C347.849 562.329 346.157 571.481 343.054 580.368C335.348 602.435 320.813 621.152 302.137 635.063C278.861 652.402 247.882 661.212 218.989 661.05L219.176 553.573L221.037 552.964Z"/>
	<path fill="#F2BC45" transform="scale(0.292969 0.292969)" d="M809.506 553.058L918.499 553.544L925.892 553.436L940.734 553.471C936.332 587.416 918.762 615.607 891.804 636.47C869.454 653.767 837.561 662.655 809.437 662.597L809.506 553.058Z"/>
	<path fill="#F4EBB8" transform="scale(0.292969 0.292969)" d="M106.977 552.958L187.689 553.001L206.083 553.005C208.125 553.006 211.621 553.453 213.427 552.806C215.341 553.134 217.232 553.487 219.176 553.573L218.989 661.05C187.77 661.115 157.342 652.262 131.899 633.951C110.913 618.847 95.1897 597.769 87.6697 572.942C85.6998 566.439 84.5373 559.708 83.4644 553.011L98.5261 552.912L106.977 552.958Z"/>
	<path fill="#F4EBB8" transform="scale(0.292969 0.292969)" d="M801.694 552.961C804.347 553.252 806.861 553.636 809.506 553.058L809.437 662.597C777.782 662.567 746.809 653.661 721.324 634.545C704.886 622.215 690.714 605.172 682.761 586.171C678.459 575.895 675.796 564.406 674.249 553.394L686.507 553.542C689.407 553.758 692.596 554.032 695.479 553.545L801.694 552.961Z"/>
	<path fill="#E36240" transform="scale(0.292969 0.292969)" d="M703.723 536.657C706.739 533.895 709.303 530.688 712.469 528.098C723.881 518.759 738.58 515.299 753.104 515.996L756.023 516.292C770.989 518.035 784.682 524.783 794.264 536.603C797.082 540.079 799.217 544.001 801.454 547.86L801.694 552.961L695.479 553.545C697.449 547.799 700.883 542.026 703.723 536.657Z"/>
	<path fill="#E36240" transform="scale(0.292969 0.292969)" d="M113.896 538.518C118.313 533.833 122.692 529.193 128.011 525.509C137.687 518.807 149.471 515.526 161.165 515.075C174.907 514.544 189.982 520.249 199.907 529.707C206.686 536.168 210.669 542.97 214.063 551.601L213.427 552.806C211.621 553.453 208.125 553.006 206.083 553.005L187.689 553.001L106.977 552.958C108.705 548.261 111.259 542.781 113.896 538.518Z"/>
	<path fill="#C3372D" transform="scale(0.292969 0.292969)" d="M221.457 552.04C222.939 550.807 223.542 548.627 224.316 546.902C225.266 544.784 226.385 542.844 227.626 540.885C230.179 536.854 233.284 533.016 236.729 529.705C248.102 518.771 263.216 514.075 278.756 514.454C297.478 514.91 310.106 526.576 322.278 539.351C324.706 543.753 326.955 548.237 328.628 552.988L221.037 552.964L221.457 552.04Z"/>
	<path fill="#C3372D" transform="scale(0.292969 0.292969)" d="M810.104 547.093C811.57 545.346 812.495 542.919 813.644 540.926C815.773 537.23 818.317 533.909 821.31 530.869C831.74 520.272 846.122 515.384 860.818 515.373C876.469 515.362 889.804 518.761 901.597 529.505C905.038 532.641 907.977 536.28 911.264 539.573C914.228 543.086 916.469 549.364 918.499 553.544L809.506 553.058C809.451 551.769 809.521 550.701 809.76 549.428C809.91 548.624 810.037 547.913 810.104 547.093Z"/>
	<path fill="#F2BC45" transform="scale(0.292969 0.292969)" d="M549.033 167.485L795.015 283.727L794.974 256.493L794.287 256.128C787.185 252.311 781.86 246.144 779.597 238.334L779.363 237.5L779.13 236.744C777.264 230.356 779.161 222.315 782.248 216.633C785.748 210.19 792.25 205.44 799.258 203.544C807.415 201.336 815.144 202.442 822.422 206.684C828.585 210.276 833.388 216.837 835.094 223.782C836.946 231.327 835.883 239.297 831.758 245.901C830.214 248.373 827.861 250.776 825.518 252.512C824.564 253.219 819.179 255.998 818.885 256.783C818.479 257.865 818.995 261.809 819.015 263.198L819.098 285.6L866.494 285.523L866.508 315.007L817.521 315.438L795.469 315.159C791.643 314.89 789.867 315.49 786.671 317.515L785.862 318.032L554.604 207.675C552.479 205.696 550.606 203.674 548.77 201.424L549.033 167.485ZM802.626 211.628C796.795 214.066 791.605 217.076 789.069 223.25C787.054 228.157 786.935 233.303 789.063 238.189C791.284 243.288 794.922 246.845 800.154 248.745C803.496 249.959 806.927 250.112 810.444 249.874C815.781 248.739 819.845 246.646 822.979 241.98C826.026 237.444 826.856 230.687 825.576 225.448C824.388 220.583 820.996 216.221 816.622 213.795C815.61 213.234 814.579 212.855 813.5 212.455L812.852 212.203C809.787 211.078 805.829 211.214 802.626 211.628Z"/>
	<path fill="#0B244A" transform="scale(0.292969 0.292969)" d="M512.808 295.421C523.277 294.968 531.676 292.702 540.654 287.248C543.411 285.573 545.934 283.387 548.604 281.554L548.623 594.197L548.68 691.684L548.757 720.568C548.775 725.397 548.387 730.712 548.984 735.489L512.825 735.627C512.238 732.591 512.656 728.708 512.656 725.587L512.656 703.797L512.678 621.278L512.808 295.421Z"/>
	<path fill="#634758" transform="scale(0.292969 0.292969)" d="M475.58 280.879C486.124 289.203 494.86 294.615 508.624 295.233L512.808 295.421L512.678 621.278L512.656 703.797L512.656 725.587C512.656 728.708 512.238 732.591 512.825 735.627L512.562 735.771C509.689 735.308 506.418 735.63 503.5 735.638L485.25 735.669C481.861 735.665 478.255 735.914 474.992 734.929C476.029 731.832 475.489 727.626 475.499 724.331L475.553 703.085L475.659 628.813L475.58 280.879Z"/>
	<defs>
		<linearGradient id="gradient_1" gradientUnits="userSpaceOnUse" x1="510.29272" y1="976.4989" x2="516.70032" y2="881.56354">
			<stop offset="0" stop-color="#041A38"/>
			<stop offset="1" stop-color="#023145"/>
		</linearGradient>
	</defs>
	<path fill="url(#gradient_1)" transform="scale(0.292969 0.292969)" d="M718.758 895.835C726.912 895.768 735.768 895.143 743.843 896.448C753.365 897.986 763.47 903.271 770.308 910.023C775.554 915.203 779.224 921.562 781.502 928.56C782.527 931.707 783.149 934.966 783.521 938.25C783.624 939.156 783.81 943.659 784.373 944.156C784.533 944.297 784.799 944.159 785.011 944.161L806.82 944.209L866.25 944.17C874.621 944.155 883.317 943.485 891.648 943.963C893.136 944.048 893.993 944.462 895.221 945.279C896.042 946.57 896.282 947.162 896.348 948.75C895.723 950.122 895.189 951.299 893.75 952.015C892.989 952.395 892.183 952.416 891.353 952.42L750.305 952.008L217.537 952.05L156.094 952.019L138.654 952.117C136.62 952.147 133.01 952.626 131.144 951.75C129.861 951.148 128.883 949.902 128.628 948.5C128.335 946.896 128.978 946.069 129.876 944.853C133.483 942.967 155.991 944.106 161.277 944.108L212.991 944.153C222.062 944.169 231.411 943.74 240.447 944.41L512.744 944.721L512.669 895.86L699.417 895.952L699.838 895.907L718.758 895.835Z"/>
	<path fill="#634758" transform="scale(0.292969 0.292969)" d="M305.058 895.489C309.284 886.04 314.212 877.51 321.605 870.169C330.478 861.36 343.197 854.755 355.613 852.837C361.649 851.905 367.204 852.323 373.255 852.369L398.971 852.509L412.418 852.624L512.343 852.568L628.078 852.455L653.313 852.467C657.506 852.475 662.103 852.11 666.229 852.679C679.325 854.483 691.88 860.376 701.343 869.657C708.931 877.1 714.147 886.366 718.758 895.835L699.838 895.907L699.417 895.952L512.669 895.86L512.744 944.721L240.447 944.41C240.445 931.719 245.95 919.362 254.902 910.41C267.91 897.401 287.571 895.371 305.058 895.489Z"/>
	<path fill="#F4EBB8" transform="scale(0.292969 0.292969)" d="M305.058 895.489C309.284 886.04 314.212 877.51 321.605 870.169C330.478 861.36 343.197 854.755 355.613 852.837C361.649 851.905 367.204 852.323 373.255 852.369L398.971 852.509L412.418 852.624L413.099 852.832C415.169 853.413 418.035 853.061 420.185 853.066L437.264 853.094L512.033 853.063L512.068 895.463L305.058 895.489Z"/>
	<path fill="#F1DE95" transform="scale(0.292969 0.292969)" d="M628.078 852.455L653.313 852.467C657.506 852.475 662.103 852.11 666.229 852.679C679.325 854.483 691.88 860.376 701.343 869.657C708.931 877.1 714.147 886.366 718.758 895.835L699.838 895.907C699.529 895.615 698.054 895.777 697.553 895.775L512.068 895.463L512.033 853.063L437.264 853.094L420.185 853.066C418.035 853.061 415.169 853.413 413.099 852.832L412.418 852.624L512.343 852.568L628.078 852.455Z"/>
</svg>
