<?xml version="1.0" encoding="utf-8" ?>
<svg xmlns="http://www.w3.org/2000/svg" xmlns:xlink="http://www.w3.org/1999/xlink" width="300" height="300">
	<path fill="#5683A8" transform="scale(0.292969 0.292969)" d="M296.736 314.418L297.018 314.324C296.946 315.564 296.579 317.661 297.266 318.753L297.603 319.13C296.874 321.188 296.604 322.051 294.5 322.986C292.377 323.928 290.006 323.969 287.772 324.435C285.489 323.934 283.611 323.811 281.357 322.932C286.001 319.893 291.182 318.23 296.381 316.4L296.736 314.418Z"/>
	<path fill="#5683A8" transform="scale(0.292969 0.292969)" d="M269.008 241.507C273.314 239.136 277.914 237.611 282.532 235.968C287.431 234.225 292.125 232.434 297.195 231.213C294.589 233.513 290.719 236.594 290.436 240.292C290.228 243.003 290.801 244.596 292.296 246.816C289.836 247.327 286.331 245.984 283.931 245.321C278.966 243.949 274.064 242.519 269.008 241.507Z"/>
	<path fill="#3D5A82" transform="scale(0.292969 0.292969)" d="M513.433 884.506C525.276 882.218 536.847 878.19 548.41 874.797L608.597 856.848L669.746 838.766C681.485 835.312 693.422 832.217 704.939 828.069C708.836 826.666 712.851 824.813 716.29 822.508C724.687 816.88 730.051 807.508 731.94 797.72L731.706 812.364C731.535 820.101 731.645 826.622 725.75 832.495C722.12 836.112 717.24 838.846 712.454 840.588C704.025 843.656 695.231 845.852 686.605 848.283L655.5 857.435L545 891.006L523.265 897.875C520.601 898.725 516.369 900.63 513.608 900.567L513.062 900.5C513.015 895.992 512.026 888.646 513.433 884.506Z"/>
	<path fill="#5683A8" transform="scale(0.292969 0.292969)" d="M291.516 795.769C292.564 804.846 297.553 814.468 304.75 820.278C308.191 823.055 312.321 825.635 316.488 827.135C322.47 829.289 328.96 830.738 335.077 832.563L390.218 848.574L452.508 867.204L512.127 884.318L513.433 884.506C512.026 888.646 513.015 895.992 513.062 900.5C508.161 898.407 502.323 897.377 497.157 895.91L472.074 888.332L352.838 853.283L329.011 846.625C323.443 845.112 317.316 843.675 312.047 841.283C307.496 839.216 303.739 836.21 300.36 832.555C290.508 821.901 290.97 809.385 291.516 795.769Z"/>
	<path fill="#F8F9F9" transform="scale(0.292969 0.292969)" d="M291.385 380.863L306.994 385.567L307.009 597.916L307.042 737.94L307.061 775.582C307.064 781.582 306.427 788.416 307.381 794.308C308.198 799.353 310.377 803.75 314 807.36C316.79 810.14 319.79 811.616 323.446 812.934C329.524 815.126 336.061 816.55 342.301 818.272L378.694 828.51L479.828 858.595L499.814 863.827C503.974 864.809 508.28 865.391 512.309 866.846C513.107 872.361 512.962 877.94 512.976 883.5L512.127 884.318L452.508 867.204L390.218 848.574L335.077 832.563C328.96 830.738 322.47 829.289 316.488 827.135C312.321 825.635 308.191 823.055 304.75 820.278C297.553 814.468 292.564 804.846 291.516 795.769L291.385 380.863Z"/>
	<path fill="#A8E7EB" transform="scale(0.292969 0.292969)" d="M716.74 360.501L732.56 355.64L732.677 455.613L732.567 638.125L732.564 741.777L732.63 772.768C732.658 781.079 732.806 789.441 731.94 797.72C730.051 807.508 724.687 816.88 716.29 822.508C712.851 824.813 708.836 826.666 704.939 828.069C693.422 832.217 681.485 835.312 669.746 838.766L608.597 856.848L548.41 874.797C536.847 878.19 525.276 882.218 513.433 884.506L512.127 884.318L512.976 883.5C512.962 877.94 513.107 872.361 512.309 866.846L515.396 866.9C530.704 863.494 545.959 858.508 561 854.053L626.975 834.595L673.364 820.803C682.662 818.109 692.221 816.016 701.263 812.492C704.815 811.108 708.077 808.744 710.784 806.07C713.887 803.004 715.977 799.178 716.674 794.826C717.683 788.529 717.019 781.414 717.013 775.008L716.981 736.274L716.961 596.215L716.997 384.647L716.74 360.501Z"/>
	<path fill="#9EE0EE" transform="scale(0.292969 0.292969)" d="M455.076 160.898C452.829 157.74 451.012 154.435 451.096 150.446C451.167 147.037 453.504 144.124 455.84 141.848C459.9 137.893 465.192 135.747 470.491 133.969C486.591 128.567 503.042 128.207 519.83 128.444C535.443 129.326 558.315 132.104 569.26 144.48C571.233 146.71 571.723 148.671 572.139 151.548C573.687 154.04 576.015 155.957 578.108 157.989L588.719 168.521L603.682 184.069C606.399 186.905 609.094 190.184 612.118 192.672L713.394 223.877C718.59 227.456 728.556 231.339 729.848 238.139L730.005 239.672C728.445 244.46 726.207 247.604 721.629 249.945C717.18 252.22 711.666 253.255 706.86 254.672C698.596 257.108 690.259 259.889 681.865 261.815L665.363 251.354L656.137 245.555L591.909 209.908L565.355 195.657C560.502 193.056 555.607 190.008 550.511 187.939C548.713 189.274 548.093 192.689 547.044 194.713C541.415 205.569 532.028 212.281 520.294 215.229C517.915 215.827 515.478 215.892 513.066 216.303C510.615 216.695 507.35 217.357 504.916 216.788C497.628 215.084 490.576 213.61 484.411 209.112C476.465 203.315 471.179 193.887 469.656 184.217C469.562 181.463 469.745 176.53 467.977 174.473L455.476 177.951C456.342 172.423 455.672 166.436 455.076 160.898Z"/>
	<path fill="#25B9C5" transform="scale(0.292969 0.292969)" d="M455.076 160.898L456.666 162.187C459.636 167.465 461.944 170.93 467.551 173.774L467.977 174.473L455.476 177.951C456.342 172.423 455.672 166.436 455.076 160.898Z"/>
	<path fill="#25B9C5" transform="scale(0.292969 0.292969)" d="M572.139 151.548C573.687 154.04 576.015 155.957 578.108 157.989L588.719 168.521L603.682 184.069C606.399 186.905 609.094 190.184 612.118 192.672C606.815 191.648 601.502 189.751 596.336 188.185L572.591 181.144L561.927 177.961C559.52 177.259 557.106 176.86 555.25 175.086C555.114 173.91 554.891 174.334 555.666 173.712C560.186 170.084 566.045 166.133 568.908 160.991C570.527 158.084 571.265 154.736 572.139 151.548Z"/>
	<path fill="#A8E7EB" transform="scale(0.292969 0.292969)" d="M455.076 160.898C452.829 157.74 451.012 154.435 451.096 150.446C451.167 147.037 453.504 144.124 455.84 141.848C459.9 137.893 465.192 135.747 470.491 133.969C486.591 128.567 503.042 128.207 519.83 128.444C520.185 130.568 520.138 131.172 522 132.494C523.991 133.907 526.263 134.937 528.263 136.358C531.293 138.512 534.085 141.394 536.75 143.991C538.763 145.952 541.183 148.592 541.779 151.441C542.28 153.839 540.891 156.83 539.491 158.702C533.541 166.658 514.89 168.669 505.365 169.738C492.513 171.179 479.432 169.659 467.07 165.932C463.589 164.882 460.169 162.827 456.666 162.187L455.076 160.898Z"/>
	<path fill="#25B9C5" transform="scale(0.292969 0.292969)" d="M550.511 187.939L550.75 186.182C551.083 186.076 551.401 185.84 551.75 185.865C554.258 186.046 558.021 187.813 560.498 188.58L583.939 195.774L681.672 226.032L708.418 234.38C715.29 236.506 722.81 239.227 730.005 239.672C728.445 244.46 726.207 247.604 721.629 249.945C717.18 252.22 711.666 253.255 706.86 254.672C698.596 257.108 690.259 259.889 681.865 261.815L665.363 251.354L656.137 245.555L591.909 209.908L565.355 195.657C560.502 193.056 555.607 190.008 550.511 187.939Z"/>
	<path fill="#A8E7EB" transform="scale(0.292969 0.292969)" d="M455.476 177.951L467.977 174.473C469.745 176.53 469.562 181.463 469.656 184.217C471.179 193.887 476.465 203.315 484.411 209.112C490.576 213.61 497.628 215.084 504.916 216.788C507.35 217.357 510.615 216.695 513.066 216.303C515.478 215.892 517.915 215.827 520.294 215.229C532.028 212.281 541.415 205.569 547.044 194.713C548.093 192.689 548.713 189.274 550.511 187.939C555.607 190.008 560.502 193.056 565.355 195.657L591.909 209.908L656.137 245.555L665.363 251.354L681.865 261.815L569.761 295.134L537.5 304.544C531.273 306.282 524.103 308.964 517.592 309.044L512.526 309.535C497.001 307.952 481.96 302.719 467.073 298.322L412.723 282.5L341.216 262.034L316.237 254.816C310.488 253.175 304.521 251.764 298.898 249.743C296.773 248.979 294.882 247.834 292.804 247.004L292.296 246.816C290.801 244.596 290.228 243.003 290.436 240.292C290.719 236.594 294.589 233.513 297.195 231.213L322.424 221.982L449.107 180.14L455.476 177.951Z"/>
	<path fill="#43DDD9" transform="scale(0.292969 0.292969)" d="M656.137 245.555L665.363 251.354L513.207 296.402L513.183 295.856C512.675 292.993 512.989 289.568 512.991 286.635C515.73 285.048 520.356 284.375 523.45 283.507L546.641 276.893L615.05 257.432L656.137 245.555Z"/>
	<path fill="#F8F9F9" transform="scale(0.292969 0.292969)" d="M322.424 221.982L449.107 180.14C449.987 181.098 451.342 182.824 452.556 183.317C456.775 185.031 462.504 183.327 466.553 185.675L428.5 198.048L378.297 214.282L350.983 223.089C346.723 224.462 341.678 226.704 337.25 227.225C334.587 227.538 327.689 225.994 325.219 224.776C324.432 224.388 323.928 223.711 323.371 223.07L322.782 222.419L322.424 221.982Z"/>
	<path fill="#6193BC" transform="scale(0.292969 0.292969)" d="M713.394 223.877C720.716 225.827 727.829 228.594 735 231.029C741.21 233.138 747.915 234.824 753.592 238.181C756.765 240.056 760.09 243.043 761.942 246.25C764.819 251.232 765.908 258.227 764.174 263.75C762.685 268.492 759.638 273.34 755.096 275.695C750.728 277.959 745.069 279.082 740.357 280.507C736.938 281.541 732.606 283.367 729.078 283.487L729.472 317.785C732.288 319.605 735.063 321.51 738.094 322.957C744.598 325.923 751.179 328.78 757.374 332.362C759.999 333.88 762.812 335.296 764.871 337.56C765.396 339.6 765.186 341.319 764.175 343.199C760.956 349.184 743.958 352.882 737.75 354.485C736.45 354.821 733.84 355.764 732.56 355.64L716.74 360.501L672.384 373.325L579.5 401.032L549.042 410.15C537.259 413.676 525.393 418.026 512.98 418.019L496.936 417.596C491.061 417.79 484 414.381 478.411 412.632L455.796 405.734L306.997 360.673L291.513 355.899C291.542 361.422 292.161 367.761 291.413 373.187C290.536 367.587 291.069 360.977 290.992 355.259C282.59 351.822 273.288 350.275 264.713 347.113C262.137 346.164 258.987 345.272 256.959 343.372C255.064 341.596 254.512 339.779 254.487 337.25C256.337 333.125 267.998 329.323 272.004 327.539L281.357 322.932C283.611 323.811 285.489 323.934 287.772 324.435C290.006 323.969 292.377 323.928 294.5 322.986C296.604 322.051 296.874 321.188 297.603 319.13L297.266 318.753C296.579 317.661 296.946 315.564 297.018 314.324L296.736 314.418L296.4 290.372C296.391 289.45 296.693 285.51 296.344 284.862C296.075 284.363 274.831 278.463 272.031 277.108C270.287 276.264 268.458 274.529 267.25 272.997C262.723 267.257 262.794 257.111 263.819 250.086L263.955 249.25C264.562 245.351 265.976 243.948 269.008 241.507C274.064 242.519 278.966 243.949 283.931 245.321C286.331 245.984 289.836 247.327 292.296 246.816L292.804 247.004C294.882 247.834 296.773 248.979 298.898 249.743C304.521 251.764 310.488 253.175 316.237 254.816L341.216 262.034L412.723 282.5L467.073 298.322C481.96 302.719 497.001 307.952 512.526 309.535L517.592 309.044C524.103 308.964 531.273 306.282 537.5 304.544L569.761 295.134L681.865 261.815C690.259 259.889 698.596 257.108 706.86 254.672C711.666 253.255 717.18 252.22 721.629 249.945C726.207 247.604 728.445 244.46 730.005 239.672L729.848 238.139C728.556 231.339 718.59 227.456 713.394 223.877Z"/>
	<path fill="#374067" transform="scale(0.292969 0.292969)" d="M512.416 381.952L645.754 341.809L695.486 326.913C705.543 323.864 715.803 320.239 726.012 317.795C727.335 317.479 728.156 317.533 729.472 317.785C732.288 319.605 735.063 321.51 738.094 322.957C730.294 326.497 721.701 328.19 713.5 330.55L680.914 340.229L565 375.528L520.841 388.716C518.824 389.284 516.709 388.802 514.722 389.417C513.467 389.501 512.456 389.497 511.216 389.186L474.414 378.572L387.698 353.511L322.238 334.652C310.798 331.341 298.964 328.47 287.772 324.435C290.006 323.969 292.377 323.928 294.5 322.986C296.604 322.051 296.874 321.188 297.603 319.13L442.882 361.795L489.903 375.582C497.217 377.717 504.932 380.711 512.416 381.952Z"/>
	<path fill="#5683A8" transform="scale(0.292969 0.292969)" d="M512.511 346.628C522.397 346.226 532.503 341.567 541.931 338.705L583.375 326.219L729.078 283.487L729.472 317.785C728.156 317.533 727.335 317.479 726.012 317.795C715.803 320.239 705.543 323.864 695.486 326.913L645.754 341.809L512.416 381.952L512.402 347.067L512.511 346.628Z"/>
	<path fill="#3D5A82" transform="scale(0.292969 0.292969)" d="M738.094 322.957C744.598 325.923 751.179 328.78 757.374 332.362C759.999 333.88 762.812 335.296 764.871 337.56C765.396 339.6 765.186 341.319 764.175 343.199C760.956 349.184 743.958 352.882 737.75 354.485C736.45 354.821 733.84 355.764 732.56 355.64L716.74 360.501L672.384 373.325L579.5 401.032L549.042 410.15C537.259 413.676 525.393 418.026 512.98 418.019L496.936 417.596L519.977 390.25L519.5 389.449L514.722 389.417C516.709 388.802 518.824 389.284 520.841 388.716L565 375.528L680.914 340.229L713.5 330.55C721.701 328.19 730.294 326.497 738.094 322.957Z"/>
	<path fill="#3D5A82" transform="scale(0.292969 0.292969)" d="M713.394 223.877C720.716 225.827 727.829 228.594 735 231.029C741.21 233.138 747.915 234.824 753.592 238.181C756.765 240.056 760.09 243.043 761.942 246.25C764.819 251.232 765.908 258.227 764.174 263.75C762.685 268.492 759.638 273.34 755.096 275.695C750.728 277.959 745.069 279.082 740.357 280.507C736.938 281.541 732.606 283.367 729.078 283.487L583.375 326.219L541.931 338.705C532.503 341.567 522.397 346.226 512.511 346.628L512.526 309.535L517.592 309.044C524.103 308.964 531.273 306.282 537.5 304.544L569.761 295.134L681.865 261.815C690.259 259.889 698.596 257.108 706.86 254.672C711.666 253.255 717.18 252.22 721.629 249.945C726.207 247.604 728.445 244.46 730.005 239.672L729.848 238.139C728.556 231.339 718.59 227.456 713.394 223.877Z"/>
	<path fill="#6193BC" transform="scale(0.292969 0.292969)" d="M296.736 314.418L296.4 290.372C296.391 289.45 296.693 285.51 296.344 284.862C296.075 284.363 274.831 278.463 272.031 277.108C270.287 276.264 268.458 274.529 267.25 272.997C262.723 267.257 262.794 257.111 263.819 250.086L263.955 249.25C264.562 245.351 265.976 243.948 269.008 241.507C274.064 242.519 278.966 243.949 283.931 245.321C286.331 245.984 289.836 247.327 292.296 246.816L292.804 247.004C294.882 247.834 296.773 248.979 298.898 249.743C304.521 251.764 310.488 253.175 316.237 254.816L341.216 262.034L412.723 282.5L467.073 298.322C481.96 302.719 497.001 307.952 512.526 309.535L512.511 346.628L512.402 347.067L512.416 381.952C504.932 380.711 497.217 377.717 489.903 375.582L442.882 361.795L297.603 319.13L297.266 318.753C296.579 317.661 296.946 315.564 297.018 314.324L296.736 314.418Z"/>
	<path fill="#9EE0EE" transform="scale(0.292969 0.292969)" d="M297.018 314.324L296.932 285.07L512.402 347.067L512.416 381.952C504.932 380.711 497.217 377.717 489.903 375.582L442.882 361.795L297.603 319.13L297.266 318.753C296.579 317.661 296.946 315.564 297.018 314.324Z"/>
	<path fill="#25B9C5" transform="scale(0.292969 0.292969)" d="M291.413 373.187C292.161 367.761 291.542 361.422 291.513 355.899L306.997 360.673L455.796 405.734L478.411 412.632C484 414.381 491.061 417.79 496.936 417.596L512.98 418.019C525.393 418.026 537.259 413.676 549.042 410.15L579.5 401.032L672.384 373.325L716.74 360.501L716.997 384.647L716.961 596.215L512.965 465.857L512.945 464.028L463.895 495.942L352.145 568.83L319.869 589.892C316.184 592.288 311.165 596.614 307.009 597.916L306.994 385.567L291.385 380.863L291.413 373.187Z"/>
	<path fill="#359D9C" transform="scale(0.292969 0.292969)" d="M512.98 418.019C525.393 418.026 537.259 413.676 549.042 410.15L579.5 401.032L672.384 373.325L716.74 360.501L716.997 384.647L513.17 441.831L512.98 418.019Z"/>
	<path fill="#A8E7EB" transform="scale(0.292969 0.292969)" d="M291.413 373.187C292.161 367.761 291.542 361.422 291.513 355.899L306.997 360.673L307.057 376.225C307.072 379.243 306.842 382.49 307.312 385.467L512.988 442.134L512.945 464.028L463.895 495.942L352.145 568.83L319.869 589.892C316.184 592.288 311.165 596.614 307.009 597.916L306.994 385.567L291.385 380.863L291.413 373.187Z"/>
	<path fill="#359D9C" transform="scale(0.292969 0.292969)" d="M512.965 465.857L716.961 596.215L716.981 736.274L717.013 775.008C717.019 781.414 717.683 788.529 716.674 794.826C715.977 799.178 713.887 803.004 710.784 806.07C708.077 808.744 704.815 811.108 701.263 812.492C692.221 816.016 682.662 818.109 673.364 820.803L626.975 834.595L561 854.053C545.959 858.508 530.704 863.494 515.396 866.9L513.5 866.616C512.165 864.241 513.01 780.515 513.009 771.487L512.965 465.857Z"/>
	<path fill="#F8F9F9" transform="scale(0.292969 0.292969)" d="M551.557 575.75C552.09 575.732 552.661 575.796 553.19 575.884C555.021 576.191 555.941 577.345 556.943 578.75C557.292 580.17 557.563 581.239 556.941 582.627C556.159 584.371 554.794 585.146 553.078 585.75L551.542 585.688C550.161 585.488 548.474 584.405 547.797 583.195C547.042 581.845 547.063 580.119 547.723 578.75C548.472 577.197 550.053 576.387 551.557 575.75Z"/>
	<path fill="#F8F9F9" transform="scale(0.292969 0.292969)" d="M670.881 674.25C671.335 674.142 671.784 674.011 672.258 674.016C673.551 674.03 675.021 674.99 675.751 676.035C676.685 677.373 676.919 679.638 676.419 681.212C675.803 683.149 674.007 684.017 672.286 684.75L671.873 684.766C670.349 684.657 669.049 684.224 668.114 682.931C667.193 681.659 666.691 679.493 667.179 677.949C667.827 675.901 669.135 675.239 670.881 674.25Z"/>
	<path fill="#F8F9F9" transform="scale(0.292969 0.292969)" d="M545.101 765.75C545.849 765.533 546.416 765.478 547.209 765.523C548.498 765.595 549.84 766.468 550.617 767.468C551.542 768.657 551.779 770.448 551.377 771.911C550.854 773.81 549.56 774.824 547.937 775.75C547.395 775.87 546.811 776.029 546.25 776.004C544.705 775.933 542.942 774.518 542.157 773.233C541.5 772.157 541.299 770.564 541.609 769.344C542.081 767.485 543.554 766.6 545.101 765.75Z"/>
	<path fill="#F8F9F9" transform="scale(0.292969 0.292969)" d="M648.335 570.75C648.93 570.69 649.044 570.644 649.701 570.761C651.183 571.024 653.309 572.857 653.883 574.219C654.388 575.416 654.151 577.053 653.666 578.203C652.942 579.921 650.861 580.853 649.25 581.472L646.75 580.935C645.503 579.907 644.298 578.84 643.777 577.25C643.362 575.98 643.369 574.923 644.066 573.75C645.032 572.123 646.626 571.323 648.335 570.75Z"/>
	<path fill="#F8F9F9" transform="scale(0.292969 0.292969)" d="M595.262 695.75C595.903 695.713 596.545 695.772 597.171 695.924C598.508 696.25 599.755 697.283 600.359 698.515C601.254 700.341 601.086 701.88 600.493 703.75C599.076 705.298 598.32 706.039 596.25 706.516L595 706.514C593.34 706.279 591.685 704.935 590.953 703.414C590.469 702.408 590.226 700.297 590.672 699.238C591.438 697.415 593.525 696.347 595.262 695.75Z"/>
	<path fill="#F8F9F9" transform="scale(0.292969 0.292969)" d="M647.259 764.75C648.605 764.49 650.297 764.351 651.649 764.577C653.735 764.925 655.242 766.289 656.396 767.985C657.736 769.954 658.308 772.552 657.716 774.874C656.79 778.504 654.814 779.94 651.682 781.718C650.045 781.893 648.334 781.865 646.75 781.353C644.876 780.748 643.326 779.082 642.428 777.379C641.263 775.167 641.281 772.601 642.003 770.25C642.893 767.351 644.652 766.074 647.259 764.75Z"/>
	<path fill="#F8F9F9" transform="scale(0.292969 0.292969)" d="M591.232 620.47C593.345 620.404 595.372 620.709 597.296 621.643C599.418 622.674 601.499 624.805 602.25 627.071C603.108 629.658 602.888 633.125 601.532 635.5C599.818 638.503 596.848 640.109 593.641 641.069C591.852 640.825 589.946 640.51 588.25 639.891C585.732 638.971 584.292 637.048 583.226 634.677C582.091 632.153 582.229 630.047 583.304 627.526C584.953 623.658 587.541 622.022 591.232 620.47Z"/>
	<path fill="#43DDD9" transform="scale(0.292969 0.292969)" d="M307.009 597.916C311.165 596.614 316.184 592.288 319.869 589.892L352.145 568.83L463.895 495.942L512.945 464.028L512.965 465.857L513.009 771.487C513.01 780.515 512.165 864.241 513.5 866.616L515.396 866.9L512.309 866.846C508.28 865.391 503.974 864.809 499.814 863.827L479.828 858.595L378.694 828.51L342.301 818.272C336.061 816.55 329.524 815.126 323.446 812.934C319.79 811.616 316.79 810.14 314 807.36C310.377 803.75 308.198 799.353 307.381 794.308C306.427 788.416 307.064 781.582 307.061 775.582L307.042 737.94L307.009 597.916Z"/>
	<path fill="#F8F9F9" transform="scale(0.292969 0.292969)" d="M481.718 720.75C482.194 720.539 482.173 720.521 482.779 720.414C484.762 720.066 486.031 720.798 487.592 721.902C488.454 723.482 488.911 724.361 488.515 726.25C488.17 727.9 487.05 728.553 485.75 729.414C485.317 729.59 484.708 729.867 484.25 729.914C482.871 730.055 481.851 729.528 480.864 728.637C479.797 727.672 479.05 725.943 479.138 724.5C479.263 722.477 480.299 721.901 481.718 720.75Z"/>
	<path fill="#F8F9F9" transform="scale(0.292969 0.292969)" d="M353.566 592.75C354.321 592.593 355.011 592.438 355.788 592.524C357.321 592.693 358.515 593.379 359.334 594.725C359.988 595.8 360.177 597.164 359.851 598.38C359.342 600.285 358.095 601.298 356.478 602.25L354.75 602.501C353.53 602.112 352.445 601.718 351.528 600.781C350.504 599.736 349.819 598.067 350.076 596.585C350.402 594.706 352.077 593.648 353.566 592.75Z"/>
	<path fill="#F8F9F9" transform="scale(0.292969 0.292969)" d="M351.615 752.75C352.381 752.607 353.22 752.614 354 752.56C355.632 753.446 356.329 754.086 357.317 755.652C357.52 757.204 357.653 758.537 356.951 760C356.275 761.411 355.041 761.774 353.681 762.25C353.145 762.373 353.13 762.402 352.49 762.405C351.156 762.41 349.408 761.873 348.613 760.75C347.679 759.429 347.253 757.984 347.75 756.405C348.35 754.498 349.952 753.605 351.615 752.75Z"/>
	<path fill="#F8F9F9" transform="scale(0.292969 0.292969)" d="M432.583 643.75L434.367 643.57C435.566 643.585 436.862 644.211 437.667 645.097C438.682 646.214 439.187 647.907 438.903 649.395C438.541 651.294 437.078 652.311 435.558 653.25L432.75 653.513C431.419 653.405 430.601 652.495 429.822 651.525C428.64 650.056 428.902 648.483 429.1 646.75C430.178 645.328 431.033 644.623 432.583 643.75Z"/>
	<path fill="#F8F9F9" transform="scale(0.292969 0.292969)" d="M412.142 555.75C412.669 555.545 412.896 555.426 413.506 555.351C415.074 555.159 416.553 555.745 417.617 556.89C418.689 558.043 419.232 559.959 418.952 561.5C418.593 563.474 417.341 564.386 415.75 565.412C415.198 565.641 414.87 565.808 414.25 565.912C412.839 566.149 411.119 565.362 410.163 564.337C408.918 563.001 408.723 560.972 409.012 559.25C409.295 557.566 410.813 556.587 412.142 555.75Z"/>
	<path fill="#F8F9F9" transform="scale(0.292969 0.292969)" d="M420.894 779.75C422.019 779.804 423.034 779.865 424.099 780.263C425.993 780.97 427.468 782.364 428.25 784.231C428.926 785.845 428.933 788.205 428.137 789.773C426.958 792.096 424.813 793.255 422.461 794.074C421.184 794.095 419.999 794.139 418.785 793.666C417.222 793.057 415.286 790.849 414.75 789.27C414.193 787.628 414.293 785 415.17 783.47C416.42 781.286 418.562 780.325 420.894 779.75Z"/>
	<path fill="#F8F9F9" transform="scale(0.292969 0.292969)" d="M374.972 674.75C376.359 674.448 378.093 674.306 379.467 674.696C382.395 675.526 385.211 678.078 386.672 680.699C387.735 682.605 387.8 685.402 387.098 687.438C385.781 691.253 383.309 693.086 379.75 694.691C378.347 695.086 376.917 694.96 375.496 694.646C372.355 693.952 369.94 692.082 368.382 689.272C367.277 687.279 367.052 683.932 367.818 681.775C369.024 678.379 371.792 676.197 374.972 674.75Z"/>
	<path fill="#F8F9F9" transform="scale(0.292969 0.292969)" d="M447.676 592.75C448.816 592.542 450.057 592.413 451.208 592.557C453.936 592.899 456.466 594.273 458.113 596.496C459.938 598.959 460.963 601.929 460.32 604.996C459.506 608.882 456.503 611.006 453.333 612.908C451.677 613.135 449.904 613.295 448.25 612.969C445.408 612.408 442.641 609.859 441.287 607.377C440.155 605.302 440.075 601.625 440.792 599.372C441.866 595.993 444.608 594.164 447.676 592.75Z"/>
</svg>
