<svg width="300" height="300" xmlns="http://www.w3.org/2000/svg">
 <defs>
  <linearGradient y2="1.08169" x2="0.295061" y1="-0.28613" x1="0.629419" id="gradient_0">
   <stop stop-color="#5B0840" offset="0"/>
   <stop stop-color="#431B53" offset="1"/>
  </linearGradient>
 </defs>
 <g>
  <title>background</title>
  <rect fill="none" id="canvas_background" height="402" width="582" y="-1" x="-1"/>
 </g>
 <g>
  <title>Layer 1</title>
  <path id="svg_1" d="m825.675,158.75c1.156,0.03 2.554,0.35 3.575,0.904c1.62,0.879 2.869,2.881 3.178,4.666c0.338,1.946 -0.203,3.865 -1.349,5.454c-1.386,1.922 -3.083,2.418 -5.329,2.758c-1.372,0.057 -2.839,-0.278 -4,-1.049c-1.397,-0.927 -2.633,-2.72 -2.954,-4.374c-0.36,-1.855 0.351,-3.781 1.421,-5.289c1.382,-1.948 3.179,-2.683 5.458,-3.07z" transform="scale(0.2929689884185791) " fill="#25EDCA"/>
  <path id="svg_2" d="m275.057,94.25c1.212,-0.3197 2.62,-0.4764 3.862,-0.2718c2.382,0.3925 4.116,1.6887 5.331,3.7603c1.143,1.949 1.57,4.5655 0.963,6.7455c-0.869,3.122 -2.934,4.322 -5.582,5.875c-1.335,0.138 -3.038,0.461 -4.346,0.115c-2.318,-0.614 -4.335,-3.118 -5.241,-5.214c-0.81,-1.873 -0.941,-4.439 -0.127,-6.338c0.966,-2.2548 2.982,-3.6965 5.14,-4.672z" transform="scale(0.2929689884185791) " fill="#25EDCA"/>
  <path id="svg_3" d="m889.471,827.505c1.688,-0.061 3.378,-0.158 4.993,0.426c2.098,0.76 3.883,2.248 4.78,4.319c1.073,2.477 0.688,5.147 -0.407,7.536c-1.052,2.295 -3.311,3.566 -5.557,4.464c-1.214,0.298 -2.685,0.343 -3.893,-0.021c-2,-0.603 -4.046,-2.628 -5.034,-4.427c-1.21,-2.204 -1.565,-4.647 -0.766,-7.052c0.877,-2.638 3.563,-4.089 5.884,-5.245z" transform="scale(0.2929689884185791) " fill="#25EDCA"/>
  <path id="svg_4" d="m196.601,412.547c1.844,0.047 3.772,0.385 5.461,1.154c2.005,0.913 3.556,2.951 4.149,5.038c0.641,2.259 0.285,4.639 -0.855,6.667c-1.49,2.648 -3.335,3.734 -6.193,4.53c-1.391,-0.154 -2.863,-0.286 -4.173,-0.807c-2.225,-0.883 -4.335,-2.766 -5.251,-5.002c-0.845,-2.061 -0.845,-4.209 0.08,-6.248c1.405,-3.101 3.743,-4.219 6.782,-5.332z" transform="scale(0.2929689884185791) " fill="#25EDCA"/>
  <path id="svg_5" d="m126.125,332.994c1.566,-0.078 3.01,0.046 4.496,0.572c2.38,0.844 4.626,2.818 5.629,5.162c0.963,2.248 0.755,4.901 -0.278,7.093c-1.167,2.475 -3.26,3.74 -5.713,4.694c-1.65,0.314 -3.381,0.415 -5.009,-0.113c-2.091,-0.68 -3.725,-2.356 -4.723,-4.264c-1.261,-2.41 -1.329,-4.715 -0.457,-7.273c1.048,-3.073 3.288,-4.467 6.055,-5.871z" transform="scale(0.2929689884185791) " fill="#FCCF1E"/>
  <path id="svg_6" d="m88.6717,835.988c1.5325,0.035 3.0381,0.081 4.516,0.532c2.5169,0.766 4.2924,2.363 5.4069,4.746c1.1779,2.52 1.1898,5.211 0.1843,7.788c-1.4635,3.75 -4.0064,5.022 -7.5077,6.445c-1.3863,0.008 -2.785,-0.188 -4.1071,-0.615c-2.479,-0.8 -4.486,-2.574 -5.5132,-4.982c-1.3351,-3.13 -1.4672,-4.773 -0.1871,-7.902c1.3198,-3.226 4.1527,-4.795 7.2079,-6.012z" transform="scale(0.2929689884185791) " fill="#25EDCA"/>
  <path id="svg_7" d="m102.059,737.604c2.015,-0.272 4.191,-0.411 6.191,0.045c2.476,0.564 4.685,2.514 5.992,4.633c1.6,2.592 1.897,5.497 1.008,8.405c-0.993,3.248 -3.775,5.283 -6.612,6.841c-1.366,0.369 -2.978,0.514 -4.388,0.34c-2.591,-0.319 -5.0942,-1.838 -6.6637,-3.9c-1.9842,-2.608 -2.6923,-5.739 -2.0094,-8.968c0.7581,-3.585 3.6079,-5.574 6.4821,-7.396z" transform="scale(0.2929689884185791) " fill="#25EDCA"/>
  <path id="svg_8" d="m149.798,392.541c2.61,-0.139 4.88,0.117 7.246,1.321c3.254,1.657 5.473,4.469 6.492,7.979c0.974,3.356 0.541,6.714 -1.279,9.721c-2.323,3.84 -6.023,5.301 -10.109,6.418c-1.763,0.064 -3.624,-0.126 -5.284,-0.74c-3.353,-1.239 -6.535,-4.107 -7.821,-7.49c-1.22,-3.21 -1.015,-6.716 0.537,-9.758c2.199,-4.31 5.881,-6.032 10.218,-7.451z" transform="scale(0.2929689884185791) " fill="#FCCF1E"/>
  <path id="svg_9" d="m201.515,365.049c2.019,-0.094 4.391,0.155 6.352,0.697c3.734,1.031 7.503,3.799 9.249,7.306c1.652,3.32 1.544,6.793 0.262,10.198c-1.745,4.636 -5.023,7.114 -9.414,9.028c-3.732,0.57 -7.802,0.378 -11.097,-1.635c-3.126,-1.908 -5.191,-4.979 -6.07,-8.503c-0.993,-3.985 -0.465,-8.051 1.798,-11.498c2.211,-3.367 5.113,-4.755 8.92,-5.593z" transform="scale(0.2929689884185791) " fill="#25EDCA"/>
  <path id="svg_10" d="m181.066,466.04l3.264,0.653l0.284,3.887l0.099,27.384c-0.003,6.743 -0.677,14.846 1.181,21.339c0.979,3.419 2.82,6.448 5.336,8.944c4.544,4.507 10.595,7.017 15.693,10.761c14.644,10.755 22.87,28.79 23.165,46.775c0.182,11.115 -3.683,20.711 -8.112,30.706c-2.533,-0.598 -4.888,-1.612 -7.289,-2.591c7.587,-10.661 10.374,-19.949 9.44,-33.149c-3.104,-15.588 -10.567,-30.92 -24.443,-39.472c-4.859,-2.994 -10.49,-5.389 -14.369,-9.68c-3.337,-3.692 -5.402,-9.023 -6.3,-13.866c-1.571,-8.472 -0.44,-18.357 -0.281,-27.017l0.373,-23.964l1.959,-0.71z" transform="scale(0.2929689884185791) " fill="#FEFEFE"/>
  <path id="svg_11" d="m147.351,484.757c-0.978,-5.454 -0.367,-12.277 -0.456,-17.887c-1.25,-1.044 -5.807,-0.056 -7.882,-1.091c-2.487,-1.24 -4.437,-3.055 -5.279,-5.778c-0.725,-2.345 -0.37,-5.17 0.901,-7.255c1.348,-2.213 3.208,-3.742 5.755,-4.342c5.813,-1.368 12.918,-0.455 18.915,-0.432c10.201,0.039 20.964,-0.547 31.102,0.597c1.498,0.169 3.072,0.679 4.343,1.498c2.136,1.376 3.649,3.74 4.022,6.246c0.321,2.155 -0.331,4.486 -1.618,6.224c-3.059,4.129 -7.378,3.932 -12.02,4.562l-0.52,3.481l-0.284,-3.887l-3.264,-0.653l-31.526,0.085l-2.093,0.625l-0.096,18.007z" transform="scale(0.2929689884185791) " fill="#2D0313"/>
  <path id="svg_12" d="m143.529,451.689l28.556,0.267l12.005,0.028c2.309,0.01 4.814,-0.192 7.066,0.403c1.697,0.449 2.413,1.418 3.263,2.863c0.17,1.498 0.49,3.163 -0.393,4.5c-1.354,2.05 -2.728,2.143 -4.943,2.577l-31.341,0.143c-5.634,0.034 -12.004,0.623 -17.492,-0.453c-1.421,-0.962 -1.93,-1.742 -2.691,-3.267c-0.012,-1.614 -0.401,-3.245 0.646,-4.572c1.312,-1.662 3.342,-2.163 5.324,-2.489z" transform="scale(0.2929689884185791) " fill="#FEFEFE"/>
  <path id="svg_13" d="m921.638,566.089c4.218,-0.316 9.037,0.643 12.642,2.906c4.109,2.579 7.137,7.049 8.192,11.77c1.117,4.999 -0.137,10.985 -3.008,15.194c-3.174,4.653 -8.008,6.908 -13.357,8.01c-4.178,0.212 -7.606,-0.09 -11.357,-2.125c-4.67,-2.533 -8.277,-6.817 -9.631,-11.969c-1.36,-5.168 -0.328,-11.128 2.561,-15.625c3.326,-5.175 8.19,-7.021 13.958,-8.161z" transform="scale(0.2929689884185791) " fill="#25EDCA"/>
  <path id="svg_14" d="m864.406,330.586c1.956,0.042 3.957,-0.178 5.903,0.106c4.884,0.713 9.623,3.073 12.44,7.214c2.88,4.232 4.639,9.773 3.461,14.888l-0.174,0.706c-0.539,2.266 -1.138,4.157 -2.265,6.189c-3.1,5.591 -7.532,7.952 -13.45,9.667c-3.989,0.309 -7.74,0.021 -11.388,-1.787c-4.521,-2.24 -8.377,-6.802 -9.91,-11.59c-1.726,-5.397 -1.552,-10.835 1.247,-15.84c3.065,-5.48 8.308,-8.039 14.136,-9.553z" transform="scale(0.2929689884185791) " fill="#25EDCA"/>
  <path id="svg_15" d="m179.492,287.592c3.918,-0.252 8.097,0.529 11.583,2.403c5.033,2.706 8.624,7.783 10.032,13.274c1.268,4.946 -0.257,11.448 -3.071,15.652c-3.432,5.125 -9.016,7.858 -14.915,8.972c-0.806,0.087 -1.566,0.099 -2.375,0.023c-5.747,-0.542 -11.18,-2.876 -14.877,-7.428c-3.465,-4.265 -5.388,-9.701 -4.609,-15.225l0.121,-0.763c0.416,-2.762 1.184,-5.162 2.714,-7.532c3.656,-5.66 9.142,-7.938 15.397,-9.376z" transform="scale(0.2929689884185791) " fill="#25EDCA"/>
  <path id="svg_16" d="m147.351,484.757l0.096,-18.007l2.093,-0.625l3.277,0.568c0.849,6.521 0.321,13.7 0.369,20.292l0.134,18.129c0.007,4.898 0.075,10.231 -1.138,14.985l-0.195,0.78c-3.828,14.7 -15.408,16.564 -25.525,25.138c-4.658,3.948 -8.125,9.121 -10.947,14.483c-3.237,6.15 -5.44,13.318 -6.04,20.242c0.277,17.888 5.063,35.283 18.275,48.098c7.77,7.537 18.21,13.57 28.96,15.408c5.615,0.959 11.404,0.851 17.081,0.687l7.196,-0.56c0.563,1.469 0.897,2.879 1.018,4.444c-4.403,1.805 -10.519,2.211 -15.241,2.186c-16.825,-0.09 -32.234,-6.412 -44.075,-18.355c-12.396,-12.503 -19.423,-31.088 -19.156,-48.65c0.267,-17.565 8.352,-35.628 22.645,-46.13c4.729,-3.475 10.532,-5.826 14.671,-10.02c6.894,-6.983 6.61,-17.522 6.597,-26.644l-0.095,-16.449z" transform="scale(0.2929689884185791) " fill="#FEFEFE"/>
  <path id="svg_17" d="m200.816,109.093c4.761,-0.384 9.24,-0.33 13.676,1.674c5.652,2.552 10.764,7.514 12.847,13.437c2.178,6.194 1.576,12.964 -1.397,18.796c-3.17,6.219 -8.718,9.251 -15.071,11.324c-5.519,0.463 -10.73,0.779 -15.816,-1.857c-5.277,-2.735 -9.295,-7.529 -11.035,-13.217c-1.937,-6.331 -1.102,-13.268 1.995,-19.078c3.337,-6.261 8.297,-9.107 14.801,-11.079z" transform="scale(0.2929689884185791) " fill="#25EDCA"/>
  <path id="svg_18" d="m838.628,862.079c4.862,-0.728 9.971,0.363 14.283,2.649c5.339,2.83 9.174,8.061 10.866,13.794c1.756,5.946 1.393,12.544 -1.658,17.998c-3.773,6.741 -10.308,9.646 -17.42,11.431c-5.511,0.396 -10.661,-1.109 -15.357,-3.991c-5.42,-3.326 -8.9,-8.844 -10.268,-14.969c-1.225,-5.485 0.305,-11.88 3.342,-16.578c3.776,-5.841 9.574,-8.865 16.212,-10.334z" transform="scale(0.2929689884185791) " fill="#25EDCA"/>
  <path id="svg_19" d="m699.809,414.445l7.389,-21.579c11.516,6.208 20.278,13.05 24.137,26.126c3.573,12.104 2.474,25.932 -3.678,37.037c-5.518,9.962 -16.178,18.553 -27.207,21.595c-4.115,1.135 -8.163,1.5 -12.418,1.419l11.186,-53.925l1.442,-9.718l-0.851,-0.955z" transform="scale(0.2929689884185791) " fill="#E0A485"/>
  <path id="svg_20" d="m700.66,415.4c0.586,-1.194 0.681,-1.707 1.84,-2.408c7.187,0.385 14.009,4.362 18.775,9.606l0.415,0.464c-3.614,0.166 -7.364,0.211 -10.931,0.818c-3.644,0.62 -7.137,1.84 -10.759,2.548c-0.686,-0.817 -0.436,-0.374 -0.782,-1.31l1.442,-9.718z" transform="scale(0.2929689884185791) " fill="#C38862"/>
  <path id="svg_21" d="m221.976,616.489l10.469,6.072c-0.014,-9.751 -1.046,-22.562 6.453,-30.16c1.657,-1.679 3.94,-2.876 6.348,-2.798c3.439,0.111 7.02,1.704 9.753,3.724c-1.243,3.354 -2.401,6.641 -3.043,10.173l-0.13,0.661c-1.478,8.155 1.233,27.374 5.989,34.089c0.621,0.876 1.278,1.408 2.267,1.825c-4.222,6.132 -9.711,11.751 -14.499,17.463c-3.501,4.178 -6.647,8.893 -10.564,12.677c-1.035,-1.049 -4.759,-4.7 -6.162,-4.871c-0.918,-0.112 -3.33,0.73 -4.405,0.924c-5.81,1.046 -12.383,1.084 -18.098,-0.454l-0.854,-0.239l-1.938,-0.497c-8.201,-2.218 -17.262,-8.848 -21.557,-16.259c-0.121,-1.565 -0.455,-2.975 -1.018,-4.444c1.173,-2.908 -2.309,-9.676 -3.3,-12.683c-1.194,-3.626 -1.979,-7.374 -1.254,-11.192c0.792,-4.171 3.202,-7.634 6.765,-9.907c6.428,-4.101 13.218,-2.091 20.08,-0.57l11.409,3.875c2.401,0.979 4.756,1.993 7.289,2.591z" transform="scale(0.2929689884185791) " fill="#F3CBAC"/>
  <path id="svg_22" d="m760.499,639.841c1.792,-0.348 2.881,-2.036 3.851,-3.556c4.736,-7.425 5.994,-18.494 6.504,-27.126c0.156,-2.648 -0.105,-6.133 0.779,-8.62c0.833,-2.341 3.128,-4.163 5.462,-4.858c1.887,-0.563 3.643,-0.046 5.277,0.95c3.04,1.852 4.848,4.804 5.495,8.272c1.359,7.276 -0.822,15.315 -1.956,22.509c3.686,-4.998 7.031,-10.591 10.283,-15.902c3.223,-5.265 9.33,-18.278 15.686,-19.915c1.703,-0.439 3.805,0.289 5.198,1.281c1.465,1.044 2.538,2.293 3.361,3.874c0.582,6.239 -3.296,11.868 -6.474,16.987c-3.066,4.94 -6.248,9.774 -9.76,14.408l10.158,-8.884c5.079,-4.873 14.729,-16.983 22.387,-16.377c1.711,0.136 3.566,1.282 4.68,2.551c1.208,1.375 1.561,3.678 1.33,5.447c-0.454,3.48 -3.486,6.202 -5.823,8.548l-10.187,10.223c-1.626,1.694 -3.648,3.472 -4.825,5.49l16.177,-7.327c3.158,-1.312 6.509,-2.822 9.93,-3.244c1.428,-0.176 2.771,0.098 4.095,0.638c1.753,0.714 2.743,1.784 3.415,3.54c0.597,1.561 0.836,3.541 0.07,5.091c-3.348,6.776 -28.197,14.834 -35.759,17.742c6.494,0.121 20.57,-0.538 25.487,3.924c1.101,0.999 1.685,3.098 1.63,4.541c-0.077,2.038 -1.394,4.147 -2.97,5.372c-3.508,2.726 -8.504,2.143 -12.668,2.112l-14.082,-0.169c-2.089,-0.052 -4.659,-0.545 -6.675,0.002c-4.16,1.129 -10.874,6.376 -14.226,9.192c-1.927,-4.283 -7.821,-8.68 -11.201,-12.06l-24.649,-24.656z" transform="scale(0.2929689884185791) " fill="#F3CBAC"/>
  <path id="svg_23" d="m121.587,580.713l102.54,0.036c0.934,13.2 -1.853,22.488 -9.44,33.149l-11.409,-3.875c-6.862,-1.521 -13.652,-3.531 -20.08,0.57c-3.563,2.273 -5.973,5.736 -6.765,9.907c-0.725,3.818 0.06,7.566 1.254,11.192c0.991,3.007 4.473,9.775 3.3,12.683l-7.196,0.56c-5.677,0.164 -11.466,0.272 -17.081,-0.687c-10.75,-1.838 -21.19,-7.871 -28.96,-15.408c-13.212,-12.815 -17.998,-30.21 -18.275,-48.098l12.112,-0.029z" transform="scale(0.2929689884185791) " fill="#FCCF1E"/>
  <path id="svg_24" d="m121.587,580.713l102.54,0.036c0.934,13.2 -1.853,22.488 -9.44,33.149l-11.409,-3.875c3.496,-4.807 7.798,-9.452 9.727,-15.178c1.512,-4.484 1.445,-9.365 1.295,-14.029l-92.713,-0.103z" transform="scale(0.2929689884185791) " fill="#CF9207"/>
  <path id="svg_25" d="m149.54,466.125l31.526,-0.085l-1.959,0.71l-0.373,23.964c-0.159,8.66 -1.29,18.545 0.281,27.017c0.898,4.843 2.963,10.174 6.3,13.866c3.879,4.291 9.51,6.686 14.369,9.68c13.876,8.552 21.339,23.884 24.443,39.472l-102.54,-0.036l-12.112,0.029c0.6,-6.924 2.803,-14.092 6.04,-20.242c2.822,-5.362 6.289,-10.535 10.947,-14.483c10.117,-8.574 21.697,-10.438 25.525,-25.138l0.195,-0.78c1.213,-4.754 1.145,-10.087 1.138,-14.985l-0.134,-18.129c-0.048,-6.592 0.48,-13.771 -0.369,-20.292l-3.277,-0.568z" transform="scale(0.2929689884185791) " fill="#6BD1E0"/>
  <path id="svg_26" d="m877.288,201.627c9.806,-1.072 20.016,1.847 28.301,7.057c10.418,6.551 17.706,16.774 20.336,28.784c2.574,11.753 -0.315,24.908 -6.925,34.87c-7.802,11.758 -19.498,17.327 -32.952,20.142c-11.429,0.951 -21.333,-1.655 -30.798,-8.109c-10.84,-7.392 -17.141,-17.896 -19.469,-30.707c-2.103,-11.574 0.502,-23.087 7.324,-32.66c8.253,-11.58 20.512,-17.087 34.183,-19.377z" transform="scale(0.2929689884185791) " fill="#25EDCA"/>
  <path id="svg_27" d="m170.078,780.66c3.503,-0.306 7.181,-0.47 10.677,-0.046c12.859,1.559 23.641,8.388 31.402,18.663c6.968,9.224 10.307,21.37 8.542,32.834l-0.148,0.889c-1.084,6.797 -3.84,14.045 -7.867,19.658c-7.605,10.595 -20.161,16.674 -32.762,18.692c-10.363,1.246 -22.107,-1.728 -30.792,-7.511c-9.865,-6.567 -16.953,-16.944 -19.252,-28.589c-2.214,-11.221 -0.042,-24.647 6.495,-34.129c8.305,-12.048 19.637,-17.775 33.705,-20.461z" transform="scale(0.2929689884185791) " fill="#25EDCA"/>
  <path id="svg_29" d="m575.869,620.665l0.519,0.167c7.772,2.572 15.402,7.075 22.335,11.375c13.183,8.176 25.498,17.478 38.027,26.596l27.054,19.2l18.98,13.476c3.996,2.792 8.379,5.499 11.999,8.757l35.164,-31.711l18.512,-16.796c3.094,-2.802 7.513,-5.662 10.081,-8.864c0.594,-0.741 0.88,-1.686 1.42,-2.423l0.539,-0.601l24.649,24.656c3.38,3.38 9.274,7.777 11.201,12.06c3.13,3.281 8.03,6.878 10.489,10.551l-58.491,51.6c-8.28,7.363 -16.658,16.981 -26.27,22.515c-7.871,4.532 -17.011,7.213 -26.144,6.518c-13.173,-1.003 -23.645,-8.317 -34.819,-14.616c-14.917,-8.409 -29.529,-18.055 -44.802,-25.703l29.649,209.001l1.705,15.606c-41.674,8.397 -83.299,10.594 -125.692,11.011l0.1,-164.689l0.037,-22.846c-0.025,-2.048 -0.703,-6.396 -0.155,-8.248c0.613,-2.068 3.646,-4.554 5.139,-6.164l12.209,-13.401l39.394,-44.138l-12.907,-16.781l27.319,-14.383l-18.223,-51.122l0.982,-0.603z" transform="scale(0.2929689884185791) " fill="#FEFEFE"/>
  <path id="svg_30" d="m588.375,853.25c0.708,-0.065 0.488,-0.111 1.247,0.141c2.393,0.792 5.937,5.329 7.808,7.218l18.637,19.717c3.201,3.633 6.568,7.139 8.855,11.443c-13.343,-11.136 -24.943,-24.591 -36.672,-37.393l0.125,-1.126z" transform="scale(0.2929689884185791) " fill="#0F7DB2"/>
  <path id="svg_31" d="m550.654,905.041c2.532,-0.305 5.082,-0.118 7.532,0.585c3.389,0.973 5.916,2.953 7.522,6.135c0.807,1.6 1.131,3.31 0.44,5.021c-0.936,2.321 -3.218,3.732 -5.359,4.77c-1.854,0.342 -3.442,0.523 -5.308,0.13c-3.773,-0.795 -7.315,-3.069 -9.364,-6.359c-1.018,-1.633 -1.621,-3.58 -0.957,-5.485c0.843,-2.42 3.411,-3.64 5.494,-4.797z" transform="scale(0.2929689884185791) " fill="#26C671"/>
  <path id="svg_32" d="m548.736,772.75c1.909,-0.515 4.851,-0.388 6.829,-0.188c3.561,0.36 7.493,2.701 9.637,5.53c1.166,1.539 1.9,3.619 1.542,5.563c-0.461,2.493 -2.694,4.071 -4.569,5.516c-1.927,0.524 -3.454,0.826 -5.449,0.516l-0.726,-0.124c-3.685,-0.595 -7.198,-2.447 -9.465,-5.479c-1.386,-1.854 -2.39,-4.397 -1.873,-6.735c0.498,-2.258 2.257,-3.404 4.074,-4.599z" transform="scale(0.2929689884185791) " fill="#26C671"/>
  <path id="svg_33" d="m550.057,834.572l5.193,-0.032c3.566,0.344 7.706,3.05 9.808,5.895c1.178,1.594 2.078,3.9 1.616,5.908c-0.658,2.863 -3.208,4.349 -5.566,5.706c-1.348,0.355 -2.969,0.576 -4.358,0.442c-3.8,-0.366 -7.848,-3.272 -10.044,-6.296c-1.333,-1.834 -2.527,-4.113 -2.057,-6.434c0.533,-2.639 3.281,-4.033 5.408,-5.189z" transform="scale(0.2929689884185791) " fill="#26C671"/>
  <path id="svg_34" d="m485.911,587.248l21.056,2.53c14.894,1.067 32.392,0.168 46.876,-3.358l0.223,8.664c-0.018,5.407 -0.419,11.196 0.149,16.553l0.535,1.379l10.399,3.337l7.958,3.687l2.762,0.625l-0.982,0.603l18.223,51.122l-27.319,14.383l12.907,16.781l-39.394,44.138l-12.209,13.401c-1.493,1.61 -4.526,4.096 -5.139,6.164c-0.548,1.852 0.13,6.2 0.155,8.248l-0.037,22.846l-0.1,164.689l-3.605,-0.018l-82.751,-4.063c-16.484,-1.588 -32.608,-3.18 -48.732,-7.193l1.689,-15.951l35.124,-211.786l-23.493,11.578l-34.474,16.909c-7.534,3.708 -15.176,8.258 -23.133,10.912c-2.536,0.846 -4.892,1.629 -7.564,1.927c-8.753,0.977 -18.503,-0.96 -26.25,-5.119c-4.741,-2.546 -8.926,-6.4 -12.966,-9.915l-15.596,-13.585l-58.287,-50.21l13.083,-16.311c3.917,-3.784 7.063,-8.499 10.564,-12.677c4.788,-5.712 10.277,-11.331 14.499,-17.463c0.543,-0.229 1.099,-0.356 1.668,-0.507l73.181,64.999c2.122,-0.718 5.04,-3.879 6.818,-5.376l20.602,-17.218c21.665,-16.749 43.702,-34.135 67.842,-47.223c13.54,-7.341 27.349,-12.772 41.883,-17.729c0.628,-0.186 0.337,-0.069 0.986,-0.408c3.606,-1.88 8.871,-4.318 12.994,-4.257l0.014,-8.109l-0.159,-16.999z" transform="scale(0.2929689884185791) " fill="#FEFEFE"/>
  <path id="svg_35" d="m455.66,852.25l0.191,0.092c0.988,0.752 1.355,0.82 1.508,2.073l-41.472,36.335l-1.202,0.5l25.821,-24.978l9.411,-9.149c1.779,-1.722 3.507,-3.782 5.743,-4.873z" transform="scale(0.2929689884185791) " fill="#0F7DB2"/>
  <path id="svg_36" d="m573.107,620.04l2.762,0.625l-0.982,0.603l18.223,51.122l-27.319,14.383l12.907,16.781l-39.394,44.138l-12.209,13.401c-1.493,1.61 -4.526,4.096 -5.139,6.164c-0.548,1.852 0.13,6.2 0.155,8.248l-0.037,22.846l-0.1,164.689l-3.605,-0.018l-0.282,-167.651l0.048,-19.174c0.031,-1.413 0.639,-5.877 0.207,-6.983c-0.346,-0.889 -2.264,-2.644 -2.936,-3.399l-11.207,-12.203l-45.044,-50.302l14.464,-16.417c-8.102,-5.717 -17.923,-10.127 -26.637,-14.92l8.228,-32.494c1.685,-5.919 3.45,-12.33 6.479,-17.714c-0.373,7.236 -2.543,14.687 -4.125,21.735l-5.891,26.745l26.913,15.787l-13.725,17.482l54.405,60.049c1.363,-0.703 2.745,-2.801 3.77,-3.968l8.627,-9.815l41.2,-46.821l-12.654,-16.88l26.958,-15.52c0.189,-2.485 -1.917,-6.942 -2.683,-9.483l-5.607,-18.715c-2.339,-7.33 -4.783,-14.116 -5.714,-21.83l-0.056,-0.491z" transform="scale(0.2929689884185791) " fill="#0F7DB2"/>
  <path id="svg_37" d="m485.911,587.248l21.056,2.53c14.894,1.067 32.392,0.168 46.876,-3.358l0.223,8.664c-0.018,5.407 -0.419,11.196 0.149,16.553l0.535,1.379l10.399,3.337l-45.224,142.595l-12.745,-37.665l-23.323,-69.746l-8.01,-23.993c-1.124,-3.342 -2.052,-7.489 -3.771,-10.523c0.628,-0.186 0.337,-0.069 0.986,-0.408c3.606,-1.88 8.871,-4.318 12.994,-4.257l0.014,-8.109l-0.159,-16.999z" transform="scale(0.2929689884185791) " fill="#26C671"/>
  <path id="svg_38" d="m485.911,587.248l21.056,2.53c14.894,1.067 32.392,0.168 46.876,-3.358l0.223,8.664c-0.018,5.407 -0.419,11.196 0.149,16.553l-0.297,1.356c-8.309,5.029 -32.764,5.093 -42.168,4.341c-8.189,-0.655 -16.619,-2.199 -24.54,-4.379c-0.684,-0.188 -0.465,-0.131 -1.154,-0.599l0.014,-8.109l-0.159,-16.999z" transform="scale(0.2929689884185791) " fill="#F3CBAC"/>
  <path id="svg_39" d="m485.911,587.248l21.056,2.53c14.894,1.067 32.392,0.168 46.876,-3.358l0.223,8.664c-18.68,9.473 -42.447,10.159 -62.238,3.64l-5.422,-1.785c-0.025,2.382 0.156,4.976 -0.336,7.308l-0.159,-16.999z" transform="scale(0.2929689884185791) " fill="#C38862"/>
  <path id="svg_40" d="m468.386,144.109c4.592,-6.153 8.468,-12.258 14.261,-17.457c16.42,-14.736 38.946,-14.855 59.353,-19.286c9.209,-1.999 18.603,-5.254 26.828,-9.9033c21.364,-12.0771 30.361,-33.1873 36.67,-55.6308l5.892,21.4375c7.002,24.5359 10.267,50.1396 5.6,75.4716c-1.007,5.467 -2.683,10.553 -4.043,15.915l28.989,6.146c13.439,3.454 26.519,8.01 40.21,10.434c7.599,1.346 15.772,2.141 23.354,0.385c17.617,-4.081 29.51,-13.549 40.92,-27.315l-9.583,41.698c-6.028,17.403 -15.212,33.647 -27.123,47.714c-3.874,4.575 -8.386,8.745 -12.657,12.954l43.051,-11.91c-8.068,13.677 -16.411,27.324 -26.685,39.479c-1.556,1.841 -4.952,4.872 -5.846,7.033c-11.726,14.249 -21.784,29.416 -36.13,41.354c-3.473,2.89 -7.347,5.23 -11.046,7.811l-1.253,-0.729c-8.006,-5.18 -15.3,-10.738 -22.331,-17.172c-13.616,8.04 -29.847,13.363 -45.265,16.635c-51.659,10.963 -108.014,-2.698 -152.614,-29.703c-7.398,-4.479 -14.559,-9.247 -21.428,-14.51c-3.973,-3.044 -7.945,-6.88 -12.161,-9.529l-0.741,-0.456l-0.867,-0.947c-1.506,1.216 -1.766,4.166 -2.329,5.972c-0.904,2.903 -2.062,5.806 -3.264,8.597c-8.216,19.07 -22.192,35.668 -39.371,47.267c-4.028,2.72 -8.292,5.616 -12.737,7.573l0.376,93.815c-3.423,-6.46 -6.287,-12.966 -10.828,-18.773l-3.014,-4.783c-2.273,-5.423 -5.991,-12.44 -9.534,-17.098c-1.889,-3.525 -3.312,-7.524 -4.746,-11.268c-6.023,-15.728 -9.042,-32.223 -9.349,-49.078c-0.569,-31.358 7.652,-63.287 26.713,-88.555c4.757,-6.305 10.256,-11.853 15.732,-17.523c-11.651,-2.062 -23.121,-2.481 -34.906,-2.012c9.778,-8.176 19.602,-13.054 32.006,-15.84c7.105,-1.595 14.81,-1.055 22.059,-0.897c-3.613,-5.638 -6.576,-11.182 -8.052,-17.752l-0.201,-0.923l-0.195,-0.834c-1.866,-8.388 0.568,-17.073 3.651,-24.861c1.079,-2.727 2.039,-5.496 3.632,-7.974c0.399,12.272 2.402,23.678 8.642,34.426c2.502,4.31 5.753,8.263 8.822,12.178c-0.58,-5.873 -1.411,-12.004 -1.207,-17.914c0.492,-14.224 6.307,-28.615 13.818,-40.532c19.512,-30.956 52.773,-48.4597 87.277,-57.4445c5.695,-1.4831 11.673,-2.0274 17.443,-3.3254c-6.775,4.7007 -12.213,10.0692 -17.704,16.1779c-6.63,9.246 -11.921,18.712 -15.442,29.603c-1.199,3.706 -2.552,7.951 -2.647,11.859z" transform="scale(0.2929689884185791) " fill="#FEFEFE"/>
  <path id="svg_41" d="m468.386,144.109c0.063,0.293 0.059,0.122 -0.12,0.533c-1.23,2.836 -2.738,5.559 -3.784,8.475c-2.248,6.272 -3.404,12.729 -4.614,19.255l-0.592,-0.266c-1.082,-0.714 -2.204,-2.169 -3.116,-3.111c-4.299,-4.441 -7.622,-9.401 -8.551,-15.667c-1.589,-10.709 3.43,-20.431 9.49,-28.801c2.822,-3.897 6.072,-7.101 9.743,-10.187c5.438,-4.573 12.706,-9.88 19.633,-11.693c-6.63,9.246 -11.921,18.712 -15.442,29.603c-1.199,3.706 -2.552,7.951 -2.647,11.859z" transform="scale(0.2929689884185791) " fill="#E0E2F4"/>
  <path id="svg_42" d="m611.39,63.2694c7.002,24.5359 10.267,50.1396 5.6,75.4716c-1.007,5.467 -2.683,10.553 -4.043,15.915l-7.527,14.112l-0.439,0.732c-4.049,6.834 -10.208,13.406 -16.44,18.303c-18.571,14.592 -40.722,19.09 -63.791,16.407c3.054,-1.934 6.564,-3.065 9.839,-4.569c4.111,-1.887 8.172,-4.378 11.921,-6.916c7.313,-4.951 14.354,-10.21 20.517,-16.577c20.19,-20.859 31.528,-50.182 36.748,-78.3429c1.71,-9.2261 1.576,-18.9203 3.507,-27.9848c0.628,-2.9506 1.583,-4.8502 4.108,-6.5509z" transform="scale(0.2929689884185791) " fill="#E0E2F4"/>
  <path id="svg_43" d="m736.837,186.004c-6.028,17.403 -15.212,33.647 -27.123,47.714c-3.874,4.575 -8.386,8.745 -12.657,12.954l43.051,-11.91c-8.068,13.677 -16.411,27.324 -26.685,39.479c-1.556,1.841 -4.952,4.872 -5.846,7.033c-11.726,14.249 -21.784,29.416 -36.13,41.354c-3.473,2.89 -7.347,5.23 -11.046,7.811l-1.253,-0.729c-8.006,-5.18 -15.3,-10.738 -22.331,-17.172c7.206,-4.589 14.363,-8.758 21.274,-13.862c15.314,-11.312 28.112,-24.785 38.712,-40.569c-5.898,3.231 -13.352,5.088 -19.866,6.585c-33.316,7.656 -67.429,5.96 -99.624,-5.902c-7.794,-2.872 -15.305,-5.829 -22.366,-10.253c51.571,8.185 107.756,-4.392 149.553,-36.027l15.75,-12.7c5.46,-4.851 9.698,-10.931 16.587,-13.806z" transform="scale(0.2929689884185791) " fill="#E0E2F4"/>
  <path id="svg_44" d="m335.588,418.479c4.541,5.807 7.405,12.313 10.828,18.773l-0.376,-93.815c4.445,-1.957 8.709,-4.853 12.737,-7.573c17.179,-11.599 31.155,-28.197 39.371,-47.267c1.202,-2.791 2.36,-5.694 3.264,-8.597c0.563,-1.806 0.823,-4.756 2.329,-5.972l0.867,0.947l0.741,0.456c4.216,2.649 8.188,6.485 12.161,9.529c6.869,5.263 14.03,10.031 21.428,14.51c44.6,27.005 100.955,40.666 152.614,29.703c15.418,-3.272 31.649,-8.595 45.265,-16.635c7.031,6.434 14.325,11.992 22.331,17.172l1.253,0.729c3.699,-2.581 7.573,-4.921 11.046,-7.811c14.346,-11.938 24.404,-27.105 36.13,-41.354c9.781,28.959 11.877,60.057 5.673,90.039c-1.512,7.309 -3.778,14.453 -6.052,21.553l-7.389,21.579l0.851,0.955l-1.442,9.718l-11.186,53.925c-17.472,43.729 -48.263,76.008 -91.548,94.617c-13.05,5.61 -28.442,11.168 -42.641,12.76c-14.484,3.526 -31.982,4.425 -46.876,3.358l-21.056,-2.53l-18.127,-3.396c-9.538,-2.24 -19.154,-5.685 -28.091,-9.681c-32.48,-14.521 -61.481,-37.257 -78.886,-68.794c-5.294,-9.592 -9.207,-19.797 -13.112,-30.008c-2.334,-0.252 -4.709,0.179 -7.063,0.064c-4.027,-0.197 -8.331,-0.948 -12.194,-2.123c-10.723,-3.261 -20.128,-11.279 -25.402,-21.131c-5.208,-9.73 -6.35,-20.609 -3.02,-31.179c3.781,-12.002 12.265,-18.772 23.024,-24.402c3.543,4.658 7.261,11.675 9.534,17.098l3.014,4.783z" transform="scale(0.2929689884185791) " fill="#F3CBAC"/>
  <path id="svg_45" d="m332.574,413.696l3.014,4.783l-1.197,2.845c-2.139,2.358 -4.696,5.484 -8.157,5.597l-1.984,-0.079l-0.723,-1.375c-2.204,-0.824 -7.325,0.416 -9.785,0.682l1.161,-2.149c0.815,-1.502 1.661,-2.816 2.789,-4.1c4.42,-5.031 8.454,-5.838 14.882,-6.204z" transform="scale(0.2929689884185791) " fill="#C38862"/>
  <path id="svg_46" d="m523.493,435.047c3.563,-0.177 6.963,-0.24 9.919,2.017c5.215,3.982 7.47,9.346 8.355,15.686c-1.241,1.065 -1.116,1.111 -2.732,1c-1.774,-2.18 -2.009,-4.901 -3.061,-7.437c-1.498,-3.607 -3.908,-5.639 -7.428,-7.118l-0.602,-0.245l-2.551,0.121c-8.563,1.23 -7.216,10.661 -11.335,16.179c-1.34,0.197 -1.323,-0.041 -2.43,-0.862c-1.037,-2.176 -0.277,-4.312 0.509,-6.472c2.25,-6.185 5.373,-10.075 11.356,-12.869z" transform="scale(0.2929689884185791) " fill="#7C6B6D"/>
  <path id="svg_47" d="m432.091,346.629c6.14,-0.943 13.264,0.132 19.229,1.735c1.839,0.495 4.067,1.005 5.68,2.034c1.616,1.032 2.926,2.942 3.226,4.852c0.14,0.891 0.21,1.349 -0.345,2.061c-0.428,0.549 -1.912,1.982 -2.631,2.137c-0.835,0.179 -2.703,-0.499 -3.568,-0.718c-2.615,-0.664 -5.227,-1.309 -7.889,-1.761c-6.122,-1.038 -12.79,-0.754 -18.908,0.125c-8.059,1.113 -15.877,5.994 -22.711,10.1l-0.078,-0.261c0.931,-2.166 1.89,-4.269 3.187,-6.247c5.889,-8.987 14.786,-11.992 24.808,-14.057z" transform="scale(0.2929689884185791) " fill="#0B2A75"/>
  <path id="svg_48" d="m570.766,353.114c11.291,-6.169 24.413,-7.241 36.943,-5.744c9.965,4.809 15.25,10.642 19.773,20.716c-5.384,-3.612 -10.766,-7.284 -16.961,-9.398c-8.857,-3.022 -18.974,-2.483 -28.045,-0.718c-2.989,0.582 -7.081,2.405 -9.705,0.601c-0.944,-0.649 -1.436,-1.455 -1.713,-2.571l-0.292,-2.886z" transform="scale(0.2929689884185791) " fill="#0B2A75"/>
  <path id="svg_49" d="m323.527,425.467l0.723,1.375l1.984,0.079c3.461,-0.113 6.018,-3.239 8.157,-5.597c2.226,16.014 5.607,31.056 10.764,46.401c-8.514,-2.548 -15.62,-5.175 -20.141,-13.476c-4.404,-8.085 -4.905,-18.053 -2.14,-26.746l0.555,-1.608l0.098,-0.428z" transform="scale(0.2929689884185791) " fill="#E0A485"/>
  <path id="svg_50" d="m434.267,390.544c3.045,-0.102 5.998,-0.3 8.938,0.642l0.795,0.272l2.064,0.746c4.171,2.004 7.715,6.255 9.287,10.542l0.266,0.754l0.251,0.672c1.607,4.629 0.537,10.572 -1.567,14.888c-2.664,5.466 -6.27,8.687 -11.989,10.696c-2.409,0.662 -5.328,1.127 -7.785,0.478l-0.527,-0.153l-1.197,-0.353c-5.007,-1.752 -8.98,-5.767 -11.133,-10.538c-2.455,-5.443 -1.807,-11.909 0.254,-17.363c2.248,-5.948 6.838,-8.752 12.343,-11.283z" transform="scale(0.2929689884185791) " fill="#0B2A75"/>
  <path id="svg_51" d="m443.196,396.25c0.993,-0.048 2.091,-0.005 3.054,0.249c2.075,0.547 4.3,2.32 5.391,4.149c1.225,2.053 1.398,4.725 0.731,7.003c-0.664,2.268 -2.807,3.607 -4.795,4.599c-1.708,0.235 -3.639,0.588 -5.243,-0.237c-1.964,-1.011 -3.633,-3.389 -4.296,-5.464c-0.792,-2.479 -0.514,-4.925 0.736,-7.222c0.977,-1.795 2.543,-2.537 4.422,-3.077z" transform="scale(0.2929689884185791) " fill="#FEFEFE"/>
  <path id="svg_52" d="m585.095,390.542c3.503,-0.158 6.845,0.213 9.994,1.9c4.856,2.603 8.221,7.114 9.718,12.372c1.676,5.887 0.732,12.533 -2.39,17.806c-3.368,5.688 -8.123,8.198 -14.303,9.875c-3.607,0.141 -6.763,-0.66 -9.992,-2.229c-4.69,-2.279 -8.277,-7.019 -9.88,-11.922c-1.854,-5.675 -0.868,-12.599 1.969,-17.798c3.238,-5.936 8.766,-8.214 14.884,-10.004z" transform="scale(0.2929689884185791) " fill="#0B2A75"/>
  <path id="svg_53" d="m592.196,396.75c1.263,-0.134 2.64,0.003 3.759,0.653c1.787,1.038 4.002,3.519 4.413,5.597c0.464,2.343 0.341,4.891 -1.138,6.839c-1.523,2.005 -3.02,2.812 -5.48,3.174c-1.176,0.011 -2.127,-0.05 -3.233,-0.492c-2.162,-0.864 -4.086,-2.929 -4.848,-5.129c-0.715,-2.068 -0.9,-4.461 0.223,-6.428c1.269,-2.223 3.95,-3.534 6.304,-4.214z" transform="scale(0.2929689884185791) " fill="#FEFEFE"/>
  <path id="svg_54" d="m480.244,518.185c6.704,-8.918 16.758,-15.822 27.41,-19.205c10.567,-3.355 22.766,-5.038 33.76,-3.056c7.767,1.4 14.77,4.334 21.75,7.916c-9.432,12.571 -20.219,23.327 -36.57,25.452c-16.124,2.096 -33.193,-1.03 -46.35,-11.107z" transform="scale(0.2929689884185791) " fill="#D84F6E"/>
  <path id="svg_55" d="m625.31,432.118c6.554,-0.249 13.194,0.173 19.206,3.088c6.285,3.048 11.656,8.967 13.72,15.692c1.727,5.63 -0.042,12.032 -2.98,16.961c-4.171,6.997 -11.785,10.066 -19.259,12.035c-7.672,0.879 -15.14,-0.038 -21.82,-4.039c-5.851,-3.505 -10.391,-8.774 -11.927,-15.5c-1.365,-5.975 0.632,-12.658 4.038,-17.612c4.421,-6.43 11.619,-9.325 19.022,-10.625z" transform="scale(0.2929689884185791) " fill="#EFA09F"/>
  <path id="svg_56" d="m403.368,432.691c7.544,-0.522 14.916,1.811 21.042,6.236c4.894,3.535 8.827,9.342 9.619,15.366c0.758,5.776 -0.938,11.585 -4.465,16.207c-5.774,7.566 -15.123,9.761 -24.035,11.012c-8.065,-0.735 -15.536,-2.001 -22.271,-6.884c-5.344,-3.875 -8.717,-9.183 -9.62,-15.77c-0.65,-4.745 1.436,-10.291 4.27,-14.063c6.417,-8.546 15.492,-10.698 25.46,-12.104z" transform="scale(0.2929689884185791) " fill="#EFA09F"/>
  <path id="svg_57" d="m707.577,281.274c9.781,28.959 11.877,60.057 5.673,90.039c-1.512,7.309 -3.778,14.453 -6.052,21.553l-7.389,21.579l-12.627,19.931l-3.196,-90.009c-3.265,-2.339 -6.959,-3.638 -10.486,-5.485c-4.591,-2.403 -8.92,-5.395 -13.099,-8.443c3.699,-2.581 7.573,-4.921 11.046,-7.811c14.346,-11.938 24.404,-27.105 36.13,-41.354z" transform="scale(0.2929689884185791) " fill="#FEFEFE"/>
  <path id="svg_58" d="m480.244,518.185l-6.997,-5.818c-8.976,-8.804 -13.968,-21.126 -13.904,-33.63c0.028,-5.491 0.323,-14.14 4.407,-18.19c1.818,0.406 2.257,1.259 3.514,2.593c6.92,1.504 13.721,3.444 20.708,4.629c18.821,3.191 39.841,3.259 58.755,0.384c7.011,-1.066 13.88,-3.049 20.872,-4.285l5.135,-1.824c0.507,3.019 1.255,6.233 1.272,9.288c0.066,11.636 -4.917,22.729 -10.842,32.508c-6.98,-3.582 -13.983,-6.516 -21.75,-7.916c-10.994,-1.982 -23.193,-0.299 -33.76,3.056c-10.652,3.383 -20.706,10.287 -27.41,19.205z" transform="scale(0.2929689884185791) " fill="url(#gradient_0)"/>
  <path id="svg_59" d="m467.264,463.14c6.92,1.504 13.721,3.444 20.708,4.629c18.821,3.191 39.841,3.259 58.755,0.384c7.011,-1.066 13.88,-3.049 20.872,-4.285c0.006,2.404 -0.039,4.779 -0.598,7.132c-0.875,3.678 -3.173,7.541 -6.548,9.422c-5.476,3.052 -12.737,3.624 -18.858,4.298c-7.104,0.782 -14.245,0.971 -21.389,1.037c-10.73,0.099 -21.746,-0.286 -32.043,-3.593c-10.217,-3.282 -16.081,-9.684 -20.899,-19.024z" transform="scale(0.2929689884185791) " fill="#FEFEFE"/>
  <path id="svg_60" d="m404.608,274.975l0.741,0.456c4.216,2.649 8.188,6.485 12.161,9.529c6.869,5.263 14.03,10.031 21.428,14.51c44.6,27.005 100.955,40.666 152.614,29.703c15.418,-3.272 31.649,-8.595 45.265,-16.635c7.031,6.434 14.325,11.992 22.331,17.172c-10.711,5.431 -21.867,9.42 -33.368,12.864l-11.28,2.914c-2.193,0.503 -4.854,0.701 -6.791,1.882c-12.53,-1.497 -25.652,-0.425 -36.943,5.744l-0.466,0.026c-20.201,1.78 -42.414,-0.74 -62.05,-5.644c-33.94,-8.475 -66.534,-24.808 -89.813,-51.39c-4.097,-4.678 -8.597,-9.949 -11.725,-15.329l-0.364,-0.635c-1.045,-1.803 -1.994,-3.023 -1.74,-5.167z" transform="scale(0.2929689884185791) " fill="#E0A485"/>
 </g>
</svg>