<svg width="74" height="75" viewBox="0 0 74 75" fill="none" xmlns="http://www.w3.org/2000/svg">
<path d="M64.2676 40.625V40.6094" stroke="white" stroke-width="1.5" stroke-linecap="round" stroke-linejoin="round"/>
<path d="M58.2769 23.125C59.0768 20.5893 61.4563 18.75 64.2674 18.75C67.7349 18.75 70.5457 21.5482 70.5457 25C70.5457 30.0211 65.2777 27.5524 64.4113 32.8125" stroke="white" stroke-width="1.5" stroke-linecap="round" stroke-linejoin="round"/>
<path d="M49.0752 46.875H24.5376C17.7617 46.875 12.2688 52.4716 12.2688 59.375V65.625H36.8064H61.344V59.375C61.344 52.4716 55.851 46.875 49.0752 46.875Z" stroke="white" stroke-width="1.5" stroke-linecap="round" stroke-linejoin="round"/>
<path d="M36.8064 34.375C43.5822 34.375 49.0752 28.7786 49.0752 21.875C49.0752 14.9714 43.5822 9.375 36.8064 9.375C30.0305 9.375 24.5376 14.9714 24.5376 21.875C24.5376 28.7786 30.0305 34.375 36.8064 34.375Z" stroke="white" stroke-width="1.5" stroke-linecap="round" stroke-linejoin="round"/>
</svg>
