<svg width="469" height="251" viewBox="0 0 469 251" fill="none" xmlns="http://www.w3.org/2000/svg">
<g clip-path="url(#clip0_30_607)">
<path d="M62.1993 251H0V0H469V251H408.314H350.937H349.32H339.464H336.601H313.536H313.197H303.62H245.934H243.085H223.368H220.177H165.261H155.289H154.489H144.172H143.403H139.973H130.921H130.592H129.465H128.623H121.431H118.731H117.695H62.1993Z" fill="#12151C"/>
<path d="M119.071 72.0676L121.638 77.2928L119.061 76.3587L119.071 72.0676Z" fill="#6FE3BE"/>
<path d="M337.843 164.841C338.431 164.933 338.866 164.963 339.295 165.458C338.839 166.74 337.753 168.101 337.018 169.244L336.553 169.989L336.43 169.744C336.682 168.107 337.24 166.367 337.843 164.841Z" fill="#6FE3BE"/>
<path d="M418.104 50.8289C419.118 48.228 420.115 45.1628 421.397 42.7319L420.35 52.1189L420.277 52.1535C420.046 51.5924 420.27 50.6612 420.135 49.9945L420.11 49.8813L420.396 49.5136C420.435 48.8138 420.518 48.6282 420.108 48.0463L419.711 47.9968C419.318 48.9349 418.958 50.019 418.228 50.7152L418.104 50.8289Z" fill="#425B66"/>
<path d="M233.396 209.32C233.389 209.187 233.382 209.14 233.405 208.993C233.502 208.354 233.657 208.078 234.191 207.766C235.132 207.215 237.156 207.334 238.164 207.597C238.67 207.937 238.853 208.279 239.108 208.836C237.172 209.231 235.407 208.514 233.396 209.32Z" fill="#FCF07A"/>
<path d="M403.287 164.428L412.294 157.213L407.471 171.385C407.402 171.018 407.313 170.624 407.45 170.263L407.744 169.376C407.872 168.95 408.082 168.567 408.202 168.151C408.458 167.245 408.84 166.363 409.118 165.454C409.243 165.038 409.44 164.616 409.532 164.195C409.592 163.923 409.626 163.928 409.802 163.738C409.777 163.466 409.816 163.314 409.912 163.068L410.034 162.758L410.148 162.329L410.32 162.023C410.471 161.576 410.056 161.097 409.843 160.719C407.43 160.603 405.719 164.173 403.287 164.428Z" fill="#425B66"/>
<path d="M320.248 10.4175L320.438 10.6932C318.954 14.1388 316.28 15.6953 313.335 17.46C314.867 14.5619 317.292 11.5891 320.248 10.4175Z" fill="#6FE3BE"/>
<path d="M119.186 131.755C120.965 132.746 122.686 134.158 124.35 135.373C124.74 135.658 125.773 136.308 126.003 136.684C126.344 137.239 126.578 138.546 126.752 139.217C127.224 141.036 127.675 142.798 128.279 144.572C126.821 143.504 124.565 142.198 123.43 140.819C122.865 140.132 122.54 138.988 122.156 138.168L119.186 131.755Z" fill="#60B79B"/>
<path d="M128.349 228.999L129.284 230.366C126.298 236.981 123.245 243.891 121.431 251H118.731C120.252 246.25 122.377 241.561 124.443 237.055C125.69 234.336 126.825 231.558 128.349 228.999Z" fill="#F8F8F8"/>
<path d="M183.096 189.639C182.789 189.92 181.597 190.85 181.558 191.19C180.511 192.245 179.172 192.819 177.885 193.466L165.26 199.618C164.6 199.848 162.902 198.773 162.184 198.426C168.875 194.758 175.834 191.755 183.096 189.639Z" fill="#F8F8F8"/>
<path d="M233.396 209.32C235.407 208.514 237.173 209.231 239.108 208.836C239.442 210.627 238.556 212.019 238.558 213.742L238.998 220.346C239.073 221.558 239.263 223.052 239.037 224.249C238.922 224.521 238.801 224.761 238.567 224.939C237.729 225.578 236.254 225.395 235.302 225.252C234.434 224.599 234.468 224.297 234.191 223.199C234.408 222.179 234.271 220.875 234.276 219.808C234.282 217.512 234.36 215.189 234.159 212.901C233.781 211.736 233.472 210.555 233.396 209.32Z" fill="#D2A745"/>
<path d="M435.668 78.8052L435.767 78.9966C436.147 80.2315 435.719 82.6087 435.668 83.9526L433.784 108.81C433.454 111.734 433.266 114.789 432.705 117.67C432.243 120.041 431.233 122.675 430.44 124.961C430.131 124.266 430.843 123.28 430.914 122.513C430.958 122.032 431.317 120.857 431.615 120.536L431.56 120.107L431.844 119.801L431.789 119.372L432.016 119.127C432.004 118.952 432 118.808 432.055 118.64C432.176 118.263 432.22 117.967 432.24 117.566C432.252 117.333 432.325 117.326 432.474 117.166L432.588 116.308C432.799 115.591 432.643 114.874 432.859 114.201C433.081 113.514 432.799 112.537 433.161 112.019C433.152 111.428 433.149 110.562 433.321 110.006C433.52 109.372 433.433 108.758 433.392 108.097L433.676 107.79C433.658 107.445 433.658 107.09 433.566 106.756C433.395 106.112 433.619 106.223 433.619 105.891C433.619 105.858 433.411 105.584 433.392 105.523C433.269 105.128 433.392 104.019 433.392 103.562C433.223 103.396 433.056 103.266 432.98 103.025L432.462 101.29L432.366 101.156L432.474 100.868C432.078 100.316 431.746 99.921 431.217 99.5164L430.873 98.5371C430.555 98.3658 430.411 98.4621 430.067 98.5359C429.797 98.7646 429.426 99.0207 429.27 99.3514L429.208 99.5176C429.048 99.8318 428.917 99.9353 428.917 100.337L428.922 100.497C428.576 100.961 427.882 102.21 427.878 102.802C427.878 103.051 427.795 103.105 427.665 103.314L427.663 103.562L427.539 103.646C427.172 103.961 425.127 108.379 425.125 108.812C425.123 109.092 424.729 109.287 424.688 109.687L424.685 109.935L424.537 110.019C424.227 110.213 423.813 111.024 423.772 111.403L423.769 111.651C423.082 112.359 422.826 113.287 422.283 114.102H421.942C428.008 102.861 432.135 91.1804 435.668 78.8052Z" fill="url(#paint0_linear_30_607)"/>
<path d="M383.799 117.937L385.879 116.835C385.409 117.562 384.443 118.686 384.188 119.48L377.339 129.071C376.549 130.141 375.708 131.585 374.728 132.422C372.555 134.277 369.576 135.606 367.176 137.209L373.313 125.255C373.87 124.218 375.163 123.516 376.084 122.875L383.799 117.937Z" fill="#60B79B"/>
<path d="M280.532 125.931L285.03 121.109C284.579 127.084 284.05 133.581 282.069 139.228C280.102 144.834 276.513 149.754 272.29 153.604C271.447 154.369 270.582 155.254 269.618 155.828C269.753 155.027 271.539 153.162 272.123 152.367C274.159 149.591 275.911 146.451 277.392 143.301C279.341 139.158 280.026 134.842 280.491 130.289C280.64 128.823 280.979 127.36 280.532 125.931Z" fill="#F8F8F8"/>
<path d="M290.507 187.376L289.337 186.026C300.171 189.047 311.546 193.575 321.238 199.624C320.276 200.069 319.142 200.872 318.123 201.046C316.003 200.521 313.781 199.044 311.782 198.08L297.547 191.561C295.605 190.703 293.574 189.544 291.54 189.013C291.263 188.419 290.876 187.906 290.507 187.376Z" fill="#F8F8F8"/>
<path d="M165.26 199.618L177.885 193.466C179.562 198.424 181.404 202.877 184.06 207.334L170.296 201.987C168.656 201.29 166.708 200.695 165.26 199.618Z" fill="#159774"/>
<path d="M180.82 193.472L181.715 193.139L194.83 206.824C197.341 209.211 200.232 211.191 202.673 213.608L187.105 208.515C184.618 204.933 182.339 200.74 181.098 196.462C180.809 195.466 181.168 194.476 180.859 193.573L180.82 193.472Z" fill="#159774"/>
<path d="M262.988 200.082C263.785 199.957 264.651 199.885 265.416 199.627C266.02 199.423 266.309 199.386 266.938 199.501C267.193 199.547 267.3 199.497 267.536 199.43C268.351 199.198 269.643 199.367 270.568 199.216L270.717 199.525L261.135 213.703L256.434 220.013L251.607 222.417L254.746 216.405C255.303 215.855 255.887 214.349 256.278 213.618L262.988 200.082Z" fill="#159774"/>
<path d="M180.581 184.727C179.114 183.412 177.83 181.539 176.587 179.966C171.263 173.226 166.819 166.288 162.665 158.673C169.547 150.439 178.579 146.474 187.993 142.645L188.011 143.081C182.021 145.997 176.313 149.019 171.408 153.841C170.331 154.899 168.98 156.202 168.429 157.683C167.584 159.955 169.169 162.997 170.046 165.046C171.734 168.989 173.516 172.893 175.654 176.583C176.367 177.814 180.565 183.739 180.581 184.727Z" fill="#F8F8F8"/>
<path d="M129.284 230.366C130.918 233.849 133.107 237.336 134.433 240.942C133.073 242.041 130.453 243.713 129.535 245.213C129.159 245.828 128.996 247.264 128.899 248.007L128.623 251H121.431C123.245 243.891 126.298 236.981 129.284 230.366Z" fill="#046E53"/>
<path d="M168.817 109.005C169.403 107.581 170.353 106.156 171.784 105.592L172.325 105.426C173.017 106.32 173.362 107.432 173.837 108.463C174.35 109.579 174.993 110.659 175.615 111.709L175.176 112.066C174.412 111.724 173.51 111.253 172.669 111.299C171.912 111.34 171.578 111.444 171.095 112.058C170.89 117.132 173.923 122.768 177.037 126.355C178.99 128.605 182.823 132.627 185.665 133.156L186.639 137.36L186.406 138.123L185.722 138.015C180.499 136.666 175.22 131.276 172.452 126.519C169.304 121.107 167.441 115.336 168.817 109.005Z" fill="#BB8A70"/>
<path d="M171.095 112.058C171.578 111.444 171.912 111.34 172.669 111.299C173.51 111.253 174.412 111.724 175.176 112.066L175.615 111.709L184.879 124.154L184.689 124.366C184.06 126.541 185.127 130.938 185.665 133.156C182.823 132.627 178.99 128.605 177.036 126.355C173.923 122.768 170.89 117.132 171.095 112.058Z" fill="#974744"/>
<path d="M171.095 112.058C171.578 111.444 171.912 111.34 172.669 111.299C173.51 111.253 174.412 111.724 175.176 112.066C175.936 112.933 176.595 114.232 177.29 115.205C177.658 115.72 178.391 116.485 178.622 117.049C178.803 117.489 178.604 119.251 178.613 119.821C178.631 121.018 178.808 122.14 179.158 123.28C179.99 125.987 181.508 128.099 182.789 130.533C180.413 128.338 178.073 125.346 176.959 122.181C176.112 119.777 175.769 117.31 175.195 114.837C175.046 114.194 174.926 113.567 174.461 113.091C173.524 112.13 172.319 112.057 171.095 112.058Z" fill="#561227"/>
<path d="M87.6916 65.6807L87.5915 65.6462C86.7936 65.2542 77.988 54.5823 77.581 53.5832C76.8963 51.9022 72.9291 37.2516 73.2616 36.3682L83.4142 47.2364C84.2691 48.1507 86.2113 49.7599 86.7034 50.847C86.921 51.3277 86.8333 53.2116 86.8697 53.8712C87.0804 57.6723 87.0254 61.9653 87.6916 65.6807Z" fill="#60B79B"/>
<path d="M196.283 201.546C196.458 201.283 196.616 201.046 196.688 200.727L196.733 200.506L197.058 200.348L197.136 200.037L197.172 199.845C197.545 199.668 197.783 199.622 198.191 199.626C198.464 199.628 198.701 199.405 199.098 199.412L199.209 199.158C200.089 199.214 200.89 198.722 201.781 198.708L207.898 198.657L222.564 224.224L212.293 217.829C211.83 217.123 210.997 216.5 210.384 215.924L206.631 212.301L196.283 201.546Z" fill="#159774"/>
<path d="M263.3 217.14C264.628 215.045 266.613 213.172 268.262 211.355C275.334 203.562 282.731 196.053 291.389 190.297C288.98 197.641 285.687 205.372 281.18 211.532L281.244 211.903L263.3 217.14Z" fill="#159774"/>
<path d="M223.368 251L221.71 240.392L244.888 240.377L243.085 251H223.368Z" fill="#561227"/>
<path d="M380.089 65.9065L374.373 85.2078C374.032 86.3135 373.682 88.4781 373.114 89.373C372.768 89.9194 370.663 91.0048 370.057 91.3977L357.022 99.6714L360.503 88.2423C360.828 87.1361 361.407 85.8674 361.586 84.7536C361.68 84.1584 361.787 83.5758 362.14 83.0885C363.58 81.1023 365.788 79.449 367.56 77.7734L380.089 65.9065Z" fill="#60B79B"/>
<path d="M339.239 226.93C339.679 226.168 340.398 224.472 341.069 224.016L345.807 236.249L350.937 251H349.32H339.464H336.601C335.763 247.414 334.79 243.835 334.43 240.139C334.268 238.459 334.004 235.835 335.03 234.476L335.131 234.278L339.239 226.93Z" fill="#159774"/>
<path d="M336.601 251C335.763 247.414 334.79 243.835 334.43 240.139C334.268 238.459 334.004 235.835 335.03 234.476L339.464 251H336.601Z" fill="#BB8A70"/>
<path d="M339.24 226.93C339.679 226.168 340.398 224.472 341.069 224.016L345.807 236.249L350.937 251H349.32L339.24 226.93Z" fill="#F8F8F8"/>
<path d="M188.011 143.081C188.674 143.956 189.03 144.563 188.932 145.739C188.801 147.313 187.137 149.098 186.05 150.04C181.685 153.824 177.677 156.77 174.482 161.84C177.033 171.106 181.094 180.498 185.961 188.628C186.82 190.063 187.7 191.521 188.686 192.859L192.203 197.216C192.582 197.663 193.258 198.317 193.396 198.91L184.168 188.995L180.582 184.727C180.565 183.739 176.367 177.814 175.654 176.583C173.516 172.893 171.734 168.989 170.046 165.046C169.169 162.997 167.584 159.955 168.429 157.683C168.98 156.202 170.331 154.899 171.408 153.841C176.313 149.019 182.021 145.997 188.011 143.081Z" fill="#159774"/>
<path d="M291.54 189.013C293.574 189.544 295.605 190.703 297.547 191.561L311.782 198.079C313.781 199.044 316.003 200.521 318.123 201.046L284.853 210.921C286.827 206.641 289.072 202.66 290.53 198.101C291.24 195.884 291.547 193.892 291.696 191.554C291.753 190.626 291.927 189.859 291.54 189.013Z" fill="#159774"/>
<path d="M282.472 141.908C284.254 141.868 286.145 142.783 287.773 143.503C294.921 146.665 301.786 151.562 307.351 157.302L308.56 158.708C307.669 160.635 306.675 163.484 305.162 164.896C304.367 166.678 302.883 168.455 301.731 170.006C297.637 175.516 292.905 181.298 287.737 185.67L278.048 194.872L277.963 194.674L288.85 179.372C290.412 176.878 296.13 167.909 295.628 165.227C294.211 157.623 287.457 152.004 281.741 147.938C282.316 146.117 282.758 144.378 282.962 142.464L282.472 141.908Z" fill="#159774"/>
<path d="M282.472 141.908C284.253 141.868 286.145 142.783 287.773 143.503C294.92 146.665 301.786 151.562 307.351 157.302L308.56 158.708C307.669 160.635 306.675 163.484 305.161 164.896L304.9 164.615C303.098 167.217 301.149 169.514 299.047 171.839C297.891 173.12 296.736 174.508 295.339 175.492L301.47 166.764C303.384 163.866 305.148 161.071 305.883 157.545C301.092 152.688 295.335 149.311 289.504 146.11C287.411 144.96 285.075 143.964 283.117 142.575L282.962 142.464L282.472 141.908Z" fill="#F8F8F8"/>
<path d="M416.874 160.417L417.142 159.471L418.915 152.794C419.084 152.106 419.224 150.772 419.521 150.176C419.64 149.94 420.131 149.583 420.334 149.382L422.766 146.918L431.583 137.291L447.858 117.763L455.622 107.974C456.522 106.843 457.584 105.033 458.704 104.212L420.117 167.035L412.012 177.439C410.954 178.76 409.489 181.052 408.064 181.825C411.907 175.044 413.831 167.541 416.874 160.417Z" fill="url(#paint1_linear_30_607)"/>
<path d="M215.344 177.424L221.025 181.107C223.941 182.835 227.333 184.21 230.552 185.139C231.74 185.482 233.041 185.955 234.271 186.055C236.007 186.197 237.738 185.488 239.364 184.907C245.359 182.763 250.686 179.547 255.495 175.159C257.522 178.181 260.494 180.156 263.396 182.11C259.251 188.189 252.225 191.545 245.833 194.132C242.898 195.319 239.566 196.581 236.453 197.029C235.512 197.165 234.532 196.643 233.602 196.468C225.26 194.891 216.878 190.703 210.249 185.067C209.727 184.623 207.938 183.291 207.796 182.648L215.344 177.424Z" fill="#995A49"/>
<path d="M216.097 164.993L216.568 165.217C225.176 169.099 234.729 170.333 243.898 168.324C247.819 167.465 251.604 165.977 255.287 164.327L254.961 167.567C254.858 169.94 254.508 172.515 255.374 174.754C255.426 174.887 255.461 175.02 255.495 175.159C250.686 179.547 245.359 182.763 239.364 184.907C237.738 185.489 236.007 186.197 234.271 186.056C233.041 185.955 231.741 185.482 230.552 185.139C227.333 184.21 223.941 182.835 221.025 181.108L215.344 177.424C216.14 176.326 216.068 174.055 216.204 172.668C216.459 170.081 216.397 167.572 216.097 164.993Z" fill="#974744"/>
<path d="M418.104 50.8289L418.228 50.7152C418.958 50.019 419.318 48.9349 419.711 47.9968L420.108 48.0463C420.518 48.6283 420.435 48.8138 420.396 49.5136L420.11 49.8813L420.135 49.9945C420.27 50.6613 420.046 51.5925 420.277 52.1535C419.828 59.1499 418.539 66.3078 417.241 73.1811C415.39 82.9819 413.162 92.5858 409.873 101.969C405.213 115.257 398.799 127.482 390.635 138.651L385.407 145.592C384.676 146.509 383.9 147.699 383.009 148.425C381.131 149.955 379.595 152.457 377.627 153.69C377.032 154.064 376.691 154.765 376.027 155.16C375.14 155.686 374.488 156.908 373.508 157.366C373.093 157.56 372.56 157.986 372.143 158.24C371.944 158.361 371.779 158.409 371.559 158.471C370.833 158.675 370.18 159.256 369.491 159.587C367.086 160.742 364.712 161.89 362.399 163.256L362.112 163.064L362.025 163.143C361.128 163.941 359.813 164.506 358.792 165.148C357.615 165.887 356.566 166.93 355.403 167.664C354.759 168.07 354.441 168.708 353.754 169.07L353.41 169.315C353.387 168.883 353.401 168.672 353.582 168.273C353.697 168.023 353.765 167.793 353.829 167.526C353.96 166.968 354.246 166.512 354.384 165.944C355.245 162.367 357.038 158.994 358.334 155.588C358.758 154.474 359.147 153.164 359.877 152.218L359.889 152.083C360.042 150.432 361.054 148.77 361.81 147.344L364.989 141.315C365.554 140.272 366.109 138.788 366.979 138.011C367.178 137.833 367.544 137.48 367.78 137.386C367.892 137.341 368.277 137.444 368.353 137.386C368.728 137.098 368.563 137.01 369.115 136.842C369.294 136.788 369.425 136.726 369.589 136.644C369.864 136.508 369.997 136.466 370.288 136.59L370.414 136.65L370.542 136.551C370.927 136.265 371.332 136.078 371.779 135.947C372.264 135.805 372.511 135.38 372.848 135.018C372.988 134.868 373.118 134.907 373.274 134.813L373.906 134.2L374.078 134.689C374.545 133.937 374.989 134.33 375.45 133.344C375.651 133.342 375.729 133.38 375.91 133.464C376.125 133.157 376.18 132.971 376.251 132.607C376.59 132.264 377.082 131.888 377.167 131.382L377.284 131.288C377.966 130.709 378.317 129.748 378.814 128.983C380.653 126.151 383.025 122.93 384.227 119.73L384.188 119.48C384.443 118.686 385.409 117.562 385.878 116.835L383.799 117.937C382.558 117.69 379.94 119.128 378.887 119.832C379.464 118.416 380.511 117.123 381.367 115.883L385.29 109.992L396.023 92.5055L410.18 67.0549L418.104 50.8289Z" fill="url(#paint2_linear_30_607)"/>
<path d="M105.629 185.467L106.716 185.595C106.996 185.28 106.919 184.589 107.142 184.579C107.829 184.547 109.407 185.623 110.096 185.942L120.251 190.634C120.539 189.134 119.586 185.249 119.223 183.685L132.293 190.205L133.113 182.676L162.184 198.426C162.902 198.773 164.6 199.848 165.26 199.618C166.708 200.695 168.656 201.29 170.296 201.987L184.06 207.334L187.105 208.515L202.673 213.608L212.293 217.829L222.564 224.224C222.914 224.577 223.252 224.946 223.655 225.231C227.109 228.42 230.394 231.384 233.357 235.133C239.059 230.002 245.256 226.428 251.607 222.417L256.434 220.013L258.555 219.015L259.608 218.608C260.838 218.274 262.134 217.675 263.299 217.14L281.244 211.903L284.853 210.921L318.123 201.046C319.142 200.872 320.276 200.069 321.237 199.623L348.736 186.471L344.019 194.096L350.9 190.599L354.285 188.861C356.774 187.525 358.801 186.121 361.641 186.052C359.667 187.697 356.813 188.883 354.537 190.025L352.016 191.263L326.202 203.133L256.908 231.172L247.936 234.775C247.194 235.086 245.375 236.111 244.679 235.95C243.101 235.583 241.015 235.794 239.375 235.769L225.801 235.74C224.689 235.757 222.709 236.118 221.696 235.908C221.213 235.809 220.485 235.27 220.006 235.048L215.074 232.758L201.282 226.635L123.792 193.693L111.566 188.443C109.547 187.547 107.438 186.806 105.629 185.467Z" fill="#E9E6C5"/>
<path d="M281.022 219.257L281.814 219.211L246.065 233.814C245.675 233.989 245.607 234.029 245.172 233.964C247.416 232.229 250.116 230.931 252.614 229.665C261.557 225.138 271.45 221.866 281.022 219.257Z" fill="#9F8E78"/>
<path d="M288.224 214.286L288.774 214.18L289.005 214.355C286.259 215.023 283.477 216.252 280.756 217.118C272.412 219.774 263.982 222.499 256.019 226.303C251.478 228.474 247.221 231.029 242.854 233.553L242.63 233.795L242.295 233.719C250.056 226.618 260.293 222.646 269.922 219.531L288.224 214.286Z" fill="#9F8E78"/>
<path d="M161.942 207.737C163.399 207.434 170.646 210.767 172.471 211.464C183.758 215.776 195.309 219.76 206.234 225.08C211.375 227.584 216.505 230.528 221.3 233.719C220.371 233.869 209.115 228.319 207.615 227.62L182.997 216.561L161.942 207.737Z" fill="#9F8E78"/>
<path d="M143.984 196.216L144.085 196.188C145.073 196.038 146.966 197.135 147.924 197.524L158.901 202.081L176.333 209.064L197.182 216.899C200.801 218.369 204.496 219.991 207.974 221.82C215.112 225.574 221.262 229.989 227.354 235.457C218.374 231.947 210.836 224.951 202.049 220.86L160.953 203.565C155.318 201.208 149.435 199.013 143.984 196.216Z" fill="#9F8E78"/>
<path d="M248.407 238.036C249.179 237.446 250.629 237.119 251.54 236.775L258.007 234.233L287.56 222.649L336.038 201.824L351.521 194.309C354.374 192.884 357.409 190.952 360.411 189.994L340.403 223.195L334.85 232.503C334.891 233.131 334.973 233.668 335.131 234.278L335.03 234.476C334.005 235.834 334.268 238.459 334.43 240.138C334.79 243.835 335.763 247.414 336.601 251H313.536H313.197H303.62H245.934L248.407 238.036Z" fill="#561227"/>
<path d="M302.956 240.312C304.463 240.91 306.018 243.471 307.126 244.804C308.91 246.948 310.937 249.431 313.197 251H303.62C302.64 249.603 300.112 246.956 300.146 245.186C300.192 242.885 301.514 241.754 302.956 240.312Z" fill="#995A49"/>
<path d="M307.117 237.776L307.202 237.731C307.96 236.059 308.956 235.072 310.307 233.969C311.232 235.469 312.412 236.826 313.433 238.261C315.757 241.534 318.036 244.663 320.727 247.612C321.762 248.747 322.772 249.99 324.02 250.863L316.417 237.645C315.73 236.37 314.569 234.628 314.23 233.229C313.953 232.09 314.475 230.725 314.995 229.747C315.531 228.74 316.685 227.318 317.743 226.993C319.428 227.512 321.59 232.206 322.607 233.842C325.066 237.796 327.542 241.814 330.285 245.551C329.539 242.514 328.002 238.108 329.047 235.023C329.614 233.342 330.762 232.105 332.248 231.337C332.825 231.038 333.26 230.962 333.888 230.923C334.536 231.457 334.568 231.703 334.849 232.503C334.891 233.131 334.973 233.668 335.131 234.278L335.03 234.476C334.004 235.835 334.268 238.459 334.43 240.139C334.79 243.835 335.763 247.414 336.601 251H313.536L309.238 244.346C308.61 243.428 307.422 242.057 307.135 240.967C306.913 240.116 307.103 238.682 307.117 237.776Z" fill="#995A49"/>
<path d="M107.029 189.469L118.396 194.344L146.014 206.314L163.281 213.719L168.893 216.071C169.684 216.409 170.482 216.91 171.296 217.15L184.636 222.743L217.954 236.799L218.107 237.451L220.177 251H165.261H155.289H154.489H144.172H143.403H139.973H130.921H130.592H129.465H128.623L128.899 248.007C128.996 247.264 129.159 245.828 129.535 245.213C130.453 243.713 133.073 242.041 134.433 240.942C133.107 237.336 130.918 233.849 129.284 230.366L128.349 228.999C128.408 227.829 113.503 201.224 111.755 198.083L108.775 192.79C108.162 191.719 107.435 190.651 107.029 189.469Z" fill="#561227"/>
<path d="M159.669 244.849C159.863 244.87 160.028 245.016 160.193 245.122L163.902 242.519C164.926 241.915 166.329 241.702 167.452 242.073C168.214 242.325 168.604 242.671 168.972 243.409C169.276 244.274 169.323 244.719 168.965 245.593C168.169 247.534 166.65 249.505 165.261 251H155.289H154.489L159.669 244.849Z" fill="#995A49"/>
<path d="M159.669 244.849C159.863 244.87 160.028 245.016 160.193 245.122L163.902 242.519C164.926 241.915 166.329 241.702 167.452 242.073C168.214 242.325 168.604 242.671 168.972 243.409C167.814 242.743 166.849 242.234 165.53 242.685C164.286 243.11 163.088 244.183 162.046 245.018L155.289 251H154.489L159.669 244.849Z" fill="#12151C"/>
<path d="M138.728 238.317C138.934 238.012 138.863 237.948 138.968 237.641C139.053 237.389 139.777 236.757 139.977 236.541C142.115 234.239 144.519 232.429 147.02 230.615C147.946 229.944 149.129 228.935 150.227 228.696C150.898 228.549 151.91 228.568 152.483 229.021C153.229 229.611 153.586 230.289 153.686 231.268C153.985 234.202 151.844 238.219 150.173 240.471L147.515 245.181C150.266 242.075 153.26 239.196 156.385 236.53C157.926 235.214 159.293 233.753 161.325 233.384C163.109 233.059 164.794 233.296 166.276 234.455L166.247 234.898C165.93 237.616 161.386 242.521 159.669 244.849L154.489 251H144.172H143.403H139.973H130.921H130.592H129.465H128.623L128.899 248.007C128.996 247.264 129.159 245.828 129.535 245.213C130.453 243.713 133.073 242.041 134.433 240.942C135.724 239.907 137.243 238.985 138.728 238.317Z" fill="#12151C"/>
<path d="M134.433 240.942C135.724 239.907 137.243 238.985 138.728 238.317L133.713 245.698C132.69 247.416 131.442 249.186 130.592 251H129.465H128.623L128.899 248.007C128.996 247.264 129.159 245.828 129.535 245.213C130.453 243.713 133.073 242.041 134.433 240.942Z" fill="#F8F8F8"/>
<path d="M129.465 251L129.678 249.162C131.138 248.002 131.97 246.576 133.713 245.698C132.69 247.417 131.443 249.186 130.592 251H129.465Z" fill="#D2A745"/>
<path d="M130.921 251C134.176 247.125 136.759 242.641 139.574 238.399L140.418 243.227C140.616 244.141 141.199 245.499 141.163 246.399C141.15 246.735 140.722 247.377 140.568 247.681C139.937 248.931 139.716 249.588 139.973 251H130.921Z" fill="#C67146"/>
<path d="M139.574 238.399C141.187 236.443 148.139 229.801 150.458 229.621C151.013 229.578 151.549 229.601 152.077 229.797C152.727 230.579 152.999 231.229 152.914 232.337C152.727 234.792 150.982 237.733 149.7 239.747C148.17 242.204 146.322 244.509 144.981 247.085C144.34 248.316 143.93 249.708 143.403 251H139.973C139.716 249.588 139.937 248.931 140.568 247.681C140.721 247.377 141.15 246.735 141.163 246.399C141.199 245.5 140.616 244.141 140.418 243.227L139.574 238.399Z" fill="#995A49"/>
<path d="M144.172 251C145.935 248.22 148.565 245.554 150.771 243.161C152.675 241.096 154.594 239.083 156.664 237.207C157.935 236.055 159.287 234.817 160.913 234.293C162.954 233.635 164.389 233.839 166.247 234.898C165.93 237.616 161.386 242.521 159.669 244.849L154.489 251H144.172Z" fill="#995A49"/>
<path d="M403.288 164.428C405.72 164.173 407.43 160.603 409.844 160.719C410.057 161.097 410.471 161.576 410.32 162.023L410.149 162.329L410.034 162.758L409.913 163.068C409.816 163.314 409.778 163.466 409.803 163.738C409.626 163.928 409.592 163.923 409.533 164.195C409.441 164.616 409.244 165.038 409.118 165.454C408.841 166.363 408.458 167.245 408.202 168.151C408.083 168.567 407.872 168.95 407.744 169.376L407.451 170.263C407.313 170.624 407.403 171.018 407.471 171.385C406.23 175.715 404.302 180.026 402.539 184.147C397.567 195.766 391.931 207.244 383.717 216.639L380.646 219.895C380.57 219.97 379.808 220.698 379.806 220.728C379.799 220.856 379.881 220.972 379.92 221.094C381.663 221.469 388.515 216.987 390.161 215.805L398.117 209.617C399.108 208.856 399.898 207.621 400.872 206.873C401.041 206.743 401.268 206.774 401.442 206.633C401.971 206.204 402.337 205.25 402.96 205.004C403.528 204.781 404.279 203.635 404.723 203.16L407.973 199.898L431.21 175.793L436.676 169.832C437.116 169.346 437.945 168.166 438.511 167.93C437.634 169.673 436.294 171.278 435.151 172.835L427.173 183.19C421.491 190.406 415.871 197.981 409.723 204.735C410.433 204.366 411.099 204.011 411.749 203.532L441.066 181.226L423.822 208.037L417.818 216.846C417.037 217.994 415.681 219.229 415.21 220.508L428.176 212.205C431.947 209.608 435.579 206.541 439.163 203.649L450.781 193.911C452.695 192.259 454.527 190.407 456.52 188.879C450.652 197.743 443.558 206.043 436.484 213.808C427.608 223.553 418.287 232.841 408.491 241.525C415.063 241.399 421.248 240.325 427.727 239.306L408.314 251H350.937L345.808 236.249C345.979 235.732 346.188 235.345 346.492 234.903L346.939 234.74C348.388 234.12 349.921 232.711 351.208 231.757C360.207 225.088 368.195 216.542 374.367 206.863C374.999 205.873 375.869 204.89 376.304 203.789L377.511 201.241C377.625 201.053 377.733 200.971 377.758 200.737C377.854 199.79 378.436 197.669 378.878 196.829C379.35 195.932 379.43 194.393 379.613 193.329C379.893 191.711 379.966 189.366 379.549 187.772C379.171 186.333 378.706 185.089 377.811 183.913C376.144 181.726 373.902 181.331 371.433 181.036C372.935 180.359 374.57 179.924 376.105 179.314L385.97 174.872C390.159 172.755 394.205 170.412 398.176 167.865C399.896 166.761 401.533 165.451 403.288 164.428Z" fill="url(#paint3_linear_30_607)"/>
<path d="M87.4859 201.515L87.4543 201.378C87.1751 200.269 86.1957 199.25 85.5792 198.32L81.6628 192.284C81.1812 191.583 80.428 190.993 80.0854 190.222C79.2621 188.368 77.7179 186.448 76.6611 184.696L69.0446 171.285C56.8527 147.678 46.788 122.611 39.4326 96.7953L37.5736 90.6107C37.2372 89.4883 36.7846 88.3098 36.6937 87.1306C38.9625 91.739 40.8955 96.3521 43.4768 100.804C51.2687 114.243 61.36 125.969 71.5413 137.343L79.3807 146.3C74.6296 134.835 71.0317 122.826 67.7776 110.793L61.9112 87.9534L55.9598 59.4696L54.0163 49.6298C53.5974 47.6299 52.7105 45.1596 52.7336 43.1462C53.3334 44.2385 53.6274 45.7207 53.9954 46.9259L56.0922 53.4355L63.7776 74.4632C68.2221 85.64 73.3119 96.382 78.7114 107.057C88.521 126.451 99.7582 145.626 113.365 162.244C109.948 159.706 105.279 155.852 100.848 156.673C98.6952 157.072 96.4697 158.855 95.2759 160.797C90.8957 167.925 92.5725 178.245 94.2378 185.992C95.0377 189.712 96.2627 193.494 97.4471 197.095L99.3524 202.548C99.5619 203.201 99.8951 203.729 99.8823 204.426C99.877 204.709 99.9235 204.988 100.094 205.194C100.252 205.384 100.298 205.546 100.377 205.779C100.677 206.666 101.522 208.719 102.199 209.338C102.891 209.828 103.294 211.255 103.682 212.048L107.151 218.645C110.608 224.683 115.386 231.045 120.612 235.435C121.174 235.907 122.126 237.146 122.747 237.272L123.09 237.889C122.873 238.121 122.206 238.69 122.159 238.975C122.021 239.801 121.604 240.434 121.431 241.203C121.329 241.658 121.074 241.999 120.801 242.353C119.824 243.619 119.949 245.492 119.083 246.887C118.288 248.169 117.955 249.517 117.695 251H62.1993C59.9074 248.573 57.8663 245.862 55.7762 243.241C48.2788 233.836 42.0446 223.83 35.6559 213.579C36.7656 214.343 37.6768 215.476 38.6286 216.447L43.4688 221.168C49.9148 227.217 56.5818 232.894 63.587 238.184C66.1427 240.114 68.7385 242.236 71.5596 243.686L61.471 232.74C48.969 218.303 37.5704 202.74 28.0848 185.852C21.3865 173.926 15.761 161.49 9.75092 149.173L19.2388 158.492L47.7013 184.346L53.1999 189.254C54.169 190.084 54.9007 190.885 56.0654 191.417L47.8215 179.916C38.6739 166.149 30.8523 151.586 23.2141 136.83L18.9683 128.441C18.1793 126.876 17.2389 125.371 16.7701 123.657C18.5076 125.846 19.9873 128.335 21.5213 130.694L27.5796 139.769L46.7965 166.595C61.0343 185.455 76.9757 202.863 94.6303 218.053L105.183 226.479C106.508 227.468 108.108 228.312 109.352 229.383C109.806 229.775 110.4 229.914 110.951 230.097C110.682 229.552 109.895 228.979 109.462 228.56L105.879 224.941C100.232 218.817 94.9033 212.346 90.113 205.431C89.2696 204.214 88.1534 202.987 87.5374 201.634L87.4859 201.515Z" fill="url(#paint4_linear_30_607)"/>
<path d="M62.8354 142.385L82.1414 152.835C83.2351 153.445 85.1681 154.183 86.0674 155.029C86.6164 155.546 87.2731 158.6 87.5601 159.49L91.4818 170.459C88.709 168.931 75.3521 163.168 74.4061 161.397L62.8354 142.385Z" fill="#60B79B"/>
<path d="M158.31 20.912L155.725 18.3882C158.672 19.662 161.614 20.8278 164.767 21.3691C170.512 22.3553 176.694 21.7469 182.422 20.909C191.265 19.6153 199.73 16.8881 208.394 14.7128C225.785 10.3458 244.272 8.76565 261.181 16.0807C266.032 18.1789 272.441 21.7581 275.221 26.7095L276.085 26.47C281.613 25.6094 285.76 27.413 290.143 30.904C295.61 35.2575 299.936 40.8322 303.618 46.94L312.057 61.9642C316.912 69.7553 323.186 76.7362 331.13 80.8669L328.231 80.5907C323.331 80.1683 317.857 78.6903 313.362 76.5913C313.186 77.3674 313.371 78.1535 313.493 78.9263C314.521 84.8503 316.36 90.0115 319.779 94.8651C320.697 96.1654 321.787 97.4447 322.925 98.5239C323.095 98.6843 324.357 99.7012 324.384 99.8074C324.409 99.9037 324.308 99.9893 324.27 100.08L323.55 99.9135L314.791 96.4713C312.723 95.6218 310.612 94.8442 308.745 93.5424C307.701 105.676 307.829 117.166 311.835 128.739L310.055 127.095C306.884 124.622 303.971 121.752 300.474 119.797C297.094 127.196 291.467 135.209 283.992 138.192L283.163 138.474L282.811 138.124C283.807 134.693 284.48 130.906 284.856 127.338L285.208 122.945C285.247 122.417 285.188 121.551 285.327 121.07C285.444 120.664 286.301 119.776 286.592 119.392C288.204 117.275 289.935 115.186 291.339 112.906C291.854 112.072 292.427 111.332 292.548 110.314C288.902 116.205 284.457 121.568 279.488 126.229C279.009 126.773 277.992 127.653 277.876 128.354L280.532 125.931C280.979 127.36 280.64 128.823 280.491 130.289C280.026 134.842 279.341 139.159 277.392 143.301C275.911 146.451 274.159 149.591 272.123 152.367C271.539 153.162 269.753 155.028 269.618 155.828C268.255 157.148 266.506 158.155 264.953 159.213L255.287 164.327C251.604 165.977 247.819 167.465 243.898 168.324C234.729 170.333 225.176 169.099 216.568 165.217L216.097 164.993C214.256 164.67 211.98 163.237 210.241 162.434C209.405 162.069 208.617 161.722 207.872 161.168C201.948 158.002 195.998 153.593 191.779 148.089C190.474 146.387 189.412 144.487 188.351 142.605L186.639 137.361L185.665 133.156C185.127 130.938 184.06 126.542 184.689 124.366L184.879 124.154L175.615 111.71C174.993 110.659 174.35 109.579 173.837 108.463C173.362 107.432 173.017 106.32 172.325 105.426L171.784 105.592C170.353 106.157 169.403 107.582 168.817 109.006C167.457 112.009 167.783 114.787 168.449 117.941C168.511 118.237 168.79 119.066 168.751 119.33C168.728 119.484 167.729 120.399 167.523 120.611C163.104 125.165 157.282 129.357 151.486 131.608L150.341 131.972L150.202 131.628L150.685 131.138C156.614 122.4 158.373 111.398 158.963 100.826L158.986 96.7618C156.361 98.7485 153.525 100.404 150.68 101.996C145.973 104.63 140.722 107.16 135.456 108.097L135.409 107.899L135.804 107.587C136.664 106.291 138.099 105.142 139.106 103.93C141.438 101.124 143.464 97.7388 145.145 94.4533C151.047 82.9164 153.85 69.9028 160.713 58.85C153.573 59.805 146.202 58.4647 139.364 56.2679C138.219 55.9 136.353 55.4424 135.4 54.6762L135.797 54.4595C150.706 50.0312 162.574 38.6065 177.087 33.0774C169.596 30.9692 163.85 26.5323 158.31 20.912Z" fill="#EBF9F2"/>
<path d="M236.939 25.1555L223.737 24.6108L223.509 24.34C227.08 23.9649 231.351 24.0128 234.841 24.6343C235.583 24.7662 236.343 24.4288 237.019 24.888L236.939 25.1555Z" fill="#CFEFE3"/>
<path d="M289.03 40.6233C290.441 41.1594 292.291 42.0104 293.468 43.0156C295.536 44.781 297.531 47.5417 298.985 49.8929C299.455 50.6532 300.023 51.4531 300.11 52.3843C299.778 52.6407 299.599 52.6681 299.194 52.6708L289.03 40.6233Z" fill="#F8F8F8"/>
<path d="M285.927 51.1187C287.755 52.9793 289.575 54.7608 290.947 57.0576C293.514 61.355 293.496 66.3375 293.926 71.2089L293.734 71.3004C292.424 70.3456 290.716 63.5025 289.946 61.4739C288.632 58.0045 287.04 54.6758 285.927 51.1187Z" fill="#F8F8F8"/>
<path d="M287.292 34.7236L288.078 34.8283C288.453 34.8482 288.836 34.8577 289.207 34.9315C290.088 35.1065 290.972 35.0666 291.865 35.0911C295.823 37.4814 297.909 42.0879 300.297 45.9971C301.726 48.3357 303.265 50.4459 304.289 53.0449C303.501 52.5569 302.821 51.6436 302.171 50.9477L297.824 46.3138C296.633 45.098 295.236 44.1099 294.149 42.7819C293.505 41.9977 293.045 40.9734 292.578 40.0598C293.835 40.8092 294.875 41.6705 296.283 42.0968C295.465 41.1398 294.304 40.3983 293.361 39.575C291.483 37.9364 289.591 35.582 287.292 34.7236Z" fill="#F8F8F8"/>
<path d="M158.31 20.9119L163.681 23.8155C164.108 24.0391 164.891 24.5732 165.33 24.6171C169.782 27.719 175.729 29.3983 180.953 30.0611L185.077 30.4259C185.501 30.4538 186.319 30.393 186.68 30.5984C183.495 31.0882 180.129 31.9534 177.087 33.0773C169.595 30.9691 163.85 26.5322 158.31 20.9119Z" fill="#73A1A5"/>
<path d="M266.602 22.1729C270.369 23.904 272.918 26.1641 276.096 28.8014C276.009 27.9425 275.56 27.4486 275.221 26.7095L276.085 26.47C277.406 27.6042 277.791 28.1829 278.318 29.8953C278.863 31.6705 278.62 33.8665 278.157 35.6328C281.089 34.6337 285.117 33.7388 288.078 34.8283L287.292 34.7236L285.714 34.8464C282.534 35.3879 279.453 37.4057 277.544 40.1738C282.994 41.985 287.169 44.8073 290.636 49.7589L290.491 50.0202L290.42 49.9356C286.383 45.1436 281.853 42.1242 275.716 41.7808L274.782 40.5395C273.467 38.847 271.83 37.7143 270.131 36.5017C262.455 31.0292 253.109 28.1133 244.12 26.3867C241.741 25.9301 239.343 25.3879 236.939 25.1555L237.019 24.8881C247.654 25.8769 257.547 28.3119 267.369 32.7595L260.455 27.8454L260.721 27.7172C266.528 30.2784 271.317 33.552 275.425 38.6683C275.67 38.045 276.38 36.6924 276.357 36.0585C276.334 35.4541 275.854 34.5462 275.638 33.9652C273.712 28.7955 270.312 25.7827 266.602 22.1729Z" fill="#73A1A5"/>
<path d="M135.797 54.4594C136.943 54.8291 139.497 54.3236 140.748 54.1393C150.634 52.6818 161.352 49.6169 170.184 44.5317L174.573 41.8489C173.606 43.059 172.434 43.9405 171.334 44.9984C169.911 46.3671 168.518 47.8915 167.255 49.4291C165.669 51.3587 164.187 53.4723 162.81 55.5791C162.117 56.6405 161.487 57.8668 160.713 58.85C153.573 59.8049 146.202 58.4646 139.364 56.2679C138.219 55.9 136.353 55.4423 135.4 54.6761L135.797 54.4594Z" fill="#769BA1"/>
<path d="M308.745 93.5424C309.039 90.8738 309.577 87.9738 309.524 85.3008C309.503 84.2404 309.093 83.0337 308.894 81.9731C307.504 74.5532 305.221 67.7073 302.585 60.7188C308.361 67.4529 315.455 72.241 322.822 76.6903C324.62 77.7747 326.491 79.1067 328.389 79.9521L328.506 80.0024C328.362 80.2441 328.412 80.1418 328.305 80.4051L328.231 80.5906C323.331 80.1683 317.857 78.6902 313.362 76.5913C313.186 77.3674 313.371 78.1534 313.493 78.9263C314.521 84.8503 316.36 90.0115 319.779 94.865C320.697 96.1654 321.787 97.4447 322.925 98.5239C323.095 98.6842 324.357 99.7012 324.384 99.8073C324.409 99.9037 324.309 99.9892 324.27 100.08L323.55 99.9135L314.791 96.4713C312.723 95.6217 310.612 94.8442 308.745 93.5424Z" fill="#769BA1"/>
<path d="M323.55 99.9134C322.458 98.1208 320.386 96.583 318.966 95.0358C314.644 90.3349 312.141 83.8146 311.347 77.3491L313.493 78.9262C314.521 84.8502 316.36 90.0114 319.779 94.865C320.697 96.1653 321.787 97.4446 322.925 98.5238C323.095 98.6841 324.357 99.7011 324.384 99.8073C324.409 99.9036 324.308 99.9891 324.27 100.08L323.55 99.9134Z" fill="#F8F8F8"/>
<path d="M287.785 69.2701C287.494 68.3583 287.338 67.382 287.148 66.4395C287.945 67.3494 288.424 68.9375 288.827 70.0959C291.059 76.5241 291.671 83.3364 291.462 90.1543L289.827 112.879C291.137 110.257 292.633 107.762 293.846 105.08C298.003 95.917 300.437 85.4402 299.159 75.2191C298.674 71.3232 297.536 67.6817 296.917 63.8579C297.934 65.772 298.587 67.8246 299.352 69.8584C300.6 73.1814 301.52 76.5535 302.416 79.9999C303.719 85.0135 304.765 89.93 304.358 95.1628L303.432 104.542C303.249 106.587 303.018 108.774 303.327 110.815C304.2 116.574 307.197 122.206 310.055 127.094C306.884 124.621 303.971 121.752 300.474 119.797C297.094 127.195 291.467 135.209 283.992 138.192L283.163 138.474L282.811 138.124C283.807 134.693 284.48 130.906 284.856 127.338L285.208 122.945C285.247 122.417 285.188 121.551 285.327 121.07C285.444 120.664 286.301 119.776 286.591 119.392C288.204 117.275 289.935 115.185 291.339 112.906C291.854 112.072 292.427 111.332 292.548 110.314C288.902 116.205 284.457 121.568 279.488 126.229C279.923 124.767 280.864 123.385 281.54 122.029C282.74 119.624 283.864 117.163 284.808 114.629C287.471 107.472 288.765 100.065 289.159 92.3876C289.291 89.781 289.166 87.1771 289.397 84.5745C289.878 82.5851 289.642 79.5464 289.346 77.582C289.147 76.255 289.475 74.4921 288.978 73.2366C288.74 72.6341 288.73 71.5803 288.6 70.893L288.543 70.595C288.46 70.0023 288.146 69.7059 287.785 69.2701Z" fill="#73A1A5"/>
<path d="M292.548 110.314C292.866 109.13 293.851 107.789 294.341 106.605C296.347 101.769 298.536 95.9803 298.965 90.6841C299.084 91.9516 298.759 93.0534 298.564 94.2839C297.872 98.632 296.684 102.641 295.072 106.696C295.623 106.973 296.258 106.991 296.858 107.063C295.724 107.294 294.973 107.234 294.27 108.342L293.585 109.69C295.273 110.078 296.134 109.371 297.739 110.567C296.292 110.558 295.14 110.652 294.059 111.834C292.985 113.007 293.079 115.156 293.095 116.693C293.098 117.04 293.201 117.78 293.116 118.089C292.907 118.856 288.421 121.312 287.716 122.804C287.352 123.575 287.224 124.932 287.038 125.794L287.157 125.875L289.232 124.771C289.649 124.984 289.674 124.962 289.875 125.439L287.478 127.03C287.313 127.133 286.715 127.415 286.633 127.537C286.369 127.931 286.184 129.401 286.069 129.933C285.804 131.19 285.719 132.626 285.327 133.83C284.659 135.058 284.508 136.836 283.992 138.192L283.163 138.474L282.811 138.124C283.807 134.693 284.48 130.906 284.856 127.338L285.208 122.945C285.247 122.417 285.188 121.551 285.327 121.07C285.444 120.664 286.301 119.776 286.592 119.392C288.204 117.275 289.935 115.186 291.339 112.906C291.854 112.072 292.427 111.332 292.548 110.314Z" fill="#974744"/>
<path d="M296.858 107.063C298.676 107.649 299.812 108.631 300.707 110.455C302.038 113.173 301.399 116.539 300.554 119.315C300.497 119.506 300.485 119.584 300.474 119.797C297.094 127.195 291.467 135.209 283.992 138.192C284.508 136.836 284.659 135.058 285.327 133.83C285.719 132.626 285.804 131.19 286.069 129.933C286.184 129.401 286.369 127.931 286.633 127.537C286.715 127.415 287.313 127.133 287.478 127.029L289.875 125.439C289.674 124.962 289.649 124.984 289.232 124.771L287.157 125.875L287.038 125.794C287.224 124.932 287.352 123.575 287.716 122.804C288.421 121.312 292.907 118.856 293.116 118.089C293.201 117.78 293.098 117.04 293.095 116.693C293.079 115.156 292.985 113.007 294.059 111.834C295.14 110.652 296.292 110.558 297.739 110.567C296.134 109.371 295.273 110.077 293.585 109.69L294.27 108.342C294.973 107.234 295.724 107.294 296.858 107.063Z" fill="#995A49"/>
<path d="M296.858 107.063C298.676 107.649 299.812 108.631 300.707 110.455C302.038 113.173 301.399 116.539 300.554 119.315C300.497 119.506 300.485 119.584 300.474 119.797C297.094 127.195 291.467 135.209 283.992 138.192C284.508 136.836 284.659 135.058 285.327 133.83L286.866 133.005C292.058 130.088 296.771 123.234 298.534 117.289C298.704 116.715 298.841 116.146 298.88 115.544C299.004 113.637 298.965 112.07 297.739 110.567C296.134 109.371 295.273 110.077 293.585 109.69L294.27 108.342C294.973 107.234 295.724 107.294 296.858 107.063Z" fill="#BB8A70"/>
<path d="M158.31 20.912L155.725 18.3882C158.672 19.662 161.614 20.8278 164.767 21.3691C170.512 22.3553 176.694 21.7469 182.422 20.909C191.265 19.6153 199.73 16.8881 208.394 14.7128C225.786 10.3458 244.272 8.76565 261.181 16.0807C266.032 18.1789 272.441 21.7581 275.221 26.7095C275.56 27.4485 276.009 27.9424 276.096 28.8013C272.918 26.1641 270.369 23.904 266.602 22.1728C266.128 21.4977 265.225 21.3061 264.5 21.0288L264.2 21.2027L264.701 21.5704L264.5 21.754C263.822 21.5867 263.107 21.3389 262.409 21.4478L263.377 22.3057L263.126 22.476L263.025 22.4413C260.281 21.5298 257.22 21.1332 254.38 20.6804C246.062 19.3545 237.752 18.5135 229.347 19.4999C228.179 19.6371 226.529 19.7261 225.449 20.2504C227.643 20.4253 229.792 20.1983 231.981 20.2097C236.611 20.2338 241.279 20.7966 245.776 21.9767C248.167 22.604 250.645 23.3679 252.953 24.2858C253.736 24.5966 254.442 25.2096 255.211 25.4373C255.797 25.6104 256.333 26.0335 256.945 26.2264L256.942 26.4311C256.166 26.2717 255.578 25.8023 254.84 25.5602C252.562 24.8128 250.139 24.1463 247.773 23.8407C245.229 23.5121 242.536 23.4488 239.969 23.3146C225.314 22.5482 211.278 24.4126 196.8 26.6347L189.157 27.825C188.642 27.9045 188.113 27.8091 187.612 27.9905C186.959 28.2268 185.853 28.09 185.14 28.09C180.673 28.0903 175.874 27.4917 171.535 26.3632C169.493 25.8322 167.423 24.7044 165.33 24.6172C164.891 24.5733 164.108 24.0392 163.681 23.8156L158.31 20.912Z" fill="#F8F8F8"/>
<path d="M135.804 107.587C136.511 107.533 138.842 105.053 139.561 104.409C148.243 96.6348 154.952 86.3996 160.359 75.8194C163.126 70.4045 165.79 64.0562 169.771 59.5377C168.15 63.2621 166.34 66.6824 165.105 70.6114C164.006 74.1063 163.036 78.9299 163.794 82.5819C164.117 84.1372 164.857 85.7435 165.517 87.1622C165.964 81.0188 166.836 75.086 168.297 69.1231C168.658 67.6482 169.075 65.5301 169.862 64.2472C169.889 66.4758 168.911 69.3613 168.567 71.6142C166.69 83.9291 170.121 96.1426 176.865 106.134C176.672 103.6 176.361 101.051 176.34 98.5075C176.27 90.1899 177.625 81.0335 180.414 73.2535C185.695 58.5205 196.453 47.7226 209.794 41.4246C210.587 41.0503 212.803 40.0146 213.544 40.3218C212.43 40.6235 211.228 41.2996 210.183 41.8121C207.203 43.2727 204.456 44.9859 201.941 47.2495C193.05 55.2509 187.835 68.5203 186.822 80.6955C192.204 75.8469 197.765 71.0737 203.617 66.8832C209.83 62.4333 216.577 58.661 223.411 55.4394C216.907 60.8268 208.126 67.318 205.017 75.788L207.222 75.9657C215.519 76.1246 223.985 73.7038 231.557 70.1827C236.946 67.6769 242.034 64.7114 246.518 60.5949C248.648 58.6394 250.876 56.4203 252.706 54.1363C253.482 53.1674 254.034 52.0457 254.897 51.155C253.903 53.7236 252.649 56.1566 251.522 58.659C249.623 62.8701 247.778 67.3317 245.453 71.2948C244.233 73.3788 242.689 75.3132 241.288 77.2639C241.688 77.1658 242.05 77.0158 242.428 76.844C257.352 70.0682 269.542 58.5886 275.741 42.3111C275.341 45.9308 274.816 49.51 274.063 53.0679C273.932 53.6851 273.041 56.2723 273.135 56.7814C273.192 57.0905 273.811 57.8793 273.992 58.1798L275.803 61.5394L281.425 73.4305L286.967 84.9566C287.434 84.1085 287.556 82.6793 287.686 81.7042C288.24 77.5992 288.231 73.3854 287.785 69.2701C288.146 69.7059 288.46 70.0023 288.543 70.595L288.6 70.893C288.73 71.5804 288.74 72.6341 288.978 73.2366C289.475 74.4921 289.147 76.255 289.346 77.582C289.642 79.5464 289.878 82.5851 289.397 84.5745L289.108 84.6995C288.822 89.6134 287.899 94.6072 286.564 99.3235C284.627 96.0281 283.301 92.4651 281.798 88.9344C277.482 78.7927 273.158 68.2823 270.88 57.3677C265.578 66.6165 258.117 75.0963 249.374 80.6713C245.123 83.3813 240.621 85.4474 236.135 87.6456C232.318 89.5153 228.218 91.9807 224.144 93.0913L224.02 93.1087L221.759 93.5122L226.702 89.0342C228.022 87.8343 229.547 86.6278 230.561 85.1113L209.686 93.0364C213.11 95.0447 216.424 96.635 220.256 97.5454C220.974 97.716 221.975 98.0932 222.682 97.8961C224.593 97.364 226.901 95.9247 228.471 94.6481L228.71 94.2179C229.173 95.106 229.114 96.6213 228.847 97.59C227.932 100.904 225.805 102.485 223 103.954C222.289 104.327 221.804 104.377 221.063 104.097L217.127 102.368C216.418 102.226 214.592 100.576 213.8 100.13C212.386 99.3337 210.851 98.7837 209.37 98.1481L203.918 94.3476L186.345 100.06L184.434 105.903C183.68 108.585 184.116 110.516 184.448 113.233C184.947 117.319 185.695 121.282 186.793 125.23C187.137 125.769 187.562 126.727 187.586 127.391C186.567 126.432 185.534 125.509 184.689 124.366L184.879 124.154L175.615 111.709C174.993 110.659 174.35 109.579 173.837 108.463C173.362 107.432 173.017 106.32 172.325 105.426L171.784 105.592C170.353 106.157 169.403 107.581 168.817 109.006C167.457 112.009 167.783 114.787 168.449 117.941C168.511 118.236 168.79 119.066 168.751 119.33C168.728 119.484 167.729 120.399 167.523 120.611C163.104 125.165 157.282 129.357 151.486 131.608L150.341 131.972L150.202 131.628L150.685 131.138C156.614 122.4 158.373 111.398 158.963 100.826L158.985 96.7617C156.361 98.7484 153.525 100.404 150.68 101.996C145.973 104.63 140.722 107.16 135.456 108.097L135.409 107.899L135.804 107.587Z" fill="#769BA1"/>
<path d="M158.963 100.826L159.174 96.591L161.304 94.8982C162.156 100.344 162.949 106.08 161.993 111.572C161.219 116.01 159.193 120.278 156.753 123.933L150.937 131.151L150.685 131.138C156.614 122.4 158.373 111.398 158.963 100.826Z" fill="#F8F8F8"/>
<path d="M201.193 86.7984C213.356 83.6362 225.207 80.9681 236.463 74.8382C237.805 74.108 240.017 73.279 240.825 71.8926L240.935 71.6968H241.212C239.614 75.0725 236.621 78.4843 234.237 81.324C233.092 82.6895 231.967 84.0428 230.561 85.1113L209.686 93.0364C208.121 92.3126 206.637 91.113 205.246 90.0671C203.848 89.0153 202.448 88.049 201.193 86.7984Z" fill="#974744"/>
<path d="M186.793 125.23C186.561 124.952 186.367 124.661 186.219 124.324C180.159 110.523 178.786 92.6101 183.662 78.1923C183.913 77.4496 184.785 74.6606 185.315 74.393C182.857 81.7284 182.007 88.6372 182.116 96.4258L188.2 88.463C193.708 81.5556 199.726 74.6486 206.104 68.6533L206.313 68.7553C202.897 72.2033 199.535 75.787 196.706 79.8079C194.483 82.9672 192.598 86.4648 190.647 89.8224L198.794 87.3938C199.527 87.0984 200.423 86.9805 201.193 86.7984C202.448 88.0489 203.848 89.0152 205.246 90.067C206.637 91.1129 208.121 92.3125 209.686 93.0363C213.11 95.0446 216.424 96.6349 220.256 97.5453C220.974 97.7159 221.975 98.0931 222.682 97.896C224.593 97.3639 226.901 95.9246 228.471 94.648L228.71 94.2178C229.173 95.1059 229.114 96.6212 228.847 97.5899C227.932 100.904 225.805 102.485 223 103.954C222.289 104.327 221.804 104.377 221.063 104.097L217.127 102.368C216.418 102.226 214.592 100.576 213.8 100.13C212.386 99.3337 210.851 98.7836 209.37 98.148L203.918 94.3475L186.345 100.059L184.434 105.903C183.68 108.585 184.116 110.515 184.448 113.233C184.947 117.319 185.695 121.282 186.793 125.23Z" fill="#974744"/>
<path d="M198.794 87.3937C199.527 87.0984 200.423 86.9805 201.193 86.7983C202.448 88.0489 203.848 89.0152 205.246 90.067C206.637 91.1129 208.121 92.3125 209.686 93.0363C213.11 95.0446 216.424 96.6349 220.256 97.5453C220.974 97.7159 221.975 98.0931 222.682 97.896C224.593 97.3639 226.901 95.9245 228.471 94.648C228.237 95.4328 227.899 95.9635 227.359 96.5516C225.951 98.0872 224.001 99.5133 221.932 99.518C218.295 99.5258 214.479 97.8987 211.252 96.2381C206.736 93.9143 202.362 91.2006 198.794 87.3937Z" fill="#12151C"/>
<path d="M224.02 93.1087L224.144 93.0913C228.218 91.9807 232.318 89.5153 236.135 87.6455C240.621 85.4473 245.123 83.3812 249.374 80.6712C258.117 75.0963 265.578 66.6164 270.88 57.3677C273.158 68.2823 277.482 78.7926 281.798 88.9344C283.301 92.465 284.627 96.028 286.564 99.3234C287.899 94.6071 288.822 89.6133 289.108 84.6995L289.397 84.5745C289.166 87.1771 289.291 89.781 289.159 92.3876C288.765 100.065 287.471 107.472 284.808 114.629C283.864 117.163 282.74 119.624 281.54 122.029C280.864 123.385 279.923 124.767 279.488 126.229C279.009 126.773 277.992 127.653 277.876 128.354L280.532 125.931C280.979 127.36 280.64 128.823 280.491 130.289C280.026 134.842 279.341 139.158 277.392 143.301C275.911 146.451 274.159 149.591 272.123 152.367C271.539 153.162 269.753 155.028 269.618 155.828C268.255 157.148 266.506 158.155 264.953 159.213L255.287 164.327C251.604 165.977 247.819 167.465 243.898 168.324C234.729 170.333 225.176 169.099 216.568 165.217L216.097 164.993C214.256 164.67 211.98 163.237 210.241 162.434C209.405 162.069 208.617 161.722 207.872 161.168C201.948 158.002 195.998 153.593 191.779 148.089C190.474 146.386 189.412 144.487 188.351 142.605L186.639 137.36L185.665 133.156C185.127 130.938 184.06 126.541 184.689 124.366C185.534 125.509 186.567 126.432 187.586 127.391C187.562 126.727 187.137 125.769 186.793 125.23C185.695 121.282 184.947 117.319 184.448 113.233C184.116 110.515 183.68 108.585 184.434 105.903L186.345 100.059L203.918 94.3475L209.37 98.1481C210.851 98.7837 212.386 99.3337 213.8 100.13C214.592 100.576 216.418 102.226 217.127 102.368L221.063 104.097C221.804 104.377 222.289 104.327 223 103.954C225.805 102.485 227.932 100.904 228.847 97.5899C229.114 96.6212 229.173 95.1059 228.71 94.2179L228.471 94.648C226.901 95.9246 224.593 97.3639 222.682 97.8961C221.975 98.0932 220.974 97.7159 220.256 97.5453C216.424 96.635 213.11 95.0446 209.686 93.0364L230.561 85.1113C229.547 86.6278 228.022 87.8343 226.702 89.0341L221.759 93.5122L224.02 93.1087Z" fill="url(#paint5_linear_30_607)"/>
<path d="M237.472 93.5122C238.07 94.2174 238.265 95.8134 238.549 96.7343C239.009 98.2234 239.618 99.6911 240.161 101.15C239.337 100.253 238.251 99.1869 237.715 98.0591L237.63 97.8684C237.106 96.7066 237.106 94.7383 237.472 93.5122Z" fill="#995A49"/>
<path d="M231.995 93.5122L232.26 93.7627C232.517 94.5567 232.492 95.4173 232.444 96.2462C232.329 98.2633 230.502 100.099 229.164 101.356L228.862 101.276C230.428 98.6643 231.09 96.4205 231.995 93.5122Z" fill="#995A49"/>
<path d="M199.598 127.829C200.298 128.152 200.304 128.46 200.63 129.177C199.722 130.013 197.729 130.518 196.579 130.987L195.415 129.247L199.598 127.829Z" fill="#60B79B"/>
<path d="M270.373 128.557C270.547 128.521 270.738 128.524 270.916 128.515C272.066 128.456 273.096 128.45 274.003 129.335C273.607 129.663 273.339 129.878 273.202 130.411C273.192 130.452 272.311 130.749 272.057 131.015L272.405 131.505C272.098 132.005 272.002 131.965 271.484 132.13C270.715 131.663 269.73 131.036 269.123 130.345C268.709 129.875 268.66 129.677 268.674 129.054C269.256 128.992 269.686 128.885 270.222 128.631L270.373 128.557Z" fill="#159774"/>
<path d="M238.968 131.26L239.423 131.362L239.639 131.873L239.751 132.043C240.113 132.656 239.998 133.283 239.881 133.947C238.938 135.296 237.518 136.944 235.988 137.462C234.77 137.876 233.552 136.957 232.53 136.355C231.658 135.375 231.259 134.806 230.95 133.492C231.12 132.91 231.211 132.424 231.566 131.934L231.848 132.241C232.157 132.524 233.959 131.677 234.532 131.59C235.959 131.372 237.417 131.535 238.833 131.286L238.968 131.26Z" fill="#BB8A70"/>
<path d="M240.919 94.3108L241.04 94.0534C242.817 95.3013 244.801 96.4293 246.894 96.8774C250.18 97.5801 253.102 96.8708 256.249 95.8317C261.339 94.1514 266.057 91.5853 270.488 88.4341C268.995 90.5816 266.352 92.5371 264.268 93.9767L254.705 98.1628C252.58 98.6341 250.148 99.3514 247.975 99.205C245.073 99.0097 242.705 96.5036 240.919 94.3108Z" fill="#12151C"/>
<path d="M254.705 98.1629L264.268 93.9768C262.019 96.2299 258.536 98.2968 255.491 99.0605C254.604 99.7285 253.578 100.183 252.649 100.784C250.942 101.886 249.204 103.522 247.107 103.462C244.762 103.394 242.309 100.969 240.786 99.24C240.488 97.4815 240.353 96.0473 240.919 94.3109C242.705 96.5037 245.073 99.0098 247.975 99.2052C250.148 99.3515 252.58 98.6343 254.705 98.1629Z" fill="#995A49"/>
<path d="M185.665 133.156C185.127 130.938 184.06 126.542 184.689 124.366C185.534 125.509 186.567 126.432 187.586 127.391C187.396 128.763 187.894 130.228 188.181 131.572C188.922 135.042 189.607 138.634 191.053 141.862C191.755 143.432 192.754 144.938 193.72 146.333C195.701 149.195 198.016 151.916 200.442 154.35L205.284 158.919C205.986 159.536 207.538 160.338 207.872 161.168C201.948 158.002 195.998 153.593 191.779 148.089C190.474 146.387 189.412 144.487 188.351 142.605L186.639 137.361L185.665 133.156Z" fill="#F8F8F8"/>
<path d="M248.398 110.526C249.731 105.382 251.957 102.421 256.281 99.8131C260.039 97.5455 264.289 96.6803 268.473 97.9336C271.173 98.7427 273.515 100.505 275.551 102.517C276.211 103.17 277.012 104.217 277.834 104.588C278.624 104.942 279.772 104.67 280.578 104.508C279.923 105.111 278.311 106.255 277.956 107.034C277.649 107.706 277.539 109.049 277.489 109.807C277.276 113.035 275.634 116.141 273.403 118.276C269.496 122.012 264.135 123.639 258.96 123.264C257.481 123.158 256.024 122.727 254.625 122.222L254.581 122.015L257.689 122.628C260.18 122.801 262.232 122.678 264.683 122.169L267.259 121.386C270.962 119.932 274.505 117.358 276.179 113.4C276.731 112.094 277.722 109.474 277.159 108.01L276.847 107.129L276.669 107.096C275.256 106.817 273.838 105.738 272.439 105.207C265.702 102.648 260.684 103.219 254.698 107.519C252.367 109.194 249.424 111.591 247.691 113.943C247.826 112.757 248.009 111.649 248.398 110.526Z" fill="#12151C"/>
<path d="M248.398 110.526L250.867 107.225C254.023 103.634 259.171 100.71 263.829 100.621C268.917 100.523 273.325 103.449 276.847 107.129L276.669 107.096C275.256 106.817 273.838 105.738 272.439 105.207C265.702 102.648 260.684 103.219 254.698 107.519C252.367 109.194 249.424 111.591 247.691 113.943C247.826 112.757 248.009 111.649 248.398 110.526Z" fill="#B1B4C3"/>
<path d="M214.858 121.983C212.378 123.442 208.356 123.735 205.553 123.392C201.241 122.862 197.431 120.199 194.778 116.58C192.448 113.4 191.419 110.119 191.873 106.107L187.796 104.722C188.916 104.754 190.166 104.892 191.251 104.552C193.363 103.89 195.701 101.293 197.663 100.036C201.395 97.6468 205.169 97.0261 209.37 98.148C210.851 98.7836 212.386 99.3337 213.8 100.13C214.592 100.576 216.418 102.226 217.127 102.368C218.05 103.325 219.067 104.251 219.606 105.523L219.669 105.669C220.395 107.386 220.61 109.48 220.803 111.338C220.864 112.222 220.979 113.174 220.911 114.057C218.748 111.523 216.932 108.945 214.14 107.124C210.636 104.838 205.573 103.385 201.523 104.45C197.514 105.504 194.733 107.792 192.627 111.495C194.339 116.295 197.264 119.292 201.637 121.39C202.931 122.011 204.426 122.562 205.85 122.668L206.447 122.719C209.499 123.008 211.897 122.424 214.858 121.983Z" fill="#12151C"/>
<path d="M192.627 111.495C192.298 110.674 192.424 110.102 192.641 109.272C193.339 106.6 195.88 104.071 198.091 102.771C201.653 100.677 205.616 100.273 209.491 101.484C214.362 103.007 218.396 106.627 220.803 111.338C220.864 112.222 220.979 113.175 220.911 114.057C218.748 111.523 216.932 108.946 214.14 107.124C210.636 104.838 205.573 103.386 201.523 104.45C197.514 105.504 194.733 107.792 192.627 111.495Z" fill="#B1B4C3"/>
<path d="M192.627 111.495C194.733 107.792 197.514 105.504 201.523 104.45C205.573 103.386 210.636 104.838 214.14 107.124C216.932 108.946 218.748 111.523 220.911 114.057C221.006 115.824 220.406 117.704 219.304 119.039C217.996 120.625 216.716 120.761 215.115 121.681L214.858 121.984C211.897 122.424 209.499 123.008 206.447 122.719L205.85 122.668C204.427 122.562 202.931 122.011 201.637 121.39C197.264 119.292 194.339 116.295 192.627 111.495Z" fill="#F8F8F8"/>
<path d="M208.147 109.677C209.718 109.144 211.072 109.233 212.552 110.055C214.365 111.063 215.662 113.078 216.228 115.12L216.307 115.423L215.937 115.299C215.177 114.079 214.131 113.207 213.195 112.156C211.389 111.242 210.238 111.24 208.262 111.29C206.581 112.332 205.322 113.231 204.569 115.259C204.533 116.265 204.432 117.323 204.53 118.324C204.841 119.206 205.702 120.929 205.564 121.788C205.085 121.247 204.633 120.58 204.329 119.909C203.529 118.14 203.498 116.227 204.139 114.377C204.874 112.256 206.211 110.612 208.147 109.677Z" fill="url(#paint6_linear_30_607)"/>
<path d="M204.569 115.259C205.322 113.231 206.581 112.332 208.262 111.29C210.238 111.24 211.389 111.242 213.195 112.156C214.131 113.207 215.177 114.079 215.937 115.298L216.307 115.423L216.581 116.424C216.468 117.458 216.33 118.439 215.976 119.414C215.734 120.078 215.163 121.01 215.115 121.681L214.858 121.984C211.897 122.424 209.499 123.008 206.447 122.719L205.85 122.668L206 122.431L205.564 121.788C205.702 120.929 204.841 119.206 204.53 118.323C204.432 117.323 204.533 116.265 204.569 115.259Z" fill="#60B79B"/>
<path d="M207.865 114.827C208.682 114.05 209.327 113.475 210.47 113.536C211.267 113.578 212.022 114.024 212.562 114.643C213.066 115.223 213.128 116.067 213.225 116.817C212.539 118.044 212.019 118.933 210.798 119.572C209.941 119.632 209.33 119.698 208.572 119.202L208.465 119.134C207.775 118.684 207.522 118.17 207.2 117.395C207.208 116.374 207.433 115.731 207.865 114.827Z" fill="#12151C"/>
<path d="M213.225 116.816C213.198 116.321 213.078 115.667 213.317 115.227C214.629 115.356 215.547 115.52 216.582 116.424C216.468 117.458 216.33 118.439 215.976 119.414C215.734 120.078 215.163 121.01 215.115 121.681L214.858 121.983C211.897 122.424 209.5 123.008 206.447 122.719L205.85 122.668L206.001 122.431L205.564 121.788C205.702 120.929 204.841 119.206 204.53 118.323C204.638 118.198 204.749 118.077 204.877 117.975C205.558 117.432 206.38 117.305 207.2 117.395C207.522 118.169 207.775 118.684 208.466 119.133L208.572 119.201C209.33 119.698 209.941 119.632 210.798 119.572C212.019 118.933 212.539 118.043 213.225 116.816Z" fill="#6FE3BE"/>
<path d="M224.02 93.1087L224.144 93.0913C228.218 91.9807 232.318 89.5153 236.135 87.6455C240.621 85.4473 245.123 83.3812 249.374 80.6712C258.117 75.0963 265.578 66.6164 270.88 57.3677C273.158 68.2823 277.482 78.7926 281.798 88.9344C283.301 92.465 284.627 96.028 286.564 99.3234C287.899 94.6071 288.822 89.6133 289.108 84.6995L289.397 84.5745C289.166 87.1771 289.291 89.781 289.159 92.3876C288.765 100.065 287.471 107.472 284.808 114.629C283.864 117.163 282.74 119.624 281.54 122.029C280.864 123.385 279.923 124.767 279.488 126.229C279.009 126.773 277.992 127.653 277.876 128.354C277.516 129.005 276.273 129.803 275.686 130.305C277.818 127.025 279.524 123.547 280.967 119.862C282.65 115.56 284.134 111.022 285.277 106.526C285.52 105.568 286.001 104.385 286.051 103.403C286.088 102.717 284.968 100.645 284.661 99.9494C281.247 92.2356 277.088 85.0532 273.408 77.5031L269.281 68.0354C267.037 70.6805 264.925 73.4608 262.553 75.9792C257.426 81.4193 250.94 85.9952 244.315 89.0476C241.409 90.3862 238.359 91.3595 235.379 92.4908C238.056 90.4536 240.511 88.5387 242.932 86.1508C237.498 89.0917 231.802 91.3573 225.96 93.1624C224.773 93.5291 223.226 94.2786 221.991 94.0781L224.02 93.1087Z" fill="#974744"/>
<path d="M247.691 113.943C249.424 111.591 252.367 109.193 254.698 107.519C260.684 103.219 265.702 102.648 272.439 105.207C273.838 105.738 275.256 106.817 276.669 107.096L276.847 107.129L277.159 108.01C277.722 109.474 276.731 112.094 276.179 113.4C274.505 117.358 270.962 119.932 267.259 121.386L264.683 122.169C262.232 122.678 260.18 122.801 257.689 122.628L254.581 122.015C253.5 121.371 252.351 121.2 251.327 120.42C249.067 118.699 248.119 116.84 247.691 113.943Z" fill="#F8F8F8"/>
<path d="M254.458 117.484C254.137 115.561 254.384 113.7 255.454 112.073C256.514 110.456 257.945 109.509 259.75 109.215C261.305 108.962 262.773 109.714 263.982 110.698C265.56 111.982 266.629 114.04 266.847 116.144C266.909 116.746 266.925 117.41 266.78 117.999L266.673 117.598C266.641 116.824 266.574 116.182 266.322 115.45C266.208 115.118 266.091 114.803 265.903 114.508C264.994 113.078 263.022 111.596 261.408 111.312C260.013 111.066 258.243 111.513 257.082 112.386C255.323 113.71 254.831 115.298 254.458 117.484Z" fill="#046E53"/>
<path d="M254.458 117.484C254.831 115.298 255.323 113.71 257.082 112.386C258.243 111.513 260.013 111.066 261.408 111.312C263.022 111.596 264.994 113.078 265.903 114.508C266.091 114.803 266.208 115.118 266.322 115.45C266.574 116.182 266.641 116.824 266.673 117.598C265.986 116.515 264.438 116.309 263.316 115.983C263.1 115.59 262.871 115.176 262.583 114.837C262.022 114.174 261.211 113.777 260.377 113.762C259.354 113.745 258.392 114.466 257.698 115.214C256.7 115.644 255.261 117.103 254.84 118.18L254.753 118.41L254.458 117.484Z" fill="#60B79B"/>
<path d="M257.698 115.214C258.392 114.466 259.354 113.745 260.377 113.762C261.211 113.776 262.022 114.174 262.583 114.837C262.871 115.176 263.1 115.59 263.316 115.983C264.438 116.309 265.986 116.514 266.673 117.598L266.78 117.999C266.597 119.659 265.612 120.896 264.683 122.169C262.232 122.678 260.18 122.801 257.689 122.628C256.331 121.375 255.307 120.304 254.753 118.41L254.84 118.18C255.261 117.103 256.7 115.644 257.698 115.214Z" fill="#6FE3BE"/>
<path d="M257.698 115.214C258.392 114.466 259.354 113.745 260.377 113.762C261.211 113.776 262.022 114.174 262.583 114.837C262.871 115.176 263.1 115.59 263.316 115.983C263.357 116.576 263.464 117.34 263.352 117.921C263.217 118.626 262.475 119.356 261.937 119.749C261.275 120.229 260.327 120.278 259.564 120.084C258.811 119.892 258.319 119.361 257.932 118.676C257.242 117.454 257.382 116.551 257.698 115.214Z" fill="#12151C"/>
<path d="M219.12 160.139C218.014 158.554 217.71 157.191 217.985 155.22C218.533 151.304 220.964 148.154 223.885 145.9C227.653 142.992 233.066 140.993 237.75 141.782L238.929 142.021C243.225 142.655 248.483 145.58 251.1 149.355C252.658 151.599 253.816 154.657 253.452 157.488C253.324 158.476 252.736 159.439 251.982 160.014C249.532 161.88 244.317 160.473 241.375 160.534L232.524 160.575C228.361 160.789 222.948 162.336 219.12 160.139Z" fill="#12151C"/>
<path d="M234.958 142.032L235.061 142.007C237.979 141.523 242.966 143.15 245.378 144.898C245.378 145.571 245.073 145.899 244.748 146.457C242.151 147.271 239.089 147.315 236.389 147.53L229.684 147.77C229.001 147.759 227.569 147.794 226.941 147.507C226.49 147.301 225.551 145.983 225.155 145.55C228.355 143.584 231.257 142.261 234.958 142.032Z" fill="#E9E6C5"/>
<path d="M219.12 160.139C219.885 158.186 220.683 156.588 222.391 155.398C228.081 151.431 237.713 151.595 244.143 153.005C246.612 153.547 249.999 154.799 251.419 157.202C251.872 157.971 251.842 158.471 251.65 159.326C251.091 159.883 250.764 159.95 250.029 160.006C249.028 160.452 247.872 160.326 246.804 160.321C244.253 160.308 241.711 159.998 239.167 160.091C239.907 160.295 240.61 160.47 241.375 160.534L232.524 160.576C228.361 160.789 222.948 162.336 219.12 160.139Z" fill="#5D3152"/>
<path d="M239.167 160.091C238.572 159.891 237.404 160.049 236.756 160.045C235.375 160.036 233.982 159.999 232.606 160.113C230.339 160.301 223.017 161.535 221.34 160.429C221.378 159.737 221.617 159.296 221.931 158.713C222.877 158.242 224.485 158.845 225.563 158.785C233.49 158.345 241.679 156.958 249.614 157.817C250.23 158.561 250.042 159.034 250.029 160.006C249.028 160.452 247.872 160.326 246.804 160.321C244.253 160.308 241.711 159.998 239.167 160.091Z" fill="#CFEFE3"/>
</g>
<defs>
<linearGradient id="paint0_linear_30_607" x1="428.665" y1="96.7908" x2="440.484" y2="90.383" gradientUnits="userSpaceOnUse">
<stop stop-color="#363D4F"/>
<stop offset="1" stop-color="#425D65"/>
</linearGradient>
<linearGradient id="paint1_linear_30_607" x1="416.59" y1="185.05" x2="453.254" y2="102.215" gradientUnits="userSpaceOnUse">
<stop stop-color="#201B2F"/>
<stop offset="1" stop-color="#5A7581"/>
</linearGradient>
<linearGradient id="paint2_linear_30_607" x1="343.414" y1="118.089" x2="430.512" y2="101.13" gradientUnits="userSpaceOnUse">
<stop stop-color="#130517"/>
<stop offset="1" stop-color="#4C5D6E"/>
</linearGradient>
<linearGradient id="paint3_linear_30_607" x1="385.758" y1="262.196" x2="418.526" y2="163.486" gradientUnits="userSpaceOnUse">
<stop stop-color="#190B1D"/>
<stop offset="1" stop-color="#33394B"/>
</linearGradient>
<linearGradient id="paint4_linear_30_607" x1="34.5826" y1="232.031" x2="128.219" y2="94.622" gradientUnits="userSpaceOnUse">
<stop stop-color="#160618"/>
<stop offset="1" stop-color="#576D7F"/>
</linearGradient>
<linearGradient id="paint5_linear_30_607" x1="223.372" y1="167.293" x2="245.384" y2="63.8363" gradientUnits="userSpaceOnUse">
<stop stop-color="#CBB595"/>
<stop offset="1" stop-color="#D5CDAA"/>
</linearGradient>
<linearGradient id="paint6_linear_30_607" x1="210.139" y1="120.93" x2="209.146" y2="109.297" gradientUnits="userSpaceOnUse">
<stop stop-color="#101A2E"/>
<stop offset="1" stop-color="#198063"/>
</linearGradient>
<clipPath id="clip0_30_607">
<rect width="469" height="251" fill="white"/>
</clipPath>
</defs>
</svg>
