<svg width="148" height="34" viewBox="0 0 148 34" fill="none" xmlns="http://www.w3.org/2000/svg">
<path d="M134.224 24.248C134.007 24.3242 133.766 24.3751 133.499 24.4005C133.232 24.4387 132.965 24.445 132.698 24.4196C132.431 24.3942 132.183 24.3306 131.954 24.2289C131.738 24.1399 131.566 24.0064 131.439 23.8283C131.223 23.5359 131.095 23.1989 131.057 22.8174C131.032 22.4232 131.038 22.0417 131.076 21.673C131.254 20.1979 131.572 18.742 132.03 17.3051C132.488 15.8682 133.066 14.4949 133.766 13.1851C134.02 12.7019 134.3 12.2378 134.605 11.7928C134.923 11.335 135.304 10.9599 135.749 10.6674C136.144 10.4004 136.582 10.216 137.065 10.1143C137.561 9.99982 138.038 9.97439 138.496 10.038C138.852 10.0761 139.195 10.1651 139.526 10.305C139.869 10.4322 140.175 10.6102 140.442 10.8391C140.848 11.1697 141.179 11.5702 141.433 12.0407C141.7 12.5112 141.929 12.988 142.12 13.4713C142.527 14.4885 142.845 15.5312 143.074 16.5994C143.303 17.6675 143.525 18.742 143.741 19.8228C143.767 19.9246 143.805 20.1026 143.856 20.3569C143.919 20.5985 143.983 20.8592 144.047 21.1389C144.11 21.4187 144.161 21.6857 144.199 21.94C144.25 22.1816 144.269 22.3533 144.256 22.455C144.231 22.6712 144.155 22.881 144.027 23.0845C143.913 23.2752 143.779 23.4532 143.627 23.6185C143.487 23.7711 143.347 23.8856 143.207 23.9618C143.017 24.0636 142.781 24.1399 142.502 24.1907C142.222 24.2543 141.936 24.2861 141.643 24.2861C141.363 24.2861 141.084 24.2543 140.804 24.1907C140.537 24.1399 140.321 24.0509 140.155 23.9237C139.939 23.7584 139.78 23.5486 139.679 23.2943C139.577 23.0399 139.507 22.7856 139.469 22.5313C138.782 22.455 138.095 22.4296 137.409 22.455C136.722 22.4677 136.036 22.5059 135.349 22.5695C135.349 22.6076 135.343 22.6712 135.33 22.7602C135.317 22.8492 135.298 22.9446 135.273 23.0463C135.26 23.1353 135.241 23.2243 135.215 23.3133C135.203 23.4023 135.19 23.4596 135.177 23.485C135.114 23.6757 134.986 23.8347 134.796 23.9618C134.605 24.089 134.414 24.1844 134.224 24.248ZM136.245 16.9236C136.22 17.0126 136.182 17.1906 136.131 17.4577C136.093 17.712 136.048 17.9917 135.997 18.2969C135.947 18.5894 135.902 18.8691 135.864 19.1362C135.826 19.3905 135.8 19.5622 135.788 19.6512C135.902 19.6385 136.118 19.6321 136.436 19.6321C136.754 19.6194 137.091 19.613 137.447 19.613C137.803 19.6003 138.14 19.5939 138.458 19.5939C138.788 19.5939 139.011 19.5939 139.125 19.5939C139.062 19.1489 139.005 18.7038 138.954 18.2588C138.916 17.8137 138.865 17.3687 138.801 16.9236C138.75 16.6311 138.693 16.3387 138.63 16.0462C138.579 15.7538 138.496 15.4613 138.382 15.1688C138.343 15.0544 138.293 14.9399 138.229 14.8255C138.178 14.711 138.115 14.6157 138.038 14.5394C137.962 14.4504 137.879 14.3932 137.79 14.3677C137.701 14.3296 137.606 14.3359 137.504 14.3868C137.352 14.4631 137.205 14.6093 137.065 14.8255C136.938 15.0289 136.818 15.2642 136.703 15.5312C136.601 15.7855 136.506 16.0462 136.417 16.3133C136.341 16.5676 136.283 16.771 136.245 16.9236Z" fill="white"/>
<path d="M126.363 24.1532C126.286 24.2041 126.172 24.2676 126.019 24.3439C125.879 24.4329 125.727 24.5156 125.562 24.5919C125.409 24.6682 125.25 24.7318 125.085 24.7826C124.932 24.8335 124.811 24.8589 124.722 24.8589C124.353 24.8208 124.042 24.6618 123.788 24.3821C123.711 24.2931 123.571 24.1532 123.368 23.9625C123.165 23.759 122.929 23.5301 122.662 23.2758C122.395 23.0215 122.115 22.7544 121.823 22.4747C121.531 22.1949 121.251 21.9279 120.984 21.6736C120.729 21.4066 120.501 21.1777 120.297 20.9869C120.106 20.7835 119.973 20.6309 119.897 20.5292C119.909 20.9234 119.916 21.3176 119.916 21.7117C119.928 22.0932 119.903 22.4811 119.839 22.8752C119.814 23.1041 119.769 23.333 119.706 23.5619C119.642 23.7908 119.541 24.0006 119.401 24.1913C119.235 24.4329 119.013 24.6046 118.733 24.7063C118.441 24.7953 118.142 24.8398 117.837 24.8398C117.531 24.8526 117.239 24.8081 116.959 24.7063C116.807 24.6555 116.66 24.5855 116.521 24.4965C116.381 24.4075 116.26 24.2931 116.158 24.1532C116.069 24.0387 116.006 23.9116 115.967 23.7717C115.929 23.6191 115.91 23.4729 115.91 23.333C115.91 23.2186 115.923 23.0278 115.948 22.7608C115.986 22.4811 116.025 22.1632 116.063 21.8071C116.101 21.4511 116.139 21.076 116.177 20.6818C116.228 20.2749 116.273 19.8934 116.311 19.5373C116.362 19.1813 116.4 18.8697 116.425 18.6027C116.451 18.323 116.47 18.1259 116.482 18.0114C116.546 17.0959 116.565 16.1803 116.54 15.2648C116.514 14.3493 116.482 13.4337 116.444 12.5182C116.432 12.2893 116.425 12.0604 116.425 11.8315C116.438 11.6026 116.463 11.3737 116.501 11.1449C116.527 10.9668 116.597 10.7952 116.711 10.6299C116.826 10.4518 116.966 10.3183 117.131 10.2293C117.309 10.1403 117.512 10.0767 117.741 10.0386C117.983 9.98771 118.224 9.96864 118.466 9.98135C118.72 9.99407 118.956 10.0386 119.172 10.1149C119.388 10.1912 119.566 10.2993 119.706 10.4391C119.884 10.6044 120.005 10.8079 120.068 11.0495C120.145 11.2784 120.189 11.5073 120.202 11.7361C120.202 11.8887 120.189 12.1812 120.164 12.6135C120.151 13.0332 120.132 13.4909 120.106 13.9869C120.081 14.4701 120.056 14.9278 120.03 15.3602C120.005 15.7798 119.986 16.0659 119.973 16.2185C120.431 15.5954 120.876 14.9787 121.308 14.3683C121.753 13.7453 122.179 13.1095 122.586 12.4609C122.764 12.1685 122.948 11.8824 123.139 11.6026C123.33 11.3102 123.546 11.0368 123.788 10.7825C123.928 10.6426 124.08 10.5091 124.245 10.3819C124.423 10.242 124.621 10.1594 124.837 10.1339C124.938 10.1212 125.047 10.1339 125.161 10.1721C125.275 10.1975 125.383 10.2293 125.485 10.2675C125.612 10.3056 125.771 10.3755 125.962 10.4773C126.153 10.5663 126.337 10.668 126.515 10.7825C126.706 10.8969 126.878 11.0241 127.03 11.1639C127.183 11.2911 127.278 11.4182 127.316 11.5454C127.38 11.7107 127.393 11.8824 127.354 12.0604C127.316 12.2384 127.265 12.4101 127.202 12.5754C127.049 12.906 126.852 13.2175 126.611 13.51C126.382 13.7898 126.146 14.0695 125.905 14.3493C125.485 14.807 125.059 15.2521 124.627 15.6844C124.195 16.104 123.775 16.5555 123.368 17.0387C123.228 17.204 123.101 17.3693 122.987 17.5346C122.872 17.6999 122.777 17.8843 122.7 18.0877C122.929 18.3929 123.209 18.6981 123.54 19.0033C123.947 19.3847 124.366 19.7535 124.799 20.1095C125.231 20.4656 125.651 20.8407 126.057 21.2349C126.223 21.3875 126.375 21.5464 126.515 21.7117C126.655 21.8643 126.789 22.0296 126.916 22.2077C127.017 22.3603 127.1 22.5319 127.164 22.7227C127.227 22.9134 127.234 23.0978 127.183 23.2758C127.119 23.4665 127.011 23.6382 126.859 23.7908C126.706 23.9307 126.541 24.0515 126.363 24.1532Z" fill="white"/>
<path d="M108.02 24.401C107.842 24.4773 107.658 24.5155 107.467 24.5155C107.289 24.5282 107.105 24.5282 106.914 24.5155C106.698 24.49 106.475 24.4519 106.246 24.401C106.03 24.3502 105.827 24.2675 105.636 24.1531C105.509 24.0895 105.401 24.0005 105.312 23.886C105.223 23.7589 105.159 23.6254 105.121 23.4855C105.07 23.282 105.045 23.0786 105.045 22.8751C105.057 22.659 105.077 22.4492 105.102 22.2457C105.127 22.0295 105.146 21.8197 105.159 21.6163C105.185 21.4001 105.185 21.1839 105.159 20.9678C105.045 20.955 104.816 20.9487 104.473 20.9487C104.142 20.936 103.786 20.9296 103.404 20.9296C103.023 20.9169 102.66 20.9105 102.317 20.9105C101.987 20.8978 101.764 20.8915 101.65 20.8915C101.357 20.866 101.071 20.8279 100.791 20.777C100.512 20.7134 100.244 20.6054 99.9902 20.4528C99.7104 20.3002 99.4815 20.0904 99.3035 19.8233C99.1636 19.6199 99.081 19.391 99.0555 19.1367C99.0301 18.8824 99.0365 18.6344 99.0746 18.3928C99.1382 18.0495 99.2399 17.7125 99.3798 17.3819C99.5324 17.0513 99.6977 16.7397 99.8757 16.4473C100.244 15.8623 100.632 15.2965 101.039 14.7497C101.459 14.1902 101.878 13.6371 102.298 13.0903C102.591 12.6961 102.864 12.2892 103.118 11.8695C103.385 11.4499 103.678 11.0494 103.996 10.6679C104.174 10.439 104.364 10.2228 104.568 10.0194C104.771 9.81594 105 9.64427 105.255 9.5044C105.585 9.31366 105.941 9.18014 106.323 9.10385C106.704 9.01483 107.086 8.98305 107.467 9.00848C107.607 9.02119 107.747 9.03391 107.887 9.04662C108.027 9.05934 108.166 9.08477 108.306 9.12292C108.586 9.19922 108.821 9.34545 109.012 9.56162C109.152 9.71421 109.254 9.89859 109.317 10.1148C109.394 10.3182 109.444 10.528 109.47 10.7442C109.508 11.1892 109.527 11.6279 109.527 12.0603C109.527 12.1747 109.527 12.4163 109.527 12.7851C109.527 13.1539 109.521 13.548 109.508 13.9677C109.508 14.3873 109.508 14.7815 109.508 15.1502C109.508 15.519 109.508 15.7606 109.508 15.875C109.508 15.9513 109.508 16.0785 109.508 16.2565C109.508 16.4345 109.514 16.6189 109.527 16.8097C109.54 17.0004 109.552 17.1848 109.565 17.3628C109.578 17.5281 109.603 17.6489 109.642 17.7252C109.667 17.7506 109.699 17.7634 109.737 17.7634H110.137C110.29 17.7761 110.436 17.8015 110.576 17.8397C110.729 17.8651 110.875 17.9096 111.015 17.9732C111.218 18.0876 111.371 18.2529 111.473 18.4691C111.562 18.6598 111.619 18.8824 111.644 19.1367C111.682 19.391 111.689 19.6517 111.663 19.9187C111.651 20.173 111.606 20.421 111.53 20.6626C111.454 20.8915 111.339 21.0758 111.186 21.2157C110.983 21.4192 110.735 21.5527 110.443 21.6163C110.214 21.6544 109.978 21.6735 109.737 21.6735C109.508 21.6608 109.273 21.6671 109.031 21.6926C109.018 21.7307 108.999 21.8197 108.974 21.9596C108.961 22.0868 108.942 22.2266 108.917 22.3792C108.904 22.5191 108.891 22.659 108.879 22.7988C108.866 22.926 108.853 23.0087 108.84 23.0468C108.815 23.2248 108.777 23.4028 108.726 23.5809C108.675 23.7462 108.599 23.8988 108.497 24.0386C108.344 24.2167 108.186 24.3375 108.02 24.401ZM103.652 17.4963C103.741 17.5345 103.888 17.5663 104.091 17.5917C104.307 17.6044 104.53 17.6108 104.759 17.6108C104.987 17.6108 105.204 17.6108 105.407 17.6108C105.623 17.598 105.782 17.5853 105.884 17.5726C105.884 17.4582 105.884 17.2229 105.884 16.8669C105.897 16.5108 105.909 16.1294 105.922 15.7225C105.935 15.3155 105.941 14.9341 105.941 14.578C105.954 14.222 105.96 13.9867 105.96 13.8723C105.693 14.2538 105.42 14.6289 105.14 14.9977C104.873 15.3664 104.612 15.7479 104.358 16.1421C104.218 16.3583 104.078 16.5744 103.938 16.7906C103.811 17.0068 103.716 17.242 103.652 17.4963Z" fill="white"/>
<path d="M92.5776 24.1913C92.0181 24.2549 91.5221 24.1341 91.0898 23.8289C91.0389 23.7908 90.9626 23.7145 90.8609 23.6C90.7592 23.4729 90.6956 23.3775 90.6702 23.3139C90.6447 23.2631 90.613 23.155 90.5748 22.9897C90.5367 22.8116 90.5112 22.6908 90.4985 22.6273C90.3205 21.3175 90.1743 20.0078 90.0598 18.6981C89.9581 17.3883 89.9072 16.0722 89.9072 14.7498C89.9072 14.2793 89.9136 13.8088 89.9263 13.3383C89.9517 12.8678 90.0153 12.4037 90.117 11.9459C90.1806 11.6789 90.2696 11.4119 90.3841 11.1448C90.4985 10.8778 90.6575 10.6426 90.8609 10.4391C91.0389 10.2484 91.2615 10.1085 91.5285 10.0195C91.7955 9.91775 92.0753 9.86053 92.3677 9.84781C92.6602 9.82238 92.9527 9.84146 93.2451 9.90503C93.5376 9.96861 93.7919 10.064 94.0081 10.1911C94.1988 10.2929 94.3641 10.4327 94.504 10.6108C94.6439 10.7888 94.7456 10.9859 94.8092 11.2021C94.8728 11.4437 94.9046 11.6916 94.9046 11.9459C94.9046 12.1875 94.8918 12.4355 94.8664 12.6898C94.8664 12.7788 94.8537 12.9314 94.8283 13.1476C94.8028 13.351 94.771 13.5926 94.7329 13.8724C94.6947 14.1394 94.6566 14.4255 94.6185 14.7307C94.5803 15.0232 94.5422 15.3093 94.504 15.589C94.4659 15.8561 94.4341 16.0977 94.4086 16.3138C94.3832 16.5173 94.3641 16.6572 94.3514 16.7335C94.2878 17.2294 94.237 17.7253 94.1988 18.2212C94.1607 18.7044 94.1289 19.194 94.1035 19.6899C94.078 20.0968 94.0653 20.5101 94.0653 20.9297C94.078 21.3366 94.0717 21.7435 94.0462 22.1504C94.0335 22.3793 94.0081 22.6145 93.9699 22.8561C93.9318 23.085 93.8491 23.3012 93.722 23.5047C93.6075 23.6954 93.4422 23.8543 93.2261 23.9815C93.0099 24.0959 92.7937 24.1659 92.5776 24.1913Z" fill="white"/>
<path d="M84.6056 24.4968C84.3513 24.6366 84.0842 24.7257 83.8045 24.7638C83.5247 24.8147 83.245 24.8083 82.9652 24.7447C82.6982 24.6939 82.4439 24.5921 82.2023 24.4396C81.9607 24.287 81.7636 24.0899 81.611 23.8483C81.4075 23.5431 81.2867 23.1998 81.2486 22.8183C81.2232 22.4241 81.2041 22.0426 81.1914 21.6738C81.1659 20.8982 81.1278 20.1162 81.0769 19.3278C81.0261 18.7174 80.9688 18.1198 80.9053 17.5348C80.8544 16.9372 80.759 16.3459 80.6192 15.761C80.5429 15.9008 80.4538 16.1552 80.3521 16.5239C80.2631 16.8927 80.155 17.3187 80.0279 17.8019C79.9134 18.2851 79.7926 18.8001 79.6655 19.3468C79.551 19.8809 79.4366 20.3959 79.3221 20.8918C79.2077 21.375 79.0996 21.801 78.9979 22.1698C78.8962 22.5385 78.8135 22.7928 78.7499 22.9327C78.6482 23.1489 78.4829 23.3206 78.254 23.4477C78.0378 23.5622 77.8217 23.6384 77.6055 23.6766C77.3893 23.7147 77.1668 23.7275 76.9379 23.7147C76.709 23.702 76.4928 23.6575 76.2894 23.5812C76.0987 23.5049 75.9334 23.3968 75.7935 23.257C75.6536 23.1171 75.5582 22.9391 75.5074 22.7229C75.4947 22.672 75.4756 22.5703 75.4501 22.4177C75.4247 22.2651 75.3929 22.1062 75.3548 21.9409C75.3166 21.7629 75.2848 21.5976 75.2594 21.445C75.234 21.2924 75.2149 21.1906 75.2022 21.1398C75.1005 20.6566 74.9987 20.1861 74.897 19.7283C74.808 19.2578 74.7063 18.7873 74.5918 18.3169C74.4901 17.9354 74.3757 17.5539 74.2485 17.1724C74.1341 16.791 73.9878 16.4286 73.8098 16.0852C73.6445 17.2551 73.5173 18.4313 73.4283 19.6139C73.3393 20.7837 73.1613 21.9472 72.8943 23.1044C72.8561 23.2697 72.8116 23.435 72.7607 23.6003C72.7226 23.7656 72.6527 23.9246 72.5509 24.0771C72.3856 24.306 72.1758 24.4713 71.9215 24.5731C71.718 24.6494 71.4892 24.7002 71.2348 24.7257C70.9932 24.7511 70.7516 24.7384 70.51 24.6875C70.2684 24.6494 70.0395 24.5731 69.8234 24.4586C69.6199 24.3569 69.461 24.217 69.3465 24.039C69.2067 23.8483 69.1367 23.5558 69.1367 23.1616C69.1367 22.7674 69.1622 22.3541 69.213 21.9218C69.2639 21.4768 69.3275 21.0508 69.4038 20.6439C69.4928 20.2242 69.5563 19.8936 69.5945 19.652C69.7852 18.4313 69.9569 17.2169 70.1095 16.0089C70.2748 14.7882 70.5227 13.5802 70.8534 12.3849C70.9551 12.0289 71.0822 11.6855 71.2348 11.3549C71.3874 11.0116 71.5972 10.7128 71.8643 10.4584C72.0677 10.2677 72.303 10.1215 72.57 10.0198C72.837 9.91803 73.1104 9.8608 73.3902 9.84809C73.6699 9.83537 73.9433 9.87352 74.2104 9.96253C74.4774 10.0388 74.719 10.1596 74.9352 10.3249C75.2785 10.5793 75.5519 10.9035 75.7553 11.2977C75.9588 11.6919 76.1241 12.0924 76.2512 12.4993C76.5056 13.3004 76.6899 14.1143 76.8044 14.9408C76.9315 15.7546 77.0587 16.5811 77.1859 17.4204C77.3512 16.721 77.5228 16.028 77.7009 15.3413C77.8789 14.6547 78.076 13.968 78.2921 13.2814C78.4193 12.849 78.5783 12.4294 78.769 12.0225C78.9597 11.6029 79.214 11.2341 79.5319 10.9162C79.799 10.6492 80.0978 10.4457 80.4284 10.3059C80.7717 10.1533 81.1151 10.0706 81.4584 10.0579C81.8144 10.0325 82.1578 10.0833 82.4884 10.2105C82.819 10.3376 83.1115 10.5347 83.3658 10.8018C83.6201 11.0815 83.8235 11.3994 83.9761 11.7555C84.1414 12.1115 84.2686 12.4739 84.3576 12.8427C84.6246 13.8981 84.79 14.9599 84.8535 16.028C84.9171 17.0961 84.9998 18.1706 85.1015 19.2515C85.1651 19.7474 85.2287 20.2433 85.2922 20.7392C85.3558 21.2224 85.4067 21.712 85.4448 22.2079C85.4575 22.4241 85.4575 22.6466 85.4448 22.8755C85.4448 23.1044 85.413 23.3269 85.3495 23.5431C85.2859 23.7338 85.1905 23.9182 85.0633 24.0962C84.9362 24.2615 84.7836 24.395 84.6056 24.4968Z" fill="white"/>
<path d="M62.8454 24.1913C62.2859 24.2549 61.79 24.1341 61.3576 23.8289C61.3068 23.7908 61.2305 23.7145 61.1287 23.6C61.027 23.4729 60.9634 23.3775 60.938 23.3139C60.9126 23.2631 60.8808 23.155 60.8426 22.9897C60.8045 22.8116 60.7791 22.6908 60.7663 22.6273C60.5883 21.3175 60.4421 20.0078 60.3276 18.6981C60.2259 17.3883 60.175 16.0722 60.175 14.7498C60.175 14.2793 60.1814 13.8088 60.1941 13.3383C60.2196 12.8678 60.2831 12.4037 60.3849 11.9459C60.4484 11.6789 60.5375 11.4119 60.6519 11.1448C60.7663 10.8778 60.9253 10.6426 61.1287 10.4391C61.3068 10.2484 61.5293 10.1085 61.7963 10.0195C62.0634 9.91775 62.3431 9.86053 62.6356 9.84781C62.928 9.82238 63.2205 9.84146 63.513 9.90503C63.8054 9.96861 64.0597 10.064 64.2759 10.1911C64.4667 10.2929 64.632 10.4327 64.7718 10.6108C64.9117 10.7888 65.0134 10.9859 65.077 11.2021C65.1406 11.4437 65.1724 11.6916 65.1724 11.9459C65.1724 12.1875 65.1597 12.4355 65.1342 12.6898C65.1342 12.7788 65.1215 12.9314 65.0961 13.1476C65.0707 13.351 65.0389 13.5926 65.0007 13.8724C64.9626 14.1394 64.9244 14.4255 64.8863 14.7307C64.8481 15.0232 64.81 15.3093 64.7718 15.589C64.7337 15.8561 64.7019 16.0977 64.6765 16.3138C64.651 16.5173 64.632 16.6572 64.6192 16.7335C64.5557 17.2294 64.5048 17.7253 64.4667 18.2212C64.4285 18.7044 64.3967 19.194 64.3713 19.6899C64.3459 20.0968 64.3331 20.5101 64.3331 20.9297C64.3459 21.3366 64.3395 21.7435 64.3141 22.1504C64.3013 22.3793 64.2759 22.6145 64.2378 22.8561C64.1996 23.085 64.117 23.3012 63.9898 23.5047C63.8754 23.6954 63.7101 23.8543 63.4939 23.9815C63.2777 24.0959 63.0616 24.1659 62.8454 24.1913Z" fill="white"/>
<path d="M53.2699 25.412C53.0664 25.4247 52.863 25.4184 52.6595 25.3929C52.4561 25.3675 52.2653 25.3039 52.0873 25.2022C51.7821 25.0751 51.5469 24.8525 51.3816 24.5346C51.2544 24.3057 51.1654 24.0641 51.1145 23.8098C51.0764 23.5428 51.0446 23.2821 51.0192 23.0278C50.9683 22.481 50.9492 21.9406 50.9619 21.4065C50.9747 20.8597 50.9937 20.3193 51.0192 19.7852C50.536 19.7852 50.0591 19.7852 49.5886 19.7852C49.1181 19.7725 48.6477 19.7789 48.1772 19.8043C48.1772 19.9061 48.1708 20.0968 48.1581 20.3765C48.1581 20.6563 48.1517 20.9551 48.139 21.273C48.1263 21.5909 48.1136 21.8961 48.1009 22.1885C48.1009 22.4683 48.0945 22.6527 48.0818 22.7417C48.0564 22.8816 48.0309 23.0151 48.0055 23.1422C47.9928 23.2694 47.961 23.4029 47.9101 23.5428C47.8466 23.7335 47.7385 23.9115 47.5859 24.0769C47.446 24.2422 47.2871 24.3757 47.109 24.4774C46.8166 24.6173 46.4923 24.6999 46.1363 24.7254C45.7929 24.7508 45.4687 24.7126 45.1635 24.6109C44.96 24.5473 44.7693 24.4456 44.5913 24.3057C44.4133 24.1659 44.2734 24.0069 44.1717 23.8289C44.1081 23.7272 44.0636 23.5619 44.0381 23.333C44.0254 23.1041 44.0127 22.8625 44 22.6082C44 22.3411 44 22.0868 44 21.8452C44.0127 21.6036 44.0191 21.4256 44.0191 21.3112C44.0191 21.0823 44.0191 20.7008 44.0191 20.1667C44.0191 19.6327 44.0191 19.0287 44.0191 18.3547C44.0191 17.6681 44.0191 16.9496 44.0191 16.1994C44.0191 15.4364 44.0191 14.718 44.0191 14.044C44.0318 13.3574 44.0445 12.747 44.0572 12.2129C44.0699 11.6789 44.0954 11.2974 44.1335 11.0685C44.1589 10.9286 44.1844 10.7888 44.2098 10.6489C44.248 10.4963 44.3115 10.3628 44.4006 10.2483C44.4896 10.1085 44.6231 9.99403 44.8011 9.90502C44.9155 9.84144 45.0872 9.79693 45.3161 9.7715C45.545 9.73335 45.7866 9.71428 46.0409 9.71428C46.3079 9.71428 46.5559 9.72064 46.7848 9.73335C47.0264 9.74607 47.2171 9.76514 47.357 9.79058C47.6749 9.85416 47.9101 10.0131 48.0627 10.2674C48.1644 10.4327 48.2344 10.6107 48.2725 10.8015C48.3107 10.9922 48.3298 11.183 48.3298 11.3737C48.3425 12.0985 48.317 12.8233 48.2535 13.5481C48.2026 14.2729 48.1899 15.0041 48.2153 15.7416C49.1436 15.6526 50.0782 15.6144 51.0192 15.6272C51.0192 15.5127 51.0192 15.3283 51.0192 15.074C51.0192 14.8197 51.0192 14.5272 51.0192 14.1966C51.0192 13.866 51.0192 13.5227 51.0192 13.1666C51.0319 12.8106 51.0382 12.4673 51.0382 12.1367C51.051 11.806 51.0637 11.5136 51.0764 11.2593C51.0891 11.0049 51.1082 10.8206 51.1336 10.7061C51.159 10.5662 51.2035 10.4264 51.2671 10.2865C51.3434 10.1339 51.4451 10.0131 51.5723 9.92409C51.6613 9.86051 51.8075 9.80965 52.011 9.7715C52.2272 9.72064 52.4497 9.68249 52.6786 9.65706C52.9202 9.63163 53.1491 9.61891 53.3652 9.61891C53.5814 9.6062 53.7467 9.6062 53.8612 9.61891C54.0773 9.63163 54.2999 9.66977 54.5287 9.73335C54.7576 9.79693 54.942 9.91773 55.0819 10.0958C55.2726 10.2992 55.3871 10.5599 55.4252 10.8778C55.4888 11.3101 55.5079 11.7425 55.4824 12.1748C55.457 12.5944 55.4252 13.0204 55.3871 13.4527C55.2599 14.9151 55.1582 16.371 55.0819 17.8206C55.0056 19.2575 55.0374 20.7008 55.1773 22.1504C55.1773 22.2013 55.1836 22.303 55.1963 22.4556C55.2218 22.5955 55.2408 22.7544 55.2535 22.9324C55.279 23.0977 55.2981 23.2567 55.3108 23.4093C55.3235 23.5491 55.3298 23.6445 55.3298 23.6954C55.3298 23.8353 55.3235 23.9751 55.3108 24.115C55.3108 24.2422 55.2853 24.3693 55.2345 24.4965C55.1709 24.6364 55.0755 24.7635 54.9484 24.878C54.8212 24.9924 54.6877 25.0814 54.5478 25.145C54.3444 25.234 54.1346 25.2976 53.9184 25.3357C53.7022 25.3739 53.486 25.3993 53.2699 25.412Z" fill="white"/>
<path fill-rule="evenodd" clip-rule="evenodd" d="M10 0C4.47715 0 0 4.47715 0 10V24C0 29.5228 4.47715 34 10 34H24C29.5228 34 34 29.5228 34 24V10C34 4.47715 29.5228 0 24 0H10ZM21.1337 26.6855C21.42 26.7213 21.7063 26.7303 21.9926 26.7124C22.2968 26.6945 22.6011 26.6587 22.9053 26.605C23.2095 26.5513 23.5047 26.4618 23.7911 26.3366C23.9879 26.2471 24.1758 26.1218 24.3547 25.9608C24.5337 25.7997 24.6679 25.6208 24.7574 25.4239C24.8289 25.245 24.8647 25.0661 24.8647 24.8871C24.8826 24.6903 24.8916 24.4934 24.8916 24.2966C24.8916 24.225 24.8826 24.0908 24.8647 23.8939C24.8468 23.6792 24.82 23.4555 24.7842 23.2229C24.7663 22.9724 24.7395 22.7487 24.7037 22.5518C24.6858 22.3371 24.6768 22.1939 24.6768 22.1224C24.48 20.0824 24.4353 18.0513 24.5426 16.0292C24.65 13.9892 24.7932 11.9403 24.9721 9.88237C25.0258 9.27395 25.0705 8.67447 25.1063 8.08395C25.1421 7.47553 25.1153 6.8671 25.0258 6.25868C24.9721 5.81132 24.8111 5.44447 24.5426 5.15816C24.3458 4.90763 24.0863 4.73763 23.7642 4.64816C23.4421 4.55868 23.129 4.505 22.8247 4.48711C22.6637 4.46921 22.4311 4.46921 22.1268 4.48711C21.8226 4.48711 21.5005 4.505 21.1605 4.54079C20.8384 4.57658 20.5253 4.63026 20.2211 4.70184C19.9347 4.75553 19.7289 4.8271 19.6037 4.91658C19.4247 5.04184 19.2816 5.21184 19.1742 5.42658C19.0847 5.62342 19.0221 5.82026 18.9863 6.0171C18.9505 6.17816 18.9237 6.43763 18.9058 6.79553C18.8879 7.15342 18.87 7.565 18.8521 8.03026C18.8521 8.49553 18.8432 8.97868 18.8253 9.47974V10.9292V12.1639V12.9424C17.5011 12.9245 16.1858 12.9782 14.8795 13.1034C14.8437 12.0655 14.8616 11.0366 14.9332 10.0166C15.0226 8.99658 15.0584 7.97658 15.0405 6.95658C15.0405 6.68816 15.0137 6.41974 14.96 6.15132C14.9063 5.88289 14.8079 5.63237 14.6647 5.39974C14.45 5.04184 14.1189 4.81816 13.6716 4.72868C13.4747 4.69289 13.2063 4.66605 12.8663 4.64816C12.5442 4.63026 12.1953 4.62132 11.8195 4.62132C11.4616 4.62132 11.1216 4.64816 10.7995 4.70184C10.4774 4.73763 10.2358 4.80026 10.0747 4.88974C9.82421 5.015 9.63632 5.17605 9.51105 5.37289C9.38579 5.53395 9.29632 5.72184 9.24263 5.93658L9.13526 6.5271C9.08158 6.84921 9.04579 7.38605 9.02789 8.13763C9.01 8.88921 8.99211 9.74816 8.97421 10.7145V13.7476V16.7808V19.3308V20.9413C8.97421 21.1024 8.96526 21.3529 8.94737 21.6929V22.7666C8.96526 23.1245 8.98316 23.4645 9.00105 23.7866C9.03684 24.1087 9.09947 24.3413 9.18895 24.4845C9.33211 24.735 9.52895 24.9587 9.77947 25.1555C10.03 25.3524 10.2984 25.4955 10.5847 25.585C11.0142 25.7282 11.4705 25.7818 11.9537 25.7461C12.4547 25.7103 12.9111 25.5939 13.3226 25.3971C13.5732 25.2539 13.7968 25.0661 13.9937 24.8334C14.2084 24.6008 14.3605 24.3503 14.45 24.0818C14.5216 23.885 14.5663 23.6971 14.5842 23.5182C14.62 23.3392 14.6558 23.1513 14.6916 22.9545C14.7095 22.8292 14.7184 22.5697 14.7184 22.1761C14.7363 21.7645 14.7542 21.335 14.7721 20.8876C14.79 20.4403 14.7989 20.0197 14.7989 19.6261C14.8168 19.2324 14.8258 18.9639 14.8258 18.8208C15.4879 18.785 16.15 18.7761 16.8121 18.7939H18.8253C18.7895 19.5455 18.7626 20.3061 18.7447 21.0755C18.7268 21.8271 18.7537 22.5876 18.8253 23.3571C18.8611 23.715 18.9058 24.0818 18.9595 24.4576C19.0311 24.8155 19.1563 25.1555 19.3353 25.4776C19.5679 25.925 19.8989 26.2382 20.3284 26.4171C20.5789 26.5603 20.8474 26.6497 21.1337 26.6855Z" fill="#1AC3B8"/>
</svg>
