<svg width="75" height="75" viewBox="0 0 75 75" fill="none" xmlns="http://www.w3.org/2000/svg">
<path d="M59.375 43.8347C66.2784 43.8347 71.875 50.0847 71.875 54.7722C71.875 57.361 69.7763 59.4597 67.1875 59.4597H65.625" stroke="white" stroke-width="1.5" stroke-linecap="round" stroke-linejoin="round"/>
<path d="M53.125 34.4597C58.3028 34.4597 62.5 30.2624 62.5 25.0847C62.5 19.9071 58.3028 15.7097 53.125 15.7097" stroke="white" stroke-width="1.5" stroke-linecap="round" stroke-linejoin="round"/>
<path d="M23.4375 59.4597H51.5625C54.1513 59.4597 56.25 57.361 56.25 54.7722C56.25 46.9597 46.875 43.8347 37.5 43.8347C28.125 43.8347 18.75 46.9597 18.75 54.7722C18.75 57.361 20.8487 59.4597 23.4375 59.4597Z" stroke="white" stroke-width="1.5" stroke-linecap="round" stroke-linejoin="round"/>
<path d="M37.5 34.4597C42.6778 34.4597 46.875 30.2624 46.875 25.0847C46.875 19.9071 42.6778 15.7097 37.5 15.7097C32.3222 15.7097 28.125 19.9071 28.125 25.0847C28.125 30.2624 32.3222 34.4597 37.5 34.4597Z" stroke="white" stroke-width="1.5" stroke-linecap="round" stroke-linejoin="round"/>
<path d="M15.625 43.8347C8.72144 43.8347 3.125 50.0847 3.125 54.7722C3.125 57.361 5.22366 59.4597 7.8125 59.4597H9.375" stroke="white" stroke-width="1.5" stroke-linecap="round" stroke-linejoin="round"/>
<path d="M21.875 34.4597C16.6973 34.4597 12.5 30.2624 12.5 25.0847C12.5 19.9071 16.6973 15.7097 21.875 15.7097" stroke="white" stroke-width="1.5" stroke-linecap="round" stroke-linejoin="round"/>
</svg>
