<svg width="13" height="12" viewBox="0 0 13 12" fill="none" xmlns="http://www.w3.org/2000/svg">
<path d="M5.46563 0.826319C5.77552 -0.0723622 7.04649 -0.0723631 7.35638 0.826319L8.08473 2.93857C8.22381 3.3419 8.60347 3.61258 9.03011 3.61258H11.2547C12.2377 3.61258 12.6307 4.8824 11.8196 5.43774L10.1242 6.59842C9.75266 6.85274 9.59692 7.32395 9.74369 7.74956L10.4151 9.69654C10.7292 10.6075 9.69989 11.392 8.90478 10.8477L6.97591 9.52718C6.63538 9.29405 6.18662 9.29405 5.8461 9.52718L3.91723 10.8477C3.12212 11.392 2.09283 10.6075 2.40695 9.69654L3.07832 7.74956C3.22508 7.32395 3.06934 6.85274 2.69785 6.59841L1.00244 5.43774C0.191268 4.8824 0.584293 3.61258 1.56735 3.61258H3.7919C4.21854 3.61258 4.59819 3.3419 4.73727 2.93857L5.46563 0.826319Z" fill="#F3F2F2"/>
</svg>
